%TF.GenerationSoftware,KiCad,Pcbnew,8.0.3-8.0.3-0~ubuntu22.04.1*%
%TF.CreationDate,2025-01-19T16:52:08+01:00*%
%TF.ProjectId,ADC_pHAT_AFE_ADC10080,4144435f-7048-4415-945f-4146455f4144,rev?*%
%TF.SameCoordinates,PX5cbead0PY5705d50*%
%TF.FileFunction,Component,L2,Bot*%
%TF.FilePolarity,Positive*%
%FSLAX46Y46*%
G04 Gerber Fmt 4.6, Leading zero omitted, Abs format (unit mm)*
G04 Created by KiCad (PCBNEW 8.0.3-8.0.3-0~ubuntu22.04.1) date 2025-01-19 16:52:08*
%MOMM*%
%LPD*%
G01*
G04 APERTURE LIST*
%TA.AperFunction,ComponentMain*%
%ADD10C,0.300000*%
%TD*%
%TA.AperFunction,ComponentOutline,Courtyard*%
%ADD11C,0.100000*%
%TD*%
%TA.AperFunction,ComponentPin*%
%ADD12P,0.360000X4X0.000000*%
%TD*%
%TA.AperFunction,ComponentPin*%
%ADD13C,0.100000*%
%TD*%
G04 APERTURE END LIST*
D10*
%TO.C,J2*%
%TO.CFtp,PinSocket_2x20_P2.54mm_Vertical*%
%TO.CVal,Conn_02x20_Odd_Even*%
%TO.CLbN,Connector_PinSocket_2.54mm*%
%TO.CMnt,TH*%
%TO.CRot,90*%
X8400000Y25460000D03*
D11*
X58399999Y29799999D02*
X58399999Y23700001D01*
X6600001Y23700001D01*
X6600001Y29799999D01*
X58399999Y29799999D01*
D12*
%TO.P,J2,1,Pin_1*%
X8400000Y25460000D03*
D13*
%TO.P,J2,2,Pin_2*%
X8400000Y28000000D03*
%TO.P,J2,3,Pin_3*%
X10940000Y25460000D03*
%TO.P,J2,4,Pin_4*%
X10940000Y28000000D03*
%TO.P,J2,5,Pin_5*%
X13480000Y25460000D03*
%TO.P,J2,6,Pin_6*%
X13480000Y28000000D03*
%TO.P,J2,7,Pin_7*%
X16020000Y25460000D03*
%TO.P,J2,8,Pin_8*%
X16020000Y28000000D03*
%TO.P,J2,9,Pin_9*%
X18560000Y25460000D03*
%TO.P,J2,10,Pin_10*%
X18560000Y28000000D03*
%TO.P,J2,11,Pin_11*%
X21100000Y25460000D03*
%TO.P,J2,12,Pin_12*%
X21100000Y28000000D03*
%TO.P,J2,13,Pin_13*%
X23640000Y25460000D03*
%TO.P,J2,14,Pin_14*%
X23640000Y28000000D03*
%TO.P,J2,15,Pin_15*%
X26180000Y25460000D03*
%TO.P,J2,16,Pin_16*%
X26180000Y28000000D03*
%TO.P,J2,17,Pin_17*%
X28720000Y25460000D03*
%TO.P,J2,18,Pin_18*%
X28720000Y28000000D03*
%TO.P,J2,19,Pin_19*%
X31260000Y25460000D03*
%TO.P,J2,20,Pin_20*%
X31260000Y28000000D03*
%TO.P,J2,21,Pin_21*%
X33800000Y25460000D03*
%TO.P,J2,22,Pin_22*%
X33800000Y28000000D03*
%TO.P,J2,23,Pin_23*%
X36340000Y25460000D03*
%TO.P,J2,24,Pin_24*%
X36340000Y28000000D03*
%TO.P,J2,25,Pin_25*%
X38880000Y25460000D03*
%TO.P,J2,26,Pin_26*%
X38880000Y28000000D03*
%TO.P,J2,27,Pin_27*%
X41420000Y25460000D03*
%TO.P,J2,28,Pin_28*%
X41420000Y28000000D03*
%TO.P,J2,29,Pin_29*%
X43960000Y25460000D03*
%TO.P,J2,30,Pin_30*%
X43960000Y28000000D03*
%TO.P,J2,31,Pin_31*%
X46500000Y25460000D03*
%TO.P,J2,32,Pin_32*%
X46500000Y28000000D03*
%TO.P,J2,33,Pin_33*%
X49040000Y25460000D03*
%TO.P,J2,34,Pin_34*%
X49040000Y28000000D03*
%TO.P,J2,35,Pin_35*%
X51580000Y25460000D03*
%TO.P,J2,36,Pin_36*%
X51580000Y28000000D03*
%TO.P,J2,37,Pin_37*%
X54120000Y25460000D03*
%TO.P,J2,38,Pin_38*%
X54120000Y28000000D03*
%TO.P,J2,39,Pin_39*%
X56660000Y25460000D03*
%TO.P,J2,40,Pin_40*%
X56660000Y28000000D03*
%TD*%
D10*
%TO.C,U1*%
%TO.CFtp,RPi_Pico_SMD*%
%TO.CVal,Pico*%
%TO.CLbN,ICTAMKY_V8*%
%TO.CMnt,TH*%
%TO.CRot,-90*%
X32500000Y12000000D03*
D11*
X58499999Y22999999D02*
X58499999Y1000001D01*
X6500001Y1000001D01*
X6500001Y22999999D01*
X58499999Y22999999D01*
D12*
%TO.P,U1,1,GPIO0*%
X56630000Y3110000D03*
D13*
%TO.P,U1,*%
X56500000Y9275000D03*
X53470000Y9575000D03*
X53470000Y14425000D03*
X56500000Y14725000D03*
%TO.P,U1,2,GPIO1*%
X54090000Y3110000D03*
%TO.P,U1,3,GND*%
X51550000Y3110000D03*
%TO.P,U1,4,GPIO2*%
X49010000Y3110000D03*
%TO.P,U1,5,GPIO3*%
X46470000Y3110000D03*
%TO.P,U1,6,GPIO4*%
X43930000Y3110000D03*
%TO.P,U1,7,GPIO5*%
X41390000Y3110000D03*
%TO.P,U1,8,GND*%
X38850000Y3110000D03*
%TO.P,U1,9,GPIO6*%
X36310000Y3110000D03*
%TO.P,U1,10,GPIO7*%
X33770000Y3110000D03*
%TO.P,U1,11,GPIO8*%
X31230000Y3110000D03*
%TO.P,U1,12,GPIO9*%
X28690000Y3110000D03*
%TO.P,U1,13,GND*%
X26150000Y3110000D03*
%TO.P,U1,14,GPIO10*%
X23610000Y3110000D03*
%TO.P,U1,15,GPIO11*%
X21070000Y3110000D03*
%TO.P,U1,16,GPIO12*%
X18530000Y3110000D03*
%TO.P,U1,17,GPIO13*%
X15990000Y3110000D03*
%TO.P,U1,18,GND*%
X13450000Y3110000D03*
%TO.P,U1,19,GPIO14*%
X10910000Y3110000D03*
%TO.P,U1,20,GPIO15*%
X8370000Y3110000D03*
%TO.P,U1,21,GPIO16*%
X8370000Y20890000D03*
%TO.P,U1,22,GPIO17*%
X10910000Y20890000D03*
%TO.P,U1,23,GND*%
X13450000Y20890000D03*
%TO.P,U1,24,GPIO18*%
X15990000Y20890000D03*
%TO.P,U1,25,GPIO19*%
X18530000Y20890000D03*
%TO.P,U1,26,GPIO20*%
X21070000Y20890000D03*
%TO.P,U1,27,GPIO21*%
X23610000Y20890000D03*
%TO.P,U1,28,GND*%
X26150000Y20890000D03*
%TO.P,U1,29,GPIO22*%
X28690000Y20890000D03*
%TO.P,U1,30,RUN*%
X31230000Y20890000D03*
%TO.P,U1,31,GPIO26_ADC0*%
X33770000Y20890000D03*
%TO.P,U1,32,GPIO27_ADC1*%
X36310000Y20890000D03*
%TO.P,U1,33,AGND*%
X38850000Y20890000D03*
%TO.P,U1,34,GPIO28_ADC2*%
X41390000Y20890000D03*
%TO.P,U1,35,ADC_VREF*%
X43930000Y20890000D03*
%TO.P,U1,36,3V3*%
X46470000Y20890000D03*
%TO.P,U1,37,3V3_EN*%
X49010000Y20890000D03*
%TO.P,U1,38,GND*%
X51550000Y20890000D03*
%TO.P,U1,39,VSYS*%
X54090000Y20890000D03*
%TO.P,U1,40,VBUS*%
X56630000Y20890000D03*
%TO.P,U1,41,SWCLK*%
X8600000Y9460000D03*
%TO.P,U1,42,GND*%
X8600000Y12000000D03*
%TO.P,U1,43,SWDIO*%
X8600000Y14540000D03*
%TD*%
M02*
