M48
; DRILL file {KiCad 8.0.6} date 2024-12-01T10:06:19+0700
; FORMAT={-:-/ absolute / metric / decimal}
; #@! TF.CreationDate,2024-12-01T10:06:19+07:00
; #@! TF.GenerationSoftware,Kicad,Pcbnew,8.0.6
; #@! TF.FileFunction,Plated,1,2,PTH
FMAT,2
METRIC
; #@! TA.AperFunction,Plated,PTH,ViaDrill
T1C0.300
; #@! TA.AperFunction,Plated,PTH,ComponentDrill
T2C0.300
; #@! TA.AperFunction,Plated,PTH,ComponentDrill
T3C1.000
%
G90
G05
T1
X0.75Y22.5
X0.75Y7.25
X2.0Y22.5
X2.0Y7.25
X3.25Y22.5
X3.25Y7.25
X4.75Y22.5
X4.75Y7.25
X6.25Y22.5
X6.25Y21.0
X6.25Y19.75
X6.25Y18.5
X6.25Y17.25
X6.25Y7.25
X7.25Y4.75
X7.55Y7.75
X8.5Y4.75
X10.375Y17.375
X11.2Y5.2
X12.65Y9.0
X12.65Y4.9
X13.25Y5.75
X13.45Y4.65
X13.7Y10.8
X14.5Y9.1
X15.5Y16.25
X15.8Y4.8
X16.0Y20.9
X16.25Y9.75
X17.2Y19.8
X17.25Y14.0
X17.25Y10.25
X17.65Y7.85
X17.8Y5.85
X18.0Y22.25
X18.55Y18.25
X19.2Y17.65
X20.75Y11.0
X21.07Y23.25
X21.55Y17.1
X21.55Y13.4
X21.625Y19.475
X21.75Y9.75
X21.9Y6.1
X25.0Y24.25
X26.0Y10.0
X26.25Y5.75
X26.25Y4.65
X26.5Y18.5
X26.65Y15.5
X28.25Y19.2
X28.75Y10.25
X28.995Y4.49
X29.5Y15.5
X29.8Y12.45
X29.8Y11.15
X30.1Y7.2
X31.0Y19.45
X31.0Y11.15
X32.195Y4.14
X32.35Y12.65
X32.75Y17.0
X32.75Y15.25
X33.5Y12.25
X33.5Y9.75
X33.5Y8.5
X33.75Y18.5
X33.77Y20.89
X34.5Y11.25
X34.55Y14.2
X34.75Y8.5
X34.995Y4.49
X35.5Y10.25
X36.0Y12.75
X36.75Y9.0
X37.25Y11.5
X37.495Y4.49
X38.0Y8.25
X38.75Y11.75
X38.75Y10.25
X38.75Y1.0
X39.0Y7.675
X40.0Y15.5
X40.25Y14.0
X40.25Y11.75
X40.695Y17.84
X42.745Y4.49
X43.75Y11.75
X44.0Y15.7
X44.9Y11.05
X44.95Y12.85
X45.245Y4.49
X45.55Y17.95
X45.65Y13.9
X46.0Y7.5
X46.5Y23.75
X46.6Y11.05
X47.62Y4.24
X47.75Y7.5
X49.75Y17.5
X51.02Y5.015
X51.1Y22.55
X51.1Y17.5
X52.05Y22.55
X54.745Y4.99
X55.05Y16.1
X57.745Y4.99
X58.35Y0.6
X58.4Y16.45
X59.05Y5.4
X59.25Y22.75
X59.55Y29.45
T2
X26.5Y8.25
X27.5Y8.25
X28.5Y8.25
T3
X3.3Y15.0
X8.4Y28.0
X8.4Y25.46
X10.94Y28.0
X10.94Y25.46
X13.48Y28.0
X13.48Y25.46
X16.02Y28.0
X16.02Y25.46
X18.56Y28.0
X18.56Y25.46
X21.1Y28.0
X21.1Y25.46
X23.64Y28.0
X23.64Y25.46
X26.18Y28.0
X26.18Y25.46
X28.72Y28.0
X28.72Y25.46
X31.26Y28.0
X31.26Y25.46
X33.8Y28.0
X33.8Y25.46
X36.34Y28.0
X36.34Y25.46
X38.88Y28.0
X38.88Y25.46
X41.42Y28.0
X41.42Y25.46
X43.96Y28.0
X43.96Y25.46
X46.5Y28.0
X46.5Y25.46
X49.04Y28.0
X49.04Y25.46
X51.58Y28.0
X51.58Y25.46
X54.12Y28.0
X54.12Y25.46
X56.66Y28.0
X56.66Y25.46
M30
