%TF.GenerationSoftware,KiCad,Pcbnew,8.0.6*%
%TF.CreationDate,2024-12-01T10:06:18+07:00*%
%TF.ProjectId,ADC_pHAT_AFE_ADC10080,4144435f-7048-4415-945f-4146455f4144,rev?*%
%TF.SameCoordinates,PX5cbead0PY5705d50*%
%TF.FileFunction,Soldermask,Bot*%
%TF.FilePolarity,Negative*%
%FSLAX46Y46*%
G04 Gerber Fmt 4.6, Leading zero omitted, Abs format (unit mm)*
G04 Created by KiCad (PCBNEW 8.0.6) date 2024-12-01 10:06:18*
%MOMM*%
%LPD*%
G01*
G04 APERTURE LIST*
G04 Aperture macros list*
%AMRoundRect*
0 Rectangle with rounded corners*
0 $1 Rounding radius*
0 $2 $3 $4 $5 $6 $7 $8 $9 X,Y pos of 4 corners*
0 Add a 4 corners polygon primitive as box body*
4,1,4,$2,$3,$4,$5,$6,$7,$8,$9,$2,$3,0*
0 Add four circle primitives for the rounded corners*
1,1,$1+$1,$2,$3*
1,1,$1+$1,$4,$5*
1,1,$1+$1,$6,$7*
1,1,$1+$1,$8,$9*
0 Add four rect primitives between the rounded corners*
20,1,$1+$1,$2,$3,$4,$5,0*
20,1,$1+$1,$4,$5,$6,$7,0*
20,1,$1+$1,$6,$7,$8,$9,0*
20,1,$1+$1,$8,$9,$2,$3,0*%
G04 Aperture macros list end*
%ADD10C,3.200000*%
%ADD11C,2.000000*%
%ADD12R,4.900000X4.800000*%
%ADD13R,1.700000X1.700000*%
%ADD14O,1.700000X1.700000*%
%ADD15O,1.800000X1.800000*%
%ADD16O,1.500000X1.500000*%
%ADD17RoundRect,0.425000X0.425000X-1.325000X0.425000X1.325000X-0.425000X1.325000X-0.425000X-1.325000X0*%
%ADD18RoundRect,0.425000X-1.325000X-0.425000X1.325000X-0.425000X1.325000X0.425000X-1.325000X0.425000X0*%
G04 APERTURE END LIST*
D10*
%TO.C,REF\u002A\u002A*%
X61500000Y3500000D03*
%TD*%
D11*
%TO.C,REF\u002A\u002A*%
X3300000Y15000000D03*
%TD*%
D12*
%TO.C,J3*%
X2825000Y19250000D03*
X2825000Y10750000D03*
%TD*%
D10*
%TO.C,REF\u002A\u002A*%
X3500000Y3500000D03*
%TD*%
%TO.C,REF\u002A\u002A*%
X61500000Y26500000D03*
%TD*%
%TO.C,REF\u002A\u002A*%
X3500000Y26500000D03*
%TD*%
D13*
%TO.C,J2*%
X8400000Y25460000D03*
D14*
X8400000Y28000000D03*
X10940000Y25460000D03*
X10940000Y28000000D03*
X13480000Y25460000D03*
X13480000Y28000000D03*
X16020000Y25460000D03*
X16020000Y28000000D03*
X18560000Y25460000D03*
X18560000Y28000000D03*
X21100000Y25460000D03*
X21100000Y28000000D03*
X23640000Y25460000D03*
X23640000Y28000000D03*
X26180000Y25460000D03*
X26180000Y28000000D03*
X28720000Y25460000D03*
X28720000Y28000000D03*
X31260000Y25460000D03*
X31260000Y28000000D03*
X33800000Y25460000D03*
X33800000Y28000000D03*
X36340000Y25460000D03*
X36340000Y28000000D03*
X38880000Y25460000D03*
X38880000Y28000000D03*
X41420000Y25460000D03*
X41420000Y28000000D03*
X43960000Y25460000D03*
X43960000Y28000000D03*
X46500000Y25460000D03*
X46500000Y28000000D03*
X49040000Y25460000D03*
X49040000Y28000000D03*
X51580000Y25460000D03*
X51580000Y28000000D03*
X54120000Y25460000D03*
X54120000Y28000000D03*
X56660000Y25460000D03*
X56660000Y28000000D03*
%TD*%
D15*
%TO.C,U1*%
X56500000Y9275000D03*
D16*
X53470000Y9575000D03*
X53470000Y14425000D03*
D15*
X56500000Y14725000D03*
D17*
X56630000Y2210000D03*
X54090000Y2210000D03*
X51550000Y2210000D03*
X49010000Y2210000D03*
X46470000Y2210000D03*
X43930000Y2210000D03*
X41390000Y2210000D03*
X38850000Y2210000D03*
X36310000Y2210000D03*
X33770000Y2210000D03*
X31230000Y2210000D03*
X28690000Y2210000D03*
X26150000Y2210000D03*
X23610000Y2210000D03*
X21070000Y2210000D03*
X18530000Y2210000D03*
X15990000Y2210000D03*
X13450000Y2210000D03*
X10910000Y2210000D03*
X8370000Y2210000D03*
X8370000Y21790000D03*
X10910000Y21790000D03*
X13450000Y21790000D03*
X15990000Y21790000D03*
X18530000Y21790000D03*
X21070000Y21790000D03*
X23610000Y21790000D03*
X26150000Y21790000D03*
X28690000Y21790000D03*
X31230000Y21790000D03*
X33770000Y21790000D03*
X36310000Y21790000D03*
X38850000Y21790000D03*
X41390000Y21790000D03*
X43930000Y21790000D03*
X46470000Y21790000D03*
X49010000Y21790000D03*
X51550000Y21790000D03*
X54090000Y21790000D03*
X56630000Y21790000D03*
D18*
X7700000Y9460000D03*
X7700000Y12000000D03*
X7700000Y14540000D03*
%TD*%
M02*
