%TF.GenerationSoftware,KiCad,Pcbnew,8.0.3-8.0.3-0~ubuntu22.04.1*%
%TF.CreationDate,2024-10-11T11:53:37+02:00*%
%TF.ProjectId,ADC_pHAT_AFE,4144435f-7048-4415-945f-4146452e6b69,rev?*%
%TF.SameCoordinates,PX5cbead0PY5705d50*%
%TF.FileFunction,Copper,L2,Bot*%
%TF.FilePolarity,Positive*%
%FSLAX46Y46*%
G04 Gerber Fmt 4.6, Leading zero omitted, Abs format (unit mm)*
G04 Created by KiCad (PCBNEW 8.0.3-8.0.3-0~ubuntu22.04.1) date 2024-10-11 11:53:37*
%MOMM*%
%LPD*%
G01*
G04 APERTURE LIST*
G04 Aperture macros list*
%AMRoundRect*
0 Rectangle with rounded corners*
0 $1 Rounding radius*
0 $2 $3 $4 $5 $6 $7 $8 $9 X,Y pos of 4 corners*
0 Add a 4 corners polygon primitive as box body*
4,1,4,$2,$3,$4,$5,$6,$7,$8,$9,$2,$3,0*
0 Add four circle primitives for the rounded corners*
1,1,$1+$1,$2,$3*
1,1,$1+$1,$4,$5*
1,1,$1+$1,$6,$7*
1,1,$1+$1,$8,$9*
0 Add four rect primitives between the rounded corners*
20,1,$1+$1,$2,$3,$4,$5,0*
20,1,$1+$1,$4,$5,$6,$7,0*
20,1,$1+$1,$6,$7,$8,$9,0*
20,1,$1+$1,$8,$9,$2,$3,0*%
G04 Aperture macros list end*
%TA.AperFunction,ComponentPad*%
%ADD10C,0.600000*%
%TD*%
%TA.AperFunction,SMDPad,CuDef*%
%ADD11R,2.650000X1.000000*%
%TD*%
%TA.AperFunction,ComponentPad*%
%ADD12C,2.000000*%
%TD*%
%TA.AperFunction,SMDPad,CuDef*%
%ADD13R,4.900000X4.800000*%
%TD*%
%TA.AperFunction,ComponentPad*%
%ADD14R,1.700000X1.700000*%
%TD*%
%TA.AperFunction,ComponentPad*%
%ADD15O,1.700000X1.700000*%
%TD*%
%TA.AperFunction,SMDPad,CuDef*%
%ADD16RoundRect,0.425000X0.425000X-1.325000X0.425000X1.325000X-0.425000X1.325000X-0.425000X-1.325000X0*%
%TD*%
%TA.AperFunction,SMDPad,CuDef*%
%ADD17RoundRect,0.425000X-1.325000X-0.425000X1.325000X-0.425000X1.325000X0.425000X-1.325000X0.425000X0*%
%TD*%
%TA.AperFunction,ViaPad*%
%ADD18C,0.600000*%
%TD*%
%TA.AperFunction,Conductor*%
%ADD19C,0.250000*%
%TD*%
%TA.AperFunction,Conductor*%
%ADD20C,0.500000*%
%TD*%
%TA.AperFunction,Conductor*%
%ADD21C,0.300000*%
%TD*%
%TA.AperFunction,Conductor*%
%ADD22C,1.000000*%
%TD*%
G04 APERTURE END LIST*
D10*
%TO.P,U3,13,PAD*%
%TO.N,GNDA*%
X26500000Y8250000D03*
X27500000Y8250000D03*
D11*
X27500000Y8250000D03*
D10*
X28500000Y8250000D03*
%TD*%
D12*
%TO.P,REF\u002A\u002A,1*%
%TO.N,Net-(J1-Pin_2)*%
X3300000Y15000000D03*
%TD*%
D13*
%TO.P,J3,2,Ext*%
%TO.N,GNDA*%
X2825000Y19250000D03*
X2825000Y10750000D03*
%TD*%
D14*
%TO.P,J2,1,Pin_1*%
%TO.N,unconnected-(J2-Pin_1-Pad1)*%
X8400000Y25460000D03*
D15*
%TO.P,J2,2,Pin_2*%
%TO.N,+5V*%
X8400000Y28000000D03*
%TO.P,J2,3,Pin_3*%
%TO.N,SDA*%
X10940000Y25460000D03*
%TO.P,J2,4,Pin_4*%
%TO.N,+5V*%
X10940000Y28000000D03*
%TO.P,J2,5,Pin_5*%
%TO.N,SCL*%
X13480000Y25460000D03*
%TO.P,J2,6,Pin_6*%
%TO.N,GNDA*%
X13480000Y28000000D03*
%TO.P,J2,7,Pin_7*%
%TO.N,SEL0*%
X16020000Y25460000D03*
%TO.P,J2,8,Pin_8*%
%TO.N,TX*%
X16020000Y28000000D03*
%TO.P,J2,9,Pin_9*%
%TO.N,GNDA*%
X18560000Y25460000D03*
%TO.P,J2,10,Pin_10*%
%TO.N,RX*%
X18560000Y28000000D03*
%TO.P,J2,11,Pin_11*%
%TO.N,GPIO21*%
X21100000Y25460000D03*
%TO.P,J2,12,Pin_12*%
%TO.N,SEL1*%
X21100000Y28000000D03*
%TO.P,J2,13,Pin_13*%
%TO.N,unconnected-(J2-Pin_13-Pad13)*%
X23640000Y25460000D03*
%TO.P,J2,14,Pin_14*%
%TO.N,GNDA*%
X23640000Y28000000D03*
%TO.P,J2,15,Pin_15*%
%TO.N,GPIO22*%
X26180000Y25460000D03*
%TO.P,J2,16,Pin_16*%
%TO.N,unconnected-(J2-Pin_16-Pad16)*%
X26180000Y28000000D03*
%TO.P,J2,17,Pin_17*%
%TO.N,GPIO26_ADC0*%
X28720000Y25460000D03*
%TO.P,J2,18,Pin_18*%
%TO.N,unconnected-(J2-Pin_18-Pad18)*%
X28720000Y28000000D03*
%TO.P,J2,19,Pin_19*%
%TO.N,SPI_MO*%
X31260000Y25460000D03*
%TO.P,J2,20,Pin_20*%
%TO.N,unconnected-(J2-Pin_20-Pad20)*%
X31260000Y28000000D03*
%TO.P,J2,21,Pin_21*%
%TO.N,SPI_MI*%
X33800000Y25460000D03*
%TO.P,J2,22,Pin_22*%
%TO.N,GNDA*%
X33800000Y28000000D03*
%TO.P,J2,23,Pin_23*%
%TO.N,SPI_CLK*%
X36340000Y25460000D03*
%TO.P,J2,24,Pin_24*%
%TO.N,SPI_CS*%
X36340000Y28000000D03*
%TO.P,J2,25,Pin_25*%
%TO.N,GNDA*%
X38880000Y25460000D03*
%TO.P,J2,26,Pin_26*%
%TO.N,GPIO27_ADC1*%
X38880000Y28000000D03*
%TO.P,J2,27,Pin_27*%
%TO.N,GPIO28_ADC2*%
X41420000Y25460000D03*
%TO.P,J2,28,Pin_28*%
%TO.N,unconnected-(J2-Pin_28-Pad28)*%
X41420000Y28000000D03*
%TO.P,J2,29,Pin_29*%
%TO.N,ADC_VREF*%
X43960000Y25460000D03*
%TO.P,J2,30,Pin_30*%
%TO.N,GNDA*%
X43960000Y28000000D03*
%TO.P,J2,31,Pin_31*%
%TO.N,unconnected-(J2-Pin_31-Pad31)*%
X46500000Y25460000D03*
%TO.P,J2,32,Pin_32*%
%TO.N,GPIO24*%
X46500000Y28000000D03*
%TO.P,J2,33,Pin_33*%
%TO.N,unconnected-(J2-Pin_33-Pad33)*%
X49040000Y25460000D03*
%TO.P,J2,34,Pin_34*%
%TO.N,GNDA*%
X49040000Y28000000D03*
%TO.P,J2,35,Pin_35*%
%TO.N,unconnected-(J2-Pin_35-Pad35)*%
X51580000Y25460000D03*
%TO.P,J2,36,Pin_36*%
%TO.N,GPIO25*%
X51580000Y28000000D03*
%TO.P,J2,37,Pin_37*%
%TO.N,unconnected-(J2-Pin_37-Pad37)*%
X54120000Y25460000D03*
%TO.P,J2,38,Pin_38*%
%TO.N,GNDA*%
X54120000Y28000000D03*
%TO.P,J2,39,Pin_39*%
X56660000Y25460000D03*
%TO.P,J2,40,Pin_40*%
%TO.N,unconnected-(J2-Pin_40-Pad40)*%
X56660000Y28000000D03*
%TD*%
D16*
%TO.P,U1,1,GPIO0*%
%TO.N,ADC_CLK*%
X56630000Y2210000D03*
%TO.P,U1,2,GPIO1*%
%TO.N,GPIO0*%
X54090000Y2210000D03*
%TO.P,U1,3,GND*%
%TO.N,GNDA*%
X51550000Y2210000D03*
%TO.P,U1,4,GPIO2*%
%TO.N,GPIO1*%
X49010000Y2210000D03*
%TO.P,U1,5,GPIO3*%
%TO.N,GPIO2*%
X46470000Y2210000D03*
%TO.P,U1,6,GPIO4*%
%TO.N,GPIO3*%
X43930000Y2210000D03*
%TO.P,U1,7,GPIO5*%
%TO.N,GPIO4*%
X41390000Y2210000D03*
%TO.P,U1,8,GND*%
%TO.N,GNDA*%
X38850000Y2210000D03*
%TO.P,U1,9,GPIO6*%
%TO.N,GPIO5*%
X36310000Y2210000D03*
%TO.P,U1,10,GPIO7*%
%TO.N,GPIO6*%
X33770000Y2210000D03*
%TO.P,U1,11,GPIO8*%
%TO.N,GPIO7*%
X31230000Y2210000D03*
%TO.P,U1,12,GPIO9*%
%TO.N,unconnected-(U1-GPIO9-Pad12)*%
X28690000Y2210000D03*
%TO.P,U1,13,GND*%
%TO.N,GNDA*%
X26150000Y2210000D03*
%TO.P,U1,14,GPIO10*%
%TO.N,SPI_CLK*%
X23610000Y2210000D03*
%TO.P,U1,15,GPIO11*%
%TO.N,SPI_MO*%
X21070000Y2210000D03*
%TO.P,U1,16,GPIO12*%
%TO.N,SPI_MI*%
X18530000Y2210000D03*
%TO.P,U1,17,GPIO13*%
%TO.N,SPI_CS*%
X15990000Y2210000D03*
%TO.P,U1,18,GND*%
%TO.N,GNDA*%
X13450000Y2210000D03*
%TO.P,U1,19,GPIO14*%
%TO.N,SEL1*%
X10910000Y2210000D03*
%TO.P,U1,20,GPIO15*%
%TO.N,SEL0*%
X8370000Y2210000D03*
%TO.P,U1,21,GPIO16*%
%TO.N,TX*%
X8370000Y21790000D03*
%TO.P,U1,22,GPIO17*%
%TO.N,RX*%
X10910000Y21790000D03*
%TO.P,U1,23,GND*%
%TO.N,GNDA*%
X13450000Y21790000D03*
%TO.P,U1,24,GPIO18*%
%TO.N,SDA*%
X15990000Y21790000D03*
%TO.P,U1,25,GPIO19*%
%TO.N,SCL*%
X18530000Y21790000D03*
%TO.P,U1,26,GPIO20*%
%TO.N,A00*%
X21070000Y21790000D03*
%TO.P,U1,27,GPIO21*%
%TO.N,GPIO21*%
X23610000Y21790000D03*
%TO.P,U1,28,GND*%
%TO.N,GNDA*%
X26150000Y21790000D03*
%TO.P,U1,29,GPIO22*%
%TO.N,GPIO22*%
X28690000Y21790000D03*
%TO.P,U1,30,RUN*%
%TO.N,unconnected-(U1-RUN-Pad30)*%
X31230000Y21790000D03*
%TO.P,U1,31,GPIO26_ADC0*%
%TO.N,GPIO26_ADC0*%
X33770000Y21790000D03*
%TO.P,U1,32,GPIO27_ADC1*%
%TO.N,GPIO27_ADC1*%
X36310000Y21790000D03*
%TO.P,U1,33,AGND*%
%TO.N,GNDA*%
X38850000Y21790000D03*
%TO.P,U1,34,GPIO28_ADC2*%
%TO.N,GPIO28_ADC2*%
X41390000Y21790000D03*
%TO.P,U1,35,ADC_VREF*%
%TO.N,ADC_VREF*%
X43930000Y21790000D03*
%TO.P,U1,36,3V3*%
%TO.N,+3.3V*%
X46470000Y21790000D03*
%TO.P,U1,37,3V3_EN*%
%TO.N,unconnected-(U1-3V3_EN-Pad37)*%
X49010000Y21790000D03*
%TO.P,U1,38,GND*%
%TO.N,GNDA*%
X51550000Y21790000D03*
%TO.P,U1,39,VSYS*%
%TO.N,unconnected-(U1-VSYS-Pad39)*%
X54090000Y21790000D03*
%TO.P,U1,40,VBUS*%
%TO.N,+5V*%
X56630000Y21790000D03*
D17*
%TO.P,U1,41,SWCLK*%
%TO.N,GPIO25*%
X7700000Y9460000D03*
%TO.P,U1,42,GND*%
%TO.N,GNDA*%
X7700000Y12000000D03*
%TO.P,U1,43,SWDIO*%
%TO.N,GPIO24*%
X7700000Y14540000D03*
%TD*%
D18*
%TO.N,SDA*%
X14950000Y19700000D03*
%TO.N,+3.3V*%
X46500000Y20325000D03*
%TO.N,SCL*%
X17200000Y19800000D03*
%TO.N,+3.3VA*%
X20750000Y11000000D03*
X25700000Y11950000D03*
X10250000Y5750000D03*
X38600000Y17900000D03*
X21750000Y9750000D03*
X10375000Y17375000D03*
X16250000Y9750000D03*
X21550000Y17100000D03*
X33250000Y14500000D03*
%TO.N,+5V*%
X26250000Y5750000D03*
X26000000Y10000000D03*
X28750000Y10250000D03*
%TO.N,-3V3*%
X30160000Y6650000D03*
X28450000Y15200000D03*
X17250000Y10250000D03*
X15500000Y16250000D03*
X21550000Y13400000D03*
X13700000Y10800000D03*
X31450000Y12250000D03*
%TO.N,GNDA*%
X33200000Y9600000D03*
X38900000Y16450000D03*
X41500000Y14750000D03*
X34550000Y14200000D03*
X33200000Y8300000D03*
X6250000Y21000000D03*
X6250000Y7250000D03*
X33200000Y11150000D03*
X4750000Y7250000D03*
X4750000Y22500000D03*
X22300000Y24050000D03*
X13250000Y5750000D03*
X34500000Y9600000D03*
X34500000Y8250000D03*
X41750000Y9500000D03*
X34650000Y6650000D03*
X6250000Y18500000D03*
X41400000Y7050000D03*
X53950000Y18900000D03*
X12500000Y4750000D03*
X52750000Y19500000D03*
X41750000Y11250000D03*
X33500000Y17900000D03*
X8000000Y7750000D03*
X43600000Y9100000D03*
X3250000Y22500000D03*
X35700000Y6950000D03*
X7250000Y4750000D03*
X6250000Y17250000D03*
X34500000Y11100000D03*
X39950000Y7050000D03*
X13450000Y4650000D03*
X41500000Y13450000D03*
X51500000Y15250000D03*
X2000000Y22500000D03*
X43660787Y10424999D03*
X52750000Y18200000D03*
X31250000Y10950000D03*
X27000000Y4500000D03*
X29800000Y10950000D03*
X15800000Y4800000D03*
X55400000Y19450000D03*
X34500000Y13000000D03*
X33550000Y13400000D03*
X33600000Y6650000D03*
X14500000Y9100000D03*
X3250000Y7250000D03*
X25000000Y24250000D03*
X21900000Y6100000D03*
X11250000Y5000000D03*
X6250000Y22500000D03*
X40950000Y19150000D03*
X750000Y7250000D03*
X2000000Y7250000D03*
X55050000Y18250000D03*
X6250000Y19750000D03*
X750000Y22500000D03*
%TO.N,ADC_CLK*%
X57750000Y4500000D03*
%TO.N,GPIO2*%
X47950000Y4350000D03*
%TO.N,GPIO7*%
X32200000Y4150000D03*
%TO.N,GPIO5*%
X37500000Y4500000D03*
%TO.N,GPIO3*%
X45250000Y4500000D03*
%TO.N,GPIO1*%
X51025000Y5025000D03*
%TO.N,GPIO6*%
X35000000Y4500000D03*
%TO.N,GPIO0*%
X54950000Y5050000D03*
%TO.N,GPIO4*%
X42750000Y4500000D03*
%TO.N,GPIO25*%
X26500000Y18500000D03*
%TO.N,/VA*%
X46250000Y18250000D03*
X37250000Y7250000D03*
X36500000Y14250000D03*
%TO.N,SPI_CS*%
X29950000Y23700000D03*
%TO.N,SPI_MI*%
X31000000Y19450000D03*
%TO.N,GPIO24*%
X28250000Y19200000D03*
%TO.N,SEL1*%
X12650000Y9000000D03*
X19200000Y17650000D03*
%TO.N,SEL0*%
X18550000Y18250000D03*
X8500000Y4750000D03*
%TO.N,Net-(U4-S1)*%
X17250000Y5750000D03*
X17450000Y7700000D03*
X17250000Y14000000D03*
%TO.N,A00*%
X21625000Y19475000D03*
%TD*%
D19*
%TO.N,SDA*%
X14950000Y19700000D02*
X14950000Y19850000D01*
X14950000Y19850000D02*
X15990000Y20890000D01*
D20*
%TO.N,+3.3V*%
X46500000Y20860000D02*
X46470000Y20890000D01*
X46500000Y20325000D02*
X46500000Y20860000D01*
D19*
%TO.N,SCL*%
X18530000Y20780000D02*
X18530000Y20890000D01*
X17200000Y19800000D02*
X17550000Y19800000D01*
X17550000Y19800000D02*
X18530000Y20780000D01*
%TO.N,+3.3VA*%
X31100000Y14950000D02*
X31100000Y14900000D01*
D21*
X13500000Y9750000D02*
X13500000Y9300000D01*
X13500000Y10100000D02*
X13500000Y9750000D01*
D19*
X37550000Y18950000D02*
X33200000Y18950000D01*
D21*
X16550000Y5450000D02*
X16550000Y9450000D01*
X12900000Y7900000D02*
X11650000Y7900000D01*
D19*
X38600000Y17900000D02*
X37550000Y18950000D01*
D21*
X12750000Y15000000D02*
X10375000Y17375000D01*
X22400000Y11400000D02*
X22400000Y11050000D01*
X15900000Y10100000D02*
X13750000Y10100000D01*
D19*
X31500000Y14500000D02*
X31700000Y14500000D01*
D21*
X22400000Y10400000D02*
X22400000Y10600000D01*
D19*
X31100000Y14900000D02*
X30700000Y14500000D01*
X25700000Y13650000D02*
X26550000Y14500000D01*
D21*
X22400000Y16250000D02*
X22400000Y11400000D01*
X22000000Y11000000D02*
X22350000Y11000000D01*
X13000000Y10100000D02*
X12750000Y10350000D01*
X13500000Y9850000D02*
X13250000Y10100000D01*
X22400000Y11050000D02*
X22400000Y10600000D01*
D19*
X26550000Y14500000D02*
X30550000Y14500000D01*
D21*
X22000000Y11000000D02*
X22400000Y11400000D01*
D19*
X31100000Y14500000D02*
X31100000Y14950000D01*
D21*
X13250000Y10100000D02*
X13000000Y10100000D01*
X18200000Y8950000D02*
X18200000Y5450000D01*
X21750000Y9750000D02*
X19000000Y9750000D01*
D19*
X30700000Y14500000D02*
X30550000Y14500000D01*
D21*
X13500000Y9750000D02*
X13500000Y9850000D01*
X13500000Y8500000D02*
X12900000Y7900000D01*
D19*
X31100000Y14500000D02*
X31500000Y14500000D01*
D21*
X17000000Y5000000D02*
X16550000Y5450000D01*
X13500000Y9300000D02*
X13500000Y8500000D01*
X17750000Y5000000D02*
X17000000Y5000000D01*
X13500000Y9850000D02*
X13750000Y10100000D01*
X19000000Y9750000D02*
X18200000Y8950000D01*
X18200000Y5450000D02*
X17750000Y5000000D01*
D19*
X25700000Y11950000D02*
X25700000Y13650000D01*
D21*
X13750000Y10100000D02*
X13250000Y10100000D01*
D19*
X30550000Y14500000D02*
X31100000Y14500000D01*
D21*
X22350000Y11000000D02*
X22400000Y11050000D01*
D19*
X33200000Y18950000D02*
X31100000Y16850000D01*
D21*
X16250000Y9750000D02*
X15900000Y10100000D01*
X16550000Y9450000D02*
X16250000Y9750000D01*
X22000000Y11000000D02*
X22400000Y10600000D01*
X12750000Y10350000D02*
X12750000Y15000000D01*
X11650000Y7900000D02*
X10250000Y6500000D01*
X20750000Y11000000D02*
X22000000Y11000000D01*
X21550000Y17100000D02*
X22400000Y16250000D01*
D19*
X31100000Y14900000D02*
X31500000Y14500000D01*
D21*
X10250000Y6500000D02*
X10250000Y5750000D01*
D19*
X31500000Y14500000D02*
X33250000Y14500000D01*
D21*
X21750000Y9750000D02*
X22400000Y10400000D01*
D19*
X31100000Y16850000D02*
X31100000Y14950000D01*
D20*
%TO.N,+5V*%
X47750000Y17150000D02*
X55650000Y17150000D01*
X56630000Y20890000D02*
X56630000Y22630000D01*
X41250000Y15800000D02*
X41300000Y15750000D01*
X57350000Y29600000D02*
X12540000Y29600000D01*
X58500000Y28450000D02*
X57350000Y29600000D01*
X8400000Y28000000D02*
X10940000Y28000000D01*
X37200000Y5600000D02*
X38300000Y6700000D01*
X26000000Y10000000D02*
X26250000Y10250000D01*
X56630000Y22630000D02*
X58500000Y24500000D01*
X41300000Y15750000D02*
X46350000Y15750000D01*
X26400000Y5600000D02*
X37200000Y5600000D01*
X38300000Y12850000D02*
X41250000Y15800000D01*
X58500000Y24500000D02*
X58500000Y28450000D01*
X56630000Y18130000D02*
X56630000Y20890000D01*
X55650000Y17150000D02*
X56630000Y18130000D01*
X12540000Y29600000D02*
X10940000Y28000000D01*
X25400000Y6600000D02*
X26250000Y5750000D01*
X25400000Y9400000D02*
X25400000Y6600000D01*
X26000000Y10000000D02*
X25400000Y9400000D01*
X26250000Y10250000D02*
X28750000Y10250000D01*
X38300000Y6700000D02*
X38300000Y12850000D01*
X46350000Y15750000D02*
X47750000Y17150000D01*
X26250000Y5750000D02*
X26400000Y5600000D01*
D19*
%TO.N,ADC_VREF*%
X43930000Y20890000D02*
X43930000Y25430000D01*
X43930000Y25430000D02*
X43960000Y25460000D01*
D21*
%TO.N,-3V3*%
X16500000Y15900000D02*
X16850000Y16250000D01*
D19*
X25900000Y15200000D02*
X28450000Y15200000D01*
D21*
X16150000Y16250000D02*
X16000000Y16250000D01*
X13700000Y10800000D02*
X13700000Y15800000D01*
X16850000Y16250000D02*
X17000000Y16250000D01*
D19*
X27150000Y12250000D02*
X26050000Y11150000D01*
D21*
X16500000Y15800000D02*
X16500000Y13000000D01*
X16500000Y13000000D02*
X17250000Y12250000D01*
X21550000Y15150000D02*
X21550000Y13400000D01*
X16500000Y15800000D02*
X16500000Y15900000D01*
D19*
X26050000Y11150000D02*
X25350000Y11150000D01*
D21*
X16500000Y15900000D02*
X16150000Y16250000D01*
X16500000Y16250000D02*
X16500000Y15800000D01*
X15500000Y16250000D02*
X16000000Y16250000D01*
X14150000Y16250000D02*
X15500000Y16250000D01*
D19*
X32200000Y11500000D02*
X31450000Y12250000D01*
D21*
X20450000Y16250000D02*
X21550000Y15150000D01*
D19*
X30160000Y6510000D02*
X32200000Y8550000D01*
D21*
X17000000Y16250000D02*
X20450000Y16250000D01*
D19*
X32200000Y8550000D02*
X32200000Y11500000D01*
D21*
X17250000Y12250000D02*
X17250000Y10250000D01*
X13700000Y15800000D02*
X14150000Y16250000D01*
D19*
X25350000Y11150000D02*
X24900000Y11600000D01*
X24900000Y14200000D02*
X25900000Y15200000D01*
X24900000Y11600000D02*
X24900000Y14200000D01*
X31450000Y12250000D02*
X27150000Y12250000D01*
D21*
X16750000Y16250000D02*
X17000000Y16250000D01*
X16000000Y16250000D02*
X16750000Y16250000D01*
D20*
%TO.N,GNDA*%
X13450000Y22600000D02*
X14900000Y24050000D01*
X28550000Y7650000D02*
X28550000Y9250000D01*
X38880000Y20920000D02*
X38850000Y20890000D01*
D22*
X5000000Y12925000D02*
X2825000Y10750000D01*
D20*
X51550000Y3550000D02*
X53500000Y5500000D01*
X28550000Y6700000D02*
X28550000Y8300000D01*
X38880000Y25460000D02*
X38880000Y20920000D01*
X26150000Y3110000D02*
X26150000Y3650000D01*
X26650000Y6800000D02*
X26650000Y8400000D01*
D19*
X19970000Y24050000D02*
X18560000Y25460000D01*
D20*
X14900000Y24050000D02*
X17150000Y24050000D01*
X26150000Y23100000D02*
X25000000Y24250000D01*
D19*
X22300000Y24050000D02*
X19970000Y24050000D01*
D20*
X17150000Y24050000D02*
X18560000Y25460000D01*
D22*
X8600000Y12000000D02*
X4075000Y12000000D01*
D20*
X13450000Y3110000D02*
X13450000Y4650000D01*
X13450000Y20890000D02*
X13450000Y22600000D01*
D22*
X5000000Y13762500D02*
X5000000Y12925000D01*
D20*
X26150000Y20890000D02*
X26150000Y23100000D01*
X4075000Y12000000D02*
X2825000Y10750000D01*
X27500000Y9250000D02*
X29100000Y9250000D01*
X51550000Y3110000D02*
X51550000Y3550000D01*
D19*
%TO.N,SPI_CLK*%
X34600000Y19600000D02*
X35000000Y20000000D01*
X22950000Y7550000D02*
X24450000Y9050000D01*
X23610000Y3110000D02*
X23390000Y3110000D01*
X26000000Y16250000D02*
X29750000Y16250000D01*
X22000000Y4500000D02*
X20400000Y6100000D01*
X24450000Y14700000D02*
X26000000Y16250000D01*
X35000000Y24120000D02*
X36340000Y25460000D01*
X20400000Y6100000D02*
X20400000Y7250000D01*
X20400000Y7250000D02*
X20700000Y7550000D01*
X35000000Y20000000D02*
X35000000Y24120000D01*
X33100000Y19600000D02*
X34600000Y19600000D01*
X20700000Y7550000D02*
X22950000Y7550000D01*
X23390000Y3110000D02*
X22000000Y4500000D01*
X24450000Y9050000D02*
X24450000Y14700000D01*
X29750000Y16250000D02*
X33100000Y19600000D01*
%TO.N,GPIO28_ADC2*%
X41420000Y25460000D02*
X41420000Y20920000D01*
X41420000Y20920000D02*
X41390000Y20890000D01*
%TO.N,TX*%
X12250000Y26000000D02*
X12750000Y26500000D01*
X12250000Y25000000D02*
X12250000Y26000000D01*
X8370000Y20890000D02*
X8370000Y22620000D01*
X8370000Y22620000D02*
X9750000Y24000000D01*
X14520000Y26500000D02*
X16020000Y28000000D01*
X12750000Y26500000D02*
X14520000Y26500000D01*
X9750000Y24000000D02*
X11250000Y24000000D01*
X11250000Y24000000D02*
X12250000Y25000000D01*
%TO.N,GPIO26_ADC0*%
X33770000Y20890000D02*
X33770000Y23330000D01*
X32200000Y26700000D02*
X30100000Y26700000D01*
X32550000Y24550000D02*
X32550000Y26350000D01*
X33770000Y23330000D02*
X32550000Y24550000D01*
X28860000Y25460000D02*
X28720000Y25460000D01*
X32550000Y26350000D02*
X32200000Y26700000D01*
X30100000Y26700000D02*
X28860000Y25460000D01*
%TO.N,GPIO27_ADC1*%
X37500000Y26620000D02*
X38880000Y28000000D01*
X36310000Y20890000D02*
X36310000Y23060000D01*
X36310000Y23060000D02*
X37500000Y24250000D01*
X37500000Y24250000D02*
X37500000Y26620000D01*
%TO.N,ADC_CLK*%
X56630000Y3380000D02*
X56630000Y3110000D01*
X57750000Y4500000D02*
X56630000Y3380000D01*
%TO.N,GPIO2*%
X47710000Y4350000D02*
X46470000Y3110000D01*
X47950000Y4350000D02*
X47710000Y4350000D01*
%TO.N,GPIO7*%
X32200000Y4150000D02*
X31230000Y3180000D01*
X31230000Y3180000D02*
X31230000Y3110000D01*
%TO.N,GPIO5*%
X36310000Y3310000D02*
X36310000Y3110000D01*
X37500000Y4500000D02*
X36310000Y3310000D01*
%TO.N,GPIO3*%
X43930000Y3180000D02*
X43930000Y3110000D01*
X45250000Y4500000D02*
X43930000Y3180000D01*
%TO.N,GPIO1*%
X50925000Y5025000D02*
X49010000Y3110000D01*
X51025000Y5025000D02*
X50925000Y5025000D01*
%TO.N,GPIO6*%
X35000000Y4500000D02*
X33770000Y3270000D01*
X33770000Y3270000D02*
X33770000Y3110000D01*
%TO.N,GPIO0*%
X54950000Y3970000D02*
X54090000Y3110000D01*
X54950000Y5050000D02*
X54950000Y3970000D01*
%TO.N,GPIO4*%
X42750000Y4470000D02*
X41390000Y3110000D01*
X42750000Y4500000D02*
X42750000Y4470000D01*
%TO.N,GPIO25*%
X19850000Y18900000D02*
X20850000Y17900000D01*
X23600000Y17900000D02*
X24200000Y18500000D01*
X20850000Y17900000D02*
X23600000Y17900000D01*
X11907106Y18500000D02*
X17750000Y18500000D01*
X9500000Y19150000D02*
X11257106Y19150000D01*
X8700000Y16450000D02*
X8700000Y18350000D01*
X8600000Y9460000D02*
X10500000Y11360000D01*
X11257106Y19150000D02*
X11907106Y18500000D01*
X24200000Y18500000D02*
X26500000Y18500000D01*
X8700000Y18350000D02*
X9500000Y19150000D01*
X17750000Y18500000D02*
X18150000Y18900000D01*
X10500000Y11360000D02*
X10500000Y14650000D01*
X10500000Y14650000D02*
X8700000Y16450000D01*
X18150000Y18900000D02*
X19850000Y18900000D01*
%TO.N,RX*%
X10910000Y20890000D02*
X10910000Y22660000D01*
X14750000Y24950000D02*
X14750000Y26000000D01*
X12500000Y24250000D02*
X14050000Y24250000D01*
X14750000Y26000000D02*
X15500000Y26750000D01*
X14050000Y24250000D02*
X14750000Y24950000D01*
X10910000Y22660000D02*
X12500000Y24250000D01*
X17310000Y26750000D02*
X18560000Y28000000D01*
X15500000Y26750000D02*
X17310000Y26750000D01*
D20*
%TO.N,/VA*%
X46250000Y17450000D02*
X45550000Y16750000D01*
X46250000Y18250000D02*
X46250000Y17450000D01*
X45550000Y16750000D02*
X40750000Y16750000D01*
X37250000Y7250000D02*
X37250000Y13950000D01*
X37250000Y14000000D02*
X36750000Y14500000D01*
X36500000Y14250000D02*
X36750000Y14500000D01*
X37800000Y14500000D02*
X37850000Y14500000D01*
X37250000Y13950000D02*
X37250000Y14000000D01*
X38500000Y14500000D02*
X37850000Y14500000D01*
X37250000Y13950000D02*
X37250000Y14500000D01*
X37250000Y13950000D02*
X37800000Y14500000D01*
X37850000Y14500000D02*
X37250000Y14500000D01*
X40750000Y16750000D02*
X38500000Y14500000D01*
X36750000Y14500000D02*
X37250000Y14500000D01*
D19*
%TO.N,SPI_CS*%
X18250000Y4400000D02*
X18800000Y4950000D01*
X22950000Y9750000D02*
X22950000Y15950000D01*
X22950000Y15950000D02*
X24800000Y17800000D01*
X24800000Y17800000D02*
X28550000Y17800000D01*
X28550000Y17800000D02*
X29950000Y19200000D01*
X22250000Y9050000D02*
X22950000Y9750000D01*
X18800000Y8450000D02*
X19400000Y9050000D01*
X29950000Y19200000D02*
X29950000Y23700000D01*
X19400000Y9050000D02*
X22250000Y9050000D01*
X16010000Y3110000D02*
X17300000Y4400000D01*
X17300000Y4400000D02*
X18250000Y4400000D01*
X18800000Y4950000D02*
X18800000Y8450000D01*
X15990000Y3110000D02*
X16010000Y3110000D01*
%TO.N,GPIO21*%
X23610000Y23640000D02*
X23610000Y20890000D01*
X21100000Y25460000D02*
X21790000Y25460000D01*
X21790000Y25460000D02*
X23610000Y23640000D01*
%TO.N,SPI_MO*%
X21070000Y3110000D02*
X21070000Y4430000D01*
X32500000Y19750000D02*
X32500000Y23550000D01*
X31260000Y24790000D02*
X31260000Y25460000D01*
X21070000Y4430000D02*
X21000000Y4500000D01*
X32500000Y23550000D02*
X31260000Y24790000D01*
X23950000Y15200000D02*
X25500000Y16750000D01*
X19900000Y5600000D02*
X19900000Y7600000D01*
X25500000Y16750000D02*
X29500000Y16750000D01*
X19900000Y7600000D02*
X20350000Y8050000D01*
X29500000Y16750000D02*
X32500000Y19750000D01*
X22700000Y8050000D02*
X23950000Y9300000D01*
X23950000Y9300000D02*
X23950000Y15200000D01*
X21000000Y4500000D02*
X19900000Y5600000D01*
X20350000Y8050000D02*
X22700000Y8050000D01*
%TO.N,SPI_MI*%
X23450000Y9542893D02*
X23450000Y15450000D01*
X25300000Y17300000D02*
X29250000Y17300000D01*
X18530000Y3110000D02*
X19350000Y3930000D01*
X19750000Y8550000D02*
X22457107Y8550000D01*
X19350000Y3930000D02*
X19350000Y8150000D01*
X19350000Y8150000D02*
X19750000Y8550000D01*
X29250000Y17300000D02*
X31000000Y19050000D01*
X31000000Y19050000D02*
X31000000Y19450000D01*
X23450000Y15450000D02*
X25300000Y17300000D01*
X22457107Y8550000D02*
X23450000Y9542893D01*
%TO.N,GPIO22*%
X26180000Y25460000D02*
X28690000Y22950000D01*
X28690000Y22950000D02*
X28690000Y20890000D01*
%TO.N,GPIO24*%
X11464212Y19650000D02*
X12114212Y19000000D01*
X8200000Y16050000D02*
X8200000Y18600000D01*
X24100000Y19200000D02*
X28250000Y19200000D01*
X8200000Y18600000D02*
X9250000Y19650000D01*
X18000000Y19500000D02*
X20250000Y19500000D01*
X23350000Y18450000D02*
X24100000Y19200000D01*
X9250000Y19650000D02*
X11464212Y19650000D01*
X21300000Y18450000D02*
X23350000Y18450000D01*
X8600000Y15650000D02*
X8200000Y16050000D01*
X12114212Y19000000D02*
X17500000Y19000000D01*
X20250000Y19500000D02*
X21300000Y18450000D01*
X17500000Y19000000D02*
X18000000Y19500000D01*
X8600000Y14540000D02*
X8600000Y15650000D01*
%TO.N,SEL1*%
X12050000Y9600000D02*
X12050000Y14550000D01*
X9700000Y17850000D02*
X10000000Y18150000D01*
X11600000Y17250000D02*
X18800000Y17250000D01*
X10910000Y3110000D02*
X10910000Y3490000D01*
X10000000Y18150000D02*
X10700000Y18150000D01*
X10700000Y18150000D02*
X11600000Y17250000D01*
X12050000Y14550000D02*
X9700000Y16900000D01*
X12650000Y9000000D02*
X12050000Y9600000D01*
X9700000Y16900000D02*
X9700000Y17850000D01*
X18800000Y17250000D02*
X19200000Y17650000D01*
X9550000Y4850000D02*
X9550000Y6600000D01*
X11950000Y9000000D02*
X12650000Y9000000D01*
X10910000Y3490000D02*
X9550000Y4850000D01*
X9550000Y6600000D02*
X11950000Y9000000D01*
%TO.N,SEL0*%
X11250000Y14625000D02*
X11250000Y9450000D01*
X9200000Y18100000D02*
X9200000Y16675000D01*
X18300000Y18000000D02*
X11700000Y18000000D01*
X9750000Y18650000D02*
X9200000Y18100000D01*
X8370000Y3110000D02*
X8370000Y4620000D01*
X18550000Y18250000D02*
X18300000Y18000000D01*
X8500000Y6700000D02*
X8500000Y4750000D01*
X11050000Y18650000D02*
X9750000Y18650000D01*
X9200000Y16675000D02*
X11250000Y14625000D01*
X11700000Y18000000D02*
X11050000Y18650000D01*
X11250000Y9450000D02*
X8500000Y6700000D01*
X8370000Y4620000D02*
X8500000Y4750000D01*
%TO.N,Net-(U4-S1)*%
X17350000Y7600000D02*
X17350000Y5850000D01*
X17350000Y5850000D02*
X17250000Y5750000D01*
X18250000Y13000000D02*
X17250000Y14000000D01*
X17450000Y7700000D02*
X17450000Y9250000D01*
X18250000Y10050000D02*
X18250000Y13000000D01*
X17450000Y7700000D02*
X17350000Y7600000D01*
X17450000Y9250000D02*
X18250000Y10050000D01*
%TO.N,A00*%
X21625000Y20335000D02*
X21070000Y20890000D01*
X21625000Y19475000D02*
X21625000Y20335000D01*
%TD*%
%TA.AperFunction,Conductor*%
%TO.N,GPIO1*%
G36*
X50821169Y5228844D02*
G01*
X50821775Y5228284D01*
X51024029Y5027374D01*
X51026606Y5023517D01*
X51134941Y4759681D01*
X51134914Y4750726D01*
X51128562Y4744414D01*
X51127571Y4744058D01*
X51014948Y4709267D01*
X51013029Y4708847D01*
X50916135Y4696035D01*
X50916128Y4696034D01*
X50832072Y4684969D01*
X50832067Y4684968D01*
X50747755Y4651737D01*
X50747754Y4651737D01*
X50747753Y4651736D01*
X50747752Y4651735D01*
X50657253Y4578881D01*
X50648659Y4576363D01*
X50641643Y4579722D01*
X50479977Y4741388D01*
X50476550Y4749661D01*
X50479388Y4757299D01*
X50568312Y4860429D01*
X50622475Y4951169D01*
X50662462Y5034572D01*
X50662949Y5035479D01*
X50716331Y5124910D01*
X50717506Y5126539D01*
X50804669Y5227624D01*
X50812666Y5231651D01*
X50821169Y5228844D01*
G37*
%TD.AperFunction*%
%TD*%
%TA.AperFunction,Conductor*%
%TO.N,GPIO2*%
G36*
X47746168Y4553887D02*
G01*
X47902322Y4398771D01*
X47947241Y4354150D01*
X47950695Y4345888D01*
X47950695Y4345821D01*
X47950029Y4062664D01*
X47946583Y4054399D01*
X47938301Y4050992D01*
X47937377Y4051031D01*
X47841681Y4058842D01*
X47840484Y4059002D01*
X47756750Y4074648D01*
X47685506Y4080906D01*
X47685505Y4080905D01*
X47615833Y4061291D01*
X47615832Y4061291D01*
X47615831Y4061290D01*
X47602626Y4051031D01*
X47544363Y4005768D01*
X47535727Y4003399D01*
X47528912Y4006735D01*
X47367674Y4167973D01*
X47364247Y4176246D01*
X47367640Y4184485D01*
X47453804Y4271361D01*
X47453827Y4271384D01*
X47520161Y4339575D01*
X47577141Y4398771D01*
X47643474Y4466961D01*
X47729623Y4553820D01*
X47737881Y4557280D01*
X47746168Y4553887D01*
G37*
%TD.AperFunction*%
%TD*%
%TA.AperFunction,Conductor*%
%TO.N,GPIO0*%
G36*
X55216002Y4939859D02*
G01*
X55222314Y4933507D01*
X55222287Y4924552D01*
X55222130Y4924195D01*
X55174082Y4819177D01*
X55173856Y4818711D01*
X55131574Y4736168D01*
X55100541Y4662980D01*
X55081483Y4575536D01*
X55081482Y4575532D01*
X55075573Y4461097D01*
X55071724Y4453011D01*
X55063889Y4450000D01*
X54836111Y4450000D01*
X54827838Y4453427D01*
X54824427Y4461096D01*
X54818516Y4575533D01*
X54818515Y4575536D01*
X54818515Y4575542D01*
X54799459Y4662975D01*
X54768429Y4736156D01*
X54726134Y4818724D01*
X54725915Y4819177D01*
X54677867Y4924197D01*
X54677542Y4933144D01*
X54683639Y4939702D01*
X54683945Y4939837D01*
X54945490Y5049117D01*
X54954444Y5049143D01*
X55216002Y4939859D01*
G37*
%TD.AperFunction*%
%TD*%
%TA.AperFunction,Conductor*%
%TO.N,GPIO4*%
G36*
X42484204Y4610137D02*
G01*
X42661252Y4537439D01*
X42746184Y4502564D01*
X42752536Y4496252D01*
X42752563Y4496185D01*
X42860281Y4233853D01*
X42860254Y4224898D01*
X42853902Y4218586D01*
X42853710Y4218509D01*
X42748351Y4177410D01*
X42748255Y4177373D01*
X42663777Y4145269D01*
X42594240Y4111123D01*
X42594227Y4111116D01*
X42522686Y4059599D01*
X42522665Y4059581D01*
X42440371Y3983019D01*
X42431980Y3979893D01*
X42424129Y3983312D01*
X42263055Y4144386D01*
X42259628Y4152659D01*
X42262506Y4160344D01*
X42277355Y4177389D01*
X42337972Y4246969D01*
X42381807Y4325049D01*
X42406072Y4401968D01*
X42429880Y4492884D01*
X42430162Y4493802D01*
X42468743Y4603201D01*
X42474725Y4609862D01*
X42483667Y4610342D01*
X42484204Y4610137D01*
G37*
%TD.AperFunction*%
%TD*%
%TA.AperFunction,Conductor*%
%TO.N,GPIO5*%
G36*
X37234005Y4610219D02*
G01*
X37400992Y4541652D01*
X37496184Y4502564D01*
X37502536Y4496252D01*
X37502563Y4496185D01*
X37610210Y4234026D01*
X37610183Y4225071D01*
X37603831Y4218759D01*
X37603468Y4218617D01*
X37495240Y4178336D01*
X37494751Y4178166D01*
X37406463Y4149688D01*
X37406449Y4149683D01*
X37332787Y4119889D01*
X37332779Y4119884D01*
X37257480Y4071534D01*
X37257479Y4071532D01*
X37172376Y3994789D01*
X37163937Y3991794D01*
X37156268Y3995205D01*
X36995204Y4156269D01*
X36991777Y4164542D01*
X36994787Y4172375D01*
X37071533Y4257482D01*
X37119882Y4332781D01*
X37149688Y4406469D01*
X37178175Y4494792D01*
X37178314Y4495192D01*
X37218616Y4603471D01*
X37224714Y4610027D01*
X37233662Y4610353D01*
X37234005Y4610219D01*
G37*
%TD.AperFunction*%
%TD*%
%TA.AperFunction,Conductor*%
%TO.N,GPIO6*%
G36*
X34734005Y4610219D02*
G01*
X34900992Y4541652D01*
X34996184Y4502564D01*
X35002536Y4496252D01*
X35002563Y4496185D01*
X35110210Y4234026D01*
X35110183Y4225071D01*
X35103831Y4218759D01*
X35103468Y4218617D01*
X34995240Y4178336D01*
X34994751Y4178166D01*
X34906463Y4149688D01*
X34906449Y4149683D01*
X34832787Y4119889D01*
X34832779Y4119884D01*
X34757480Y4071534D01*
X34757479Y4071532D01*
X34672376Y3994789D01*
X34663937Y3991794D01*
X34656268Y3995205D01*
X34495204Y4156269D01*
X34491777Y4164542D01*
X34494787Y4172375D01*
X34571533Y4257482D01*
X34619882Y4332781D01*
X34649688Y4406469D01*
X34678175Y4494792D01*
X34678314Y4495192D01*
X34718616Y4603471D01*
X34724714Y4610027D01*
X34733662Y4610353D01*
X34734005Y4610219D01*
G37*
%TD.AperFunction*%
%TD*%
%TA.AperFunction,Conductor*%
%TO.N,GPIO7*%
G36*
X31934005Y4260219D02*
G01*
X32100992Y4191652D01*
X32196184Y4152564D01*
X32202536Y4146252D01*
X32202563Y4146185D01*
X32310210Y3884026D01*
X32310183Y3875071D01*
X32303831Y3868759D01*
X32303468Y3868617D01*
X32195240Y3828336D01*
X32194751Y3828166D01*
X32106463Y3799688D01*
X32106449Y3799683D01*
X32032787Y3769889D01*
X32032779Y3769884D01*
X31957480Y3721534D01*
X31957479Y3721532D01*
X31872376Y3644789D01*
X31863937Y3641794D01*
X31856268Y3645205D01*
X31695204Y3806269D01*
X31691777Y3814542D01*
X31694787Y3822375D01*
X31771533Y3907482D01*
X31819882Y3982781D01*
X31849688Y4056469D01*
X31878175Y4144792D01*
X31878314Y4145192D01*
X31918616Y4253471D01*
X31924714Y4260027D01*
X31933662Y4260353D01*
X31934005Y4260219D01*
G37*
%TD.AperFunction*%
%TD*%
%TA.AperFunction,Conductor*%
%TO.N,ADC_CLK*%
G36*
X57484005Y4610219D02*
G01*
X57650992Y4541652D01*
X57746184Y4502564D01*
X57752536Y4496252D01*
X57752563Y4496185D01*
X57860210Y4234026D01*
X57860183Y4225071D01*
X57853831Y4218759D01*
X57853468Y4218617D01*
X57745240Y4178336D01*
X57744751Y4178166D01*
X57656463Y4149688D01*
X57656449Y4149683D01*
X57582787Y4119889D01*
X57582779Y4119884D01*
X57507480Y4071534D01*
X57507479Y4071532D01*
X57422376Y3994789D01*
X57413937Y3991794D01*
X57406268Y3995205D01*
X57245204Y4156269D01*
X57241777Y4164542D01*
X57244787Y4172375D01*
X57321533Y4257482D01*
X57369882Y4332781D01*
X57399688Y4406469D01*
X57428175Y4494792D01*
X57428314Y4495192D01*
X57468616Y4603471D01*
X57474714Y4610027D01*
X57483662Y4610353D01*
X57484005Y4610219D01*
G37*
%TD.AperFunction*%
%TD*%
%TA.AperFunction,Conductor*%
%TO.N,GPIO3*%
G36*
X44984005Y4610219D02*
G01*
X45150992Y4541652D01*
X45246184Y4502564D01*
X45252536Y4496252D01*
X45252563Y4496185D01*
X45360210Y4234026D01*
X45360183Y4225071D01*
X45353831Y4218759D01*
X45353468Y4218617D01*
X45245240Y4178336D01*
X45244751Y4178166D01*
X45156463Y4149688D01*
X45156449Y4149683D01*
X45082787Y4119889D01*
X45082779Y4119884D01*
X45007480Y4071534D01*
X45007479Y4071532D01*
X44922376Y3994789D01*
X44913937Y3991794D01*
X44906268Y3995205D01*
X44745204Y4156269D01*
X44741777Y4164542D01*
X44744787Y4172375D01*
X44821533Y4257482D01*
X44869882Y4332781D01*
X44899688Y4406469D01*
X44928175Y4494792D01*
X44928314Y4495192D01*
X44968616Y4603471D01*
X44974714Y4610027D01*
X44983662Y4610353D01*
X44984005Y4610219D01*
G37*
%TD.AperFunction*%
%TD*%
%TA.AperFunction,Conductor*%
%TO.N,GNDA*%
G36*
X2868333Y11044373D02*
G01*
X2912680Y11015872D01*
X5746139Y8182413D01*
X5753957Y8184114D01*
X5781510Y8220920D01*
X5846974Y8245337D01*
X5912115Y8232138D01*
X6011046Y8181731D01*
X6041504Y8166212D01*
X6229422Y8115859D01*
X6310222Y8109500D01*
X8176000Y8109500D01*
X8243039Y8089815D01*
X8288794Y8037011D01*
X8300000Y7985500D01*
X8300000Y7435953D01*
X8280315Y7368914D01*
X8263680Y7348272D01*
X8101270Y7185861D01*
X8101267Y7185858D01*
X8067672Y7152263D01*
X8014142Y7098734D01*
X7991029Y7064142D01*
X7945689Y6996288D01*
X7945687Y6996284D01*
X7924642Y6945478D01*
X7924643Y6945477D01*
X7904268Y6896286D01*
X7904267Y6896285D01*
X7898538Y6882455D01*
X7898537Y6882453D01*
X7875009Y6764161D01*
X7875005Y6764145D01*
X7874500Y6761612D01*
X7874500Y5294855D01*
X7855494Y5228883D01*
X7774211Y5099524D01*
X7714631Y4929255D01*
X7714630Y4929250D01*
X7694435Y4750004D01*
X7694435Y4749997D01*
X7714630Y4570754D01*
X7714633Y4570741D01*
X7715068Y4569498D01*
X7715111Y4568647D01*
X7716181Y4563961D01*
X7715359Y4563774D01*
X7718626Y4499719D01*
X7683893Y4439094D01*
X7630120Y4408777D01*
X7611506Y4403790D01*
X7438161Y4315466D01*
X7286968Y4193032D01*
X7164534Y4041839D01*
X7076212Y3868496D01*
X7025858Y3680575D01*
X7019500Y3599784D01*
X7019500Y820217D01*
X7025858Y739426D01*
X7025858Y739423D01*
X7025859Y739422D01*
X7076212Y551504D01*
X7100000Y504818D01*
X7137716Y430795D01*
X7150612Y362125D01*
X7124335Y297385D01*
X7067229Y257128D01*
X7027231Y250500D01*
X3554173Y250500D01*
X3554161Y250501D01*
X3544171Y250501D01*
X3503247Y250501D01*
X3496757Y250671D01*
X3166822Y267963D01*
X3153914Y269320D01*
X2830816Y320493D01*
X2818120Y323191D01*
X2502125Y407862D01*
X2489782Y411873D01*
X2184378Y529106D01*
X2172520Y534385D01*
X2138920Y551505D01*
X1881030Y682907D01*
X1869803Y689389D01*
X1595439Y867563D01*
X1584951Y875183D01*
X1330706Y1081066D01*
X1321062Y1089750D01*
X1089750Y1321062D01*
X1081065Y1330707D01*
X875187Y1584945D01*
X867565Y1595435D01*
X689379Y1869817D01*
X682909Y1881023D01*
X534379Y2172530D01*
X529105Y2184378D01*
X509684Y2234971D01*
X411872Y2489783D01*
X407861Y2502125D01*
X360254Y2679795D01*
X323188Y2818126D01*
X320492Y2830816D01*
X308917Y2903896D01*
X269319Y3153915D01*
X267962Y3166822D01*
X250671Y3496757D01*
X250501Y3503247D01*
X250501Y3554159D01*
X250500Y3554173D01*
X250500Y3621289D01*
X1649500Y3621289D01*
X1649500Y3378712D01*
X1681161Y3138215D01*
X1743947Y2903896D01*
X1779477Y2818120D01*
X1836776Y2679788D01*
X1958064Y2469711D01*
X1958066Y2469708D01*
X1958067Y2469707D01*
X2105733Y2277264D01*
X2105739Y2277257D01*
X2277256Y2105740D01*
X2277263Y2105734D01*
X2372718Y2032489D01*
X2469711Y1958064D01*
X2679788Y1836776D01*
X2903900Y1743946D01*
X3138211Y1681162D01*
X3318586Y1657416D01*
X3378711Y1649500D01*
X3378712Y1649500D01*
X3621289Y1649500D01*
X3669388Y1655833D01*
X3861789Y1681162D01*
X4096100Y1743946D01*
X4320212Y1836776D01*
X4530289Y1958064D01*
X4722738Y2105735D01*
X4894265Y2277262D01*
X5041936Y2469711D01*
X5163224Y2679788D01*
X5256054Y2903900D01*
X5318838Y3138211D01*
X5350500Y3378712D01*
X5350500Y3621288D01*
X5349206Y3631114D01*
X5333119Y3753309D01*
X5318838Y3861789D01*
X5256054Y4096100D01*
X5163224Y4320212D01*
X5041936Y4530289D01*
X4956708Y4641360D01*
X4894266Y4722737D01*
X4894260Y4722744D01*
X4722743Y4894261D01*
X4722736Y4894267D01*
X4530293Y5041933D01*
X4530292Y5041934D01*
X4530289Y5041936D01*
X4333478Y5155565D01*
X4320214Y5163223D01*
X4320205Y5163227D01*
X4096104Y5256053D01*
X3978944Y5287446D01*
X3861789Y5318838D01*
X3861788Y5318839D01*
X3861785Y5318839D01*
X3621289Y5350500D01*
X3621288Y5350500D01*
X3378712Y5350500D01*
X3378711Y5350500D01*
X3138214Y5318839D01*
X2903895Y5256053D01*
X2679794Y5163227D01*
X2679785Y5163223D01*
X2469706Y5041933D01*
X2277263Y4894267D01*
X2277256Y4894261D01*
X2105739Y4722744D01*
X2105733Y4722737D01*
X1958067Y4530294D01*
X1958064Y4530290D01*
X1958064Y4530289D01*
X1953276Y4521996D01*
X1836777Y4320215D01*
X1836773Y4320206D01*
X1743947Y4096105D01*
X1681161Y3861786D01*
X1649500Y3621289D01*
X250500Y3621289D01*
X250500Y7726000D01*
X270185Y7793039D01*
X322989Y7838794D01*
X374500Y7850000D01*
X5322819Y7850000D01*
X5322819Y7850001D01*
X5366727Y7854721D01*
X2559128Y10662320D01*
X2525643Y10723643D01*
X2530627Y10793335D01*
X2559128Y10837682D01*
X2737318Y11015872D01*
X2798641Y11049357D01*
X2868333Y11044373D01*
G37*
%TD.AperFunction*%
%TA.AperFunction,Conductor*%
G36*
X61445839Y29749499D02*
G01*
X61455829Y29749499D01*
X61496753Y29749499D01*
X61503242Y29749330D01*
X61833177Y29732038D01*
X61846085Y29730681D01*
X62169190Y29679507D01*
X62181873Y29676812D01*
X62497880Y29592138D01*
X62510218Y29588128D01*
X62815626Y29470893D01*
X62827469Y29465621D01*
X63118976Y29317091D01*
X63130190Y29310616D01*
X63404564Y29132435D01*
X63415045Y29124820D01*
X63644482Y28939027D01*
X63669292Y28918936D01*
X63678937Y28910251D01*
X63910249Y28678939D01*
X63918934Y28669294D01*
X64124812Y28415056D01*
X64132437Y28404562D01*
X64310616Y28130190D01*
X64317093Y28118971D01*
X64377712Y28000001D01*
X64465615Y27827481D01*
X64470894Y27815623D01*
X64588127Y27510219D01*
X64592138Y27497876D01*
X64676809Y27181881D01*
X64679507Y27169185D01*
X64730680Y26846087D01*
X64732037Y26833179D01*
X64749329Y26503244D01*
X64749499Y26496754D01*
X64749499Y26441397D01*
X64749500Y26441388D01*
X64749500Y19006093D01*
X64748903Y18993939D01*
X64736296Y18865936D01*
X64731554Y18842094D01*
X64695993Y18724866D01*
X64686690Y18702408D01*
X64628942Y18594370D01*
X64615438Y18574160D01*
X64537725Y18479465D01*
X64520535Y18462275D01*
X64425840Y18384562D01*
X64405630Y18371058D01*
X64297592Y18313310D01*
X64275134Y18304007D01*
X64157906Y18268446D01*
X64134064Y18263704D01*
X64006062Y18251097D01*
X63993908Y18250500D01*
X59901578Y18250500D01*
X59707173Y18219710D01*
X59519970Y18158883D01*
X59344594Y18069524D01*
X59253741Y18003515D01*
X59185354Y17953828D01*
X59185352Y17953826D01*
X59185351Y17953826D01*
X59046174Y17814649D01*
X59046174Y17814648D01*
X59046172Y17814646D01*
X58998840Y17749500D01*
X58930476Y17655406D01*
X58841117Y17480030D01*
X58780290Y17292827D01*
X58749500Y17098423D01*
X58749500Y6901578D01*
X58780290Y6707174D01*
X58841117Y6519971D01*
X58923090Y6359091D01*
X58930476Y6344595D01*
X59046172Y6185354D01*
X59185354Y6046172D01*
X59344595Y5930476D01*
X59427455Y5888257D01*
X59519970Y5841118D01*
X59519972Y5841118D01*
X59519975Y5841116D01*
X59601441Y5814646D01*
X59707173Y5780291D01*
X59901578Y5749500D01*
X59901583Y5749500D01*
X59950172Y5749500D01*
X63955830Y5749500D01*
X63993908Y5749500D01*
X64006061Y5748903D01*
X64016635Y5747862D01*
X64134069Y5736296D01*
X64157897Y5731557D01*
X64275140Y5695992D01*
X64297589Y5686692D01*
X64310454Y5679816D01*
X64405630Y5628943D01*
X64425839Y5615440D01*
X64502822Y5552262D01*
X64520535Y5537726D01*
X64537724Y5520537D01*
X64570971Y5480025D01*
X64615438Y5425841D01*
X64628942Y5405631D01*
X64686690Y5297593D01*
X64695992Y5275136D01*
X64702931Y5252262D01*
X64731554Y5157907D01*
X64736296Y5134065D01*
X64745370Y5041936D01*
X64747115Y5024211D01*
X64748903Y5006062D01*
X64749500Y4993908D01*
X64749500Y3554174D01*
X64749499Y3554166D01*
X64749499Y3503248D01*
X64749329Y3496758D01*
X64732037Y3166823D01*
X64730680Y3153915D01*
X64679507Y2830817D01*
X64676809Y2818121D01*
X64592138Y2502126D01*
X64588127Y2489783D01*
X64470894Y2184379D01*
X64465615Y2172521D01*
X64317097Y1881037D01*
X64310607Y1869797D01*
X64132441Y1595446D01*
X64124812Y1584945D01*
X63918935Y1330708D01*
X63910250Y1321063D01*
X63678938Y1089751D01*
X63669293Y1081066D01*
X63415055Y875188D01*
X63404555Y867559D01*
X63130197Y689389D01*
X63118964Y682903D01*
X62827480Y534385D01*
X62815622Y529106D01*
X62510218Y411873D01*
X62497875Y407862D01*
X62181880Y323191D01*
X62169184Y320493D01*
X61846086Y269320D01*
X61833178Y267963D01*
X61503244Y250671D01*
X61496754Y250501D01*
X61445840Y250501D01*
X61445828Y250500D01*
X57972769Y250500D01*
X57905730Y270185D01*
X57859975Y322989D01*
X57850031Y392147D01*
X57862284Y430795D01*
X57889361Y483938D01*
X57923788Y551504D01*
X57974141Y739422D01*
X57980500Y820222D01*
X57980500Y3599778D01*
X57978807Y3621289D01*
X59649500Y3621289D01*
X59649500Y3378712D01*
X59681161Y3138215D01*
X59743947Y2903896D01*
X59779477Y2818120D01*
X59836776Y2679788D01*
X59958064Y2469711D01*
X59958066Y2469708D01*
X59958067Y2469707D01*
X60105733Y2277264D01*
X60105739Y2277257D01*
X60277256Y2105740D01*
X60277263Y2105734D01*
X60372718Y2032489D01*
X60469711Y1958064D01*
X60679788Y1836776D01*
X60903900Y1743946D01*
X61138211Y1681162D01*
X61318586Y1657416D01*
X61378711Y1649500D01*
X61378712Y1649500D01*
X61621289Y1649500D01*
X61669388Y1655833D01*
X61861789Y1681162D01*
X62096100Y1743946D01*
X62320212Y1836776D01*
X62530289Y1958064D01*
X62722738Y2105735D01*
X62894265Y2277262D01*
X63041936Y2469711D01*
X63163224Y2679788D01*
X63256054Y2903900D01*
X63318838Y3138211D01*
X63350500Y3378712D01*
X63350500Y3621288D01*
X63349206Y3631114D01*
X63333119Y3753309D01*
X63318838Y3861789D01*
X63256054Y4096100D01*
X63163224Y4320212D01*
X63041936Y4530289D01*
X62956708Y4641360D01*
X62894266Y4722737D01*
X62894260Y4722744D01*
X62722743Y4894261D01*
X62722736Y4894267D01*
X62530293Y5041933D01*
X62530292Y5041934D01*
X62530289Y5041936D01*
X62333478Y5155565D01*
X62320214Y5163223D01*
X62320205Y5163227D01*
X62096104Y5256053D01*
X61978944Y5287446D01*
X61861789Y5318838D01*
X61861788Y5318839D01*
X61861785Y5318839D01*
X61621289Y5350500D01*
X61621288Y5350500D01*
X61378712Y5350500D01*
X61378711Y5350500D01*
X61138214Y5318839D01*
X60903895Y5256053D01*
X60679794Y5163227D01*
X60679785Y5163223D01*
X60469706Y5041933D01*
X60277263Y4894267D01*
X60277256Y4894261D01*
X60105739Y4722744D01*
X60105733Y4722737D01*
X59958067Y4530294D01*
X59958064Y4530290D01*
X59958064Y4530289D01*
X59953276Y4521996D01*
X59836777Y4320215D01*
X59836773Y4320206D01*
X59743947Y4096105D01*
X59681161Y3861786D01*
X59649500Y3621289D01*
X57978807Y3621289D01*
X57978033Y3631117D01*
X57992396Y3699492D01*
X58041447Y3749249D01*
X58049408Y3753302D01*
X58073359Y3764425D01*
X58084626Y3768999D01*
X58085803Y3769412D01*
X58099522Y3774211D01*
X58252262Y3870184D01*
X58379816Y3997738D01*
X58475789Y4150478D01*
X58535368Y4320745D01*
X58536534Y4331091D01*
X58555565Y4499997D01*
X58555565Y4500004D01*
X58535369Y4679250D01*
X58535368Y4679255D01*
X58531273Y4690957D01*
X58475789Y4849522D01*
X58474067Y4852262D01*
X58426043Y4928692D01*
X58379816Y5002262D01*
X58252262Y5129816D01*
X58243426Y5135368D01*
X58099523Y5225789D01*
X57929254Y5285369D01*
X57929249Y5285370D01*
X57750004Y5305565D01*
X57749996Y5305565D01*
X57570750Y5285370D01*
X57570745Y5285369D01*
X57400476Y5225789D01*
X57247737Y5129816D01*
X57120184Y5002263D01*
X57024211Y4849522D01*
X57024208Y4849516D01*
X57012013Y4814667D01*
X57003849Y4796279D01*
X56994867Y4779802D01*
X56994866Y4779799D01*
X56954563Y4671519D01*
X56950837Y4661164D01*
X56950676Y4660698D01*
X56947096Y4650016D01*
X56928665Y4592872D01*
X56902742Y4547899D01*
X56869369Y4510889D01*
X56864702Y4505270D01*
X56806725Y4466277D01*
X56769316Y4460500D01*
X56140216Y4460500D01*
X56059425Y4454142D01*
X55871501Y4403788D01*
X55762071Y4348031D01*
X55693401Y4335135D01*
X55628661Y4361412D01*
X55588405Y4418519D01*
X55581942Y4464906D01*
X55582968Y4484771D01*
X55596440Y4534909D01*
X55614802Y4570754D01*
X55623747Y4588215D01*
X55628689Y4598127D01*
X55628932Y4598628D01*
X55633729Y4608809D01*
X55633756Y4608866D01*
X55672967Y4694574D01*
X55673992Y4696753D01*
X55675786Y4700475D01*
X55675789Y4700478D01*
X55675790Y4700483D01*
X55677187Y4703378D01*
X55678575Y4706829D01*
X55681804Y4713884D01*
X55684860Y4720698D01*
X55685017Y4721055D01*
X55706879Y4780674D01*
X55707345Y4783849D01*
X55712986Y4806783D01*
X55735368Y4870745D01*
X55736224Y4878342D01*
X55755565Y5049997D01*
X55755565Y5050004D01*
X55735369Y5229250D01*
X55735368Y5229255D01*
X55675789Y5399522D01*
X55675188Y5400478D01*
X55636582Y5461920D01*
X55579816Y5552262D01*
X55452262Y5679816D01*
X55364280Y5735099D01*
X55299523Y5775789D01*
X55129254Y5835369D01*
X55129249Y5835370D01*
X54950004Y5855565D01*
X54949996Y5855565D01*
X54770750Y5835370D01*
X54770745Y5835369D01*
X54600476Y5775789D01*
X54447737Y5679816D01*
X54320184Y5552263D01*
X54224211Y5399524D01*
X54164631Y5229255D01*
X54164630Y5229250D01*
X54144435Y5050004D01*
X54144435Y5049997D01*
X54164630Y4870751D01*
X54164631Y4870746D01*
X54210138Y4740696D01*
X54212049Y4734758D01*
X54218191Y4713892D01*
X54218194Y4713884D01*
X54221464Y4706736D01*
X54222835Y4703336D01*
X54224208Y4700485D01*
X54224211Y4700478D01*
X54224214Y4700473D01*
X54225990Y4696787D01*
X54227037Y4694555D01*
X54253786Y4636088D01*
X54263777Y4566936D01*
X54234795Y4503361D01*
X54176043Y4465547D01*
X54141027Y4460500D01*
X53600216Y4460500D01*
X53519425Y4454142D01*
X53331504Y4403788D01*
X53158161Y4315466D01*
X53006968Y4193032D01*
X52916044Y4080751D01*
X52858556Y4041039D01*
X52788725Y4038712D01*
X52728722Y4074508D01*
X52723313Y4080751D01*
X52632678Y4192674D01*
X52481567Y4315043D01*
X52308315Y4403318D01*
X52120497Y4453645D01*
X52039743Y4460000D01*
X51839757Y4460000D01*
X51772718Y4479685D01*
X51726963Y4532489D01*
X51717019Y4601647D01*
X51734763Y4649972D01*
X51748301Y4671519D01*
X51750789Y4675478D01*
X51810368Y4845745D01*
X51810794Y4849524D01*
X51830565Y5024997D01*
X51830565Y5025004D01*
X51810369Y5204250D01*
X51810368Y5204255D01*
X51793281Y5253086D01*
X51750789Y5374522D01*
X51744832Y5384002D01*
X51659042Y5520536D01*
X51654816Y5527262D01*
X51527262Y5654816D01*
X51487475Y5679816D01*
X51374523Y5750789D01*
X51204254Y5810369D01*
X51204249Y5810370D01*
X51025004Y5830565D01*
X51024996Y5830565D01*
X50845750Y5810370D01*
X50845745Y5810369D01*
X50675476Y5750789D01*
X50522734Y5654814D01*
X50522733Y5654813D01*
X50454369Y5586450D01*
X50448121Y5580618D01*
X50421835Y5557729D01*
X50421833Y5557727D01*
X50400932Y5533488D01*
X50395382Y5527512D01*
X50391986Y5523252D01*
X50388949Y5519591D01*
X50334673Y5456646D01*
X50307525Y5422253D01*
X50306354Y5420629D01*
X50282278Y5384002D01*
X50228904Y5294586D01*
X50217593Y5274621D01*
X50217097Y5273697D01*
X50206630Y5253086D01*
X50179056Y5195574D01*
X50173716Y5185626D01*
X50162300Y5166502D01*
X50149740Y5149088D01*
X50096550Y5087398D01*
X50075304Y5060935D01*
X50066293Y5050885D01*
X49512229Y4496819D01*
X49450906Y4463334D01*
X49424548Y4460500D01*
X48847409Y4460500D01*
X48780370Y4480185D01*
X48734615Y4532989D01*
X48730367Y4543546D01*
X48725130Y4558512D01*
X48675789Y4699522D01*
X48579816Y4852262D01*
X48452262Y4979816D01*
X48429835Y4993908D01*
X48299523Y5075789D01*
X48129254Y5135369D01*
X48129249Y5135370D01*
X47950004Y5155565D01*
X47949996Y5155565D01*
X47770750Y5135370D01*
X47770745Y5135369D01*
X47600476Y5075789D01*
X47447738Y4979816D01*
X47447735Y4979814D01*
X47405371Y4937451D01*
X47392413Y4926176D01*
X47370724Y4909800D01*
X47370715Y4909792D01*
X47284530Y4822898D01*
X47281199Y4819506D01*
X47257933Y4795588D01*
X47214799Y4751246D01*
X47212947Y4749332D01*
X47167443Y4702061D01*
X47157205Y4691424D01*
X47156753Y4690957D01*
X47093606Y4626041D01*
X47092764Y4625184D01*
X47008742Y4540468D01*
X47008730Y4540455D01*
X46981038Y4509434D01*
X46975341Y4503052D01*
X46974331Y4501921D01*
X46915000Y4465020D01*
X46881828Y4460500D01*
X46170829Y4460500D01*
X46103790Y4480185D01*
X46058035Y4532989D01*
X46047609Y4570617D01*
X46035369Y4679250D01*
X46035368Y4679255D01*
X46031273Y4690957D01*
X45975789Y4849522D01*
X45974067Y4852262D01*
X45926043Y4928692D01*
X45879816Y5002262D01*
X45752262Y5129816D01*
X45743426Y5135368D01*
X45599523Y5225789D01*
X45429254Y5285369D01*
X45429249Y5285370D01*
X45250004Y5305565D01*
X45249996Y5305565D01*
X45070750Y5285370D01*
X45070745Y5285369D01*
X44900476Y5225789D01*
X44747737Y5129816D01*
X44620184Y5002263D01*
X44524211Y4849522D01*
X44524208Y4849516D01*
X44512013Y4814667D01*
X44503849Y4796279D01*
X44494867Y4779802D01*
X44494866Y4779799D01*
X44454563Y4671519D01*
X44450837Y4661164D01*
X44450676Y4660698D01*
X44447096Y4650016D01*
X44428665Y4592872D01*
X44402742Y4547899D01*
X44369369Y4510889D01*
X44364702Y4505270D01*
X44306725Y4466277D01*
X44269316Y4460500D01*
X43670829Y4460500D01*
X43603790Y4480185D01*
X43558035Y4532989D01*
X43547609Y4570617D01*
X43535369Y4679250D01*
X43535368Y4679255D01*
X43531273Y4690957D01*
X43475789Y4849522D01*
X43474067Y4852262D01*
X43426043Y4928692D01*
X43379816Y5002262D01*
X43252262Y5129816D01*
X43243426Y5135368D01*
X43099523Y5225789D01*
X42929254Y5285369D01*
X42929249Y5285370D01*
X42750004Y5305565D01*
X42749996Y5305565D01*
X42570750Y5285370D01*
X42570745Y5285369D01*
X42400476Y5225789D01*
X42247737Y5129816D01*
X42120184Y5002263D01*
X42024211Y4849522D01*
X42024207Y4849513D01*
X42009587Y4807735D01*
X42002432Y4791236D01*
X41996454Y4779803D01*
X41992020Y4771324D01*
X41971763Y4713884D01*
X41953440Y4661928D01*
X41946945Y4642237D01*
X41946676Y4641360D01*
X41946667Y4641331D01*
X41946665Y4641322D01*
X41945177Y4636088D01*
X41940867Y4620934D01*
X41925679Y4562935D01*
X41899231Y4512910D01*
X41896208Y4509439D01*
X41896204Y4509434D01*
X41890643Y4503051D01*
X41831768Y4465432D01*
X41797145Y4460500D01*
X40900216Y4460500D01*
X40819425Y4454142D01*
X40631504Y4403788D01*
X40458161Y4315466D01*
X40306968Y4193032D01*
X40216044Y4080751D01*
X40158556Y4041039D01*
X40088725Y4038712D01*
X40028722Y4074508D01*
X40023313Y4080751D01*
X39932678Y4192674D01*
X39781567Y4315043D01*
X39608315Y4403318D01*
X39420497Y4453645D01*
X39339743Y4460000D01*
X39100000Y4460000D01*
X39100000Y2084000D01*
X39080315Y2016961D01*
X39027511Y1971206D01*
X38976000Y1960000D01*
X38724000Y1960000D01*
X38656961Y1979685D01*
X38611206Y2032489D01*
X38600000Y2084000D01*
X38600000Y4460000D01*
X38420885Y4460000D01*
X38353846Y4479685D01*
X38308091Y4532489D01*
X38297665Y4570117D01*
X38285369Y4679250D01*
X38285368Y4679255D01*
X38281273Y4690957D01*
X38225789Y4849522D01*
X38224067Y4852262D01*
X38176043Y4928692D01*
X38129816Y5002262D01*
X38002262Y5129816D01*
X37996816Y5134159D01*
X37998003Y5135649D01*
X37957998Y5180880D01*
X37947352Y5249934D01*
X37975730Y5313781D01*
X37982568Y5321202D01*
X38882952Y6221584D01*
X38932495Y6295731D01*
X38940385Y6307539D01*
X38940387Y6307544D01*
X38940393Y6307552D01*
X38965084Y6344505D01*
X39021658Y6481087D01*
X39031096Y6528538D01*
X39050500Y6626080D01*
X39050500Y8500000D01*
X44000000Y8500000D01*
X46000000Y8500000D01*
X46500000Y8500000D01*
X48500000Y8500000D01*
X49000000Y8500000D01*
X51000000Y8500000D01*
X51000000Y9575003D01*
X52214723Y9575003D01*
X52214723Y9574998D01*
X52233793Y9357025D01*
X52233793Y9357021D01*
X52290422Y9145678D01*
X52290424Y9145674D01*
X52290425Y9145670D01*
X52316789Y9089133D01*
X52382897Y8947362D01*
X52382898Y8947361D01*
X52508402Y8768123D01*
X52663123Y8613402D01*
X52842361Y8487898D01*
X53040670Y8395425D01*
X53252023Y8338793D01*
X53434926Y8322792D01*
X53469998Y8319723D01*
X53470000Y8319723D01*
X53470002Y8319723D01*
X53498254Y8322195D01*
X53687977Y8338793D01*
X53899330Y8395425D01*
X54097639Y8487898D01*
X54276877Y8613402D01*
X54431598Y8768123D01*
X54557102Y8947361D01*
X54649575Y9145670D01*
X54684231Y9275007D01*
X55094700Y9275007D01*
X55094700Y9274994D01*
X55113864Y9043703D01*
X55113866Y9043692D01*
X55170842Y8818700D01*
X55264075Y8606152D01*
X55391016Y8411853D01*
X55391019Y8411849D01*
X55391021Y8411847D01*
X55548216Y8241087D01*
X55548219Y8241085D01*
X55548222Y8241082D01*
X55731365Y8098536D01*
X55731371Y8098532D01*
X55731374Y8098530D01*
X55935497Y7988064D01*
X56003901Y7964581D01*
X56155015Y7912703D01*
X56155017Y7912703D01*
X56155019Y7912702D01*
X56383951Y7874500D01*
X56383952Y7874500D01*
X56616048Y7874500D01*
X56616049Y7874500D01*
X56844981Y7912702D01*
X57064503Y7988064D01*
X57268626Y8098530D01*
X57282721Y8109500D01*
X57378585Y8184114D01*
X57451784Y8241087D01*
X57608979Y8411847D01*
X57735924Y8606151D01*
X57829157Y8818700D01*
X57886134Y9043695D01*
X57891395Y9107188D01*
X57905300Y9274994D01*
X57905300Y9275007D01*
X57886135Y9506298D01*
X57886133Y9506309D01*
X57829157Y9731301D01*
X57735924Y9943849D01*
X57608983Y10138148D01*
X57608980Y10138151D01*
X57608979Y10138153D01*
X57451784Y10308913D01*
X57451779Y10308917D01*
X57451777Y10308919D01*
X57268634Y10451465D01*
X57268628Y10451469D01*
X57064504Y10561936D01*
X57064495Y10561939D01*
X56844984Y10637298D01*
X56673282Y10665950D01*
X56616049Y10675500D01*
X56383951Y10675500D01*
X56338164Y10667860D01*
X56155015Y10637298D01*
X55935504Y10561939D01*
X55935495Y10561936D01*
X55731371Y10451469D01*
X55731365Y10451465D01*
X55548222Y10308919D01*
X55548219Y10308916D01*
X55391016Y10138148D01*
X55264075Y9943849D01*
X55170842Y9731301D01*
X55113866Y9506309D01*
X55113864Y9506298D01*
X55094700Y9275007D01*
X54684231Y9275007D01*
X54706207Y9357023D01*
X54725277Y9575000D01*
X54706207Y9792977D01*
X54649575Y10004330D01*
X54557102Y10202638D01*
X54557100Y10202641D01*
X54557099Y10202643D01*
X54431599Y10381876D01*
X54357075Y10456400D01*
X54276877Y10536598D01*
X54097639Y10662102D01*
X54097640Y10662102D01*
X54097638Y10662103D01*
X53965664Y10723643D01*
X53899330Y10754575D01*
X53899326Y10754576D01*
X53899322Y10754578D01*
X53687977Y10811207D01*
X53470002Y10830277D01*
X53469998Y10830277D01*
X53324682Y10817564D01*
X53252023Y10811207D01*
X53252020Y10811207D01*
X53040677Y10754578D01*
X53040668Y10754574D01*
X52842361Y10662102D01*
X52842357Y10662100D01*
X52663121Y10536598D01*
X52508402Y10381879D01*
X52382900Y10202643D01*
X52382898Y10202639D01*
X52290426Y10004332D01*
X52290422Y10004323D01*
X52233793Y9792980D01*
X52233793Y9792976D01*
X52214723Y9575003D01*
X51000000Y9575003D01*
X51000000Y10500000D01*
X49000000Y10500000D01*
X49000000Y8500000D01*
X48500000Y8500000D01*
X48500000Y10500000D01*
X46500000Y10500000D01*
X46500000Y8500000D01*
X46000000Y8500000D01*
X46000000Y10500000D01*
X44000000Y10500000D01*
X44000000Y8500000D01*
X39050500Y8500000D01*
X39050500Y12487770D01*
X39070185Y12554809D01*
X39086819Y12575451D01*
X40936371Y14425003D01*
X52214723Y14425003D01*
X52214723Y14424998D01*
X52233793Y14207025D01*
X52233793Y14207021D01*
X52290422Y13995678D01*
X52290424Y13995674D01*
X52290425Y13995670D01*
X52302664Y13969424D01*
X52382897Y13797362D01*
X52407998Y13761514D01*
X52508402Y13618123D01*
X52663123Y13463402D01*
X52842361Y13337898D01*
X53040670Y13245425D01*
X53252023Y13188793D01*
X53434926Y13172792D01*
X53469998Y13169723D01*
X53470000Y13169723D01*
X53470002Y13169723D01*
X53498254Y13172195D01*
X53687977Y13188793D01*
X53899330Y13245425D01*
X54097639Y13337898D01*
X54276877Y13463402D01*
X54431598Y13618123D01*
X54557102Y13797361D01*
X54649575Y13995670D01*
X54706207Y14207023D01*
X54725277Y14425000D01*
X54706207Y14642977D01*
X54684227Y14725007D01*
X55094700Y14725007D01*
X55094700Y14724994D01*
X55113864Y14493703D01*
X55113866Y14493692D01*
X55170842Y14268700D01*
X55264075Y14056152D01*
X55391016Y13861853D01*
X55391019Y13861849D01*
X55391021Y13861847D01*
X55548216Y13691087D01*
X55548219Y13691085D01*
X55548222Y13691082D01*
X55731365Y13548536D01*
X55731371Y13548532D01*
X55731374Y13548530D01*
X55935497Y13438064D01*
X56046362Y13400004D01*
X56155015Y13362703D01*
X56155017Y13362703D01*
X56155019Y13362702D01*
X56383951Y13324500D01*
X56383952Y13324500D01*
X56616048Y13324500D01*
X56616049Y13324500D01*
X56844981Y13362702D01*
X57064503Y13438064D01*
X57268626Y13548530D01*
X57451784Y13691087D01*
X57608979Y13861847D01*
X57614427Y13870185D01*
X57696409Y13995669D01*
X57735924Y14056151D01*
X57829157Y14268700D01*
X57886134Y14493695D01*
X57886135Y14493703D01*
X57905300Y14724994D01*
X57905300Y14725007D01*
X57886135Y14956298D01*
X57886133Y14956309D01*
X57829157Y15181301D01*
X57735924Y15393849D01*
X57608983Y15588148D01*
X57608980Y15588151D01*
X57608979Y15588153D01*
X57451784Y15758913D01*
X57451779Y15758917D01*
X57451777Y15758919D01*
X57268634Y15901465D01*
X57268628Y15901469D01*
X57064504Y16011936D01*
X57064495Y16011939D01*
X56844984Y16087298D01*
X56673282Y16115950D01*
X56616049Y16125500D01*
X56383951Y16125500D01*
X56338164Y16117860D01*
X56155015Y16087298D01*
X55935504Y16011939D01*
X55935495Y16011936D01*
X55731371Y15901469D01*
X55731365Y15901465D01*
X55548222Y15758919D01*
X55548219Y15758916D01*
X55548216Y15758914D01*
X55548216Y15758913D01*
X55509271Y15716607D01*
X55391016Y15588148D01*
X55264075Y15393849D01*
X55170842Y15181301D01*
X55113866Y14956309D01*
X55113864Y14956298D01*
X55094700Y14725007D01*
X54684227Y14725007D01*
X54649575Y14854330D01*
X54557102Y15052638D01*
X54557100Y15052641D01*
X54557099Y15052643D01*
X54431599Y15231876D01*
X54357910Y15305565D01*
X54276877Y15386598D01*
X54097639Y15512102D01*
X54097640Y15512102D01*
X54097638Y15512103D01*
X53988100Y15563181D01*
X53899330Y15604575D01*
X53899326Y15604576D01*
X53899322Y15604578D01*
X53687977Y15661207D01*
X53470002Y15680277D01*
X53469998Y15680277D01*
X53324682Y15667564D01*
X53252023Y15661207D01*
X53252020Y15661207D01*
X53040677Y15604578D01*
X53040668Y15604574D01*
X52842361Y15512102D01*
X52842357Y15512100D01*
X52663121Y15386598D01*
X52508402Y15231879D01*
X52382900Y15052643D01*
X52382898Y15052639D01*
X52290426Y14854332D01*
X52290422Y14854323D01*
X52233793Y14642980D01*
X52233793Y14642976D01*
X52214723Y14425003D01*
X40936371Y14425003D01*
X41474549Y14963181D01*
X41535872Y14996666D01*
X41562230Y14999500D01*
X46423920Y14999500D01*
X46521462Y15018904D01*
X46568913Y15028342D01*
X46705495Y15084916D01*
X46754729Y15117814D01*
X46766233Y15125500D01*
X46802152Y15149500D01*
X46828416Y15167048D01*
X48024549Y16363181D01*
X48085872Y16396666D01*
X48112230Y16399500D01*
X55723920Y16399500D01*
X55823442Y16419297D01*
X55868913Y16428342D01*
X56005495Y16484916D01*
X56054729Y16517814D01*
X56128416Y16567048D01*
X57212951Y17651584D01*
X57295084Y17774505D01*
X57351658Y17911087D01*
X57380500Y18056082D01*
X57380500Y18203917D01*
X57380500Y19516151D01*
X57400185Y19583190D01*
X57448205Y19626636D01*
X57502412Y19654255D01*
X57561837Y19684533D01*
X57561838Y19684535D01*
X57561840Y19684535D01*
X57713032Y19806968D01*
X57835465Y19958160D01*
X57923788Y20131504D01*
X57974141Y20319422D01*
X57980500Y20400222D01*
X57980500Y22867771D01*
X58000185Y22934810D01*
X58016819Y22955452D01*
X59082948Y24021581D01*
X59082951Y24021584D01*
X59165084Y24144505D01*
X59221658Y24281087D01*
X59235466Y24350501D01*
X59250500Y24426080D01*
X59250500Y26621289D01*
X59649500Y26621289D01*
X59649500Y26378712D01*
X59680214Y26145405D01*
X59681162Y26138211D01*
X59692734Y26095023D01*
X59743947Y25903896D01*
X59836773Y25679795D01*
X59836777Y25679786D01*
X59852246Y25652993D01*
X59958064Y25469711D01*
X59958066Y25469708D01*
X59958067Y25469707D01*
X60105733Y25277264D01*
X60105739Y25277257D01*
X60277256Y25105740D01*
X60277262Y25105735D01*
X60469711Y24958064D01*
X60679788Y24836776D01*
X60903900Y24743946D01*
X61138211Y24681162D01*
X61318586Y24657416D01*
X61378711Y24649500D01*
X61378712Y24649500D01*
X61621289Y24649500D01*
X61669388Y24655833D01*
X61861789Y24681162D01*
X62096100Y24743946D01*
X62320212Y24836776D01*
X62530289Y24958064D01*
X62722738Y25105735D01*
X62894265Y25277262D01*
X63041936Y25469711D01*
X63163224Y25679788D01*
X63256054Y25903900D01*
X63318838Y26138211D01*
X63350500Y26378712D01*
X63350500Y26621288D01*
X63349600Y26628121D01*
X63333185Y26752807D01*
X63318838Y26861789D01*
X63256054Y27096100D01*
X63250163Y27110321D01*
X63242593Y27128598D01*
X63163224Y27320212D01*
X63041936Y27530289D01*
X62894265Y27722738D01*
X62894260Y27722744D01*
X62722743Y27894261D01*
X62722736Y27894267D01*
X62530293Y28041933D01*
X62530292Y28041934D01*
X62530289Y28041936D01*
X62320212Y28163224D01*
X62320205Y28163227D01*
X62096104Y28256053D01*
X61978944Y28287446D01*
X61861789Y28318838D01*
X61861788Y28318839D01*
X61861785Y28318839D01*
X61621289Y28350500D01*
X61621288Y28350500D01*
X61378712Y28350500D01*
X61378711Y28350500D01*
X61138214Y28318839D01*
X60903895Y28256053D01*
X60679794Y28163227D01*
X60679785Y28163223D01*
X60469706Y28041933D01*
X60277263Y27894267D01*
X60277256Y27894261D01*
X60105739Y27722744D01*
X60105733Y27722737D01*
X59958067Y27530294D01*
X59836777Y27320215D01*
X59836773Y27320206D01*
X59743947Y27096105D01*
X59681161Y26861786D01*
X59649500Y26621289D01*
X59250500Y26621289D01*
X59250500Y28523918D01*
X59244454Y28554310D01*
X59244454Y28554312D01*
X59221659Y28668912D01*
X59167408Y28799883D01*
X59165764Y28804478D01*
X59082954Y28928412D01*
X59082953Y28928413D01*
X59082951Y28928416D01*
X58978416Y29032951D01*
X58729079Y29282288D01*
X58473549Y29537819D01*
X58440064Y29599142D01*
X58445048Y29668834D01*
X58486920Y29724767D01*
X58552384Y29749184D01*
X58561230Y29749500D01*
X61445827Y29749500D01*
X61445839Y29749499D01*
G37*
%TD.AperFunction*%
%TA.AperFunction,Conductor*%
G36*
X15491915Y9429815D02*
G01*
X15529870Y9391472D01*
X15620184Y9247738D01*
X15747740Y9120182D01*
X15841471Y9061288D01*
X15887763Y9008954D01*
X15899500Y8956294D01*
X15899500Y5385929D01*
X15918725Y5289283D01*
X15918725Y5289282D01*
X15924497Y5260264D01*
X15924499Y5260256D01*
X15967863Y5155565D01*
X15973535Y5141873D01*
X16034919Y5050004D01*
X16044726Y5035327D01*
X16063679Y5016375D01*
X16097166Y4955053D01*
X16100000Y4928692D01*
X16100000Y4584500D01*
X16080315Y4517461D01*
X16027511Y4471706D01*
X15976000Y4460500D01*
X15500216Y4460500D01*
X15419419Y4454141D01*
X15413823Y4453179D01*
X15413778Y4453441D01*
X15387642Y4450000D01*
X14050423Y4450000D01*
X14026185Y4453192D01*
X14026098Y4452682D01*
X14020501Y4453644D01*
X13939743Y4460000D01*
X13700000Y4460000D01*
X13700000Y2084000D01*
X13680315Y2016961D01*
X13627511Y1971206D01*
X13576000Y1960000D01*
X13324000Y1960000D01*
X13256961Y1979685D01*
X13211206Y2032489D01*
X13200000Y2084000D01*
X13200000Y4460000D01*
X12960256Y4460000D01*
X12879498Y4453644D01*
X12873902Y4452682D01*
X12873814Y4453192D01*
X12849577Y4450000D01*
X11512358Y4450000D01*
X11486221Y4453441D01*
X11486177Y4453179D01*
X11480580Y4454141D01*
X11399783Y4460500D01*
X11399778Y4460500D01*
X11074000Y4460500D01*
X11006961Y4480185D01*
X10961206Y4532989D01*
X10950000Y4584500D01*
X10950000Y5323712D01*
X10969007Y5389686D01*
X10975789Y5400478D01*
X11017799Y5520536D01*
X11035366Y5570738D01*
X11035369Y5570751D01*
X11055565Y5749997D01*
X11055565Y5750004D01*
X11035369Y5929250D01*
X11035366Y5929263D01*
X10975789Y6099522D01*
X10969004Y6110322D01*
X10950000Y6176290D01*
X10950000Y6228692D01*
X10969685Y6295731D01*
X10986319Y6316373D01*
X11883127Y7213181D01*
X11944450Y7246666D01*
X11970808Y7249500D01*
X12964071Y7249500D01*
X13048615Y7266318D01*
X13089744Y7274499D01*
X13208127Y7323535D01*
X13211068Y7325500D01*
X13314669Y7394723D01*
X14005276Y8085331D01*
X14076465Y8191873D01*
X14125501Y8310256D01*
X14129916Y8332452D01*
X14145709Y8411847D01*
X14150500Y8435930D01*
X14150500Y9325500D01*
X14170185Y9392539D01*
X14222989Y9438294D01*
X14274500Y9449500D01*
X15424876Y9449500D01*
X15491915Y9429815D01*
G37*
%TD.AperFunction*%
%TA.AperFunction,Conductor*%
G36*
X24592539Y6930315D02*
G01*
X24638294Y6877511D01*
X24649500Y6826000D01*
X24649500Y6526082D01*
X24649500Y6526080D01*
X24649499Y6526080D01*
X24678340Y6381093D01*
X24678343Y6381083D01*
X24734912Y6244512D01*
X24734914Y6244508D01*
X24734916Y6244505D01*
X24751099Y6220286D01*
X24780495Y6176290D01*
X24817051Y6121580D01*
X24817052Y6121579D01*
X25496692Y5441941D01*
X25519358Y5405875D01*
X25521188Y5406756D01*
X25524209Y5400482D01*
X25524211Y5400478D01*
X25620184Y5247738D01*
X25747738Y5120184D01*
X25900478Y5024211D01*
X25907426Y5021780D01*
X25935364Y5007841D01*
X25985261Y4974501D01*
X25985262Y4974501D01*
X25985263Y4974500D01*
X26044505Y4934916D01*
X26044506Y4934916D01*
X26044507Y4934915D01*
X26142645Y4894265D01*
X26181087Y4878342D01*
X26181091Y4878342D01*
X26181092Y4878341D01*
X26326079Y4849500D01*
X26326082Y4849500D01*
X26326083Y4849500D01*
X26473917Y4849500D01*
X27176000Y4849500D01*
X27243039Y4829815D01*
X27288794Y4777011D01*
X27300000Y4725500D01*
X27300000Y4398130D01*
X27280315Y4331091D01*
X27227511Y4285336D01*
X27158353Y4275392D01*
X27097964Y4301764D01*
X27081564Y4315044D01*
X26908315Y4403318D01*
X26720497Y4453645D01*
X26639743Y4460000D01*
X26400000Y4460000D01*
X26400000Y2084000D01*
X26380315Y2016961D01*
X26327511Y1971206D01*
X26276000Y1960000D01*
X26024000Y1960000D01*
X25956961Y1979685D01*
X25911206Y2032489D01*
X25900000Y2084000D01*
X25900000Y4460000D01*
X25660256Y4460000D01*
X25579498Y4453644D01*
X25573902Y4452682D01*
X25573814Y4453192D01*
X25549577Y4450000D01*
X24212358Y4450000D01*
X24186221Y4453441D01*
X24186177Y4453179D01*
X24180580Y4454141D01*
X24099783Y4460500D01*
X24099778Y4460500D01*
X23120222Y4460500D01*
X23120216Y4460500D01*
X23039425Y4454142D01*
X23039422Y4454141D01*
X23022621Y4449640D01*
X22952771Y4451307D01*
X22902854Y4481736D01*
X22490198Y4894392D01*
X22490178Y4894414D01*
X21061819Y6322773D01*
X21028334Y6384096D01*
X21025500Y6410454D01*
X21025500Y6800500D01*
X21045185Y6867539D01*
X21097989Y6913294D01*
X21149500Y6924500D01*
X23011607Y6924500D01*
X23072029Y6936519D01*
X23127834Y6947619D01*
X23152019Y6950000D01*
X24525500Y6950000D01*
X24592539Y6930315D01*
G37*
%TD.AperFunction*%
%TA.AperFunction,Conductor*%
G36*
X30971117Y11605494D02*
G01*
X31056234Y11552011D01*
X31100478Y11524211D01*
X31270745Y11464632D01*
X31317823Y11459328D01*
X31382236Y11432263D01*
X31391621Y11423789D01*
X31538181Y11277229D01*
X31571666Y11215906D01*
X31574500Y11189548D01*
X31574500Y8860453D01*
X31554815Y8793414D01*
X31538181Y8772772D01*
X30257024Y7491616D01*
X30195701Y7458131D01*
X30166963Y7456664D01*
X30166963Y7455565D01*
X30159996Y7455565D01*
X29980750Y7435370D01*
X29980745Y7435369D01*
X29810476Y7375789D01*
X29657737Y7279816D01*
X29530184Y7152263D01*
X29434211Y6999524D01*
X29374631Y6829255D01*
X29374630Y6829250D01*
X29354435Y6650004D01*
X29354435Y6649997D01*
X29372644Y6488383D01*
X29360589Y6419561D01*
X29313240Y6368182D01*
X29249424Y6350500D01*
X26832412Y6350500D01*
X26765373Y6370185D01*
X26755097Y6377555D01*
X26752263Y6379815D01*
X26752262Y6379816D01*
X26599522Y6475789D01*
X26599518Y6475791D01*
X26593244Y6478812D01*
X26594125Y6480642D01*
X26558059Y6503308D01*
X26186819Y6874549D01*
X26153334Y6935872D01*
X26150500Y6962230D01*
X26150500Y7126000D01*
X26170185Y7193039D01*
X26222989Y7238794D01*
X26274500Y7250000D01*
X27250000Y7250000D01*
X27250000Y7646446D01*
X27750000Y7646446D01*
X27750000Y7250000D01*
X28872828Y7250000D01*
X28872844Y7250001D01*
X28932372Y7256402D01*
X28932379Y7256404D01*
X29067086Y7306646D01*
X29067093Y7306650D01*
X29182187Y7392810D01*
X29182190Y7392813D01*
X29268350Y7507907D01*
X29268354Y7507914D01*
X29318596Y7642621D01*
X29318598Y7642628D01*
X29324999Y7702156D01*
X29325000Y7702173D01*
X29325000Y8000000D01*
X28603552Y8000000D01*
X28168366Y7564814D01*
X28107043Y7531329D01*
X28037351Y7536313D01*
X28003890Y7557818D01*
X27994185Y7557818D01*
X27945670Y7531328D01*
X27875978Y7536314D01*
X27831632Y7564814D01*
X27750000Y7646446D01*
X27250000Y7646446D01*
X27250000Y7646447D01*
X27249999Y7646448D01*
X27168366Y7564814D01*
X27107043Y7531329D01*
X27037351Y7536313D01*
X27003890Y7557818D01*
X26994185Y7557818D01*
X26945670Y7531328D01*
X26875978Y7536314D01*
X26831633Y7564814D01*
X26234127Y8162319D01*
X26200642Y8223642D01*
X26204661Y8279837D01*
X26350000Y8279837D01*
X26350000Y8220163D01*
X26372836Y8165032D01*
X26415032Y8122836D01*
X26470163Y8100000D01*
X26529837Y8100000D01*
X26584968Y8122836D01*
X26627164Y8165032D01*
X26650000Y8220163D01*
X26650000Y8250001D01*
X26853553Y8250001D01*
X27000000Y8103554D01*
X27146446Y8249999D01*
X27146446Y8250000D01*
X27116609Y8279837D01*
X27350000Y8279837D01*
X27350000Y8220163D01*
X27372836Y8165032D01*
X27415032Y8122836D01*
X27470163Y8100000D01*
X27529837Y8100000D01*
X27584968Y8122836D01*
X27627164Y8165032D01*
X27650000Y8220163D01*
X27650000Y8279837D01*
X28350000Y8279837D01*
X28350000Y8220163D01*
X28372836Y8165032D01*
X28415032Y8122836D01*
X28470163Y8100000D01*
X28529837Y8100000D01*
X28584968Y8122836D01*
X28627164Y8165032D01*
X28650000Y8220163D01*
X28650000Y8279837D01*
X28627164Y8334968D01*
X28584968Y8377164D01*
X28529837Y8400000D01*
X28470163Y8400000D01*
X28415032Y8377164D01*
X28372836Y8334968D01*
X28350000Y8279837D01*
X27650000Y8279837D01*
X27627164Y8334968D01*
X27584968Y8377164D01*
X27529837Y8400000D01*
X27470163Y8400000D01*
X27415032Y8377164D01*
X27372836Y8334968D01*
X27350000Y8279837D01*
X27116609Y8279837D01*
X27000000Y8396447D01*
X26853553Y8250001D01*
X26650000Y8250001D01*
X26650000Y8279837D01*
X26627164Y8334968D01*
X26584968Y8377164D01*
X26529837Y8400000D01*
X26470163Y8400000D01*
X26415032Y8377164D01*
X26372836Y8334968D01*
X26350000Y8279837D01*
X26204661Y8279837D01*
X26205626Y8293333D01*
X26234127Y8337681D01*
X26500000Y8603553D01*
X26831633Y8935187D01*
X26892956Y8968672D01*
X26962647Y8963688D01*
X26996111Y8942182D01*
X27005814Y8942182D01*
X27054325Y8968672D01*
X27124017Y8963689D01*
X27168366Y8935187D01*
X27249999Y8853554D01*
X27250000Y8853555D01*
X27250000Y9375500D01*
X27269685Y9442539D01*
X27322489Y9488294D01*
X27374000Y9499500D01*
X28450028Y9499500D01*
X28490981Y9492542D01*
X28495268Y9491042D01*
X28552044Y9450322D01*
X28577793Y9385369D01*
X28564338Y9316807D01*
X28515951Y9266404D01*
X28454315Y9250000D01*
X27750000Y9250000D01*
X27750000Y8853556D01*
X27831632Y8935187D01*
X27892955Y8968672D01*
X27962647Y8963688D01*
X27996111Y8942182D01*
X28005814Y8942182D01*
X28054325Y8968672D01*
X28124017Y8963689D01*
X28168366Y8935187D01*
X28603553Y8500000D01*
X29325000Y8500000D01*
X29325000Y8797828D01*
X29324999Y8797845D01*
X29318598Y8857373D01*
X29318596Y8857380D01*
X29268354Y8992087D01*
X29268350Y8992094D01*
X29182190Y9107188D01*
X29182187Y9107191D01*
X29067093Y9193351D01*
X29067086Y9193355D01*
X28946577Y9238302D01*
X28890643Y9280173D01*
X28866226Y9345638D01*
X28881078Y9413911D01*
X28930483Y9463316D01*
X28948952Y9471525D01*
X29099522Y9524211D01*
X29252262Y9620184D01*
X29379816Y9747738D01*
X29475789Y9900478D01*
X29535368Y10070745D01*
X29535369Y10070751D01*
X29555565Y10249997D01*
X29555565Y10250004D01*
X29535369Y10429250D01*
X29535368Y10429255D01*
X29527595Y10451470D01*
X29475789Y10599522D01*
X29469005Y10610319D01*
X29450000Y10676290D01*
X29450000Y11500500D01*
X29469685Y11567539D01*
X29522489Y11613294D01*
X29574000Y11624500D01*
X30905145Y11624500D01*
X30971117Y11605494D01*
G37*
%TD.AperFunction*%
%TA.AperFunction,Conductor*%
G36*
X39130000Y24121362D02*
G01*
X39110315Y24054323D01*
X39100000Y24041523D01*
X39100000Y19540000D01*
X39339730Y19540000D01*
X39339743Y19540001D01*
X39420501Y19546357D01*
X39426098Y19547318D01*
X39426185Y19546809D01*
X39450423Y19550000D01*
X40787642Y19550000D01*
X40813778Y19546560D01*
X40813823Y19546821D01*
X40819416Y19545861D01*
X40819422Y19545859D01*
X40900222Y19539500D01*
X40900230Y19539500D01*
X41879770Y19539500D01*
X41879778Y19539500D01*
X41960578Y19545859D01*
X42148496Y19596212D01*
X42321840Y19684535D01*
X42473032Y19806968D01*
X42563635Y19918855D01*
X42621121Y19958564D01*
X42690952Y19960892D01*
X42750956Y19925097D01*
X42756353Y19918867D01*
X42846968Y19806968D01*
X42998160Y19684535D01*
X43171504Y19596212D01*
X43359422Y19545859D01*
X43440222Y19539500D01*
X43440230Y19539500D01*
X44419770Y19539500D01*
X44419778Y19539500D01*
X44500578Y19545859D01*
X44688496Y19596212D01*
X44861840Y19684535D01*
X45013032Y19806968D01*
X45103635Y19918855D01*
X45161121Y19958564D01*
X45230952Y19960892D01*
X45290956Y19925097D01*
X45296353Y19918867D01*
X45386968Y19806968D01*
X45538160Y19684535D01*
X45711504Y19596212D01*
X45899422Y19545859D01*
X45980222Y19539500D01*
X46314956Y19539500D01*
X46328840Y19538720D01*
X46499997Y19519435D01*
X46500000Y19519435D01*
X46500003Y19519435D01*
X46671160Y19538720D01*
X46685044Y19539500D01*
X46959770Y19539500D01*
X46959778Y19539500D01*
X47040578Y19545859D01*
X47151199Y19575500D01*
X47226867Y19595775D01*
X47258960Y19600000D01*
X48221040Y19600000D01*
X48253133Y19595775D01*
X48374945Y19563136D01*
X48439422Y19545859D01*
X48520222Y19539500D01*
X48520230Y19539500D01*
X49499770Y19539500D01*
X49499778Y19539500D01*
X49580578Y19545859D01*
X49691199Y19575500D01*
X49766867Y19595775D01*
X49798960Y19600000D01*
X50762975Y19600000D01*
X50795069Y19595775D01*
X50979502Y19546356D01*
X51060256Y19540001D01*
X51060270Y19540000D01*
X51300000Y19540000D01*
X51300000Y21916000D01*
X51319685Y21983039D01*
X51372489Y22028794D01*
X51424000Y22040000D01*
X51676000Y22040000D01*
X51743039Y22020315D01*
X51788794Y21967511D01*
X51800000Y21916000D01*
X51800000Y19540000D01*
X52039730Y19540000D01*
X52039743Y19540001D01*
X52120497Y19546356D01*
X52308315Y19596683D01*
X52481567Y19684958D01*
X52632675Y19807325D01*
X52723312Y19919251D01*
X52780799Y19958962D01*
X52850630Y19961290D01*
X52910634Y19925495D01*
X52916027Y19919271D01*
X53006968Y19806968D01*
X53158160Y19684535D01*
X53331504Y19596212D01*
X53519422Y19545859D01*
X53600222Y19539500D01*
X53600230Y19539500D01*
X54579770Y19539500D01*
X54579778Y19539500D01*
X54660578Y19545859D01*
X54848496Y19596212D01*
X55021840Y19684535D01*
X55173032Y19806968D01*
X55263635Y19918855D01*
X55321121Y19958564D01*
X55390952Y19960892D01*
X55450956Y19925097D01*
X55456353Y19918867D01*
X55546968Y19806968D01*
X55627635Y19741645D01*
X55698162Y19684533D01*
X55785368Y19640101D01*
X55811794Y19626636D01*
X55862590Y19578662D01*
X55879500Y19516151D01*
X55879500Y18492230D01*
X55859815Y18425191D01*
X55843181Y18404549D01*
X55375451Y17936819D01*
X55314128Y17903334D01*
X55287770Y17900500D01*
X47676080Y17900500D01*
X47531092Y17871660D01*
X47531082Y17871657D01*
X47394509Y17815087D01*
X47394504Y17815084D01*
X47377488Y17803715D01*
X47377489Y17803714D01*
X47271579Y17732949D01*
X47271578Y17732948D01*
X47212181Y17673550D01*
X47150858Y17640065D01*
X47081166Y17645049D01*
X47025233Y17686921D01*
X47000816Y17752385D01*
X47000500Y17761231D01*
X47000500Y17950028D01*
X47007458Y17990983D01*
X47035368Y18070745D01*
X47035369Y18070751D01*
X47055565Y18249997D01*
X47055565Y18250004D01*
X47035369Y18429250D01*
X47035368Y18429255D01*
X46986055Y18570184D01*
X46975789Y18599522D01*
X46879816Y18752262D01*
X46752262Y18879816D01*
X46638237Y18951463D01*
X46599523Y18975789D01*
X46429254Y19035369D01*
X46429249Y19035370D01*
X46250004Y19055565D01*
X46249996Y19055565D01*
X46070750Y19035370D01*
X46070745Y19035369D01*
X45900476Y18975789D01*
X45747737Y18879816D01*
X45620184Y18752263D01*
X45524211Y18599524D01*
X45464631Y18429255D01*
X45464630Y18429250D01*
X45444435Y18250004D01*
X45444435Y18249997D01*
X45464630Y18070751D01*
X45464631Y18070746D01*
X45492542Y17990983D01*
X45499500Y17950028D01*
X45499500Y17812230D01*
X45479815Y17745191D01*
X45463181Y17724549D01*
X45275451Y17536819D01*
X45214128Y17503334D01*
X45187770Y17500500D01*
X40676079Y17500500D01*
X40666217Y17498538D01*
X40666212Y17498537D01*
X40531095Y17471661D01*
X40531087Y17471659D01*
X40452410Y17439069D01*
X40452409Y17439069D01*
X40394511Y17415088D01*
X40394498Y17415081D01*
X40334516Y17375001D01*
X40271582Y17332951D01*
X40271579Y17332948D01*
X38225451Y15286819D01*
X38164128Y15253334D01*
X38137770Y15250500D01*
X36676080Y15250500D01*
X36531092Y15221660D01*
X36531082Y15221657D01*
X36394511Y15165088D01*
X36394504Y15165084D01*
X36378992Y15154719D01*
X36371183Y15149501D01*
X36371182Y15149501D01*
X36271589Y15082956D01*
X36271585Y15082954D01*
X36191935Y15003305D01*
X36155878Y14980634D01*
X36156756Y14978812D01*
X36150478Y14975789D01*
X35997737Y14879816D01*
X35870184Y14752263D01*
X35774211Y14599524D01*
X35714631Y14429255D01*
X35714630Y14429250D01*
X35694435Y14250004D01*
X35694435Y14249997D01*
X35714630Y14070751D01*
X35714631Y14070746D01*
X35774211Y13900477D01*
X35827831Y13815142D01*
X35870184Y13747738D01*
X35997738Y13620184D01*
X36062863Y13579263D01*
X36111774Y13548530D01*
X36150478Y13524211D01*
X36320745Y13464632D01*
X36389384Y13456899D01*
X36453796Y13429834D01*
X36493352Y13372240D01*
X36499500Y13333679D01*
X36499500Y7549972D01*
X36492542Y7509018D01*
X36464631Y7429253D01*
X36445156Y7256402D01*
X36444435Y7250000D01*
X36448583Y7213181D01*
X36449220Y7207532D01*
X36450000Y7193648D01*
X36450000Y6474500D01*
X36430315Y6407461D01*
X36377511Y6361706D01*
X36326000Y6350500D01*
X32924000Y6350500D01*
X32856961Y6370185D01*
X32811206Y6422989D01*
X32800000Y6474500D01*
X32800000Y8347981D01*
X32802383Y8372173D01*
X32825501Y8488392D01*
X32825501Y8616717D01*
X32825500Y8616743D01*
X32825500Y11561611D01*
X32822545Y11576463D01*
X32822543Y11576469D01*
X32820213Y11588181D01*
X32810443Y11637304D01*
X32810443Y11637305D01*
X32802383Y11677829D01*
X32800000Y11702020D01*
X32800000Y13634608D01*
X32819685Y13701647D01*
X32872489Y13747402D01*
X32941647Y13757346D01*
X32964955Y13751649D01*
X33070737Y13714634D01*
X33070743Y13714633D01*
X33070745Y13714632D01*
X33070746Y13714632D01*
X33070750Y13714631D01*
X33249996Y13694435D01*
X33250000Y13694435D01*
X33250004Y13694435D01*
X33429249Y13714631D01*
X33429252Y13714632D01*
X33429255Y13714632D01*
X33599522Y13774211D01*
X33752262Y13870184D01*
X33879816Y13997738D01*
X33975789Y14150478D01*
X34035368Y14320745D01*
X34035369Y14320751D01*
X34055565Y14499997D01*
X34055565Y14500004D01*
X34035369Y14679250D01*
X34035368Y14679255D01*
X33975788Y14849524D01*
X33936582Y14911920D01*
X33879816Y15002262D01*
X33752262Y15129816D01*
X33728883Y15144506D01*
X33599523Y15225789D01*
X33429254Y15285369D01*
X33429249Y15285370D01*
X33250004Y15305565D01*
X33249996Y15305565D01*
X33070750Y15285370D01*
X33070745Y15285369D01*
X32900476Y15225789D01*
X32771117Y15144506D01*
X32705145Y15125500D01*
X31849500Y15125500D01*
X31782461Y15145185D01*
X31736706Y15197989D01*
X31725500Y15249500D01*
X31725500Y16539548D01*
X31745185Y16606587D01*
X31761819Y16627229D01*
X33422772Y18288181D01*
X33484095Y18321666D01*
X33510453Y18324500D01*
X37239548Y18324500D01*
X37306587Y18304815D01*
X37327229Y18288181D01*
X37773787Y17841623D01*
X37807272Y17780300D01*
X37809326Y17767827D01*
X37814630Y17720751D01*
X37874210Y17550479D01*
X37929888Y17461868D01*
X37970184Y17397738D01*
X38097738Y17270184D01*
X38163433Y17228905D01*
X38206234Y17202011D01*
X38250478Y17174211D01*
X38393567Y17124142D01*
X38420745Y17114632D01*
X38420750Y17114631D01*
X38599996Y17094435D01*
X38600000Y17094435D01*
X38600004Y17094435D01*
X38779249Y17114631D01*
X38779252Y17114632D01*
X38779255Y17114632D01*
X38949522Y17174211D01*
X39102262Y17270184D01*
X39229816Y17397738D01*
X39325789Y17550478D01*
X39385368Y17720745D01*
X39386743Y17732949D01*
X39405565Y17899997D01*
X39405565Y17900004D01*
X39385369Y18079250D01*
X39385368Y18079255D01*
X39357505Y18158883D01*
X39325789Y18249522D01*
X39325174Y18250500D01*
X39278677Y18324500D01*
X39229816Y18402262D01*
X39102262Y18529816D01*
X39031148Y18574500D01*
X38949521Y18625790D01*
X38779249Y18685370D01*
X38732173Y18690674D01*
X38667759Y18717741D01*
X38658377Y18726213D01*
X38636319Y18748271D01*
X38602834Y18809594D01*
X38600000Y18835952D01*
X38600000Y24045196D01*
X38619685Y24112235D01*
X38630000Y24123448D01*
X38630000Y25026988D01*
X38687007Y24994075D01*
X38814174Y24960000D01*
X38945826Y24960000D01*
X39072993Y24994075D01*
X39130000Y25026988D01*
X39130000Y24121362D01*
G37*
%TD.AperFunction*%
%TA.AperFunction,Conductor*%
G36*
X6993039Y29729815D02*
G01*
X7038794Y29677011D01*
X7050000Y29625500D01*
X7050000Y28070095D01*
X7049528Y28059287D01*
X7044341Y28000001D01*
X7044341Y28000000D01*
X7049528Y27940714D01*
X7050000Y27929906D01*
X7050000Y26369174D01*
X7049572Y26361202D01*
X7049678Y26361196D01*
X7049500Y26357872D01*
X7049500Y24562137D01*
X7049679Y24558820D01*
X7049572Y24558815D01*
X7050000Y24550844D01*
X7050000Y23366999D01*
X7045775Y23334906D01*
X7025858Y23260577D01*
X7019500Y23179784D01*
X7019500Y20400217D01*
X7025858Y20319426D01*
X7025858Y20319423D01*
X7025859Y20319422D01*
X7076212Y20131504D01*
X7164535Y19958160D01*
X7286968Y19806968D01*
X7438160Y19684535D01*
X7532295Y19636571D01*
X7583090Y19588599D01*
X7600000Y19526087D01*
X7600000Y18802019D01*
X7597617Y18777828D01*
X7580074Y18689631D01*
X7580074Y18689630D01*
X7574500Y18661609D01*
X7574500Y16014500D01*
X7554815Y15947461D01*
X7502011Y15901706D01*
X7450500Y15890500D01*
X6310216Y15890500D01*
X6229425Y15884142D01*
X6041504Y15833788D01*
X5868161Y15745466D01*
X5716968Y15623032D01*
X5594534Y15471839D01*
X5506212Y15298496D01*
X5455858Y15110575D01*
X5449500Y15029784D01*
X5449500Y14050217D01*
X5455858Y13969424D01*
X5501117Y13800517D01*
X5499454Y13730668D01*
X5460291Y13672805D01*
X5396063Y13645301D01*
X5368087Y13645135D01*
X5322846Y13649999D01*
X5322828Y13650000D01*
X4624000Y13650000D01*
X4556961Y13669685D01*
X4511206Y13722489D01*
X4500000Y13774000D01*
X4500000Y14056415D01*
X4519685Y14123454D01*
X4520191Y14124236D01*
X4602356Y14250000D01*
X4624173Y14283393D01*
X4724063Y14511119D01*
X4785108Y14752179D01*
X4787859Y14785369D01*
X4805643Y14999999D01*
X4805643Y15000001D01*
X4800424Y15062985D01*
X4800000Y15073225D01*
X4800000Y16226000D01*
X4819685Y16293039D01*
X4872489Y16338794D01*
X4924000Y16350000D01*
X5322819Y16350000D01*
X5322819Y16350001D01*
X5366727Y16354721D01*
X2559128Y19162320D01*
X2525643Y19223643D01*
X2527528Y19250001D01*
X3178553Y19250001D01*
X3178553Y19250000D01*
X5746139Y16682413D01*
X5768598Y16742629D01*
X5774999Y16802156D01*
X5775000Y16802173D01*
X5775000Y21697828D01*
X5774999Y21697845D01*
X5768598Y21757377D01*
X5746139Y21817589D01*
X3178553Y19250001D01*
X2527528Y19250001D01*
X2530627Y19293335D01*
X2559128Y19337682D01*
X2825000Y19603553D01*
X5366727Y22145281D01*
X5322829Y22150000D01*
X374500Y22150000D01*
X307461Y22169685D01*
X261706Y22222489D01*
X250500Y22274000D01*
X250500Y26441388D01*
X250501Y26441397D01*
X250501Y26496754D01*
X250671Y26503244D01*
X253112Y26549828D01*
X256857Y26621289D01*
X1649500Y26621289D01*
X1649500Y26378712D01*
X1680214Y26145405D01*
X1681162Y26138211D01*
X1692734Y26095023D01*
X1743947Y25903896D01*
X1836773Y25679795D01*
X1836777Y25679786D01*
X1852246Y25652993D01*
X1958064Y25469711D01*
X1958066Y25469708D01*
X1958067Y25469707D01*
X2105733Y25277264D01*
X2105739Y25277257D01*
X2277256Y25105740D01*
X2277262Y25105735D01*
X2469711Y24958064D01*
X2679788Y24836776D01*
X2903900Y24743946D01*
X3138211Y24681162D01*
X3318586Y24657416D01*
X3378711Y24649500D01*
X3378712Y24649500D01*
X3621289Y24649500D01*
X3669388Y24655833D01*
X3861789Y24681162D01*
X4096100Y24743946D01*
X4320212Y24836776D01*
X4530289Y24958064D01*
X4722738Y25105735D01*
X4894265Y25277262D01*
X5041936Y25469711D01*
X5163224Y25679788D01*
X5256054Y25903900D01*
X5318838Y26138211D01*
X5350500Y26378712D01*
X5350500Y26621288D01*
X5349600Y26628121D01*
X5333185Y26752807D01*
X5318838Y26861789D01*
X5256054Y27096100D01*
X5250163Y27110321D01*
X5242593Y27128598D01*
X5163224Y27320212D01*
X5041936Y27530289D01*
X4894265Y27722738D01*
X4894260Y27722744D01*
X4722743Y27894261D01*
X4722736Y27894267D01*
X4530293Y28041933D01*
X4530292Y28041934D01*
X4530289Y28041936D01*
X4320212Y28163224D01*
X4320205Y28163227D01*
X4096104Y28256053D01*
X3978944Y28287446D01*
X3861789Y28318838D01*
X3861788Y28318839D01*
X3861785Y28318839D01*
X3621289Y28350500D01*
X3621288Y28350500D01*
X3378712Y28350500D01*
X3378711Y28350500D01*
X3138214Y28318839D01*
X2903895Y28256053D01*
X2679794Y28163227D01*
X2679785Y28163223D01*
X2469706Y28041933D01*
X2277263Y27894267D01*
X2277256Y27894261D01*
X2105739Y27722744D01*
X2105733Y27722737D01*
X1958067Y27530294D01*
X1836777Y27320215D01*
X1836773Y27320206D01*
X1743947Y27096105D01*
X1681161Y26861786D01*
X1649500Y26621289D01*
X256857Y26621289D01*
X267962Y26833181D01*
X269319Y26846087D01*
X320494Y27169196D01*
X323187Y27181871D01*
X407864Y27497886D01*
X411872Y27510218D01*
X529110Y27815634D01*
X534376Y27827463D01*
X682913Y28118985D01*
X689379Y28130184D01*
X867565Y28404566D01*
X875179Y28415047D01*
X1081073Y28669302D01*
X1089740Y28678928D01*
X1321072Y28910260D01*
X1330698Y28918927D01*
X1584953Y29124821D01*
X1595434Y29132435D01*
X1869816Y29310621D01*
X1881015Y29317087D01*
X2172537Y29465624D01*
X2184366Y29470890D01*
X2489786Y29588130D01*
X2502114Y29592136D01*
X2818129Y29676813D01*
X2830804Y29679506D01*
X3153915Y29730682D01*
X3166819Y29732038D01*
X3326404Y29740402D01*
X3496777Y29749330D01*
X3503267Y29749500D01*
X3544170Y29749500D01*
X6926000Y29749500D01*
X6993039Y29729815D01*
G37*
%TD.AperFunction*%
%TA.AperFunction,Conductor*%
G36*
X15181041Y24393938D02*
G01*
X15208825Y24379334D01*
X15342170Y24285965D01*
X15404558Y24256873D01*
X15456998Y24210701D01*
X15476150Y24143508D01*
X15455934Y24076626D01*
X15402769Y24031292D01*
X15384248Y24024716D01*
X15231504Y23983789D01*
X15058161Y23895466D01*
X14906968Y23773032D01*
X14816044Y23660751D01*
X14758556Y23621039D01*
X14688725Y23618712D01*
X14628722Y23654508D01*
X14623312Y23660751D01*
X14569197Y23727577D01*
X14542305Y23792064D01*
X14554547Y23860853D01*
X14577879Y23893291D01*
X15050027Y24365439D01*
X15111349Y24398922D01*
X15181041Y24393938D01*
G37*
%TD.AperFunction*%
%TA.AperFunction,Conductor*%
G36*
X24994855Y24793454D02*
G01*
X25011575Y24774158D01*
X25141281Y24588918D01*
X25141505Y24588599D01*
X25308599Y24421505D01*
X25385485Y24367669D01*
X25502165Y24285968D01*
X25502167Y24285967D01*
X25502170Y24285965D01*
X25565264Y24256544D01*
X25617703Y24210372D01*
X25636855Y24143178D01*
X25616639Y24076297D01*
X25563474Y24030962D01*
X25544953Y24024387D01*
X25391684Y23983319D01*
X25218432Y23895043D01*
X25067323Y23772676D01*
X24976686Y23660750D01*
X24919198Y23621039D01*
X24849368Y23618713D01*
X24789364Y23654509D01*
X24783955Y23660751D01*
X24782662Y23662348D01*
X24693032Y23773032D01*
X24541840Y23895465D01*
X24535357Y23898768D01*
X24368495Y23983789D01*
X24253856Y24014506D01*
X24194196Y24050871D01*
X24163667Y24113718D01*
X24171962Y24183094D01*
X24216447Y24236972D01*
X24233542Y24246661D01*
X24317830Y24285965D01*
X24511401Y24421505D01*
X24678495Y24588599D01*
X24808425Y24774158D01*
X24863002Y24817783D01*
X24932500Y24824977D01*
X24994855Y24793454D01*
G37*
%TD.AperFunction*%
%TA.AperFunction,Conductor*%
G36*
X17375160Y24793890D02*
G01*
X17391879Y24774595D01*
X17521890Y24588922D01*
X17688917Y24421895D01*
X17882419Y24286402D01*
X17945310Y24257076D01*
X17997749Y24210904D01*
X18016902Y24143710D01*
X17996687Y24076829D01*
X17943522Y24031494D01*
X17925000Y24024918D01*
X17771504Y23983789D01*
X17598161Y23895466D01*
X17446968Y23773032D01*
X17356366Y23661148D01*
X17298879Y23621437D01*
X17229048Y23619109D01*
X17169044Y23654905D01*
X17163634Y23661148D01*
X17135664Y23695688D01*
X17073032Y23773032D01*
X16921840Y23895465D01*
X16915357Y23898768D01*
X16748495Y23983789D01*
X16633856Y24014506D01*
X16574196Y24050871D01*
X16543667Y24113718D01*
X16551962Y24183094D01*
X16596447Y24236972D01*
X16613542Y24246661D01*
X16697830Y24285965D01*
X16891401Y24421505D01*
X17058495Y24588599D01*
X17188730Y24774595D01*
X17243307Y24818219D01*
X17312805Y24825413D01*
X17375160Y24793890D01*
G37*
%TD.AperFunction*%
%TA.AperFunction,Conductor*%
G36*
X19914549Y24793890D02*
G01*
X19931269Y24774595D01*
X20061505Y24588599D01*
X20228599Y24421505D01*
X20305485Y24367669D01*
X20422165Y24285968D01*
X20422167Y24285967D01*
X20422170Y24285965D01*
X20484558Y24256873D01*
X20536998Y24210701D01*
X20556150Y24143508D01*
X20535934Y24076626D01*
X20482769Y24031292D01*
X20464248Y24024716D01*
X20311504Y23983789D01*
X20138161Y23895466D01*
X19986968Y23773032D01*
X19896366Y23661148D01*
X19838879Y23621437D01*
X19769048Y23619109D01*
X19709044Y23654905D01*
X19703634Y23661148D01*
X19675664Y23695688D01*
X19613032Y23773032D01*
X19461840Y23895465D01*
X19455357Y23898768D01*
X19288495Y23983789D01*
X19173104Y24014708D01*
X19113443Y24051074D01*
X19082915Y24113921D01*
X19091210Y24183296D01*
X19135696Y24237174D01*
X19152794Y24246866D01*
X19237580Y24286402D01*
X19431082Y24421895D01*
X19598105Y24588918D01*
X19728119Y24774595D01*
X19782696Y24818219D01*
X19852195Y24825412D01*
X19914549Y24793890D01*
G37*
%TD.AperFunction*%
%TA.AperFunction,Conductor*%
G36*
X22003969Y24355819D02*
G01*
X22028801Y24336608D01*
X22258874Y24106535D01*
X22477286Y23888124D01*
X22510771Y23826801D01*
X22505787Y23757110D01*
X22485972Y23722408D01*
X22436366Y23661149D01*
X22378879Y23621437D01*
X22309048Y23619109D01*
X22249044Y23654904D01*
X22243647Y23661131D01*
X22153032Y23773032D01*
X22001840Y23895465D01*
X21995357Y23898768D01*
X21828495Y23983789D01*
X21713856Y24014506D01*
X21654196Y24050871D01*
X21623667Y24113718D01*
X21631962Y24183094D01*
X21676447Y24236972D01*
X21693532Y24246657D01*
X21777830Y24285965D01*
X21869997Y24350502D01*
X21936202Y24372829D01*
X22003969Y24355819D01*
G37*
%TD.AperFunction*%
%TD*%
M02*
