%TF.GenerationSoftware,KiCad,Pcbnew,8.0.3-8.0.3-0~ubuntu22.04.1*%
%TF.CreationDate,2025-01-19T16:51:49+01:00*%
%TF.ProjectId,ADC_pHAT_AFE_ADC10080,4144435f-7048-4415-945f-4146455f4144,rev?*%
%TF.SameCoordinates,PX5cbead0PY5705d50*%
%TF.FileFunction,Copper,L2,Bot*%
%TF.FilePolarity,Positive*%
%FSLAX46Y46*%
G04 Gerber Fmt 4.6, Leading zero omitted, Abs format (unit mm)*
G04 Created by KiCad (PCBNEW 8.0.3-8.0.3-0~ubuntu22.04.1) date 2025-01-19 16:51:49*
%MOMM*%
%LPD*%
G01*
G04 APERTURE LIST*
G04 Aperture macros list*
%AMRoundRect*
0 Rectangle with rounded corners*
0 $1 Rounding radius*
0 $2 $3 $4 $5 $6 $7 $8 $9 X,Y pos of 4 corners*
0 Add a 4 corners polygon primitive as box body*
4,1,4,$2,$3,$4,$5,$6,$7,$8,$9,$2,$3,0*
0 Add four circle primitives for the rounded corners*
1,1,$1+$1,$2,$3*
1,1,$1+$1,$4,$5*
1,1,$1+$1,$6,$7*
1,1,$1+$1,$8,$9*
0 Add four rect primitives between the rounded corners*
20,1,$1+$1,$2,$3,$4,$5,0*
20,1,$1+$1,$4,$5,$6,$7,0*
20,1,$1+$1,$6,$7,$8,$9,0*
20,1,$1+$1,$8,$9,$2,$3,0*%
G04 Aperture macros list end*
%TA.AperFunction,ComponentPad*%
%ADD10C,0.600000*%
%TD*%
%TA.AperFunction,SMDPad,CuDef*%
%ADD11R,2.650000X1.000000*%
%TD*%
%TA.AperFunction,ComponentPad*%
%ADD12C,2.000000*%
%TD*%
%TA.AperFunction,SMDPad,CuDef*%
%ADD13R,4.900000X4.800000*%
%TD*%
%TA.AperFunction,ComponentPad*%
%ADD14R,1.700000X1.700000*%
%TD*%
%TA.AperFunction,ComponentPad*%
%ADD15O,1.700000X1.700000*%
%TD*%
%TA.AperFunction,SMDPad,CuDef*%
%ADD16RoundRect,0.425000X0.425000X-1.325000X0.425000X1.325000X-0.425000X1.325000X-0.425000X-1.325000X0*%
%TD*%
%TA.AperFunction,SMDPad,CuDef*%
%ADD17RoundRect,0.425000X-1.325000X-0.425000X1.325000X-0.425000X1.325000X0.425000X-1.325000X0.425000X0*%
%TD*%
%TA.AperFunction,ViaPad*%
%ADD18C,0.600000*%
%TD*%
%TA.AperFunction,Conductor*%
%ADD19C,0.250000*%
%TD*%
%TA.AperFunction,Conductor*%
%ADD20C,0.500000*%
%TD*%
%TA.AperFunction,Conductor*%
%ADD21C,0.300000*%
%TD*%
%TA.AperFunction,Conductor*%
%ADD22C,1.000000*%
%TD*%
G04 APERTURE END LIST*
D10*
%TO.P,U3,13,PAD*%
%TO.N,GNDA*%
X26500000Y8250000D03*
X27500000Y8250000D03*
D11*
X27500000Y8250000D03*
D10*
X28500000Y8250000D03*
%TD*%
D12*
%TO.P,REF\u002A\u002A,1*%
%TO.N,Net-(J1-Pin_2)*%
X3300000Y15000000D03*
%TD*%
D13*
%TO.P,J3,2,Ext*%
%TO.N,GNDA*%
X2825000Y19250000D03*
X2825000Y10750000D03*
%TD*%
D14*
%TO.P,J2,1,Pin_1*%
%TO.N,+3.3VP*%
X8400000Y25460000D03*
D15*
%TO.P,J2,2,Pin_2*%
%TO.N,+5V*%
X8400000Y28000000D03*
%TO.P,J2,3,Pin_3*%
%TO.N,SDA*%
X10940000Y25460000D03*
%TO.P,J2,4,Pin_4*%
%TO.N,+5V*%
X10940000Y28000000D03*
%TO.P,J2,5,Pin_5*%
%TO.N,SCL*%
X13480000Y25460000D03*
%TO.P,J2,6,Pin_6*%
%TO.N,GNDA*%
X13480000Y28000000D03*
%TO.P,J2,7,Pin_7*%
%TO.N,SEL0*%
X16020000Y25460000D03*
%TO.P,J2,8,Pin_8*%
%TO.N,TX*%
X16020000Y28000000D03*
%TO.P,J2,9,Pin_9*%
%TO.N,GNDA*%
X18560000Y25460000D03*
%TO.P,J2,10,Pin_10*%
%TO.N,RX*%
X18560000Y28000000D03*
%TO.P,J2,11,Pin_11*%
%TO.N,GPIO21*%
X21100000Y25460000D03*
%TO.P,J2,12,Pin_12*%
%TO.N,SEL1*%
X21100000Y28000000D03*
%TO.P,J2,13,Pin_13*%
%TO.N,A00*%
X23640000Y25460000D03*
%TO.P,J2,14,Pin_14*%
%TO.N,GNDA*%
X23640000Y28000000D03*
%TO.P,J2,15,Pin_15*%
%TO.N,GPIO22*%
X26180000Y25460000D03*
%TO.P,J2,16,Pin_16*%
%TO.N,unconnected-(J2-Pin_16-Pad16)*%
X26180000Y28000000D03*
%TO.P,J2,17,Pin_17*%
%TO.N,unconnected-(J2-Pin_17-Pad17)*%
X28720000Y25460000D03*
%TO.P,J2,18,Pin_18*%
%TO.N,unconnected-(J2-Pin_18-Pad18)*%
X28720000Y28000000D03*
%TO.P,J2,19,Pin_19*%
%TO.N,SPI_MO*%
X31260000Y25460000D03*
%TO.P,J2,20,Pin_20*%
%TO.N,GNDA*%
X31260000Y28000000D03*
%TO.P,J2,21,Pin_21*%
%TO.N,SPI_MI*%
X33800000Y25460000D03*
%TO.P,J2,22,Pin_22*%
%TO.N,unconnected-(J2-Pin_22-Pad22)*%
X33800000Y28000000D03*
%TO.P,J2,23,Pin_23*%
%TO.N,SPI_CLK*%
X36340000Y25460000D03*
%TO.P,J2,24,Pin_24*%
%TO.N,SPI_CS*%
X36340000Y28000000D03*
%TO.P,J2,25,Pin_25*%
%TO.N,GNDA*%
X38880000Y25460000D03*
%TO.P,J2,26,Pin_26*%
%TO.N,GPIO27_ADC1*%
X38880000Y28000000D03*
%TO.P,J2,27,Pin_27*%
%TO.N,unconnected-(J2-Pin_27-Pad27)*%
X41420000Y25460000D03*
%TO.P,J2,28,Pin_28*%
%TO.N,unconnected-(J2-Pin_28-Pad28)*%
X41420000Y28000000D03*
%TO.P,J2,29,Pin_29*%
%TO.N,ADC_VREF*%
X43960000Y25460000D03*
%TO.P,J2,30,Pin_30*%
%TO.N,GNDA*%
X43960000Y28000000D03*
%TO.P,J2,31,Pin_31*%
%TO.N,GPIO26_ADC0*%
X46500000Y25460000D03*
%TO.P,J2,32,Pin_32*%
%TO.N,GPIO24*%
X46500000Y28000000D03*
%TO.P,J2,33,Pin_33*%
%TO.N,GPIO28_ADC2*%
X49040000Y25460000D03*
%TO.P,J2,34,Pin_34*%
%TO.N,GNDA*%
X49040000Y28000000D03*
%TO.P,J2,35,Pin_35*%
%TO.N,unconnected-(J2-Pin_35-Pad35)*%
X51580000Y25460000D03*
%TO.P,J2,36,Pin_36*%
%TO.N,GPIO25*%
X51580000Y28000000D03*
%TO.P,J2,37,Pin_37*%
%TO.N,unconnected-(J2-Pin_37-Pad37)*%
X54120000Y25460000D03*
%TO.P,J2,38,Pin_38*%
%TO.N,GNDA*%
X54120000Y28000000D03*
%TO.P,J2,39,Pin_39*%
X56660000Y25460000D03*
%TO.P,J2,40,Pin_40*%
%TO.N,unconnected-(J2-Pin_40-Pad40)*%
X56660000Y28000000D03*
%TD*%
D16*
%TO.P,U1,1,GPIO0*%
%TO.N,GPIO0*%
X56630000Y2210000D03*
%TO.P,U1,2,GPIO1*%
%TO.N,GPIO1*%
X54090000Y2210000D03*
%TO.P,U1,3,GND*%
%TO.N,GNDA*%
X51550000Y2210000D03*
%TO.P,U1,4,GPIO2*%
%TO.N,GPIO2*%
X49010000Y2210000D03*
%TO.P,U1,5,GPIO3*%
%TO.N,GPIO3*%
X46470000Y2210000D03*
%TO.P,U1,6,GPIO4*%
%TO.N,GPIO4*%
X43930000Y2210000D03*
%TO.P,U1,7,GPIO5*%
%TO.N,GPIO5*%
X41390000Y2210000D03*
%TO.P,U1,8,GND*%
%TO.N,GNDA*%
X38850000Y2210000D03*
%TO.P,U1,9,GPIO6*%
%TO.N,GPIO6*%
X36310000Y2210000D03*
%TO.P,U1,10,GPIO7*%
%TO.N,GPIO7*%
X33770000Y2210000D03*
%TO.P,U1,11,GPIO8*%
%TO.N,GPIO8*%
X31230000Y2210000D03*
%TO.P,U1,12,GPIO9*%
%TO.N,GPIO9*%
X28690000Y2210000D03*
%TO.P,U1,13,GND*%
%TO.N,GNDA*%
X26150000Y2210000D03*
%TO.P,U1,14,GPIO10*%
%TO.N,SPI_CLK*%
X23610000Y2210000D03*
%TO.P,U1,15,GPIO11*%
%TO.N,SPI_MO*%
X21070000Y2210000D03*
%TO.P,U1,16,GPIO12*%
%TO.N,SPI_MI*%
X18530000Y2210000D03*
%TO.P,U1,17,GPIO13*%
%TO.N,SPI_CS*%
X15990000Y2210000D03*
%TO.P,U1,18,GND*%
%TO.N,GNDA*%
X13450000Y2210000D03*
%TO.P,U1,19,GPIO14*%
%TO.N,SEL1*%
X10910000Y2210000D03*
%TO.P,U1,20,GPIO15*%
%TO.N,SEL0*%
X8370000Y2210000D03*
%TO.P,U1,21,GPIO16*%
%TO.N,TX*%
X8370000Y21790000D03*
%TO.P,U1,22,GPIO17*%
%TO.N,RX*%
X10910000Y21790000D03*
%TO.P,U1,23,GND*%
%TO.N,GNDA*%
X13450000Y21790000D03*
%TO.P,U1,24,GPIO18*%
%TO.N,SDA*%
X15990000Y21790000D03*
%TO.P,U1,25,GPIO19*%
%TO.N,SCL*%
X18530000Y21790000D03*
%TO.P,U1,26,GPIO20*%
%TO.N,A00*%
X21070000Y21790000D03*
%TO.P,U1,27,GPIO21*%
%TO.N,GPIO21*%
X23610000Y21790000D03*
%TO.P,U1,28,GND*%
%TO.N,GNDA*%
X26150000Y21790000D03*
%TO.P,U1,29,GPIO22*%
%TO.N,GPIO22*%
X28690000Y21790000D03*
%TO.P,U1,30,RUN*%
%TO.N,unconnected-(U1-RUN-Pad30)*%
X31230000Y21790000D03*
%TO.P,U1,31,GPIO26_ADC0*%
%TO.N,GPIO26_ADC0*%
X33770000Y21790000D03*
%TO.P,U1,32,GPIO27_ADC1*%
%TO.N,GPIO27_ADC1*%
X36310000Y21790000D03*
%TO.P,U1,33,AGND*%
%TO.N,GNDA*%
X38850000Y21790000D03*
%TO.P,U1,34,GPIO28_ADC2*%
%TO.N,ADC_CLK*%
X41390000Y21790000D03*
%TO.P,U1,35,ADC_VREF*%
%TO.N,ADC_VREF*%
X43930000Y21790000D03*
%TO.P,U1,36,3V3*%
%TO.N,+3.3V*%
X46470000Y21790000D03*
%TO.P,U1,37,3V3_EN*%
%TO.N,unconnected-(U1-3V3_EN-Pad37)*%
X49010000Y21790000D03*
%TO.P,U1,38,GND*%
%TO.N,GNDA*%
X51550000Y21790000D03*
%TO.P,U1,39,VSYS*%
%TO.N,unconnected-(U1-VSYS-Pad39)*%
X54090000Y21790000D03*
%TO.P,U1,40,VBUS*%
%TO.N,+5V*%
X56630000Y21790000D03*
D17*
%TO.P,U1,41,SWCLK*%
%TO.N,GPIO25*%
X7700000Y9460000D03*
%TO.P,U1,42,GND*%
%TO.N,GNDA*%
X7700000Y12000000D03*
%TO.P,U1,43,SWDIO*%
%TO.N,GPIO24*%
X7700000Y14540000D03*
%TD*%
D18*
%TO.N,SDA*%
X16000000Y20900000D03*
%TO.N,+3.3V*%
X46500000Y23750000D03*
%TO.N,SCL*%
X18000000Y22250000D03*
X17200000Y19800000D03*
%TO.N,+3.3VA*%
X20750000Y11000000D03*
X11200000Y5200000D03*
X21750000Y9750000D03*
X10375000Y17375000D03*
X16250000Y9750000D03*
X21550000Y17100000D03*
%TO.N,+5V*%
X26250000Y5750000D03*
X26000000Y10000000D03*
X28750000Y10250000D03*
%TO.N,-3V3*%
X26650000Y15500000D03*
X30100000Y7200000D03*
X29500000Y15500000D03*
X17250000Y10250000D03*
X15500000Y16250000D03*
X21550000Y13400000D03*
X13700000Y10800000D03*
X32350000Y12650000D03*
%TO.N,GNDA*%
X33500000Y9750000D03*
X34550000Y14200000D03*
X33500000Y8500000D03*
X6250000Y21000000D03*
X6250000Y7250000D03*
X51100000Y22550000D03*
X4750000Y7250000D03*
X4750000Y22500000D03*
X37250000Y11500000D03*
X38750000Y10250000D03*
X13250000Y5750000D03*
X45650000Y13900000D03*
X46600000Y11050000D03*
X33500000Y12250000D03*
X34750000Y8500000D03*
X51100000Y17500000D03*
X38750000Y11750000D03*
X52050000Y22550000D03*
X35500000Y10250000D03*
X58350000Y600000D03*
X6250000Y18500000D03*
X12650000Y4900000D03*
X59050000Y5400000D03*
X33750000Y18500000D03*
X7550000Y7750000D03*
X38750000Y1000000D03*
X58400000Y16450000D03*
X3250000Y22500000D03*
X7250000Y4750000D03*
X44950000Y12850000D03*
X6250000Y17250000D03*
X44900000Y11050000D03*
X13450000Y4650000D03*
X2000000Y22500000D03*
X34500000Y11250000D03*
X31000000Y11150000D03*
X26250000Y4650000D03*
X29800000Y11150000D03*
X15800000Y4800000D03*
X39000000Y7675000D03*
X49750000Y17500000D03*
X14500000Y9100000D03*
X45550000Y17950000D03*
X3250000Y7250000D03*
X40000000Y15500000D03*
X25000000Y24250000D03*
X32750000Y17000000D03*
X59250000Y22750000D03*
X29800000Y12450000D03*
X46000000Y7500000D03*
X21900000Y6100000D03*
X47750000Y7500000D03*
X32750000Y15250000D03*
X6250000Y22500000D03*
X38000000Y8250000D03*
X750000Y7250000D03*
X36750000Y9000000D03*
X59550000Y29450000D03*
X36000000Y12750000D03*
X2000000Y7250000D03*
X6250000Y19750000D03*
X55050000Y16100000D03*
X750000Y22500000D03*
%TO.N,GPIO26_ADC0*%
X33770000Y20890000D03*
%TO.N,ADC_CLK*%
X40695000Y17840000D03*
%TO.N,GPIO2*%
X51020000Y5015000D03*
%TO.N,GPIO7*%
X34995000Y4490000D03*
%TO.N,GPIO5*%
X42745000Y4490000D03*
%TO.N,GPIO3*%
X47620000Y4240000D03*
%TO.N,GPIO1*%
X54745000Y4990000D03*
%TO.N,GPIO6*%
X37495000Y4490000D03*
%TO.N,GPIO0*%
X57745000Y4990000D03*
%TO.N,GPIO4*%
X45245000Y4490000D03*
%TO.N,GPIO25*%
X26500000Y18500000D03*
%TO.N,SPI_MI*%
X31000000Y19450000D03*
%TO.N,GPIO24*%
X28250000Y19200000D03*
%TO.N,SEL1*%
X12650000Y9000000D03*
X19200000Y17650000D03*
%TO.N,SEL0*%
X18550000Y18250000D03*
X8500000Y4750000D03*
%TO.N,Net-(U4-S1)*%
X17800000Y5850000D03*
X17650000Y7850000D03*
X17250000Y14000000D03*
%TO.N,A00*%
X21070000Y23250000D03*
X21625000Y19475000D03*
%TO.N,Net-(IC1-IRS)*%
X43750000Y11750000D03*
X44000000Y15700000D03*
%TO.N,Net-(IC1-VCOM)*%
X40250000Y11750000D03*
X40250000Y14000000D03*
%TO.N,GPIO9*%
X28995000Y4490000D03*
%TO.N,GPIO8*%
X32195000Y4140000D03*
%TD*%
D19*
%TO.N,SDA*%
X16000000Y20900000D02*
X15990000Y20890000D01*
D20*
%TO.N,+3.3V*%
X46500000Y23750000D02*
X46500000Y20920000D01*
X46500000Y20750000D02*
X46500000Y20860000D01*
X46500000Y20920000D02*
X46470000Y20890000D01*
X46500000Y20860000D02*
X46470000Y20890000D01*
X46500000Y20325000D02*
X46500000Y20750000D01*
D19*
%TO.N,SCL*%
X18530000Y20780000D02*
X18530000Y20890000D01*
X17200000Y19800000D02*
X17550000Y19800000D01*
X17550000Y19800000D02*
X18530000Y20780000D01*
D21*
%TO.N,+3.3VA*%
X18600000Y7850000D02*
X18600000Y5600000D01*
X13500000Y10100000D02*
X13500000Y9750000D01*
X12750000Y15000000D02*
X10375000Y17375000D01*
X12900000Y7900000D02*
X13500000Y8500000D01*
X22400000Y11400000D02*
X22400000Y11050000D01*
X13500000Y8500000D02*
X13500000Y9750000D01*
X15900000Y10100000D02*
X13750000Y10100000D01*
X22400000Y10400000D02*
X22400000Y10600000D01*
X17300000Y5000000D02*
X16750000Y5550000D01*
X11650000Y7900000D02*
X12900000Y7900000D01*
X22400000Y16250000D02*
X22400000Y11400000D01*
X22000000Y11000000D02*
X22350000Y11000000D01*
X20500000Y9750000D02*
X18600000Y7850000D01*
X16750000Y5550000D02*
X16750000Y9250000D01*
X13000000Y10100000D02*
X12750000Y10350000D01*
X13500000Y9850000D02*
X13250000Y10100000D01*
X18600000Y5600000D02*
X18000000Y5000000D01*
X22400000Y11050000D02*
X22400000Y10600000D01*
X21750000Y9750000D02*
X20500000Y9750000D01*
X22000000Y11000000D02*
X22400000Y11400000D01*
X13250000Y10100000D02*
X13000000Y10100000D01*
X13500000Y9750000D02*
X13500000Y9850000D01*
X13500000Y9850000D02*
X13750000Y10100000D01*
X11200000Y7450000D02*
X11650000Y7900000D01*
X11200000Y5200000D02*
X11200000Y7450000D01*
X13750000Y10100000D02*
X13250000Y10100000D01*
X22350000Y11000000D02*
X22400000Y11050000D01*
X16250000Y9750000D02*
X15900000Y10100000D01*
X22000000Y11000000D02*
X22400000Y10600000D01*
X12750000Y10350000D02*
X12750000Y15000000D01*
X16750000Y9250000D02*
X16250000Y9750000D01*
X20750000Y11000000D02*
X22000000Y11000000D01*
X21550000Y17100000D02*
X22400000Y16250000D01*
X18000000Y5000000D02*
X17300000Y5000000D01*
X21750000Y9750000D02*
X22400000Y10400000D01*
D20*
%TO.N,+5V*%
X56630000Y20890000D02*
X56630000Y22630000D01*
X26250000Y5750000D02*
X26400000Y5600000D01*
X57350000Y29600000D02*
X12540000Y29600000D01*
X58500000Y28450000D02*
X57350000Y29600000D01*
X26400000Y5600000D02*
X48850000Y5600000D01*
D22*
X8400000Y28000000D02*
X10940000Y28000000D01*
D20*
X52400000Y17150000D02*
X55650000Y17150000D01*
X48850000Y5600000D02*
X51750000Y8500000D01*
X51750000Y8500000D02*
X51750000Y16500000D01*
X26000000Y10000000D02*
X26250000Y10250000D01*
X56630000Y22630000D02*
X58500000Y24500000D01*
X58500000Y24500000D02*
X58500000Y28450000D01*
X12540000Y29600000D02*
X10940000Y28000000D01*
X25400000Y6600000D02*
X26250000Y5750000D01*
X25400000Y9400000D02*
X25400000Y6600000D01*
X56630000Y18130000D02*
X56630000Y20890000D01*
X55650000Y17150000D02*
X56630000Y18130000D01*
X26000000Y10000000D02*
X25400000Y9400000D01*
X26250000Y10250000D02*
X28750000Y10250000D01*
X51750000Y16500000D02*
X52400000Y17150000D01*
%TO.N,ADC_VREF*%
X43930000Y20890000D02*
X43930000Y25430000D01*
D19*
X43930000Y25430000D02*
X43960000Y25460000D01*
D21*
%TO.N,-3V3*%
X16500000Y15900000D02*
X16850000Y16250000D01*
D20*
X26650000Y15500000D02*
X29500000Y15500000D01*
X32350000Y8050000D02*
X31500000Y7200000D01*
D21*
X16150000Y16250000D02*
X16000000Y16250000D01*
X13700000Y10800000D02*
X13700000Y15800000D01*
X16850000Y16250000D02*
X17000000Y16250000D01*
X16500000Y15800000D02*
X16500000Y13000000D01*
X16500000Y13000000D02*
X17250000Y12250000D01*
D20*
X32350000Y13400000D02*
X30250000Y15500000D01*
D21*
X21550000Y15150000D02*
X21550000Y13400000D01*
X16500000Y15800000D02*
X16500000Y15900000D01*
X16500000Y15900000D02*
X16150000Y16250000D01*
X16500000Y16250000D02*
X16500000Y15800000D01*
D20*
X30250000Y15500000D02*
X29500000Y15500000D01*
D21*
X15500000Y16250000D02*
X16000000Y16250000D01*
X14150000Y16250000D02*
X15500000Y16250000D01*
X20450000Y16250000D02*
X21550000Y15150000D01*
D20*
X32350000Y12650000D02*
X32350000Y8050000D01*
D21*
X17000000Y16250000D02*
X20450000Y16250000D01*
X17250000Y12250000D02*
X17250000Y10250000D01*
X13700000Y15800000D02*
X14150000Y16250000D01*
D20*
X32350000Y12650000D02*
X32350000Y13400000D01*
D21*
X16750000Y16250000D02*
X17000000Y16250000D01*
D20*
X31500000Y7200000D02*
X30100000Y7200000D01*
D21*
X16000000Y16250000D02*
X16750000Y16250000D01*
D20*
%TO.N,GNDA*%
X13450000Y22600000D02*
X14900000Y24050000D01*
X28550000Y7650000D02*
X28550000Y9250000D01*
X38880000Y20920000D02*
X38850000Y20890000D01*
X38850000Y20890000D02*
X38850000Y20300000D01*
D22*
X5000000Y12925000D02*
X2825000Y10750000D01*
D20*
X51550000Y3550000D02*
X53500000Y5500000D01*
X28550000Y6700000D02*
X28550000Y8300000D01*
D22*
X51550000Y20890000D02*
X51550000Y19150000D01*
D20*
X38880000Y25460000D02*
X38880000Y20920000D01*
D19*
X24900000Y24350000D02*
X24900000Y26740000D01*
D20*
X27500000Y9250000D02*
X29500000Y9250000D01*
X26150000Y3110000D02*
X26150000Y3650000D01*
X26650000Y6800000D02*
X26650000Y8400000D01*
X14900000Y24050000D02*
X17150000Y24050000D01*
X26150000Y23100000D02*
X25000000Y24250000D01*
D19*
X25000000Y24250000D02*
X24900000Y24350000D01*
D20*
X17150000Y24050000D02*
X18560000Y25460000D01*
D22*
X8600000Y12000000D02*
X4075000Y12000000D01*
D20*
X13450000Y3110000D02*
X13450000Y4650000D01*
X13450000Y20890000D02*
X13450000Y22600000D01*
D22*
X5000000Y13762500D02*
X5000000Y12925000D01*
D20*
X26150000Y20890000D02*
X26150000Y23100000D01*
X4075000Y12000000D02*
X2825000Y10750000D01*
D22*
X37100000Y18550000D02*
X37050000Y18550000D01*
D19*
X24900000Y26740000D02*
X23640000Y28000000D01*
D22*
X38850000Y20300000D02*
X37100000Y18550000D01*
D20*
X51550000Y3110000D02*
X51550000Y3550000D01*
X29500000Y9250000D02*
X29700000Y9450000D01*
D19*
%TO.N,SPI_CLK*%
X22950000Y7550000D02*
X24450000Y9050000D01*
X23390000Y3110000D02*
X20750000Y5750000D01*
X35000000Y24120000D02*
X36340000Y25460000D01*
X24450000Y14700000D02*
X26000000Y16250000D01*
X33100000Y19600000D02*
X34600000Y19600000D01*
X20750000Y7000000D02*
X21300000Y7550000D01*
X29750000Y16250000D02*
X33100000Y19600000D01*
X21300000Y7550000D02*
X22950000Y7550000D01*
X26000000Y16250000D02*
X29750000Y16250000D01*
X34600000Y19600000D02*
X35000000Y20000000D01*
X20750000Y5750000D02*
X20750000Y7000000D01*
X23610000Y3110000D02*
X23390000Y3110000D01*
X24450000Y9050000D02*
X24450000Y14700000D01*
X35000000Y20000000D02*
X35000000Y24120000D01*
%TO.N,TX*%
X12250000Y26000000D02*
X12750000Y26500000D01*
X12250000Y25000000D02*
X12250000Y26000000D01*
X8370000Y20890000D02*
X8370000Y22620000D01*
X8370000Y22620000D02*
X9750000Y24000000D01*
X14520000Y26500000D02*
X16020000Y28000000D01*
X12750000Y26500000D02*
X14520000Y26500000D01*
X9750000Y24000000D02*
X11250000Y24000000D01*
X11250000Y24000000D02*
X12250000Y25000000D01*
%TO.N,GPIO27_ADC1*%
X37500000Y26620000D02*
X38880000Y28000000D01*
X36310000Y20890000D02*
X36310000Y23060000D01*
X36310000Y23060000D02*
X37500000Y24250000D01*
X37500000Y24250000D02*
X37500000Y26620000D01*
%TO.N,ADC_CLK*%
X37417683Y15888194D02*
X37200146Y16105731D01*
X40170000Y19075588D02*
X40387488Y18858100D01*
X36569178Y15039640D02*
X36351617Y15257201D01*
X39538982Y17670133D02*
X39454130Y17585280D01*
X37624411Y16869410D02*
X37624410Y16869410D01*
X37841947Y15973048D02*
X37757095Y15888195D01*
X40170000Y19075588D02*
X40387488Y18858100D01*
X38266200Y16736737D02*
X38048676Y16954261D01*
X36860736Y16105732D02*
X36775881Y16020880D01*
X38472940Y17378528D02*
X38690465Y17161003D01*
X39963223Y18433834D02*
X39745736Y18651321D01*
X41385000Y20630000D02*
X40170000Y19415000D01*
X39114718Y17585279D02*
X38897206Y17802791D01*
X36775880Y15681468D02*
X36993442Y15463906D01*
X35645000Y14215000D02*
X36045000Y13815000D01*
X40387487Y18518688D02*
X40302635Y18433835D01*
X36670000Y13815000D02*
X40695000Y17840000D01*
X41500000Y21000000D02*
X41500000Y22750000D01*
X38690464Y16821591D02*
X38605612Y16736738D01*
X39114718Y17585279D02*
X38897206Y17802791D01*
X35927351Y15172350D02*
X35832500Y15077500D01*
X36993442Y15124494D02*
X36908588Y15039639D01*
X39321471Y18566470D02*
X39321470Y18566470D01*
X37624410Y16529998D02*
X37841948Y16312460D01*
X37709266Y16954262D02*
X37624411Y16869410D01*
X41420000Y20920000D02*
X41390000Y20890000D01*
X39406326Y18651322D02*
X39321471Y18566470D01*
X36012205Y15257201D02*
X35927351Y15172350D01*
X38472941Y17717940D02*
X38472940Y17717940D01*
X36045000Y13815000D02*
X36670000Y13815000D01*
X36775881Y16020880D02*
X36775880Y16020880D01*
X36775881Y16020880D02*
X36775880Y16020880D01*
X35832500Y15077500D02*
X35645000Y14890000D01*
X39321471Y18566470D02*
X39321470Y18566470D01*
X41385000Y20880000D02*
X41385000Y20630000D01*
X35645000Y14890000D02*
X35645000Y14215000D01*
X39321470Y18227058D02*
X39538983Y18009545D01*
X38557796Y17802792D02*
X38472941Y17717940D01*
X39321470Y18566470D02*
G75*
G03*
X39321506Y18227094I169730J-169670D01*
G01*
X38897206Y17802791D02*
G75*
G03*
X38557795Y17802793I-169706J-169691D01*
G01*
X39745736Y18651321D02*
G75*
G03*
X39406296Y18651353I-169736J-169721D01*
G01*
X38605612Y16736738D02*
G75*
G02*
X38266194Y16736731I-169712J169662D01*
G01*
X36993442Y15463906D02*
G75*
G02*
X36993442Y15124494I-169742J-169706D01*
G01*
X39538983Y18009545D02*
G75*
G02*
X39539022Y17670093I-169683J-169745D01*
G01*
X36775880Y16020880D02*
G75*
G03*
X36775906Y15681494I169720J-169680D01*
G01*
X37624410Y16869410D02*
G75*
G03*
X37624406Y16529994I169690J-169710D01*
G01*
X38690465Y17161003D02*
G75*
G02*
X38690461Y16821594I-169665J-169703D01*
G01*
X36908588Y15039639D02*
G75*
G02*
X36569195Y15039656I-169688J169661D01*
G01*
X38048676Y16954261D02*
G75*
G03*
X37709296Y16954233I-169676J-169661D01*
G01*
X37757095Y15888195D02*
G75*
G02*
X37417695Y15888205I-169695J169705D01*
G01*
X40170000Y19415000D02*
G75*
G03*
X40170006Y19075594I169700J-169700D01*
G01*
X37841948Y16312460D02*
G75*
G02*
X37841902Y15973093I-169748J-169660D01*
G01*
X40387488Y18858100D02*
G75*
G02*
X40387482Y18518694I-169688J-169700D01*
G01*
X36351617Y15257201D02*
G75*
G03*
X36012205Y15257201I-169706J-169708D01*
G01*
X39454130Y17585280D02*
G75*
G02*
X39114695Y17585255I-169730J169720D01*
G01*
X40302635Y18433835D02*
G75*
G02*
X39963194Y18433805I-169735J169665D01*
G01*
X37200146Y16105731D02*
G75*
G03*
X36860696Y16105773I-169746J-169731D01*
G01*
X38472940Y17717940D02*
G75*
G03*
X38472906Y17378494I169660J-169740D01*
G01*
%TO.N,GPIO2*%
X51020000Y5015000D02*
X50920000Y5015000D01*
X50920000Y5015000D02*
X49005000Y3100000D01*
%TO.N,GPIO7*%
X34995000Y4490000D02*
X33765000Y3260000D01*
X33765000Y3260000D02*
X33765000Y3100000D01*
%TO.N,GPIO5*%
X42745000Y4490000D02*
X42745000Y4460000D01*
X42745000Y4460000D02*
X41385000Y3100000D01*
%TO.N,GPIO3*%
X47620000Y4240000D02*
X47605000Y4240000D01*
X47605000Y4240000D02*
X46465000Y3100000D01*
%TO.N,GPIO1*%
X54745000Y3760000D02*
X54085000Y3100000D01*
X54745000Y4990000D02*
X54745000Y3760000D01*
%TO.N,GPIO6*%
X36305000Y3300000D02*
X36305000Y3100000D01*
X37495000Y4490000D02*
X36305000Y3300000D01*
%TO.N,GPIO0*%
X57745000Y4990000D02*
X56625000Y3870000D01*
X56625000Y3870000D02*
X56625000Y3100000D01*
%TO.N,GPIO4*%
X43925000Y3170000D02*
X43925000Y3100000D01*
X45245000Y4490000D02*
X43925000Y3170000D01*
%TO.N,GPIO25*%
X19850000Y18900000D02*
X20850000Y17900000D01*
X23600000Y17900000D02*
X24200000Y18500000D01*
X20850000Y17900000D02*
X23600000Y17900000D01*
X11907106Y18500000D02*
X17750000Y18500000D01*
X9500000Y19150000D02*
X11257106Y19150000D01*
X8700000Y16450000D02*
X8700000Y18350000D01*
X8600000Y9460000D02*
X10500000Y11360000D01*
X11257106Y19150000D02*
X11907106Y18500000D01*
X24200000Y18500000D02*
X26500000Y18500000D01*
X8700000Y18350000D02*
X9500000Y19150000D01*
X17750000Y18500000D02*
X18150000Y18900000D01*
X10500000Y11360000D02*
X10500000Y14650000D01*
X10500000Y14650000D02*
X8700000Y16450000D01*
X18150000Y18900000D02*
X19850000Y18900000D01*
%TO.N,RX*%
X10910000Y20890000D02*
X10910000Y22660000D01*
X14750000Y24950000D02*
X14750000Y26000000D01*
X12500000Y24250000D02*
X14050000Y24250000D01*
X14750000Y26000000D02*
X15500000Y26750000D01*
X14050000Y24250000D02*
X14750000Y24950000D01*
X10910000Y22660000D02*
X12500000Y24250000D01*
X17310000Y26750000D02*
X18560000Y28000000D01*
X15500000Y26750000D02*
X17310000Y26750000D01*
%TO.N,SPI_CS*%
X36340000Y28000000D02*
X36340000Y27890000D01*
X36340000Y27890000D02*
X35150000Y26700000D01*
X22250000Y9050000D02*
X22950000Y9750000D01*
X29950000Y26250000D02*
X29950000Y23700000D01*
X15990000Y3110000D02*
X16010000Y3110000D01*
X24800000Y17800000D02*
X28550000Y17800000D01*
X22950000Y9750000D02*
X22950000Y15950000D01*
X19250000Y5000000D02*
X19250000Y7750000D01*
X16010000Y3110000D02*
X17300000Y4400000D01*
X35150000Y26700000D02*
X30400000Y26700000D01*
X20550000Y9050000D02*
X22250000Y9050000D01*
X17300000Y4400000D02*
X18650000Y4400000D01*
X30400000Y26700000D02*
X29950000Y26250000D01*
X18650000Y4400000D02*
X19250000Y5000000D01*
X28550000Y17800000D02*
X29950000Y19200000D01*
X22950000Y15950000D02*
X24800000Y17800000D01*
X29950000Y19200000D02*
X29950000Y23700000D01*
X19250000Y7750000D02*
X20550000Y9050000D01*
%TO.N,GPIO21*%
X22500000Y24050000D02*
X23610000Y22940000D01*
X23610000Y22940000D02*
X23610000Y20890000D01*
X21100000Y25460000D02*
X22500000Y24060000D01*
X22500000Y24060000D02*
X22500000Y24050000D01*
%TO.N,SPI_MO*%
X21070000Y3110000D02*
X21070000Y4430000D01*
X23950000Y15200000D02*
X25500000Y16750000D01*
X20250000Y5250000D02*
X20250000Y7250000D01*
X20250000Y7250000D02*
X21050000Y8050000D01*
X25500000Y16750000D02*
X29500000Y16750000D01*
X23950000Y9300000D02*
X23950000Y15200000D01*
X22700000Y8050000D02*
X23950000Y9300000D01*
X21070000Y4430000D02*
X20250000Y5250000D01*
X32500000Y19750000D02*
X32500000Y24220000D01*
X21050000Y8050000D02*
X22700000Y8050000D01*
X29500000Y16750000D02*
X32500000Y19750000D01*
X32500000Y24220000D02*
X31260000Y25460000D01*
%TO.N,SPI_MI*%
X20800000Y8550000D02*
X19750000Y7500000D01*
X31000000Y19450000D02*
X31000000Y19050000D01*
X22457107Y8550000D02*
X20800000Y8550000D01*
X31000000Y19050000D02*
X29250000Y17300000D01*
X29250000Y17300000D02*
X25300000Y17300000D01*
X23450000Y15450000D02*
X23450000Y9542893D01*
X19750000Y7500000D02*
X19750000Y4330000D01*
X23450000Y9542893D02*
X22457107Y8550000D01*
X19750000Y4330000D02*
X18530000Y3110000D01*
X25300000Y17300000D02*
X23450000Y15450000D01*
%TO.N,GPIO22*%
X26180000Y25460000D02*
X28690000Y22950000D01*
X28690000Y22950000D02*
X28690000Y20890000D01*
%TO.N,GPIO24*%
X11464212Y19650000D02*
X12114212Y19000000D01*
X8200000Y16050000D02*
X8200000Y18600000D01*
X24100000Y19200000D02*
X28250000Y19200000D01*
X8200000Y18600000D02*
X9250000Y19650000D01*
X18000000Y19500000D02*
X20250000Y19500000D01*
X23350000Y18450000D02*
X24100000Y19200000D01*
X9250000Y19650000D02*
X11464212Y19650000D01*
X21300000Y18450000D02*
X23350000Y18450000D01*
X8600000Y15650000D02*
X8200000Y16050000D01*
X12114212Y19000000D02*
X17500000Y19000000D01*
X20250000Y19500000D02*
X21300000Y18450000D01*
X17500000Y19000000D02*
X18000000Y19500000D01*
X8600000Y14540000D02*
X8600000Y15650000D01*
%TO.N,SEL1*%
X12050000Y9600000D02*
X12050000Y14550000D01*
X9700000Y17850000D02*
X10000000Y18150000D01*
X11600000Y17250000D02*
X18800000Y17250000D01*
X10910000Y3110000D02*
X10910000Y3490000D01*
X10000000Y18150000D02*
X10700000Y18150000D01*
X10700000Y18150000D02*
X11600000Y17250000D01*
X12050000Y14550000D02*
X9700000Y16900000D01*
X12650000Y9000000D02*
X12050000Y9600000D01*
X9700000Y16900000D02*
X9700000Y17850000D01*
X18800000Y17250000D02*
X19200000Y17650000D01*
X9550000Y4850000D02*
X9550000Y6600000D01*
X11950000Y9000000D02*
X12650000Y9000000D01*
X10910000Y3490000D02*
X9550000Y4850000D01*
X9550000Y6600000D02*
X11950000Y9000000D01*
%TO.N,SEL0*%
X11250000Y9450000D02*
X11250000Y14625000D01*
X9200000Y18100000D02*
X9750000Y18650000D01*
X18300000Y18000000D02*
X18550000Y18250000D01*
X8370000Y4620000D02*
X8370000Y3110000D01*
X11700000Y18000000D02*
X18300000Y18000000D01*
X11050000Y18650000D02*
X11700000Y18000000D01*
X11250000Y14625000D02*
X9200000Y16675000D01*
X8500000Y4750000D02*
X8500000Y6700000D01*
X9750000Y18650000D02*
X11050000Y18650000D01*
X8500000Y6700000D02*
X11250000Y9450000D01*
X9200000Y16675000D02*
X9200000Y18100000D01*
X8500000Y4750000D02*
X8370000Y4620000D01*
%TO.N,Net-(U4-S1)*%
X18250000Y13000000D02*
X17250000Y14000000D01*
X17700000Y7800000D02*
X17650000Y7850000D01*
X17650000Y9450000D02*
X18250000Y10050000D01*
X18250000Y10050000D02*
X18250000Y13000000D01*
X17800000Y5850000D02*
X17700000Y5950000D01*
X17700000Y5950000D02*
X17700000Y7800000D01*
X17650000Y7850000D02*
X17650000Y9450000D01*
%TO.N,A00*%
X21625000Y20335000D02*
X21070000Y20890000D01*
X21625000Y19475000D02*
X21625000Y20335000D01*
%TO.N,Net-(IC1-IRS)*%
X44000000Y12000000D02*
X43750000Y11750000D01*
X44000000Y15700000D02*
X44000000Y12000000D01*
%TO.N,Net-(IC1-VCOM)*%
X40250000Y14000000D02*
X40250000Y11750000D01*
%TO.N,GPIO9*%
X28685000Y4180000D02*
X28995000Y4490000D01*
X28685000Y3100000D02*
X28685000Y4180000D01*
%TO.N,GPIO8*%
X32195000Y4140000D02*
X31225000Y3170000D01*
X31225000Y3170000D02*
X31225000Y3100000D01*
%TD*%
%TA.AperFunction,Conductor*%
%TO.N,GNDA*%
G36*
X3045109Y10867596D02*
G01*
X3089456Y10839095D01*
X5746139Y8182412D01*
X5753957Y8184113D01*
X5781510Y8220919D01*
X5846974Y8245337D01*
X5912116Y8232139D01*
X6041504Y8166212D01*
X6229422Y8115859D01*
X6310222Y8109500D01*
X8176000Y8109500D01*
X8243039Y8089815D01*
X8288794Y8037011D01*
X8300000Y7985500D01*
X8300000Y7435953D01*
X8280315Y7368914D01*
X8263681Y7348272D01*
X8014144Y7098736D01*
X8014138Y7098728D01*
X7945690Y6996292D01*
X7945688Y6996287D01*
X7915954Y6924501D01*
X7915954Y6924500D01*
X7898538Y6882455D01*
X7898535Y6882446D01*
X7893693Y6858104D01*
X7893694Y6858103D01*
X7877175Y6775049D01*
X7875009Y6764161D01*
X7875005Y6764145D01*
X7874500Y6761612D01*
X7874500Y5294855D01*
X7855494Y5228883D01*
X7774211Y5099524D01*
X7714631Y4929255D01*
X7714630Y4929250D01*
X7694435Y4750004D01*
X7694435Y4749997D01*
X7714630Y4570754D01*
X7714633Y4570741D01*
X7715068Y4569498D01*
X7715111Y4568647D01*
X7716181Y4563961D01*
X7715359Y4563774D01*
X7718626Y4499719D01*
X7683893Y4439094D01*
X7630120Y4408777D01*
X7611506Y4403790D01*
X7438161Y4315466D01*
X7286968Y4193032D01*
X7164534Y4041839D01*
X7076212Y3868496D01*
X7025858Y3680575D01*
X7019500Y3599784D01*
X7019500Y820217D01*
X7025858Y739426D01*
X7025859Y739424D01*
X7025859Y739422D01*
X7076212Y551504D01*
X7100000Y504818D01*
X7137716Y430795D01*
X7150612Y362125D01*
X7124335Y297385D01*
X7067229Y257128D01*
X7027231Y250500D01*
X3554173Y250500D01*
X3554161Y250501D01*
X3544171Y250501D01*
X3503247Y250501D01*
X3496757Y250671D01*
X3166822Y267963D01*
X3153914Y269320D01*
X2830816Y320493D01*
X2818120Y323191D01*
X2502125Y407862D01*
X2489782Y411873D01*
X2184378Y529106D01*
X2172520Y534385D01*
X1978973Y633002D01*
X1881030Y682907D01*
X1869803Y689389D01*
X1595439Y867563D01*
X1584951Y875183D01*
X1330706Y1081066D01*
X1321062Y1089750D01*
X1089750Y1321062D01*
X1081065Y1330707D01*
X875187Y1584945D01*
X867565Y1595435D01*
X689379Y1869817D01*
X682909Y1881023D01*
X534379Y2172530D01*
X529105Y2184378D01*
X511713Y2229685D01*
X411872Y2489783D01*
X407861Y2502125D01*
X360254Y2679795D01*
X323188Y2818126D01*
X320492Y2830816D01*
X308917Y2903896D01*
X269319Y3153915D01*
X267962Y3166822D01*
X250671Y3496757D01*
X250501Y3503247D01*
X250501Y3554159D01*
X250500Y3554173D01*
X250500Y3621289D01*
X1649500Y3621289D01*
X1649500Y3378712D01*
X1681161Y3138215D01*
X1743947Y2903896D01*
X1779477Y2818120D01*
X1836776Y2679788D01*
X1958064Y2469711D01*
X1958066Y2469708D01*
X1958067Y2469707D01*
X2105733Y2277264D01*
X2105739Y2277257D01*
X2277256Y2105740D01*
X2277262Y2105735D01*
X2469711Y1958064D01*
X2679788Y1836776D01*
X2903900Y1743946D01*
X3138211Y1681162D01*
X3318586Y1657416D01*
X3378711Y1649500D01*
X3378712Y1649500D01*
X3621289Y1649500D01*
X3669388Y1655833D01*
X3861789Y1681162D01*
X4096100Y1743946D01*
X4320212Y1836776D01*
X4530289Y1958064D01*
X4722738Y2105735D01*
X4894265Y2277262D01*
X5041936Y2469711D01*
X5163224Y2679788D01*
X5256054Y2903900D01*
X5318838Y3138211D01*
X5350500Y3378712D01*
X5350500Y3621288D01*
X5318838Y3861789D01*
X5256054Y4096100D01*
X5163224Y4320212D01*
X5041936Y4530289D01*
X4946086Y4655203D01*
X4894266Y4722737D01*
X4894260Y4722744D01*
X4722743Y4894261D01*
X4722736Y4894267D01*
X4530293Y5041933D01*
X4530292Y5041934D01*
X4530289Y5041936D01*
X4349664Y5146220D01*
X4320214Y5163223D01*
X4320205Y5163227D01*
X4096104Y5256053D01*
X3861785Y5318839D01*
X3621289Y5350500D01*
X3621288Y5350500D01*
X3378712Y5350500D01*
X3378711Y5350500D01*
X3138214Y5318839D01*
X2903895Y5256053D01*
X2679794Y5163227D01*
X2679785Y5163223D01*
X2469706Y5041933D01*
X2277263Y4894267D01*
X2277256Y4894261D01*
X2105739Y4722744D01*
X2105733Y4722737D01*
X1958067Y4530294D01*
X1836777Y4320215D01*
X1836773Y4320206D01*
X1743947Y4096105D01*
X1681161Y3861786D01*
X1649500Y3621289D01*
X250500Y3621289D01*
X250500Y7726000D01*
X270185Y7793039D01*
X322989Y7838794D01*
X374500Y7850000D01*
X5322819Y7850000D01*
X5322819Y7850001D01*
X5366728Y7854721D01*
X2735905Y10485544D01*
X2702420Y10546867D01*
X2707404Y10616559D01*
X2735905Y10660906D01*
X2914094Y10839095D01*
X2975417Y10872580D01*
X3045109Y10867596D01*
G37*
%TD.AperFunction*%
%TA.AperFunction,Conductor*%
G36*
X61445839Y29749499D02*
G01*
X61455829Y29749499D01*
X61496753Y29749499D01*
X61503242Y29749330D01*
X61833177Y29732038D01*
X61846085Y29730681D01*
X62169190Y29679507D01*
X62181873Y29676812D01*
X62497880Y29592138D01*
X62510218Y29588128D01*
X62815626Y29470893D01*
X62827469Y29465621D01*
X63118976Y29317091D01*
X63130190Y29310616D01*
X63404564Y29132435D01*
X63415045Y29124820D01*
X63644482Y28939027D01*
X63669292Y28918936D01*
X63678937Y28910251D01*
X63910249Y28678939D01*
X63918934Y28669294D01*
X64124812Y28415056D01*
X64132437Y28404562D01*
X64310616Y28130190D01*
X64317093Y28118971D01*
X64377712Y28000001D01*
X64465615Y27827481D01*
X64470894Y27815623D01*
X64588127Y27510219D01*
X64592138Y27497876D01*
X64676809Y27181881D01*
X64679507Y27169185D01*
X64730680Y26846087D01*
X64732037Y26833179D01*
X64749329Y26503244D01*
X64749499Y26496754D01*
X64749499Y26441397D01*
X64749500Y26441388D01*
X64749500Y19006093D01*
X64748903Y18993939D01*
X64736296Y18865936D01*
X64731554Y18842094D01*
X64695993Y18724866D01*
X64686690Y18702408D01*
X64628942Y18594370D01*
X64615438Y18574160D01*
X64537725Y18479465D01*
X64520535Y18462275D01*
X64425840Y18384562D01*
X64405630Y18371058D01*
X64297592Y18313310D01*
X64275134Y18304007D01*
X64157906Y18268446D01*
X64134064Y18263704D01*
X64006062Y18251097D01*
X63993908Y18250500D01*
X59901578Y18250500D01*
X59707173Y18219710D01*
X59519970Y18158883D01*
X59344594Y18069524D01*
X59275406Y18019255D01*
X59185354Y17953828D01*
X59185352Y17953826D01*
X59185351Y17953826D01*
X59046174Y17814649D01*
X59046174Y17814648D01*
X59046172Y17814646D01*
X59005913Y17759235D01*
X58930476Y17655406D01*
X58841117Y17480030D01*
X58780290Y17292827D01*
X58749500Y17098423D01*
X58749500Y6901578D01*
X58780290Y6707174D01*
X58841117Y6519971D01*
X58924366Y6356587D01*
X58930476Y6344595D01*
X59046172Y6185354D01*
X59185354Y6046172D01*
X59344595Y5930476D01*
X59427455Y5888257D01*
X59519970Y5841118D01*
X59519972Y5841118D01*
X59519975Y5841116D01*
X59601441Y5814646D01*
X59707173Y5780291D01*
X59901578Y5749500D01*
X59901583Y5749500D01*
X59950172Y5749500D01*
X63955830Y5749500D01*
X63993908Y5749500D01*
X64006061Y5748903D01*
X64016635Y5747862D01*
X64134069Y5736296D01*
X64157897Y5731557D01*
X64275140Y5695992D01*
X64297589Y5686692D01*
X64386633Y5639097D01*
X64405630Y5628943D01*
X64425840Y5615439D01*
X64520535Y5537726D01*
X64537724Y5520537D01*
X64566124Y5485931D01*
X64615438Y5425841D01*
X64628942Y5405631D01*
X64686690Y5297593D01*
X64695992Y5275136D01*
X64728111Y5169255D01*
X64731554Y5157907D01*
X64736296Y5134065D01*
X64744735Y5048379D01*
X64747115Y5024211D01*
X64748903Y5006062D01*
X64749500Y4993908D01*
X64749500Y3554174D01*
X64749499Y3554166D01*
X64749499Y3503248D01*
X64749329Y3496758D01*
X64732037Y3166823D01*
X64730680Y3153915D01*
X64679507Y2830817D01*
X64676809Y2818121D01*
X64592138Y2502126D01*
X64588127Y2489783D01*
X64470894Y2184379D01*
X64465615Y2172521D01*
X64317097Y1881037D01*
X64310607Y1869797D01*
X64132441Y1595446D01*
X64124812Y1584945D01*
X63918935Y1330708D01*
X63910250Y1321063D01*
X63678938Y1089751D01*
X63669293Y1081066D01*
X63415055Y875188D01*
X63404555Y867559D01*
X63130197Y689389D01*
X63118964Y682903D01*
X62827480Y534385D01*
X62815622Y529106D01*
X62510218Y411873D01*
X62497875Y407862D01*
X62181880Y323191D01*
X62169184Y320493D01*
X61846086Y269320D01*
X61833178Y267963D01*
X61503244Y250671D01*
X61496754Y250501D01*
X61445840Y250501D01*
X61445828Y250500D01*
X58074000Y250500D01*
X58006961Y270185D01*
X57961206Y322989D01*
X57950000Y374500D01*
X57950000Y633002D01*
X57954225Y665096D01*
X57974141Y739422D01*
X57980500Y820222D01*
X57980500Y3599778D01*
X57978807Y3621289D01*
X59649500Y3621289D01*
X59649500Y3378712D01*
X59681161Y3138215D01*
X59743947Y2903896D01*
X59779477Y2818120D01*
X59836776Y2679788D01*
X59958064Y2469711D01*
X59958066Y2469708D01*
X59958067Y2469707D01*
X60105733Y2277264D01*
X60105739Y2277257D01*
X60277256Y2105740D01*
X60277262Y2105735D01*
X60469711Y1958064D01*
X60679788Y1836776D01*
X60903900Y1743946D01*
X61138211Y1681162D01*
X61318586Y1657416D01*
X61378711Y1649500D01*
X61378712Y1649500D01*
X61621289Y1649500D01*
X61669388Y1655833D01*
X61861789Y1681162D01*
X62096100Y1743946D01*
X62320212Y1836776D01*
X62530289Y1958064D01*
X62722738Y2105735D01*
X62894265Y2277262D01*
X63041936Y2469711D01*
X63163224Y2679788D01*
X63256054Y2903900D01*
X63318838Y3138211D01*
X63350500Y3378712D01*
X63350500Y3621288D01*
X63318838Y3861789D01*
X63256054Y4096100D01*
X63163224Y4320212D01*
X63041936Y4530289D01*
X62946086Y4655203D01*
X62894266Y4722737D01*
X62894260Y4722744D01*
X62722743Y4894261D01*
X62722736Y4894267D01*
X62530293Y5041933D01*
X62530292Y5041934D01*
X62530289Y5041936D01*
X62349664Y5146220D01*
X62320214Y5163223D01*
X62320205Y5163227D01*
X62096104Y5256053D01*
X61861785Y5318839D01*
X61621289Y5350500D01*
X61621288Y5350500D01*
X61378712Y5350500D01*
X61378711Y5350500D01*
X61138214Y5318839D01*
X60903895Y5256053D01*
X60679794Y5163227D01*
X60679785Y5163223D01*
X60469706Y5041933D01*
X60277263Y4894267D01*
X60277256Y4894261D01*
X60105739Y4722744D01*
X60105733Y4722737D01*
X59958067Y4530294D01*
X59836777Y4320215D01*
X59836773Y4320206D01*
X59743947Y4096105D01*
X59681161Y3861786D01*
X59649500Y3621289D01*
X57978807Y3621289D01*
X57974141Y3680578D01*
X57954225Y3754906D01*
X57950000Y3786999D01*
X57950000Y4125658D01*
X57969685Y4192697D01*
X58022489Y4238452D01*
X58033038Y4242698D01*
X58094522Y4264211D01*
X58247262Y4360184D01*
X58374816Y4487738D01*
X58470789Y4640478D01*
X58530368Y4810745D01*
X58533531Y4838814D01*
X58550565Y4989997D01*
X58550565Y4990004D01*
X58530369Y5169250D01*
X58530368Y5169255D01*
X58504958Y5241873D01*
X58470789Y5339522D01*
X58455386Y5364035D01*
X58374815Y5492263D01*
X58247262Y5619816D01*
X58094523Y5715789D01*
X57924254Y5775369D01*
X57924250Y5775370D01*
X57794895Y5789944D01*
X57770964Y5800000D01*
X57750000Y5800000D01*
X54750000Y5800000D01*
X54687231Y5800000D01*
X54676932Y5792059D01*
X54645835Y5784393D01*
X54565749Y5775370D01*
X54565745Y5775369D01*
X54395476Y5715789D01*
X54242737Y5619816D01*
X54115184Y5492263D01*
X54019211Y5339524D01*
X53959631Y5169255D01*
X53959630Y5169250D01*
X53939435Y4990004D01*
X53939435Y4989997D01*
X53959630Y4810751D01*
X53959631Y4810746D01*
X53990425Y4722744D01*
X54018586Y4642263D01*
X54019213Y4640473D01*
X54020260Y4638298D01*
X54020514Y4636754D01*
X54021511Y4633905D01*
X54021011Y4633731D01*
X54031610Y4569357D01*
X54003886Y4505223D01*
X53945889Y4466259D01*
X53908538Y4460500D01*
X53600216Y4460500D01*
X53519419Y4454141D01*
X53513823Y4453179D01*
X53513778Y4453441D01*
X53487642Y4450000D01*
X52150423Y4450000D01*
X52126185Y4453192D01*
X52126098Y4452682D01*
X52120501Y4453644D01*
X52039743Y4460000D01*
X51974000Y4460000D01*
X51906961Y4479685D01*
X51861206Y4532489D01*
X51850000Y4584000D01*
X51850000Y7487271D01*
X51869685Y7554310D01*
X51886319Y7574952D01*
X52332948Y8021581D01*
X52332947Y8021581D01*
X52332951Y8021584D01*
X52415084Y8144505D01*
X52455089Y8241085D01*
X52468496Y8273453D01*
X52512337Y8327856D01*
X52578631Y8349921D01*
X52583057Y8350000D01*
X53193872Y8350000D01*
X53225964Y8345775D01*
X53240621Y8341849D01*
X53252023Y8338793D01*
X53439787Y8322367D01*
X53469998Y8319723D01*
X53470000Y8319723D01*
X53470002Y8319723D01*
X53498254Y8322195D01*
X53687977Y8338793D01*
X53899330Y8395425D01*
X54097639Y8487898D01*
X54276877Y8613402D01*
X54431598Y8768123D01*
X54557102Y8947361D01*
X54649575Y9145670D01*
X54684231Y9275007D01*
X55094700Y9275007D01*
X55094700Y9274994D01*
X55113864Y9043703D01*
X55113866Y9043692D01*
X55170842Y8818700D01*
X55264075Y8606152D01*
X55391016Y8411853D01*
X55391019Y8411849D01*
X55391021Y8411847D01*
X55548216Y8241087D01*
X55548219Y8241085D01*
X55548222Y8241082D01*
X55731365Y8098536D01*
X55731371Y8098532D01*
X55731374Y8098530D01*
X55935497Y7988064D01*
X56002925Y7964916D01*
X56155015Y7912703D01*
X56155017Y7912703D01*
X56155019Y7912702D01*
X56383951Y7874500D01*
X56383952Y7874500D01*
X56616048Y7874500D01*
X56616049Y7874500D01*
X56844981Y7912702D01*
X57064503Y7988064D01*
X57268626Y8098530D01*
X57282721Y8109500D01*
X57378583Y8184113D01*
X57451784Y8241087D01*
X57608979Y8411847D01*
X57735924Y8606151D01*
X57829157Y8818700D01*
X57886134Y9043695D01*
X57886135Y9043703D01*
X57905300Y9274994D01*
X57905300Y9275007D01*
X57886135Y9506298D01*
X57886133Y9506309D01*
X57829157Y9731301D01*
X57735924Y9943849D01*
X57608983Y10138148D01*
X57608980Y10138151D01*
X57608979Y10138153D01*
X57451784Y10308913D01*
X57451779Y10308917D01*
X57451777Y10308919D01*
X57268634Y10451465D01*
X57268628Y10451469D01*
X57064504Y10561936D01*
X57064495Y10561939D01*
X56844984Y10637298D01*
X56673282Y10665950D01*
X56616049Y10675500D01*
X56383951Y10675500D01*
X56338164Y10667860D01*
X56155015Y10637298D01*
X55935504Y10561939D01*
X55935495Y10561936D01*
X55731371Y10451469D01*
X55731365Y10451465D01*
X55548222Y10308919D01*
X55548219Y10308916D01*
X55548216Y10308914D01*
X55548216Y10308913D01*
X55498841Y10255277D01*
X55391016Y10138148D01*
X55264075Y9943849D01*
X55170842Y9731301D01*
X55113866Y9506309D01*
X55113864Y9506298D01*
X55094700Y9275007D01*
X54684231Y9275007D01*
X54706207Y9357023D01*
X54725277Y9575000D01*
X54706207Y9792977D01*
X54704225Y9800375D01*
X54700000Y9832467D01*
X54700000Y14167533D01*
X54704226Y14199628D01*
X54706205Y14207016D01*
X54706204Y14207016D01*
X54706207Y14207023D01*
X54725277Y14425000D01*
X54706207Y14642977D01*
X54704225Y14650375D01*
X54700000Y14682467D01*
X54700000Y14725007D01*
X55094700Y14725007D01*
X55094700Y14724994D01*
X55113864Y14493703D01*
X55113866Y14493692D01*
X55170842Y14268700D01*
X55264075Y14056152D01*
X55391016Y13861853D01*
X55391019Y13861849D01*
X55391021Y13861847D01*
X55548216Y13691087D01*
X55548219Y13691085D01*
X55548222Y13691082D01*
X55731365Y13548536D01*
X55731371Y13548532D01*
X55731374Y13548530D01*
X55935497Y13438064D01*
X56028576Y13406110D01*
X56155015Y13362703D01*
X56155017Y13362703D01*
X56155019Y13362702D01*
X56383951Y13324500D01*
X56383952Y13324500D01*
X56616048Y13324500D01*
X56616049Y13324500D01*
X56844981Y13362702D01*
X57064503Y13438064D01*
X57268626Y13548530D01*
X57304894Y13576758D01*
X57358039Y13618123D01*
X57451784Y13691087D01*
X57608979Y13861847D01*
X57735924Y14056151D01*
X57829157Y14268700D01*
X57886134Y14493695D01*
X57897413Y14629816D01*
X57905300Y14724994D01*
X57905300Y14725007D01*
X57886135Y14956298D01*
X57886132Y14956314D01*
X57829157Y15181301D01*
X57735924Y15393849D01*
X57608983Y15588148D01*
X57608980Y15588151D01*
X57608979Y15588153D01*
X57451784Y15758913D01*
X57451779Y15758917D01*
X57451777Y15758919D01*
X57268634Y15901465D01*
X57268628Y15901469D01*
X57064504Y16011936D01*
X57064495Y16011939D01*
X56844984Y16087298D01*
X56673282Y16115950D01*
X56616049Y16125500D01*
X56383951Y16125500D01*
X56338164Y16117860D01*
X56155015Y16087298D01*
X55935504Y16011939D01*
X55935495Y16011936D01*
X55731371Y15901469D01*
X55731365Y15901465D01*
X55548222Y15758919D01*
X55548219Y15758916D01*
X55391016Y15588148D01*
X55264075Y15393849D01*
X55170842Y15181301D01*
X55113868Y14956314D01*
X55113864Y14956298D01*
X55094700Y14725007D01*
X54700000Y14725007D01*
X54700000Y16275500D01*
X54719685Y16342539D01*
X54772489Y16388294D01*
X54824000Y16399500D01*
X55723920Y16399500D01*
X55823442Y16419297D01*
X55868913Y16428342D01*
X55979484Y16474142D01*
X56005488Y16484913D01*
X56005488Y16484914D01*
X56005495Y16484916D01*
X56069020Y16527362D01*
X56128416Y16567048D01*
X57212951Y17651584D01*
X57295084Y17774505D01*
X57351658Y17911087D01*
X57365149Y17978910D01*
X57380500Y18056080D01*
X57380500Y19516151D01*
X57400185Y19583190D01*
X57448205Y19626636D01*
X57502412Y19654255D01*
X57561837Y19684533D01*
X57561838Y19684535D01*
X57561840Y19684535D01*
X57713032Y19806968D01*
X57835465Y19958160D01*
X57923788Y20131504D01*
X57974141Y20319422D01*
X57980500Y20400222D01*
X57980500Y22867771D01*
X58000185Y22934810D01*
X58016819Y22955452D01*
X59082948Y24021581D01*
X59082951Y24021584D01*
X59165084Y24144505D01*
X59221658Y24281087D01*
X59233438Y24340306D01*
X59250500Y24426080D01*
X59250500Y26621289D01*
X59649500Y26621289D01*
X59649500Y26378712D01*
X59680214Y26145405D01*
X59681162Y26138211D01*
X59692734Y26095023D01*
X59743947Y25903896D01*
X59830306Y25695408D01*
X59836776Y25679788D01*
X59958064Y25469711D01*
X59958066Y25469708D01*
X59958067Y25469707D01*
X60105733Y25277264D01*
X60105739Y25277257D01*
X60277256Y25105740D01*
X60277262Y25105735D01*
X60469711Y24958064D01*
X60679788Y24836776D01*
X60903900Y24743946D01*
X61138211Y24681162D01*
X61318586Y24657416D01*
X61378711Y24649500D01*
X61378712Y24649500D01*
X61621289Y24649500D01*
X61669388Y24655833D01*
X61861789Y24681162D01*
X62096100Y24743946D01*
X62320212Y24836776D01*
X62530289Y24958064D01*
X62722738Y25105735D01*
X62894265Y25277262D01*
X63041936Y25469711D01*
X63163224Y25679788D01*
X63256054Y25903900D01*
X63318838Y26138211D01*
X63350500Y26378712D01*
X63350500Y26621288D01*
X63349600Y26628121D01*
X63333185Y26752807D01*
X63318838Y26861789D01*
X63256054Y27096100D01*
X63250163Y27110321D01*
X63242593Y27128598D01*
X63163224Y27320212D01*
X63041936Y27530289D01*
X62894265Y27722738D01*
X62894260Y27722744D01*
X62722743Y27894261D01*
X62722736Y27894267D01*
X62530293Y28041933D01*
X62530292Y28041934D01*
X62530289Y28041936D01*
X62320212Y28163224D01*
X62320205Y28163227D01*
X62096104Y28256053D01*
X61978944Y28287446D01*
X61861789Y28318838D01*
X61861788Y28318839D01*
X61861785Y28318839D01*
X61621289Y28350500D01*
X61621288Y28350500D01*
X61378712Y28350500D01*
X61378711Y28350500D01*
X61138214Y28318839D01*
X60903895Y28256053D01*
X60679794Y28163227D01*
X60679785Y28163223D01*
X60469706Y28041933D01*
X60277263Y27894267D01*
X60277256Y27894261D01*
X60105739Y27722744D01*
X60105733Y27722737D01*
X59958067Y27530294D01*
X59836777Y27320215D01*
X59836773Y27320206D01*
X59743947Y27096105D01*
X59681161Y26861786D01*
X59649500Y26621289D01*
X59250500Y26621289D01*
X59250500Y28524908D01*
X59250000Y28535086D01*
X59250000Y29625500D01*
X59269685Y29692539D01*
X59322489Y29738294D01*
X59374000Y29749500D01*
X61445827Y29749500D01*
X61445839Y29749499D01*
G37*
%TD.AperFunction*%
%TA.AperFunction,Conductor*%
G36*
X15491915Y9429815D02*
G01*
X15529869Y9391473D01*
X15620184Y9247738D01*
X15747738Y9120184D01*
X15900478Y9024211D01*
X16016456Y8983629D01*
X16073230Y8942909D01*
X16098978Y8877956D01*
X16099500Y8866588D01*
X16099500Y5485929D01*
X16120516Y5380279D01*
X16114289Y5310688D01*
X16100000Y5292294D01*
X16100000Y4584500D01*
X16080315Y4517461D01*
X16027511Y4471706D01*
X15976000Y4460500D01*
X15500216Y4460500D01*
X15419419Y4454141D01*
X15413823Y4453179D01*
X15413778Y4453441D01*
X15387642Y4450000D01*
X14050423Y4450000D01*
X14026185Y4453192D01*
X14026098Y4452682D01*
X14020501Y4453644D01*
X13939743Y4460000D01*
X13700000Y4460000D01*
X13700000Y2334000D01*
X13680315Y2266961D01*
X13627511Y2221206D01*
X13576000Y2210000D01*
X13324000Y2210000D01*
X13256961Y2229685D01*
X13211206Y2282489D01*
X13200000Y2334000D01*
X13200000Y4460000D01*
X12960256Y4460000D01*
X12879498Y4453644D01*
X12873902Y4452682D01*
X12873814Y4453192D01*
X12849577Y4450000D01*
X11881440Y4450000D01*
X11814401Y4469685D01*
X11768646Y4522489D01*
X11758702Y4591647D01*
X11787727Y4655203D01*
X11793759Y4661681D01*
X11801336Y4669258D01*
X11829816Y4697738D01*
X11925789Y4850478D01*
X11985368Y5020745D01*
X11985759Y5024212D01*
X12005565Y5199997D01*
X12005565Y5200004D01*
X11985369Y5379250D01*
X11985366Y5379263D01*
X11925790Y5549519D01*
X11925789Y5549522D01*
X11884371Y5615439D01*
X11869506Y5639097D01*
X11850500Y5705069D01*
X11850500Y7125500D01*
X11870185Y7192539D01*
X11922989Y7238294D01*
X11974500Y7249500D01*
X12964071Y7249500D01*
X13048615Y7266318D01*
X13089744Y7274499D01*
X13208127Y7323535D01*
X13215312Y7328337D01*
X13215322Y7328340D01*
X13215321Y7328341D01*
X13297173Y7383033D01*
X13314669Y7394723D01*
X14005276Y8085331D01*
X14076465Y8191873D01*
X14125501Y8310256D01*
X14129002Y8327856D01*
X14130593Y8335855D01*
X14130593Y8335857D01*
X14150500Y8435931D01*
X14150500Y9325500D01*
X14170185Y9392539D01*
X14222989Y9438294D01*
X14274500Y9449500D01*
X15424876Y9449500D01*
X15491915Y9429815D01*
G37*
%TD.AperFunction*%
%TA.AperFunction,Conductor*%
G36*
X24592539Y6930315D02*
G01*
X24638294Y6877511D01*
X24649500Y6826000D01*
X24649500Y6526082D01*
X24649500Y6526080D01*
X24649499Y6526080D01*
X24678340Y6381093D01*
X24678343Y6381083D01*
X24734912Y6244512D01*
X24734918Y6244501D01*
X24745664Y6228420D01*
X24745666Y6228415D01*
X24817046Y6121586D01*
X24817052Y6121579D01*
X25496692Y5441941D01*
X25519358Y5405875D01*
X25521188Y5406756D01*
X25524209Y5400482D01*
X25524211Y5400478D01*
X25620184Y5247738D01*
X25747738Y5120184D01*
X25900478Y5024211D01*
X25907426Y5021780D01*
X25935364Y5007841D01*
X25983231Y4975858D01*
X25983232Y4975857D01*
X26044498Y4934920D01*
X26044511Y4934913D01*
X26142645Y4894265D01*
X26181087Y4878342D01*
X26181091Y4878342D01*
X26181092Y4878341D01*
X26326079Y4849500D01*
X26326082Y4849500D01*
X26326083Y4849500D01*
X26473917Y4849500D01*
X27176000Y4849500D01*
X27243039Y4829815D01*
X27288794Y4777011D01*
X27300000Y4725500D01*
X27300000Y4398130D01*
X27280315Y4331091D01*
X27227511Y4285336D01*
X27158353Y4275392D01*
X27097964Y4301764D01*
X27081564Y4315044D01*
X26908315Y4403318D01*
X26720497Y4453645D01*
X26639743Y4460000D01*
X26400000Y4460000D01*
X26400000Y2334000D01*
X26380315Y2266961D01*
X26327511Y2221206D01*
X26276000Y2210000D01*
X26024000Y2210000D01*
X25956961Y2229685D01*
X25911206Y2282489D01*
X25900000Y2334000D01*
X25900000Y4460000D01*
X25660256Y4460000D01*
X25579498Y4453644D01*
X25573902Y4452682D01*
X25573814Y4453192D01*
X25549577Y4450000D01*
X24212358Y4450000D01*
X24186221Y4453441D01*
X24186177Y4453179D01*
X24180580Y4454141D01*
X24099783Y4460500D01*
X24099778Y4460500D01*
X23120222Y4460500D01*
X23120216Y4460500D01*
X23039425Y4454142D01*
X23039422Y4454141D01*
X23022621Y4449640D01*
X22952771Y4451307D01*
X22902854Y4481736D01*
X21411819Y5972771D01*
X21378334Y6034094D01*
X21375500Y6060452D01*
X21375500Y6689548D01*
X21395185Y6756587D01*
X21411814Y6777224D01*
X21522773Y6888183D01*
X21584095Y6921666D01*
X21610453Y6924500D01*
X23011608Y6924500D01*
X23011608Y6924501D01*
X23081453Y6938393D01*
X23081454Y6938393D01*
X23127829Y6947617D01*
X23152020Y6950000D01*
X24525500Y6950000D01*
X24592539Y6930315D01*
G37*
%TD.AperFunction*%
%TA.AperFunction,Conductor*%
G36*
X39100000Y2334000D02*
G01*
X39080315Y2266961D01*
X39027511Y2221206D01*
X38976000Y2210000D01*
X38724000Y2210000D01*
X38656961Y2229685D01*
X38611206Y2282489D01*
X38600000Y2334000D01*
X38600000Y3210000D01*
X39100000Y3243334D01*
X39100000Y2334000D01*
G37*
%TD.AperFunction*%
%TA.AperFunction,Conductor*%
G36*
X29240982Y14742543D02*
G01*
X29288860Y14725789D01*
X29320745Y14714632D01*
X29320750Y14714631D01*
X29499996Y14694435D01*
X29500000Y14694435D01*
X29500004Y14694435D01*
X29679249Y14714631D01*
X29679252Y14714632D01*
X29679255Y14714632D01*
X29759017Y14742543D01*
X29799972Y14749500D01*
X29887770Y14749500D01*
X29954809Y14729815D01*
X29975451Y14713181D01*
X31563181Y13125452D01*
X31596666Y13064129D01*
X31599500Y13037771D01*
X31599500Y12949972D01*
X31592542Y12909018D01*
X31564631Y12829253D01*
X31544435Y12650004D01*
X31544435Y12649997D01*
X31564630Y12470751D01*
X31564631Y12470746D01*
X31592542Y12390983D01*
X31599500Y12350028D01*
X31599500Y8412230D01*
X31579815Y8345191D01*
X31563181Y8324549D01*
X31225451Y7986819D01*
X31164128Y7953334D01*
X31137770Y7950500D01*
X30399972Y7950500D01*
X30359017Y7957458D01*
X30279254Y7985369D01*
X30279249Y7985370D01*
X30100004Y8005565D01*
X30099998Y8005565D01*
X30057531Y8000780D01*
X30043647Y8000000D01*
X28603553Y8000000D01*
X28087681Y7484129D01*
X28026358Y7450644D01*
X27956666Y7455628D01*
X27912319Y7484129D01*
X27750000Y7646448D01*
X27750000Y7250000D01*
X28872828Y7250000D01*
X28872844Y7250001D01*
X28932372Y7256402D01*
X28932379Y7256404D01*
X29067086Y7306646D01*
X29067089Y7306648D01*
X29098849Y7330423D01*
X29164313Y7354841D01*
X29232586Y7339990D01*
X29281992Y7290586D01*
X29296845Y7222313D01*
X29296381Y7217273D01*
X29294435Y7200002D01*
X29294435Y7199998D01*
X29299220Y7157532D01*
X29300000Y7143648D01*
X29300000Y6474500D01*
X29280315Y6407461D01*
X29227511Y6361706D01*
X29176000Y6350500D01*
X26832412Y6350500D01*
X26765373Y6370185D01*
X26755097Y6377555D01*
X26752263Y6379815D01*
X26752262Y6379816D01*
X26599522Y6475789D01*
X26599518Y6475791D01*
X26593244Y6478812D01*
X26594125Y6480642D01*
X26558059Y6503308D01*
X26186819Y6874549D01*
X26153334Y6935872D01*
X26150500Y6962230D01*
X26150500Y7126000D01*
X26170185Y7193039D01*
X26222989Y7238794D01*
X26274500Y7250000D01*
X27250000Y7250000D01*
X27250000Y7646447D01*
X27249998Y7646448D01*
X27087680Y7484129D01*
X27026357Y7450644D01*
X26956665Y7455628D01*
X26912318Y7484129D01*
X26410904Y7985543D01*
X26377419Y8046866D01*
X26382403Y8116558D01*
X26397624Y8140244D01*
X26415032Y8122836D01*
X26470163Y8100000D01*
X26529837Y8100000D01*
X26584968Y8122836D01*
X26627164Y8165032D01*
X26650000Y8220163D01*
X26650000Y8250001D01*
X26853553Y8250001D01*
X27000000Y8103554D01*
X27146446Y8249999D01*
X27146446Y8250000D01*
X27116609Y8279837D01*
X27350000Y8279837D01*
X27350000Y8220163D01*
X27372836Y8165032D01*
X27415032Y8122836D01*
X27470163Y8100000D01*
X27529837Y8100000D01*
X27584968Y8122836D01*
X27627164Y8165032D01*
X27650000Y8220163D01*
X27650000Y8279837D01*
X28350000Y8279837D01*
X28350000Y8220163D01*
X28372836Y8165032D01*
X28415032Y8122836D01*
X28470163Y8100000D01*
X28529837Y8100000D01*
X28584968Y8122836D01*
X28627164Y8165032D01*
X28650000Y8220163D01*
X28650000Y8279837D01*
X28627164Y8334968D01*
X28584968Y8377164D01*
X28529837Y8400000D01*
X28470163Y8400000D01*
X28415032Y8377164D01*
X28372836Y8334968D01*
X28350000Y8279837D01*
X27650000Y8279837D01*
X27627164Y8334968D01*
X27584968Y8377164D01*
X27529837Y8400000D01*
X27470163Y8400000D01*
X27415032Y8377164D01*
X27372836Y8334968D01*
X27350000Y8279837D01*
X27116609Y8279837D01*
X27000000Y8396447D01*
X26853553Y8250001D01*
X26650000Y8250001D01*
X26650000Y8279837D01*
X26627164Y8334968D01*
X26584968Y8377164D01*
X26529837Y8400000D01*
X26470163Y8400000D01*
X26415032Y8377164D01*
X26398916Y8361049D01*
X26377419Y8400419D01*
X26382403Y8470111D01*
X26410904Y8514458D01*
X26912319Y9015873D01*
X26973642Y9049358D01*
X27043334Y9044374D01*
X27087681Y9015873D01*
X27250000Y8853554D01*
X27250000Y9375500D01*
X27269685Y9442539D01*
X27322489Y9488294D01*
X27374000Y9499500D01*
X28450028Y9499500D01*
X28490981Y9492542D01*
X28495268Y9491042D01*
X28552044Y9450322D01*
X28577793Y9385369D01*
X28564338Y9316807D01*
X28515951Y9266404D01*
X28454315Y9250000D01*
X27750000Y9250000D01*
X27750000Y8853555D01*
X27912318Y9015873D01*
X27973641Y9049358D01*
X28043332Y9044374D01*
X28087680Y9015873D01*
X28603553Y8500001D01*
X28603554Y8500000D01*
X29325000Y8500000D01*
X29325000Y8797828D01*
X29324999Y8797845D01*
X29318598Y8857373D01*
X29318596Y8857380D01*
X29268354Y8992087D01*
X29268350Y8992094D01*
X29182190Y9107188D01*
X29182187Y9107191D01*
X29067093Y9193351D01*
X29067086Y9193355D01*
X28946577Y9238302D01*
X28890643Y9280173D01*
X28866226Y9345638D01*
X28881078Y9413911D01*
X28930483Y9463316D01*
X28948952Y9471525D01*
X29099522Y9524211D01*
X29252262Y9620184D01*
X29379816Y9747738D01*
X29475789Y9900478D01*
X29535368Y10070745D01*
X29539972Y10111607D01*
X29555565Y10249997D01*
X29555565Y10250004D01*
X29535369Y10429250D01*
X29535368Y10429255D01*
X29506692Y10511206D01*
X29475789Y10599522D01*
X29472354Y10604988D01*
X29396448Y10725792D01*
X29379816Y10752262D01*
X29252262Y10879816D01*
X29099523Y10975789D01*
X28929254Y11035369D01*
X28929249Y11035370D01*
X28750004Y11055565D01*
X28749996Y11055565D01*
X28570750Y11035370D01*
X28570745Y11035369D01*
X28490983Y11007458D01*
X28450028Y11000500D01*
X26175092Y11000500D01*
X26164914Y11000000D01*
X25199500Y11000000D01*
X25132461Y11019685D01*
X25086706Y11072489D01*
X25075500Y11124000D01*
X25075500Y14389548D01*
X25095185Y14456587D01*
X25111819Y14477229D01*
X25298271Y14663681D01*
X25359594Y14697166D01*
X25385952Y14700000D01*
X26593650Y14700000D01*
X26607528Y14699221D01*
X26634399Y14696193D01*
X26649998Y14694435D01*
X26650000Y14694435D01*
X26650003Y14694435D01*
X26692472Y14699220D01*
X26695592Y14699396D01*
X26697252Y14699759D01*
X26829249Y14714631D01*
X26829252Y14714632D01*
X26829255Y14714632D01*
X26909017Y14742543D01*
X26949972Y14749500D01*
X29200028Y14749500D01*
X29240982Y14742543D01*
G37*
%TD.AperFunction*%
%TA.AperFunction,Conductor*%
G36*
X39130000Y24061362D02*
G01*
X39110315Y23994323D01*
X39100000Y23981523D01*
X39100000Y19270752D01*
X39080315Y19203713D01*
X39044880Y19167642D01*
X39024376Y19153946D01*
X39024367Y19153938D01*
X39011469Y19141046D01*
X39011355Y19140941D01*
X38968793Y19098380D01*
X38968786Y19098372D01*
X38964096Y19093683D01*
X38964092Y19093679D01*
X38938044Y19067639D01*
X38937888Y19067501D01*
X38915077Y19044681D01*
X38914927Y19044600D01*
X38818793Y18948435D01*
X38818793Y18948434D01*
X38724106Y18806676D01*
X38724102Y18806668D01*
X38658887Y18649162D01*
X38658885Y18649154D01*
X38644563Y18577108D01*
X38612185Y18515194D01*
X38551473Y18480613D01*
X38547136Y18479669D01*
X38475040Y18465328D01*
X38475031Y18465325D01*
X38317525Y18400081D01*
X38175761Y18305353D01*
X38145630Y18275220D01*
X38115485Y18245072D01*
X38090122Y18219710D01*
X38076949Y18206538D01*
X38076913Y18206504D01*
X37983125Y18112717D01*
X37982644Y18112188D01*
X37970488Y18100037D01*
X37970487Y18100035D01*
X37875730Y17958284D01*
X37810452Y17800766D01*
X37796083Y17728580D01*
X37763689Y17666674D01*
X37702968Y17632108D01*
X37698675Y17631175D01*
X37626441Y17616798D01*
X37626436Y17616797D01*
X37468910Y17551519D01*
X37377592Y17490478D01*
X37327151Y17456761D01*
X37268085Y17397672D01*
X37232948Y17362538D01*
X37228419Y17358008D01*
X37228383Y17357974D01*
X37135117Y17264708D01*
X37135100Y17264690D01*
X37121866Y17251457D01*
X37121858Y17251448D01*
X37027133Y17109695D01*
X37027131Y17109691D01*
X36961882Y16952184D01*
X36961881Y16952181D01*
X36947523Y16880007D01*
X36915135Y16818097D01*
X36854418Y16783525D01*
X36850083Y16782582D01*
X36778078Y16768269D01*
X36778068Y16768266D01*
X36620568Y16703058D01*
X36478811Y16608376D01*
X36478809Y16608374D01*
X36466181Y16595752D01*
X36465993Y16595580D01*
X36437462Y16567048D01*
X36421877Y16551463D01*
X36418529Y16548116D01*
X36391573Y16521171D01*
X36391502Y16521107D01*
X36381286Y16510888D01*
X36381258Y16510861D01*
X36369839Y16499447D01*
X36369746Y16499397D01*
X36273237Y16402865D01*
X36178537Y16261103D01*
X36113309Y16103588D01*
X36113306Y16103578D01*
X36098978Y16031511D01*
X36066598Y15969597D01*
X36005885Y15935018D01*
X36001550Y15934075D01*
X35929462Y15919737D01*
X35929453Y15919734D01*
X35771952Y15854496D01*
X35771941Y15854490D01*
X35630187Y15759774D01*
X35613485Y15743070D01*
X35613481Y15743066D01*
X35530629Y15660218D01*
X35530581Y15660173D01*
X35490856Y15620446D01*
X35480763Y15610353D01*
X35453483Y15583074D01*
X35448571Y15578162D01*
X35448557Y15578150D01*
X35346645Y15476236D01*
X35346644Y15476237D01*
X35346642Y15476233D01*
X35246270Y15375861D01*
X35246267Y15375858D01*
X35220887Y15350478D01*
X35159142Y15288734D01*
X35142524Y15263863D01*
X35126017Y15239158D01*
X35121152Y15231877D01*
X35090688Y15186288D01*
X35076480Y15151986D01*
X35059329Y15110578D01*
X35047115Y15081091D01*
X35043538Y15072455D01*
X35043535Y15072446D01*
X35033433Y15021659D01*
X35033434Y15021658D01*
X35020437Y14956314D01*
X35020435Y14956308D01*
X35019500Y14951609D01*
X35019500Y14951606D01*
X35019500Y14276607D01*
X35019500Y14153393D01*
X35030411Y14098537D01*
X35035192Y14074500D01*
X35040400Y14048318D01*
X35043536Y14032551D01*
X35090687Y13918715D01*
X35117614Y13878418D01*
X35117615Y13878416D01*
X35159140Y13816269D01*
X35159141Y13816268D01*
X35159142Y13816267D01*
X35246267Y13729142D01*
X35246268Y13729142D01*
X35253335Y13722075D01*
X35253334Y13722075D01*
X35253337Y13722073D01*
X35559141Y13416268D01*
X35559142Y13416267D01*
X35612706Y13362703D01*
X35646269Y13329140D01*
X35646271Y13329139D01*
X35728475Y13274212D01*
X35728476Y13274212D01*
X35728477Y13274211D01*
X35748714Y13260689D01*
X35862548Y13213537D01*
X35983358Y13189507D01*
X35983388Y13189501D01*
X35983392Y13189500D01*
X35983393Y13189500D01*
X36731607Y13189500D01*
X36792029Y13201519D01*
X36852452Y13213537D01*
X36852455Y13213539D01*
X36852458Y13213539D01*
X36885787Y13227346D01*
X36885786Y13227346D01*
X36885792Y13227348D01*
X36966286Y13260688D01*
X37025867Y13300500D01*
X37068733Y13329142D01*
X37155858Y13416267D01*
X37155858Y13416269D01*
X37166066Y13426476D01*
X37166067Y13426479D01*
X37739592Y14000004D01*
X39444435Y14000004D01*
X39444435Y13999997D01*
X39464630Y13820751D01*
X39464631Y13820746D01*
X39524211Y13650476D01*
X39605493Y13521119D01*
X39624500Y13455146D01*
X39624500Y12294855D01*
X39605494Y12228883D01*
X39524211Y12099524D01*
X39464631Y11929255D01*
X39464630Y11929250D01*
X39444435Y11750004D01*
X39444435Y11749997D01*
X39464630Y11570751D01*
X39464631Y11570746D01*
X39524211Y11400477D01*
X39606608Y11269344D01*
X39620184Y11247738D01*
X39747738Y11120184D01*
X39823644Y11072489D01*
X39882721Y11035368D01*
X39900478Y11024211D01*
X40038860Y10975789D01*
X40070745Y10964632D01*
X40070750Y10964631D01*
X40249996Y10944435D01*
X40250000Y10944435D01*
X40250004Y10944435D01*
X40429249Y10964631D01*
X40429252Y10964632D01*
X40429255Y10964632D01*
X40599522Y11024211D01*
X40752262Y11120184D01*
X40879816Y11247738D01*
X40975789Y11400478D01*
X41035368Y11570745D01*
X41046496Y11669506D01*
X41055565Y11749997D01*
X41055565Y11750004D01*
X42944435Y11750004D01*
X42944435Y11749997D01*
X42964630Y11570751D01*
X42964631Y11570746D01*
X43024211Y11400477D01*
X43106608Y11269344D01*
X43120184Y11247738D01*
X43247738Y11120184D01*
X43323644Y11072489D01*
X43382721Y11035368D01*
X43400478Y11024211D01*
X43538860Y10975789D01*
X43570745Y10964632D01*
X43570750Y10964631D01*
X43749996Y10944435D01*
X43750000Y10944435D01*
X43750004Y10944435D01*
X43929249Y10964631D01*
X43929252Y10964632D01*
X43929255Y10964632D01*
X44099522Y11024211D01*
X44252262Y11120184D01*
X44379816Y11247738D01*
X44475789Y11400478D01*
X44535368Y11570745D01*
X44542024Y11629816D01*
X44546909Y11673178D01*
X44555568Y11706749D01*
X44563455Y11725790D01*
X44601463Y11817548D01*
X44625500Y11938394D01*
X44625500Y15155146D01*
X44644507Y15221119D01*
X44664888Y15253554D01*
X44725789Y15350478D01*
X44785368Y15520745D01*
X44785758Y15524204D01*
X44805565Y15699997D01*
X44805565Y15700004D01*
X44785369Y15879250D01*
X44785368Y15879255D01*
X44738940Y16011939D01*
X44725789Y16049522D01*
X44629816Y16202262D01*
X44502262Y16329816D01*
X44487974Y16338794D01*
X44349523Y16425789D01*
X44179254Y16485369D01*
X44179249Y16485370D01*
X44000004Y16505565D01*
X43999996Y16505565D01*
X43820750Y16485370D01*
X43820745Y16485369D01*
X43650476Y16425789D01*
X43497737Y16329816D01*
X43370184Y16202263D01*
X43274211Y16049524D01*
X43214631Y15879255D01*
X43214630Y15879250D01*
X43194435Y15700004D01*
X43194435Y15699997D01*
X43214630Y15520751D01*
X43214631Y15520746D01*
X43274211Y15350476D01*
X43355493Y15221119D01*
X43374500Y15155146D01*
X43374500Y12527999D01*
X43354815Y12460960D01*
X43316473Y12423006D01*
X43247740Y12379818D01*
X43247737Y12379816D01*
X43120184Y12252263D01*
X43024211Y12099524D01*
X42964631Y11929255D01*
X42964630Y11929250D01*
X42944435Y11750004D01*
X41055565Y11750004D01*
X41035369Y11929250D01*
X41035368Y11929255D01*
X40975788Y12099524D01*
X40894506Y12228883D01*
X40875500Y12294855D01*
X40875500Y13455146D01*
X40894507Y13521119D01*
X40906641Y13540429D01*
X40955952Y13618908D01*
X40975788Y13650476D01*
X40975789Y13650478D01*
X41035368Y13820745D01*
X41040844Y13869344D01*
X41055565Y13999997D01*
X41055565Y14000004D01*
X41035369Y14179250D01*
X41035368Y14179255D01*
X41001303Y14276607D01*
X40975789Y14349522D01*
X40879816Y14502262D01*
X40752262Y14629816D01*
X40731318Y14642976D01*
X40599523Y14725789D01*
X40429254Y14785369D01*
X40429249Y14785370D01*
X40250004Y14805565D01*
X40249996Y14805565D01*
X40070750Y14785370D01*
X40070745Y14785369D01*
X39900476Y14725789D01*
X39747737Y14629816D01*
X39620184Y14502263D01*
X39524211Y14349524D01*
X39464631Y14179255D01*
X39464630Y14179250D01*
X39444435Y14000004D01*
X37739592Y14000004D01*
X40753380Y17013791D01*
X40814701Y17047274D01*
X40827158Y17049326D01*
X40874255Y17054632D01*
X41044522Y17114211D01*
X41197262Y17210184D01*
X41324816Y17337738D01*
X41420789Y17490478D01*
X41480368Y17660745D01*
X41491465Y17759236D01*
X41500000Y17779548D01*
X41500000Y17828023D01*
X41500565Y17838081D01*
X41500565Y17841921D01*
X41500000Y17851978D01*
X41500000Y19415500D01*
X41519685Y19482539D01*
X41572489Y19528294D01*
X41624000Y19539500D01*
X41879770Y19539500D01*
X41879778Y19539500D01*
X41960578Y19545859D01*
X41960584Y19545861D01*
X41966177Y19546821D01*
X41966221Y19546560D01*
X41992358Y19550000D01*
X43327642Y19550000D01*
X43353778Y19546560D01*
X43353823Y19546821D01*
X43359416Y19545861D01*
X43359422Y19545859D01*
X43440222Y19539500D01*
X43440230Y19539500D01*
X44419770Y19539500D01*
X44419778Y19539500D01*
X44500578Y19545859D01*
X44500584Y19545861D01*
X44506177Y19546821D01*
X44506221Y19546560D01*
X44532358Y19550000D01*
X45867642Y19550000D01*
X45893778Y19546560D01*
X45893823Y19546821D01*
X45899416Y19545861D01*
X45899422Y19545859D01*
X45980222Y19539500D01*
X45980230Y19539500D01*
X46959770Y19539500D01*
X46959778Y19539500D01*
X47040578Y19545859D01*
X47040584Y19545861D01*
X47046177Y19546821D01*
X47046221Y19546560D01*
X47072358Y19550000D01*
X48407642Y19550000D01*
X48433778Y19546560D01*
X48433823Y19546821D01*
X48439416Y19545861D01*
X48439422Y19545859D01*
X48520222Y19539500D01*
X48520230Y19539500D01*
X49499770Y19539500D01*
X49499778Y19539500D01*
X49580578Y19545859D01*
X49580584Y19545861D01*
X49586177Y19546821D01*
X49586221Y19546560D01*
X49612358Y19550000D01*
X50949577Y19550000D01*
X50973814Y19546809D01*
X50973902Y19547318D01*
X50979498Y19546357D01*
X51060256Y19540001D01*
X51060270Y19540000D01*
X51300000Y19540000D01*
X51300000Y21666000D01*
X51319685Y21733039D01*
X51372489Y21778794D01*
X51424000Y21790000D01*
X51676000Y21790000D01*
X51743039Y21770315D01*
X51788794Y21717511D01*
X51800000Y21666000D01*
X51800000Y19540000D01*
X51926000Y19540000D01*
X51993039Y19520315D01*
X52038794Y19467511D01*
X52050000Y19416000D01*
X52050000Y17885036D01*
X52030315Y17817997D01*
X51994891Y17781934D01*
X51921581Y17732951D01*
X51921578Y17732948D01*
X51167048Y16978417D01*
X51149521Y16952184D01*
X51127475Y16919189D01*
X51084919Y16855501D01*
X51084912Y16855489D01*
X51028343Y16718918D01*
X51028340Y16718908D01*
X50999500Y16573921D01*
X50999500Y10624000D01*
X50979815Y10556961D01*
X50927011Y10511206D01*
X50875500Y10500000D01*
X49000000Y10500000D01*
X49000000Y6862730D01*
X48980315Y6795691D01*
X48963681Y6775049D01*
X48575451Y6386819D01*
X48514128Y6353334D01*
X48487770Y6350500D01*
X33224000Y6350500D01*
X33156961Y6370185D01*
X33111206Y6422989D01*
X33100000Y6474500D01*
X33100000Y7964916D01*
X33100500Y7975084D01*
X33100500Y8500000D01*
X44000000Y8500000D01*
X46000000Y8500000D01*
X46500000Y8500000D01*
X48500000Y8500000D01*
X48500000Y10500000D01*
X46500000Y10500000D01*
X46500000Y8500000D01*
X46000000Y8500000D01*
X46000000Y10500000D01*
X44000000Y10500000D01*
X44000000Y8500000D01*
X33100500Y8500000D01*
X33100500Y12350028D01*
X33107458Y12390983D01*
X33135368Y12470746D01*
X33135369Y12470751D01*
X33155565Y12649997D01*
X33155565Y12650004D01*
X33137509Y12810255D01*
X33135368Y12829255D01*
X33107458Y12909018D01*
X33100500Y12949972D01*
X33100500Y13473921D01*
X33071659Y13618908D01*
X33071658Y13618909D01*
X33071658Y13618913D01*
X33069711Y13623613D01*
X33015087Y13755489D01*
X33015080Y13755502D01*
X32932951Y13878416D01*
X32892652Y13918715D01*
X32828416Y13982951D01*
X31922335Y14889032D01*
X30986319Y15825049D01*
X30952834Y15886372D01*
X30950000Y15912730D01*
X30950000Y16514049D01*
X30969685Y16581088D01*
X30986319Y16601730D01*
X31264419Y16879829D01*
X33322772Y18938181D01*
X33384095Y18971666D01*
X33410453Y18974500D01*
X34661608Y18974500D01*
X34661608Y18974501D01*
X34731458Y18988394D01*
X34731459Y18988394D01*
X34757308Y18993536D01*
X34782452Y18998537D01*
X34819737Y19013981D01*
X34896286Y19045688D01*
X34960198Y19088394D01*
X34998733Y19114142D01*
X35085858Y19201267D01*
X35085859Y19201270D01*
X35445122Y19560532D01*
X35506444Y19594015D01*
X35564894Y19592625D01*
X35739422Y19545859D01*
X35820222Y19539500D01*
X35820230Y19539500D01*
X36799770Y19539500D01*
X36799778Y19539500D01*
X36880578Y19545859D01*
X37068496Y19596212D01*
X37241840Y19684535D01*
X37393032Y19806968D01*
X37483956Y19919250D01*
X37541442Y19958961D01*
X37611273Y19961289D01*
X37671277Y19925494D01*
X37676686Y19919251D01*
X37767323Y19807325D01*
X37918432Y19684958D01*
X38091684Y19596683D01*
X38279502Y19546356D01*
X38360256Y19540001D01*
X38360270Y19540000D01*
X38600000Y19540000D01*
X38600000Y24088638D01*
X38619685Y24155677D01*
X38630000Y24168478D01*
X38630000Y25026988D01*
X38687007Y24994075D01*
X38814174Y24960000D01*
X38945826Y24960000D01*
X39072993Y24994075D01*
X39130000Y25026988D01*
X39130000Y24061362D01*
G37*
%TD.AperFunction*%
%TA.AperFunction,Conductor*%
G36*
X6993039Y29729815D02*
G01*
X7038794Y29677011D01*
X7050000Y29625500D01*
X7050000Y28070095D01*
X7049528Y28059287D01*
X7044341Y28000001D01*
X7044341Y28000000D01*
X7049528Y27940714D01*
X7050000Y27929906D01*
X7050000Y26369174D01*
X7049572Y26361202D01*
X7049678Y26361196D01*
X7049500Y26357872D01*
X7049500Y24562137D01*
X7049679Y24558820D01*
X7049572Y24558815D01*
X7050000Y24550844D01*
X7050000Y23366999D01*
X7045775Y23334906D01*
X7025858Y23260577D01*
X7019500Y23179784D01*
X7019500Y20400217D01*
X7025858Y20319426D01*
X7025858Y20319423D01*
X7025859Y20319422D01*
X7076212Y20131504D01*
X7164535Y19958160D01*
X7286968Y19806968D01*
X7438160Y19684535D01*
X7532295Y19636571D01*
X7583090Y19588599D01*
X7600000Y19526087D01*
X7600000Y18802022D01*
X7597620Y18777843D01*
X7597520Y18777340D01*
X7597518Y18777329D01*
X7580075Y18689632D01*
X7580074Y18689630D01*
X7574500Y18661609D01*
X7574500Y16014500D01*
X7554815Y15947461D01*
X7502011Y15901706D01*
X7450500Y15890500D01*
X6310216Y15890500D01*
X6229425Y15884142D01*
X6041504Y15833788D01*
X5868161Y15745466D01*
X5716968Y15623032D01*
X5594534Y15471839D01*
X5551102Y15386598D01*
X5506212Y15298496D01*
X5455859Y15110578D01*
X5455859Y15110576D01*
X5449500Y15029784D01*
X5449500Y14050217D01*
X5455858Y13969424D01*
X5501117Y13800517D01*
X5499454Y13730668D01*
X5460291Y13672805D01*
X5396063Y13645301D01*
X5368087Y13645135D01*
X5322846Y13649999D01*
X5322828Y13650000D01*
X4624000Y13650000D01*
X4556961Y13669685D01*
X4511206Y13722489D01*
X4500000Y13774000D01*
X4500000Y14056415D01*
X4519685Y14123454D01*
X4520191Y14124236D01*
X4569447Y14199628D01*
X4624173Y14283393D01*
X4724063Y14511119D01*
X4785108Y14752179D01*
X4787859Y14785369D01*
X4805643Y14999999D01*
X4805643Y15000001D01*
X4800424Y15062985D01*
X4800000Y15073225D01*
X4800000Y16226000D01*
X4819685Y16293039D01*
X4872489Y16338794D01*
X4924000Y16350000D01*
X5322819Y16350000D01*
X5322819Y16350001D01*
X5366728Y16354721D01*
X2735905Y18985544D01*
X2702420Y19046867D01*
X2707404Y19116559D01*
X2735905Y19160907D01*
X2824999Y19250001D01*
X2824998Y19250002D01*
X3178551Y19250002D01*
X3178551Y19250001D01*
X5746139Y16682412D01*
X5768598Y16742624D01*
X5774999Y16802156D01*
X5775000Y16802173D01*
X5775000Y21697828D01*
X5774999Y21697845D01*
X5768598Y21757376D01*
X5746138Y21817590D01*
X3178551Y19250002D01*
X2824998Y19250002D01*
X2735904Y19339096D01*
X2702419Y19400419D01*
X2707403Y19470111D01*
X2735904Y19514458D01*
X5366727Y22145281D01*
X5322829Y22150000D01*
X374500Y22150000D01*
X307461Y22169685D01*
X261706Y22222489D01*
X250500Y22274000D01*
X250500Y26441388D01*
X250501Y26441397D01*
X250501Y26496754D01*
X250671Y26503244D01*
X253112Y26549828D01*
X256857Y26621289D01*
X1649500Y26621289D01*
X1649500Y26378712D01*
X1680214Y26145405D01*
X1681162Y26138211D01*
X1692734Y26095023D01*
X1743947Y25903896D01*
X1830306Y25695408D01*
X1836776Y25679788D01*
X1958064Y25469711D01*
X1958066Y25469708D01*
X1958067Y25469707D01*
X2105733Y25277264D01*
X2105739Y25277257D01*
X2277256Y25105740D01*
X2277262Y25105735D01*
X2469711Y24958064D01*
X2679788Y24836776D01*
X2903900Y24743946D01*
X3138211Y24681162D01*
X3318586Y24657416D01*
X3378711Y24649500D01*
X3378712Y24649500D01*
X3621289Y24649500D01*
X3669388Y24655833D01*
X3861789Y24681162D01*
X4096100Y24743946D01*
X4320212Y24836776D01*
X4530289Y24958064D01*
X4722738Y25105735D01*
X4894265Y25277262D01*
X5041936Y25469711D01*
X5163224Y25679788D01*
X5256054Y25903900D01*
X5318838Y26138211D01*
X5350500Y26378712D01*
X5350500Y26621288D01*
X5349600Y26628121D01*
X5333185Y26752807D01*
X5318838Y26861789D01*
X5256054Y27096100D01*
X5250163Y27110321D01*
X5242593Y27128598D01*
X5163224Y27320212D01*
X5041936Y27530289D01*
X4894265Y27722738D01*
X4894260Y27722744D01*
X4722743Y27894261D01*
X4722736Y27894267D01*
X4530293Y28041933D01*
X4530292Y28041934D01*
X4530289Y28041936D01*
X4320212Y28163224D01*
X4320205Y28163227D01*
X4096104Y28256053D01*
X3978944Y28287446D01*
X3861789Y28318838D01*
X3861788Y28318839D01*
X3861785Y28318839D01*
X3621289Y28350500D01*
X3621288Y28350500D01*
X3378712Y28350500D01*
X3378711Y28350500D01*
X3138214Y28318839D01*
X2903895Y28256053D01*
X2679794Y28163227D01*
X2679785Y28163223D01*
X2469706Y28041933D01*
X2277263Y27894267D01*
X2277256Y27894261D01*
X2105739Y27722744D01*
X2105733Y27722737D01*
X1958067Y27530294D01*
X1836777Y27320215D01*
X1836773Y27320206D01*
X1743947Y27096105D01*
X1681161Y26861786D01*
X1649500Y26621289D01*
X256857Y26621289D01*
X267962Y26833181D01*
X269319Y26846087D01*
X320494Y27169196D01*
X323187Y27181871D01*
X407864Y27497886D01*
X411872Y27510218D01*
X529110Y27815634D01*
X534376Y27827463D01*
X682913Y28118985D01*
X689379Y28130184D01*
X867565Y28404566D01*
X875179Y28415047D01*
X1081073Y28669302D01*
X1089740Y28678928D01*
X1321072Y28910260D01*
X1330698Y28918927D01*
X1584953Y29124821D01*
X1595434Y29132435D01*
X1869816Y29310621D01*
X1881015Y29317087D01*
X2172537Y29465624D01*
X2184366Y29470890D01*
X2489786Y29588130D01*
X2502114Y29592136D01*
X2818129Y29676813D01*
X2830804Y29679506D01*
X3153915Y29730682D01*
X3166819Y29732038D01*
X3326404Y29740402D01*
X3496777Y29749330D01*
X3503267Y29749500D01*
X3544170Y29749500D01*
X6926000Y29749500D01*
X6993039Y29729815D01*
G37*
%TD.AperFunction*%
%TA.AperFunction,Conductor*%
G36*
X24994549Y27333890D02*
G01*
X25011269Y27314595D01*
X25141505Y27128599D01*
X25141506Y27128598D01*
X25308597Y26961507D01*
X25308603Y26961502D01*
X25494158Y26831575D01*
X25537783Y26776998D01*
X25544977Y26707500D01*
X25513454Y26645145D01*
X25494158Y26628425D01*
X25308597Y26498495D01*
X25141505Y26331403D01*
X25011575Y26145842D01*
X24956998Y26102217D01*
X24887500Y26095023D01*
X24825145Y26126546D01*
X24808425Y26145842D01*
X24678494Y26331403D01*
X24511402Y26498494D01*
X24511401Y26498495D01*
X24336033Y26621289D01*
X24325405Y26628731D01*
X24281781Y26683308D01*
X24274588Y26752807D01*
X24306110Y26815161D01*
X24325405Y26831881D01*
X24511082Y26961895D01*
X24678105Y27128918D01*
X24808119Y27314595D01*
X24862696Y27358219D01*
X24932195Y27365412D01*
X24994549Y27333890D01*
G37*
%TD.AperFunction*%
%TD*%
M02*
