%TF.GenerationSoftware,KiCad,Pcbnew,8.0.3-8.0.3-0~ubuntu22.04.1*%
%TF.CreationDate,2025-01-19T16:51:49+01:00*%
%TF.ProjectId,ADC_pHAT_AFE_ADC10080,4144435f-7048-4415-945f-4146455f4144,rev?*%
%TF.SameCoordinates,PX5cbead0PY5705d50*%
%TF.FileFunction,Legend,Top*%
%TF.FilePolarity,Positive*%
%FSLAX46Y46*%
G04 Gerber Fmt 4.6, Leading zero omitted, Abs format (unit mm)*
G04 Created by KiCad (PCBNEW 8.0.3-8.0.3-0~ubuntu22.04.1) date 2025-01-19 16:51:49*
%MOMM*%
%LPD*%
G01*
G04 APERTURE LIST*
%ADD10C,0.150000*%
%ADD11C,0.100000*%
%ADD12C,0.120000*%
%ADD13C,0.000000*%
%ADD14C,0.200000*%
G04 APERTURE END LIST*
D10*
G36*
X11987175Y1694070D02*
G01*
X8806235Y1694070D01*
X8806235Y2535887D01*
X8917346Y2535887D01*
X8920910Y2521623D01*
X9156716Y1865500D01*
X9156895Y1861914D01*
X9161496Y1852200D01*
X9165284Y1841661D01*
X9167810Y1838871D01*
X9169422Y1835468D01*
X9177557Y1828103D01*
X9184923Y1819967D01*
X9188325Y1818356D01*
X9191116Y1815829D01*
X9201453Y1812138D01*
X9211369Y1807440D01*
X9215127Y1807254D01*
X9218675Y1805986D01*
X9229636Y1806532D01*
X9240597Y1805986D01*
X9244144Y1807254D01*
X9247903Y1807440D01*
X9257818Y1812138D01*
X9268156Y1815829D01*
X9270946Y1818356D01*
X9274349Y1819967D01*
X9281717Y1828107D01*
X9289850Y1835469D01*
X9291460Y1838870D01*
X9293988Y1841661D01*
X9300267Y1854956D01*
X9314412Y1894813D01*
X9679887Y1894813D01*
X9679887Y1865549D01*
X9691086Y1838513D01*
X9711778Y1817821D01*
X9738814Y1806622D01*
X9753446Y1805181D01*
X10387125Y1806622D01*
X10414161Y1817821D01*
X10434853Y1838513D01*
X10446052Y1865549D01*
X10446052Y1894813D01*
X10434853Y1921849D01*
X10414271Y1942431D01*
X10679887Y1942431D01*
X10679887Y1913168D01*
X10687490Y1894813D01*
X10691086Y1886132D01*
X10700413Y1874767D01*
X10759397Y1817821D01*
X10786433Y1806622D01*
X10786434Y1806622D01*
X10815696Y1806622D01*
X10815697Y1806622D01*
X10842733Y1817821D01*
X10854098Y1827148D01*
X10911044Y1886132D01*
X10914640Y1894813D01*
X11108458Y1894813D01*
X11108458Y1865549D01*
X11119657Y1838513D01*
X11140349Y1817821D01*
X11167385Y1806622D01*
X11182017Y1805181D01*
X11815696Y1806622D01*
X11842732Y1817821D01*
X11863424Y1838513D01*
X11874623Y1865549D01*
X11874623Y1894813D01*
X11863424Y1921849D01*
X11842732Y1942541D01*
X11815696Y1953740D01*
X11801064Y1955181D01*
X11361639Y1954182D01*
X11797151Y2391222D01*
X11799428Y2392360D01*
X11807099Y2401205D01*
X11815806Y2409942D01*
X11816837Y2412433D01*
X11818602Y2414467D01*
X11824596Y2427893D01*
X11870745Y2570475D01*
X11874623Y2579835D01*
X11874993Y2583599D01*
X11875475Y2585086D01*
X11875334Y2587061D01*
X11876064Y2594467D01*
X11874958Y2678775D01*
X11875475Y2680325D01*
X11874816Y2689596D01*
X11874623Y2704337D01*
X11873592Y2706826D01*
X11873401Y2709515D01*
X11868146Y2723246D01*
X11819454Y2817801D01*
X11815805Y2826611D01*
X11813422Y2829514D01*
X11812695Y2830927D01*
X11811196Y2832227D01*
X11806478Y2837976D01*
X11757442Y2885318D01*
X11751810Y2891812D01*
X11748664Y2893792D01*
X11747494Y2894922D01*
X11745666Y2895680D01*
X11739367Y2899644D01*
X11653478Y2941319D01*
X11652256Y2942541D01*
X11643390Y2946214D01*
X11630397Y2952518D01*
X11627709Y2952709D01*
X11625220Y2953740D01*
X11610588Y2955181D01*
X11383982Y2953889D01*
X11381873Y2954592D01*
X11370930Y2953815D01*
X11357861Y2953740D01*
X11355372Y2952710D01*
X11352683Y2952518D01*
X11338952Y2947263D01*
X11244397Y2898572D01*
X11235587Y2894922D01*
X11232684Y2892540D01*
X11231271Y2891812D01*
X11229971Y2890314D01*
X11224222Y2885595D01*
X11167276Y2826611D01*
X11156077Y2799574D01*
X11156077Y2770312D01*
X11167276Y2743275D01*
X11187968Y2722583D01*
X11215005Y2711384D01*
X11244267Y2711384D01*
X11271304Y2722583D01*
X11282669Y2731910D01*
X11319313Y2769867D01*
X11388064Y2805270D01*
X11590800Y2806426D01*
X11659422Y2773129D01*
X11690749Y2742885D01*
X11726271Y2673904D01*
X11727115Y2609541D01*
X11689676Y2493870D01*
X11119657Y1921849D01*
X11108458Y1894813D01*
X10914640Y1894813D01*
X10922243Y1913168D01*
X10922243Y1942431D01*
X10914639Y1960789D01*
X10911045Y1969467D01*
X10901717Y1980833D01*
X10842733Y2037780D01*
X10842732Y2037781D01*
X10826895Y2044341D01*
X10815697Y2048979D01*
X10815696Y2048979D01*
X10786433Y2048979D01*
X10775235Y2044341D01*
X10759398Y2037781D01*
X10759397Y2037780D01*
X10748031Y2028452D01*
X10691085Y1969467D01*
X10679887Y1942431D01*
X10414271Y1942431D01*
X10414161Y1942541D01*
X10387125Y1953740D01*
X10372493Y1955181D01*
X9933068Y1954182D01*
X10368580Y2391222D01*
X10370857Y2392360D01*
X10378528Y2401205D01*
X10387235Y2409942D01*
X10388266Y2412433D01*
X10390031Y2414467D01*
X10396025Y2427893D01*
X10442174Y2570475D01*
X10446052Y2579835D01*
X10446422Y2583599D01*
X10446904Y2585086D01*
X10446763Y2587061D01*
X10447493Y2594467D01*
X10446387Y2678775D01*
X10446904Y2680325D01*
X10446245Y2689596D01*
X10446052Y2704337D01*
X10445021Y2706826D01*
X10444830Y2709515D01*
X10439575Y2723246D01*
X10390883Y2817801D01*
X10387234Y2826611D01*
X10384851Y2829514D01*
X10384124Y2830927D01*
X10382625Y2832227D01*
X10377907Y2837976D01*
X10328871Y2885318D01*
X10323239Y2891812D01*
X10320093Y2893792D01*
X10318923Y2894922D01*
X10317095Y2895680D01*
X10310796Y2899644D01*
X10224907Y2941319D01*
X10223685Y2942541D01*
X10214819Y2946214D01*
X10201826Y2952518D01*
X10199138Y2952709D01*
X10196649Y2953740D01*
X10182017Y2955181D01*
X9955411Y2953889D01*
X9953302Y2954592D01*
X9942359Y2953815D01*
X9929290Y2953740D01*
X9926801Y2952710D01*
X9924112Y2952518D01*
X9910381Y2947263D01*
X9815826Y2898572D01*
X9807016Y2894922D01*
X9804113Y2892540D01*
X9802700Y2891812D01*
X9801400Y2890314D01*
X9795651Y2885595D01*
X9738705Y2826611D01*
X9727506Y2799574D01*
X9727506Y2770312D01*
X9738705Y2743275D01*
X9759397Y2722583D01*
X9786434Y2711384D01*
X9815696Y2711384D01*
X9842733Y2722583D01*
X9854098Y2731910D01*
X9890742Y2769867D01*
X9959493Y2805270D01*
X10162229Y2806426D01*
X10230851Y2773129D01*
X10262178Y2742885D01*
X10297700Y2673904D01*
X10298544Y2609541D01*
X10261105Y2493870D01*
X9691086Y1921849D01*
X9679887Y1894813D01*
X9314412Y1894813D01*
X9541926Y2535887D01*
X9540472Y2565114D01*
X9527945Y2591560D01*
X9506251Y2611200D01*
X9478692Y2621043D01*
X9449464Y2619589D01*
X9423018Y2607062D01*
X9403379Y2585368D01*
X9397100Y2572073D01*
X9229944Y2101075D01*
X9055893Y2585368D01*
X9036254Y2607062D01*
X9009808Y2619589D01*
X8980580Y2621043D01*
X8953021Y2611200D01*
X8931327Y2591561D01*
X8918800Y2565115D01*
X8917346Y2535887D01*
X8806235Y2535887D01*
X8806235Y3066292D01*
X11987175Y3066292D01*
X11987175Y1694070D01*
G37*
D11*
G36*
X63717823Y21495009D02*
G01*
X63718016Y21494720D01*
X63756697Y21459299D01*
X63798672Y21381346D01*
X63801691Y21101754D01*
X63421917Y21100336D01*
X63419017Y21368915D01*
X63455104Y21446909D01*
X63455393Y21447101D01*
X63490814Y21485783D01*
X63569028Y21527899D01*
X63641526Y21530311D01*
X63717823Y21495009D01*
G37*
G36*
X64241631Y21542628D02*
G01*
X64241825Y21542338D01*
X64280507Y21506918D01*
X64322474Y21428979D01*
X64325568Y21103711D01*
X63898088Y21102114D01*
X63895196Y21369922D01*
X63896043Y21371407D01*
X63935375Y21498863D01*
X63967004Y21533402D01*
X64045102Y21575455D01*
X64164615Y21578263D01*
X64241631Y21542628D01*
G37*
G36*
X64533530Y18892774D02*
G01*
X63211308Y18892774D01*
X63211308Y19644447D01*
X63326225Y19644447D01*
X63326225Y19606179D01*
X63353285Y19579119D01*
X63372419Y19575313D01*
X64163141Y19578945D01*
X64241631Y19542628D01*
X64241825Y19542338D01*
X64280507Y19506918D01*
X64322527Y19428882D01*
X64325555Y19262093D01*
X64289733Y19184673D01*
X64289445Y19184479D01*
X64254022Y19145797D01*
X64176137Y19103859D01*
X63353285Y19100079D01*
X63326225Y19073019D01*
X63326225Y19034751D01*
X63353285Y19007691D01*
X63372419Y19003885D01*
X64174808Y19007571D01*
X64185487Y19004011D01*
X64198887Y19007681D01*
X64201076Y19007691D01*
X64201887Y19008503D01*
X64204303Y19009164D01*
X64290003Y19055310D01*
X64296314Y19055310D01*
X64312535Y19066148D01*
X64314873Y19068702D01*
X64314952Y19068744D01*
X64314974Y19068813D01*
X64352330Y19109608D01*
X64357560Y19111350D01*
X64369521Y19126762D01*
X64412037Y19218652D01*
X64418613Y19225227D01*
X64421277Y19238621D01*
X64422293Y19240816D01*
X64421930Y19241905D01*
X64422419Y19244361D01*
X64419071Y19428718D01*
X64422293Y19438382D01*
X64418654Y19451667D01*
X64418613Y19453971D01*
X64417801Y19454783D01*
X64417140Y19457198D01*
X64370994Y19542899D01*
X64370994Y19549210D01*
X64360155Y19565431D01*
X64357603Y19567768D01*
X64357560Y19567848D01*
X64357489Y19567872D01*
X64316694Y19605227D01*
X64314952Y19610454D01*
X64299540Y19622416D01*
X64207651Y19664932D01*
X64201076Y19671507D01*
X64187682Y19674172D01*
X64185487Y19675187D01*
X64184398Y19674825D01*
X64181942Y19675313D01*
X63353285Y19671507D01*
X63326225Y19644447D01*
X63211308Y19644447D01*
X63211308Y20482456D01*
X63322419Y20482456D01*
X63325847Y20250725D01*
X63322545Y20240816D01*
X63326191Y20227502D01*
X63326225Y20225227D01*
X63327036Y20224416D01*
X63327698Y20222000D01*
X63373844Y20136300D01*
X63373844Y20129989D01*
X63384683Y20113768D01*
X63387234Y20111432D01*
X63387278Y20111351D01*
X63387347Y20111328D01*
X63428141Y20073973D01*
X63429884Y20068744D01*
X63445296Y20056783D01*
X63537185Y20014267D01*
X63543761Y20007691D01*
X63557154Y20005027D01*
X63559350Y20004011D01*
X63560438Y20004374D01*
X63562895Y20003885D01*
X63653054Y20006886D01*
X63661678Y20004011D01*
X63674817Y20007610D01*
X63677267Y20007691D01*
X63678078Y20008503D01*
X63680494Y20009164D01*
X63766194Y20055310D01*
X63772505Y20055310D01*
X63788726Y20066149D01*
X63791062Y20068701D01*
X63791143Y20068744D01*
X63791166Y20068814D01*
X63828521Y20109608D01*
X63833750Y20111350D01*
X63845711Y20126762D01*
X63885415Y20212575D01*
X63888783Y20214595D01*
X63897116Y20232234D01*
X63937899Y20408547D01*
X63940949Y20412476D01*
X63978913Y20494528D01*
X63979202Y20494720D01*
X64014623Y20533402D01*
X64092837Y20575518D01*
X64165335Y20577930D01*
X64241631Y20542628D01*
X64241825Y20542338D01*
X64280507Y20506918D01*
X64322506Y20428920D01*
X64325689Y20213790D01*
X64324985Y20212553D01*
X64274926Y20050341D01*
X64292040Y20016112D01*
X64328344Y20004011D01*
X64362573Y20021125D01*
X64372234Y20038074D01*
X64413813Y20172809D01*
X64418613Y20177608D01*
X64422419Y20196742D01*
X64418990Y20428475D01*
X64422293Y20438382D01*
X64418646Y20451697D01*
X64418613Y20453971D01*
X64417801Y20454783D01*
X64417140Y20457198D01*
X64370994Y20542899D01*
X64370994Y20549210D01*
X64360155Y20565431D01*
X64357603Y20567768D01*
X64357560Y20567848D01*
X64357489Y20567872D01*
X64316694Y20605227D01*
X64314952Y20610454D01*
X64299540Y20622416D01*
X64207651Y20664932D01*
X64201076Y20671507D01*
X64187682Y20674172D01*
X64185487Y20675187D01*
X64184398Y20674825D01*
X64181942Y20675313D01*
X64091781Y20672313D01*
X64083159Y20675187D01*
X64070019Y20671589D01*
X64067570Y20671507D01*
X64066758Y20670696D01*
X64064343Y20670034D01*
X63978642Y20623888D01*
X63972331Y20623888D01*
X63956110Y20613049D01*
X63953773Y20610498D01*
X63953693Y20610454D01*
X63953669Y20610384D01*
X63916315Y20569590D01*
X63911087Y20567847D01*
X63899125Y20552435D01*
X63859420Y20466624D01*
X63856054Y20464603D01*
X63847721Y20446964D01*
X63806937Y20270652D01*
X63803887Y20266721D01*
X63765923Y20184672D01*
X63765634Y20184478D01*
X63730214Y20145797D01*
X63651998Y20103681D01*
X63579502Y20101269D01*
X63503205Y20136571D01*
X63503012Y20136860D01*
X63464330Y20172280D01*
X63422331Y20250280D01*
X63419148Y20465409D01*
X63419853Y20466645D01*
X63469912Y20628857D01*
X63452798Y20663085D01*
X63416494Y20675187D01*
X63382265Y20658072D01*
X63372604Y20641124D01*
X63331024Y20506390D01*
X63326225Y20501590D01*
X63322419Y20482456D01*
X63211308Y20482456D01*
X63211308Y21387218D01*
X63322419Y21387218D01*
X63326225Y21034751D01*
X63353285Y21007691D01*
X63372419Y21003885D01*
X64391553Y21007691D01*
X64418613Y21034751D01*
X64422419Y21053885D01*
X64418859Y21428082D01*
X64422293Y21438382D01*
X64418634Y21451742D01*
X64418613Y21453971D01*
X64417801Y21454783D01*
X64417140Y21457198D01*
X64370994Y21542899D01*
X64370994Y21549210D01*
X64360155Y21565431D01*
X64357603Y21567768D01*
X64357560Y21567848D01*
X64357489Y21567872D01*
X64316694Y21605227D01*
X64314952Y21610454D01*
X64299540Y21622416D01*
X64207651Y21664932D01*
X64201076Y21671507D01*
X64187682Y21674172D01*
X64185487Y21675187D01*
X64184398Y21674825D01*
X64181942Y21675313D01*
X64044826Y21672092D01*
X64035540Y21675187D01*
X64022304Y21671563D01*
X64019951Y21671507D01*
X64019139Y21670696D01*
X64016724Y21670034D01*
X63931023Y21623888D01*
X63924712Y21623888D01*
X63908491Y21613049D01*
X63906154Y21610498D01*
X63906074Y21610454D01*
X63906050Y21610384D01*
X63865934Y21566574D01*
X63858455Y21562834D01*
X63851767Y21551102D01*
X63850034Y21549209D01*
X63850034Y21548062D01*
X63848794Y21545886D01*
X63838934Y21513937D01*
X63836345Y21517812D01*
X63833793Y21520149D01*
X63833750Y21520229D01*
X63833679Y21520253D01*
X63792885Y21557607D01*
X63791143Y21562835D01*
X63775731Y21574797D01*
X63683842Y21617313D01*
X63677267Y21623888D01*
X63663873Y21626553D01*
X63661678Y21627568D01*
X63660589Y21627206D01*
X63658133Y21627694D01*
X63567972Y21624694D01*
X63559350Y21627568D01*
X63546210Y21623970D01*
X63543761Y21623888D01*
X63542949Y21623077D01*
X63540534Y21622415D01*
X63454833Y21576269D01*
X63448522Y21576269D01*
X63432301Y21565430D01*
X63429964Y21562879D01*
X63429884Y21562835D01*
X63429860Y21562765D01*
X63392506Y21521971D01*
X63387278Y21520228D01*
X63375316Y21504816D01*
X63332800Y21412928D01*
X63326225Y21406352D01*
X63323560Y21392959D01*
X63322545Y21390763D01*
X63322907Y21389675D01*
X63322419Y21387218D01*
X63211308Y21387218D01*
X63211308Y21786424D01*
X64533530Y21786424D01*
X64533530Y18892774D01*
G37*
D10*
X50312295Y16140477D02*
X50959914Y16140477D01*
X50959914Y16140477D02*
X51036104Y16178572D01*
X51036104Y16178572D02*
X51074200Y16216667D01*
X51074200Y16216667D02*
X51112295Y16292858D01*
X51112295Y16292858D02*
X51112295Y16445239D01*
X51112295Y16445239D02*
X51074200Y16521429D01*
X51074200Y16521429D02*
X51036104Y16559524D01*
X51036104Y16559524D02*
X50959914Y16597620D01*
X50959914Y16597620D02*
X50312295Y16597620D01*
X50388485Y16940476D02*
X50350390Y16978572D01*
X50350390Y16978572D02*
X50312295Y17054762D01*
X50312295Y17054762D02*
X50312295Y17245238D01*
X50312295Y17245238D02*
X50350390Y17321429D01*
X50350390Y17321429D02*
X50388485Y17359524D01*
X50388485Y17359524D02*
X50464676Y17397619D01*
X50464676Y17397619D02*
X50540866Y17397619D01*
X50540866Y17397619D02*
X50655152Y17359524D01*
X50655152Y17359524D02*
X51112295Y16902381D01*
X51112295Y16902381D02*
X51112295Y17397619D01*
X52362295Y16597620D02*
X51981342Y16330953D01*
X52362295Y16140477D02*
X51562295Y16140477D01*
X51562295Y16140477D02*
X51562295Y16445239D01*
X51562295Y16445239D02*
X51600390Y16521429D01*
X51600390Y16521429D02*
X51638485Y16559524D01*
X51638485Y16559524D02*
X51714676Y16597620D01*
X51714676Y16597620D02*
X51828961Y16597620D01*
X51828961Y16597620D02*
X51905152Y16559524D01*
X51905152Y16559524D02*
X51943247Y16521429D01*
X51943247Y16521429D02*
X51981342Y16445239D01*
X51981342Y16445239D02*
X51981342Y16140477D01*
X51638485Y16902381D02*
X51600390Y16940477D01*
X51600390Y16940477D02*
X51562295Y17016667D01*
X51562295Y17016667D02*
X51562295Y17207143D01*
X51562295Y17207143D02*
X51600390Y17283334D01*
X51600390Y17283334D02*
X51638485Y17321429D01*
X51638485Y17321429D02*
X51714676Y17359524D01*
X51714676Y17359524D02*
X51790866Y17359524D01*
X51790866Y17359524D02*
X51905152Y17321429D01*
X51905152Y17321429D02*
X52362295Y16864286D01*
X52362295Y16864286D02*
X52362295Y17359524D01*
X27985714Y4033896D02*
X27947618Y3995800D01*
X27947618Y3995800D02*
X27833333Y3957705D01*
X27833333Y3957705D02*
X27757142Y3957705D01*
X27757142Y3957705D02*
X27642856Y3995800D01*
X27642856Y3995800D02*
X27566666Y4071991D01*
X27566666Y4071991D02*
X27528571Y4148181D01*
X27528571Y4148181D02*
X27490475Y4300562D01*
X27490475Y4300562D02*
X27490475Y4414848D01*
X27490475Y4414848D02*
X27528571Y4567229D01*
X27528571Y4567229D02*
X27566666Y4643420D01*
X27566666Y4643420D02*
X27642856Y4719610D01*
X27642856Y4719610D02*
X27757142Y4757705D01*
X27757142Y4757705D02*
X27833333Y4757705D01*
X27833333Y4757705D02*
X27947618Y4719610D01*
X27947618Y4719610D02*
X27985714Y4681515D01*
X28747618Y3957705D02*
X28290475Y3957705D01*
X28519047Y3957705D02*
X28519047Y4757705D01*
X28519047Y4757705D02*
X28442856Y4643420D01*
X28442856Y4643420D02*
X28366666Y4567229D01*
X28366666Y4567229D02*
X28290475Y4529134D01*
X29471428Y4757705D02*
X29090476Y4757705D01*
X29090476Y4757705D02*
X29052380Y4376753D01*
X29052380Y4376753D02*
X29090476Y4414848D01*
X29090476Y4414848D02*
X29166666Y4452943D01*
X29166666Y4452943D02*
X29357142Y4452943D01*
X29357142Y4452943D02*
X29433333Y4414848D01*
X29433333Y4414848D02*
X29471428Y4376753D01*
X29471428Y4376753D02*
X29509523Y4300562D01*
X29509523Y4300562D02*
X29509523Y4110086D01*
X29509523Y4110086D02*
X29471428Y4033896D01*
X29471428Y4033896D02*
X29433333Y3995800D01*
X29433333Y3995800D02*
X29357142Y3957705D01*
X29357142Y3957705D02*
X29166666Y3957705D01*
X29166666Y3957705D02*
X29090476Y3995800D01*
X29090476Y3995800D02*
X29052380Y4033896D01*
X33042295Y12809525D02*
X32242295Y12809525D01*
X32242295Y12809525D02*
X32242295Y13000001D01*
X32242295Y13000001D02*
X32280390Y13114287D01*
X32280390Y13114287D02*
X32356580Y13190477D01*
X32356580Y13190477D02*
X32432771Y13228572D01*
X32432771Y13228572D02*
X32585152Y13266668D01*
X32585152Y13266668D02*
X32699438Y13266668D01*
X32699438Y13266668D02*
X32851819Y13228572D01*
X32851819Y13228572D02*
X32928009Y13190477D01*
X32928009Y13190477D02*
X33004200Y13114287D01*
X33004200Y13114287D02*
X33042295Y13000001D01*
X33042295Y13000001D02*
X33042295Y12809525D01*
X32242295Y13533334D02*
X32242295Y14028572D01*
X32242295Y14028572D02*
X32547057Y13761906D01*
X32547057Y13761906D02*
X32547057Y13876191D01*
X32547057Y13876191D02*
X32585152Y13952382D01*
X32585152Y13952382D02*
X32623247Y13990477D01*
X32623247Y13990477D02*
X32699438Y14028572D01*
X32699438Y14028572D02*
X32889914Y14028572D01*
X32889914Y14028572D02*
X32966104Y13990477D01*
X32966104Y13990477D02*
X33004200Y13952382D01*
X33004200Y13952382D02*
X33042295Y13876191D01*
X33042295Y13876191D02*
X33042295Y13647620D01*
X33042295Y13647620D02*
X33004200Y13571429D01*
X33004200Y13571429D02*
X32966104Y13533334D01*
X23036104Y2985715D02*
X23074200Y2947619D01*
X23074200Y2947619D02*
X23112295Y2833334D01*
X23112295Y2833334D02*
X23112295Y2757143D01*
X23112295Y2757143D02*
X23074200Y2642857D01*
X23074200Y2642857D02*
X22998009Y2566667D01*
X22998009Y2566667D02*
X22921819Y2528572D01*
X22921819Y2528572D02*
X22769438Y2490476D01*
X22769438Y2490476D02*
X22655152Y2490476D01*
X22655152Y2490476D02*
X22502771Y2528572D01*
X22502771Y2528572D02*
X22426580Y2566667D01*
X22426580Y2566667D02*
X22350390Y2642857D01*
X22350390Y2642857D02*
X22312295Y2757143D01*
X22312295Y2757143D02*
X22312295Y2833334D01*
X22312295Y2833334D02*
X22350390Y2947619D01*
X22350390Y2947619D02*
X22388485Y2985715D01*
X23112295Y3747619D02*
X23112295Y3290476D01*
X23112295Y3519048D02*
X22312295Y3519048D01*
X22312295Y3519048D02*
X22426580Y3442857D01*
X22426580Y3442857D02*
X22502771Y3366667D01*
X22502771Y3366667D02*
X22540866Y3290476D01*
X22312295Y4014286D02*
X22312295Y4509524D01*
X22312295Y4509524D02*
X22617057Y4242858D01*
X22617057Y4242858D02*
X22617057Y4357143D01*
X22617057Y4357143D02*
X22655152Y4433334D01*
X22655152Y4433334D02*
X22693247Y4471429D01*
X22693247Y4471429D02*
X22769438Y4509524D01*
X22769438Y4509524D02*
X22959914Y4509524D01*
X22959914Y4509524D02*
X23036104Y4471429D01*
X23036104Y4471429D02*
X23074200Y4433334D01*
X23074200Y4433334D02*
X23112295Y4357143D01*
X23112295Y4357143D02*
X23112295Y4128572D01*
X23112295Y4128572D02*
X23074200Y4052381D01*
X23074200Y4052381D02*
X23036104Y4014286D01*
X26485714Y18887705D02*
X26219047Y19268658D01*
X26028571Y18887705D02*
X26028571Y19687705D01*
X26028571Y19687705D02*
X26333333Y19687705D01*
X26333333Y19687705D02*
X26409523Y19649610D01*
X26409523Y19649610D02*
X26447618Y19611515D01*
X26447618Y19611515D02*
X26485714Y19535324D01*
X26485714Y19535324D02*
X26485714Y19421039D01*
X26485714Y19421039D02*
X26447618Y19344848D01*
X26447618Y19344848D02*
X26409523Y19306753D01*
X26409523Y19306753D02*
X26333333Y19268658D01*
X26333333Y19268658D02*
X26028571Y19268658D01*
X27247618Y18887705D02*
X26790475Y18887705D01*
X27019047Y18887705D02*
X27019047Y19687705D01*
X27019047Y19687705D02*
X26942856Y19573420D01*
X26942856Y19573420D02*
X26866666Y19497229D01*
X26866666Y19497229D02*
X26790475Y19459134D01*
X28009523Y18887705D02*
X27552380Y18887705D01*
X27780952Y18887705D02*
X27780952Y19687705D01*
X27780952Y19687705D02*
X27704761Y19573420D01*
X27704761Y19573420D02*
X27628571Y19497229D01*
X27628571Y19497229D02*
X27552380Y19459134D01*
X38786104Y13366668D02*
X38824200Y13328572D01*
X38824200Y13328572D02*
X38862295Y13214287D01*
X38862295Y13214287D02*
X38862295Y13138096D01*
X38862295Y13138096D02*
X38824200Y13023810D01*
X38824200Y13023810D02*
X38748009Y12947620D01*
X38748009Y12947620D02*
X38671819Y12909525D01*
X38671819Y12909525D02*
X38519438Y12871429D01*
X38519438Y12871429D02*
X38405152Y12871429D01*
X38405152Y12871429D02*
X38252771Y12909525D01*
X38252771Y12909525D02*
X38176580Y12947620D01*
X38176580Y12947620D02*
X38100390Y13023810D01*
X38100390Y13023810D02*
X38062295Y13138096D01*
X38062295Y13138096D02*
X38062295Y13214287D01*
X38062295Y13214287D02*
X38100390Y13328572D01*
X38100390Y13328572D02*
X38138485Y13366668D01*
X38862295Y13747620D02*
X38862295Y13900001D01*
X38862295Y13900001D02*
X38824200Y13976191D01*
X38824200Y13976191D02*
X38786104Y14014287D01*
X38786104Y14014287D02*
X38671819Y14090477D01*
X38671819Y14090477D02*
X38519438Y14128572D01*
X38519438Y14128572D02*
X38214676Y14128572D01*
X38214676Y14128572D02*
X38138485Y14090477D01*
X38138485Y14090477D02*
X38100390Y14052382D01*
X38100390Y14052382D02*
X38062295Y13976191D01*
X38062295Y13976191D02*
X38062295Y13823810D01*
X38062295Y13823810D02*
X38100390Y13747620D01*
X38100390Y13747620D02*
X38138485Y13709525D01*
X38138485Y13709525D02*
X38214676Y13671429D01*
X38214676Y13671429D02*
X38405152Y13671429D01*
X38405152Y13671429D02*
X38481342Y13709525D01*
X38481342Y13709525D02*
X38519438Y13747620D01*
X38519438Y13747620D02*
X38557533Y13823810D01*
X38557533Y13823810D02*
X38557533Y13976191D01*
X38557533Y13976191D02*
X38519438Y14052382D01*
X38519438Y14052382D02*
X38481342Y14090477D01*
X38481342Y14090477D02*
X38405152Y14128572D01*
X21962295Y17385715D02*
X21581342Y17119048D01*
X21962295Y16928572D02*
X21162295Y16928572D01*
X21162295Y16928572D02*
X21162295Y17233334D01*
X21162295Y17233334D02*
X21200390Y17309524D01*
X21200390Y17309524D02*
X21238485Y17347619D01*
X21238485Y17347619D02*
X21314676Y17385715D01*
X21314676Y17385715D02*
X21428961Y17385715D01*
X21428961Y17385715D02*
X21505152Y17347619D01*
X21505152Y17347619D02*
X21543247Y17309524D01*
X21543247Y17309524D02*
X21581342Y17233334D01*
X21581342Y17233334D02*
X21581342Y16928572D01*
X21962295Y18147619D02*
X21962295Y17690476D01*
X21962295Y17919048D02*
X21162295Y17919048D01*
X21162295Y17919048D02*
X21276580Y17842857D01*
X21276580Y17842857D02*
X21352771Y17766667D01*
X21352771Y17766667D02*
X21390866Y17690476D01*
X21428961Y18833334D02*
X21962295Y18833334D01*
X21124200Y18642858D02*
X21695628Y18452381D01*
X21695628Y18452381D02*
X21695628Y18947620D01*
X30552295Y11091668D02*
X30171342Y10825001D01*
X30552295Y10634525D02*
X29752295Y10634525D01*
X29752295Y10634525D02*
X29752295Y10939287D01*
X29752295Y10939287D02*
X29790390Y11015477D01*
X29790390Y11015477D02*
X29828485Y11053572D01*
X29828485Y11053572D02*
X29904676Y11091668D01*
X29904676Y11091668D02*
X30018961Y11091668D01*
X30018961Y11091668D02*
X30095152Y11053572D01*
X30095152Y11053572D02*
X30133247Y11015477D01*
X30133247Y11015477D02*
X30171342Y10939287D01*
X30171342Y10939287D02*
X30171342Y10634525D01*
X29752295Y11358334D02*
X29752295Y11853572D01*
X29752295Y11853572D02*
X30057057Y11586906D01*
X30057057Y11586906D02*
X30057057Y11701191D01*
X30057057Y11701191D02*
X30095152Y11777382D01*
X30095152Y11777382D02*
X30133247Y11815477D01*
X30133247Y11815477D02*
X30209438Y11853572D01*
X30209438Y11853572D02*
X30399914Y11853572D01*
X30399914Y11853572D02*
X30476104Y11815477D01*
X30476104Y11815477D02*
X30514200Y11777382D01*
X30514200Y11777382D02*
X30552295Y11701191D01*
X30552295Y11701191D02*
X30552295Y11472620D01*
X30552295Y11472620D02*
X30514200Y11396429D01*
X30514200Y11396429D02*
X30476104Y11358334D01*
X10362295Y18409525D02*
X9562295Y18409525D01*
X9562295Y18409525D02*
X9562295Y18600001D01*
X9562295Y18600001D02*
X9600390Y18714287D01*
X9600390Y18714287D02*
X9676580Y18790477D01*
X9676580Y18790477D02*
X9752771Y18828572D01*
X9752771Y18828572D02*
X9905152Y18866668D01*
X9905152Y18866668D02*
X10019438Y18866668D01*
X10019438Y18866668D02*
X10171819Y18828572D01*
X10171819Y18828572D02*
X10248009Y18790477D01*
X10248009Y18790477D02*
X10324200Y18714287D01*
X10324200Y18714287D02*
X10362295Y18600001D01*
X10362295Y18600001D02*
X10362295Y18409525D01*
X9638485Y19171429D02*
X9600390Y19209525D01*
X9600390Y19209525D02*
X9562295Y19285715D01*
X9562295Y19285715D02*
X9562295Y19476191D01*
X9562295Y19476191D02*
X9600390Y19552382D01*
X9600390Y19552382D02*
X9638485Y19590477D01*
X9638485Y19590477D02*
X9714676Y19628572D01*
X9714676Y19628572D02*
X9790866Y19628572D01*
X9790866Y19628572D02*
X9905152Y19590477D01*
X9905152Y19590477D02*
X10362295Y19133334D01*
X10362295Y19133334D02*
X10362295Y19628572D01*
X6516667Y20887705D02*
X6250000Y21268658D01*
X6059524Y20887705D02*
X6059524Y21687705D01*
X6059524Y21687705D02*
X6364286Y21687705D01*
X6364286Y21687705D02*
X6440476Y21649610D01*
X6440476Y21649610D02*
X6478571Y21611515D01*
X6478571Y21611515D02*
X6516667Y21535324D01*
X6516667Y21535324D02*
X6516667Y21421039D01*
X6516667Y21421039D02*
X6478571Y21344848D01*
X6478571Y21344848D02*
X6440476Y21306753D01*
X6440476Y21306753D02*
X6364286Y21268658D01*
X6364286Y21268658D02*
X6059524Y21268658D01*
X7240476Y21687705D02*
X6859524Y21687705D01*
X6859524Y21687705D02*
X6821428Y21306753D01*
X6821428Y21306753D02*
X6859524Y21344848D01*
X6859524Y21344848D02*
X6935714Y21382943D01*
X6935714Y21382943D02*
X7126190Y21382943D01*
X7126190Y21382943D02*
X7202381Y21344848D01*
X7202381Y21344848D02*
X7240476Y21306753D01*
X7240476Y21306753D02*
X7278571Y21230562D01*
X7278571Y21230562D02*
X7278571Y21040086D01*
X7278571Y21040086D02*
X7240476Y20963896D01*
X7240476Y20963896D02*
X7202381Y20925800D01*
X7202381Y20925800D02*
X7126190Y20887705D01*
X7126190Y20887705D02*
X6935714Y20887705D01*
X6935714Y20887705D02*
X6859524Y20925800D01*
X6859524Y20925800D02*
X6821428Y20963896D01*
X19640476Y21687705D02*
X19640476Y21040086D01*
X19640476Y21040086D02*
X19678571Y20963896D01*
X19678571Y20963896D02*
X19716666Y20925800D01*
X19716666Y20925800D02*
X19792857Y20887705D01*
X19792857Y20887705D02*
X19945238Y20887705D01*
X19945238Y20887705D02*
X20021428Y20925800D01*
X20021428Y20925800D02*
X20059523Y20963896D01*
X20059523Y20963896D02*
X20097619Y21040086D01*
X20097619Y21040086D02*
X20097619Y21687705D01*
X20592856Y21344848D02*
X20516666Y21382943D01*
X20516666Y21382943D02*
X20478571Y21421039D01*
X20478571Y21421039D02*
X20440475Y21497229D01*
X20440475Y21497229D02*
X20440475Y21535324D01*
X20440475Y21535324D02*
X20478571Y21611515D01*
X20478571Y21611515D02*
X20516666Y21649610D01*
X20516666Y21649610D02*
X20592856Y21687705D01*
X20592856Y21687705D02*
X20745237Y21687705D01*
X20745237Y21687705D02*
X20821428Y21649610D01*
X20821428Y21649610D02*
X20859523Y21611515D01*
X20859523Y21611515D02*
X20897618Y21535324D01*
X20897618Y21535324D02*
X20897618Y21497229D01*
X20897618Y21497229D02*
X20859523Y21421039D01*
X20859523Y21421039D02*
X20821428Y21382943D01*
X20821428Y21382943D02*
X20745237Y21344848D01*
X20745237Y21344848D02*
X20592856Y21344848D01*
X20592856Y21344848D02*
X20516666Y21306753D01*
X20516666Y21306753D02*
X20478571Y21268658D01*
X20478571Y21268658D02*
X20440475Y21192467D01*
X20440475Y21192467D02*
X20440475Y21040086D01*
X20440475Y21040086D02*
X20478571Y20963896D01*
X20478571Y20963896D02*
X20516666Y20925800D01*
X20516666Y20925800D02*
X20592856Y20887705D01*
X20592856Y20887705D02*
X20745237Y20887705D01*
X20745237Y20887705D02*
X20821428Y20925800D01*
X20821428Y20925800D02*
X20859523Y20963896D01*
X20859523Y20963896D02*
X20897618Y21040086D01*
X20897618Y21040086D02*
X20897618Y21192467D01*
X20897618Y21192467D02*
X20859523Y21268658D01*
X20859523Y21268658D02*
X20821428Y21306753D01*
X20821428Y21306753D02*
X20745237Y21344848D01*
X9362295Y18409525D02*
X8562295Y18409525D01*
X8562295Y18409525D02*
X8562295Y18600001D01*
X8562295Y18600001D02*
X8600390Y18714287D01*
X8600390Y18714287D02*
X8676580Y18790477D01*
X8676580Y18790477D02*
X8752771Y18828572D01*
X8752771Y18828572D02*
X8905152Y18866668D01*
X8905152Y18866668D02*
X9019438Y18866668D01*
X9019438Y18866668D02*
X9171819Y18828572D01*
X9171819Y18828572D02*
X9248009Y18790477D01*
X9248009Y18790477D02*
X9324200Y18714287D01*
X9324200Y18714287D02*
X9362295Y18600001D01*
X9362295Y18600001D02*
X9362295Y18409525D01*
X9362295Y19628572D02*
X9362295Y19171429D01*
X9362295Y19400001D02*
X8562295Y19400001D01*
X8562295Y19400001D02*
X8676580Y19323810D01*
X8676580Y19323810D02*
X8752771Y19247620D01*
X8752771Y19247620D02*
X8790866Y19171429D01*
X25640476Y6437705D02*
X25640476Y5790086D01*
X25640476Y5790086D02*
X25678571Y5713896D01*
X25678571Y5713896D02*
X25716666Y5675800D01*
X25716666Y5675800D02*
X25792857Y5637705D01*
X25792857Y5637705D02*
X25945238Y5637705D01*
X25945238Y5637705D02*
X26021428Y5675800D01*
X26021428Y5675800D02*
X26059523Y5713896D01*
X26059523Y5713896D02*
X26097619Y5790086D01*
X26097619Y5790086D02*
X26097619Y6437705D01*
X26402380Y6437705D02*
X26897618Y6437705D01*
X26897618Y6437705D02*
X26630952Y6132943D01*
X26630952Y6132943D02*
X26745237Y6132943D01*
X26745237Y6132943D02*
X26821428Y6094848D01*
X26821428Y6094848D02*
X26859523Y6056753D01*
X26859523Y6056753D02*
X26897618Y5980562D01*
X26897618Y5980562D02*
X26897618Y5790086D01*
X26897618Y5790086D02*
X26859523Y5713896D01*
X26859523Y5713896D02*
X26821428Y5675800D01*
X26821428Y5675800D02*
X26745237Y5637705D01*
X26745237Y5637705D02*
X26516666Y5637705D01*
X26516666Y5637705D02*
X26440475Y5675800D01*
X26440475Y5675800D02*
X26402380Y5713896D01*
X15235714Y17887705D02*
X14969047Y18268658D01*
X14778571Y17887705D02*
X14778571Y18687705D01*
X14778571Y18687705D02*
X15083333Y18687705D01*
X15083333Y18687705D02*
X15159523Y18649610D01*
X15159523Y18649610D02*
X15197618Y18611515D01*
X15197618Y18611515D02*
X15235714Y18535324D01*
X15235714Y18535324D02*
X15235714Y18421039D01*
X15235714Y18421039D02*
X15197618Y18344848D01*
X15197618Y18344848D02*
X15159523Y18306753D01*
X15159523Y18306753D02*
X15083333Y18268658D01*
X15083333Y18268658D02*
X14778571Y18268658D01*
X15997618Y17887705D02*
X15540475Y17887705D01*
X15769047Y17887705D02*
X15769047Y18687705D01*
X15769047Y18687705D02*
X15692856Y18573420D01*
X15692856Y18573420D02*
X15616666Y18497229D01*
X15616666Y18497229D02*
X15540475Y18459134D01*
X16378571Y17887705D02*
X16530952Y17887705D01*
X16530952Y17887705D02*
X16607142Y17925800D01*
X16607142Y17925800D02*
X16645238Y17963896D01*
X16645238Y17963896D02*
X16721428Y18078181D01*
X16721428Y18078181D02*
X16759523Y18230562D01*
X16759523Y18230562D02*
X16759523Y18535324D01*
X16759523Y18535324D02*
X16721428Y18611515D01*
X16721428Y18611515D02*
X16683333Y18649610D01*
X16683333Y18649610D02*
X16607142Y18687705D01*
X16607142Y18687705D02*
X16454761Y18687705D01*
X16454761Y18687705D02*
X16378571Y18649610D01*
X16378571Y18649610D02*
X16340476Y18611515D01*
X16340476Y18611515D02*
X16302380Y18535324D01*
X16302380Y18535324D02*
X16302380Y18344848D01*
X16302380Y18344848D02*
X16340476Y18268658D01*
X16340476Y18268658D02*
X16378571Y18230562D01*
X16378571Y18230562D02*
X16454761Y18192467D01*
X16454761Y18192467D02*
X16607142Y18192467D01*
X16607142Y18192467D02*
X16683333Y18230562D01*
X16683333Y18230562D02*
X16721428Y18268658D01*
X16721428Y18268658D02*
X16759523Y18344848D01*
X667731Y8255705D02*
X667731Y7684277D01*
X667731Y7684277D02*
X629636Y7569991D01*
X629636Y7569991D02*
X553445Y7493800D01*
X553445Y7493800D02*
X439160Y7455705D01*
X439160Y7455705D02*
X362969Y7455705D01*
X972493Y8255705D02*
X1467731Y8255705D01*
X1467731Y8255705D02*
X1201065Y7950943D01*
X1201065Y7950943D02*
X1315350Y7950943D01*
X1315350Y7950943D02*
X1391541Y7912848D01*
X1391541Y7912848D02*
X1429636Y7874753D01*
X1429636Y7874753D02*
X1467731Y7798562D01*
X1467731Y7798562D02*
X1467731Y7608086D01*
X1467731Y7608086D02*
X1429636Y7531896D01*
X1429636Y7531896D02*
X1391541Y7493800D01*
X1391541Y7493800D02*
X1315350Y7455705D01*
X1315350Y7455705D02*
X1086779Y7455705D01*
X1086779Y7455705D02*
X1010588Y7493800D01*
X1010588Y7493800D02*
X972493Y7531896D01*
X55693247Y16407143D02*
X55693247Y16140477D01*
X56112295Y16140477D02*
X55312295Y16140477D01*
X55312295Y16140477D02*
X55312295Y16521429D01*
X55693247Y17092857D02*
X55731342Y17207143D01*
X55731342Y17207143D02*
X55769438Y17245238D01*
X55769438Y17245238D02*
X55845628Y17283334D01*
X55845628Y17283334D02*
X55959914Y17283334D01*
X55959914Y17283334D02*
X56036104Y17245238D01*
X56036104Y17245238D02*
X56074200Y17207143D01*
X56074200Y17207143D02*
X56112295Y17130953D01*
X56112295Y17130953D02*
X56112295Y16826191D01*
X56112295Y16826191D02*
X55312295Y16826191D01*
X55312295Y16826191D02*
X55312295Y17092857D01*
X55312295Y17092857D02*
X55350390Y17169048D01*
X55350390Y17169048D02*
X55388485Y17207143D01*
X55388485Y17207143D02*
X55464676Y17245238D01*
X55464676Y17245238D02*
X55540866Y17245238D01*
X55540866Y17245238D02*
X55617057Y17207143D01*
X55617057Y17207143D02*
X55655152Y17169048D01*
X55655152Y17169048D02*
X55693247Y17092857D01*
X55693247Y17092857D02*
X55693247Y16826191D01*
X55388485Y17588095D02*
X55350390Y17626191D01*
X55350390Y17626191D02*
X55312295Y17702381D01*
X55312295Y17702381D02*
X55312295Y17892857D01*
X55312295Y17892857D02*
X55350390Y17969048D01*
X55350390Y17969048D02*
X55388485Y18007143D01*
X55388485Y18007143D02*
X55464676Y18045238D01*
X55464676Y18045238D02*
X55540866Y18045238D01*
X55540866Y18045238D02*
X55655152Y18007143D01*
X55655152Y18007143D02*
X56112295Y17550000D01*
X56112295Y17550000D02*
X56112295Y18045238D01*
X9790476Y5237705D02*
X9790476Y4590086D01*
X9790476Y4590086D02*
X9828571Y4513896D01*
X9828571Y4513896D02*
X9866666Y4475800D01*
X9866666Y4475800D02*
X9942857Y4437705D01*
X9942857Y4437705D02*
X10095238Y4437705D01*
X10095238Y4437705D02*
X10171428Y4475800D01*
X10171428Y4475800D02*
X10209523Y4513896D01*
X10209523Y4513896D02*
X10247619Y4590086D01*
X10247619Y4590086D02*
X10247619Y5237705D01*
X10971428Y4971039D02*
X10971428Y4437705D01*
X10780952Y5275800D02*
X10590475Y4704372D01*
X10590475Y4704372D02*
X11085714Y4704372D01*
X9235714Y14713896D02*
X9197618Y14675800D01*
X9197618Y14675800D02*
X9083333Y14637705D01*
X9083333Y14637705D02*
X9007142Y14637705D01*
X9007142Y14637705D02*
X8892856Y14675800D01*
X8892856Y14675800D02*
X8816666Y14751991D01*
X8816666Y14751991D02*
X8778571Y14828181D01*
X8778571Y14828181D02*
X8740475Y14980562D01*
X8740475Y14980562D02*
X8740475Y15094848D01*
X8740475Y15094848D02*
X8778571Y15247229D01*
X8778571Y15247229D02*
X8816666Y15323420D01*
X8816666Y15323420D02*
X8892856Y15399610D01*
X8892856Y15399610D02*
X9007142Y15437705D01*
X9007142Y15437705D02*
X9083333Y15437705D01*
X9083333Y15437705D02*
X9197618Y15399610D01*
X9197618Y15399610D02*
X9235714Y15361515D01*
X9997618Y14637705D02*
X9540475Y14637705D01*
X9769047Y14637705D02*
X9769047Y15437705D01*
X9769047Y15437705D02*
X9692856Y15323420D01*
X9692856Y15323420D02*
X9616666Y15247229D01*
X9616666Y15247229D02*
X9540475Y15209134D01*
X10454761Y15094848D02*
X10378571Y15132943D01*
X10378571Y15132943D02*
X10340476Y15171039D01*
X10340476Y15171039D02*
X10302380Y15247229D01*
X10302380Y15247229D02*
X10302380Y15285324D01*
X10302380Y15285324D02*
X10340476Y15361515D01*
X10340476Y15361515D02*
X10378571Y15399610D01*
X10378571Y15399610D02*
X10454761Y15437705D01*
X10454761Y15437705D02*
X10607142Y15437705D01*
X10607142Y15437705D02*
X10683333Y15399610D01*
X10683333Y15399610D02*
X10721428Y15361515D01*
X10721428Y15361515D02*
X10759523Y15285324D01*
X10759523Y15285324D02*
X10759523Y15247229D01*
X10759523Y15247229D02*
X10721428Y15171039D01*
X10721428Y15171039D02*
X10683333Y15132943D01*
X10683333Y15132943D02*
X10607142Y15094848D01*
X10607142Y15094848D02*
X10454761Y15094848D01*
X10454761Y15094848D02*
X10378571Y15056753D01*
X10378571Y15056753D02*
X10340476Y15018658D01*
X10340476Y15018658D02*
X10302380Y14942467D01*
X10302380Y14942467D02*
X10302380Y14790086D01*
X10302380Y14790086D02*
X10340476Y14713896D01*
X10340476Y14713896D02*
X10378571Y14675800D01*
X10378571Y14675800D02*
X10454761Y14637705D01*
X10454761Y14637705D02*
X10607142Y14637705D01*
X10607142Y14637705D02*
X10683333Y14675800D01*
X10683333Y14675800D02*
X10721428Y14713896D01*
X10721428Y14713896D02*
X10759523Y14790086D01*
X10759523Y14790086D02*
X10759523Y14942467D01*
X10759523Y14942467D02*
X10721428Y15018658D01*
X10721428Y15018658D02*
X10683333Y15056753D01*
X10683333Y15056753D02*
X10607142Y15094848D01*
X30012295Y15185715D02*
X29631342Y14919048D01*
X30012295Y14728572D02*
X29212295Y14728572D01*
X29212295Y14728572D02*
X29212295Y15033334D01*
X29212295Y15033334D02*
X29250390Y15109524D01*
X29250390Y15109524D02*
X29288485Y15147619D01*
X29288485Y15147619D02*
X29364676Y15185715D01*
X29364676Y15185715D02*
X29478961Y15185715D01*
X29478961Y15185715D02*
X29555152Y15147619D01*
X29555152Y15147619D02*
X29593247Y15109524D01*
X29593247Y15109524D02*
X29631342Y15033334D01*
X29631342Y15033334D02*
X29631342Y14728572D01*
X30012295Y15947619D02*
X30012295Y15490476D01*
X30012295Y15719048D02*
X29212295Y15719048D01*
X29212295Y15719048D02*
X29326580Y15642857D01*
X29326580Y15642857D02*
X29402771Y15566667D01*
X29402771Y15566667D02*
X29440866Y15490476D01*
X29212295Y16214286D02*
X29212295Y16709524D01*
X29212295Y16709524D02*
X29517057Y16442858D01*
X29517057Y16442858D02*
X29517057Y16557143D01*
X29517057Y16557143D02*
X29555152Y16633334D01*
X29555152Y16633334D02*
X29593247Y16671429D01*
X29593247Y16671429D02*
X29669438Y16709524D01*
X29669438Y16709524D02*
X29859914Y16709524D01*
X29859914Y16709524D02*
X29936104Y16671429D01*
X29936104Y16671429D02*
X29974200Y16633334D01*
X29974200Y16633334D02*
X30012295Y16557143D01*
X30012295Y16557143D02*
X30012295Y16328572D01*
X30012295Y16328572D02*
X29974200Y16252381D01*
X29974200Y16252381D02*
X29936104Y16214286D01*
X54786104Y16597620D02*
X54824200Y16559524D01*
X54824200Y16559524D02*
X54862295Y16445239D01*
X54862295Y16445239D02*
X54862295Y16369048D01*
X54862295Y16369048D02*
X54824200Y16254762D01*
X54824200Y16254762D02*
X54748009Y16178572D01*
X54748009Y16178572D02*
X54671819Y16140477D01*
X54671819Y16140477D02*
X54519438Y16102381D01*
X54519438Y16102381D02*
X54405152Y16102381D01*
X54405152Y16102381D02*
X54252771Y16140477D01*
X54252771Y16140477D02*
X54176580Y16178572D01*
X54176580Y16178572D02*
X54100390Y16254762D01*
X54100390Y16254762D02*
X54062295Y16369048D01*
X54062295Y16369048D02*
X54062295Y16445239D01*
X54062295Y16445239D02*
X54100390Y16559524D01*
X54100390Y16559524D02*
X54138485Y16597620D01*
X54062295Y16864286D02*
X54062295Y17359524D01*
X54062295Y17359524D02*
X54367057Y17092858D01*
X54367057Y17092858D02*
X54367057Y17207143D01*
X54367057Y17207143D02*
X54405152Y17283334D01*
X54405152Y17283334D02*
X54443247Y17321429D01*
X54443247Y17321429D02*
X54519438Y17359524D01*
X54519438Y17359524D02*
X54709914Y17359524D01*
X54709914Y17359524D02*
X54786104Y17321429D01*
X54786104Y17321429D02*
X54824200Y17283334D01*
X54824200Y17283334D02*
X54862295Y17207143D01*
X54862295Y17207143D02*
X54862295Y16978572D01*
X54862295Y16978572D02*
X54824200Y16902381D01*
X54824200Y16902381D02*
X54786104Y16864286D01*
X44469048Y6887705D02*
X44469048Y7687705D01*
X45307143Y6963896D02*
X45269047Y6925800D01*
X45269047Y6925800D02*
X45154762Y6887705D01*
X45154762Y6887705D02*
X45078571Y6887705D01*
X45078571Y6887705D02*
X44964285Y6925800D01*
X44964285Y6925800D02*
X44888095Y7001991D01*
X44888095Y7001991D02*
X44850000Y7078181D01*
X44850000Y7078181D02*
X44811904Y7230562D01*
X44811904Y7230562D02*
X44811904Y7344848D01*
X44811904Y7344848D02*
X44850000Y7497229D01*
X44850000Y7497229D02*
X44888095Y7573420D01*
X44888095Y7573420D02*
X44964285Y7649610D01*
X44964285Y7649610D02*
X45078571Y7687705D01*
X45078571Y7687705D02*
X45154762Y7687705D01*
X45154762Y7687705D02*
X45269047Y7649610D01*
X45269047Y7649610D02*
X45307143Y7611515D01*
X46069047Y6887705D02*
X45611904Y6887705D01*
X45840476Y6887705D02*
X45840476Y7687705D01*
X45840476Y7687705D02*
X45764285Y7573420D01*
X45764285Y7573420D02*
X45688095Y7497229D01*
X45688095Y7497229D02*
X45611904Y7459134D01*
X35786104Y13366668D02*
X35824200Y13328572D01*
X35824200Y13328572D02*
X35862295Y13214287D01*
X35862295Y13214287D02*
X35862295Y13138096D01*
X35862295Y13138096D02*
X35824200Y13023810D01*
X35824200Y13023810D02*
X35748009Y12947620D01*
X35748009Y12947620D02*
X35671819Y12909525D01*
X35671819Y12909525D02*
X35519438Y12871429D01*
X35519438Y12871429D02*
X35405152Y12871429D01*
X35405152Y12871429D02*
X35252771Y12909525D01*
X35252771Y12909525D02*
X35176580Y12947620D01*
X35176580Y12947620D02*
X35100390Y13023810D01*
X35100390Y13023810D02*
X35062295Y13138096D01*
X35062295Y13138096D02*
X35062295Y13214287D01*
X35062295Y13214287D02*
X35100390Y13328572D01*
X35100390Y13328572D02*
X35138485Y13366668D01*
X35062295Y13633334D02*
X35062295Y14166668D01*
X35062295Y14166668D02*
X35862295Y13823810D01*
X36786104Y20366668D02*
X36824200Y20328572D01*
X36824200Y20328572D02*
X36862295Y20214287D01*
X36862295Y20214287D02*
X36862295Y20138096D01*
X36862295Y20138096D02*
X36824200Y20023810D01*
X36824200Y20023810D02*
X36748009Y19947620D01*
X36748009Y19947620D02*
X36671819Y19909525D01*
X36671819Y19909525D02*
X36519438Y19871429D01*
X36519438Y19871429D02*
X36405152Y19871429D01*
X36405152Y19871429D02*
X36252771Y19909525D01*
X36252771Y19909525D02*
X36176580Y19947620D01*
X36176580Y19947620D02*
X36100390Y20023810D01*
X36100390Y20023810D02*
X36062295Y20138096D01*
X36062295Y20138096D02*
X36062295Y20214287D01*
X36062295Y20214287D02*
X36100390Y20328572D01*
X36100390Y20328572D02*
X36138485Y20366668D01*
X36138485Y20671429D02*
X36100390Y20709525D01*
X36100390Y20709525D02*
X36062295Y20785715D01*
X36062295Y20785715D02*
X36062295Y20976191D01*
X36062295Y20976191D02*
X36100390Y21052382D01*
X36100390Y21052382D02*
X36138485Y21090477D01*
X36138485Y21090477D02*
X36214676Y21128572D01*
X36214676Y21128572D02*
X36290866Y21128572D01*
X36290866Y21128572D02*
X36405152Y21090477D01*
X36405152Y21090477D02*
X36862295Y20633334D01*
X36862295Y20633334D02*
X36862295Y21128572D01*
X35786104Y20366668D02*
X35824200Y20328572D01*
X35824200Y20328572D02*
X35862295Y20214287D01*
X35862295Y20214287D02*
X35862295Y20138096D01*
X35862295Y20138096D02*
X35824200Y20023810D01*
X35824200Y20023810D02*
X35748009Y19947620D01*
X35748009Y19947620D02*
X35671819Y19909525D01*
X35671819Y19909525D02*
X35519438Y19871429D01*
X35519438Y19871429D02*
X35405152Y19871429D01*
X35405152Y19871429D02*
X35252771Y19909525D01*
X35252771Y19909525D02*
X35176580Y19947620D01*
X35176580Y19947620D02*
X35100390Y20023810D01*
X35100390Y20023810D02*
X35062295Y20138096D01*
X35062295Y20138096D02*
X35062295Y20214287D01*
X35062295Y20214287D02*
X35100390Y20328572D01*
X35100390Y20328572D02*
X35138485Y20366668D01*
X35862295Y21128572D02*
X35862295Y20671429D01*
X35862295Y20900001D02*
X35062295Y20900001D01*
X35062295Y20900001D02*
X35176580Y20823810D01*
X35176580Y20823810D02*
X35252771Y20747620D01*
X35252771Y20747620D02*
X35290866Y20671429D01*
X15566667Y737705D02*
X15300000Y1118658D01*
X15109524Y737705D02*
X15109524Y1537705D01*
X15109524Y1537705D02*
X15414286Y1537705D01*
X15414286Y1537705D02*
X15490476Y1499610D01*
X15490476Y1499610D02*
X15528571Y1461515D01*
X15528571Y1461515D02*
X15566667Y1385324D01*
X15566667Y1385324D02*
X15566667Y1271039D01*
X15566667Y1271039D02*
X15528571Y1194848D01*
X15528571Y1194848D02*
X15490476Y1156753D01*
X15490476Y1156753D02*
X15414286Y1118658D01*
X15414286Y1118658D02*
X15109524Y1118658D01*
X16023809Y1194848D02*
X15947619Y1232943D01*
X15947619Y1232943D02*
X15909524Y1271039D01*
X15909524Y1271039D02*
X15871428Y1347229D01*
X15871428Y1347229D02*
X15871428Y1385324D01*
X15871428Y1385324D02*
X15909524Y1461515D01*
X15909524Y1461515D02*
X15947619Y1499610D01*
X15947619Y1499610D02*
X16023809Y1537705D01*
X16023809Y1537705D02*
X16176190Y1537705D01*
X16176190Y1537705D02*
X16252381Y1499610D01*
X16252381Y1499610D02*
X16290476Y1461515D01*
X16290476Y1461515D02*
X16328571Y1385324D01*
X16328571Y1385324D02*
X16328571Y1347229D01*
X16328571Y1347229D02*
X16290476Y1271039D01*
X16290476Y1271039D02*
X16252381Y1232943D01*
X16252381Y1232943D02*
X16176190Y1194848D01*
X16176190Y1194848D02*
X16023809Y1194848D01*
X16023809Y1194848D02*
X15947619Y1156753D01*
X15947619Y1156753D02*
X15909524Y1118658D01*
X15909524Y1118658D02*
X15871428Y1042467D01*
X15871428Y1042467D02*
X15871428Y890086D01*
X15871428Y890086D02*
X15909524Y813896D01*
X15909524Y813896D02*
X15947619Y775800D01*
X15947619Y775800D02*
X16023809Y737705D01*
X16023809Y737705D02*
X16176190Y737705D01*
X16176190Y737705D02*
X16252381Y775800D01*
X16252381Y775800D02*
X16290476Y813896D01*
X16290476Y813896D02*
X16328571Y890086D01*
X16328571Y890086D02*
X16328571Y1042467D01*
X16328571Y1042467D02*
X16290476Y1118658D01*
X16290476Y1118658D02*
X16252381Y1156753D01*
X16252381Y1156753D02*
X16176190Y1194848D01*
X32286104Y18635715D02*
X32324200Y18597619D01*
X32324200Y18597619D02*
X32362295Y18483334D01*
X32362295Y18483334D02*
X32362295Y18407143D01*
X32362295Y18407143D02*
X32324200Y18292857D01*
X32324200Y18292857D02*
X32248009Y18216667D01*
X32248009Y18216667D02*
X32171819Y18178572D01*
X32171819Y18178572D02*
X32019438Y18140476D01*
X32019438Y18140476D02*
X31905152Y18140476D01*
X31905152Y18140476D02*
X31752771Y18178572D01*
X31752771Y18178572D02*
X31676580Y18216667D01*
X31676580Y18216667D02*
X31600390Y18292857D01*
X31600390Y18292857D02*
X31562295Y18407143D01*
X31562295Y18407143D02*
X31562295Y18483334D01*
X31562295Y18483334D02*
X31600390Y18597619D01*
X31600390Y18597619D02*
X31638485Y18635715D01*
X31638485Y18940476D02*
X31600390Y18978572D01*
X31600390Y18978572D02*
X31562295Y19054762D01*
X31562295Y19054762D02*
X31562295Y19245238D01*
X31562295Y19245238D02*
X31600390Y19321429D01*
X31600390Y19321429D02*
X31638485Y19359524D01*
X31638485Y19359524D02*
X31714676Y19397619D01*
X31714676Y19397619D02*
X31790866Y19397619D01*
X31790866Y19397619D02*
X31905152Y19359524D01*
X31905152Y19359524D02*
X32362295Y18902381D01*
X32362295Y18902381D02*
X32362295Y19397619D01*
X31562295Y19664286D02*
X31562295Y20159524D01*
X31562295Y20159524D02*
X31867057Y19892858D01*
X31867057Y19892858D02*
X31867057Y20007143D01*
X31867057Y20007143D02*
X31905152Y20083334D01*
X31905152Y20083334D02*
X31943247Y20121429D01*
X31943247Y20121429D02*
X32019438Y20159524D01*
X32019438Y20159524D02*
X32209914Y20159524D01*
X32209914Y20159524D02*
X32286104Y20121429D01*
X32286104Y20121429D02*
X32324200Y20083334D01*
X32324200Y20083334D02*
X32362295Y20007143D01*
X32362295Y20007143D02*
X32362295Y19778572D01*
X32362295Y19778572D02*
X32324200Y19702381D01*
X32324200Y19702381D02*
X32286104Y19664286D01*
X9235714Y15887705D02*
X8969047Y16268658D01*
X8778571Y15887705D02*
X8778571Y16687705D01*
X8778571Y16687705D02*
X9083333Y16687705D01*
X9083333Y16687705D02*
X9159523Y16649610D01*
X9159523Y16649610D02*
X9197618Y16611515D01*
X9197618Y16611515D02*
X9235714Y16535324D01*
X9235714Y16535324D02*
X9235714Y16421039D01*
X9235714Y16421039D02*
X9197618Y16344848D01*
X9197618Y16344848D02*
X9159523Y16306753D01*
X9159523Y16306753D02*
X9083333Y16268658D01*
X9083333Y16268658D02*
X8778571Y16268658D01*
X9997618Y15887705D02*
X9540475Y15887705D01*
X9769047Y15887705D02*
X9769047Y16687705D01*
X9769047Y16687705D02*
X9692856Y16573420D01*
X9692856Y16573420D02*
X9616666Y16497229D01*
X9616666Y16497229D02*
X9540475Y16459134D01*
X10302380Y16611515D02*
X10340476Y16649610D01*
X10340476Y16649610D02*
X10416666Y16687705D01*
X10416666Y16687705D02*
X10607142Y16687705D01*
X10607142Y16687705D02*
X10683333Y16649610D01*
X10683333Y16649610D02*
X10721428Y16611515D01*
X10721428Y16611515D02*
X10759523Y16535324D01*
X10759523Y16535324D02*
X10759523Y16459134D01*
X10759523Y16459134D02*
X10721428Y16344848D01*
X10721428Y16344848D02*
X10264285Y15887705D01*
X10264285Y15887705D02*
X10759523Y15887705D01*
X24266667Y1713896D02*
X24228571Y1675800D01*
X24228571Y1675800D02*
X24114286Y1637705D01*
X24114286Y1637705D02*
X24038095Y1637705D01*
X24038095Y1637705D02*
X23923809Y1675800D01*
X23923809Y1675800D02*
X23847619Y1751991D01*
X23847619Y1751991D02*
X23809524Y1828181D01*
X23809524Y1828181D02*
X23771428Y1980562D01*
X23771428Y1980562D02*
X23771428Y2094848D01*
X23771428Y2094848D02*
X23809524Y2247229D01*
X23809524Y2247229D02*
X23847619Y2323420D01*
X23847619Y2323420D02*
X23923809Y2399610D01*
X23923809Y2399610D02*
X24038095Y2437705D01*
X24038095Y2437705D02*
X24114286Y2437705D01*
X24114286Y2437705D02*
X24228571Y2399610D01*
X24228571Y2399610D02*
X24266667Y2361515D01*
X24723809Y2094848D02*
X24647619Y2132943D01*
X24647619Y2132943D02*
X24609524Y2171039D01*
X24609524Y2171039D02*
X24571428Y2247229D01*
X24571428Y2247229D02*
X24571428Y2285324D01*
X24571428Y2285324D02*
X24609524Y2361515D01*
X24609524Y2361515D02*
X24647619Y2399610D01*
X24647619Y2399610D02*
X24723809Y2437705D01*
X24723809Y2437705D02*
X24876190Y2437705D01*
X24876190Y2437705D02*
X24952381Y2399610D01*
X24952381Y2399610D02*
X24990476Y2361515D01*
X24990476Y2361515D02*
X25028571Y2285324D01*
X25028571Y2285324D02*
X25028571Y2247229D01*
X25028571Y2247229D02*
X24990476Y2171039D01*
X24990476Y2171039D02*
X24952381Y2132943D01*
X24952381Y2132943D02*
X24876190Y2094848D01*
X24876190Y2094848D02*
X24723809Y2094848D01*
X24723809Y2094848D02*
X24647619Y2056753D01*
X24647619Y2056753D02*
X24609524Y2018658D01*
X24609524Y2018658D02*
X24571428Y1942467D01*
X24571428Y1942467D02*
X24571428Y1790086D01*
X24571428Y1790086D02*
X24609524Y1713896D01*
X24609524Y1713896D02*
X24647619Y1675800D01*
X24647619Y1675800D02*
X24723809Y1637705D01*
X24723809Y1637705D02*
X24876190Y1637705D01*
X24876190Y1637705D02*
X24952381Y1675800D01*
X24952381Y1675800D02*
X24990476Y1713896D01*
X24990476Y1713896D02*
X25028571Y1790086D01*
X25028571Y1790086D02*
X25028571Y1942467D01*
X25028571Y1942467D02*
X24990476Y2018658D01*
X24990476Y2018658D02*
X24952381Y2056753D01*
X24952381Y2056753D02*
X24876190Y2094848D01*
X53536104Y16597620D02*
X53574200Y16559524D01*
X53574200Y16559524D02*
X53612295Y16445239D01*
X53612295Y16445239D02*
X53612295Y16369048D01*
X53612295Y16369048D02*
X53574200Y16254762D01*
X53574200Y16254762D02*
X53498009Y16178572D01*
X53498009Y16178572D02*
X53421819Y16140477D01*
X53421819Y16140477D02*
X53269438Y16102381D01*
X53269438Y16102381D02*
X53155152Y16102381D01*
X53155152Y16102381D02*
X53002771Y16140477D01*
X53002771Y16140477D02*
X52926580Y16178572D01*
X52926580Y16178572D02*
X52850390Y16254762D01*
X52850390Y16254762D02*
X52812295Y16369048D01*
X52812295Y16369048D02*
X52812295Y16445239D01*
X52812295Y16445239D02*
X52850390Y16559524D01*
X52850390Y16559524D02*
X52888485Y16597620D01*
X53078961Y17283334D02*
X53612295Y17283334D01*
X52774200Y17092858D02*
X53345628Y16902381D01*
X53345628Y16902381D02*
X53345628Y17397620D01*
X29862295Y18485715D02*
X29481342Y18219048D01*
X29862295Y18028572D02*
X29062295Y18028572D01*
X29062295Y18028572D02*
X29062295Y18333334D01*
X29062295Y18333334D02*
X29100390Y18409524D01*
X29100390Y18409524D02*
X29138485Y18447619D01*
X29138485Y18447619D02*
X29214676Y18485715D01*
X29214676Y18485715D02*
X29328961Y18485715D01*
X29328961Y18485715D02*
X29405152Y18447619D01*
X29405152Y18447619D02*
X29443247Y18409524D01*
X29443247Y18409524D02*
X29481342Y18333334D01*
X29481342Y18333334D02*
X29481342Y18028572D01*
X29862295Y19247619D02*
X29862295Y18790476D01*
X29862295Y19019048D02*
X29062295Y19019048D01*
X29062295Y19019048D02*
X29176580Y18942857D01*
X29176580Y18942857D02*
X29252771Y18866667D01*
X29252771Y18866667D02*
X29290866Y18790476D01*
X29405152Y19704762D02*
X29367057Y19628572D01*
X29367057Y19628572D02*
X29328961Y19590477D01*
X29328961Y19590477D02*
X29252771Y19552381D01*
X29252771Y19552381D02*
X29214676Y19552381D01*
X29214676Y19552381D02*
X29138485Y19590477D01*
X29138485Y19590477D02*
X29100390Y19628572D01*
X29100390Y19628572D02*
X29062295Y19704762D01*
X29062295Y19704762D02*
X29062295Y19857143D01*
X29062295Y19857143D02*
X29100390Y19933334D01*
X29100390Y19933334D02*
X29138485Y19971429D01*
X29138485Y19971429D02*
X29214676Y20009524D01*
X29214676Y20009524D02*
X29252771Y20009524D01*
X29252771Y20009524D02*
X29328961Y19971429D01*
X29328961Y19971429D02*
X29367057Y19933334D01*
X29367057Y19933334D02*
X29405152Y19857143D01*
X29405152Y19857143D02*
X29405152Y19704762D01*
X29405152Y19704762D02*
X29443247Y19628572D01*
X29443247Y19628572D02*
X29481342Y19590477D01*
X29481342Y19590477D02*
X29557533Y19552381D01*
X29557533Y19552381D02*
X29709914Y19552381D01*
X29709914Y19552381D02*
X29786104Y19590477D01*
X29786104Y19590477D02*
X29824200Y19628572D01*
X29824200Y19628572D02*
X29862295Y19704762D01*
X29862295Y19704762D02*
X29862295Y19857143D01*
X29862295Y19857143D02*
X29824200Y19933334D01*
X29824200Y19933334D02*
X29786104Y19971429D01*
X29786104Y19971429D02*
X29709914Y20009524D01*
X29709914Y20009524D02*
X29557533Y20009524D01*
X29557533Y20009524D02*
X29481342Y19971429D01*
X29481342Y19971429D02*
X29443247Y19933334D01*
X29443247Y19933334D02*
X29405152Y19857143D01*
X6485714Y16213896D02*
X6447618Y16175800D01*
X6447618Y16175800D02*
X6333333Y16137705D01*
X6333333Y16137705D02*
X6257142Y16137705D01*
X6257142Y16137705D02*
X6142856Y16175800D01*
X6142856Y16175800D02*
X6066666Y16251991D01*
X6066666Y16251991D02*
X6028571Y16328181D01*
X6028571Y16328181D02*
X5990475Y16480562D01*
X5990475Y16480562D02*
X5990475Y16594848D01*
X5990475Y16594848D02*
X6028571Y16747229D01*
X6028571Y16747229D02*
X6066666Y16823420D01*
X6066666Y16823420D02*
X6142856Y16899610D01*
X6142856Y16899610D02*
X6257142Y16937705D01*
X6257142Y16937705D02*
X6333333Y16937705D01*
X6333333Y16937705D02*
X6447618Y16899610D01*
X6447618Y16899610D02*
X6485714Y16861515D01*
X6790475Y16861515D02*
X6828571Y16899610D01*
X6828571Y16899610D02*
X6904761Y16937705D01*
X6904761Y16937705D02*
X7095237Y16937705D01*
X7095237Y16937705D02*
X7171428Y16899610D01*
X7171428Y16899610D02*
X7209523Y16861515D01*
X7209523Y16861515D02*
X7247618Y16785324D01*
X7247618Y16785324D02*
X7247618Y16709134D01*
X7247618Y16709134D02*
X7209523Y16594848D01*
X7209523Y16594848D02*
X6752380Y16137705D01*
X6752380Y16137705D02*
X7247618Y16137705D01*
X8009523Y16137705D02*
X7552380Y16137705D01*
X7780952Y16137705D02*
X7780952Y16937705D01*
X7780952Y16937705D02*
X7704761Y16823420D01*
X7704761Y16823420D02*
X7628571Y16747229D01*
X7628571Y16747229D02*
X7552380Y16709134D01*
X25412295Y3116668D02*
X25031342Y2850001D01*
X25412295Y2659525D02*
X24612295Y2659525D01*
X24612295Y2659525D02*
X24612295Y2964287D01*
X24612295Y2964287D02*
X24650390Y3040477D01*
X24650390Y3040477D02*
X24688485Y3078572D01*
X24688485Y3078572D02*
X24764676Y3116668D01*
X24764676Y3116668D02*
X24878961Y3116668D01*
X24878961Y3116668D02*
X24955152Y3078572D01*
X24955152Y3078572D02*
X24993247Y3040477D01*
X24993247Y3040477D02*
X25031342Y2964287D01*
X25031342Y2964287D02*
X25031342Y2659525D01*
X24612295Y3383334D02*
X24612295Y3916668D01*
X24612295Y3916668D02*
X25412295Y3573810D01*
X11786104Y9735715D02*
X11824200Y9697619D01*
X11824200Y9697619D02*
X11862295Y9583334D01*
X11862295Y9583334D02*
X11862295Y9507143D01*
X11862295Y9507143D02*
X11824200Y9392857D01*
X11824200Y9392857D02*
X11748009Y9316667D01*
X11748009Y9316667D02*
X11671819Y9278572D01*
X11671819Y9278572D02*
X11519438Y9240476D01*
X11519438Y9240476D02*
X11405152Y9240476D01*
X11405152Y9240476D02*
X11252771Y9278572D01*
X11252771Y9278572D02*
X11176580Y9316667D01*
X11176580Y9316667D02*
X11100390Y9392857D01*
X11100390Y9392857D02*
X11062295Y9507143D01*
X11062295Y9507143D02*
X11062295Y9583334D01*
X11062295Y9583334D02*
X11100390Y9697619D01*
X11100390Y9697619D02*
X11138485Y9735715D01*
X11138485Y10040476D02*
X11100390Y10078572D01*
X11100390Y10078572D02*
X11062295Y10154762D01*
X11062295Y10154762D02*
X11062295Y10345238D01*
X11062295Y10345238D02*
X11100390Y10421429D01*
X11100390Y10421429D02*
X11138485Y10459524D01*
X11138485Y10459524D02*
X11214676Y10497619D01*
X11214676Y10497619D02*
X11290866Y10497619D01*
X11290866Y10497619D02*
X11405152Y10459524D01*
X11405152Y10459524D02*
X11862295Y10002381D01*
X11862295Y10002381D02*
X11862295Y10497619D01*
X11138485Y10802381D02*
X11100390Y10840477D01*
X11100390Y10840477D02*
X11062295Y10916667D01*
X11062295Y10916667D02*
X11062295Y11107143D01*
X11062295Y11107143D02*
X11100390Y11183334D01*
X11100390Y11183334D02*
X11138485Y11221429D01*
X11138485Y11221429D02*
X11214676Y11259524D01*
X11214676Y11259524D02*
X11290866Y11259524D01*
X11290866Y11259524D02*
X11405152Y11221429D01*
X11405152Y11221429D02*
X11862295Y10764286D01*
X11862295Y10764286D02*
X11862295Y11259524D01*
X14985714Y9283896D02*
X14947618Y9245800D01*
X14947618Y9245800D02*
X14833333Y9207705D01*
X14833333Y9207705D02*
X14757142Y9207705D01*
X14757142Y9207705D02*
X14642856Y9245800D01*
X14642856Y9245800D02*
X14566666Y9321991D01*
X14566666Y9321991D02*
X14528571Y9398181D01*
X14528571Y9398181D02*
X14490475Y9550562D01*
X14490475Y9550562D02*
X14490475Y9664848D01*
X14490475Y9664848D02*
X14528571Y9817229D01*
X14528571Y9817229D02*
X14566666Y9893420D01*
X14566666Y9893420D02*
X14642856Y9969610D01*
X14642856Y9969610D02*
X14757142Y10007705D01*
X14757142Y10007705D02*
X14833333Y10007705D01*
X14833333Y10007705D02*
X14947618Y9969610D01*
X14947618Y9969610D02*
X14985714Y9931515D01*
X15747618Y9207705D02*
X15290475Y9207705D01*
X15519047Y9207705D02*
X15519047Y10007705D01*
X15519047Y10007705D02*
X15442856Y9893420D01*
X15442856Y9893420D02*
X15366666Y9817229D01*
X15366666Y9817229D02*
X15290475Y9779134D01*
X16014285Y10007705D02*
X16547619Y10007705D01*
X16547619Y10007705D02*
X16204761Y9207705D01*
X24385714Y11263896D02*
X24347618Y11225800D01*
X24347618Y11225800D02*
X24233333Y11187705D01*
X24233333Y11187705D02*
X24157142Y11187705D01*
X24157142Y11187705D02*
X24042856Y11225800D01*
X24042856Y11225800D02*
X23966666Y11301991D01*
X23966666Y11301991D02*
X23928571Y11378181D01*
X23928571Y11378181D02*
X23890475Y11530562D01*
X23890475Y11530562D02*
X23890475Y11644848D01*
X23890475Y11644848D02*
X23928571Y11797229D01*
X23928571Y11797229D02*
X23966666Y11873420D01*
X23966666Y11873420D02*
X24042856Y11949610D01*
X24042856Y11949610D02*
X24157142Y11987705D01*
X24157142Y11987705D02*
X24233333Y11987705D01*
X24233333Y11987705D02*
X24347618Y11949610D01*
X24347618Y11949610D02*
X24385714Y11911515D01*
X24690475Y11911515D02*
X24728571Y11949610D01*
X24728571Y11949610D02*
X24804761Y11987705D01*
X24804761Y11987705D02*
X24995237Y11987705D01*
X24995237Y11987705D02*
X25071428Y11949610D01*
X25071428Y11949610D02*
X25109523Y11911515D01*
X25109523Y11911515D02*
X25147618Y11835324D01*
X25147618Y11835324D02*
X25147618Y11759134D01*
X25147618Y11759134D02*
X25109523Y11644848D01*
X25109523Y11644848D02*
X24652380Y11187705D01*
X24652380Y11187705D02*
X25147618Y11187705D01*
X25642857Y11987705D02*
X25719047Y11987705D01*
X25719047Y11987705D02*
X25795238Y11949610D01*
X25795238Y11949610D02*
X25833333Y11911515D01*
X25833333Y11911515D02*
X25871428Y11835324D01*
X25871428Y11835324D02*
X25909523Y11682943D01*
X25909523Y11682943D02*
X25909523Y11492467D01*
X25909523Y11492467D02*
X25871428Y11340086D01*
X25871428Y11340086D02*
X25833333Y11263896D01*
X25833333Y11263896D02*
X25795238Y11225800D01*
X25795238Y11225800D02*
X25719047Y11187705D01*
X25719047Y11187705D02*
X25642857Y11187705D01*
X25642857Y11187705D02*
X25566666Y11225800D01*
X25566666Y11225800D02*
X25528571Y11263896D01*
X25528571Y11263896D02*
X25490476Y11340086D01*
X25490476Y11340086D02*
X25452380Y11492467D01*
X25452380Y11492467D02*
X25452380Y11682943D01*
X25452380Y11682943D02*
X25490476Y11835324D01*
X25490476Y11835324D02*
X25528571Y11911515D01*
X25528571Y11911515D02*
X25566666Y11949610D01*
X25566666Y11949610D02*
X25642857Y11987705D01*
X37286104Y13366668D02*
X37324200Y13328572D01*
X37324200Y13328572D02*
X37362295Y13214287D01*
X37362295Y13214287D02*
X37362295Y13138096D01*
X37362295Y13138096D02*
X37324200Y13023810D01*
X37324200Y13023810D02*
X37248009Y12947620D01*
X37248009Y12947620D02*
X37171819Y12909525D01*
X37171819Y12909525D02*
X37019438Y12871429D01*
X37019438Y12871429D02*
X36905152Y12871429D01*
X36905152Y12871429D02*
X36752771Y12909525D01*
X36752771Y12909525D02*
X36676580Y12947620D01*
X36676580Y12947620D02*
X36600390Y13023810D01*
X36600390Y13023810D02*
X36562295Y13138096D01*
X36562295Y13138096D02*
X36562295Y13214287D01*
X36562295Y13214287D02*
X36600390Y13328572D01*
X36600390Y13328572D02*
X36638485Y13366668D01*
X36562295Y14052382D02*
X36562295Y13900001D01*
X36562295Y13900001D02*
X36600390Y13823810D01*
X36600390Y13823810D02*
X36638485Y13785715D01*
X36638485Y13785715D02*
X36752771Y13709525D01*
X36752771Y13709525D02*
X36905152Y13671429D01*
X36905152Y13671429D02*
X37209914Y13671429D01*
X37209914Y13671429D02*
X37286104Y13709525D01*
X37286104Y13709525D02*
X37324200Y13747620D01*
X37324200Y13747620D02*
X37362295Y13823810D01*
X37362295Y13823810D02*
X37362295Y13976191D01*
X37362295Y13976191D02*
X37324200Y14052382D01*
X37324200Y14052382D02*
X37286104Y14090477D01*
X37286104Y14090477D02*
X37209914Y14128572D01*
X37209914Y14128572D02*
X37019438Y14128572D01*
X37019438Y14128572D02*
X36943247Y14090477D01*
X36943247Y14090477D02*
X36905152Y14052382D01*
X36905152Y14052382D02*
X36867057Y13976191D01*
X36867057Y13976191D02*
X36867057Y13823810D01*
X36867057Y13823810D02*
X36905152Y13747620D01*
X36905152Y13747620D02*
X36943247Y13709525D01*
X36943247Y13709525D02*
X37019438Y13671429D01*
X7792295Y8566668D02*
X7411342Y8300001D01*
X7792295Y8109525D02*
X6992295Y8109525D01*
X6992295Y8109525D02*
X6992295Y8414287D01*
X6992295Y8414287D02*
X7030390Y8490477D01*
X7030390Y8490477D02*
X7068485Y8528572D01*
X7068485Y8528572D02*
X7144676Y8566668D01*
X7144676Y8566668D02*
X7258961Y8566668D01*
X7258961Y8566668D02*
X7335152Y8528572D01*
X7335152Y8528572D02*
X7373247Y8490477D01*
X7373247Y8490477D02*
X7411342Y8414287D01*
X7411342Y8414287D02*
X7411342Y8109525D01*
X7792295Y8947620D02*
X7792295Y9100001D01*
X7792295Y9100001D02*
X7754200Y9176191D01*
X7754200Y9176191D02*
X7716104Y9214287D01*
X7716104Y9214287D02*
X7601819Y9290477D01*
X7601819Y9290477D02*
X7449438Y9328572D01*
X7449438Y9328572D02*
X7144676Y9328572D01*
X7144676Y9328572D02*
X7068485Y9290477D01*
X7068485Y9290477D02*
X7030390Y9252382D01*
X7030390Y9252382D02*
X6992295Y9176191D01*
X6992295Y9176191D02*
X6992295Y9023810D01*
X6992295Y9023810D02*
X7030390Y8947620D01*
X7030390Y8947620D02*
X7068485Y8909525D01*
X7068485Y8909525D02*
X7144676Y8871429D01*
X7144676Y8871429D02*
X7335152Y8871429D01*
X7335152Y8871429D02*
X7411342Y8909525D01*
X7411342Y8909525D02*
X7449438Y8947620D01*
X7449438Y8947620D02*
X7487533Y9023810D01*
X7487533Y9023810D02*
X7487533Y9176191D01*
X7487533Y9176191D02*
X7449438Y9252382D01*
X7449438Y9252382D02*
X7411342Y9290477D01*
X7411342Y9290477D02*
X7335152Y9328572D01*
X32052295Y11341668D02*
X31671342Y11075001D01*
X32052295Y10884525D02*
X31252295Y10884525D01*
X31252295Y10884525D02*
X31252295Y11189287D01*
X31252295Y11189287D02*
X31290390Y11265477D01*
X31290390Y11265477D02*
X31328485Y11303572D01*
X31328485Y11303572D02*
X31404676Y11341668D01*
X31404676Y11341668D02*
X31518961Y11341668D01*
X31518961Y11341668D02*
X31595152Y11303572D01*
X31595152Y11303572D02*
X31633247Y11265477D01*
X31633247Y11265477D02*
X31671342Y11189287D01*
X31671342Y11189287D02*
X31671342Y10884525D01*
X31518961Y12027382D02*
X32052295Y12027382D01*
X31214200Y11836906D02*
X31785628Y11646429D01*
X31785628Y11646429D02*
X31785628Y12141668D01*
X6233333Y10837705D02*
X6233333Y10266277D01*
X6233333Y10266277D02*
X6195238Y10151991D01*
X6195238Y10151991D02*
X6119047Y10075800D01*
X6119047Y10075800D02*
X6004762Y10037705D01*
X6004762Y10037705D02*
X5928571Y10037705D01*
X7033333Y10037705D02*
X6576190Y10037705D01*
X6804762Y10037705D02*
X6804762Y10837705D01*
X6804762Y10837705D02*
X6728571Y10723420D01*
X6728571Y10723420D02*
X6652381Y10647229D01*
X6652381Y10647229D02*
X6576190Y10609134D01*
X14635714Y4413896D02*
X14597618Y4375800D01*
X14597618Y4375800D02*
X14483333Y4337705D01*
X14483333Y4337705D02*
X14407142Y4337705D01*
X14407142Y4337705D02*
X14292856Y4375800D01*
X14292856Y4375800D02*
X14216666Y4451991D01*
X14216666Y4451991D02*
X14178571Y4528181D01*
X14178571Y4528181D02*
X14140475Y4680562D01*
X14140475Y4680562D02*
X14140475Y4794848D01*
X14140475Y4794848D02*
X14178571Y4947229D01*
X14178571Y4947229D02*
X14216666Y5023420D01*
X14216666Y5023420D02*
X14292856Y5099610D01*
X14292856Y5099610D02*
X14407142Y5137705D01*
X14407142Y5137705D02*
X14483333Y5137705D01*
X14483333Y5137705D02*
X14597618Y5099610D01*
X14597618Y5099610D02*
X14635714Y5061515D01*
X15397618Y4337705D02*
X14940475Y4337705D01*
X15169047Y4337705D02*
X15169047Y5137705D01*
X15169047Y5137705D02*
X15092856Y5023420D01*
X15092856Y5023420D02*
X15016666Y4947229D01*
X15016666Y4947229D02*
X14940475Y4909134D01*
X15778571Y4337705D02*
X15930952Y4337705D01*
X15930952Y4337705D02*
X16007142Y4375800D01*
X16007142Y4375800D02*
X16045238Y4413896D01*
X16045238Y4413896D02*
X16121428Y4528181D01*
X16121428Y4528181D02*
X16159523Y4680562D01*
X16159523Y4680562D02*
X16159523Y4985324D01*
X16159523Y4985324D02*
X16121428Y5061515D01*
X16121428Y5061515D02*
X16083333Y5099610D01*
X16083333Y5099610D02*
X16007142Y5137705D01*
X16007142Y5137705D02*
X15854761Y5137705D01*
X15854761Y5137705D02*
X15778571Y5099610D01*
X15778571Y5099610D02*
X15740476Y5061515D01*
X15740476Y5061515D02*
X15702380Y4985324D01*
X15702380Y4985324D02*
X15702380Y4794848D01*
X15702380Y4794848D02*
X15740476Y4718658D01*
X15740476Y4718658D02*
X15778571Y4680562D01*
X15778571Y4680562D02*
X15854761Y4642467D01*
X15854761Y4642467D02*
X16007142Y4642467D01*
X16007142Y4642467D02*
X16083333Y4680562D01*
X16083333Y4680562D02*
X16121428Y4718658D01*
X16121428Y4718658D02*
X16159523Y4794848D01*
X17640476Y17187705D02*
X17640476Y16540086D01*
X17640476Y16540086D02*
X17678571Y16463896D01*
X17678571Y16463896D02*
X17716666Y16425800D01*
X17716666Y16425800D02*
X17792857Y16387705D01*
X17792857Y16387705D02*
X17945238Y16387705D01*
X17945238Y16387705D02*
X18021428Y16425800D01*
X18021428Y16425800D02*
X18059523Y16463896D01*
X18059523Y16463896D02*
X18097619Y16540086D01*
X18097619Y16540086D02*
X18097619Y17187705D01*
X18821428Y17187705D02*
X18669047Y17187705D01*
X18669047Y17187705D02*
X18592856Y17149610D01*
X18592856Y17149610D02*
X18554761Y17111515D01*
X18554761Y17111515D02*
X18478571Y16997229D01*
X18478571Y16997229D02*
X18440475Y16844848D01*
X18440475Y16844848D02*
X18440475Y16540086D01*
X18440475Y16540086D02*
X18478571Y16463896D01*
X18478571Y16463896D02*
X18516666Y16425800D01*
X18516666Y16425800D02*
X18592856Y16387705D01*
X18592856Y16387705D02*
X18745237Y16387705D01*
X18745237Y16387705D02*
X18821428Y16425800D01*
X18821428Y16425800D02*
X18859523Y16463896D01*
X18859523Y16463896D02*
X18897618Y16540086D01*
X18897618Y16540086D02*
X18897618Y16730562D01*
X18897618Y16730562D02*
X18859523Y16806753D01*
X18859523Y16806753D02*
X18821428Y16844848D01*
X18821428Y16844848D02*
X18745237Y16882943D01*
X18745237Y16882943D02*
X18592856Y16882943D01*
X18592856Y16882943D02*
X18516666Y16844848D01*
X18516666Y16844848D02*
X18478571Y16806753D01*
X18478571Y16806753D02*
X18440475Y16730562D01*
X23612295Y10235715D02*
X23231342Y9969048D01*
X23612295Y9778572D02*
X22812295Y9778572D01*
X22812295Y9778572D02*
X22812295Y10083334D01*
X22812295Y10083334D02*
X22850390Y10159524D01*
X22850390Y10159524D02*
X22888485Y10197619D01*
X22888485Y10197619D02*
X22964676Y10235715D01*
X22964676Y10235715D02*
X23078961Y10235715D01*
X23078961Y10235715D02*
X23155152Y10197619D01*
X23155152Y10197619D02*
X23193247Y10159524D01*
X23193247Y10159524D02*
X23231342Y10083334D01*
X23231342Y10083334D02*
X23231342Y9778572D01*
X23612295Y10997619D02*
X23612295Y10540476D01*
X23612295Y10769048D02*
X22812295Y10769048D01*
X22812295Y10769048D02*
X22926580Y10692857D01*
X22926580Y10692857D02*
X23002771Y10616667D01*
X23002771Y10616667D02*
X23040866Y10540476D01*
X22812295Y11264286D02*
X22812295Y11797620D01*
X22812295Y11797620D02*
X23612295Y11454762D01*
X40536104Y10985715D02*
X40574200Y10947619D01*
X40574200Y10947619D02*
X40612295Y10833334D01*
X40612295Y10833334D02*
X40612295Y10757143D01*
X40612295Y10757143D02*
X40574200Y10642857D01*
X40574200Y10642857D02*
X40498009Y10566667D01*
X40498009Y10566667D02*
X40421819Y10528572D01*
X40421819Y10528572D02*
X40269438Y10490476D01*
X40269438Y10490476D02*
X40155152Y10490476D01*
X40155152Y10490476D02*
X40002771Y10528572D01*
X40002771Y10528572D02*
X39926580Y10566667D01*
X39926580Y10566667D02*
X39850390Y10642857D01*
X39850390Y10642857D02*
X39812295Y10757143D01*
X39812295Y10757143D02*
X39812295Y10833334D01*
X39812295Y10833334D02*
X39850390Y10947619D01*
X39850390Y10947619D02*
X39888485Y10985715D01*
X40612295Y11747619D02*
X40612295Y11290476D01*
X40612295Y11519048D02*
X39812295Y11519048D01*
X39812295Y11519048D02*
X39926580Y11442857D01*
X39926580Y11442857D02*
X40002771Y11366667D01*
X40002771Y11366667D02*
X40040866Y11290476D01*
X39812295Y12242858D02*
X39812295Y12319048D01*
X39812295Y12319048D02*
X39850390Y12395239D01*
X39850390Y12395239D02*
X39888485Y12433334D01*
X39888485Y12433334D02*
X39964676Y12471429D01*
X39964676Y12471429D02*
X40117057Y12509524D01*
X40117057Y12509524D02*
X40307533Y12509524D01*
X40307533Y12509524D02*
X40459914Y12471429D01*
X40459914Y12471429D02*
X40536104Y12433334D01*
X40536104Y12433334D02*
X40574200Y12395239D01*
X40574200Y12395239D02*
X40612295Y12319048D01*
X40612295Y12319048D02*
X40612295Y12242858D01*
X40612295Y12242858D02*
X40574200Y12166667D01*
X40574200Y12166667D02*
X40536104Y12128572D01*
X40536104Y12128572D02*
X40459914Y12090477D01*
X40459914Y12090477D02*
X40307533Y12052381D01*
X40307533Y12052381D02*
X40117057Y12052381D01*
X40117057Y12052381D02*
X39964676Y12090477D01*
X39964676Y12090477D02*
X39888485Y12128572D01*
X39888485Y12128572D02*
X39850390Y12166667D01*
X39850390Y12166667D02*
X39812295Y12242858D01*
X44786104Y22116668D02*
X44824200Y22078572D01*
X44824200Y22078572D02*
X44862295Y21964287D01*
X44862295Y21964287D02*
X44862295Y21888096D01*
X44862295Y21888096D02*
X44824200Y21773810D01*
X44824200Y21773810D02*
X44748009Y21697620D01*
X44748009Y21697620D02*
X44671819Y21659525D01*
X44671819Y21659525D02*
X44519438Y21621429D01*
X44519438Y21621429D02*
X44405152Y21621429D01*
X44405152Y21621429D02*
X44252771Y21659525D01*
X44252771Y21659525D02*
X44176580Y21697620D01*
X44176580Y21697620D02*
X44100390Y21773810D01*
X44100390Y21773810D02*
X44062295Y21888096D01*
X44062295Y21888096D02*
X44062295Y21964287D01*
X44062295Y21964287D02*
X44100390Y22078572D01*
X44100390Y22078572D02*
X44138485Y22116668D01*
X44062295Y22840477D02*
X44062295Y22459525D01*
X44062295Y22459525D02*
X44443247Y22421429D01*
X44443247Y22421429D02*
X44405152Y22459525D01*
X44405152Y22459525D02*
X44367057Y22535715D01*
X44367057Y22535715D02*
X44367057Y22726191D01*
X44367057Y22726191D02*
X44405152Y22802382D01*
X44405152Y22802382D02*
X44443247Y22840477D01*
X44443247Y22840477D02*
X44519438Y22878572D01*
X44519438Y22878572D02*
X44709914Y22878572D01*
X44709914Y22878572D02*
X44786104Y22840477D01*
X44786104Y22840477D02*
X44824200Y22802382D01*
X44824200Y22802382D02*
X44862295Y22726191D01*
X44862295Y22726191D02*
X44862295Y22535715D01*
X44862295Y22535715D02*
X44824200Y22459525D01*
X44824200Y22459525D02*
X44786104Y22421429D01*
X11735714Y22213896D02*
X11697618Y22175800D01*
X11697618Y22175800D02*
X11583333Y22137705D01*
X11583333Y22137705D02*
X11507142Y22137705D01*
X11507142Y22137705D02*
X11392856Y22175800D01*
X11392856Y22175800D02*
X11316666Y22251991D01*
X11316666Y22251991D02*
X11278571Y22328181D01*
X11278571Y22328181D02*
X11240475Y22480562D01*
X11240475Y22480562D02*
X11240475Y22594848D01*
X11240475Y22594848D02*
X11278571Y22747229D01*
X11278571Y22747229D02*
X11316666Y22823420D01*
X11316666Y22823420D02*
X11392856Y22899610D01*
X11392856Y22899610D02*
X11507142Y22937705D01*
X11507142Y22937705D02*
X11583333Y22937705D01*
X11583333Y22937705D02*
X11697618Y22899610D01*
X11697618Y22899610D02*
X11735714Y22861515D01*
X12497618Y22137705D02*
X12040475Y22137705D01*
X12269047Y22137705D02*
X12269047Y22937705D01*
X12269047Y22937705D02*
X12192856Y22823420D01*
X12192856Y22823420D02*
X12116666Y22747229D01*
X12116666Y22747229D02*
X12040475Y22709134D01*
X13183333Y22937705D02*
X13030952Y22937705D01*
X13030952Y22937705D02*
X12954761Y22899610D01*
X12954761Y22899610D02*
X12916666Y22861515D01*
X12916666Y22861515D02*
X12840476Y22747229D01*
X12840476Y22747229D02*
X12802380Y22594848D01*
X12802380Y22594848D02*
X12802380Y22290086D01*
X12802380Y22290086D02*
X12840476Y22213896D01*
X12840476Y22213896D02*
X12878571Y22175800D01*
X12878571Y22175800D02*
X12954761Y22137705D01*
X12954761Y22137705D02*
X13107142Y22137705D01*
X13107142Y22137705D02*
X13183333Y22175800D01*
X13183333Y22175800D02*
X13221428Y22213896D01*
X13221428Y22213896D02*
X13259523Y22290086D01*
X13259523Y22290086D02*
X13259523Y22480562D01*
X13259523Y22480562D02*
X13221428Y22556753D01*
X13221428Y22556753D02*
X13183333Y22594848D01*
X13183333Y22594848D02*
X13107142Y22632943D01*
X13107142Y22632943D02*
X12954761Y22632943D01*
X12954761Y22632943D02*
X12878571Y22594848D01*
X12878571Y22594848D02*
X12840476Y22556753D01*
X12840476Y22556753D02*
X12802380Y22480562D01*
X14635714Y3237705D02*
X14369047Y3618658D01*
X14178571Y3237705D02*
X14178571Y4037705D01*
X14178571Y4037705D02*
X14483333Y4037705D01*
X14483333Y4037705D02*
X14559523Y3999610D01*
X14559523Y3999610D02*
X14597618Y3961515D01*
X14597618Y3961515D02*
X14635714Y3885324D01*
X14635714Y3885324D02*
X14635714Y3771039D01*
X14635714Y3771039D02*
X14597618Y3694848D01*
X14597618Y3694848D02*
X14559523Y3656753D01*
X14559523Y3656753D02*
X14483333Y3618658D01*
X14483333Y3618658D02*
X14178571Y3618658D01*
X15397618Y3237705D02*
X14940475Y3237705D01*
X15169047Y3237705D02*
X15169047Y4037705D01*
X15169047Y4037705D02*
X15092856Y3923420D01*
X15092856Y3923420D02*
X15016666Y3847229D01*
X15016666Y3847229D02*
X14940475Y3809134D01*
X15892857Y4037705D02*
X15969047Y4037705D01*
X15969047Y4037705D02*
X16045238Y3999610D01*
X16045238Y3999610D02*
X16083333Y3961515D01*
X16083333Y3961515D02*
X16121428Y3885324D01*
X16121428Y3885324D02*
X16159523Y3732943D01*
X16159523Y3732943D02*
X16159523Y3542467D01*
X16159523Y3542467D02*
X16121428Y3390086D01*
X16121428Y3390086D02*
X16083333Y3313896D01*
X16083333Y3313896D02*
X16045238Y3275800D01*
X16045238Y3275800D02*
X15969047Y3237705D01*
X15969047Y3237705D02*
X15892857Y3237705D01*
X15892857Y3237705D02*
X15816666Y3275800D01*
X15816666Y3275800D02*
X15778571Y3313896D01*
X15778571Y3313896D02*
X15740476Y3390086D01*
X15740476Y3390086D02*
X15702380Y3542467D01*
X15702380Y3542467D02*
X15702380Y3732943D01*
X15702380Y3732943D02*
X15740476Y3885324D01*
X15740476Y3885324D02*
X15778571Y3961515D01*
X15778571Y3961515D02*
X15816666Y3999610D01*
X15816666Y3999610D02*
X15892857Y4037705D01*
X6366667Y22137705D02*
X6100000Y22518658D01*
X5909524Y22137705D02*
X5909524Y22937705D01*
X5909524Y22937705D02*
X6214286Y22937705D01*
X6214286Y22937705D02*
X6290476Y22899610D01*
X6290476Y22899610D02*
X6328571Y22861515D01*
X6328571Y22861515D02*
X6366667Y22785324D01*
X6366667Y22785324D02*
X6366667Y22671039D01*
X6366667Y22671039D02*
X6328571Y22594848D01*
X6328571Y22594848D02*
X6290476Y22556753D01*
X6290476Y22556753D02*
X6214286Y22518658D01*
X6214286Y22518658D02*
X5909524Y22518658D01*
X7052381Y22937705D02*
X6900000Y22937705D01*
X6900000Y22937705D02*
X6823809Y22899610D01*
X6823809Y22899610D02*
X6785714Y22861515D01*
X6785714Y22861515D02*
X6709524Y22747229D01*
X6709524Y22747229D02*
X6671428Y22594848D01*
X6671428Y22594848D02*
X6671428Y22290086D01*
X6671428Y22290086D02*
X6709524Y22213896D01*
X6709524Y22213896D02*
X6747619Y22175800D01*
X6747619Y22175800D02*
X6823809Y22137705D01*
X6823809Y22137705D02*
X6976190Y22137705D01*
X6976190Y22137705D02*
X7052381Y22175800D01*
X7052381Y22175800D02*
X7090476Y22213896D01*
X7090476Y22213896D02*
X7128571Y22290086D01*
X7128571Y22290086D02*
X7128571Y22480562D01*
X7128571Y22480562D02*
X7090476Y22556753D01*
X7090476Y22556753D02*
X7052381Y22594848D01*
X7052381Y22594848D02*
X6976190Y22632943D01*
X6976190Y22632943D02*
X6823809Y22632943D01*
X6823809Y22632943D02*
X6747619Y22594848D01*
X6747619Y22594848D02*
X6709524Y22556753D01*
X6709524Y22556753D02*
X6671428Y22480562D01*
X24262295Y3116668D02*
X23881342Y2850001D01*
X24262295Y2659525D02*
X23462295Y2659525D01*
X23462295Y2659525D02*
X23462295Y2964287D01*
X23462295Y2964287D02*
X23500390Y3040477D01*
X23500390Y3040477D02*
X23538485Y3078572D01*
X23538485Y3078572D02*
X23614676Y3116668D01*
X23614676Y3116668D02*
X23728961Y3116668D01*
X23728961Y3116668D02*
X23805152Y3078572D01*
X23805152Y3078572D02*
X23843247Y3040477D01*
X23843247Y3040477D02*
X23881342Y2964287D01*
X23881342Y2964287D02*
X23881342Y2659525D01*
X24262295Y3878572D02*
X24262295Y3421429D01*
X24262295Y3650001D02*
X23462295Y3650001D01*
X23462295Y3650001D02*
X23576580Y3573810D01*
X23576580Y3573810D02*
X23652771Y3497620D01*
X23652771Y3497620D02*
X23690866Y3421429D01*
X27285714Y10513896D02*
X27247618Y10475800D01*
X27247618Y10475800D02*
X27133333Y10437705D01*
X27133333Y10437705D02*
X27057142Y10437705D01*
X27057142Y10437705D02*
X26942856Y10475800D01*
X26942856Y10475800D02*
X26866666Y10551991D01*
X26866666Y10551991D02*
X26828571Y10628181D01*
X26828571Y10628181D02*
X26790475Y10780562D01*
X26790475Y10780562D02*
X26790475Y10894848D01*
X26790475Y10894848D02*
X26828571Y11047229D01*
X26828571Y11047229D02*
X26866666Y11123420D01*
X26866666Y11123420D02*
X26942856Y11199610D01*
X26942856Y11199610D02*
X27057142Y11237705D01*
X27057142Y11237705D02*
X27133333Y11237705D01*
X27133333Y11237705D02*
X27247618Y11199610D01*
X27247618Y11199610D02*
X27285714Y11161515D01*
X28047618Y10437705D02*
X27590475Y10437705D01*
X27819047Y10437705D02*
X27819047Y11237705D01*
X27819047Y11237705D02*
X27742856Y11123420D01*
X27742856Y11123420D02*
X27666666Y11047229D01*
X27666666Y11047229D02*
X27590475Y11009134D01*
X28352380Y11161515D02*
X28390476Y11199610D01*
X28390476Y11199610D02*
X28466666Y11237705D01*
X28466666Y11237705D02*
X28657142Y11237705D01*
X28657142Y11237705D02*
X28733333Y11199610D01*
X28733333Y11199610D02*
X28771428Y11161515D01*
X28771428Y11161515D02*
X28809523Y11085324D01*
X28809523Y11085324D02*
X28809523Y11009134D01*
X28809523Y11009134D02*
X28771428Y10894848D01*
X28771428Y10894848D02*
X28314285Y10437705D01*
X28314285Y10437705D02*
X28809523Y10437705D01*
X30985714Y4713896D02*
X30947618Y4675800D01*
X30947618Y4675800D02*
X30833333Y4637705D01*
X30833333Y4637705D02*
X30757142Y4637705D01*
X30757142Y4637705D02*
X30642856Y4675800D01*
X30642856Y4675800D02*
X30566666Y4751991D01*
X30566666Y4751991D02*
X30528571Y4828181D01*
X30528571Y4828181D02*
X30490475Y4980562D01*
X30490475Y4980562D02*
X30490475Y5094848D01*
X30490475Y5094848D02*
X30528571Y5247229D01*
X30528571Y5247229D02*
X30566666Y5323420D01*
X30566666Y5323420D02*
X30642856Y5399610D01*
X30642856Y5399610D02*
X30757142Y5437705D01*
X30757142Y5437705D02*
X30833333Y5437705D01*
X30833333Y5437705D02*
X30947618Y5399610D01*
X30947618Y5399610D02*
X30985714Y5361515D01*
X31747618Y4637705D02*
X31290475Y4637705D01*
X31519047Y4637705D02*
X31519047Y5437705D01*
X31519047Y5437705D02*
X31442856Y5323420D01*
X31442856Y5323420D02*
X31366666Y5247229D01*
X31366666Y5247229D02*
X31290475Y5209134D01*
X32433333Y5171039D02*
X32433333Y4637705D01*
X32242857Y5475800D02*
X32052380Y4904372D01*
X32052380Y4904372D02*
X32547619Y4904372D01*
X37443247Y20176191D02*
X37443247Y19909525D01*
X37862295Y19909525D02*
X37062295Y19909525D01*
X37062295Y19909525D02*
X37062295Y20290477D01*
X37443247Y20861905D02*
X37481342Y20976191D01*
X37481342Y20976191D02*
X37519438Y21014286D01*
X37519438Y21014286D02*
X37595628Y21052382D01*
X37595628Y21052382D02*
X37709914Y21052382D01*
X37709914Y21052382D02*
X37786104Y21014286D01*
X37786104Y21014286D02*
X37824200Y20976191D01*
X37824200Y20976191D02*
X37862295Y20900001D01*
X37862295Y20900001D02*
X37862295Y20595239D01*
X37862295Y20595239D02*
X37062295Y20595239D01*
X37062295Y20595239D02*
X37062295Y20861905D01*
X37062295Y20861905D02*
X37100390Y20938096D01*
X37100390Y20938096D02*
X37138485Y20976191D01*
X37138485Y20976191D02*
X37214676Y21014286D01*
X37214676Y21014286D02*
X37290866Y21014286D01*
X37290866Y21014286D02*
X37367057Y20976191D01*
X37367057Y20976191D02*
X37405152Y20938096D01*
X37405152Y20938096D02*
X37443247Y20861905D01*
X37443247Y20861905D02*
X37443247Y20595239D01*
X37862295Y21814286D02*
X37862295Y21357143D01*
X37862295Y21585715D02*
X37062295Y21585715D01*
X37062295Y21585715D02*
X37176580Y21509524D01*
X37176580Y21509524D02*
X37252771Y21433334D01*
X37252771Y21433334D02*
X37290866Y21357143D01*
X26390476Y18437705D02*
X26390476Y17790086D01*
X26390476Y17790086D02*
X26428571Y17713896D01*
X26428571Y17713896D02*
X26466666Y17675800D01*
X26466666Y17675800D02*
X26542857Y17637705D01*
X26542857Y17637705D02*
X26695238Y17637705D01*
X26695238Y17637705D02*
X26771428Y17675800D01*
X26771428Y17675800D02*
X26809523Y17713896D01*
X26809523Y17713896D02*
X26847619Y17790086D01*
X26847619Y17790086D02*
X26847619Y18437705D01*
X27609523Y18437705D02*
X27228571Y18437705D01*
X27228571Y18437705D02*
X27190475Y18056753D01*
X27190475Y18056753D02*
X27228571Y18094848D01*
X27228571Y18094848D02*
X27304761Y18132943D01*
X27304761Y18132943D02*
X27495237Y18132943D01*
X27495237Y18132943D02*
X27571428Y18094848D01*
X27571428Y18094848D02*
X27609523Y18056753D01*
X27609523Y18056753D02*
X27647618Y17980562D01*
X27647618Y17980562D02*
X27647618Y17790086D01*
X27647618Y17790086D02*
X27609523Y17713896D01*
X27609523Y17713896D02*
X27571428Y17675800D01*
X27571428Y17675800D02*
X27495237Y17637705D01*
X27495237Y17637705D02*
X27304761Y17637705D01*
X27304761Y17637705D02*
X27228571Y17675800D01*
X27228571Y17675800D02*
X27190475Y17713896D01*
X18735714Y6957705D02*
X18469047Y7338658D01*
X18278571Y6957705D02*
X18278571Y7757705D01*
X18278571Y7757705D02*
X18583333Y7757705D01*
X18583333Y7757705D02*
X18659523Y7719610D01*
X18659523Y7719610D02*
X18697618Y7681515D01*
X18697618Y7681515D02*
X18735714Y7605324D01*
X18735714Y7605324D02*
X18735714Y7491039D01*
X18735714Y7491039D02*
X18697618Y7414848D01*
X18697618Y7414848D02*
X18659523Y7376753D01*
X18659523Y7376753D02*
X18583333Y7338658D01*
X18583333Y7338658D02*
X18278571Y7338658D01*
X19497618Y6957705D02*
X19040475Y6957705D01*
X19269047Y6957705D02*
X19269047Y7757705D01*
X19269047Y7757705D02*
X19192856Y7643420D01*
X19192856Y7643420D02*
X19116666Y7567229D01*
X19116666Y7567229D02*
X19040475Y7529134D01*
X20183333Y7757705D02*
X20030952Y7757705D01*
X20030952Y7757705D02*
X19954761Y7719610D01*
X19954761Y7719610D02*
X19916666Y7681515D01*
X19916666Y7681515D02*
X19840476Y7567229D01*
X19840476Y7567229D02*
X19802380Y7414848D01*
X19802380Y7414848D02*
X19802380Y7110086D01*
X19802380Y7110086D02*
X19840476Y7033896D01*
X19840476Y7033896D02*
X19878571Y6995800D01*
X19878571Y6995800D02*
X19954761Y6957705D01*
X19954761Y6957705D02*
X20107142Y6957705D01*
X20107142Y6957705D02*
X20183333Y6995800D01*
X20183333Y6995800D02*
X20221428Y7033896D01*
X20221428Y7033896D02*
X20259523Y7110086D01*
X20259523Y7110086D02*
X20259523Y7300562D01*
X20259523Y7300562D02*
X20221428Y7376753D01*
X20221428Y7376753D02*
X20183333Y7414848D01*
X20183333Y7414848D02*
X20107142Y7452943D01*
X20107142Y7452943D02*
X19954761Y7452943D01*
X19954761Y7452943D02*
X19878571Y7414848D01*
X19878571Y7414848D02*
X19840476Y7376753D01*
X19840476Y7376753D02*
X19802380Y7300562D01*
X13362295Y9735715D02*
X12981342Y9469048D01*
X13362295Y9278572D02*
X12562295Y9278572D01*
X12562295Y9278572D02*
X12562295Y9583334D01*
X12562295Y9583334D02*
X12600390Y9659524D01*
X12600390Y9659524D02*
X12638485Y9697619D01*
X12638485Y9697619D02*
X12714676Y9735715D01*
X12714676Y9735715D02*
X12828961Y9735715D01*
X12828961Y9735715D02*
X12905152Y9697619D01*
X12905152Y9697619D02*
X12943247Y9659524D01*
X12943247Y9659524D02*
X12981342Y9583334D01*
X12981342Y9583334D02*
X12981342Y9278572D01*
X13362295Y10497619D02*
X13362295Y10040476D01*
X13362295Y10269048D02*
X12562295Y10269048D01*
X12562295Y10269048D02*
X12676580Y10192857D01*
X12676580Y10192857D02*
X12752771Y10116667D01*
X12752771Y10116667D02*
X12790866Y10040476D01*
X12562295Y11221429D02*
X12562295Y10840477D01*
X12562295Y10840477D02*
X12943247Y10802381D01*
X12943247Y10802381D02*
X12905152Y10840477D01*
X12905152Y10840477D02*
X12867057Y10916667D01*
X12867057Y10916667D02*
X12867057Y11107143D01*
X12867057Y11107143D02*
X12905152Y11183334D01*
X12905152Y11183334D02*
X12943247Y11221429D01*
X12943247Y11221429D02*
X13019438Y11259524D01*
X13019438Y11259524D02*
X13209914Y11259524D01*
X13209914Y11259524D02*
X13286104Y11221429D01*
X13286104Y11221429D02*
X13324200Y11183334D01*
X13324200Y11183334D02*
X13362295Y11107143D01*
X13362295Y11107143D02*
X13362295Y10916667D01*
X13362295Y10916667D02*
X13324200Y10840477D01*
X13324200Y10840477D02*
X13286104Y10802381D01*
X28786104Y20885715D02*
X28824200Y20847619D01*
X28824200Y20847619D02*
X28862295Y20733334D01*
X28862295Y20733334D02*
X28862295Y20657143D01*
X28862295Y20657143D02*
X28824200Y20542857D01*
X28824200Y20542857D02*
X28748009Y20466667D01*
X28748009Y20466667D02*
X28671819Y20428572D01*
X28671819Y20428572D02*
X28519438Y20390476D01*
X28519438Y20390476D02*
X28405152Y20390476D01*
X28405152Y20390476D02*
X28252771Y20428572D01*
X28252771Y20428572D02*
X28176580Y20466667D01*
X28176580Y20466667D02*
X28100390Y20542857D01*
X28100390Y20542857D02*
X28062295Y20657143D01*
X28062295Y20657143D02*
X28062295Y20733334D01*
X28062295Y20733334D02*
X28100390Y20847619D01*
X28100390Y20847619D02*
X28138485Y20885715D01*
X28138485Y21190476D02*
X28100390Y21228572D01*
X28100390Y21228572D02*
X28062295Y21304762D01*
X28062295Y21304762D02*
X28062295Y21495238D01*
X28062295Y21495238D02*
X28100390Y21571429D01*
X28100390Y21571429D02*
X28138485Y21609524D01*
X28138485Y21609524D02*
X28214676Y21647619D01*
X28214676Y21647619D02*
X28290866Y21647619D01*
X28290866Y21647619D02*
X28405152Y21609524D01*
X28405152Y21609524D02*
X28862295Y21152381D01*
X28862295Y21152381D02*
X28862295Y21647619D01*
X28328961Y22333334D02*
X28862295Y22333334D01*
X28024200Y22142858D02*
X28595628Y21952381D01*
X28595628Y21952381D02*
X28595628Y22447620D01*
X19390476Y17187705D02*
X19390476Y16540086D01*
X19390476Y16540086D02*
X19428571Y16463896D01*
X19428571Y16463896D02*
X19466666Y16425800D01*
X19466666Y16425800D02*
X19542857Y16387705D01*
X19542857Y16387705D02*
X19695238Y16387705D01*
X19695238Y16387705D02*
X19771428Y16425800D01*
X19771428Y16425800D02*
X19809523Y16463896D01*
X19809523Y16463896D02*
X19847619Y16540086D01*
X19847619Y16540086D02*
X19847619Y17187705D01*
X20152380Y17187705D02*
X20685714Y17187705D01*
X20685714Y17187705D02*
X20342856Y16387705D01*
X6483333Y29437705D02*
X6483333Y28866277D01*
X6483333Y28866277D02*
X6445238Y28751991D01*
X6445238Y28751991D02*
X6369047Y28675800D01*
X6369047Y28675800D02*
X6254762Y28637705D01*
X6254762Y28637705D02*
X6178571Y28637705D01*
X6826190Y29361515D02*
X6864286Y29399610D01*
X6864286Y29399610D02*
X6940476Y29437705D01*
X6940476Y29437705D02*
X7130952Y29437705D01*
X7130952Y29437705D02*
X7207143Y29399610D01*
X7207143Y29399610D02*
X7245238Y29361515D01*
X7245238Y29361515D02*
X7283333Y29285324D01*
X7283333Y29285324D02*
X7283333Y29209134D01*
X7283333Y29209134D02*
X7245238Y29094848D01*
X7245238Y29094848D02*
X6788095Y28637705D01*
X6788095Y28637705D02*
X7283333Y28637705D01*
D12*
%TO.C,U2*%
X47250000Y22060000D02*
X46600000Y22060000D01*
X47250000Y22060000D02*
X47900000Y22060000D01*
X47250000Y18940000D02*
X46600000Y18940000D01*
X47250000Y18940000D02*
X47900000Y18940000D01*
X48652500Y18660000D02*
X48172500Y18660000D01*
X48412500Y18990000D01*
X48652500Y18660000D01*
G36*
X48652500Y18660000D02*
G01*
X48172500Y18660000D01*
X48412500Y18990000D01*
X48652500Y18660000D01*
G37*
%TO.C,R2*%
X49477500Y20262742D02*
X49477500Y20737258D01*
X50522500Y20262742D02*
X50522500Y20737258D01*
%TO.C,C15*%
X28640580Y6260000D02*
X28359420Y6260000D01*
X28640580Y5240000D02*
X28359420Y5240000D01*
%TO.C,D3*%
X30515000Y14885000D02*
X30515000Y12600000D01*
X31985000Y14885000D02*
X30515000Y14885000D01*
X31985000Y12600000D02*
X31985000Y14885000D01*
%TO.C,C13*%
X21490000Y8390580D02*
X21490000Y8109420D01*
X22510000Y8390580D02*
X22510000Y8109420D01*
%TO.C,R11*%
X24487258Y19272500D02*
X24012742Y19272500D01*
X24487258Y18227500D02*
X24012742Y18227500D01*
%TO.C,C9*%
X37977500Y15762742D02*
X37977500Y16237258D01*
X39022500Y15762742D02*
X39022500Y16237258D01*
D13*
%TO.C,G\u002A\u002A\u002A*%
G36*
X35359628Y4425133D02*
G01*
X35359628Y4320112D01*
X35247106Y4320112D01*
X35134584Y4320112D01*
X35134584Y4425133D01*
X35134584Y4530153D01*
X35247106Y4530153D01*
X35359628Y4530153D01*
X35359628Y4425133D01*
G37*
G36*
X35569669Y4207590D02*
G01*
X35569669Y4095068D01*
X35464649Y4095068D01*
X35359628Y4095068D01*
X35359628Y4207590D01*
X35359628Y4320112D01*
X35464649Y4320112D01*
X35569669Y4320112D01*
X35569669Y4207590D01*
G37*
G36*
X36019758Y4425133D02*
G01*
X36019758Y4320112D01*
X35907236Y4320112D01*
X35794714Y4320112D01*
X35794714Y4425133D01*
X35794714Y4530153D01*
X35907236Y4530153D01*
X36019758Y4530153D01*
X36019758Y4425133D01*
G37*
G36*
X36019758Y3982546D02*
G01*
X36019758Y3870023D01*
X35794714Y3870023D01*
X35569669Y3870023D01*
X35569669Y3982546D01*
X35569669Y4095068D01*
X35794714Y4095068D01*
X36019758Y4095068D01*
X36019758Y3982546D01*
G37*
G36*
X36469847Y4207590D02*
G01*
X36469847Y4095068D01*
X36357324Y4095068D01*
X36244802Y4095068D01*
X36244802Y4207590D01*
X36244802Y4320112D01*
X36357324Y4320112D01*
X36469847Y4320112D01*
X36469847Y4207590D01*
G37*
G36*
X36679888Y3307413D02*
G01*
X36679888Y3194891D01*
X36574867Y3194891D01*
X36469847Y3194891D01*
X36469847Y3307413D01*
X36469847Y3419935D01*
X36574867Y3419935D01*
X36679888Y3419935D01*
X36679888Y3307413D01*
G37*
G36*
X36904932Y5752894D02*
G01*
X36904932Y5640372D01*
X36792410Y5640372D01*
X36679888Y5640372D01*
X36679888Y5752894D01*
X36679888Y5865416D01*
X36792410Y5865416D01*
X36904932Y5865416D01*
X36904932Y5752894D01*
G37*
G36*
X36904932Y3757501D02*
G01*
X36904932Y3644979D01*
X36792410Y3644979D01*
X36679888Y3644979D01*
X36679888Y3757501D01*
X36679888Y3870023D01*
X36792410Y3870023D01*
X36904932Y3870023D01*
X36904932Y3757501D01*
G37*
G36*
X37580065Y4980242D02*
G01*
X37580065Y4755198D01*
X37467543Y4755198D01*
X37355021Y4755198D01*
X37355021Y4980242D01*
X37355021Y5205286D01*
X37467543Y5205286D01*
X37580065Y5205286D01*
X37580065Y4980242D01*
G37*
G36*
X37580065Y2197194D02*
G01*
X37580065Y2084672D01*
X37467543Y2084672D01*
X37355021Y2084672D01*
X37355021Y2197194D01*
X37355021Y2309716D01*
X37467543Y2309716D01*
X37580065Y2309716D01*
X37580065Y2197194D01*
G37*
G36*
X37805109Y1979651D02*
G01*
X37805109Y1874631D01*
X37692587Y1874631D01*
X37580065Y1874631D01*
X37580065Y1979651D01*
X37580065Y2084672D01*
X37692587Y2084672D01*
X37805109Y2084672D01*
X37805109Y1979651D01*
G37*
G36*
X38240195Y1762109D02*
G01*
X38240195Y1649586D01*
X38022652Y1649586D01*
X37805109Y1649586D01*
X37805109Y1762109D01*
X37805109Y1874631D01*
X38022652Y1874631D01*
X38240195Y1874631D01*
X38240195Y1762109D01*
G37*
G36*
X39125369Y3532457D02*
G01*
X39125369Y3419935D01*
X39020349Y3419935D01*
X38915328Y3419935D01*
X38915328Y3532457D01*
X38915328Y3644979D01*
X39020349Y3644979D01*
X39125369Y3644979D01*
X39125369Y3532457D01*
G37*
G36*
X39350414Y2422238D02*
G01*
X39350414Y2309716D01*
X39237891Y2309716D01*
X39125369Y2309716D01*
X39125369Y2422238D01*
X39125369Y2534761D01*
X39237891Y2534761D01*
X39350414Y2534761D01*
X39350414Y2422238D01*
G37*
G36*
X39350414Y1979651D02*
G01*
X39350414Y1874631D01*
X39237891Y1874631D01*
X39125369Y1874631D01*
X39125369Y1979651D01*
X39125369Y2084672D01*
X39237891Y2084672D01*
X39350414Y2084672D01*
X39350414Y1979651D01*
G37*
G36*
X37580065Y5977938D02*
G01*
X37580065Y5865416D01*
X37467543Y5865416D01*
X37355021Y5865416D01*
X37355021Y5752894D01*
X37355021Y5640372D01*
X37242499Y5640372D01*
X37129977Y5640372D01*
X37129977Y5865416D01*
X37129977Y6090461D01*
X37355021Y6090461D01*
X37580065Y6090461D01*
X37580065Y5977938D01*
G37*
G36*
X37805109Y5752894D02*
G01*
X37805109Y5640372D01*
X37910130Y5640372D01*
X38015151Y5640372D01*
X38015151Y5535351D01*
X38015151Y5430331D01*
X37797608Y5430331D01*
X37580065Y5430331D01*
X37580065Y5647873D01*
X37580065Y5865416D01*
X37692587Y5865416D01*
X37805109Y5865416D01*
X37805109Y5752894D01*
G37*
G36*
X39800502Y1424542D02*
G01*
X39800502Y1199498D01*
X39575458Y1199498D01*
X39350414Y1199498D01*
X39350414Y1312020D01*
X39350414Y1424542D01*
X39462936Y1424542D01*
X39575458Y1424542D01*
X39575458Y1537064D01*
X39575458Y1649586D01*
X39687980Y1649586D01*
X39800502Y1649586D01*
X39800502Y1424542D01*
G37*
G36*
X38915328Y1762109D02*
G01*
X38915328Y1649586D01*
X39020349Y1649586D01*
X39125369Y1649586D01*
X39125369Y1537064D01*
X39125369Y1424542D01*
X38795304Y1424542D01*
X38465239Y1424542D01*
X38465239Y1537064D01*
X38465239Y1649586D01*
X38577762Y1649586D01*
X38690284Y1649586D01*
X38690284Y1762109D01*
X38690284Y1874631D01*
X38802806Y1874631D01*
X38915328Y1874631D01*
X38915328Y1762109D01*
G37*
G36*
X35794714Y5760396D02*
G01*
X35794714Y5205286D01*
X35239604Y5205286D01*
X34684495Y5205286D01*
X34684495Y5430331D01*
X34909539Y5430331D01*
X35239604Y5430331D01*
X35569669Y5430331D01*
X35569669Y5760396D01*
X35569669Y6090461D01*
X35239604Y6090461D01*
X34909539Y6090461D01*
X34909539Y5760396D01*
X34909539Y5430331D01*
X34684495Y5430331D01*
X34684495Y5760396D01*
X34684495Y6315505D01*
X35239604Y6315505D01*
X35794714Y6315505D01*
X35794714Y5760396D01*
G37*
G36*
X35794714Y1754607D02*
G01*
X35794714Y1199498D01*
X35239604Y1199498D01*
X34684495Y1199498D01*
X34684495Y1424542D01*
X34909539Y1424542D01*
X35239604Y1424542D01*
X35569669Y1424542D01*
X35569669Y1754607D01*
X35569669Y2084672D01*
X35239604Y2084672D01*
X34909539Y2084672D01*
X34909539Y1754607D01*
X34909539Y1424542D01*
X34684495Y1424542D01*
X34684495Y1754607D01*
X34684495Y2309716D01*
X35239604Y2309716D01*
X35794714Y2309716D01*
X35794714Y1754607D01*
G37*
G36*
X38915328Y2422238D02*
G01*
X38915328Y2084672D01*
X38577762Y2084672D01*
X38240195Y2084672D01*
X38240195Y2309716D01*
X38465239Y2309716D01*
X38577762Y2309716D01*
X38690284Y2309716D01*
X38690284Y2422238D01*
X38690284Y2534761D01*
X38577762Y2534761D01*
X38465239Y2534761D01*
X38465239Y2422238D01*
X38465239Y2309716D01*
X38240195Y2309716D01*
X38240195Y2422238D01*
X38240195Y2759805D01*
X38577762Y2759805D01*
X38915328Y2759805D01*
X38915328Y2422238D01*
G37*
G36*
X39800502Y5760396D02*
G01*
X39800502Y5205286D01*
X39245393Y5205286D01*
X38690284Y5205286D01*
X38690284Y5430331D01*
X38915328Y5430331D01*
X39245393Y5430331D01*
X39575458Y5430331D01*
X39575458Y5760396D01*
X39575458Y6090461D01*
X39245393Y6090461D01*
X38915328Y6090461D01*
X38915328Y5760396D01*
X38915328Y5430331D01*
X38690284Y5430331D01*
X38690284Y5760396D01*
X38690284Y6315505D01*
X39245393Y6315505D01*
X39800502Y6315505D01*
X39800502Y5760396D01*
G37*
G36*
X38690284Y3532457D02*
G01*
X38690284Y3419935D01*
X38577762Y3419935D01*
X38465239Y3419935D01*
X38465239Y3202392D01*
X38465239Y2984849D01*
X38135174Y2984849D01*
X37805109Y2984849D01*
X37805109Y3089870D01*
X37805109Y3194891D01*
X38022652Y3194891D01*
X38240195Y3194891D01*
X38240195Y3307413D01*
X38240195Y3419935D01*
X38352717Y3419935D01*
X38465239Y3419935D01*
X38465239Y3532457D01*
X38465239Y3644979D01*
X38577762Y3644979D01*
X38690284Y3644979D01*
X38690284Y3532457D01*
G37*
G36*
X40250591Y3750000D02*
G01*
X40250591Y749409D01*
X37250000Y749409D01*
X34249410Y749409D01*
X34249410Y974453D01*
X34459451Y974453D01*
X35239604Y974453D01*
X36019758Y974453D01*
X36019758Y1754607D01*
X36019758Y2534761D01*
X35239604Y2534761D01*
X34459451Y2534761D01*
X34459451Y1754607D01*
X34459451Y974453D01*
X34249410Y974453D01*
X34249410Y1754607D01*
X34249410Y3750000D01*
X34249410Y4530153D01*
X34459451Y4530153D01*
X34684495Y4530153D01*
X34909539Y4530153D01*
X34909539Y4312611D01*
X34909539Y4095068D01*
X35022062Y4095068D01*
X35134584Y4095068D01*
X35134584Y3982546D01*
X35134584Y3870023D01*
X35022062Y3870023D01*
X34909539Y3870023D01*
X34909539Y3757501D01*
X34909539Y3644979D01*
X34684495Y3644979D01*
X34459451Y3644979D01*
X34459451Y3202392D01*
X34459451Y2759805D01*
X34571973Y2759805D01*
X34684495Y2759805D01*
X34684495Y3089870D01*
X34684495Y3419935D01*
X34797017Y3419935D01*
X34909539Y3419935D01*
X34909539Y3089870D01*
X34909539Y2759805D01*
X35239604Y2759805D01*
X35569669Y2759805D01*
X35569669Y2872327D01*
X35569669Y2984849D01*
X35464649Y2984849D01*
X35359628Y2984849D01*
X35359628Y3089870D01*
X35359628Y3194891D01*
X35247106Y3194891D01*
X35134584Y3194891D01*
X35134584Y3419935D01*
X35134584Y3644979D01*
X35247106Y3644979D01*
X35359628Y3644979D01*
X35359628Y3532457D01*
X35359628Y3419935D01*
X35464649Y3419935D01*
X35569669Y3419935D01*
X35569669Y3532457D01*
X35569669Y3644979D01*
X35794714Y3644979D01*
X36019758Y3644979D01*
X36019758Y3757501D01*
X36019758Y3870023D01*
X36132280Y3870023D01*
X36244802Y3870023D01*
X36244802Y3757501D01*
X36244802Y3644979D01*
X36357324Y3644979D01*
X36469847Y3644979D01*
X36469847Y3532457D01*
X36469847Y3419935D01*
X36132280Y3419935D01*
X35794714Y3419935D01*
X35794714Y3307413D01*
X35794714Y3194891D01*
X35907236Y3194891D01*
X36019758Y3194891D01*
X36019758Y3089870D01*
X36019758Y2984849D01*
X35907236Y2984849D01*
X35794714Y2984849D01*
X35794714Y2872327D01*
X35794714Y2759805D01*
X36019758Y2759805D01*
X36244802Y2759805D01*
X36244802Y2534761D01*
X36244802Y2309716D01*
X36357324Y2309716D01*
X36469847Y2309716D01*
X36469847Y2197194D01*
X36469847Y2084672D01*
X36357324Y2084672D01*
X36244802Y2084672D01*
X36244802Y1529563D01*
X36244802Y974453D01*
X36462345Y974453D01*
X36679888Y974453D01*
X36679888Y1086976D01*
X36679888Y1199498D01*
X36574867Y1199498D01*
X36469847Y1199498D01*
X36469847Y1312020D01*
X36469847Y1424542D01*
X36687389Y1424542D01*
X36904932Y1424542D01*
X37129977Y1424542D01*
X37242499Y1424542D01*
X37355021Y1424542D01*
X37355021Y1537064D01*
X37355021Y1649586D01*
X37242499Y1649586D01*
X37129977Y1649586D01*
X37129977Y1537064D01*
X37129977Y1424542D01*
X36904932Y1424542D01*
X36904932Y1537064D01*
X36904932Y1649586D01*
X37017454Y1649586D01*
X37129977Y1649586D01*
X37129977Y1762109D01*
X37129977Y1874631D01*
X37355021Y1874631D01*
X37580065Y1874631D01*
X37580065Y1762109D01*
X37580065Y1649586D01*
X37692587Y1649586D01*
X37805109Y1649586D01*
X37805109Y1424542D01*
X37805109Y1199498D01*
X37467543Y1199498D01*
X37129977Y1199498D01*
X37129977Y1086976D01*
X37129977Y974453D01*
X37467543Y974453D01*
X37805109Y974453D01*
X37805109Y1086976D01*
X37805109Y1199498D01*
X38022652Y1199498D01*
X38240195Y1199498D01*
X38240195Y1312020D01*
X38240195Y1424542D01*
X38352717Y1424542D01*
X38465239Y1424542D01*
X38465239Y1312020D01*
X38465239Y1199498D01*
X38577762Y1199498D01*
X38690284Y1199498D01*
X38690284Y1086976D01*
X38690284Y974453D01*
X39357915Y974453D01*
X40025547Y974453D01*
X40025547Y1424542D01*
X40025547Y1874631D01*
X39800502Y1874631D01*
X39575458Y1874631D01*
X39575458Y1979651D01*
X39575458Y2084672D01*
X39462936Y2084672D01*
X39350414Y2084672D01*
X39350414Y2197194D01*
X39350414Y2309716D01*
X39687980Y2309716D01*
X40025547Y2309716D01*
X40025547Y2422238D01*
X40025547Y2534761D01*
X39687980Y2534761D01*
X39350414Y2534761D01*
X39350414Y2647283D01*
X39350414Y2759805D01*
X39462936Y2759805D01*
X39575458Y2759805D01*
X39575458Y2872327D01*
X39575458Y2984849D01*
X39462936Y2984849D01*
X39350414Y2984849D01*
X39350414Y2872327D01*
X39350414Y2759805D01*
X39237891Y2759805D01*
X39125369Y2759805D01*
X39125369Y2977348D01*
X39125369Y3194891D01*
X39237891Y3194891D01*
X39350414Y3194891D01*
X39350414Y3419935D01*
X39350414Y3644979D01*
X39462936Y3644979D01*
X39575458Y3644979D01*
X39575458Y3419935D01*
X39575458Y3194891D01*
X39687980Y3194891D01*
X39800502Y3194891D01*
X39800502Y3089870D01*
X39800502Y2984849D01*
X39913024Y2984849D01*
X40025547Y2984849D01*
X40025547Y3202392D01*
X40025547Y3419935D01*
X39913024Y3419935D01*
X39800502Y3419935D01*
X39800502Y3532457D01*
X39800502Y3644979D01*
X39913024Y3644979D01*
X40025547Y3644979D01*
X40025547Y3982546D01*
X40025547Y4320112D01*
X39913024Y4320112D01*
X39800502Y4320112D01*
X39800502Y4537655D01*
X39800502Y4755198D01*
X39687980Y4755198D01*
X39575458Y4755198D01*
X39575458Y4425133D01*
X39575458Y4095068D01*
X39687980Y4095068D01*
X39800502Y4095068D01*
X39800502Y3982546D01*
X39800502Y3870023D01*
X39575458Y3870023D01*
X39350414Y3870023D01*
X39350414Y3757501D01*
X39350414Y3644979D01*
X39237891Y3644979D01*
X39125369Y3644979D01*
X39125369Y3757501D01*
X39125369Y3870023D01*
X39020349Y3870023D01*
X38915328Y3870023D01*
X38915328Y4095068D01*
X39125369Y4095068D01*
X39237891Y4095068D01*
X39350414Y4095068D01*
X39350414Y4207590D01*
X39350414Y4320112D01*
X39237891Y4320112D01*
X39125369Y4320112D01*
X39125369Y4207590D01*
X39125369Y4095068D01*
X38915328Y4095068D01*
X38915328Y4207590D01*
X38915328Y4312611D01*
X38915328Y4530153D01*
X39125369Y4530153D01*
X39237891Y4530153D01*
X39350414Y4530153D01*
X39350414Y4642676D01*
X39350414Y4755198D01*
X39237891Y4755198D01*
X39125369Y4755198D01*
X39125369Y4642676D01*
X39125369Y4530153D01*
X38915328Y4530153D01*
X38915328Y4642676D01*
X38915328Y4755198D01*
X38802806Y4755198D01*
X38690284Y4755198D01*
X38690284Y4312611D01*
X38690284Y3870023D01*
X38577762Y3870023D01*
X38465239Y3870023D01*
X38465239Y3757501D01*
X38465239Y3644979D01*
X38240195Y3644979D01*
X38015151Y3644979D01*
X38015151Y3532457D01*
X38015151Y3419935D01*
X37910130Y3419935D01*
X37805109Y3419935D01*
X37805109Y3307413D01*
X37805109Y3194891D01*
X37692587Y3194891D01*
X37580065Y3194891D01*
X37580065Y3089870D01*
X37580065Y2984849D01*
X37467543Y2984849D01*
X37355021Y2984849D01*
X37355021Y3089870D01*
X37355021Y3194891D01*
X37242499Y3194891D01*
X37129977Y3194891D01*
X37129977Y3089870D01*
X37129977Y2984849D01*
X37242499Y2984849D01*
X37355021Y2984849D01*
X37355021Y2872327D01*
X37355021Y2759805D01*
X37580065Y2759805D01*
X37805109Y2759805D01*
X37805109Y2647283D01*
X37805109Y2534761D01*
X37910130Y2534761D01*
X38015151Y2534761D01*
X38015151Y2309716D01*
X38015151Y2084672D01*
X37910130Y2084672D01*
X37805109Y2084672D01*
X37805109Y2197194D01*
X37805109Y2309716D01*
X37692587Y2309716D01*
X37580065Y2309716D01*
X37580065Y2422238D01*
X37580065Y2534761D01*
X37467543Y2534761D01*
X37355021Y2534761D01*
X37355021Y2422238D01*
X37355021Y2309716D01*
X37242499Y2309716D01*
X37129977Y2309716D01*
X37129977Y2092173D01*
X37129977Y1874631D01*
X37017454Y1874631D01*
X36904932Y1874631D01*
X36904932Y1762109D01*
X36904932Y1649586D01*
X36792410Y1649586D01*
X36679888Y1649586D01*
X36679888Y1762109D01*
X36679888Y1874631D01*
X36574867Y1874631D01*
X36469847Y1874631D01*
X36469847Y1979651D01*
X36469847Y2084672D01*
X36574867Y2084672D01*
X36679888Y2084672D01*
X36679888Y2309716D01*
X36679888Y2534761D01*
X36904932Y2534761D01*
X37129977Y2534761D01*
X37129977Y2647283D01*
X37129977Y2759805D01*
X36799912Y2759805D01*
X36469847Y2759805D01*
X36469847Y2872327D01*
X36469847Y2984849D01*
X36687389Y2984849D01*
X36904932Y2984849D01*
X36904932Y3314914D01*
X36904932Y3644979D01*
X37017454Y3644979D01*
X37129977Y3644979D01*
X37129977Y3532457D01*
X37129977Y3419935D01*
X37355021Y3419935D01*
X37580065Y3419935D01*
X37580065Y3532457D01*
X37580065Y3644979D01*
X37692587Y3644979D01*
X37805109Y3644979D01*
X37805109Y3757501D01*
X37805109Y3870023D01*
X37467543Y3870023D01*
X37129977Y3870023D01*
X37129977Y3982546D01*
X37129977Y4095068D01*
X37242499Y4095068D01*
X37355021Y4095068D01*
X37805109Y4095068D01*
X38135174Y4095068D01*
X38465239Y4095068D01*
X38465239Y4207590D01*
X38465239Y4320112D01*
X38135174Y4320112D01*
X37805109Y4320112D01*
X37805109Y4207590D01*
X37805109Y4095068D01*
X37355021Y4095068D01*
X37355021Y4207590D01*
X37355021Y4320112D01*
X37129977Y4320112D01*
X36904932Y4320112D01*
X36904932Y4207590D01*
X36904932Y4095068D01*
X36792410Y4095068D01*
X36679888Y4095068D01*
X36679888Y4312611D01*
X36679888Y4530153D01*
X36792410Y4530153D01*
X36904932Y4530153D01*
X36904932Y4642676D01*
X36904932Y4755198D01*
X36349823Y4755198D01*
X35794714Y4755198D01*
X35794714Y4642676D01*
X35794714Y4530153D01*
X35682192Y4530153D01*
X35569669Y4530153D01*
X35569669Y4642676D01*
X35569669Y4755198D01*
X35014560Y4755198D01*
X34459451Y4755198D01*
X34459451Y4642676D01*
X34459451Y4530153D01*
X34249410Y4530153D01*
X34249410Y4642676D01*
X34249410Y4980242D01*
X34459451Y4980242D01*
X35239604Y4980242D01*
X36019758Y4980242D01*
X36244802Y4980242D01*
X36357324Y4980242D01*
X36469847Y4980242D01*
X36469847Y5205286D01*
X36469847Y5430331D01*
X36357324Y5430331D01*
X36244802Y5430331D01*
X36244802Y5205286D01*
X36244802Y4980242D01*
X36019758Y4980242D01*
X36019758Y5205286D01*
X36019758Y5760396D01*
X36019758Y6202983D01*
X36244802Y6202983D01*
X36244802Y6090461D01*
X36357324Y6090461D01*
X36469847Y6090461D01*
X36469847Y5977938D01*
X36469847Y5865416D01*
X36357324Y5865416D01*
X36244802Y5865416D01*
X36244802Y5752894D01*
X36244802Y5640372D01*
X36462345Y5640372D01*
X36679888Y5640372D01*
X36679888Y5310307D01*
X36679888Y4980242D01*
X36792410Y4980242D01*
X36904932Y4980242D01*
X36904932Y5310307D01*
X36904932Y5640372D01*
X37017454Y5640372D01*
X37129977Y5640372D01*
X37129977Y5535351D01*
X37129977Y5430331D01*
X37242499Y5430331D01*
X37355021Y5430331D01*
X37355021Y5317808D01*
X37355021Y5205286D01*
X37242499Y5205286D01*
X37129977Y5205286D01*
X37129977Y4867720D01*
X37129977Y4530153D01*
X37355021Y4530153D01*
X37580065Y4530153D01*
X37580065Y4425133D01*
X37580065Y4320112D01*
X37692587Y4320112D01*
X37805109Y4320112D01*
X37805109Y4530153D01*
X38240195Y4530153D01*
X38352717Y4530153D01*
X38465239Y4530153D01*
X38465239Y4642676D01*
X38465239Y4755198D01*
X38352717Y4755198D01*
X38240195Y4755198D01*
X38240195Y4642676D01*
X38240195Y4530153D01*
X37805109Y4530153D01*
X37805109Y4642676D01*
X37805109Y4755198D01*
X38015151Y4755198D01*
X38127673Y4755198D01*
X38240195Y4755198D01*
X38240195Y4980242D01*
X38465239Y4980242D01*
X39245393Y4980242D01*
X40025547Y4980242D01*
X40025547Y5760396D01*
X40025547Y6540549D01*
X39245393Y6540549D01*
X38465239Y6540549D01*
X38465239Y5760396D01*
X38465239Y4980242D01*
X38240195Y4980242D01*
X38240195Y5205286D01*
X38127673Y5205286D01*
X38015151Y5205286D01*
X38015151Y4980242D01*
X38015151Y4755198D01*
X37805109Y4755198D01*
X37805109Y4762699D01*
X37805109Y4980242D01*
X37805109Y5205286D01*
X37910130Y5205286D01*
X38015151Y5205286D01*
X38015151Y5317808D01*
X38015151Y5430331D01*
X38127673Y5430331D01*
X38240195Y5430331D01*
X38240195Y5535351D01*
X38240195Y5640372D01*
X38127673Y5640372D01*
X38015151Y5640372D01*
X38015151Y5752894D01*
X38015151Y5760396D01*
X38015151Y5865416D01*
X37910130Y5865416D01*
X37805109Y5865416D01*
X37805109Y5977938D01*
X37805109Y6090461D01*
X38022652Y6090461D01*
X38240195Y6090461D01*
X38240195Y6315505D01*
X38240195Y6540549D01*
X38127673Y6540549D01*
X38015151Y6540549D01*
X38015151Y6428027D01*
X38015151Y6315505D01*
X37910130Y6315505D01*
X37805109Y6315505D01*
X37805109Y6202983D01*
X37805109Y6090461D01*
X37692587Y6090461D01*
X37580065Y6090461D01*
X37580065Y6202983D01*
X37580065Y6315505D01*
X37242499Y6315505D01*
X36904932Y6315505D01*
X36904932Y6202983D01*
X36904932Y6090461D01*
X36792410Y6090461D01*
X36679888Y6090461D01*
X36679888Y6315505D01*
X36679888Y6540549D01*
X36574867Y6540549D01*
X36469847Y6540549D01*
X36469847Y6428027D01*
X36469847Y6315505D01*
X36357324Y6315505D01*
X36244802Y6315505D01*
X36244802Y6202983D01*
X36019758Y6202983D01*
X36019758Y6315505D01*
X36019758Y6540549D01*
X35239604Y6540549D01*
X34459451Y6540549D01*
X34459451Y5760396D01*
X34459451Y4980242D01*
X34249410Y4980242D01*
X34249410Y5760396D01*
X34249410Y6750590D01*
X37250000Y6750590D01*
X40250591Y6750590D01*
X40250591Y3750000D01*
G37*
D12*
%TO.C,R14*%
X20977500Y15437258D02*
X20977500Y14962742D01*
X22022500Y15437258D02*
X22022500Y14962742D01*
%TO.C,R3*%
X29577500Y8812742D02*
X29577500Y9287258D01*
X30622500Y8812742D02*
X30622500Y9287258D01*
%TO.C,D2*%
X12265000Y19800000D02*
X12265000Y17515000D01*
X12265000Y17515000D02*
X13735000Y17515000D01*
X13735000Y17515000D02*
X13735000Y19800000D01*
%TO.C,R5*%
X9237258Y21772500D02*
X8762742Y21772500D01*
X9237258Y20727500D02*
X8762742Y20727500D01*
%TO.C,U8*%
X23250000Y22810000D02*
X22450000Y22810000D01*
X23250000Y22810000D02*
X24050000Y22810000D01*
X23250000Y19690000D02*
X22450000Y19690000D01*
X23250000Y19690000D02*
X24050000Y19690000D01*
X24790000Y19410000D02*
X24310000Y19410000D01*
X24550000Y19740000D01*
X24790000Y19410000D01*
G36*
X24790000Y19410000D02*
G01*
X24310000Y19410000D01*
X24550000Y19740000D01*
X24790000Y19410000D01*
G37*
%TO.C,D1*%
X10765000Y20485000D02*
X10765000Y18200000D01*
X12235000Y20485000D02*
X10765000Y20485000D01*
X12235000Y18200000D02*
X12235000Y20485000D01*
%TO.C,U3*%
X25860000Y7250000D02*
X25860000Y9250000D01*
X29140000Y7250000D02*
X29140000Y9250000D01*
X25930000Y6600000D02*
X25650000Y6880000D01*
X25930000Y6880000D01*
X25930000Y6600000D01*
G36*
X25930000Y6600000D02*
G01*
X25650000Y6880000D01*
X25930000Y6880000D01*
X25930000Y6600000D01*
G37*
%TO.C,R19*%
X15512742Y17522500D02*
X15987258Y17522500D01*
X15512742Y16477500D02*
X15987258Y16477500D01*
%TO.C,REF\u002A\u002A*%
X4800000Y15000000D02*
G75*
G02*
X1800000Y15000000I-1500000J0D01*
G01*
X1800000Y15000000D02*
G75*
G02*
X4800000Y15000000I1500000J0D01*
G01*
D14*
%TO.C,J3*%
X-9555000Y17665000D02*
X-9555000Y12335000D01*
X-8840000Y17715000D02*
X-8840000Y12335000D01*
X-8840000Y17665000D02*
X-9555000Y17665000D01*
X-8840000Y12335000D02*
X-9555000Y12335000D01*
X-8629000Y18094000D02*
X-8840000Y17715000D01*
X-8629000Y18094000D02*
X-8840000Y12335000D01*
X-8629000Y11906000D02*
X-8840000Y12335000D01*
X-8491000Y18094000D02*
X-8840000Y12335000D01*
X-8491000Y18094000D02*
X-8629000Y18094000D01*
X-8491000Y11906000D02*
X-8629000Y11906000D01*
X-8280010Y17715000D02*
X-8840000Y12335000D01*
X-8280010Y17715000D02*
X-8491000Y18094000D01*
X-8280010Y12285000D02*
X-8491000Y11906000D01*
X-8069010Y18094000D02*
X-8629000Y11906000D01*
X-8069010Y18094000D02*
X-8280010Y17715000D01*
X-8069010Y11906000D02*
X-8280010Y12285000D01*
X-7931000Y18094000D02*
X-8491000Y11906000D01*
X-7931000Y18094000D02*
X-8069010Y18094000D01*
X-7931000Y11906000D02*
X-8069010Y11906000D01*
X-7720000Y17715000D02*
X-8280010Y12285000D01*
X-7720000Y17715000D02*
X-7931000Y18094000D01*
X-7720000Y12285000D02*
X-7931000Y11906000D01*
X-7509000Y18094000D02*
X-8069010Y11906000D01*
X-7509000Y18094000D02*
X-7720000Y17715000D01*
X-7509000Y11906000D02*
X-7720000Y12285000D01*
X-7371000Y18094000D02*
X-7931000Y11906000D01*
X-7371000Y18094000D02*
X-7509000Y18094000D01*
X-7371000Y11906000D02*
X-7509000Y11906000D01*
X-7160000Y17715000D02*
X-7720000Y12285000D01*
X-7160000Y17715000D02*
X-7371000Y18094000D01*
X-7160000Y12285000D02*
X-7371000Y11906000D01*
X-6949000Y18094000D02*
X-7509000Y11906000D01*
X-6949000Y18094000D02*
X-7160000Y17715000D01*
X-6949000Y11906000D02*
X-7160000Y12285000D01*
X-6811000Y18094000D02*
X-7371000Y11906000D01*
X-6811000Y18094000D02*
X-6949000Y18094000D01*
X-6811000Y11906000D02*
X-6949000Y11906000D01*
X-6600000Y17715000D02*
X-7160000Y12285000D01*
X-6600000Y17715000D02*
X-6811000Y18094000D01*
X-6600000Y12285000D02*
X-6811000Y11906000D01*
X-6389000Y18094000D02*
X-6949000Y11906000D01*
X-6389000Y18094000D02*
X-6600000Y17715000D01*
X-6389000Y11906000D02*
X-6600000Y12285000D01*
X-6251000Y18094000D02*
X-6811000Y11906000D01*
X-6251000Y18094000D02*
X-6389000Y18094000D01*
X-6251000Y11906000D02*
X-6389000Y11906000D01*
X-6040000Y17715000D02*
X-6600000Y12285000D01*
X-6040000Y17715000D02*
X-6251000Y18094000D01*
X-6040000Y12285000D02*
X-6251000Y11906000D01*
X-5829000Y18094000D02*
X-6389000Y11906000D01*
X-5829000Y18094000D02*
X-6040000Y17715000D01*
X-5829000Y11906000D02*
X-6040000Y12285000D01*
X-5691000Y18094000D02*
X-6251000Y11906000D01*
X-5691000Y18094000D02*
X-5829000Y18094000D01*
X-5691000Y11906000D02*
X-5829000Y11906000D01*
X-5480000Y17715000D02*
X-6040000Y12285000D01*
X-5480000Y17715000D02*
X-5691000Y18094000D01*
X-5480000Y12285000D02*
X-5691000Y11906000D01*
X-5269000Y18094000D02*
X-5829000Y11906000D01*
X-5269000Y18094000D02*
X-5480000Y17715000D01*
X-5269000Y11906000D02*
X-5480000Y12285000D01*
X-5131000Y18094000D02*
X-5691000Y11906000D01*
X-5131000Y18094000D02*
X-5269000Y18094000D01*
X-5131000Y11906000D02*
X-5269000Y11906000D01*
X-4920000Y17712690D02*
X-5480000Y12285000D01*
X-4920000Y17712690D02*
X-5269000Y11906000D01*
X-4920000Y17712690D02*
X-5131000Y18094000D01*
X-4920000Y17712690D02*
X-4920000Y12285000D01*
X-4920000Y17665000D02*
X-5131000Y11906000D01*
X-4920000Y12285000D02*
X-5131000Y11906000D01*
X-4545000Y17447390D02*
X-4920000Y17665000D01*
X-4545000Y17447390D02*
X-4545000Y12546720D01*
X-4545000Y12546730D02*
X-4920000Y12335000D01*
X-1675000Y19760000D02*
X-1675000Y10240000D01*
X-1675000Y17447390D02*
X-4545000Y17447390D01*
X-1675000Y12546730D02*
X-4545000Y12546730D01*
X-25000Y19760000D02*
X-1675000Y19760000D01*
X-25000Y19760000D02*
X-25000Y16137300D01*
X-25000Y13862700D02*
X-25000Y10240000D01*
X-25000Y10240000D02*
X-1675000Y10240000D01*
D12*
%TO.C,FB2*%
X54090000Y21335242D02*
X54090000Y19664758D01*
X55910000Y21335242D02*
X55910000Y19664758D01*
%TO.C,U4*%
X13750000Y8860000D02*
X12250000Y8860000D01*
X13750000Y8860000D02*
X15250000Y8860000D01*
X13750000Y5640000D02*
X12250000Y5640000D01*
X13750000Y5640000D02*
X15250000Y5640000D01*
X16202500Y5485000D02*
X15722500Y5485000D01*
X15962500Y5815000D01*
X16202500Y5485000D01*
G36*
X16202500Y5485000D02*
G01*
X15722500Y5485000D01*
X15962500Y5815000D01*
X16202500Y5485000D01*
G37*
%TO.C,C18*%
X12109420Y15510000D02*
X12390580Y15510000D01*
X12109420Y14490000D02*
X12390580Y14490000D01*
%TO.C,R13*%
X28762742Y14522500D02*
X29237258Y14522500D01*
X28762742Y13477500D02*
X29237258Y13477500D01*
D13*
%TO.C,G\u002A\u002A\u002A*%
G36*
X51031804Y2164175D02*
G01*
X51089284Y2112194D01*
X51106078Y2041737D01*
X51085955Y1972943D01*
X51032688Y1925947D01*
X50985441Y1916587D01*
X50921798Y1936809D01*
X50900573Y1952959D01*
X50867598Y2023143D01*
X50874643Y2105176D01*
X50910563Y2159814D01*
X50963657Y2182831D01*
X51031804Y2164175D01*
G37*
G36*
X53547556Y2164175D02*
G01*
X53605036Y2112194D01*
X53621830Y2041737D01*
X53601707Y1972943D01*
X53548440Y1925947D01*
X53501193Y1916587D01*
X53437550Y1936809D01*
X53416325Y1952959D01*
X53383350Y2023143D01*
X53390395Y2105176D01*
X53426315Y2159814D01*
X53479409Y2182831D01*
X53547556Y2164175D01*
G37*
G36*
X49787289Y2165259D02*
G01*
X49841481Y2110380D01*
X49863962Y2052983D01*
X49838357Y1990011D01*
X49778011Y1937215D01*
X49711312Y1916587D01*
X49651779Y1940950D01*
X49622546Y1975215D01*
X49597008Y2035615D01*
X49591169Y2063981D01*
X49614683Y2114503D01*
X49667609Y2164339D01*
X49723525Y2189197D01*
X49727566Y2189379D01*
X49787289Y2165259D01*
G37*
G36*
X52303041Y2165259D02*
G01*
X52357233Y2110380D01*
X52379714Y2052983D01*
X52354109Y1990011D01*
X52293763Y1937215D01*
X52227064Y1916587D01*
X52167531Y1940950D01*
X52138298Y1975215D01*
X52112760Y2035615D01*
X52106921Y2063981D01*
X52130435Y2114503D01*
X52183361Y2164339D01*
X52239277Y2189197D01*
X52243317Y2189379D01*
X52303041Y2165259D01*
G37*
G36*
X45287112Y3295704D02*
G01*
X45287112Y3189618D01*
X42998314Y3189618D01*
X40709516Y3189618D01*
X40717467Y2075716D01*
X40725418Y961814D01*
X43407876Y961814D01*
X46090334Y961814D01*
X46098255Y2181802D01*
X46106177Y3401790D01*
X46211919Y3401790D01*
X46317661Y3401790D01*
X46317661Y2068138D01*
X46317661Y734487D01*
X43407876Y734487D01*
X40498091Y734487D01*
X40498091Y2068138D01*
X40498091Y3401790D01*
X42892601Y3401790D01*
X45287112Y3401790D01*
X45287112Y3295704D01*
G37*
G36*
X47711933Y2734964D02*
G01*
X47711933Y2644033D01*
X47363365Y2644033D01*
X47014797Y2644033D01*
X47014797Y2416706D01*
X47014797Y2189379D01*
X47333055Y2189379D01*
X47651313Y2189379D01*
X47651313Y2098449D01*
X47651313Y2007518D01*
X47333055Y2007518D01*
X47014797Y2007518D01*
X47014797Y1643795D01*
X47014797Y1280072D01*
X46923866Y1280072D01*
X46832936Y1280072D01*
X46832936Y2052983D01*
X46832936Y2825895D01*
X47272434Y2825895D01*
X47711933Y2825895D01*
X47711933Y2734964D01*
G37*
G36*
X43620048Y2447017D02*
G01*
X43620048Y2159069D01*
X43877685Y2159069D01*
X44135322Y2159069D01*
X44135322Y2447017D01*
X44135322Y2734964D01*
X44226253Y2734964D01*
X44317184Y2734964D01*
X44317184Y2037828D01*
X44317184Y1340692D01*
X44226253Y1340692D01*
X44135322Y1340692D01*
X44135322Y1674105D01*
X44135322Y2007518D01*
X43877685Y2007518D01*
X43620048Y2007518D01*
X43620048Y1674105D01*
X43620048Y1340692D01*
X43529117Y1340692D01*
X43438186Y1340692D01*
X43438186Y2037828D01*
X43438186Y2734964D01*
X43529117Y2734964D01*
X43620048Y2734964D01*
X43620048Y2447017D01*
G37*
G36*
X56146611Y2810194D02*
G01*
X56227091Y2781477D01*
X56341171Y2691059D01*
X56412606Y2567102D01*
X56438049Y2422224D01*
X56414155Y2269044D01*
X56382950Y2193852D01*
X56340431Y2127867D01*
X56266472Y2030290D01*
X56171101Y1913750D01*
X56064342Y1790876D01*
X56053035Y1778294D01*
X55781459Y1477088D01*
X56111374Y1468518D01*
X56441289Y1459948D01*
X56441289Y1370010D01*
X56441289Y1280072D01*
X55986635Y1280072D01*
X55531981Y1280072D01*
X55531981Y1358176D01*
X55546384Y1407979D01*
X55592147Y1482244D01*
X55673096Y1586186D01*
X55793059Y1725020D01*
X55837849Y1774942D01*
X55978493Y1932918D01*
X56082121Y2056223D01*
X56154104Y2153520D01*
X56199816Y2233473D01*
X56224630Y2304745D01*
X56233919Y2376001D01*
X56234420Y2414393D01*
X56207973Y2533500D01*
X56137733Y2618249D01*
X56031765Y2665668D01*
X55898141Y2672784D01*
X55744926Y2636626D01*
X55691110Y2614539D01*
X55562291Y2556066D01*
X55562291Y2655873D01*
X55568098Y2720019D01*
X55596273Y2757532D01*
X55662947Y2785770D01*
X55691110Y2794499D01*
X55843613Y2824436D01*
X56003160Y2829481D01*
X56146611Y2810194D01*
G37*
G36*
X54867972Y2812512D02*
G01*
X55015485Y2750198D01*
X55121679Y2647315D01*
X55142748Y2612666D01*
X55185492Y2508567D01*
X55197044Y2405340D01*
X55174459Y2295726D01*
X55114795Y2172468D01*
X55015106Y2028310D01*
X54872451Y1855993D01*
X54805075Y1780191D01*
X54531758Y1477088D01*
X54865163Y1468518D01*
X55198568Y1459948D01*
X55198568Y1370010D01*
X55198568Y1280072D01*
X54743914Y1280072D01*
X54289260Y1280072D01*
X54289260Y1363894D01*
X54300329Y1411997D01*
X54336958Y1476956D01*
X54404283Y1565879D01*
X54507437Y1685877D01*
X54579303Y1765505D01*
X54729471Y1934609D01*
X54839881Y2070996D01*
X54915594Y2182766D01*
X54961673Y2278018D01*
X54983180Y2364851D01*
X54986396Y2416877D01*
X54961579Y2533798D01*
X54892611Y2617218D01*
X54787721Y2664155D01*
X54655136Y2671627D01*
X54503084Y2636652D01*
X54445079Y2613057D01*
X54365469Y2577958D01*
X54312168Y2556375D01*
X54301105Y2553103D01*
X54292835Y2579531D01*
X54289264Y2643337D01*
X54289260Y2645580D01*
X54299062Y2711907D01*
X54339457Y2754841D01*
X54398582Y2783735D01*
X54492500Y2810215D01*
X54612945Y2827902D01*
X54684054Y2831910D01*
X54867972Y2812512D01*
G37*
G36*
X49841427Y2806900D02*
G01*
X49916732Y2791457D01*
X49974371Y2758522D01*
X50001822Y2734964D01*
X50087853Y2629491D01*
X50149600Y2489742D01*
X50191362Y2305008D01*
X50200571Y2239724D01*
X50212432Y2029178D01*
X50197140Y1824575D01*
X50157648Y1637626D01*
X50096908Y1480042D01*
X50017874Y1363534D01*
X49969220Y1322208D01*
X49843082Y1271199D01*
X49697280Y1259386D01*
X49559491Y1288095D01*
X49530711Y1301151D01*
X49418443Y1392974D01*
X49332328Y1538102D01*
X49273319Y1734704D01*
X49257909Y1824584D01*
X49245362Y1997997D01*
X49444909Y1997997D01*
X49446304Y1962052D01*
X49463593Y1756587D01*
X49495813Y1604818D01*
X49544878Y1501234D01*
X49612707Y1440325D01*
X49630644Y1431980D01*
X49698546Y1408110D01*
X49748799Y1408171D01*
X49815071Y1430321D01*
X49889829Y1479249D01*
X49944609Y1565356D01*
X49981800Y1695201D01*
X50003791Y1875340D01*
X50008827Y1962052D01*
X50007893Y2210970D01*
X49980654Y2407176D01*
X49927334Y2550104D01*
X49848156Y2639188D01*
X49743344Y2673862D01*
X49727566Y2674344D01*
X49619378Y2646912D01*
X49536795Y2564996D01*
X49480040Y2429160D01*
X49449337Y2239972D01*
X49444909Y1997997D01*
X49245362Y1997997D01*
X49240986Y2058482D01*
X49255878Y2278757D01*
X49300265Y2474109D01*
X49371824Y2633240D01*
X49442419Y2722492D01*
X49501141Y2771980D01*
X49560089Y2798597D01*
X49641353Y2809190D01*
X49727114Y2810740D01*
X49841427Y2806900D01*
G37*
G36*
X52357178Y2806900D02*
G01*
X52432483Y2791457D01*
X52490123Y2758522D01*
X52517574Y2734964D01*
X52603605Y2629491D01*
X52665352Y2489742D01*
X52707113Y2305008D01*
X52716323Y2239724D01*
X52728184Y2029178D01*
X52712892Y1824575D01*
X52673399Y1637626D01*
X52612660Y1480042D01*
X52533626Y1363534D01*
X52484972Y1322208D01*
X52358834Y1271199D01*
X52213032Y1259386D01*
X52075242Y1288095D01*
X52046463Y1301151D01*
X51934195Y1392974D01*
X51848080Y1538102D01*
X51789071Y1734704D01*
X51773660Y1824584D01*
X51761113Y1997997D01*
X51960661Y1997997D01*
X51962056Y1962052D01*
X51979345Y1756587D01*
X52011565Y1604818D01*
X52060630Y1501234D01*
X52128459Y1440325D01*
X52146396Y1431980D01*
X52214298Y1408110D01*
X52264551Y1408171D01*
X52330823Y1430321D01*
X52405581Y1479249D01*
X52460361Y1565356D01*
X52497552Y1695201D01*
X52519543Y1875340D01*
X52524579Y1962052D01*
X52523645Y2210970D01*
X52496406Y2407176D01*
X52443086Y2550104D01*
X52363908Y2639188D01*
X52259096Y2673862D01*
X52243317Y2674344D01*
X52135130Y2646912D01*
X52052547Y2564996D01*
X51995792Y2429160D01*
X51965089Y2239972D01*
X51960661Y1997997D01*
X51761113Y1997997D01*
X51756737Y2058482D01*
X51771630Y2278757D01*
X51816017Y2474109D01*
X51887576Y2633240D01*
X51958170Y2722492D01*
X52016893Y2771980D01*
X52075841Y2798597D01*
X52157105Y2809190D01*
X52242866Y2810740D01*
X52357178Y2806900D01*
G37*
G36*
X41715098Y2730108D02*
G01*
X41821017Y2687927D01*
X41827407Y2683463D01*
X41909440Y2608134D01*
X41967296Y2514209D01*
X42004237Y2391213D01*
X42023525Y2228675D01*
X42028485Y2037828D01*
X42026884Y1879449D01*
X42020944Y1766711D01*
X42008519Y1684674D01*
X41987461Y1618397D01*
X41959989Y1561066D01*
X41899239Y1472628D01*
X41827737Y1402866D01*
X41802640Y1386782D01*
X41689274Y1351861D01*
X41554248Y1343032D01*
X41427853Y1360786D01*
X41377223Y1379855D01*
X41317885Y1428710D01*
X41253390Y1509121D01*
X41225671Y1553692D01*
X41192299Y1618790D01*
X41170387Y1681653D01*
X41157573Y1757347D01*
X41151493Y1860939D01*
X41149787Y2007497D01*
X41149761Y2037828D01*
X41154145Y2183741D01*
X41323377Y2183741D01*
X41323547Y1962052D01*
X41338881Y1779012D01*
X41365719Y1647452D01*
X41406914Y1558856D01*
X41465316Y1504706D01*
X41479054Y1497384D01*
X41579746Y1466741D01*
X41666756Y1487871D01*
X41725553Y1530131D01*
X41790745Y1613648D01*
X41833791Y1736264D01*
X41856525Y1905040D01*
X41861329Y2053183D01*
X41848209Y2263303D01*
X41808147Y2426705D01*
X41742468Y2540712D01*
X41652498Y2602646D01*
X41583977Y2613723D01*
X41479957Y2586334D01*
X41401576Y2504853D01*
X41349245Y2370312D01*
X41323377Y2183741D01*
X41154145Y2183741D01*
X41155999Y2245466D01*
X41176889Y2404027D01*
X41215694Y2523978D01*
X41275678Y2615782D01*
X41351113Y2683463D01*
X41453998Y2727876D01*
X41584043Y2743425D01*
X41715098Y2730108D01*
G37*
G36*
X42824748Y2737707D02*
G01*
X42943818Y2725370D01*
X43039229Y2704589D01*
X43074381Y2689549D01*
X43096522Y2651674D01*
X43104165Y2592747D01*
X43096677Y2540718D01*
X43078165Y2522792D01*
X43035052Y2533623D01*
X42961846Y2560441D01*
X42942742Y2568258D01*
X42799845Y2606377D01*
X42672005Y2601137D01*
X42568395Y2557866D01*
X42498187Y2481892D01*
X42470553Y2378543D01*
X42479741Y2299302D01*
X42498787Y2256296D01*
X42538539Y2220396D01*
X42609309Y2186298D01*
X42721410Y2148695D01*
X42836935Y2115522D01*
X42995630Y2051286D01*
X43101201Y1959910D01*
X43155955Y1838801D01*
X43165394Y1746050D01*
X43142156Y1583985D01*
X43073396Y1461195D01*
X42960540Y1378607D01*
X42805016Y1337150D01*
X42608251Y1337750D01*
X42548577Y1345193D01*
X42431056Y1365039D01*
X42361542Y1386693D01*
X42327693Y1417683D01*
X42317166Y1465534D01*
X42316706Y1486588D01*
X42316706Y1573766D01*
X42490619Y1515053D01*
X42664211Y1474293D01*
X42804084Y1481728D01*
X42913876Y1537807D01*
X42948444Y1571941D01*
X42998287Y1649419D01*
X43003822Y1729624D01*
X43000810Y1746842D01*
X42978064Y1823192D01*
X42937590Y1877747D01*
X42866740Y1920255D01*
X42752866Y1960464D01*
X42705586Y1974347D01*
X42544802Y2027399D01*
X42433707Y2083228D01*
X42361543Y2149178D01*
X42317552Y2232592D01*
X42314604Y2241214D01*
X42295821Y2384859D01*
X42331001Y2517650D01*
X42413488Y2628546D01*
X42536625Y2706509D01*
X42608823Y2729128D01*
X42705316Y2739620D01*
X42824748Y2737707D01*
G37*
G36*
X48295406Y2790149D02*
G01*
X48458621Y2779273D01*
X48592296Y2761692D01*
X48682538Y2739365D01*
X48695885Y2733668D01*
X48809734Y2648521D01*
X48885034Y2532819D01*
X48919302Y2400955D01*
X48910053Y2267323D01*
X48854802Y2146317D01*
X48806519Y2092671D01*
X48735987Y2039119D01*
X48676458Y2009554D01*
X48663903Y2007518D01*
X48648976Y1992836D01*
X48686908Y1948947D01*
X48706880Y1931544D01*
X48748635Y1882863D01*
X48807522Y1797413D01*
X48875424Y1689131D01*
X48944222Y1571954D01*
X49005799Y1459819D01*
X49052036Y1366665D01*
X49074816Y1306429D01*
X49075895Y1297990D01*
X49049293Y1285947D01*
X48984226Y1280161D01*
X48974027Y1280072D01*
X48924141Y1282996D01*
X48886843Y1298922D01*
X48852784Y1338582D01*
X48812616Y1412705D01*
X48759705Y1526082D01*
X48682050Y1685679D01*
X48614170Y1796030D01*
X48547205Y1865576D01*
X48472297Y1902757D01*
X48380587Y1916013D01*
X48349826Y1916587D01*
X48196897Y1916587D01*
X48196897Y1598329D01*
X48196897Y1280072D01*
X48090811Y1280072D01*
X47984725Y1280072D01*
X47984725Y2041266D01*
X47984725Y2059503D01*
X48196897Y2059503D01*
X48384530Y2079114D01*
X48524806Y2103711D01*
X48618168Y2145142D01*
X48642168Y2164491D01*
X48696426Y2252977D01*
X48712211Y2364902D01*
X48687853Y2475536D01*
X48665813Y2514870D01*
X48594041Y2573897D01*
X48481126Y2618430D01*
X48346026Y2641864D01*
X48295406Y2643864D01*
X48196897Y2644033D01*
X48196897Y2351768D01*
X48196897Y2059503D01*
X47984725Y2059503D01*
X47984725Y2351768D01*
X47984725Y2802460D01*
X48295406Y2790149D01*
G37*
G36*
X51141098Y2801168D02*
G01*
X51266389Y2725873D01*
X51365396Y2597091D01*
X51382915Y2563642D01*
X51414471Y2492970D01*
X51435345Y2423691D01*
X51447673Y2340723D01*
X51453592Y2228985D01*
X51455239Y2073395D01*
X51455251Y2052983D01*
X51454060Y1893003D01*
X51449004Y1778525D01*
X51437856Y1694454D01*
X51418389Y1625693D01*
X51388376Y1557146D01*
X51379475Y1539284D01*
X51321623Y1442747D01*
X51257658Y1362005D01*
X51225299Y1332470D01*
X51107323Y1278851D01*
X50968018Y1261349D01*
X50836811Y1282926D01*
X50816164Y1291261D01*
X50687841Y1382027D01*
X50592996Y1522435D01*
X50532063Y1711303D01*
X50505480Y1947449D01*
X50506374Y2052983D01*
X50700760Y2052983D01*
X50704396Y1904589D01*
X50714977Y1769239D01*
X50730721Y1666433D01*
X50738771Y1636691D01*
X50792266Y1535121D01*
X50868800Y1453116D01*
X50951773Y1406519D01*
X50985441Y1401313D01*
X51045242Y1419233D01*
X51115457Y1462329D01*
X51115556Y1462407D01*
X51182559Y1536465D01*
X51228955Y1641506D01*
X51256949Y1785999D01*
X51268749Y1978412D01*
X51269466Y2052983D01*
X51257809Y2285263D01*
X51222505Y2462389D01*
X51163027Y2585244D01*
X51078850Y2654713D01*
X50969448Y2671679D01*
X50907461Y2661344D01*
X50825221Y2609912D01*
X50763072Y2503407D01*
X50721827Y2344226D01*
X50702304Y2134770D01*
X50700760Y2052983D01*
X50506374Y2052983D01*
X50507027Y2129993D01*
X50533272Y2370765D01*
X50587018Y2558668D01*
X50669469Y2695451D01*
X50781828Y2782866D01*
X50925299Y2822662D01*
X50985441Y2825668D01*
X51141098Y2801168D01*
G37*
G36*
X53656850Y2801168D02*
G01*
X53782141Y2725873D01*
X53881148Y2597091D01*
X53898667Y2563642D01*
X53930223Y2492970D01*
X53951097Y2423691D01*
X53963425Y2340723D01*
X53969344Y2228985D01*
X53970990Y2073395D01*
X53971002Y2052983D01*
X53969812Y1893003D01*
X53964756Y1778525D01*
X53953608Y1694454D01*
X53934141Y1625693D01*
X53904128Y1557146D01*
X53895227Y1539284D01*
X53837375Y1442747D01*
X53773410Y1362005D01*
X53741051Y1332470D01*
X53623074Y1278851D01*
X53483770Y1261349D01*
X53352563Y1282926D01*
X53331916Y1291261D01*
X53203593Y1382027D01*
X53108748Y1522435D01*
X53047815Y1711303D01*
X53021231Y1947449D01*
X53022126Y2052983D01*
X53216512Y2052983D01*
X53220148Y1904589D01*
X53230728Y1769239D01*
X53246473Y1666433D01*
X53254522Y1636691D01*
X53308018Y1535121D01*
X53384552Y1453116D01*
X53467524Y1406519D01*
X53501193Y1401313D01*
X53560993Y1419233D01*
X53631209Y1462329D01*
X53631308Y1462407D01*
X53698311Y1536465D01*
X53744706Y1641506D01*
X53772701Y1785999D01*
X53784501Y1978412D01*
X53785218Y2052983D01*
X53773561Y2285263D01*
X53738257Y2462389D01*
X53678779Y2585244D01*
X53594602Y2654713D01*
X53485200Y2671679D01*
X53423213Y2661344D01*
X53340973Y2609912D01*
X53278823Y2503407D01*
X53237579Y2344226D01*
X53218056Y2134770D01*
X53216512Y2052983D01*
X53022126Y2052983D01*
X53022779Y2129993D01*
X53049024Y2370765D01*
X53102770Y2558668D01*
X53185220Y2695451D01*
X53297580Y2782866D01*
X53441051Y2822662D01*
X53501193Y2825668D01*
X53656850Y2801168D01*
G37*
G36*
X45893317Y3747648D02*
G01*
X45887149Y3714635D01*
X45869772Y3630267D01*
X45842884Y3502421D01*
X45808179Y3338972D01*
X45767353Y3147798D01*
X45722101Y2936775D01*
X45674119Y2713779D01*
X45625101Y2486686D01*
X45576744Y2263374D01*
X45530742Y2051718D01*
X45488791Y1859596D01*
X45452586Y1694883D01*
X45423822Y1565455D01*
X45418897Y1543546D01*
X45393019Y1435567D01*
X45371240Y1374683D01*
X45345638Y1348576D01*
X45308289Y1344924D01*
X45292188Y1346529D01*
X45259610Y1353142D01*
X45234063Y1370542D01*
X45211614Y1408103D01*
X45188331Y1475203D01*
X45160280Y1581217D01*
X45123529Y1735522D01*
X45116644Y1765036D01*
X45081461Y1908302D01*
X45049743Y2023164D01*
X45024304Y2100484D01*
X45007953Y2131122D01*
X45004756Y2128759D01*
X44992051Y2082851D01*
X44969477Y1990825D01*
X44940159Y1865775D01*
X44907223Y1720794D01*
X44905255Y1711993D01*
X44870378Y1558288D01*
X44844108Y1454176D01*
X44822195Y1390009D01*
X44800388Y1356138D01*
X44774436Y1342916D01*
X44741667Y1340692D01*
X44661033Y1340692D01*
X44564590Y1984785D01*
X44536027Y2178023D01*
X44510851Y2353095D01*
X44490390Y2500373D01*
X44475971Y2610230D01*
X44468923Y2673037D01*
X44468442Y2681921D01*
X44492409Y2725390D01*
X44542102Y2734964D01*
X44571225Y2733913D01*
X44593864Y2725689D01*
X44611920Y2702683D01*
X44627294Y2657286D01*
X44641886Y2581891D01*
X44657597Y2468889D01*
X44676328Y2310671D01*
X44699309Y2105641D01*
X44717817Y1947636D01*
X44735131Y1814577D01*
X44749820Y1716375D01*
X44760455Y1662943D01*
X44764135Y1656299D01*
X44776031Y1689934D01*
X44796698Y1768794D01*
X44822550Y1878757D01*
X44835446Y1937055D01*
X44863407Y2065525D01*
X44888099Y2178264D01*
X44905525Y2257050D01*
X44909475Y2274576D01*
X44931954Y2323315D01*
X44981409Y2337438D01*
X45021306Y2335196D01*
X45117143Y2325776D01*
X45192754Y1964242D01*
X45222519Y1830405D01*
X45249190Y1726056D01*
X45270024Y1660863D01*
X45282283Y1644495D01*
X45282955Y1645984D01*
X45292377Y1684956D01*
X45312564Y1776164D01*
X45341995Y1912482D01*
X45379151Y2086782D01*
X45422509Y2291939D01*
X45470550Y2520826D01*
X45512078Y2719809D01*
X45726611Y3750358D01*
X45809964Y3759949D01*
X45870191Y3760083D01*
X45893317Y3747648D01*
G37*
D12*
%TO.C,C3*%
X52477500Y20262742D02*
X52477500Y20737258D01*
X53522500Y20262742D02*
X53522500Y20737258D01*
D14*
%TO.C,IC1*%
X41570000Y17790000D02*
X43045000Y17790000D01*
X43395000Y17840000D02*
X47095000Y17840000D01*
X43395000Y8140000D02*
X43395000Y17840000D01*
X47095000Y17840000D02*
X47095000Y8140000D01*
X47095000Y8140000D02*
X43395000Y8140000D01*
D12*
%TO.C,C7*%
X34977500Y15762742D02*
X34977500Y16237258D01*
X36022500Y15762742D02*
X36022500Y16237258D01*
%TO.C,C2*%
X39977500Y20512742D02*
X39977500Y20987258D01*
X41022500Y20512742D02*
X41022500Y20987258D01*
%TO.C,C1*%
X38477500Y20512742D02*
X38477500Y20987258D01*
X39522500Y20512742D02*
X39522500Y20987258D01*
%TO.C,R8*%
X18522936Y4160000D02*
X19977064Y4160000D01*
X18522936Y2340000D02*
X19977064Y2340000D01*
%TO.C,C23*%
X30740000Y16259420D02*
X30740000Y16540580D01*
X31760000Y16259420D02*
X31760000Y16540580D01*
%TO.C,R12*%
X12012742Y17022500D02*
X12487258Y17022500D01*
X12012742Y15977500D02*
X12487258Y15977500D01*
%TO.C,C8*%
X24140580Y6260000D02*
X23859420Y6260000D01*
X24140580Y5240000D02*
X23859420Y5240000D01*
%TO.C,C4*%
X50977500Y20262742D02*
X50977500Y20737258D01*
X52022500Y20262742D02*
X52022500Y20737258D01*
%TO.C,R18*%
X27727500Y16487258D02*
X27727500Y16012742D01*
X28772500Y16487258D02*
X28772500Y16012742D01*
%TO.C,C21*%
X7359420Y15510000D02*
X7640580Y15510000D01*
X7359420Y14490000D02*
X7640580Y14490000D01*
%TO.C,R7*%
X24387500Y8562258D02*
X24387500Y8087742D01*
X25432500Y8562258D02*
X25432500Y8087742D01*
%TO.C,C22*%
X10990000Y12890580D02*
X10990000Y12609420D01*
X12010000Y12890580D02*
X12010000Y12609420D01*
%TO.C,C17*%
X15640580Y11510000D02*
X15359420Y11510000D01*
X15640580Y10490000D02*
X15359420Y10490000D01*
%TO.C,C20*%
X24390580Y13260000D02*
X24109420Y13260000D01*
X24390580Y12240000D02*
X24109420Y12240000D01*
%TO.C,C6*%
X36477500Y15762742D02*
X36477500Y16237258D01*
X37522500Y15762742D02*
X37522500Y16237258D01*
%TO.C,R9*%
X8340000Y7972936D02*
X8340000Y9427064D01*
X10160000Y7972936D02*
X10160000Y9427064D01*
%TO.C,R4*%
X31077500Y8812742D02*
X31077500Y9287258D01*
X32122500Y8812742D02*
X32122500Y9287258D01*
%TO.C,J1*%
X7555000Y13560000D02*
X7555000Y13560000D01*
X7555000Y11440000D02*
X7555000Y12440000D01*
X8945000Y13560000D02*
X7555000Y13560000D01*
X8945000Y12560000D02*
X8945000Y13560000D01*
X8945000Y11440000D02*
X7555000Y11440000D01*
X8945000Y11440000D02*
X8945000Y11440000D01*
X8945000Y11440000D02*
X9940000Y11440000D01*
%TO.C,C19*%
X19140580Y11510000D02*
X18859420Y11510000D01*
X19140580Y10490000D02*
X18859420Y10490000D01*
%TO.C,U6*%
X13940000Y14000000D02*
X13940000Y14800000D01*
X13940000Y14000000D02*
X13940000Y13200000D01*
X17060000Y14000000D02*
X17060000Y14800000D01*
X17060000Y14000000D02*
X17060000Y13200000D01*
X17340000Y15060000D02*
X17010000Y15300000D01*
X17340000Y15540000D01*
X17340000Y15060000D01*
G36*
X17340000Y15060000D02*
G01*
X17010000Y15300000D01*
X17340000Y15540000D01*
X17340000Y15060000D01*
G37*
%TO.C,R17*%
X21477500Y11987258D02*
X21477500Y11512742D01*
X22522500Y11987258D02*
X22522500Y11512742D01*
%TO.C,C10*%
X39727500Y8737258D02*
X39727500Y8262742D01*
X40772500Y8737258D02*
X40772500Y8262742D01*
%TO.C,C5*%
X43977500Y19762742D02*
X43977500Y20237258D01*
X45022500Y19762742D02*
X45022500Y20237258D01*
%TO.C,C16*%
X12390580Y21760000D02*
X12109420Y21760000D01*
X12390580Y20740000D02*
X12109420Y20740000D01*
%TO.C,R10*%
X18762742Y10022500D02*
X19237258Y10022500D01*
X18762742Y8977500D02*
X19237258Y8977500D01*
%TO.C,R6*%
X9237258Y23272500D02*
X8762742Y23272500D01*
X9237258Y22227500D02*
X8762742Y22227500D01*
%TO.C,R1*%
X22887500Y8487258D02*
X22887500Y8012742D01*
X23932500Y8487258D02*
X23932500Y8012742D01*
%TO.C,C12*%
X27359420Y12510000D02*
X27640580Y12510000D01*
X27359420Y11490000D02*
X27640580Y11490000D01*
%TO.C,C14*%
X31409420Y7010000D02*
X31690580Y7010000D01*
X31409420Y5990000D02*
X31690580Y5990000D01*
%TO.C,FB1*%
X41590000Y21585242D02*
X41590000Y19914758D01*
X43410000Y21585242D02*
X43410000Y19914758D01*
%TO.C,U5*%
X22690000Y15750000D02*
X22690000Y16550000D01*
X22690000Y15750000D02*
X22690000Y14950000D01*
X25810000Y15750000D02*
X25810000Y16550000D01*
X25810000Y15750000D02*
X25810000Y14950000D01*
X26090000Y16810000D02*
X25760000Y17050000D01*
X26090000Y17290000D01*
X26090000Y16810000D01*
G36*
X26090000Y16810000D02*
G01*
X25760000Y17050000D01*
X26090000Y17290000D01*
X26090000Y16810000D01*
G37*
%TO.C,R16*%
X18522936Y6410000D02*
X19977064Y6410000D01*
X18522936Y4590000D02*
X19977064Y4590000D01*
%TO.C,R15*%
X12477500Y12512742D02*
X12477500Y12987258D01*
X13522500Y12512742D02*
X13522500Y12987258D01*
%TO.C,C24*%
X26690000Y21540580D02*
X26690000Y21259420D01*
X27710000Y21540580D02*
X27710000Y21259420D01*
%TO.C,U7*%
X17440000Y14000000D02*
X17440000Y14800000D01*
X17440000Y14000000D02*
X17440000Y13200000D01*
X20560000Y14000000D02*
X20560000Y14800000D01*
X20560000Y14000000D02*
X20560000Y13200000D01*
X20840000Y15060000D02*
X20510000Y15300000D01*
X20840000Y15540000D01*
X20840000Y15060000D01*
G36*
X20840000Y15060000D02*
G01*
X20510000Y15300000D01*
X20840000Y15540000D01*
X20840000Y15060000D01*
G37*
%TD*%
M02*
