%TF.GenerationSoftware,KiCad,Pcbnew,8.0.3-8.0.3-0~ubuntu22.04.1*%
%TF.CreationDate,2025-01-19T16:51:49+01:00*%
%TF.ProjectId,ADC_pHAT_AFE_ADC10080,4144435f-7048-4415-945f-4146455f4144,rev?*%
%TF.SameCoordinates,PX5cbead0PY5705d50*%
%TF.FileFunction,Legend,Bot*%
%TF.FilePolarity,Positive*%
%FSLAX46Y46*%
G04 Gerber Fmt 4.6, Leading zero omitted, Abs format (unit mm)*
G04 Created by KiCad (PCBNEW 8.0.3-8.0.3-0~ubuntu22.04.1) date 2025-01-19 16:51:49*
%MOMM*%
%LPD*%
G01*
G04 APERTURE LIST*
%ADD10C,0.150000*%
%ADD11C,0.120000*%
%ADD12C,0.000000*%
G04 APERTURE END LIST*
D10*
X46460839Y7665896D02*
X45984649Y7665896D01*
X46556077Y7380181D02*
X46222744Y8380181D01*
X46222744Y8380181D02*
X45889411Y7380181D01*
X45127506Y7380181D02*
X45127506Y8380181D01*
X45127506Y7427800D02*
X45222744Y7380181D01*
X45222744Y7380181D02*
X45413220Y7380181D01*
X45413220Y7380181D02*
X45508458Y7427800D01*
X45508458Y7427800D02*
X45556077Y7475420D01*
X45556077Y7475420D02*
X45603696Y7570658D01*
X45603696Y7570658D02*
X45603696Y7856372D01*
X45603696Y7856372D02*
X45556077Y7951610D01*
X45556077Y7951610D02*
X45508458Y7999229D01*
X45508458Y7999229D02*
X45413220Y8046848D01*
X45413220Y8046848D02*
X45222744Y8046848D01*
X45222744Y8046848D02*
X45127506Y7999229D01*
X44222744Y7380181D02*
X44222744Y8380181D01*
X44222744Y7427800D02*
X44317982Y7380181D01*
X44317982Y7380181D02*
X44508458Y7380181D01*
X44508458Y7380181D02*
X44603696Y7427800D01*
X44603696Y7427800D02*
X44651315Y7475420D01*
X44651315Y7475420D02*
X44698934Y7570658D01*
X44698934Y7570658D02*
X44698934Y7856372D01*
X44698934Y7856372D02*
X44651315Y7951610D01*
X44651315Y7951610D02*
X44603696Y7999229D01*
X44603696Y7999229D02*
X44508458Y8046848D01*
X44508458Y8046848D02*
X44317982Y8046848D01*
X44317982Y8046848D02*
X44222744Y7999229D01*
X43127505Y8046848D02*
X42746553Y8046848D01*
X42984648Y8380181D02*
X42984648Y7523039D01*
X42984648Y7523039D02*
X42937029Y7427800D01*
X42937029Y7427800D02*
X42841791Y7380181D01*
X42841791Y7380181D02*
X42746553Y7380181D01*
X42413219Y7380181D02*
X42413219Y8380181D01*
X41984648Y7380181D02*
X41984648Y7903991D01*
X41984648Y7903991D02*
X42032267Y7999229D01*
X42032267Y7999229D02*
X42127505Y8046848D01*
X42127505Y8046848D02*
X42270362Y8046848D01*
X42270362Y8046848D02*
X42365600Y7999229D01*
X42365600Y7999229D02*
X42413219Y7951610D01*
X41127505Y7427800D02*
X41222743Y7380181D01*
X41222743Y7380181D02*
X41413219Y7380181D01*
X41413219Y7380181D02*
X41508457Y7427800D01*
X41508457Y7427800D02*
X41556076Y7523039D01*
X41556076Y7523039D02*
X41556076Y7903991D01*
X41556076Y7903991D02*
X41508457Y7999229D01*
X41508457Y7999229D02*
X41413219Y8046848D01*
X41413219Y8046848D02*
X41222743Y8046848D01*
X41222743Y8046848D02*
X41127505Y7999229D01*
X41127505Y7999229D02*
X41079886Y7903991D01*
X41079886Y7903991D02*
X41079886Y7808753D01*
X41079886Y7808753D02*
X41556076Y7713515D01*
X40651314Y7380181D02*
X40651314Y8046848D01*
X40651314Y7856372D02*
X40603695Y7951610D01*
X40603695Y7951610D02*
X40556076Y7999229D01*
X40556076Y7999229D02*
X40460838Y8046848D01*
X40460838Y8046848D02*
X40365600Y8046848D01*
X39651314Y7427800D02*
X39746552Y7380181D01*
X39746552Y7380181D02*
X39937028Y7380181D01*
X39937028Y7380181D02*
X40032266Y7427800D01*
X40032266Y7427800D02*
X40079885Y7523039D01*
X40079885Y7523039D02*
X40079885Y7903991D01*
X40079885Y7903991D02*
X40032266Y7999229D01*
X40032266Y7999229D02*
X39937028Y8046848D01*
X39937028Y8046848D02*
X39746552Y8046848D01*
X39746552Y8046848D02*
X39651314Y7999229D01*
X39651314Y7999229D02*
X39603695Y7903991D01*
X39603695Y7903991D02*
X39603695Y7808753D01*
X39603695Y7808753D02*
X40079885Y7713515D01*
X38508456Y8046848D02*
X38270361Y7380181D01*
X38032266Y8046848D02*
X38270361Y7380181D01*
X38270361Y7380181D02*
X38365599Y7142086D01*
X38365599Y7142086D02*
X38413218Y7094467D01*
X38413218Y7094467D02*
X38508456Y7046848D01*
X37508456Y7380181D02*
X37603694Y7427800D01*
X37603694Y7427800D02*
X37651313Y7475420D01*
X37651313Y7475420D02*
X37698932Y7570658D01*
X37698932Y7570658D02*
X37698932Y7856372D01*
X37698932Y7856372D02*
X37651313Y7951610D01*
X37651313Y7951610D02*
X37603694Y7999229D01*
X37603694Y7999229D02*
X37508456Y8046848D01*
X37508456Y8046848D02*
X37365599Y8046848D01*
X37365599Y8046848D02*
X37270361Y7999229D01*
X37270361Y7999229D02*
X37222742Y7951610D01*
X37222742Y7951610D02*
X37175123Y7856372D01*
X37175123Y7856372D02*
X37175123Y7570658D01*
X37175123Y7570658D02*
X37222742Y7475420D01*
X37222742Y7475420D02*
X37270361Y7427800D01*
X37270361Y7427800D02*
X37365599Y7380181D01*
X37365599Y7380181D02*
X37508456Y7380181D01*
X36317980Y8046848D02*
X36317980Y7380181D01*
X36746551Y8046848D02*
X36746551Y7523039D01*
X36746551Y7523039D02*
X36698932Y7427800D01*
X36698932Y7427800D02*
X36603694Y7380181D01*
X36603694Y7380181D02*
X36460837Y7380181D01*
X36460837Y7380181D02*
X36365599Y7427800D01*
X36365599Y7427800D02*
X36317980Y7475420D01*
X35841789Y7380181D02*
X35841789Y8046848D01*
X35841789Y7856372D02*
X35794170Y7951610D01*
X35794170Y7951610D02*
X35746551Y7999229D01*
X35746551Y7999229D02*
X35651313Y8046848D01*
X35651313Y8046848D02*
X35556075Y8046848D01*
X34460836Y8046848D02*
X34460836Y7046848D01*
X34460836Y7999229D02*
X34365598Y8046848D01*
X34365598Y8046848D02*
X34175122Y8046848D01*
X34175122Y8046848D02*
X34079884Y7999229D01*
X34079884Y7999229D02*
X34032265Y7951610D01*
X34032265Y7951610D02*
X33984646Y7856372D01*
X33984646Y7856372D02*
X33984646Y7570658D01*
X33984646Y7570658D02*
X34032265Y7475420D01*
X34032265Y7475420D02*
X34079884Y7427800D01*
X34079884Y7427800D02*
X34175122Y7380181D01*
X34175122Y7380181D02*
X34365598Y7380181D01*
X34365598Y7380181D02*
X34460836Y7427800D01*
X33556074Y7380181D02*
X33556074Y8046848D01*
X33556074Y8380181D02*
X33603693Y8332562D01*
X33603693Y8332562D02*
X33556074Y8284943D01*
X33556074Y8284943D02*
X33508455Y8332562D01*
X33508455Y8332562D02*
X33556074Y8380181D01*
X33556074Y8380181D02*
X33556074Y8284943D01*
X32651313Y7427800D02*
X32746551Y7380181D01*
X32746551Y7380181D02*
X32937027Y7380181D01*
X32937027Y7380181D02*
X33032265Y7427800D01*
X33032265Y7427800D02*
X33079884Y7475420D01*
X33079884Y7475420D02*
X33127503Y7570658D01*
X33127503Y7570658D02*
X33127503Y7856372D01*
X33127503Y7856372D02*
X33079884Y7951610D01*
X33079884Y7951610D02*
X33032265Y7999229D01*
X33032265Y7999229D02*
X32937027Y8046848D01*
X32937027Y8046848D02*
X32746551Y8046848D01*
X32746551Y8046848D02*
X32651313Y7999229D01*
X32222741Y7380181D02*
X32222741Y8380181D01*
X32127503Y7761134D02*
X31841789Y7380181D01*
X31841789Y8046848D02*
X32222741Y7665896D01*
X30508455Y7380181D02*
X30603693Y7427800D01*
X30603693Y7427800D02*
X30651312Y7475420D01*
X30651312Y7475420D02*
X30698931Y7570658D01*
X30698931Y7570658D02*
X30698931Y7856372D01*
X30698931Y7856372D02*
X30651312Y7951610D01*
X30651312Y7951610D02*
X30603693Y7999229D01*
X30603693Y7999229D02*
X30508455Y8046848D01*
X30508455Y8046848D02*
X30365598Y8046848D01*
X30365598Y8046848D02*
X30270360Y7999229D01*
X30270360Y7999229D02*
X30222741Y7951610D01*
X30222741Y7951610D02*
X30175122Y7856372D01*
X30175122Y7856372D02*
X30175122Y7570658D01*
X30175122Y7570658D02*
X30222741Y7475420D01*
X30222741Y7475420D02*
X30270360Y7427800D01*
X30270360Y7427800D02*
X30365598Y7380181D01*
X30365598Y7380181D02*
X30508455Y7380181D01*
X29889407Y8046848D02*
X29508455Y8046848D01*
X29746550Y7380181D02*
X29746550Y8237324D01*
X29746550Y8237324D02*
X29698931Y8332562D01*
X29698931Y8332562D02*
X29603693Y8380181D01*
X29603693Y8380181D02*
X29508455Y8380181D01*
X27984645Y7380181D02*
X27984645Y7903991D01*
X27984645Y7903991D02*
X28032264Y7999229D01*
X28032264Y7999229D02*
X28127502Y8046848D01*
X28127502Y8046848D02*
X28317978Y8046848D01*
X28317978Y8046848D02*
X28413216Y7999229D01*
X27984645Y7427800D02*
X28079883Y7380181D01*
X28079883Y7380181D02*
X28317978Y7380181D01*
X28317978Y7380181D02*
X28413216Y7427800D01*
X28413216Y7427800D02*
X28460835Y7523039D01*
X28460835Y7523039D02*
X28460835Y7618277D01*
X28460835Y7618277D02*
X28413216Y7713515D01*
X28413216Y7713515D02*
X28317978Y7761134D01*
X28317978Y7761134D02*
X28079883Y7761134D01*
X28079883Y7761134D02*
X27984645Y7808753D01*
X26175121Y7380181D02*
X26508454Y7856372D01*
X26746549Y7380181D02*
X26746549Y8380181D01*
X26746549Y8380181D02*
X26365597Y8380181D01*
X26365597Y8380181D02*
X26270359Y8332562D01*
X26270359Y8332562D02*
X26222740Y8284943D01*
X26222740Y8284943D02*
X26175121Y8189705D01*
X26175121Y8189705D02*
X26175121Y8046848D01*
X26175121Y8046848D02*
X26222740Y7951610D01*
X26222740Y7951610D02*
X26270359Y7903991D01*
X26270359Y7903991D02*
X26365597Y7856372D01*
X26365597Y7856372D02*
X26746549Y7856372D01*
X25317978Y7380181D02*
X25317978Y7903991D01*
X25317978Y7903991D02*
X25365597Y7999229D01*
X25365597Y7999229D02*
X25460835Y8046848D01*
X25460835Y8046848D02*
X25651311Y8046848D01*
X25651311Y8046848D02*
X25746549Y7999229D01*
X25317978Y7427800D02*
X25413216Y7380181D01*
X25413216Y7380181D02*
X25651311Y7380181D01*
X25651311Y7380181D02*
X25746549Y7427800D01*
X25746549Y7427800D02*
X25794168Y7523039D01*
X25794168Y7523039D02*
X25794168Y7618277D01*
X25794168Y7618277D02*
X25746549Y7713515D01*
X25746549Y7713515D02*
X25651311Y7761134D01*
X25651311Y7761134D02*
X25413216Y7761134D01*
X25413216Y7761134D02*
X25317978Y7808753D01*
X24889406Y7427800D02*
X24794168Y7380181D01*
X24794168Y7380181D02*
X24603692Y7380181D01*
X24603692Y7380181D02*
X24508454Y7427800D01*
X24508454Y7427800D02*
X24460835Y7523039D01*
X24460835Y7523039D02*
X24460835Y7570658D01*
X24460835Y7570658D02*
X24508454Y7665896D01*
X24508454Y7665896D02*
X24603692Y7713515D01*
X24603692Y7713515D02*
X24746549Y7713515D01*
X24746549Y7713515D02*
X24841787Y7761134D01*
X24841787Y7761134D02*
X24889406Y7856372D01*
X24889406Y7856372D02*
X24889406Y7903991D01*
X24889406Y7903991D02*
X24841787Y7999229D01*
X24841787Y7999229D02*
X24746549Y8046848D01*
X24746549Y8046848D02*
X24603692Y8046848D01*
X24603692Y8046848D02*
X24508454Y7999229D01*
X24032263Y8046848D02*
X24032263Y7046848D01*
X24032263Y7999229D02*
X23937025Y8046848D01*
X23937025Y8046848D02*
X23746549Y8046848D01*
X23746549Y8046848D02*
X23651311Y7999229D01*
X23651311Y7999229D02*
X23603692Y7951610D01*
X23603692Y7951610D02*
X23556073Y7856372D01*
X23556073Y7856372D02*
X23556073Y7570658D01*
X23556073Y7570658D02*
X23603692Y7475420D01*
X23603692Y7475420D02*
X23651311Y7427800D01*
X23651311Y7427800D02*
X23746549Y7380181D01*
X23746549Y7380181D02*
X23937025Y7380181D01*
X23937025Y7380181D02*
X24032263Y7427800D01*
X23127501Y7380181D02*
X23127501Y8380181D01*
X23127501Y7999229D02*
X23032263Y8046848D01*
X23032263Y8046848D02*
X22841787Y8046848D01*
X22841787Y8046848D02*
X22746549Y7999229D01*
X22746549Y7999229D02*
X22698930Y7951610D01*
X22698930Y7951610D02*
X22651311Y7856372D01*
X22651311Y7856372D02*
X22651311Y7570658D01*
X22651311Y7570658D02*
X22698930Y7475420D01*
X22698930Y7475420D02*
X22746549Y7427800D01*
X22746549Y7427800D02*
X22841787Y7380181D01*
X22841787Y7380181D02*
X23032263Y7380181D01*
X23032263Y7380181D02*
X23127501Y7427800D01*
X21841787Y7427800D02*
X21937025Y7380181D01*
X21937025Y7380181D02*
X22127501Y7380181D01*
X22127501Y7380181D02*
X22222739Y7427800D01*
X22222739Y7427800D02*
X22270358Y7523039D01*
X22270358Y7523039D02*
X22270358Y7903991D01*
X22270358Y7903991D02*
X22222739Y7999229D01*
X22222739Y7999229D02*
X22127501Y8046848D01*
X22127501Y8046848D02*
X21937025Y8046848D01*
X21937025Y8046848D02*
X21841787Y7999229D01*
X21841787Y7999229D02*
X21794168Y7903991D01*
X21794168Y7903991D02*
X21794168Y7808753D01*
X21794168Y7808753D02*
X22270358Y7713515D01*
X21365596Y7380181D02*
X21365596Y8046848D01*
X21365596Y7856372D02*
X21317977Y7951610D01*
X21317977Y7951610D02*
X21270358Y7999229D01*
X21270358Y7999229D02*
X21175120Y8046848D01*
X21175120Y8046848D02*
X21079882Y8046848D01*
X20746548Y7380181D02*
X20746548Y8046848D01*
X20746548Y7856372D02*
X20698929Y7951610D01*
X20698929Y7951610D02*
X20651310Y7999229D01*
X20651310Y7999229D02*
X20556072Y8046848D01*
X20556072Y8046848D02*
X20460834Y8046848D01*
X20222738Y8046848D02*
X19984643Y7380181D01*
X19746548Y8046848D02*
X19984643Y7380181D01*
X19984643Y7380181D02*
X20079881Y7142086D01*
X20079881Y7142086D02*
X20127500Y7094467D01*
X20127500Y7094467D02*
X20222738Y7046848D01*
X18603690Y7380181D02*
X18603690Y8380181D01*
X18603690Y8380181D02*
X18222738Y8380181D01*
X18222738Y8380181D02*
X18127500Y8332562D01*
X18127500Y8332562D02*
X18079881Y8284943D01*
X18079881Y8284943D02*
X18032262Y8189705D01*
X18032262Y8189705D02*
X18032262Y8046848D01*
X18032262Y8046848D02*
X18079881Y7951610D01*
X18079881Y7951610D02*
X18127500Y7903991D01*
X18127500Y7903991D02*
X18222738Y7856372D01*
X18222738Y7856372D02*
X18603690Y7856372D01*
X17603690Y7380181D02*
X17603690Y8046848D01*
X17603690Y8380181D02*
X17651309Y8332562D01*
X17651309Y8332562D02*
X17603690Y8284943D01*
X17603690Y8284943D02*
X17556071Y8332562D01*
X17556071Y8332562D02*
X17603690Y8380181D01*
X17603690Y8380181D02*
X17603690Y8284943D01*
X16698929Y7427800D02*
X16794167Y7380181D01*
X16794167Y7380181D02*
X16984643Y7380181D01*
X16984643Y7380181D02*
X17079881Y7427800D01*
X17079881Y7427800D02*
X17127500Y7475420D01*
X17127500Y7475420D02*
X17175119Y7570658D01*
X17175119Y7570658D02*
X17175119Y7856372D01*
X17175119Y7856372D02*
X17127500Y7951610D01*
X17127500Y7951610D02*
X17079881Y7999229D01*
X17079881Y7999229D02*
X16984643Y8046848D01*
X16984643Y8046848D02*
X16794167Y8046848D01*
X16794167Y8046848D02*
X16698929Y7999229D01*
X16127500Y7380181D02*
X16222738Y7427800D01*
X16222738Y7427800D02*
X16270357Y7475420D01*
X16270357Y7475420D02*
X16317976Y7570658D01*
X16317976Y7570658D02*
X16317976Y7856372D01*
X16317976Y7856372D02*
X16270357Y7951610D01*
X16270357Y7951610D02*
X16222738Y7999229D01*
X16222738Y7999229D02*
X16127500Y8046848D01*
X16127500Y8046848D02*
X15984643Y8046848D01*
X15984643Y8046848D02*
X15889405Y7999229D01*
X15889405Y7999229D02*
X15841786Y7951610D01*
X15841786Y7951610D02*
X15794167Y7856372D01*
X15794167Y7856372D02*
X15794167Y7570658D01*
X15794167Y7570658D02*
X15841786Y7475420D01*
X15841786Y7475420D02*
X15889405Y7427800D01*
X15889405Y7427800D02*
X15984643Y7380181D01*
X15984643Y7380181D02*
X16127500Y7380181D01*
X14603690Y7380181D02*
X14603690Y8380181D01*
X14603690Y7999229D02*
X14508452Y8046848D01*
X14508452Y8046848D02*
X14317976Y8046848D01*
X14317976Y8046848D02*
X14222738Y7999229D01*
X14222738Y7999229D02*
X14175119Y7951610D01*
X14175119Y7951610D02*
X14127500Y7856372D01*
X14127500Y7856372D02*
X14127500Y7570658D01*
X14127500Y7570658D02*
X14175119Y7475420D01*
X14175119Y7475420D02*
X14222738Y7427800D01*
X14222738Y7427800D02*
X14317976Y7380181D01*
X14317976Y7380181D02*
X14508452Y7380181D01*
X14508452Y7380181D02*
X14603690Y7427800D01*
X13556071Y7380181D02*
X13651309Y7427800D01*
X13651309Y7427800D02*
X13698928Y7475420D01*
X13698928Y7475420D02*
X13746547Y7570658D01*
X13746547Y7570658D02*
X13746547Y7856372D01*
X13746547Y7856372D02*
X13698928Y7951610D01*
X13698928Y7951610D02*
X13651309Y7999229D01*
X13651309Y7999229D02*
X13556071Y8046848D01*
X13556071Y8046848D02*
X13413214Y8046848D01*
X13413214Y8046848D02*
X13317976Y7999229D01*
X13317976Y7999229D02*
X13270357Y7951610D01*
X13270357Y7951610D02*
X13222738Y7856372D01*
X13222738Y7856372D02*
X13222738Y7570658D01*
X13222738Y7570658D02*
X13270357Y7475420D01*
X13270357Y7475420D02*
X13317976Y7427800D01*
X13317976Y7427800D02*
X13413214Y7380181D01*
X13413214Y7380181D02*
X13556071Y7380181D01*
X12365595Y7380181D02*
X12365595Y7903991D01*
X12365595Y7903991D02*
X12413214Y7999229D01*
X12413214Y7999229D02*
X12508452Y8046848D01*
X12508452Y8046848D02*
X12698928Y8046848D01*
X12698928Y8046848D02*
X12794166Y7999229D01*
X12365595Y7427800D02*
X12460833Y7380181D01*
X12460833Y7380181D02*
X12698928Y7380181D01*
X12698928Y7380181D02*
X12794166Y7427800D01*
X12794166Y7427800D02*
X12841785Y7523039D01*
X12841785Y7523039D02*
X12841785Y7618277D01*
X12841785Y7618277D02*
X12794166Y7713515D01*
X12794166Y7713515D02*
X12698928Y7761134D01*
X12698928Y7761134D02*
X12460833Y7761134D01*
X12460833Y7761134D02*
X12365595Y7808753D01*
X11889404Y7380181D02*
X11889404Y8046848D01*
X11889404Y7856372D02*
X11841785Y7951610D01*
X11841785Y7951610D02*
X11794166Y7999229D01*
X11794166Y7999229D02*
X11698928Y8046848D01*
X11698928Y8046848D02*
X11603690Y8046848D01*
X10841785Y7380181D02*
X10841785Y8380181D01*
X10841785Y7427800D02*
X10937023Y7380181D01*
X10937023Y7380181D02*
X11127499Y7380181D01*
X11127499Y7380181D02*
X11222737Y7427800D01*
X11222737Y7427800D02*
X11270356Y7475420D01*
X11270356Y7475420D02*
X11317975Y7570658D01*
X11317975Y7570658D02*
X11317975Y7856372D01*
X11317975Y7856372D02*
X11270356Y7951610D01*
X11270356Y7951610D02*
X11222737Y7999229D01*
X11222737Y7999229D02*
X11127499Y8046848D01*
X11127499Y8046848D02*
X10937023Y8046848D01*
X10937023Y8046848D02*
X10841785Y7999229D01*
X6624200Y8109525D02*
X6662295Y7995239D01*
X6662295Y7995239D02*
X6662295Y7804763D01*
X6662295Y7804763D02*
X6624200Y7728572D01*
X6624200Y7728572D02*
X6586104Y7690477D01*
X6586104Y7690477D02*
X6509914Y7652382D01*
X6509914Y7652382D02*
X6433723Y7652382D01*
X6433723Y7652382D02*
X6357533Y7690477D01*
X6357533Y7690477D02*
X6319438Y7728572D01*
X6319438Y7728572D02*
X6281342Y7804763D01*
X6281342Y7804763D02*
X6243247Y7957144D01*
X6243247Y7957144D02*
X6205152Y8033334D01*
X6205152Y8033334D02*
X6167057Y8071429D01*
X6167057Y8071429D02*
X6090866Y8109525D01*
X6090866Y8109525D02*
X6014676Y8109525D01*
X6014676Y8109525D02*
X5938485Y8071429D01*
X5938485Y8071429D02*
X5900390Y8033334D01*
X5900390Y8033334D02*
X5862295Y7957144D01*
X5862295Y7957144D02*
X5862295Y7766667D01*
X5862295Y7766667D02*
X5900390Y7652382D01*
X5862295Y7385715D02*
X6662295Y7195239D01*
X6662295Y7195239D02*
X6090866Y7042858D01*
X6090866Y7042858D02*
X6662295Y6890477D01*
X6662295Y6890477D02*
X5862295Y6700000D01*
X6586104Y5938095D02*
X6624200Y5976191D01*
X6624200Y5976191D02*
X6662295Y6090476D01*
X6662295Y6090476D02*
X6662295Y6166667D01*
X6662295Y6166667D02*
X6624200Y6280953D01*
X6624200Y6280953D02*
X6548009Y6357143D01*
X6548009Y6357143D02*
X6471819Y6395238D01*
X6471819Y6395238D02*
X6319438Y6433334D01*
X6319438Y6433334D02*
X6205152Y6433334D01*
X6205152Y6433334D02*
X6052771Y6395238D01*
X6052771Y6395238D02*
X5976580Y6357143D01*
X5976580Y6357143D02*
X5900390Y6280953D01*
X5900390Y6280953D02*
X5862295Y6166667D01*
X5862295Y6166667D02*
X5862295Y6090476D01*
X5862295Y6090476D02*
X5900390Y5976191D01*
X5900390Y5976191D02*
X5938485Y5938095D01*
X6662295Y5214286D02*
X6662295Y5595238D01*
X6662295Y5595238D02*
X5862295Y5595238D01*
X6662295Y4947619D02*
X5862295Y4947619D01*
X6662295Y4490476D02*
X6205152Y4833334D01*
X5862295Y4490476D02*
X6319438Y4947619D01*
X6624200Y19295239D02*
X6662295Y19180953D01*
X6662295Y19180953D02*
X6662295Y18990477D01*
X6662295Y18990477D02*
X6624200Y18914286D01*
X6624200Y18914286D02*
X6586104Y18876191D01*
X6586104Y18876191D02*
X6509914Y18838096D01*
X6509914Y18838096D02*
X6433723Y18838096D01*
X6433723Y18838096D02*
X6357533Y18876191D01*
X6357533Y18876191D02*
X6319438Y18914286D01*
X6319438Y18914286D02*
X6281342Y18990477D01*
X6281342Y18990477D02*
X6243247Y19142858D01*
X6243247Y19142858D02*
X6205152Y19219048D01*
X6205152Y19219048D02*
X6167057Y19257143D01*
X6167057Y19257143D02*
X6090866Y19295239D01*
X6090866Y19295239D02*
X6014676Y19295239D01*
X6014676Y19295239D02*
X5938485Y19257143D01*
X5938485Y19257143D02*
X5900390Y19219048D01*
X5900390Y19219048D02*
X5862295Y19142858D01*
X5862295Y19142858D02*
X5862295Y18952381D01*
X5862295Y18952381D02*
X5900390Y18838096D01*
X5862295Y18571429D02*
X6662295Y18380953D01*
X6662295Y18380953D02*
X6090866Y18228572D01*
X6090866Y18228572D02*
X6662295Y18076191D01*
X6662295Y18076191D02*
X5862295Y17885714D01*
X6662295Y17580952D02*
X5862295Y17580952D01*
X5862295Y17580952D02*
X5862295Y17390476D01*
X5862295Y17390476D02*
X5900390Y17276190D01*
X5900390Y17276190D02*
X5976580Y17200000D01*
X5976580Y17200000D02*
X6052771Y17161905D01*
X6052771Y17161905D02*
X6205152Y17123809D01*
X6205152Y17123809D02*
X6319438Y17123809D01*
X6319438Y17123809D02*
X6471819Y17161905D01*
X6471819Y17161905D02*
X6548009Y17200000D01*
X6548009Y17200000D02*
X6624200Y17276190D01*
X6624200Y17276190D02*
X6662295Y17390476D01*
X6662295Y17390476D02*
X6662295Y17580952D01*
X6662295Y16780952D02*
X5862295Y16780952D01*
X5862295Y16247619D02*
X5862295Y16095238D01*
X5862295Y16095238D02*
X5900390Y16019048D01*
X5900390Y16019048D02*
X5976580Y15942857D01*
X5976580Y15942857D02*
X6128961Y15904762D01*
X6128961Y15904762D02*
X6395628Y15904762D01*
X6395628Y15904762D02*
X6548009Y15942857D01*
X6548009Y15942857D02*
X6624200Y16019048D01*
X6624200Y16019048D02*
X6662295Y16095238D01*
X6662295Y16095238D02*
X6662295Y16247619D01*
X6662295Y16247619D02*
X6624200Y16323810D01*
X6624200Y16323810D02*
X6548009Y16400000D01*
X6548009Y16400000D02*
X6395628Y16438096D01*
X6395628Y16438096D02*
X6128961Y16438096D01*
X6128961Y16438096D02*
X5976580Y16400000D01*
X5976580Y16400000D02*
X5900390Y16323810D01*
X5900390Y16323810D02*
X5862295Y16247619D01*
D11*
%TO.C,J2*%
X7070000Y26730000D02*
X7070000Y29330000D01*
X7070000Y24130000D02*
X7070000Y25460000D01*
X8400000Y24130000D02*
X7070000Y24130000D01*
X9670000Y26730000D02*
X7070000Y26730000D01*
X9670000Y24130000D02*
X9670000Y26730000D01*
X57990000Y29330000D02*
X7070000Y29330000D01*
X57990000Y24130000D02*
X9670000Y24130000D01*
X57990000Y24130000D02*
X57990000Y29330000D01*
D12*
%TO.C,G\u002A\u002A\u002A*%
G36*
X41624631Y11172238D02*
G01*
X41624631Y11059716D01*
X41512109Y11059716D01*
X41399586Y11059716D01*
X41399586Y11172238D01*
X41399586Y11284761D01*
X41512109Y11284761D01*
X41624631Y11284761D01*
X41624631Y11172238D01*
G37*
G36*
X41624631Y10729651D02*
G01*
X41624631Y10624631D01*
X41512109Y10624631D01*
X41399586Y10624631D01*
X41399586Y10729651D01*
X41399586Y10834672D01*
X41512109Y10834672D01*
X41624631Y10834672D01*
X41624631Y10729651D01*
G37*
G36*
X41834672Y12282457D02*
G01*
X41834672Y12169935D01*
X41729651Y12169935D01*
X41624631Y12169935D01*
X41624631Y12282457D01*
X41624631Y12394979D01*
X41729651Y12394979D01*
X41834672Y12394979D01*
X41834672Y12282457D01*
G37*
G36*
X42944891Y10512109D02*
G01*
X42944891Y10399586D01*
X42727348Y10399586D01*
X42509805Y10399586D01*
X42509805Y10512109D01*
X42509805Y10624631D01*
X42727348Y10624631D01*
X42944891Y10624631D01*
X42944891Y10512109D01*
G37*
G36*
X43169935Y10729651D02*
G01*
X43169935Y10624631D01*
X43057413Y10624631D01*
X42944891Y10624631D01*
X42944891Y10729651D01*
X42944891Y10834672D01*
X43057413Y10834672D01*
X43169935Y10834672D01*
X43169935Y10729651D01*
G37*
G36*
X43394979Y13730242D02*
G01*
X43394979Y13505198D01*
X43282457Y13505198D01*
X43169935Y13505198D01*
X43169935Y13730242D01*
X43169935Y13955286D01*
X43282457Y13955286D01*
X43394979Y13955286D01*
X43394979Y13730242D01*
G37*
G36*
X43394979Y10947194D02*
G01*
X43394979Y10834672D01*
X43282457Y10834672D01*
X43169935Y10834672D01*
X43169935Y10947194D01*
X43169935Y11059716D01*
X43282457Y11059716D01*
X43394979Y11059716D01*
X43394979Y10947194D01*
G37*
G36*
X44070112Y14502894D02*
G01*
X44070112Y14390372D01*
X43957590Y14390372D01*
X43845068Y14390372D01*
X43845068Y14502894D01*
X43845068Y14615416D01*
X43957590Y14615416D01*
X44070112Y14615416D01*
X44070112Y14502894D01*
G37*
G36*
X44070112Y12507501D02*
G01*
X44070112Y12394979D01*
X43957590Y12394979D01*
X43845068Y12394979D01*
X43845068Y12507501D01*
X43845068Y12620023D01*
X43957590Y12620023D01*
X44070112Y12620023D01*
X44070112Y12507501D01*
G37*
G36*
X44280153Y12057413D02*
G01*
X44280153Y11944891D01*
X44175133Y11944891D01*
X44070112Y11944891D01*
X44070112Y12057413D01*
X44070112Y12169935D01*
X44175133Y12169935D01*
X44280153Y12169935D01*
X44280153Y12057413D01*
G37*
G36*
X44505198Y12957590D02*
G01*
X44505198Y12845068D01*
X44392676Y12845068D01*
X44280153Y12845068D01*
X44280153Y12957590D01*
X44280153Y13070112D01*
X44392676Y13070112D01*
X44505198Y13070112D01*
X44505198Y12957590D01*
G37*
G36*
X44955286Y13175133D02*
G01*
X44955286Y13070112D01*
X44842764Y13070112D01*
X44730242Y13070112D01*
X44730242Y13175133D01*
X44730242Y13280153D01*
X44842764Y13280153D01*
X44955286Y13280153D01*
X44955286Y13175133D01*
G37*
G36*
X45180331Y12732546D02*
G01*
X45180331Y12620023D01*
X44955286Y12620023D01*
X44730242Y12620023D01*
X44730242Y12732546D01*
X44730242Y12845068D01*
X44955286Y12845068D01*
X45180331Y12845068D01*
X45180331Y12732546D01*
G37*
G36*
X45390372Y12957590D02*
G01*
X45390372Y12845068D01*
X45285351Y12845068D01*
X45180331Y12845068D01*
X45180331Y12957590D01*
X45180331Y13070112D01*
X45285351Y13070112D01*
X45390372Y13070112D01*
X45390372Y12957590D01*
G37*
G36*
X45615416Y13175133D02*
G01*
X45615416Y13070112D01*
X45502894Y13070112D01*
X45390372Y13070112D01*
X45390372Y13175133D01*
X45390372Y13280153D01*
X45502894Y13280153D01*
X45615416Y13280153D01*
X45615416Y13175133D01*
G37*
G36*
X41174542Y10287064D02*
G01*
X41174542Y10174542D01*
X41287064Y10174542D01*
X41399586Y10174542D01*
X41399586Y10062020D01*
X41399586Y9949498D01*
X41174542Y9949498D01*
X40949498Y9949498D01*
X40949498Y10174542D01*
X40949498Y10399586D01*
X41062020Y10399586D01*
X41174542Y10399586D01*
X41174542Y10287064D01*
G37*
G36*
X43169935Y14397873D02*
G01*
X43169935Y14180331D01*
X42952392Y14180331D01*
X42734849Y14180331D01*
X42734849Y14285351D01*
X42734849Y14390372D01*
X42839870Y14390372D01*
X42944891Y14390372D01*
X42944891Y14502894D01*
X42944891Y14615416D01*
X43057413Y14615416D01*
X43169935Y14615416D01*
X43169935Y14397873D01*
G37*
G36*
X43620023Y14615416D02*
G01*
X43620023Y14390372D01*
X43507501Y14390372D01*
X43394979Y14390372D01*
X43394979Y14502894D01*
X43394979Y14615416D01*
X43282457Y14615416D01*
X43169935Y14615416D01*
X43169935Y14727938D01*
X43169935Y14840461D01*
X43394979Y14840461D01*
X43620023Y14840461D01*
X43620023Y14615416D01*
G37*
G36*
X42059716Y10512109D02*
G01*
X42059716Y10399586D01*
X42172238Y10399586D01*
X42284761Y10399586D01*
X42284761Y10287064D01*
X42284761Y10174542D01*
X41954696Y10174542D01*
X41624631Y10174542D01*
X41624631Y10287064D01*
X41624631Y10399586D01*
X41729651Y10399586D01*
X41834672Y10399586D01*
X41834672Y10512109D01*
X41834672Y10624631D01*
X41947194Y10624631D01*
X42059716Y10624631D01*
X42059716Y10512109D01*
G37*
G36*
X42059716Y13955286D02*
G01*
X41504607Y13955286D01*
X40949498Y13955286D01*
X40949498Y14510396D01*
X40949498Y14840461D01*
X41174542Y14840461D01*
X41174542Y14510396D01*
X41174542Y14180331D01*
X41504607Y14180331D01*
X41834672Y14180331D01*
X41834672Y14510396D01*
X41834672Y14840461D01*
X41504607Y14840461D01*
X41174542Y14840461D01*
X40949498Y14840461D01*
X40949498Y15065505D01*
X41504607Y15065505D01*
X42059716Y15065505D01*
X42059716Y14510396D01*
X42059716Y13955286D01*
G37*
G36*
X42509805Y10834672D02*
G01*
X42172238Y10834672D01*
X41834672Y10834672D01*
X41834672Y11172238D01*
X41834672Y11284761D01*
X42059716Y11284761D01*
X42059716Y11172238D01*
X42059716Y11059716D01*
X42172238Y11059716D01*
X42284761Y11059716D01*
X42284761Y11172238D01*
X42284761Y11284761D01*
X42172238Y11284761D01*
X42059716Y11284761D01*
X41834672Y11284761D01*
X41834672Y11509805D01*
X42172238Y11509805D01*
X42509805Y11509805D01*
X42509805Y11172238D01*
X42509805Y10834672D01*
G37*
G36*
X46065505Y13955286D02*
G01*
X45510396Y13955286D01*
X44955286Y13955286D01*
X44955286Y14510396D01*
X44955286Y14840461D01*
X45180331Y14840461D01*
X45180331Y14510396D01*
X45180331Y14180331D01*
X45510396Y14180331D01*
X45840461Y14180331D01*
X45840461Y14510396D01*
X45840461Y14840461D01*
X45510396Y14840461D01*
X45180331Y14840461D01*
X44955286Y14840461D01*
X44955286Y15065505D01*
X45510396Y15065505D01*
X46065505Y15065505D01*
X46065505Y14510396D01*
X46065505Y13955286D01*
G37*
G36*
X46065505Y9949498D02*
G01*
X45510396Y9949498D01*
X44955286Y9949498D01*
X44955286Y10504607D01*
X44955286Y10834672D01*
X45180331Y10834672D01*
X45180331Y10504607D01*
X45180331Y10174542D01*
X45510396Y10174542D01*
X45840461Y10174542D01*
X45840461Y10504607D01*
X45840461Y10834672D01*
X45510396Y10834672D01*
X45180331Y10834672D01*
X44955286Y10834672D01*
X44955286Y11059716D01*
X45510396Y11059716D01*
X46065505Y11059716D01*
X46065505Y10504607D01*
X46065505Y9949498D01*
G37*
G36*
X42397283Y12169935D02*
G01*
X42509805Y12169935D01*
X42509805Y12057413D01*
X42509805Y11944891D01*
X42727348Y11944891D01*
X42944891Y11944891D01*
X42944891Y11839870D01*
X42944891Y11734849D01*
X42614826Y11734849D01*
X42284761Y11734849D01*
X42284761Y11952392D01*
X42284761Y12169935D01*
X42397283Y12169935D01*
G37*
G36*
X42284761Y12282457D02*
G01*
X42284761Y12169935D01*
X42172238Y12169935D01*
X42059716Y12169935D01*
X42059716Y12282457D01*
X42059716Y12394979D01*
X42172238Y12394979D01*
X42284761Y12394979D01*
X42284761Y12282457D01*
G37*
G36*
X46500590Y13392676D02*
G01*
X46500590Y12500000D01*
X46500590Y10504607D01*
X46500590Y9499409D01*
X43500000Y9499409D01*
X40499409Y9499409D01*
X40499409Y12500000D01*
X40499409Y13070112D01*
X40724453Y13070112D01*
X40724453Y12732546D01*
X40724453Y12394979D01*
X40836976Y12394979D01*
X40949498Y12394979D01*
X40949498Y12282457D01*
X40949498Y12169935D01*
X40836976Y12169935D01*
X40724453Y12169935D01*
X40724453Y11952392D01*
X40724453Y11734849D01*
X40836976Y11734849D01*
X40949498Y11734849D01*
X40949498Y11839870D01*
X40949498Y11944891D01*
X41062020Y11944891D01*
X41174542Y11944891D01*
X41174542Y12169935D01*
X41174542Y12394979D01*
X41287064Y12394979D01*
X41399586Y12394979D01*
X41399586Y12169935D01*
X41399586Y11944891D01*
X41512109Y11944891D01*
X41624631Y11944891D01*
X41624631Y11727348D01*
X41624631Y11509805D01*
X41512109Y11509805D01*
X41399586Y11509805D01*
X41399586Y11622327D01*
X41399586Y11734849D01*
X41287064Y11734849D01*
X41174542Y11734849D01*
X41174542Y11622327D01*
X41174542Y11509805D01*
X41287064Y11509805D01*
X41399586Y11509805D01*
X41399586Y11397283D01*
X41399586Y11284761D01*
X41062020Y11284761D01*
X40724453Y11284761D01*
X40724453Y11172238D01*
X40724453Y11059716D01*
X41062020Y11059716D01*
X41399586Y11059716D01*
X41399586Y10947194D01*
X41399586Y10834672D01*
X41287064Y10834672D01*
X41174542Y10834672D01*
X41174542Y10729651D01*
X41174542Y10624631D01*
X40949498Y10624631D01*
X40724453Y10624631D01*
X40724453Y10174542D01*
X40724453Y9724453D01*
X41392085Y9724453D01*
X42059716Y9724453D01*
X42059716Y9836976D01*
X42944891Y9836976D01*
X42944891Y9724453D01*
X43282457Y9724453D01*
X43620023Y9724453D01*
X43620023Y9836976D01*
X43620023Y9949498D01*
X43282457Y9949498D01*
X42944891Y9949498D01*
X42944891Y9836976D01*
X42059716Y9836976D01*
X42059716Y9949498D01*
X42172238Y9949498D01*
X42284761Y9949498D01*
X42284761Y10062020D01*
X42284761Y10174542D01*
X42397283Y10174542D01*
X42509805Y10174542D01*
X42509805Y10062020D01*
X42509805Y9949498D01*
X42727348Y9949498D01*
X42944891Y9949498D01*
X42944891Y10174542D01*
X42944891Y10399586D01*
X43057413Y10399586D01*
X43169935Y10399586D01*
X43169935Y10512109D01*
X43169935Y10624631D01*
X43394979Y10624631D01*
X43620023Y10624631D01*
X43620023Y10512109D01*
X43620023Y10399586D01*
X43507501Y10399586D01*
X43394979Y10399586D01*
X43394979Y10287064D01*
X43394979Y10174542D01*
X43507501Y10174542D01*
X43620023Y10174542D01*
X43620023Y10287064D01*
X43620023Y10399586D01*
X43732546Y10399586D01*
X43845068Y10399586D01*
X43845068Y10287064D01*
X43845068Y10174542D01*
X44062611Y10174542D01*
X44280153Y10174542D01*
X44280153Y10062020D01*
X44280153Y9949498D01*
X44175133Y9949498D01*
X44070112Y9949498D01*
X44070112Y9836976D01*
X44070112Y9724453D01*
X44287655Y9724453D01*
X44505198Y9724453D01*
X44505198Y10279563D01*
X44505198Y10834672D01*
X44392676Y10834672D01*
X44280153Y10834672D01*
X44280153Y10729651D01*
X44280153Y10624631D01*
X44175133Y10624631D01*
X44070112Y10624631D01*
X44070112Y10512109D01*
X44070112Y10399586D01*
X43957590Y10399586D01*
X43845068Y10399586D01*
X43845068Y10512109D01*
X43845068Y10624631D01*
X43732546Y10624631D01*
X43620023Y10624631D01*
X43620023Y10842173D01*
X43620023Y11059716D01*
X43507501Y11059716D01*
X43394979Y11059716D01*
X43394979Y11172238D01*
X43394979Y11284761D01*
X43282457Y11284761D01*
X43169935Y11284761D01*
X43169935Y11172238D01*
X43169935Y11059716D01*
X43057413Y11059716D01*
X42944891Y11059716D01*
X42944891Y10947194D01*
X42944891Y10834672D01*
X42839870Y10834672D01*
X42734849Y10834672D01*
X42734849Y11059716D01*
X42734849Y11284761D01*
X42839870Y11284761D01*
X42944891Y11284761D01*
X42944891Y11397283D01*
X42944891Y11509805D01*
X43169935Y11509805D01*
X43394979Y11509805D01*
X43394979Y11622327D01*
X43394979Y11734849D01*
X43507501Y11734849D01*
X43620023Y11734849D01*
X43620023Y11839870D01*
X43620023Y11944891D01*
X43507501Y11944891D01*
X43394979Y11944891D01*
X43394979Y11839870D01*
X43394979Y11734849D01*
X43282457Y11734849D01*
X43169935Y11734849D01*
X43169935Y11839870D01*
X43169935Y11944891D01*
X43057413Y11944891D01*
X42944891Y11944891D01*
X42944891Y12057413D01*
X42944891Y12169935D01*
X42839870Y12169935D01*
X42734849Y12169935D01*
X42734849Y12282457D01*
X42734849Y12394979D01*
X42509805Y12394979D01*
X42284761Y12394979D01*
X42284761Y12507501D01*
X42284761Y12620023D01*
X42944891Y12620023D01*
X42944891Y12507501D01*
X42944891Y12394979D01*
X43057413Y12394979D01*
X43169935Y12394979D01*
X43169935Y12282457D01*
X43169935Y12169935D01*
X43394979Y12169935D01*
X43620023Y12169935D01*
X43620023Y12282457D01*
X43620023Y12394979D01*
X43732546Y12394979D01*
X43845068Y12394979D01*
X43845068Y12064914D01*
X43845068Y11734849D01*
X44062611Y11734849D01*
X44280153Y11734849D01*
X44280153Y11622327D01*
X44280153Y11509805D01*
X43950088Y11509805D01*
X43620023Y11509805D01*
X43620023Y11397283D01*
X43620023Y11284761D01*
X43845068Y11284761D01*
X44070112Y11284761D01*
X44070112Y11059716D01*
X44070112Y10834672D01*
X44175133Y10834672D01*
X44280153Y10834672D01*
X44280153Y10947194D01*
X44280153Y11059716D01*
X44392676Y11059716D01*
X44505198Y11059716D01*
X44505198Y11284761D01*
X44730242Y11284761D01*
X44730242Y10504607D01*
X44730242Y9724453D01*
X45510396Y9724453D01*
X46290549Y9724453D01*
X46290549Y10504607D01*
X46290549Y11284761D01*
X45510396Y11284761D01*
X44730242Y11284761D01*
X44505198Y11284761D01*
X44505198Y11509805D01*
X44730242Y11509805D01*
X44955286Y11509805D01*
X44955286Y11622327D01*
X44955286Y11734849D01*
X44842764Y11734849D01*
X44730242Y11734849D01*
X44730242Y11839870D01*
X44730242Y11944891D01*
X44842764Y11944891D01*
X44955286Y11944891D01*
X44955286Y12057413D01*
X44955286Y12169935D01*
X44617720Y12169935D01*
X44280153Y12169935D01*
X44280153Y12282457D01*
X44280153Y12394979D01*
X44392676Y12394979D01*
X44505198Y12394979D01*
X44505198Y12507501D01*
X44505198Y12620023D01*
X44617720Y12620023D01*
X44730242Y12620023D01*
X44730242Y12507501D01*
X44730242Y12394979D01*
X44955286Y12394979D01*
X45180331Y12394979D01*
X45180331Y12282457D01*
X45180331Y12169935D01*
X45285351Y12169935D01*
X45390372Y12169935D01*
X45390372Y12282457D01*
X45390372Y12394979D01*
X45502894Y12394979D01*
X45615416Y12394979D01*
X45615416Y12169935D01*
X45615416Y11944891D01*
X45502894Y11944891D01*
X45390372Y11944891D01*
X45390372Y11839870D01*
X45390372Y11734849D01*
X45285351Y11734849D01*
X45180331Y11734849D01*
X45180331Y11622327D01*
X45180331Y11509805D01*
X45510396Y11509805D01*
X45840461Y11509805D01*
X45840461Y11839870D01*
X45840461Y12169935D01*
X45952983Y12169935D01*
X46065505Y12169935D01*
X46065505Y11839870D01*
X46065505Y11509805D01*
X46178027Y11509805D01*
X46290549Y11509805D01*
X46290549Y11952392D01*
X46290549Y12394979D01*
X46065505Y12394979D01*
X45840461Y12394979D01*
X45840461Y12507501D01*
X45840461Y12620023D01*
X45727938Y12620023D01*
X45615416Y12620023D01*
X45615416Y12732546D01*
X45615416Y12845068D01*
X45727938Y12845068D01*
X45840461Y12845068D01*
X45840461Y13062611D01*
X45840461Y13280153D01*
X46065505Y13280153D01*
X46290549Y13280153D01*
X46290549Y13392676D01*
X46290549Y13505198D01*
X45735440Y13505198D01*
X45180331Y13505198D01*
X45180331Y13392676D01*
X45180331Y13280153D01*
X45067808Y13280153D01*
X44955286Y13280153D01*
X44955286Y13392676D01*
X44955286Y13505198D01*
X44400177Y13505198D01*
X43845068Y13505198D01*
X43845068Y13392676D01*
X43845068Y13280153D01*
X43957590Y13280153D01*
X44070112Y13280153D01*
X44070112Y13062611D01*
X44070112Y12845068D01*
X43957590Y12845068D01*
X43845068Y12845068D01*
X43845068Y12957590D01*
X43845068Y13070112D01*
X43620023Y13070112D01*
X43394979Y13070112D01*
X43394979Y12957590D01*
X43394979Y12845068D01*
X43507501Y12845068D01*
X43620023Y12845068D01*
X43620023Y12732546D01*
X43620023Y12620023D01*
X43282457Y12620023D01*
X42944891Y12620023D01*
X42284761Y12620023D01*
X42172238Y12620023D01*
X42059716Y12620023D01*
X42059716Y13062611D01*
X42059716Y13070112D01*
X42284761Y13070112D01*
X42284761Y12957590D01*
X42284761Y12845068D01*
X42614826Y12845068D01*
X42944891Y12845068D01*
X42944891Y12957590D01*
X42944891Y13070112D01*
X42614826Y13070112D01*
X42284761Y13070112D01*
X42059716Y13070112D01*
X42059716Y13505198D01*
X42284761Y13505198D01*
X42284761Y13392676D01*
X42284761Y13280153D01*
X42397283Y13280153D01*
X42509805Y13280153D01*
X42509805Y13392676D01*
X42509805Y13505198D01*
X42397283Y13505198D01*
X42284761Y13505198D01*
X42059716Y13505198D01*
X41947194Y13505198D01*
X41834672Y13505198D01*
X41834672Y13392676D01*
X41834672Y13062611D01*
X41834672Y12957590D01*
X41834672Y12620023D01*
X41729651Y12620023D01*
X41624631Y12620023D01*
X41624631Y12507501D01*
X41624631Y12394979D01*
X41512109Y12394979D01*
X41399586Y12394979D01*
X41399586Y12507501D01*
X41399586Y12620023D01*
X41174542Y12620023D01*
X40949498Y12620023D01*
X40949498Y12732546D01*
X40949498Y12845068D01*
X41062020Y12845068D01*
X41174542Y12845068D01*
X41174542Y13070112D01*
X41399586Y13070112D01*
X41399586Y12957590D01*
X41399586Y12845068D01*
X41512109Y12845068D01*
X41624631Y12845068D01*
X41624631Y12957590D01*
X41624631Y13070112D01*
X41512109Y13070112D01*
X41399586Y13070112D01*
X41174542Y13070112D01*
X41174542Y13175133D01*
X41174542Y13505198D01*
X41399586Y13505198D01*
X41399586Y13392676D01*
X41399586Y13280153D01*
X41512109Y13280153D01*
X41624631Y13280153D01*
X41624631Y13392676D01*
X41624631Y13505198D01*
X41512109Y13505198D01*
X41399586Y13505198D01*
X41174542Y13505198D01*
X41062020Y13505198D01*
X40949498Y13505198D01*
X40949498Y13287655D01*
X40949498Y13070112D01*
X40836976Y13070112D01*
X40724453Y13070112D01*
X40499409Y13070112D01*
X40499409Y15290549D01*
X40724453Y15290549D01*
X40724453Y14510396D01*
X40724453Y13730242D01*
X41504607Y13730242D01*
X42284761Y13730242D01*
X42284761Y14390372D01*
X42509805Y14390372D01*
X42509805Y14285351D01*
X42509805Y14180331D01*
X42622327Y14180331D01*
X42734849Y14180331D01*
X42734849Y14067808D01*
X42734849Y13955286D01*
X42622327Y13955286D01*
X42509805Y13955286D01*
X42509805Y13730242D01*
X42509805Y13505198D01*
X42622327Y13505198D01*
X42734849Y13505198D01*
X42734849Y13730242D01*
X42734849Y13955286D01*
X42839870Y13955286D01*
X42944891Y13955286D01*
X42944891Y13730242D01*
X42944891Y13512699D01*
X42944891Y13392676D01*
X42944891Y13070112D01*
X43057413Y13070112D01*
X43169935Y13070112D01*
X43169935Y13175133D01*
X43169935Y13280153D01*
X43394979Y13280153D01*
X43620023Y13280153D01*
X43620023Y13617720D01*
X43620023Y13955286D01*
X43507501Y13955286D01*
X43394979Y13955286D01*
X43394979Y14067808D01*
X43394979Y14180331D01*
X43507501Y14180331D01*
X43620023Y14180331D01*
X43620023Y14285351D01*
X43620023Y14390372D01*
X43732546Y14390372D01*
X43845068Y14390372D01*
X43845068Y14060307D01*
X43845068Y13730242D01*
X43957590Y13730242D01*
X44070112Y13730242D01*
X44070112Y14060307D01*
X44070112Y14180331D01*
X44280153Y14180331D01*
X44280153Y13955286D01*
X44280153Y13730242D01*
X44392676Y13730242D01*
X44505198Y13730242D01*
X44505198Y13955286D01*
X44505198Y14180331D01*
X44392676Y14180331D01*
X44280153Y14180331D01*
X44070112Y14180331D01*
X44070112Y14390372D01*
X44287655Y14390372D01*
X44505198Y14390372D01*
X44505198Y14502894D01*
X44505198Y14510396D01*
X44730242Y14510396D01*
X44730242Y13955286D01*
X44730242Y13730242D01*
X45510396Y13730242D01*
X46290549Y13730242D01*
X46290549Y14510396D01*
X46290549Y15290549D01*
X45510396Y15290549D01*
X44730242Y15290549D01*
X44730242Y15065505D01*
X44730242Y14510396D01*
X44505198Y14510396D01*
X44505198Y14615416D01*
X44392676Y14615416D01*
X44280153Y14615416D01*
X44280153Y14727938D01*
X44280153Y14840461D01*
X44392676Y14840461D01*
X44505198Y14840461D01*
X44505198Y14952983D01*
X44505198Y15065505D01*
X44392676Y15065505D01*
X44280153Y15065505D01*
X44280153Y15178027D01*
X44280153Y15290549D01*
X44175133Y15290549D01*
X44070112Y15290549D01*
X44070112Y15065505D01*
X44070112Y14840461D01*
X43957590Y14840461D01*
X43845068Y14840461D01*
X43845068Y14952983D01*
X43845068Y15065505D01*
X43507501Y15065505D01*
X43169935Y15065505D01*
X43169935Y14952983D01*
X43169935Y14840461D01*
X43057413Y14840461D01*
X42944891Y14840461D01*
X42944891Y14952983D01*
X42944891Y15065505D01*
X42839870Y15065505D01*
X42734849Y15065505D01*
X42734849Y15178027D01*
X42734849Y15290549D01*
X42622327Y15290549D01*
X42509805Y15290549D01*
X42509805Y15065505D01*
X42509805Y14840461D01*
X42727348Y14840461D01*
X42944891Y14840461D01*
X42944891Y14727938D01*
X42944891Y14615416D01*
X42839870Y14615416D01*
X42734849Y14615416D01*
X42734849Y14510396D01*
X42734849Y14502894D01*
X42734849Y14390372D01*
X42622327Y14390372D01*
X42509805Y14390372D01*
X42284761Y14390372D01*
X42284761Y14510396D01*
X42284761Y15290549D01*
X41504607Y15290549D01*
X40724453Y15290549D01*
X40499409Y15290549D01*
X40499409Y15500590D01*
X43500000Y15500590D01*
X46500590Y15500590D01*
X46500590Y14510396D01*
X46500590Y13392676D01*
G37*
D11*
%TO.C,U1*%
X7000000Y15700000D02*
X7000000Y22500000D01*
X7000000Y13500000D02*
X7000000Y13100000D01*
X7000000Y10900000D02*
X7000000Y10500000D01*
X7000000Y1500000D02*
X7000000Y8300000D01*
X9400000Y22500000D02*
X9800000Y22500000D01*
X9400000Y1500000D02*
X9800000Y1500000D01*
X12000000Y22500000D02*
X12400000Y22500000D01*
X12000000Y1500000D02*
X12400000Y1500000D01*
X14500000Y22500000D02*
X14900000Y22500000D01*
X14500000Y1500000D02*
X14900000Y1500000D01*
X17000000Y22500000D02*
X17400000Y22500000D01*
X17000000Y1500000D02*
X17400000Y1500000D01*
X19600000Y22500000D02*
X20000000Y22500000D01*
X19600000Y1500000D02*
X20000000Y1500000D01*
X22100000Y22500000D02*
X22500000Y22500000D01*
X22100000Y1500000D02*
X22500000Y1500000D01*
X24700000Y22500000D02*
X25100000Y22500000D01*
X24700000Y1500000D02*
X25100000Y1500000D01*
X27200000Y22500000D02*
X27600000Y22500000D01*
X27200000Y1500000D02*
X27600000Y1500000D01*
X29800000Y22500000D02*
X30200000Y22500000D01*
X29800000Y1500000D02*
X30200000Y1500000D01*
X32300000Y22500000D02*
X32700000Y22500000D01*
X32300000Y1500000D02*
X32700000Y1500000D01*
X34800000Y22500000D02*
X35200000Y22500000D01*
X34800000Y1500000D02*
X35200000Y1500000D01*
X37400000Y22500000D02*
X37800000Y22500000D01*
X37400000Y1500000D02*
X37800000Y1500000D01*
X39900000Y22500000D02*
X40300000Y22500000D01*
X39900000Y1500000D02*
X40300000Y1500000D01*
X42500000Y22500000D02*
X42900000Y22500000D01*
X42500000Y1500000D02*
X42900000Y1500000D01*
X45000000Y22500000D02*
X45400000Y22500000D01*
X45000000Y1500000D02*
X45400000Y1500000D01*
X47500000Y22500000D02*
X47900000Y22500000D01*
X47500000Y1500000D02*
X47900000Y1500000D01*
X50100000Y22500000D02*
X50500000Y22500000D01*
X50100000Y1500000D02*
X50500000Y1500000D01*
X52600000Y22500000D02*
X53000000Y22500000D01*
X52600000Y1500000D02*
X53000000Y1500000D01*
X55200000Y22500000D02*
X55600000Y22500000D01*
X55200000Y1500000D02*
X55600000Y1500000D01*
X55333000Y4507000D02*
X55333000Y1500000D01*
X57700000Y22500000D02*
X58000000Y22500000D01*
X57700000Y1500000D02*
X58000000Y1500000D01*
X58000000Y22500000D02*
X58000000Y1500000D01*
X58000000Y4507000D02*
X55333000Y4507000D01*
D12*
%TO.C,G\u002A\u002A\u002A*%
G36*
X27073685Y11159814D02*
G01*
X27109605Y11105176D01*
X27116650Y11023143D01*
X27083675Y10952959D01*
X27062450Y10936809D01*
X26998807Y10916587D01*
X26951560Y10925947D01*
X26898293Y10972943D01*
X26878170Y11041737D01*
X26894964Y11112194D01*
X26952444Y11164175D01*
X27020591Y11182831D01*
X27073685Y11159814D01*
G37*
G36*
X29589437Y11159814D02*
G01*
X29625357Y11105176D01*
X29632402Y11023143D01*
X29599427Y10952959D01*
X29578202Y10936809D01*
X29514559Y10916587D01*
X29467312Y10925947D01*
X29414045Y10972943D01*
X29393922Y11041737D01*
X29410716Y11112194D01*
X29468196Y11164175D01*
X29536343Y11182831D01*
X29589437Y11159814D01*
G37*
G36*
X28260723Y11189197D02*
G01*
X28316639Y11164339D01*
X28369565Y11114503D01*
X28393079Y11063981D01*
X28387240Y11035615D01*
X28361702Y10975215D01*
X28332469Y10940950D01*
X28272936Y10916587D01*
X28206237Y10937215D01*
X28145891Y10990011D01*
X28120286Y11052983D01*
X28142767Y11110380D01*
X28196959Y11165259D01*
X28256683Y11189379D01*
X28260723Y11189197D01*
G37*
G36*
X30776475Y11189197D02*
G01*
X30832391Y11164339D01*
X30885317Y11114503D01*
X30908831Y11063981D01*
X30902992Y11035615D01*
X30877454Y10975215D01*
X30848221Y10940950D01*
X30788688Y10916587D01*
X30721989Y10937215D01*
X30661643Y10990011D01*
X30636038Y11052983D01*
X30658519Y11110380D01*
X30712711Y11165259D01*
X30772434Y11189379D01*
X30776475Y11189197D01*
G37*
G36*
X33667064Y11052983D02*
G01*
X33667064Y10280072D01*
X33576134Y10280072D01*
X33485203Y10280072D01*
X33485203Y10643795D01*
X33485203Y11007518D01*
X33166945Y11007518D01*
X32848687Y11007518D01*
X32848687Y11098449D01*
X32848687Y11189379D01*
X33166945Y11189379D01*
X33485203Y11189379D01*
X33485203Y11416706D01*
X33485203Y11644033D01*
X33136635Y11644033D01*
X32788067Y11644033D01*
X32788067Y11734964D01*
X32788067Y11825895D01*
X33227566Y11825895D01*
X33667064Y11825895D01*
X33667064Y11052983D01*
G37*
G36*
X34401745Y11181802D02*
G01*
X34409666Y9961814D01*
X37092124Y9961814D01*
X39774582Y9961814D01*
X39782533Y11075716D01*
X39790484Y12189618D01*
X37501686Y12189618D01*
X35212888Y12189618D01*
X35212888Y12295704D01*
X35212888Y12401790D01*
X37607399Y12401790D01*
X40001909Y12401790D01*
X40001909Y11068138D01*
X40001909Y9734487D01*
X37092124Y9734487D01*
X34182339Y9734487D01*
X34182339Y11068138D01*
X34182339Y12401790D01*
X34288081Y12401790D01*
X34393823Y12401790D01*
X34401745Y11181802D01*
G37*
G36*
X36364678Y11447017D02*
G01*
X36364678Y11159069D01*
X36622315Y11159069D01*
X36879952Y11159069D01*
X36879952Y11447017D01*
X36879952Y11734964D01*
X36970883Y11734964D01*
X37061814Y11734964D01*
X37061814Y11037828D01*
X37061814Y10340692D01*
X36970883Y10340692D01*
X36879952Y10340692D01*
X36879952Y10674105D01*
X36879952Y11007518D01*
X36622315Y11007518D01*
X36364678Y11007518D01*
X36364678Y10674105D01*
X36364678Y10340692D01*
X36273747Y10340692D01*
X36182816Y10340692D01*
X36182816Y11037828D01*
X36182816Y11734964D01*
X36273747Y11734964D01*
X36364678Y11734964D01*
X36364678Y11447017D01*
G37*
G36*
X24656387Y11824436D02*
G01*
X24808890Y11794499D01*
X24837053Y11785770D01*
X24903727Y11757532D01*
X24931902Y11720019D01*
X24937709Y11655873D01*
X24937709Y11556066D01*
X24808890Y11614539D01*
X24755074Y11636626D01*
X24601859Y11672784D01*
X24468235Y11665668D01*
X24362267Y11618249D01*
X24292027Y11533500D01*
X24265580Y11414393D01*
X24266081Y11376001D01*
X24275370Y11304745D01*
X24300184Y11233473D01*
X24345896Y11153520D01*
X24417879Y11056223D01*
X24521507Y10932918D01*
X24662151Y10774942D01*
X24706941Y10725020D01*
X24826904Y10586186D01*
X24907853Y10482244D01*
X24953616Y10407979D01*
X24968019Y10358176D01*
X24968019Y10280072D01*
X24513365Y10280072D01*
X24058711Y10280072D01*
X24058711Y10370010D01*
X24058711Y10459948D01*
X24388626Y10468518D01*
X24718541Y10477088D01*
X24446965Y10778294D01*
X24435658Y10790876D01*
X24328899Y10913750D01*
X24233528Y11030290D01*
X24159569Y11127867D01*
X24117050Y11193852D01*
X24085845Y11269044D01*
X24061951Y11422224D01*
X24087394Y11567102D01*
X24158829Y11691059D01*
X24272909Y11781477D01*
X24353389Y11810194D01*
X24496840Y11829481D01*
X24656387Y11824436D01*
G37*
G36*
X25887055Y11827902D02*
G01*
X26007500Y11810215D01*
X26101418Y11783735D01*
X26160543Y11754841D01*
X26200938Y11711907D01*
X26210740Y11645580D01*
X26210736Y11643337D01*
X26207165Y11579531D01*
X26198895Y11553103D01*
X26187832Y11556375D01*
X26134531Y11577958D01*
X26054921Y11613057D01*
X25996916Y11636652D01*
X25844864Y11671627D01*
X25712279Y11664155D01*
X25607389Y11617218D01*
X25538421Y11533798D01*
X25513604Y11416877D01*
X25516820Y11364851D01*
X25538327Y11278018D01*
X25584406Y11182766D01*
X25660119Y11070996D01*
X25770529Y10934609D01*
X25920697Y10765505D01*
X25992563Y10685877D01*
X26095717Y10565879D01*
X26163042Y10476956D01*
X26199671Y10411997D01*
X26210740Y10363894D01*
X26210740Y10280072D01*
X25756086Y10280072D01*
X25301432Y10280072D01*
X25301432Y10370010D01*
X25301432Y10459948D01*
X25634837Y10468518D01*
X25968242Y10477088D01*
X25694925Y10780191D01*
X25627549Y10855993D01*
X25484894Y11028310D01*
X25385205Y11172468D01*
X25325541Y11295726D01*
X25302956Y11405340D01*
X25314508Y11508567D01*
X25357252Y11612666D01*
X25378321Y11647315D01*
X25484515Y11750198D01*
X25632028Y11812512D01*
X25815946Y11831910D01*
X25887055Y11827902D01*
G37*
G36*
X28726340Y10824584D02*
G01*
X28710929Y10734704D01*
X28651920Y10538102D01*
X28565805Y10392974D01*
X28453537Y10301151D01*
X28424758Y10288095D01*
X28286968Y10259386D01*
X28141166Y10271199D01*
X28015028Y10322208D01*
X27966374Y10363534D01*
X27887340Y10480042D01*
X27826601Y10637626D01*
X27787108Y10824575D01*
X27776833Y10962052D01*
X27975421Y10962052D01*
X27980457Y10875340D01*
X28002448Y10695201D01*
X28039639Y10565356D01*
X28094419Y10479249D01*
X28169177Y10430321D01*
X28235449Y10408171D01*
X28285702Y10408110D01*
X28353604Y10431980D01*
X28371541Y10440325D01*
X28439370Y10501234D01*
X28488435Y10604818D01*
X28520655Y10756587D01*
X28537944Y10962052D01*
X28539339Y10997997D01*
X28534911Y11239972D01*
X28504208Y11429160D01*
X28447453Y11564996D01*
X28364870Y11646912D01*
X28256683Y11674344D01*
X28240904Y11673862D01*
X28136092Y11639188D01*
X28056914Y11550104D01*
X28003594Y11407176D01*
X27976355Y11210970D01*
X27975421Y10962052D01*
X27776833Y10962052D01*
X27771816Y11029178D01*
X27783677Y11239724D01*
X27792887Y11305008D01*
X27834648Y11489742D01*
X27896395Y11629491D01*
X27982426Y11734964D01*
X28009877Y11758522D01*
X28067517Y11791457D01*
X28142822Y11806900D01*
X28257134Y11810740D01*
X28342895Y11809190D01*
X28424159Y11798597D01*
X28483107Y11771980D01*
X28541830Y11722492D01*
X28612424Y11633240D01*
X28683983Y11474109D01*
X28728370Y11278757D01*
X28743263Y11058482D01*
X28738887Y10997997D01*
X28726340Y10824584D01*
G37*
G36*
X31242091Y10824584D02*
G01*
X31226681Y10734704D01*
X31167672Y10538102D01*
X31081557Y10392974D01*
X30969289Y10301151D01*
X30940509Y10288095D01*
X30802720Y10259386D01*
X30656918Y10271199D01*
X30530780Y10322208D01*
X30482126Y10363534D01*
X30403092Y10480042D01*
X30342352Y10637626D01*
X30302860Y10824575D01*
X30292585Y10962052D01*
X30491173Y10962052D01*
X30496209Y10875340D01*
X30518200Y10695201D01*
X30555391Y10565356D01*
X30610171Y10479249D01*
X30684929Y10430321D01*
X30751201Y10408171D01*
X30801454Y10408110D01*
X30869356Y10431980D01*
X30887293Y10440325D01*
X30955122Y10501234D01*
X31004187Y10604818D01*
X31036407Y10756587D01*
X31053696Y10962052D01*
X31055091Y10997997D01*
X31050663Y11239972D01*
X31019960Y11429160D01*
X30963205Y11564996D01*
X30880622Y11646912D01*
X30772434Y11674344D01*
X30756656Y11673862D01*
X30651844Y11639188D01*
X30572666Y11550104D01*
X30519346Y11407176D01*
X30492107Y11210970D01*
X30491173Y10962052D01*
X30292585Y10962052D01*
X30287568Y11029178D01*
X30299429Y11239724D01*
X30308638Y11305008D01*
X30350400Y11489742D01*
X30412147Y11629491D01*
X30498178Y11734964D01*
X30525629Y11758522D01*
X30583268Y11791457D01*
X30658573Y11806900D01*
X30772886Y11810740D01*
X30858647Y11809190D01*
X30939911Y11798597D01*
X30998859Y11771980D01*
X31057581Y11722492D01*
X31128176Y11633240D01*
X31199735Y11474109D01*
X31244122Y11278757D01*
X31259014Y11058482D01*
X31254638Y10997997D01*
X31242091Y10824584D01*
G37*
G36*
X39350239Y11037828D02*
G01*
X39350213Y11007497D01*
X39348507Y10860939D01*
X39342427Y10757347D01*
X39329613Y10681653D01*
X39307701Y10618790D01*
X39274329Y10553692D01*
X39246610Y10509121D01*
X39182115Y10428710D01*
X39122777Y10379855D01*
X39072147Y10360786D01*
X38945752Y10343032D01*
X38810726Y10351861D01*
X38697360Y10386782D01*
X38672263Y10402866D01*
X38600761Y10472628D01*
X38540011Y10561066D01*
X38512539Y10618397D01*
X38491481Y10684674D01*
X38479056Y10766711D01*
X38473116Y10879449D01*
X38471515Y11037828D01*
X38471914Y11053183D01*
X38638671Y11053183D01*
X38643475Y10905040D01*
X38666209Y10736264D01*
X38709255Y10613648D01*
X38774447Y10530131D01*
X38833244Y10487871D01*
X38920254Y10466741D01*
X39020946Y10497384D01*
X39034684Y10504706D01*
X39093086Y10558856D01*
X39134281Y10647452D01*
X39161119Y10779012D01*
X39176453Y10962052D01*
X39176623Y11183741D01*
X39150755Y11370312D01*
X39098424Y11504853D01*
X39020043Y11586334D01*
X38916023Y11613723D01*
X38847502Y11602646D01*
X38757532Y11540712D01*
X38691853Y11426705D01*
X38651791Y11263303D01*
X38638671Y11053183D01*
X38471914Y11053183D01*
X38476475Y11228675D01*
X38495763Y11391213D01*
X38532704Y11514209D01*
X38590560Y11608134D01*
X38672593Y11683463D01*
X38678983Y11687927D01*
X38784902Y11730108D01*
X38915957Y11743425D01*
X39046002Y11727876D01*
X39148887Y11683463D01*
X39224322Y11615782D01*
X39284306Y11523978D01*
X39323111Y11404027D01*
X39344001Y11245466D01*
X39345855Y11183741D01*
X39350239Y11037828D01*
G37*
G36*
X37891177Y11729128D02*
G01*
X37963375Y11706509D01*
X38086512Y11628546D01*
X38168999Y11517650D01*
X38204179Y11384859D01*
X38185396Y11241214D01*
X38182448Y11232592D01*
X38138457Y11149178D01*
X38066293Y11083228D01*
X37955198Y11027399D01*
X37794414Y10974347D01*
X37747134Y10960464D01*
X37633260Y10920255D01*
X37562410Y10877747D01*
X37521936Y10823192D01*
X37499190Y10746842D01*
X37496178Y10729624D01*
X37501713Y10649419D01*
X37551556Y10571941D01*
X37586124Y10537807D01*
X37695916Y10481728D01*
X37835789Y10474293D01*
X38009381Y10515053D01*
X38183294Y10573766D01*
X38183294Y10486588D01*
X38182834Y10465534D01*
X38172307Y10417683D01*
X38138458Y10386693D01*
X38068944Y10365039D01*
X37951423Y10345193D01*
X37891749Y10337750D01*
X37694984Y10337150D01*
X37539460Y10378607D01*
X37426604Y10461195D01*
X37357844Y10583985D01*
X37334606Y10746050D01*
X37344045Y10838801D01*
X37398799Y10959910D01*
X37504370Y11051286D01*
X37663065Y11115522D01*
X37778590Y11148695D01*
X37890691Y11186298D01*
X37961461Y11220396D01*
X38001213Y11256296D01*
X38020259Y11299302D01*
X38029447Y11378543D01*
X38001813Y11481892D01*
X37931605Y11557866D01*
X37827995Y11601137D01*
X37700155Y11606377D01*
X37557258Y11568258D01*
X37538154Y11560441D01*
X37464948Y11533623D01*
X37421835Y11522792D01*
X37403323Y11540718D01*
X37395835Y11592747D01*
X37403478Y11651674D01*
X37425619Y11689549D01*
X37460771Y11704589D01*
X37556182Y11725370D01*
X37675252Y11737707D01*
X37794684Y11739620D01*
X37891177Y11729128D01*
G37*
G36*
X27478769Y10947449D02*
G01*
X27452185Y10711303D01*
X27391252Y10522435D01*
X27296407Y10382027D01*
X27168084Y10291261D01*
X27147437Y10282926D01*
X27016230Y10261349D01*
X26876926Y10278851D01*
X26758949Y10332470D01*
X26726590Y10362005D01*
X26662625Y10442747D01*
X26604773Y10539284D01*
X26595872Y10557146D01*
X26565859Y10625693D01*
X26546392Y10694454D01*
X26535244Y10778525D01*
X26530188Y10893003D01*
X26528998Y11052983D01*
X26714782Y11052983D01*
X26715499Y10978412D01*
X26727299Y10785999D01*
X26755294Y10641506D01*
X26801689Y10536465D01*
X26868692Y10462407D01*
X26868791Y10462329D01*
X26939007Y10419233D01*
X26998807Y10401313D01*
X27032476Y10406519D01*
X27115448Y10453116D01*
X27191982Y10535121D01*
X27245478Y10636691D01*
X27253527Y10666433D01*
X27269272Y10769239D01*
X27279852Y10904589D01*
X27283488Y11052983D01*
X27281944Y11134770D01*
X27262421Y11344226D01*
X27221177Y11503407D01*
X27159027Y11609912D01*
X27076787Y11661344D01*
X27014800Y11671679D01*
X26905398Y11654713D01*
X26821221Y11585244D01*
X26761743Y11462389D01*
X26726439Y11285263D01*
X26714782Y11052983D01*
X26528998Y11052983D01*
X26529010Y11073395D01*
X26530656Y11228985D01*
X26536575Y11340723D01*
X26548903Y11423691D01*
X26569777Y11492970D01*
X26601333Y11563642D01*
X26618852Y11597091D01*
X26717859Y11725873D01*
X26843150Y11801168D01*
X26998807Y11825668D01*
X27058949Y11822662D01*
X27202420Y11782866D01*
X27314780Y11695451D01*
X27397230Y11558668D01*
X27450976Y11370765D01*
X27477221Y11129993D01*
X27477874Y11052983D01*
X27478769Y10947449D01*
G37*
G36*
X29994520Y10947449D02*
G01*
X29967937Y10711303D01*
X29907004Y10522435D01*
X29812159Y10382027D01*
X29683836Y10291261D01*
X29663189Y10282926D01*
X29531982Y10261349D01*
X29392677Y10278851D01*
X29274701Y10332470D01*
X29242342Y10362005D01*
X29178377Y10442747D01*
X29120525Y10539284D01*
X29111624Y10557146D01*
X29081611Y10625693D01*
X29062144Y10694454D01*
X29050996Y10778525D01*
X29045940Y10893003D01*
X29044749Y11052983D01*
X29230534Y11052983D01*
X29231251Y10978412D01*
X29243051Y10785999D01*
X29271045Y10641506D01*
X29317441Y10536465D01*
X29384444Y10462407D01*
X29384543Y10462329D01*
X29454758Y10419233D01*
X29514559Y10401313D01*
X29548227Y10406519D01*
X29631200Y10453116D01*
X29707734Y10535121D01*
X29761229Y10636691D01*
X29769279Y10666433D01*
X29785023Y10769239D01*
X29795604Y10904589D01*
X29799240Y11052983D01*
X29797696Y11134770D01*
X29778173Y11344226D01*
X29736928Y11503407D01*
X29674779Y11609912D01*
X29592539Y11661344D01*
X29530552Y11671679D01*
X29421150Y11654713D01*
X29336973Y11585244D01*
X29277495Y11462389D01*
X29242191Y11285263D01*
X29230534Y11052983D01*
X29044749Y11052983D01*
X29044761Y11073395D01*
X29046408Y11228985D01*
X29052327Y11340723D01*
X29064655Y11423691D01*
X29085529Y11492970D01*
X29117085Y11563642D01*
X29134604Y11597091D01*
X29233611Y11725873D01*
X29358902Y11801168D01*
X29514559Y11825668D01*
X29574701Y11822662D01*
X29718172Y11782866D01*
X29830531Y11695451D01*
X29912982Y11558668D01*
X29966728Y11370765D01*
X29992973Y11129993D01*
X29993626Y11052983D01*
X29994520Y10947449D01*
G37*
G36*
X32515275Y11041266D02*
G01*
X32515275Y10280072D01*
X32409189Y10280072D01*
X32303103Y10280072D01*
X32303103Y10598329D01*
X32303103Y10916587D01*
X32150174Y10916587D01*
X32119413Y10916013D01*
X32027703Y10902757D01*
X31952795Y10865576D01*
X31885830Y10796030D01*
X31817950Y10685679D01*
X31740295Y10526082D01*
X31687384Y10412705D01*
X31647216Y10338582D01*
X31613157Y10298922D01*
X31575859Y10282996D01*
X31525973Y10280072D01*
X31515774Y10280161D01*
X31450707Y10285947D01*
X31424105Y10297990D01*
X31425184Y10306429D01*
X31447964Y10366665D01*
X31494201Y10459819D01*
X31555778Y10571954D01*
X31624576Y10689131D01*
X31692478Y10797413D01*
X31751365Y10882863D01*
X31793120Y10931544D01*
X31813092Y10948947D01*
X31851024Y10992836D01*
X31836097Y11007518D01*
X31823542Y11009554D01*
X31764013Y11039119D01*
X31693481Y11092671D01*
X31645198Y11146317D01*
X31589947Y11267323D01*
X31583193Y11364902D01*
X31787789Y11364902D01*
X31803574Y11252977D01*
X31857832Y11164491D01*
X31881832Y11145142D01*
X31975194Y11103711D01*
X32115470Y11079114D01*
X32303103Y11059503D01*
X32303103Y11351768D01*
X32303103Y11644033D01*
X32204594Y11643864D01*
X32153974Y11641864D01*
X32018874Y11618430D01*
X31905959Y11573897D01*
X31834187Y11514870D01*
X31812147Y11475536D01*
X31787789Y11364902D01*
X31583193Y11364902D01*
X31580698Y11400955D01*
X31614966Y11532819D01*
X31690266Y11648521D01*
X31804115Y11733668D01*
X31817462Y11739365D01*
X31907704Y11761692D01*
X32041379Y11779273D01*
X32204594Y11790149D01*
X32515275Y11802460D01*
X32515275Y11351768D01*
X32515275Y11041266D01*
G37*
G36*
X34690036Y12759949D02*
G01*
X34773389Y12750358D01*
X34987922Y11719809D01*
X35029450Y11520826D01*
X35077491Y11291939D01*
X35120849Y11086782D01*
X35158005Y10912482D01*
X35187436Y10776164D01*
X35207623Y10684956D01*
X35217045Y10645984D01*
X35217717Y10644495D01*
X35229976Y10660863D01*
X35250810Y10726056D01*
X35277481Y10830405D01*
X35307246Y10964242D01*
X35382857Y11325776D01*
X35478694Y11335196D01*
X35518591Y11337438D01*
X35568046Y11323315D01*
X35590525Y11274576D01*
X35594475Y11257050D01*
X35611901Y11178264D01*
X35636593Y11065525D01*
X35664554Y10937055D01*
X35677450Y10878757D01*
X35703302Y10768794D01*
X35723969Y10689934D01*
X35735865Y10656299D01*
X35739545Y10662943D01*
X35750180Y10716375D01*
X35764869Y10814577D01*
X35782183Y10947636D01*
X35800691Y11105641D01*
X35823672Y11310671D01*
X35842403Y11468889D01*
X35858114Y11581891D01*
X35872706Y11657286D01*
X35888080Y11702683D01*
X35906136Y11725689D01*
X35928775Y11733913D01*
X35957898Y11734964D01*
X36007591Y11725390D01*
X36031558Y11681921D01*
X36031077Y11673037D01*
X36024029Y11610230D01*
X36009610Y11500373D01*
X35989149Y11353095D01*
X35963973Y11178023D01*
X35935410Y10984785D01*
X35838967Y10340692D01*
X35758333Y10340692D01*
X35725564Y10342916D01*
X35699612Y10356138D01*
X35677805Y10390009D01*
X35655892Y10454176D01*
X35629622Y10558288D01*
X35594745Y10711993D01*
X35592777Y10720794D01*
X35559841Y10865775D01*
X35530523Y10990825D01*
X35507949Y11082851D01*
X35495244Y11128759D01*
X35492047Y11131122D01*
X35475696Y11100484D01*
X35450257Y11023164D01*
X35418539Y10908302D01*
X35383356Y10765036D01*
X35376471Y10735522D01*
X35339720Y10581217D01*
X35311669Y10475203D01*
X35288386Y10408103D01*
X35265937Y10370542D01*
X35240390Y10353142D01*
X35207812Y10346529D01*
X35191711Y10344924D01*
X35154362Y10348576D01*
X35128760Y10374683D01*
X35106981Y10435567D01*
X35081103Y10543546D01*
X35076178Y10565455D01*
X35047414Y10694883D01*
X35011209Y10859596D01*
X34969258Y11051718D01*
X34923256Y11263374D01*
X34874899Y11486686D01*
X34825881Y11713779D01*
X34777899Y11936775D01*
X34732647Y12147798D01*
X34691821Y12338972D01*
X34657116Y12502421D01*
X34630228Y12630267D01*
X34612851Y12714635D01*
X34606683Y12747648D01*
X34629809Y12760083D01*
X34690036Y12759949D01*
G37*
%TD*%
M02*
