%TF.GenerationSoftware,KiCad,Pcbnew,8.0.3-8.0.3-0~ubuntu22.04.1*%
%TF.CreationDate,2025-01-19T16:51:54+01:00*%
%TF.ProjectId,ADC_pHAT_AFE_ADC10080,4144435f-7048-4415-945f-4146455f4144,rev?*%
%TF.SameCoordinates,PX5cbead0PY5705d50*%
%TF.FileFunction,Drillmap*%
%TF.FilePolarity,Positive*%
%FSLAX45Y45*%
G04 Gerber Fmt 4.5, Leading zero omitted, Abs format (unit mm)*
G04 Created by KiCad (PCBNEW 8.0.3-8.0.3-0~ubuntu22.04.1) date 2025-01-19 16:51:54*
%MOMM*%
%LPD*%
G01*
G04 APERTURE LIST*
%ADD10C,0.100000*%
%ADD11C,0.200000*%
G04 APERTURE END LIST*
D10*
X6500000Y350000D02*
G75*
G02*
X6150000Y0I-350000J0D01*
G01*
X6150000Y0D02*
X350000Y0D01*
X5900000Y1700000D02*
G75*
G02*
X6000000Y1800000I100000J0D01*
G01*
X6000000Y1800000D02*
X6400000Y1800000D01*
X6400000Y600000D02*
G75*
G02*
X6500000Y500000I0J-100000D01*
G01*
X0Y350000D02*
X0Y2650000D01*
X6150000Y3000000D02*
G75*
G02*
X6500000Y2650000I0J-350000D01*
G01*
X5900000Y700000D02*
X5900000Y1700000D01*
X6500000Y1900000D02*
G75*
G02*
X6400000Y1800000I-100000J0D01*
G01*
X6000000Y600000D02*
G75*
G02*
X5900000Y700000I0J100000D01*
G01*
X0Y2650000D02*
G75*
G02*
X350000Y3000000I350000J0D01*
G01*
X350000Y3000000D02*
X6150000Y3000000D01*
X6400000Y600000D02*
X6000000Y600000D01*
X350000Y0D02*
G75*
G02*
X0Y350000I0J350000D01*
G01*
X6500000Y2650000D02*
X6500000Y1900000D01*
X6500000Y500000D02*
X6500000Y350000D01*
D11*
D10*
X60000Y2265000D02*
X90000Y2235000D01*
X90000Y2265000D02*
X60000Y2235000D01*
X60000Y740000D02*
X90000Y710000D01*
X90000Y740000D02*
X60000Y710000D01*
X185000Y2265000D02*
X215000Y2235000D01*
X215000Y2265000D02*
X185000Y2235000D01*
X185000Y740000D02*
X215000Y710000D01*
X215000Y740000D02*
X185000Y710000D01*
X310000Y2265000D02*
X340000Y2235000D01*
X340000Y2265000D02*
X310000Y2235000D01*
X310000Y740000D02*
X340000Y710000D01*
X340000Y740000D02*
X310000Y710000D01*
X460000Y2265000D02*
X490000Y2235000D01*
X490000Y2265000D02*
X460000Y2235000D01*
X460000Y740000D02*
X490000Y710000D01*
X490000Y740000D02*
X460000Y710000D01*
X610000Y2265000D02*
X640000Y2235000D01*
X640000Y2265000D02*
X610000Y2235000D01*
X610000Y2115000D02*
X640000Y2085000D01*
X640000Y2115000D02*
X610000Y2085000D01*
X610000Y1990000D02*
X640000Y1960000D01*
X640000Y1990000D02*
X610000Y1960000D01*
X610000Y1865000D02*
X640000Y1835000D01*
X640000Y1865000D02*
X610000Y1835000D01*
X610000Y1740000D02*
X640000Y1710000D01*
X640000Y1740000D02*
X610000Y1710000D01*
X610000Y740000D02*
X640000Y710000D01*
X640000Y740000D02*
X610000Y710000D01*
X710000Y490000D02*
X740000Y460000D01*
X740000Y490000D02*
X710000Y460000D01*
X740000Y790000D02*
X770000Y760000D01*
X770000Y790000D02*
X740000Y760000D01*
X835000Y490000D02*
X865000Y460000D01*
X865000Y490000D02*
X835000Y460000D01*
X1022500Y1752500D02*
X1052500Y1722500D01*
X1052500Y1752500D02*
X1022500Y1722500D01*
X1105000Y535000D02*
X1135000Y505000D01*
X1135000Y535000D02*
X1105000Y505000D01*
X1250000Y915000D02*
X1280000Y885000D01*
X1280000Y915000D02*
X1250000Y885000D01*
X1250000Y505000D02*
X1280000Y475000D01*
X1280000Y505000D02*
X1250000Y475000D01*
X1310000Y590000D02*
X1340000Y560000D01*
X1340000Y590000D02*
X1310000Y560000D01*
X1330000Y480000D02*
X1360000Y450000D01*
X1360000Y480000D02*
X1330000Y450000D01*
X1355000Y1095000D02*
X1385000Y1065000D01*
X1385000Y1095000D02*
X1355000Y1065000D01*
X1435000Y925000D02*
X1465000Y895000D01*
X1465000Y925000D02*
X1435000Y895000D01*
X1535000Y1640000D02*
X1565000Y1610000D01*
X1565000Y1640000D02*
X1535000Y1610000D01*
X1565000Y495000D02*
X1595000Y465000D01*
X1595000Y495000D02*
X1565000Y465000D01*
X1585000Y2105000D02*
X1615000Y2075000D01*
X1615000Y2105000D02*
X1585000Y2075000D01*
X1610000Y990000D02*
X1640000Y960000D01*
X1640000Y990000D02*
X1610000Y960000D01*
X1705000Y1995000D02*
X1735000Y1965000D01*
X1735000Y1995000D02*
X1705000Y1965000D01*
X1710000Y1415000D02*
X1740000Y1385000D01*
X1740000Y1415000D02*
X1710000Y1385000D01*
X1710000Y1040000D02*
X1740000Y1010000D01*
X1740000Y1040000D02*
X1710000Y1010000D01*
X1750000Y800000D02*
X1780000Y770000D01*
X1780000Y800000D02*
X1750000Y770000D01*
X1765000Y600000D02*
X1795000Y570000D01*
X1795000Y600000D02*
X1765000Y570000D01*
X1785000Y2240000D02*
X1815000Y2210000D01*
X1815000Y2240000D02*
X1785000Y2210000D01*
X1840000Y1840000D02*
X1870000Y1810000D01*
X1870000Y1840000D02*
X1840000Y1810000D01*
X1905000Y1780000D02*
X1935000Y1750000D01*
X1935000Y1780000D02*
X1905000Y1750000D01*
X2060000Y1115000D02*
X2090000Y1085000D01*
X2090000Y1115000D02*
X2060000Y1085000D01*
X2092000Y2340000D02*
X2122000Y2310000D01*
X2122000Y2340000D02*
X2092000Y2310000D01*
X2140000Y1725000D02*
X2170000Y1695000D01*
X2170000Y1725000D02*
X2140000Y1695000D01*
X2140000Y1355000D02*
X2170000Y1325000D01*
X2170000Y1355000D02*
X2140000Y1325000D01*
X2147500Y1962500D02*
X2177500Y1932500D01*
X2177500Y1962500D02*
X2147500Y1932500D01*
X2160000Y990000D02*
X2190000Y960000D01*
X2190000Y990000D02*
X2160000Y960000D01*
X2175000Y625000D02*
X2205000Y595000D01*
X2205000Y625000D02*
X2175000Y595000D01*
X2485000Y2440000D02*
X2515000Y2410000D01*
X2515000Y2440000D02*
X2485000Y2410000D01*
X2585000Y1015000D02*
X2615000Y985000D01*
X2615000Y1015000D02*
X2585000Y985000D01*
X2610000Y590000D02*
X2640000Y560000D01*
X2640000Y590000D02*
X2610000Y560000D01*
X2610000Y480000D02*
X2640000Y450000D01*
X2640000Y480000D02*
X2610000Y450000D01*
X2635000Y1865000D02*
X2665000Y1835000D01*
X2665000Y1865000D02*
X2635000Y1835000D01*
X2650000Y1565000D02*
X2680000Y1535000D01*
X2680000Y1565000D02*
X2650000Y1535000D01*
X2810000Y1935000D02*
X2840000Y1905000D01*
X2840000Y1935000D02*
X2810000Y1905000D01*
X2860000Y1040000D02*
X2890000Y1010000D01*
X2890000Y1040000D02*
X2860000Y1010000D01*
X2884500Y464000D02*
X2914500Y434000D01*
X2914500Y464000D02*
X2884500Y434000D01*
X2935000Y1565000D02*
X2965000Y1535000D01*
X2965000Y1565000D02*
X2935000Y1535000D01*
X2965000Y1260000D02*
X2995000Y1230000D01*
X2995000Y1260000D02*
X2965000Y1230000D01*
X2965000Y1130000D02*
X2995000Y1100000D01*
X2995000Y1130000D02*
X2965000Y1100000D01*
X2995000Y735000D02*
X3025000Y705000D01*
X3025000Y735000D02*
X2995000Y705000D01*
X3085000Y1960000D02*
X3115000Y1930000D01*
X3115000Y1960000D02*
X3085000Y1930000D01*
X3085000Y1130000D02*
X3115000Y1100000D01*
X3115000Y1130000D02*
X3085000Y1100000D01*
X3204500Y429000D02*
X3234500Y399000D01*
X3234500Y429000D02*
X3204500Y399000D01*
X3220000Y1280000D02*
X3250000Y1250000D01*
X3250000Y1280000D02*
X3220000Y1250000D01*
X3260000Y1715000D02*
X3290000Y1685000D01*
X3290000Y1715000D02*
X3260000Y1685000D01*
X3260000Y1540000D02*
X3290000Y1510000D01*
X3290000Y1540000D02*
X3260000Y1510000D01*
X3335000Y1240000D02*
X3365000Y1210000D01*
X3365000Y1240000D02*
X3335000Y1210000D01*
X3335000Y990000D02*
X3365000Y960000D01*
X3365000Y990000D02*
X3335000Y960000D01*
X3335000Y865000D02*
X3365000Y835000D01*
X3365000Y865000D02*
X3335000Y835000D01*
X3360000Y1865000D02*
X3390000Y1835000D01*
X3390000Y1865000D02*
X3360000Y1835000D01*
X3362000Y2104000D02*
X3392000Y2074000D01*
X3392000Y2104000D02*
X3362000Y2074000D01*
X3435000Y1140000D02*
X3465000Y1110000D01*
X3465000Y1140000D02*
X3435000Y1110000D01*
X3440000Y1435000D02*
X3470000Y1405000D01*
X3470000Y1435000D02*
X3440000Y1405000D01*
X3460000Y865000D02*
X3490000Y835000D01*
X3490000Y865000D02*
X3460000Y835000D01*
X3484500Y464000D02*
X3514500Y434000D01*
X3514500Y464000D02*
X3484500Y434000D01*
X3535000Y1040000D02*
X3565000Y1010000D01*
X3565000Y1040000D02*
X3535000Y1010000D01*
X3585000Y1290000D02*
X3615000Y1260000D01*
X3615000Y1290000D02*
X3585000Y1260000D01*
X3660000Y915000D02*
X3690000Y885000D01*
X3690000Y915000D02*
X3660000Y885000D01*
X3710000Y1165000D02*
X3740000Y1135000D01*
X3740000Y1165000D02*
X3710000Y1135000D01*
X3734500Y464000D02*
X3764500Y434000D01*
X3764500Y464000D02*
X3734500Y434000D01*
X3785000Y840000D02*
X3815000Y810000D01*
X3815000Y840000D02*
X3785000Y810000D01*
X3860000Y1190000D02*
X3890000Y1160000D01*
X3890000Y1190000D02*
X3860000Y1160000D01*
X3860000Y1040000D02*
X3890000Y1010000D01*
X3890000Y1040000D02*
X3860000Y1010000D01*
X3860000Y115000D02*
X3890000Y85000D01*
X3890000Y115000D02*
X3860000Y85000D01*
X3885000Y782500D02*
X3915000Y752500D01*
X3915000Y782500D02*
X3885000Y752500D01*
X3985000Y1565000D02*
X4015000Y1535000D01*
X4015000Y1565000D02*
X3985000Y1535000D01*
X4010000Y1415000D02*
X4040000Y1385000D01*
X4040000Y1415000D02*
X4010000Y1385000D01*
X4010000Y1190000D02*
X4040000Y1160000D01*
X4040000Y1190000D02*
X4010000Y1160000D01*
X4054500Y1799000D02*
X4084500Y1769000D01*
X4084500Y1799000D02*
X4054500Y1769000D01*
X4259500Y464000D02*
X4289500Y434000D01*
X4289500Y464000D02*
X4259500Y434000D01*
X4360000Y1190000D02*
X4390000Y1160000D01*
X4390000Y1190000D02*
X4360000Y1160000D01*
X4385000Y1585000D02*
X4415000Y1555000D01*
X4415000Y1585000D02*
X4385000Y1555000D01*
X4475000Y1120000D02*
X4505000Y1090000D01*
X4505000Y1120000D02*
X4475000Y1090000D01*
X4480000Y1300000D02*
X4510000Y1270000D01*
X4510000Y1300000D02*
X4480000Y1270000D01*
X4509500Y464000D02*
X4539500Y434000D01*
X4539500Y464000D02*
X4509500Y434000D01*
X4540000Y1810000D02*
X4570000Y1780000D01*
X4570000Y1810000D02*
X4540000Y1780000D01*
X4550000Y1405000D02*
X4580000Y1375000D01*
X4580000Y1405000D02*
X4550000Y1375000D01*
X4585000Y765000D02*
X4615000Y735000D01*
X4615000Y765000D02*
X4585000Y735000D01*
X4635000Y2390000D02*
X4665000Y2360000D01*
X4665000Y2390000D02*
X4635000Y2360000D01*
X4645000Y1120000D02*
X4675000Y1090000D01*
X4675000Y1120000D02*
X4645000Y1090000D01*
X4747000Y439000D02*
X4777000Y409000D01*
X4777000Y439000D02*
X4747000Y409000D01*
X4760000Y765000D02*
X4790000Y735000D01*
X4790000Y765000D02*
X4760000Y735000D01*
X4960000Y1765000D02*
X4990000Y1735000D01*
X4990000Y1765000D02*
X4960000Y1735000D01*
X5087000Y516500D02*
X5117000Y486500D01*
X5117000Y516500D02*
X5087000Y486500D01*
X5095000Y2270000D02*
X5125000Y2240000D01*
X5125000Y2270000D02*
X5095000Y2240000D01*
X5095000Y1765000D02*
X5125000Y1735000D01*
X5125000Y1765000D02*
X5095000Y1735000D01*
X5190000Y2270000D02*
X5220000Y2240000D01*
X5220000Y2270000D02*
X5190000Y2240000D01*
X5459500Y514000D02*
X5489500Y484000D01*
X5489500Y514000D02*
X5459500Y484000D01*
X5490000Y1625000D02*
X5520000Y1595000D01*
X5520000Y1625000D02*
X5490000Y1595000D01*
X5759500Y514000D02*
X5789500Y484000D01*
X5789500Y514000D02*
X5759500Y484000D01*
X5820000Y75000D02*
X5850000Y45000D01*
X5850000Y75000D02*
X5820000Y45000D01*
X5825000Y1660000D02*
X5855000Y1630000D01*
X5855000Y1660000D02*
X5825000Y1630000D01*
X5890000Y555000D02*
X5920000Y525000D01*
X5920000Y555000D02*
X5890000Y525000D01*
X5910000Y2290000D02*
X5940000Y2260000D01*
X5940000Y2290000D02*
X5910000Y2260000D01*
X5940000Y2960000D02*
X5970000Y2930000D01*
X5970000Y2960000D02*
X5940000Y2930000D01*
X2665000Y825000D02*
G75*
G02*
X2635000Y825000I-15000J0D01*
G01*
X2635000Y825000D02*
G75*
G02*
X2665000Y825000I15000J0D01*
G01*
X2765000Y825000D02*
G75*
G02*
X2735000Y825000I-15000J0D01*
G01*
X2735000Y825000D02*
G75*
G02*
X2765000Y825000I15000J0D01*
G01*
X2865000Y825000D02*
G75*
G02*
X2835000Y825000I-15000J0D01*
G01*
X2835000Y825000D02*
G75*
G02*
X2865000Y825000I15000J0D01*
G01*
X330000Y1550000D02*
X330000Y1450000D01*
X280000Y1500000D02*
X380000Y1500000D01*
X840000Y2850000D02*
X840000Y2750000D01*
X790000Y2800000D02*
X890000Y2800000D01*
X840000Y2596000D02*
X840000Y2496000D01*
X790000Y2546000D02*
X890000Y2546000D01*
X1094000Y2850000D02*
X1094000Y2750000D01*
X1044000Y2800000D02*
X1144000Y2800000D01*
X1094000Y2596000D02*
X1094000Y2496000D01*
X1044000Y2546000D02*
X1144000Y2546000D01*
X1348000Y2850000D02*
X1348000Y2750000D01*
X1298000Y2800000D02*
X1398000Y2800000D01*
X1348000Y2596000D02*
X1348000Y2496000D01*
X1298000Y2546000D02*
X1398000Y2546000D01*
X1602000Y2850000D02*
X1602000Y2750000D01*
X1552000Y2800000D02*
X1652000Y2800000D01*
X1602000Y2596000D02*
X1602000Y2496000D01*
X1552000Y2546000D02*
X1652000Y2546000D01*
X1856000Y2850000D02*
X1856000Y2750000D01*
X1806000Y2800000D02*
X1906000Y2800000D01*
X1856000Y2596000D02*
X1856000Y2496000D01*
X1806000Y2546000D02*
X1906000Y2546000D01*
X2110000Y2850000D02*
X2110000Y2750000D01*
X2060000Y2800000D02*
X2160000Y2800000D01*
X2110000Y2596000D02*
X2110000Y2496000D01*
X2060000Y2546000D02*
X2160000Y2546000D01*
X2364000Y2850000D02*
X2364000Y2750000D01*
X2314000Y2800000D02*
X2414000Y2800000D01*
X2364000Y2596000D02*
X2364000Y2496000D01*
X2314000Y2546000D02*
X2414000Y2546000D01*
X2618000Y2850000D02*
X2618000Y2750000D01*
X2568000Y2800000D02*
X2668000Y2800000D01*
X2618000Y2596000D02*
X2618000Y2496000D01*
X2568000Y2546000D02*
X2668000Y2546000D01*
X2872000Y2850000D02*
X2872000Y2750000D01*
X2822000Y2800000D02*
X2922000Y2800000D01*
X2872000Y2596000D02*
X2872000Y2496000D01*
X2822000Y2546000D02*
X2922000Y2546000D01*
X3126000Y2850000D02*
X3126000Y2750000D01*
X3076000Y2800000D02*
X3176000Y2800000D01*
X3126000Y2596000D02*
X3126000Y2496000D01*
X3076000Y2546000D02*
X3176000Y2546000D01*
X3380000Y2850000D02*
X3380000Y2750000D01*
X3330000Y2800000D02*
X3430000Y2800000D01*
X3380000Y2596000D02*
X3380000Y2496000D01*
X3330000Y2546000D02*
X3430000Y2546000D01*
X3634000Y2850000D02*
X3634000Y2750000D01*
X3584000Y2800000D02*
X3684000Y2800000D01*
X3634000Y2596000D02*
X3634000Y2496000D01*
X3584000Y2546000D02*
X3684000Y2546000D01*
X3888000Y2850000D02*
X3888000Y2750000D01*
X3838000Y2800000D02*
X3938000Y2800000D01*
X3888000Y2596000D02*
X3888000Y2496000D01*
X3838000Y2546000D02*
X3938000Y2546000D01*
X4142000Y2850000D02*
X4142000Y2750000D01*
X4092000Y2800000D02*
X4192000Y2800000D01*
X4142000Y2596000D02*
X4142000Y2496000D01*
X4092000Y2546000D02*
X4192000Y2546000D01*
X4396000Y2850000D02*
X4396000Y2750000D01*
X4346000Y2800000D02*
X4446000Y2800000D01*
X4396000Y2596000D02*
X4396000Y2496000D01*
X4346000Y2546000D02*
X4446000Y2546000D01*
X4650000Y2850000D02*
X4650000Y2750000D01*
X4600000Y2800000D02*
X4700000Y2800000D01*
X4650000Y2596000D02*
X4650000Y2496000D01*
X4600000Y2546000D02*
X4700000Y2546000D01*
X4904000Y2850000D02*
X4904000Y2750000D01*
X4854000Y2800000D02*
X4954000Y2800000D01*
X4904000Y2596000D02*
X4904000Y2496000D01*
X4854000Y2546000D02*
X4954000Y2546000D01*
X5158000Y2850000D02*
X5158000Y2750000D01*
X5108000Y2800000D02*
X5208000Y2800000D01*
X5158000Y2596000D02*
X5158000Y2496000D01*
X5108000Y2546000D02*
X5208000Y2546000D01*
X5412000Y2850000D02*
X5412000Y2750000D01*
X5362000Y2800000D02*
X5462000Y2800000D01*
X5412000Y2596000D02*
X5412000Y2496000D01*
X5362000Y2546000D02*
X5462000Y2546000D01*
X5666000Y2850000D02*
X5666000Y2750000D01*
X5616000Y2800000D02*
X5716000Y2800000D01*
X5666000Y2596000D02*
X5666000Y2496000D01*
X5616000Y2546000D02*
X5716000Y2546000D01*
D11*
X255777Y-316484D02*
X255777Y-116484D01*
X255777Y-116484D02*
X303396Y-116484D01*
X303396Y-116484D02*
X331967Y-126008D01*
X331967Y-126008D02*
X351015Y-145055D01*
X351015Y-145055D02*
X360539Y-164103D01*
X360539Y-164103D02*
X370062Y-202198D01*
X370062Y-202198D02*
X370062Y-230769D01*
X370062Y-230769D02*
X360539Y-268865D01*
X360539Y-268865D02*
X351015Y-287912D01*
X351015Y-287912D02*
X331967Y-306960D01*
X331967Y-306960D02*
X303396Y-316484D01*
X303396Y-316484D02*
X255777Y-316484D01*
X455777Y-316484D02*
X455777Y-183150D01*
X455777Y-221246D02*
X465301Y-202198D01*
X465301Y-202198D02*
X474824Y-192674D01*
X474824Y-192674D02*
X493872Y-183150D01*
X493872Y-183150D02*
X512920Y-183150D01*
X579586Y-316484D02*
X579586Y-183150D01*
X579586Y-116484D02*
X570063Y-126008D01*
X570063Y-126008D02*
X579586Y-135531D01*
X579586Y-135531D02*
X589110Y-126008D01*
X589110Y-126008D02*
X579586Y-116484D01*
X579586Y-116484D02*
X579586Y-135531D01*
X703396Y-316484D02*
X684348Y-306960D01*
X684348Y-306960D02*
X674824Y-287912D01*
X674824Y-287912D02*
X674824Y-116484D01*
X808158Y-316484D02*
X789110Y-306960D01*
X789110Y-306960D02*
X779586Y-287912D01*
X779586Y-287912D02*
X779586Y-116484D01*
X1036729Y-316484D02*
X1036729Y-116484D01*
X1036729Y-116484D02*
X1103396Y-259341D01*
X1103396Y-259341D02*
X1170063Y-116484D01*
X1170063Y-116484D02*
X1170063Y-316484D01*
X1351015Y-316484D02*
X1351015Y-211722D01*
X1351015Y-211722D02*
X1341491Y-192674D01*
X1341491Y-192674D02*
X1322444Y-183150D01*
X1322444Y-183150D02*
X1284348Y-183150D01*
X1284348Y-183150D02*
X1265301Y-192674D01*
X1351015Y-306960D02*
X1331967Y-316484D01*
X1331967Y-316484D02*
X1284348Y-316484D01*
X1284348Y-316484D02*
X1265301Y-306960D01*
X1265301Y-306960D02*
X1255777Y-287912D01*
X1255777Y-287912D02*
X1255777Y-268865D01*
X1255777Y-268865D02*
X1265301Y-249817D01*
X1265301Y-249817D02*
X1284348Y-240293D01*
X1284348Y-240293D02*
X1331967Y-240293D01*
X1331967Y-240293D02*
X1351015Y-230769D01*
X1446253Y-183150D02*
X1446253Y-383150D01*
X1446253Y-192674D02*
X1465301Y-183150D01*
X1465301Y-183150D02*
X1503396Y-183150D01*
X1503396Y-183150D02*
X1522443Y-192674D01*
X1522443Y-192674D02*
X1531967Y-202198D01*
X1531967Y-202198D02*
X1541491Y-221246D01*
X1541491Y-221246D02*
X1541491Y-278389D01*
X1541491Y-278389D02*
X1531967Y-297436D01*
X1531967Y-297436D02*
X1522443Y-306960D01*
X1522443Y-306960D02*
X1503396Y-316484D01*
X1503396Y-316484D02*
X1465301Y-316484D01*
X1465301Y-316484D02*
X1446253Y-306960D01*
X1627205Y-297436D02*
X1636729Y-306960D01*
X1636729Y-306960D02*
X1627205Y-316484D01*
X1627205Y-316484D02*
X1617682Y-306960D01*
X1617682Y-306960D02*
X1627205Y-297436D01*
X1627205Y-297436D02*
X1627205Y-316484D01*
X1627205Y-192674D02*
X1636729Y-202198D01*
X1636729Y-202198D02*
X1627205Y-211722D01*
X1627205Y-211722D02*
X1617682Y-202198D01*
X1617682Y-202198D02*
X1627205Y-192674D01*
X1627205Y-192674D02*
X1627205Y-211722D01*
D10*
X-35000Y-630000D02*
X-5000Y-660000D01*
X-5000Y-630000D02*
X-35000Y-660000D01*
D11*
X293872Y-536484D02*
X312920Y-536484D01*
X312920Y-536484D02*
X331967Y-546008D01*
X331967Y-546008D02*
X341491Y-555531D01*
X341491Y-555531D02*
X351015Y-574579D01*
X351015Y-574579D02*
X360539Y-612674D01*
X360539Y-612674D02*
X360539Y-660293D01*
X360539Y-660293D02*
X351015Y-698389D01*
X351015Y-698389D02*
X341491Y-717436D01*
X341491Y-717436D02*
X331967Y-726960D01*
X331967Y-726960D02*
X312920Y-736484D01*
X312920Y-736484D02*
X293872Y-736484D01*
X293872Y-736484D02*
X274824Y-726960D01*
X274824Y-726960D02*
X265301Y-717436D01*
X265301Y-717436D02*
X255777Y-698389D01*
X255777Y-698389D02*
X246253Y-660293D01*
X246253Y-660293D02*
X246253Y-612674D01*
X246253Y-612674D02*
X255777Y-574579D01*
X255777Y-574579D02*
X265301Y-555531D01*
X265301Y-555531D02*
X274824Y-546008D01*
X274824Y-546008D02*
X293872Y-536484D01*
X446253Y-717436D02*
X455777Y-726960D01*
X455777Y-726960D02*
X446253Y-736484D01*
X446253Y-736484D02*
X436729Y-726960D01*
X436729Y-726960D02*
X446253Y-717436D01*
X446253Y-717436D02*
X446253Y-736484D01*
X522443Y-536484D02*
X646253Y-536484D01*
X646253Y-536484D02*
X579586Y-612674D01*
X579586Y-612674D02*
X608158Y-612674D01*
X608158Y-612674D02*
X627205Y-622198D01*
X627205Y-622198D02*
X636729Y-631722D01*
X636729Y-631722D02*
X646253Y-650770D01*
X646253Y-650770D02*
X646253Y-698389D01*
X646253Y-698389D02*
X636729Y-717436D01*
X636729Y-717436D02*
X627205Y-726960D01*
X627205Y-726960D02*
X608158Y-736484D01*
X608158Y-736484D02*
X551015Y-736484D01*
X551015Y-736484D02*
X531967Y-726960D01*
X531967Y-726960D02*
X522443Y-717436D01*
X770062Y-536484D02*
X789110Y-536484D01*
X789110Y-536484D02*
X808158Y-546008D01*
X808158Y-546008D02*
X817682Y-555531D01*
X817682Y-555531D02*
X827205Y-574579D01*
X827205Y-574579D02*
X836729Y-612674D01*
X836729Y-612674D02*
X836729Y-660293D01*
X836729Y-660293D02*
X827205Y-698389D01*
X827205Y-698389D02*
X817682Y-717436D01*
X817682Y-717436D02*
X808158Y-726960D01*
X808158Y-726960D02*
X789110Y-736484D01*
X789110Y-736484D02*
X770062Y-736484D01*
X770062Y-736484D02*
X751015Y-726960D01*
X751015Y-726960D02*
X741491Y-717436D01*
X741491Y-717436D02*
X731967Y-698389D01*
X731967Y-698389D02*
X722443Y-660293D01*
X722443Y-660293D02*
X722443Y-612674D01*
X722443Y-612674D02*
X731967Y-574579D01*
X731967Y-574579D02*
X741491Y-555531D01*
X741491Y-555531D02*
X751015Y-546008D01*
X751015Y-546008D02*
X770062Y-536484D01*
X960539Y-536484D02*
X979586Y-536484D01*
X979586Y-536484D02*
X998634Y-546008D01*
X998634Y-546008D02*
X1008158Y-555531D01*
X1008158Y-555531D02*
X1017682Y-574579D01*
X1017682Y-574579D02*
X1027205Y-612674D01*
X1027205Y-612674D02*
X1027205Y-660293D01*
X1027205Y-660293D02*
X1017682Y-698389D01*
X1017682Y-698389D02*
X1008158Y-717436D01*
X1008158Y-717436D02*
X998634Y-726960D01*
X998634Y-726960D02*
X979586Y-736484D01*
X979586Y-736484D02*
X960539Y-736484D01*
X960539Y-736484D02*
X941491Y-726960D01*
X941491Y-726960D02*
X931967Y-717436D01*
X931967Y-717436D02*
X922443Y-698389D01*
X922443Y-698389D02*
X912920Y-660293D01*
X912920Y-660293D02*
X912920Y-612674D01*
X912920Y-612674D02*
X922443Y-574579D01*
X922443Y-574579D02*
X931967Y-555531D01*
X931967Y-555531D02*
X941491Y-546008D01*
X941491Y-546008D02*
X960539Y-536484D01*
X1112920Y-736484D02*
X1112920Y-603150D01*
X1112920Y-622198D02*
X1122444Y-612674D01*
X1122444Y-612674D02*
X1141491Y-603150D01*
X1141491Y-603150D02*
X1170063Y-603150D01*
X1170063Y-603150D02*
X1189110Y-612674D01*
X1189110Y-612674D02*
X1198634Y-631722D01*
X1198634Y-631722D02*
X1198634Y-736484D01*
X1198634Y-631722D02*
X1208158Y-612674D01*
X1208158Y-612674D02*
X1227205Y-603150D01*
X1227205Y-603150D02*
X1255777Y-603150D01*
X1255777Y-603150D02*
X1274825Y-612674D01*
X1274825Y-612674D02*
X1284348Y-631722D01*
X1284348Y-631722D02*
X1284348Y-736484D01*
X1379586Y-736484D02*
X1379586Y-603150D01*
X1379586Y-622198D02*
X1389110Y-612674D01*
X1389110Y-612674D02*
X1408158Y-603150D01*
X1408158Y-603150D02*
X1436729Y-603150D01*
X1436729Y-603150D02*
X1455777Y-612674D01*
X1455777Y-612674D02*
X1465301Y-631722D01*
X1465301Y-631722D02*
X1465301Y-736484D01*
X1465301Y-631722D02*
X1474824Y-612674D01*
X1474824Y-612674D02*
X1493872Y-603150D01*
X1493872Y-603150D02*
X1522443Y-603150D01*
X1522443Y-603150D02*
X1541491Y-612674D01*
X1541491Y-612674D02*
X1551015Y-631722D01*
X1551015Y-631722D02*
X1551015Y-736484D01*
X1941491Y-526960D02*
X1770063Y-784103D01*
X2198634Y-536484D02*
X2217682Y-536484D01*
X2217682Y-536484D02*
X2236729Y-546008D01*
X2236729Y-546008D02*
X2246253Y-555531D01*
X2246253Y-555531D02*
X2255777Y-574579D01*
X2255777Y-574579D02*
X2265301Y-612674D01*
X2265301Y-612674D02*
X2265301Y-660293D01*
X2265301Y-660293D02*
X2255777Y-698389D01*
X2255777Y-698389D02*
X2246253Y-717436D01*
X2246253Y-717436D02*
X2236729Y-726960D01*
X2236729Y-726960D02*
X2217682Y-736484D01*
X2217682Y-736484D02*
X2198634Y-736484D01*
X2198634Y-736484D02*
X2179587Y-726960D01*
X2179587Y-726960D02*
X2170063Y-717436D01*
X2170063Y-717436D02*
X2160539Y-698389D01*
X2160539Y-698389D02*
X2151015Y-660293D01*
X2151015Y-660293D02*
X2151015Y-612674D01*
X2151015Y-612674D02*
X2160539Y-574579D01*
X2160539Y-574579D02*
X2170063Y-555531D01*
X2170063Y-555531D02*
X2179587Y-546008D01*
X2179587Y-546008D02*
X2198634Y-536484D01*
X2351015Y-717436D02*
X2360539Y-726960D01*
X2360539Y-726960D02*
X2351015Y-736484D01*
X2351015Y-736484D02*
X2341491Y-726960D01*
X2341491Y-726960D02*
X2351015Y-717436D01*
X2351015Y-717436D02*
X2351015Y-736484D01*
X2484348Y-536484D02*
X2503396Y-536484D01*
X2503396Y-536484D02*
X2522444Y-546008D01*
X2522444Y-546008D02*
X2531968Y-555531D01*
X2531968Y-555531D02*
X2541491Y-574579D01*
X2541491Y-574579D02*
X2551015Y-612674D01*
X2551015Y-612674D02*
X2551015Y-660293D01*
X2551015Y-660293D02*
X2541491Y-698389D01*
X2541491Y-698389D02*
X2531968Y-717436D01*
X2531968Y-717436D02*
X2522444Y-726960D01*
X2522444Y-726960D02*
X2503396Y-736484D01*
X2503396Y-736484D02*
X2484348Y-736484D01*
X2484348Y-736484D02*
X2465301Y-726960D01*
X2465301Y-726960D02*
X2455777Y-717436D01*
X2455777Y-717436D02*
X2446253Y-698389D01*
X2446253Y-698389D02*
X2436729Y-660293D01*
X2436729Y-660293D02*
X2436729Y-612674D01*
X2436729Y-612674D02*
X2446253Y-574579D01*
X2446253Y-574579D02*
X2455777Y-555531D01*
X2455777Y-555531D02*
X2465301Y-546008D01*
X2465301Y-546008D02*
X2484348Y-536484D01*
X2741491Y-736484D02*
X2627206Y-736484D01*
X2684348Y-736484D02*
X2684348Y-536484D01*
X2684348Y-536484D02*
X2665301Y-565055D01*
X2665301Y-565055D02*
X2646253Y-584103D01*
X2646253Y-584103D02*
X2627206Y-593627D01*
X2931967Y-736484D02*
X2817682Y-736484D01*
X2874825Y-736484D02*
X2874825Y-536484D01*
X2874825Y-536484D02*
X2855777Y-565055D01*
X2855777Y-565055D02*
X2836729Y-584103D01*
X2836729Y-584103D02*
X2817682Y-593627D01*
X3046253Y-622198D02*
X3027206Y-612674D01*
X3027206Y-612674D02*
X3017682Y-603150D01*
X3017682Y-603150D02*
X3008158Y-584103D01*
X3008158Y-584103D02*
X3008158Y-574579D01*
X3008158Y-574579D02*
X3017682Y-555531D01*
X3017682Y-555531D02*
X3027206Y-546008D01*
X3027206Y-546008D02*
X3046253Y-536484D01*
X3046253Y-536484D02*
X3084348Y-536484D01*
X3084348Y-536484D02*
X3103396Y-546008D01*
X3103396Y-546008D02*
X3112920Y-555531D01*
X3112920Y-555531D02*
X3122444Y-574579D01*
X3122444Y-574579D02*
X3122444Y-584103D01*
X3122444Y-584103D02*
X3112920Y-603150D01*
X3112920Y-603150D02*
X3103396Y-612674D01*
X3103396Y-612674D02*
X3084348Y-622198D01*
X3084348Y-622198D02*
X3046253Y-622198D01*
X3046253Y-622198D02*
X3027206Y-631722D01*
X3027206Y-631722D02*
X3017682Y-641246D01*
X3017682Y-641246D02*
X3008158Y-660293D01*
X3008158Y-660293D02*
X3008158Y-698389D01*
X3008158Y-698389D02*
X3017682Y-717436D01*
X3017682Y-717436D02*
X3027206Y-726960D01*
X3027206Y-726960D02*
X3046253Y-736484D01*
X3046253Y-736484D02*
X3084348Y-736484D01*
X3084348Y-736484D02*
X3103396Y-726960D01*
X3103396Y-726960D02*
X3112920Y-717436D01*
X3112920Y-717436D02*
X3122444Y-698389D01*
X3122444Y-698389D02*
X3122444Y-660293D01*
X3122444Y-660293D02*
X3112920Y-641246D01*
X3112920Y-641246D02*
X3103396Y-631722D01*
X3103396Y-631722D02*
X3084348Y-622198D01*
X3198634Y-536484D02*
X3198634Y-574579D01*
X3274825Y-536484D02*
X3274825Y-574579D01*
X3570063Y-812674D02*
X3560539Y-803150D01*
X3560539Y-803150D02*
X3541491Y-774579D01*
X3541491Y-774579D02*
X3531968Y-755531D01*
X3531968Y-755531D02*
X3522444Y-726960D01*
X3522444Y-726960D02*
X3512920Y-679341D01*
X3512920Y-679341D02*
X3512920Y-641246D01*
X3512920Y-641246D02*
X3522444Y-593627D01*
X3522444Y-593627D02*
X3531968Y-565055D01*
X3531968Y-565055D02*
X3541491Y-546008D01*
X3541491Y-546008D02*
X3560539Y-517436D01*
X3560539Y-517436D02*
X3570063Y-507912D01*
X3751015Y-736484D02*
X3636729Y-736484D01*
X3693872Y-736484D02*
X3693872Y-536484D01*
X3693872Y-536484D02*
X3674825Y-565055D01*
X3674825Y-565055D02*
X3655777Y-584103D01*
X3655777Y-584103D02*
X3636729Y-593627D01*
X3941491Y-736484D02*
X3827206Y-736484D01*
X3884348Y-736484D02*
X3884348Y-536484D01*
X3884348Y-536484D02*
X3865301Y-565055D01*
X3865301Y-565055D02*
X3846253Y-584103D01*
X3846253Y-584103D02*
X3827206Y-593627D01*
X4017682Y-555531D02*
X4027206Y-546008D01*
X4027206Y-546008D02*
X4046253Y-536484D01*
X4046253Y-536484D02*
X4093872Y-536484D01*
X4093872Y-536484D02*
X4112920Y-546008D01*
X4112920Y-546008D02*
X4122444Y-555531D01*
X4122444Y-555531D02*
X4131968Y-574579D01*
X4131968Y-574579D02*
X4131968Y-593627D01*
X4131968Y-593627D02*
X4122444Y-622198D01*
X4122444Y-622198D02*
X4008158Y-736484D01*
X4008158Y-736484D02*
X4131968Y-736484D01*
X4370063Y-736484D02*
X4370063Y-536484D01*
X4455777Y-736484D02*
X4455777Y-631722D01*
X4455777Y-631722D02*
X4446253Y-612674D01*
X4446253Y-612674D02*
X4427206Y-603150D01*
X4427206Y-603150D02*
X4398634Y-603150D01*
X4398634Y-603150D02*
X4379587Y-612674D01*
X4379587Y-612674D02*
X4370063Y-622198D01*
X4579587Y-736484D02*
X4560539Y-726960D01*
X4560539Y-726960D02*
X4551015Y-717436D01*
X4551015Y-717436D02*
X4541492Y-698389D01*
X4541492Y-698389D02*
X4541492Y-641246D01*
X4541492Y-641246D02*
X4551015Y-622198D01*
X4551015Y-622198D02*
X4560539Y-612674D01*
X4560539Y-612674D02*
X4579587Y-603150D01*
X4579587Y-603150D02*
X4608158Y-603150D01*
X4608158Y-603150D02*
X4627206Y-612674D01*
X4627206Y-612674D02*
X4636730Y-622198D01*
X4636730Y-622198D02*
X4646253Y-641246D01*
X4646253Y-641246D02*
X4646253Y-698389D01*
X4646253Y-698389D02*
X4636730Y-717436D01*
X4636730Y-717436D02*
X4627206Y-726960D01*
X4627206Y-726960D02*
X4608158Y-736484D01*
X4608158Y-736484D02*
X4579587Y-736484D01*
X4760539Y-736484D02*
X4741492Y-726960D01*
X4741492Y-726960D02*
X4731968Y-707912D01*
X4731968Y-707912D02*
X4731968Y-536484D01*
X4912920Y-726960D02*
X4893873Y-736484D01*
X4893873Y-736484D02*
X4855777Y-736484D01*
X4855777Y-736484D02*
X4836730Y-726960D01*
X4836730Y-726960D02*
X4827206Y-707912D01*
X4827206Y-707912D02*
X4827206Y-631722D01*
X4827206Y-631722D02*
X4836730Y-612674D01*
X4836730Y-612674D02*
X4855777Y-603150D01*
X4855777Y-603150D02*
X4893873Y-603150D01*
X4893873Y-603150D02*
X4912920Y-612674D01*
X4912920Y-612674D02*
X4922444Y-631722D01*
X4922444Y-631722D02*
X4922444Y-650770D01*
X4922444Y-650770D02*
X4827206Y-669817D01*
X4998634Y-726960D02*
X5017682Y-736484D01*
X5017682Y-736484D02*
X5055777Y-736484D01*
X5055777Y-736484D02*
X5074825Y-726960D01*
X5074825Y-726960D02*
X5084349Y-707912D01*
X5084349Y-707912D02*
X5084349Y-698389D01*
X5084349Y-698389D02*
X5074825Y-679341D01*
X5074825Y-679341D02*
X5055777Y-669817D01*
X5055777Y-669817D02*
X5027206Y-669817D01*
X5027206Y-669817D02*
X5008158Y-660293D01*
X5008158Y-660293D02*
X4998634Y-641246D01*
X4998634Y-641246D02*
X4998634Y-631722D01*
X4998634Y-631722D02*
X5008158Y-612674D01*
X5008158Y-612674D02*
X5027206Y-603150D01*
X5027206Y-603150D02*
X5055777Y-603150D01*
X5055777Y-603150D02*
X5074825Y-612674D01*
X5151015Y-812674D02*
X5160539Y-803150D01*
X5160539Y-803150D02*
X5179587Y-774579D01*
X5179587Y-774579D02*
X5189111Y-755531D01*
X5189111Y-755531D02*
X5198634Y-726960D01*
X5198634Y-726960D02*
X5208158Y-679341D01*
X5208158Y-679341D02*
X5208158Y-641246D01*
X5208158Y-641246D02*
X5198634Y-593627D01*
X5198634Y-593627D02*
X5189111Y-565055D01*
X5189111Y-565055D02*
X5179587Y-546008D01*
X5179587Y-546008D02*
X5160539Y-517436D01*
X5160539Y-517436D02*
X5151015Y-507912D01*
D10*
X-5000Y-909000D02*
G75*
G02*
X-35000Y-909000I-15000J0D01*
G01*
X-35000Y-909000D02*
G75*
G02*
X-5000Y-909000I15000J0D01*
G01*
D11*
X293872Y-800484D02*
X312920Y-800484D01*
X312920Y-800484D02*
X331967Y-810008D01*
X331967Y-810008D02*
X341491Y-819531D01*
X341491Y-819531D02*
X351015Y-838579D01*
X351015Y-838579D02*
X360539Y-876674D01*
X360539Y-876674D02*
X360539Y-924293D01*
X360539Y-924293D02*
X351015Y-962388D01*
X351015Y-962388D02*
X341491Y-981436D01*
X341491Y-981436D02*
X331967Y-990960D01*
X331967Y-990960D02*
X312920Y-1000484D01*
X312920Y-1000484D02*
X293872Y-1000484D01*
X293872Y-1000484D02*
X274824Y-990960D01*
X274824Y-990960D02*
X265301Y-981436D01*
X265301Y-981436D02*
X255777Y-962388D01*
X255777Y-962388D02*
X246253Y-924293D01*
X246253Y-924293D02*
X246253Y-876674D01*
X246253Y-876674D02*
X255777Y-838579D01*
X255777Y-838579D02*
X265301Y-819531D01*
X265301Y-819531D02*
X274824Y-810008D01*
X274824Y-810008D02*
X293872Y-800484D01*
X446253Y-981436D02*
X455777Y-990960D01*
X455777Y-990960D02*
X446253Y-1000484D01*
X446253Y-1000484D02*
X436729Y-990960D01*
X436729Y-990960D02*
X446253Y-981436D01*
X446253Y-981436D02*
X446253Y-1000484D01*
X522443Y-800484D02*
X646253Y-800484D01*
X646253Y-800484D02*
X579586Y-876674D01*
X579586Y-876674D02*
X608158Y-876674D01*
X608158Y-876674D02*
X627205Y-886198D01*
X627205Y-886198D02*
X636729Y-895722D01*
X636729Y-895722D02*
X646253Y-914769D01*
X646253Y-914769D02*
X646253Y-962388D01*
X646253Y-962388D02*
X636729Y-981436D01*
X636729Y-981436D02*
X627205Y-990960D01*
X627205Y-990960D02*
X608158Y-1000484D01*
X608158Y-1000484D02*
X551015Y-1000484D01*
X551015Y-1000484D02*
X531967Y-990960D01*
X531967Y-990960D02*
X522443Y-981436D01*
X770062Y-800484D02*
X789110Y-800484D01*
X789110Y-800484D02*
X808158Y-810008D01*
X808158Y-810008D02*
X817682Y-819531D01*
X817682Y-819531D02*
X827205Y-838579D01*
X827205Y-838579D02*
X836729Y-876674D01*
X836729Y-876674D02*
X836729Y-924293D01*
X836729Y-924293D02*
X827205Y-962388D01*
X827205Y-962388D02*
X817682Y-981436D01*
X817682Y-981436D02*
X808158Y-990960D01*
X808158Y-990960D02*
X789110Y-1000484D01*
X789110Y-1000484D02*
X770062Y-1000484D01*
X770062Y-1000484D02*
X751015Y-990960D01*
X751015Y-990960D02*
X741491Y-981436D01*
X741491Y-981436D02*
X731967Y-962388D01*
X731967Y-962388D02*
X722443Y-924293D01*
X722443Y-924293D02*
X722443Y-876674D01*
X722443Y-876674D02*
X731967Y-838579D01*
X731967Y-838579D02*
X741491Y-819531D01*
X741491Y-819531D02*
X751015Y-810008D01*
X751015Y-810008D02*
X770062Y-800484D01*
X960539Y-800484D02*
X979586Y-800484D01*
X979586Y-800484D02*
X998634Y-810008D01*
X998634Y-810008D02*
X1008158Y-819531D01*
X1008158Y-819531D02*
X1017682Y-838579D01*
X1017682Y-838579D02*
X1027205Y-876674D01*
X1027205Y-876674D02*
X1027205Y-924293D01*
X1027205Y-924293D02*
X1017682Y-962388D01*
X1017682Y-962388D02*
X1008158Y-981436D01*
X1008158Y-981436D02*
X998634Y-990960D01*
X998634Y-990960D02*
X979586Y-1000484D01*
X979586Y-1000484D02*
X960539Y-1000484D01*
X960539Y-1000484D02*
X941491Y-990960D01*
X941491Y-990960D02*
X931967Y-981436D01*
X931967Y-981436D02*
X922443Y-962388D01*
X922443Y-962388D02*
X912920Y-924293D01*
X912920Y-924293D02*
X912920Y-876674D01*
X912920Y-876674D02*
X922443Y-838579D01*
X922443Y-838579D02*
X931967Y-819531D01*
X931967Y-819531D02*
X941491Y-810008D01*
X941491Y-810008D02*
X960539Y-800484D01*
X1112920Y-1000484D02*
X1112920Y-867150D01*
X1112920Y-886198D02*
X1122444Y-876674D01*
X1122444Y-876674D02*
X1141491Y-867150D01*
X1141491Y-867150D02*
X1170063Y-867150D01*
X1170063Y-867150D02*
X1189110Y-876674D01*
X1189110Y-876674D02*
X1198634Y-895722D01*
X1198634Y-895722D02*
X1198634Y-1000484D01*
X1198634Y-895722D02*
X1208158Y-876674D01*
X1208158Y-876674D02*
X1227205Y-867150D01*
X1227205Y-867150D02*
X1255777Y-867150D01*
X1255777Y-867150D02*
X1274825Y-876674D01*
X1274825Y-876674D02*
X1284348Y-895722D01*
X1284348Y-895722D02*
X1284348Y-1000484D01*
X1379586Y-1000484D02*
X1379586Y-867150D01*
X1379586Y-886198D02*
X1389110Y-876674D01*
X1389110Y-876674D02*
X1408158Y-867150D01*
X1408158Y-867150D02*
X1436729Y-867150D01*
X1436729Y-867150D02*
X1455777Y-876674D01*
X1455777Y-876674D02*
X1465301Y-895722D01*
X1465301Y-895722D02*
X1465301Y-1000484D01*
X1465301Y-895722D02*
X1474824Y-876674D01*
X1474824Y-876674D02*
X1493872Y-867150D01*
X1493872Y-867150D02*
X1522443Y-867150D01*
X1522443Y-867150D02*
X1541491Y-876674D01*
X1541491Y-876674D02*
X1551015Y-895722D01*
X1551015Y-895722D02*
X1551015Y-1000484D01*
X1941491Y-790960D02*
X1770063Y-1048103D01*
X2198634Y-800484D02*
X2217682Y-800484D01*
X2217682Y-800484D02*
X2236729Y-810008D01*
X2236729Y-810008D02*
X2246253Y-819531D01*
X2246253Y-819531D02*
X2255777Y-838579D01*
X2255777Y-838579D02*
X2265301Y-876674D01*
X2265301Y-876674D02*
X2265301Y-924293D01*
X2265301Y-924293D02*
X2255777Y-962388D01*
X2255777Y-962388D02*
X2246253Y-981436D01*
X2246253Y-981436D02*
X2236729Y-990960D01*
X2236729Y-990960D02*
X2217682Y-1000484D01*
X2217682Y-1000484D02*
X2198634Y-1000484D01*
X2198634Y-1000484D02*
X2179587Y-990960D01*
X2179587Y-990960D02*
X2170063Y-981436D01*
X2170063Y-981436D02*
X2160539Y-962388D01*
X2160539Y-962388D02*
X2151015Y-924293D01*
X2151015Y-924293D02*
X2151015Y-876674D01*
X2151015Y-876674D02*
X2160539Y-838579D01*
X2160539Y-838579D02*
X2170063Y-819531D01*
X2170063Y-819531D02*
X2179587Y-810008D01*
X2179587Y-810008D02*
X2198634Y-800484D01*
X2351015Y-981436D02*
X2360539Y-990960D01*
X2360539Y-990960D02*
X2351015Y-1000484D01*
X2351015Y-1000484D02*
X2341491Y-990960D01*
X2341491Y-990960D02*
X2351015Y-981436D01*
X2351015Y-981436D02*
X2351015Y-1000484D01*
X2484348Y-800484D02*
X2503396Y-800484D01*
X2503396Y-800484D02*
X2522444Y-810008D01*
X2522444Y-810008D02*
X2531968Y-819531D01*
X2531968Y-819531D02*
X2541491Y-838579D01*
X2541491Y-838579D02*
X2551015Y-876674D01*
X2551015Y-876674D02*
X2551015Y-924293D01*
X2551015Y-924293D02*
X2541491Y-962388D01*
X2541491Y-962388D02*
X2531968Y-981436D01*
X2531968Y-981436D02*
X2522444Y-990960D01*
X2522444Y-990960D02*
X2503396Y-1000484D01*
X2503396Y-1000484D02*
X2484348Y-1000484D01*
X2484348Y-1000484D02*
X2465301Y-990960D01*
X2465301Y-990960D02*
X2455777Y-981436D01*
X2455777Y-981436D02*
X2446253Y-962388D01*
X2446253Y-962388D02*
X2436729Y-924293D01*
X2436729Y-924293D02*
X2436729Y-876674D01*
X2436729Y-876674D02*
X2446253Y-838579D01*
X2446253Y-838579D02*
X2455777Y-819531D01*
X2455777Y-819531D02*
X2465301Y-810008D01*
X2465301Y-810008D02*
X2484348Y-800484D01*
X2741491Y-1000484D02*
X2627206Y-1000484D01*
X2684348Y-1000484D02*
X2684348Y-800484D01*
X2684348Y-800484D02*
X2665301Y-829055D01*
X2665301Y-829055D02*
X2646253Y-848103D01*
X2646253Y-848103D02*
X2627206Y-857627D01*
X2931967Y-1000484D02*
X2817682Y-1000484D01*
X2874825Y-1000484D02*
X2874825Y-800484D01*
X2874825Y-800484D02*
X2855777Y-829055D01*
X2855777Y-829055D02*
X2836729Y-848103D01*
X2836729Y-848103D02*
X2817682Y-857627D01*
X3046253Y-886198D02*
X3027206Y-876674D01*
X3027206Y-876674D02*
X3017682Y-867150D01*
X3017682Y-867150D02*
X3008158Y-848103D01*
X3008158Y-848103D02*
X3008158Y-838579D01*
X3008158Y-838579D02*
X3017682Y-819531D01*
X3017682Y-819531D02*
X3027206Y-810008D01*
X3027206Y-810008D02*
X3046253Y-800484D01*
X3046253Y-800484D02*
X3084348Y-800484D01*
X3084348Y-800484D02*
X3103396Y-810008D01*
X3103396Y-810008D02*
X3112920Y-819531D01*
X3112920Y-819531D02*
X3122444Y-838579D01*
X3122444Y-838579D02*
X3122444Y-848103D01*
X3122444Y-848103D02*
X3112920Y-867150D01*
X3112920Y-867150D02*
X3103396Y-876674D01*
X3103396Y-876674D02*
X3084348Y-886198D01*
X3084348Y-886198D02*
X3046253Y-886198D01*
X3046253Y-886198D02*
X3027206Y-895722D01*
X3027206Y-895722D02*
X3017682Y-905246D01*
X3017682Y-905246D02*
X3008158Y-924293D01*
X3008158Y-924293D02*
X3008158Y-962388D01*
X3008158Y-962388D02*
X3017682Y-981436D01*
X3017682Y-981436D02*
X3027206Y-990960D01*
X3027206Y-990960D02*
X3046253Y-1000484D01*
X3046253Y-1000484D02*
X3084348Y-1000484D01*
X3084348Y-1000484D02*
X3103396Y-990960D01*
X3103396Y-990960D02*
X3112920Y-981436D01*
X3112920Y-981436D02*
X3122444Y-962388D01*
X3122444Y-962388D02*
X3122444Y-924293D01*
X3122444Y-924293D02*
X3112920Y-905246D01*
X3112920Y-905246D02*
X3103396Y-895722D01*
X3103396Y-895722D02*
X3084348Y-886198D01*
X3198634Y-800484D02*
X3198634Y-838579D01*
X3274825Y-800484D02*
X3274825Y-838579D01*
X3570063Y-1076674D02*
X3560539Y-1067150D01*
X3560539Y-1067150D02*
X3541491Y-1038579D01*
X3541491Y-1038579D02*
X3531968Y-1019531D01*
X3531968Y-1019531D02*
X3522444Y-990960D01*
X3522444Y-990960D02*
X3512920Y-943341D01*
X3512920Y-943341D02*
X3512920Y-905246D01*
X3512920Y-905246D02*
X3522444Y-857627D01*
X3522444Y-857627D02*
X3531968Y-829055D01*
X3531968Y-829055D02*
X3541491Y-810008D01*
X3541491Y-810008D02*
X3560539Y-781436D01*
X3560539Y-781436D02*
X3570063Y-771912D01*
X3627206Y-800484D02*
X3751015Y-800484D01*
X3751015Y-800484D02*
X3684348Y-876674D01*
X3684348Y-876674D02*
X3712920Y-876674D01*
X3712920Y-876674D02*
X3731968Y-886198D01*
X3731968Y-886198D02*
X3741491Y-895722D01*
X3741491Y-895722D02*
X3751015Y-914769D01*
X3751015Y-914769D02*
X3751015Y-962388D01*
X3751015Y-962388D02*
X3741491Y-981436D01*
X3741491Y-981436D02*
X3731968Y-990960D01*
X3731968Y-990960D02*
X3712920Y-1000484D01*
X3712920Y-1000484D02*
X3655777Y-1000484D01*
X3655777Y-1000484D02*
X3636729Y-990960D01*
X3636729Y-990960D02*
X3627206Y-981436D01*
X3989110Y-1000484D02*
X3989110Y-800484D01*
X4074825Y-1000484D02*
X4074825Y-895722D01*
X4074825Y-895722D02*
X4065301Y-876674D01*
X4065301Y-876674D02*
X4046253Y-867150D01*
X4046253Y-867150D02*
X4017682Y-867150D01*
X4017682Y-867150D02*
X3998634Y-876674D01*
X3998634Y-876674D02*
X3989110Y-886198D01*
X4198634Y-1000484D02*
X4179587Y-990960D01*
X4179587Y-990960D02*
X4170063Y-981436D01*
X4170063Y-981436D02*
X4160539Y-962388D01*
X4160539Y-962388D02*
X4160539Y-905246D01*
X4160539Y-905246D02*
X4170063Y-886198D01*
X4170063Y-886198D02*
X4179587Y-876674D01*
X4179587Y-876674D02*
X4198634Y-867150D01*
X4198634Y-867150D02*
X4227206Y-867150D01*
X4227206Y-867150D02*
X4246253Y-876674D01*
X4246253Y-876674D02*
X4255777Y-886198D01*
X4255777Y-886198D02*
X4265301Y-905246D01*
X4265301Y-905246D02*
X4265301Y-962388D01*
X4265301Y-962388D02*
X4255777Y-981436D01*
X4255777Y-981436D02*
X4246253Y-990960D01*
X4246253Y-990960D02*
X4227206Y-1000484D01*
X4227206Y-1000484D02*
X4198634Y-1000484D01*
X4379587Y-1000484D02*
X4360539Y-990960D01*
X4360539Y-990960D02*
X4351015Y-971912D01*
X4351015Y-971912D02*
X4351015Y-800484D01*
X4531968Y-990960D02*
X4512920Y-1000484D01*
X4512920Y-1000484D02*
X4474825Y-1000484D01*
X4474825Y-1000484D02*
X4455777Y-990960D01*
X4455777Y-990960D02*
X4446253Y-971912D01*
X4446253Y-971912D02*
X4446253Y-895722D01*
X4446253Y-895722D02*
X4455777Y-876674D01*
X4455777Y-876674D02*
X4474825Y-867150D01*
X4474825Y-867150D02*
X4512920Y-867150D01*
X4512920Y-867150D02*
X4531968Y-876674D01*
X4531968Y-876674D02*
X4541492Y-895722D01*
X4541492Y-895722D02*
X4541492Y-914769D01*
X4541492Y-914769D02*
X4446253Y-933817D01*
X4617682Y-990960D02*
X4636730Y-1000484D01*
X4636730Y-1000484D02*
X4674825Y-1000484D01*
X4674825Y-1000484D02*
X4693873Y-990960D01*
X4693873Y-990960D02*
X4703396Y-971912D01*
X4703396Y-971912D02*
X4703396Y-962388D01*
X4703396Y-962388D02*
X4693873Y-943341D01*
X4693873Y-943341D02*
X4674825Y-933817D01*
X4674825Y-933817D02*
X4646253Y-933817D01*
X4646253Y-933817D02*
X4627206Y-924293D01*
X4627206Y-924293D02*
X4617682Y-905246D01*
X4617682Y-905246D02*
X4617682Y-895722D01*
X4617682Y-895722D02*
X4627206Y-876674D01*
X4627206Y-876674D02*
X4646253Y-867150D01*
X4646253Y-867150D02*
X4674825Y-867150D01*
X4674825Y-867150D02*
X4693873Y-876674D01*
X4770063Y-1076674D02*
X4779587Y-1067150D01*
X4779587Y-1067150D02*
X4798634Y-1038579D01*
X4798634Y-1038579D02*
X4808158Y-1019531D01*
X4808158Y-1019531D02*
X4817682Y-990960D01*
X4817682Y-990960D02*
X4827206Y-943341D01*
X4827206Y-943341D02*
X4827206Y-905246D01*
X4827206Y-905246D02*
X4817682Y-857627D01*
X4817682Y-857627D02*
X4808158Y-829055D01*
X4808158Y-829055D02*
X4798634Y-810008D01*
X4798634Y-810008D02*
X4779587Y-781436D01*
X4779587Y-781436D02*
X4770063Y-771912D01*
D10*
X-55000Y-1123000D02*
X-55000Y-1223000D01*
X-105000Y-1173000D02*
X-5000Y-1173000D01*
D11*
X360539Y-1264484D02*
X246253Y-1264484D01*
X303396Y-1264484D02*
X303396Y-1064484D01*
X303396Y-1064484D02*
X284348Y-1093055D01*
X284348Y-1093055D02*
X265301Y-1112103D01*
X265301Y-1112103D02*
X246253Y-1121627D01*
X446253Y-1245436D02*
X455777Y-1254960D01*
X455777Y-1254960D02*
X446253Y-1264484D01*
X446253Y-1264484D02*
X436729Y-1254960D01*
X436729Y-1254960D02*
X446253Y-1245436D01*
X446253Y-1245436D02*
X446253Y-1264484D01*
X579586Y-1064484D02*
X598634Y-1064484D01*
X598634Y-1064484D02*
X617682Y-1074008D01*
X617682Y-1074008D02*
X627205Y-1083531D01*
X627205Y-1083531D02*
X636729Y-1102579D01*
X636729Y-1102579D02*
X646253Y-1140674D01*
X646253Y-1140674D02*
X646253Y-1188293D01*
X646253Y-1188293D02*
X636729Y-1226389D01*
X636729Y-1226389D02*
X627205Y-1245436D01*
X627205Y-1245436D02*
X617682Y-1254960D01*
X617682Y-1254960D02*
X598634Y-1264484D01*
X598634Y-1264484D02*
X579586Y-1264484D01*
X579586Y-1264484D02*
X560539Y-1254960D01*
X560539Y-1254960D02*
X551015Y-1245436D01*
X551015Y-1245436D02*
X541491Y-1226389D01*
X541491Y-1226389D02*
X531967Y-1188293D01*
X531967Y-1188293D02*
X531967Y-1140674D01*
X531967Y-1140674D02*
X541491Y-1102579D01*
X541491Y-1102579D02*
X551015Y-1083531D01*
X551015Y-1083531D02*
X560539Y-1074008D01*
X560539Y-1074008D02*
X579586Y-1064484D01*
X770062Y-1064484D02*
X789110Y-1064484D01*
X789110Y-1064484D02*
X808158Y-1074008D01*
X808158Y-1074008D02*
X817682Y-1083531D01*
X817682Y-1083531D02*
X827205Y-1102579D01*
X827205Y-1102579D02*
X836729Y-1140674D01*
X836729Y-1140674D02*
X836729Y-1188293D01*
X836729Y-1188293D02*
X827205Y-1226389D01*
X827205Y-1226389D02*
X817682Y-1245436D01*
X817682Y-1245436D02*
X808158Y-1254960D01*
X808158Y-1254960D02*
X789110Y-1264484D01*
X789110Y-1264484D02*
X770062Y-1264484D01*
X770062Y-1264484D02*
X751015Y-1254960D01*
X751015Y-1254960D02*
X741491Y-1245436D01*
X741491Y-1245436D02*
X731967Y-1226389D01*
X731967Y-1226389D02*
X722443Y-1188293D01*
X722443Y-1188293D02*
X722443Y-1140674D01*
X722443Y-1140674D02*
X731967Y-1102579D01*
X731967Y-1102579D02*
X741491Y-1083531D01*
X741491Y-1083531D02*
X751015Y-1074008D01*
X751015Y-1074008D02*
X770062Y-1064484D01*
X960539Y-1064484D02*
X979586Y-1064484D01*
X979586Y-1064484D02*
X998634Y-1074008D01*
X998634Y-1074008D02*
X1008158Y-1083531D01*
X1008158Y-1083531D02*
X1017682Y-1102579D01*
X1017682Y-1102579D02*
X1027205Y-1140674D01*
X1027205Y-1140674D02*
X1027205Y-1188293D01*
X1027205Y-1188293D02*
X1017682Y-1226389D01*
X1017682Y-1226389D02*
X1008158Y-1245436D01*
X1008158Y-1245436D02*
X998634Y-1254960D01*
X998634Y-1254960D02*
X979586Y-1264484D01*
X979586Y-1264484D02*
X960539Y-1264484D01*
X960539Y-1264484D02*
X941491Y-1254960D01*
X941491Y-1254960D02*
X931967Y-1245436D01*
X931967Y-1245436D02*
X922443Y-1226389D01*
X922443Y-1226389D02*
X912920Y-1188293D01*
X912920Y-1188293D02*
X912920Y-1140674D01*
X912920Y-1140674D02*
X922443Y-1102579D01*
X922443Y-1102579D02*
X931967Y-1083531D01*
X931967Y-1083531D02*
X941491Y-1074008D01*
X941491Y-1074008D02*
X960539Y-1064484D01*
X1112920Y-1264484D02*
X1112920Y-1131150D01*
X1112920Y-1150198D02*
X1122444Y-1140674D01*
X1122444Y-1140674D02*
X1141491Y-1131150D01*
X1141491Y-1131150D02*
X1170063Y-1131150D01*
X1170063Y-1131150D02*
X1189110Y-1140674D01*
X1189110Y-1140674D02*
X1198634Y-1159722D01*
X1198634Y-1159722D02*
X1198634Y-1264484D01*
X1198634Y-1159722D02*
X1208158Y-1140674D01*
X1208158Y-1140674D02*
X1227205Y-1131150D01*
X1227205Y-1131150D02*
X1255777Y-1131150D01*
X1255777Y-1131150D02*
X1274825Y-1140674D01*
X1274825Y-1140674D02*
X1284348Y-1159722D01*
X1284348Y-1159722D02*
X1284348Y-1264484D01*
X1379586Y-1264484D02*
X1379586Y-1131150D01*
X1379586Y-1150198D02*
X1389110Y-1140674D01*
X1389110Y-1140674D02*
X1408158Y-1131150D01*
X1408158Y-1131150D02*
X1436729Y-1131150D01*
X1436729Y-1131150D02*
X1455777Y-1140674D01*
X1455777Y-1140674D02*
X1465301Y-1159722D01*
X1465301Y-1159722D02*
X1465301Y-1264484D01*
X1465301Y-1159722D02*
X1474824Y-1140674D01*
X1474824Y-1140674D02*
X1493872Y-1131150D01*
X1493872Y-1131150D02*
X1522443Y-1131150D01*
X1522443Y-1131150D02*
X1541491Y-1140674D01*
X1541491Y-1140674D02*
X1551015Y-1159722D01*
X1551015Y-1159722D02*
X1551015Y-1264484D01*
X1941491Y-1054960D02*
X1770063Y-1312103D01*
X2198634Y-1064484D02*
X2217682Y-1064484D01*
X2217682Y-1064484D02*
X2236729Y-1074008D01*
X2236729Y-1074008D02*
X2246253Y-1083531D01*
X2246253Y-1083531D02*
X2255777Y-1102579D01*
X2255777Y-1102579D02*
X2265301Y-1140674D01*
X2265301Y-1140674D02*
X2265301Y-1188293D01*
X2265301Y-1188293D02*
X2255777Y-1226389D01*
X2255777Y-1226389D02*
X2246253Y-1245436D01*
X2246253Y-1245436D02*
X2236729Y-1254960D01*
X2236729Y-1254960D02*
X2217682Y-1264484D01*
X2217682Y-1264484D02*
X2198634Y-1264484D01*
X2198634Y-1264484D02*
X2179587Y-1254960D01*
X2179587Y-1254960D02*
X2170063Y-1245436D01*
X2170063Y-1245436D02*
X2160539Y-1226389D01*
X2160539Y-1226389D02*
X2151015Y-1188293D01*
X2151015Y-1188293D02*
X2151015Y-1140674D01*
X2151015Y-1140674D02*
X2160539Y-1102579D01*
X2160539Y-1102579D02*
X2170063Y-1083531D01*
X2170063Y-1083531D02*
X2179587Y-1074008D01*
X2179587Y-1074008D02*
X2198634Y-1064484D01*
X2351015Y-1245436D02*
X2360539Y-1254960D01*
X2360539Y-1254960D02*
X2351015Y-1264484D01*
X2351015Y-1264484D02*
X2341491Y-1254960D01*
X2341491Y-1254960D02*
X2351015Y-1245436D01*
X2351015Y-1245436D02*
X2351015Y-1264484D01*
X2484348Y-1064484D02*
X2503396Y-1064484D01*
X2503396Y-1064484D02*
X2522444Y-1074008D01*
X2522444Y-1074008D02*
X2531968Y-1083531D01*
X2531968Y-1083531D02*
X2541491Y-1102579D01*
X2541491Y-1102579D02*
X2551015Y-1140674D01*
X2551015Y-1140674D02*
X2551015Y-1188293D01*
X2551015Y-1188293D02*
X2541491Y-1226389D01*
X2541491Y-1226389D02*
X2531968Y-1245436D01*
X2531968Y-1245436D02*
X2522444Y-1254960D01*
X2522444Y-1254960D02*
X2503396Y-1264484D01*
X2503396Y-1264484D02*
X2484348Y-1264484D01*
X2484348Y-1264484D02*
X2465301Y-1254960D01*
X2465301Y-1254960D02*
X2455777Y-1245436D01*
X2455777Y-1245436D02*
X2446253Y-1226389D01*
X2446253Y-1226389D02*
X2436729Y-1188293D01*
X2436729Y-1188293D02*
X2436729Y-1140674D01*
X2436729Y-1140674D02*
X2446253Y-1102579D01*
X2446253Y-1102579D02*
X2455777Y-1083531D01*
X2455777Y-1083531D02*
X2465301Y-1074008D01*
X2465301Y-1074008D02*
X2484348Y-1064484D01*
X2617682Y-1064484D02*
X2741491Y-1064484D01*
X2741491Y-1064484D02*
X2674825Y-1140674D01*
X2674825Y-1140674D02*
X2703396Y-1140674D01*
X2703396Y-1140674D02*
X2722444Y-1150198D01*
X2722444Y-1150198D02*
X2731968Y-1159722D01*
X2731968Y-1159722D02*
X2741491Y-1178770D01*
X2741491Y-1178770D02*
X2741491Y-1226389D01*
X2741491Y-1226389D02*
X2731968Y-1245436D01*
X2731968Y-1245436D02*
X2722444Y-1254960D01*
X2722444Y-1254960D02*
X2703396Y-1264484D01*
X2703396Y-1264484D02*
X2646253Y-1264484D01*
X2646253Y-1264484D02*
X2627206Y-1254960D01*
X2627206Y-1254960D02*
X2617682Y-1245436D01*
X2836729Y-1264484D02*
X2874825Y-1264484D01*
X2874825Y-1264484D02*
X2893872Y-1254960D01*
X2893872Y-1254960D02*
X2903396Y-1245436D01*
X2903396Y-1245436D02*
X2922444Y-1216865D01*
X2922444Y-1216865D02*
X2931967Y-1178770D01*
X2931967Y-1178770D02*
X2931967Y-1102579D01*
X2931967Y-1102579D02*
X2922444Y-1083531D01*
X2922444Y-1083531D02*
X2912920Y-1074008D01*
X2912920Y-1074008D02*
X2893872Y-1064484D01*
X2893872Y-1064484D02*
X2855777Y-1064484D01*
X2855777Y-1064484D02*
X2836729Y-1074008D01*
X2836729Y-1074008D02*
X2827206Y-1083531D01*
X2827206Y-1083531D02*
X2817682Y-1102579D01*
X2817682Y-1102579D02*
X2817682Y-1150198D01*
X2817682Y-1150198D02*
X2827206Y-1169246D01*
X2827206Y-1169246D02*
X2836729Y-1178770D01*
X2836729Y-1178770D02*
X2855777Y-1188293D01*
X2855777Y-1188293D02*
X2893872Y-1188293D01*
X2893872Y-1188293D02*
X2912920Y-1178770D01*
X2912920Y-1178770D02*
X2922444Y-1169246D01*
X2922444Y-1169246D02*
X2931967Y-1150198D01*
X3103396Y-1131150D02*
X3103396Y-1264484D01*
X3055777Y-1054960D02*
X3008158Y-1197817D01*
X3008158Y-1197817D02*
X3131967Y-1197817D01*
X3198634Y-1064484D02*
X3198634Y-1102579D01*
X3274825Y-1064484D02*
X3274825Y-1102579D01*
X3570063Y-1340674D02*
X3560539Y-1331150D01*
X3560539Y-1331150D02*
X3541491Y-1302579D01*
X3541491Y-1302579D02*
X3531968Y-1283531D01*
X3531968Y-1283531D02*
X3522444Y-1254960D01*
X3522444Y-1254960D02*
X3512920Y-1207341D01*
X3512920Y-1207341D02*
X3512920Y-1169246D01*
X3512920Y-1169246D02*
X3522444Y-1121627D01*
X3522444Y-1121627D02*
X3531968Y-1093055D01*
X3531968Y-1093055D02*
X3541491Y-1074008D01*
X3541491Y-1074008D02*
X3560539Y-1045436D01*
X3560539Y-1045436D02*
X3570063Y-1035912D01*
X3731968Y-1131150D02*
X3731968Y-1264484D01*
X3684348Y-1054960D02*
X3636729Y-1197817D01*
X3636729Y-1197817D02*
X3760539Y-1197817D01*
X3941491Y-1264484D02*
X3827206Y-1264484D01*
X3884348Y-1264484D02*
X3884348Y-1064484D01*
X3884348Y-1064484D02*
X3865301Y-1093055D01*
X3865301Y-1093055D02*
X3846253Y-1112103D01*
X3846253Y-1112103D02*
X3827206Y-1121627D01*
X4179587Y-1264484D02*
X4179587Y-1064484D01*
X4265301Y-1264484D02*
X4265301Y-1159722D01*
X4265301Y-1159722D02*
X4255777Y-1140674D01*
X4255777Y-1140674D02*
X4236730Y-1131150D01*
X4236730Y-1131150D02*
X4208158Y-1131150D01*
X4208158Y-1131150D02*
X4189110Y-1140674D01*
X4189110Y-1140674D02*
X4179587Y-1150198D01*
X4389111Y-1264484D02*
X4370063Y-1254960D01*
X4370063Y-1254960D02*
X4360539Y-1245436D01*
X4360539Y-1245436D02*
X4351015Y-1226389D01*
X4351015Y-1226389D02*
X4351015Y-1169246D01*
X4351015Y-1169246D02*
X4360539Y-1150198D01*
X4360539Y-1150198D02*
X4370063Y-1140674D01*
X4370063Y-1140674D02*
X4389111Y-1131150D01*
X4389111Y-1131150D02*
X4417682Y-1131150D01*
X4417682Y-1131150D02*
X4436730Y-1140674D01*
X4436730Y-1140674D02*
X4446253Y-1150198D01*
X4446253Y-1150198D02*
X4455777Y-1169246D01*
X4455777Y-1169246D02*
X4455777Y-1226389D01*
X4455777Y-1226389D02*
X4446253Y-1245436D01*
X4446253Y-1245436D02*
X4436730Y-1254960D01*
X4436730Y-1254960D02*
X4417682Y-1264484D01*
X4417682Y-1264484D02*
X4389111Y-1264484D01*
X4570063Y-1264484D02*
X4551015Y-1254960D01*
X4551015Y-1254960D02*
X4541492Y-1235912D01*
X4541492Y-1235912D02*
X4541492Y-1064484D01*
X4722444Y-1254960D02*
X4703396Y-1264484D01*
X4703396Y-1264484D02*
X4665301Y-1264484D01*
X4665301Y-1264484D02*
X4646253Y-1254960D01*
X4646253Y-1254960D02*
X4636730Y-1235912D01*
X4636730Y-1235912D02*
X4636730Y-1159722D01*
X4636730Y-1159722D02*
X4646253Y-1140674D01*
X4646253Y-1140674D02*
X4665301Y-1131150D01*
X4665301Y-1131150D02*
X4703396Y-1131150D01*
X4703396Y-1131150D02*
X4722444Y-1140674D01*
X4722444Y-1140674D02*
X4731968Y-1159722D01*
X4731968Y-1159722D02*
X4731968Y-1178770D01*
X4731968Y-1178770D02*
X4636730Y-1197817D01*
X4808158Y-1254960D02*
X4827206Y-1264484D01*
X4827206Y-1264484D02*
X4865301Y-1264484D01*
X4865301Y-1264484D02*
X4884349Y-1254960D01*
X4884349Y-1254960D02*
X4893873Y-1235912D01*
X4893873Y-1235912D02*
X4893873Y-1226389D01*
X4893873Y-1226389D02*
X4884349Y-1207341D01*
X4884349Y-1207341D02*
X4865301Y-1197817D01*
X4865301Y-1197817D02*
X4836730Y-1197817D01*
X4836730Y-1197817D02*
X4817682Y-1188293D01*
X4817682Y-1188293D02*
X4808158Y-1169246D01*
X4808158Y-1169246D02*
X4808158Y-1159722D01*
X4808158Y-1159722D02*
X4817682Y-1140674D01*
X4817682Y-1140674D02*
X4836730Y-1131150D01*
X4836730Y-1131150D02*
X4865301Y-1131150D01*
X4865301Y-1131150D02*
X4884349Y-1140674D01*
X4960539Y-1340674D02*
X4970063Y-1331150D01*
X4970063Y-1331150D02*
X4989111Y-1302579D01*
X4989111Y-1302579D02*
X4998634Y-1283531D01*
X4998634Y-1283531D02*
X5008158Y-1254960D01*
X5008158Y-1254960D02*
X5017682Y-1207341D01*
X5017682Y-1207341D02*
X5017682Y-1169246D01*
X5017682Y-1169246D02*
X5008158Y-1121627D01*
X5008158Y-1121627D02*
X4998634Y-1093055D01*
X4998634Y-1093055D02*
X4989111Y-1074008D01*
X4989111Y-1074008D02*
X4970063Y-1045436D01*
X4970063Y-1045436D02*
X4960539Y-1035912D01*
M02*
