M48
; DRILL file {KiCad 8.0.3-8.0.3-0~ubuntu22.04.1} date 2025-01-19T16:51:53+0100
; FORMAT={-:-/ absolute / inch / decimal}
; #@! TF.CreationDate,2025-01-19T16:51:53+01:00
; #@! TF.GenerationSoftware,Kicad,Pcbnew,8.0.3-8.0.3-0~ubuntu22.04.1
; #@! TF.FileFunction,Plated,1,2,PTH
FMAT,2
INCH
; #@! TA.AperFunction,Plated,PTH,ViaDrill
T1C0.0118
; #@! TA.AperFunction,Plated,PTH,ComponentDrill
T2C0.0118
; #@! TA.AperFunction,Plated,PTH,ComponentDrill
T3C0.0394
%
G90
G05
T1
X0.0295Y0.8858
X0.0295Y0.2854
X0.0787Y0.8858
X0.0787Y0.2854
X0.128Y0.8858
X0.128Y0.2854
X0.187Y0.8858
X0.187Y0.2854
X0.2461Y0.8858
X0.2461Y0.8268
X0.2461Y0.7776
X0.2461Y0.7283
X0.2461Y0.6791
X0.2461Y0.2854
X0.2854Y0.187
X0.2972Y0.3051
X0.3346Y0.187
X0.4085Y0.6841
X0.4409Y0.2047
X0.498Y0.3543
X0.498Y0.1929
X0.5217Y0.2264
X0.5295Y0.1831
X0.5394Y0.4252
X0.5709Y0.3583
X0.6102Y0.6398
X0.622Y0.189
X0.6299Y0.8228
X0.6398Y0.3839
X0.6772Y0.7795
X0.6791Y0.5512
X0.6791Y0.4035
X0.6949Y0.3091
X0.7008Y0.2303
X0.7087Y0.876
X0.7303Y0.7185
X0.7559Y0.6949
X0.8169Y0.4331
X0.8295Y0.9154
X0.8484Y0.6732
X0.8484Y0.5276
X0.8514Y0.7667
X0.8563Y0.3839
X0.8622Y0.2402
X0.9843Y0.9547
X1.0236Y0.3937
X1.0335Y0.2264
X1.0335Y0.1831
X1.0433Y0.7283
X1.0492Y0.6102
X1.1122Y0.7559
X1.1319Y0.4035
X1.1415Y0.1768
X1.1614Y0.6102
X1.1732Y0.4902
X1.1732Y0.439
X1.185Y0.2835
X1.2205Y0.7657
X1.2205Y0.439
X1.2675Y0.163
X1.2736Y0.498
X1.2894Y0.6693
X1.2894Y0.6004
X1.3189Y0.4823
X1.3189Y0.3839
X1.3189Y0.3346
X1.3287Y0.7283
X1.3295Y0.8224
X1.3583Y0.4429
X1.3602Y0.5591
X1.3681Y0.3346
X1.3778Y0.1768
X1.3976Y0.4035
X1.4173Y0.502
X1.4469Y0.3543
X1.4665Y0.4528
X1.4762Y0.1768
X1.4961Y0.3248
X1.5256Y0.4626
X1.5256Y0.4035
X1.5256Y0.0394
X1.5354Y0.3022
X1.5748Y0.6102
X1.5846Y0.5512
X1.5846Y0.4626
X1.6022Y0.7024
X1.6829Y0.1768
X1.7224Y0.4626
X1.7323Y0.6181
X1.7677Y0.435
X1.7697Y0.5059
X1.7813Y0.1768
X1.7933Y0.7067
X1.7972Y0.5472
X1.811Y0.2953
X1.8307Y0.935
X1.8346Y0.435
X1.8748Y0.1669
X1.8799Y0.2953
X1.9587Y0.689
X2.0087Y0.1974
X2.0118Y0.8878
X2.0118Y0.689
X2.0492Y0.8878
X2.1553Y0.1965
X2.1673Y0.6339
X2.2734Y0.1965
X2.2972Y0.0236
X2.2992Y0.6476
X2.3248Y0.2126
X2.3327Y0.8957
X2.3445Y1.1594
T2
X1.0433Y0.3248
X1.0827Y0.3248
X1.122Y0.3248
T3
X0.1299Y0.5906
X0.3307Y1.1024
X0.3307Y1.0024
X0.4307Y1.1024
X0.4307Y1.0024
X0.5307Y1.1024
X0.5307Y1.0024
X0.6307Y1.1024
X0.6307Y1.0024
X0.7307Y1.1024
X0.7307Y1.0024
X0.8307Y1.1024
X0.8307Y1.0024
X0.9307Y1.1024
X0.9307Y1.0024
X1.0307Y1.1024
X1.0307Y1.0024
X1.1307Y1.1024
X1.1307Y1.0024
X1.2307Y1.1024
X1.2307Y1.0024
X1.3307Y1.1024
X1.3307Y1.0024
X1.4307Y1.1024
X1.4307Y1.0024
X1.5307Y1.1024
X1.5307Y1.0024
X1.6307Y1.1024
X1.6307Y1.0024
X1.7307Y1.1024
X1.7307Y1.0024
X1.8307Y1.1024
X1.8307Y1.0024
X1.9307Y1.1024
X1.9307Y1.0024
X2.0307Y1.1024
X2.0307Y1.0024
X2.1307Y1.1024
X2.1307Y1.0024
X2.2307Y1.1024
X2.2307Y1.0024
M30
