%TF.GenerationSoftware,KiCad,Pcbnew,8.0.2*%
%TF.CreationDate,2024-05-17T00:49:12+07:00*%
%TF.ProjectId,ADC_pHAT,4144435f-7048-4415-942e-6b696361645f,rev?*%
%TF.SameCoordinates,PX5cbead0PY56c8cc0*%
%TF.FileFunction,Copper,L1,Top*%
%TF.FilePolarity,Positive*%
%FSLAX46Y46*%
G04 Gerber Fmt 4.6, Leading zero omitted, Abs format (unit mm)*
G04 Created by KiCad (PCBNEW 8.0.2) date 2024-05-17 00:49:12*
%MOMM*%
%LPD*%
G01*
G04 APERTURE LIST*
G04 Aperture macros list*
%AMRoundRect*
0 Rectangle with rounded corners*
0 $1 Rounding radius*
0 $2 $3 $4 $5 $6 $7 $8 $9 X,Y pos of 4 corners*
0 Add a 4 corners polygon primitive as box body*
4,1,4,$2,$3,$4,$5,$6,$7,$8,$9,$2,$3,0*
0 Add four circle primitives for the rounded corners*
1,1,$1+$1,$2,$3*
1,1,$1+$1,$4,$5*
1,1,$1+$1,$6,$7*
1,1,$1+$1,$8,$9*
0 Add four rect primitives between the rounded corners*
20,1,$1+$1,$2,$3,$4,$5,0*
20,1,$1+$1,$4,$5,$6,$7,0*
20,1,$1+$1,$6,$7,$8,$9,0*
20,1,$1+$1,$8,$9,$2,$3,0*%
G04 Aperture macros list end*
%TA.AperFunction,ComponentPad*%
%ADD10R,1.700000X1.700000*%
%TD*%
%TA.AperFunction,ComponentPad*%
%ADD11O,1.700000X1.700000*%
%TD*%
%TA.AperFunction,SMDPad,CuDef*%
%ADD12RoundRect,0.425000X-0.425000X1.325000X-0.425000X-1.325000X0.425000X-1.325000X0.425000X1.325000X0*%
%TD*%
%TA.AperFunction,SMDPad,CuDef*%
%ADD13RoundRect,0.425000X-1.325000X-0.425000X1.325000X-0.425000X1.325000X0.425000X-1.325000X0.425000X0*%
%TD*%
%TA.AperFunction,SMDPad,CuDef*%
%ADD14C,1.700000*%
%TD*%
%TA.AperFunction,SMDPad,CuDef*%
%ADD15R,4.900000X4.800000*%
%TD*%
%TA.AperFunction,ViaPad*%
%ADD16C,0.600000*%
%TD*%
%TA.AperFunction,ViaPad*%
%ADD17C,1.700000*%
%TD*%
%TA.AperFunction,Conductor*%
%ADD18C,1.000000*%
%TD*%
%TA.AperFunction,Conductor*%
%ADD19C,0.250000*%
%TD*%
%TA.AperFunction,Conductor*%
%ADD20C,0.500000*%
%TD*%
%TA.AperFunction,Conductor*%
%ADD21C,0.200000*%
%TD*%
G04 APERTURE END LIST*
D10*
%TO.P,J2,1,Pin_1*%
%TO.N,+3.3V*%
X8375000Y25050000D03*
D11*
%TO.P,J2,2,Pin_2*%
%TO.N,+5V*%
X8375000Y27590000D03*
%TO.P,J2,3,Pin_3*%
%TO.N,SDA*%
X10915000Y25050000D03*
%TO.P,J2,4,Pin_4*%
%TO.N,+5V*%
X10915000Y27590000D03*
%TO.P,J2,5,Pin_5*%
%TO.N,SCL*%
X13455000Y25050000D03*
%TO.P,J2,6,Pin_6*%
%TO.N,GNDA*%
X13455000Y27590000D03*
%TO.P,J2,7,Pin_7*%
%TO.N,GPIO9*%
X15995000Y25050000D03*
%TO.P,J2,8,Pin_8*%
%TO.N,TX*%
X15995000Y27590000D03*
%TO.P,J2,9,Pin_9*%
%TO.N,GNDA*%
X18535000Y25050000D03*
%TO.P,J2,10,Pin_10*%
%TO.N,RX*%
X18535000Y27590000D03*
%TO.P,J2,11,Pin_11*%
%TO.N,GPIO14*%
X21075000Y25050000D03*
%TO.P,J2,12,Pin_12*%
%TO.N,GPIO26_ADC0*%
X21075000Y27590000D03*
%TO.P,J2,13,Pin_13*%
%TO.N,GPIO15*%
X23615000Y25050000D03*
%TO.P,J2,14,Pin_14*%
%TO.N,GNDA*%
X23615000Y27590000D03*
%TO.P,J2,15,Pin_15*%
%TO.N,GPIO20*%
X26155000Y25050000D03*
%TO.P,J2,16,Pin_16*%
%TO.N,GPIO27_ADC1*%
X26155000Y27590000D03*
%TO.P,J2,17,Pin_17*%
%TO.N,GPIO21*%
X28695000Y25050000D03*
%TO.P,J2,18,Pin_18*%
%TO.N,GPIO28_ADC2*%
X28695000Y27590000D03*
%TO.P,J2,19,Pin_19*%
%TO.N,SPI_MO*%
X31235000Y25050000D03*
%TO.P,J2,20,Pin_20*%
%TO.N,unconnected-(J2-Pin_20-Pad20)*%
X31235000Y27590000D03*
%TO.P,J2,21,Pin_21*%
%TO.N,SPI_MI*%
X33775000Y25050000D03*
%TO.P,J2,22,Pin_22*%
%TO.N,GPIO22*%
X33775000Y27590000D03*
%TO.P,J2,23,Pin_23*%
%TO.N,SPI_CLK*%
X36315000Y25050000D03*
%TO.P,J2,24,Pin_24*%
%TO.N,SPI_CS*%
X36315000Y27590000D03*
%TO.P,J2,25,Pin_25*%
%TO.N,unconnected-(J2-Pin_25-Pad25)*%
X38855000Y25050000D03*
%TO.P,J2,26,Pin_26*%
%TO.N,unconnected-(J2-Pin_26-Pad26)*%
X38855000Y27590000D03*
%TO.P,J2,27,Pin_27*%
%TO.N,ADC_VREF*%
X41395000Y25050000D03*
%TO.P,J2,28,Pin_28*%
%TO.N,unconnected-(J2-Pin_28-Pad28)*%
X41395000Y27590000D03*
%TO.P,J2,29,Pin_29*%
%TO.N,unconnected-(J2-Pin_29-Pad29)*%
X43935000Y25050000D03*
%TO.P,J2,30,Pin_30*%
%TO.N,GNDA*%
X43935000Y27590000D03*
%TO.P,J2,31,Pin_31*%
%TO.N,unconnected-(J2-Pin_31-Pad31)*%
X46475000Y25050000D03*
%TO.P,J2,32,Pin_32*%
%TO.N,GPIO24*%
X46475000Y27590000D03*
%TO.P,J2,33,Pin_33*%
%TO.N,unconnected-(J2-Pin_33-Pad33)*%
X49015000Y25050000D03*
%TO.P,J2,34,Pin_34*%
%TO.N,GNDA*%
X49015000Y27590000D03*
%TO.P,J2,35,Pin_35*%
%TO.N,unconnected-(J2-Pin_35-Pad35)*%
X51555000Y25050000D03*
%TO.P,J2,36,Pin_36*%
%TO.N,GPIO25*%
X51555000Y27590000D03*
%TO.P,J2,37,Pin_37*%
%TO.N,unconnected-(J2-Pin_37-Pad37)*%
X54095000Y25050000D03*
%TO.P,J2,38,Pin_38*%
%TO.N,unconnected-(J2-Pin_38-Pad38)*%
X54095000Y27590000D03*
%TO.P,J2,39,Pin_39*%
%TO.N,GNDA*%
X56635000Y25050000D03*
%TO.P,J2,40,Pin_40*%
%TO.N,unconnected-(J2-Pin_40-Pad40)*%
X56635000Y27590000D03*
%TD*%
D12*
%TO.P,U1,1,GPIO0*%
%TO.N,GPIO0*%
X56630000Y21540000D03*
%TO.P,U1,2,GPIO1*%
%TO.N,GPIO1*%
X54090000Y21540000D03*
%TO.P,U1,3,GND*%
%TO.N,GNDA*%
X51550000Y21540000D03*
%TO.P,U1,4,GPIO2*%
%TO.N,GPIO2*%
X49010000Y21540000D03*
%TO.P,U1,5,GPIO3*%
%TO.N,GPIO3*%
X46470000Y21540000D03*
%TO.P,U1,6,GPIO4*%
%TO.N,GPIO4*%
X43930000Y21540000D03*
%TO.P,U1,7,GPIO5*%
%TO.N,GPIO5*%
X41390000Y21540000D03*
%TO.P,U1,8,GND*%
%TO.N,GNDA*%
X38850000Y21540000D03*
%TO.P,U1,9,GPIO6*%
%TO.N,GPIO6*%
X36310000Y21540000D03*
%TO.P,U1,10,GPIO7*%
%TO.N,GPIO7*%
X33770000Y21540000D03*
%TO.P,U1,11,GPIO8*%
%TO.N,ADC_CLK*%
X31230000Y21540000D03*
%TO.P,U1,12,GPIO9*%
%TO.N,GPIO9*%
X28690000Y21540000D03*
%TO.P,U1,13,GND*%
%TO.N,GNDA*%
X26150000Y21540000D03*
%TO.P,U1,14,GPIO10*%
%TO.N,SPI_CLK*%
X23610000Y21540000D03*
%TO.P,U1,15,GPIO11*%
%TO.N,SPI_MO*%
X21070000Y21540000D03*
%TO.P,U1,16,GPIO12*%
%TO.N,SPI_MI*%
X18530000Y21540000D03*
%TO.P,U1,17,GPIO13*%
%TO.N,SPI_CS*%
X15990000Y21540000D03*
%TO.P,U1,18,GND*%
%TO.N,GNDA*%
X13450000Y21540000D03*
%TO.P,U1,19,GPIO14*%
%TO.N,GPIO14*%
X10910000Y21540000D03*
%TO.P,U1,20,GPIO15*%
%TO.N,GPIO15*%
X8370000Y21540000D03*
%TO.P,U1,21,GPIO16*%
%TO.N,TX*%
X8370000Y1960000D03*
%TO.P,U1,22,GPIO17*%
%TO.N,RX*%
X10910000Y1960000D03*
%TO.P,U1,23,GND*%
%TO.N,GNDA*%
X13450000Y1960000D03*
%TO.P,U1,24,GPIO18*%
%TO.N,SDA*%
X15990000Y1960000D03*
%TO.P,U1,25,GPIO19*%
%TO.N,SCL*%
X18530000Y1960000D03*
%TO.P,U1,26,GPIO20*%
%TO.N,GPIO20*%
X21070000Y1960000D03*
%TO.P,U1,27,GPIO21*%
%TO.N,GPIO21*%
X23610000Y1960000D03*
%TO.P,U1,28,GND*%
%TO.N,GNDA*%
X26150000Y1960000D03*
%TO.P,U1,29,GPIO22*%
%TO.N,GPIO22*%
X28690000Y1960000D03*
%TO.P,U1,30,RUN*%
%TO.N,unconnected-(U1-RUN-Pad30)*%
X31230000Y1960000D03*
%TO.P,U1,31,GPIO26_ADC0*%
%TO.N,GPIO26_ADC0*%
X33770000Y1960000D03*
%TO.P,U1,32,GPIO27_ADC1*%
%TO.N,GPIO27_ADC1*%
X36310000Y1960000D03*
%TO.P,U1,33,AGND*%
%TO.N,GNDA*%
X38850000Y1960000D03*
%TO.P,U1,34,GPIO28_ADC2*%
%TO.N,GPIO28_ADC2*%
X41390000Y1960000D03*
%TO.P,U1,35,ADC_VREF*%
%TO.N,ADC_VREF*%
X43930000Y1960000D03*
%TO.P,U1,36,3V3*%
%TO.N,+3.3V*%
X46470000Y1960000D03*
%TO.P,U1,37,3V3_EN*%
%TO.N,unconnected-(U1-3V3_EN-Pad37)*%
X49010000Y1960000D03*
%TO.P,U1,38,GND*%
%TO.N,GNDA*%
X51550000Y1960000D03*
%TO.P,U1,39,VSYS*%
%TO.N,unconnected-(U1-VSYS-Pad39)*%
X54090000Y1960000D03*
%TO.P,U1,40,VBUS*%
%TO.N,+5V*%
X56630000Y1960000D03*
D13*
%TO.P,U1,41,SWCLK*%
%TO.N,GPIO25*%
X7700000Y14290000D03*
%TO.P,U1,42,GND*%
%TO.N,GNDA*%
X7700000Y11750000D03*
%TO.P,U1,43,SWDIO*%
%TO.N,GPIO24*%
X7700000Y9210000D03*
%TD*%
D14*
%TO.P, ,1*%
%TO.N,N/C*%
X2250000Y14750000D03*
%TD*%
D15*
%TO.P,J1,2,Ext*%
%TO.N,GNDA*%
X2825000Y19000000D03*
X2825000Y10500000D03*
%TD*%
D16*
%TO.N,GNDA*%
X46000000Y9000000D03*
X39000000Y20750000D03*
X53250000Y6750000D03*
X13500000Y750000D03*
X10650000Y16450000D03*
X4000000Y13750000D03*
X17250000Y10500000D03*
X59500000Y29000000D03*
X27000000Y14250000D03*
X13450000Y22900000D03*
X26000000Y4500000D03*
X21525000Y7525000D03*
X58250000Y24500000D03*
X41200000Y18950000D03*
X43000000Y8000000D03*
X40500000Y12700000D03*
X62750000Y20250000D03*
X13500000Y6750000D03*
X31750000Y18750000D03*
X40500000Y11750000D03*
X32200000Y7750000D03*
X51500000Y3250000D03*
X13000000Y7500000D03*
X31250000Y7750000D03*
X40212500Y5000000D03*
X7800000Y18850000D03*
X26650000Y18900000D03*
X42750000Y15000000D03*
X35750000Y7750000D03*
X9050000Y16450000D03*
X40500000Y10500000D03*
X45500000Y4750000D03*
X4000000Y15750000D03*
X16000000Y10500000D03*
X32200000Y9250000D03*
X62750000Y22000000D03*
X5000000Y15750000D03*
X42750000Y16000000D03*
X42750000Y10400000D03*
X30250000Y17500000D03*
X34750000Y7750000D03*
X31000000Y15500000D03*
X43000000Y4750000D03*
X42750000Y14000000D03*
X64250000Y24500000D03*
X12000000Y16450000D03*
X45000000Y8000000D03*
X51500000Y2000000D03*
X50000000Y8250000D03*
X58000000Y26250000D03*
X39000000Y7750000D03*
X40250000Y7750000D03*
X47250000Y8000000D03*
X26000000Y14250000D03*
X39000000Y21750000D03*
X5000000Y13750000D03*
X21500000Y8625000D03*
X58500000Y20750000D03*
X17500000Y7250000D03*
X26000000Y3000000D03*
%TO.N,SDA*%
X19500000Y4500000D03*
X23500000Y7000000D03*
%TO.N,+3.3V*%
X50000000Y5250000D03*
X14750000Y7500000D03*
X12750000Y15000000D03*
X60250000Y21750000D03*
%TO.N,SCL*%
X19250000Y7000000D03*
X21000000Y4500000D03*
%TO.N,GPIO14*%
X10900000Y19200000D03*
%TO.N,GPIO25*%
X11750000Y7500000D03*
%TO.N,GPIO15*%
X9750000Y19250000D03*
%TO.N,GPIO24*%
X11750000Y6500000D03*
%TO.N,SPI_MI*%
X18500000Y19600000D03*
%TO.N,GPIO20*%
X21000000Y17250000D03*
%TO.N,SPI_MO*%
X22700000Y18550000D03*
%TO.N,GPIO9*%
X30000000Y16250000D03*
%TO.N,GPIO21*%
X22950000Y17700000D03*
%TO.N,SPI_CLK*%
X30000000Y19500000D03*
X24075000Y19325000D03*
%TO.N,SPI_CS*%
X32550000Y26350000D03*
X15990000Y19250000D03*
%TO.N,GPIO22*%
X24400000Y17250000D03*
%TO.N,ADC_CLK*%
X33750000Y18500000D03*
%TO.N,GPIO2*%
X51750000Y17400000D03*
%TO.N,GPIO7*%
X35000000Y19250000D03*
%TO.N,GPIO5*%
X42675000Y24325000D03*
%TO.N,GPIO3*%
X49750000Y17250000D03*
%TO.N,GPIO1*%
X55000000Y19250000D03*
%TO.N,GPIO6*%
X37500000Y23750000D03*
%TO.N,GPIO0*%
X56000000Y19250000D03*
%TO.N,GPIO4*%
X47000000Y17425000D03*
D17*
%TO.N,Net-(J1-In)*%
X2250000Y14750000D03*
D16*
%TO.N,/VA*%
X41750000Y7750000D03*
X37000000Y17250000D03*
X35500000Y9250000D03*
%TD*%
D18*
%TO.N,GNDA*%
X4750000Y10675000D02*
X4750000Y14150000D01*
D19*
X49015000Y27485000D02*
X49015000Y27590000D01*
D20*
X50250000Y26250000D02*
X49015000Y27485000D01*
X38850000Y2860000D02*
X38850000Y1588298D01*
D19*
X50300000Y26200000D02*
X50300000Y24450000D01*
D20*
X56635000Y25050000D02*
X56700000Y25050000D01*
D18*
X900000Y6462500D02*
X900000Y9937500D01*
D19*
X50300000Y24450000D02*
X51550000Y23200000D01*
D18*
X4750000Y14162500D02*
X4750000Y17637500D01*
D19*
X52850000Y25650000D02*
X52850000Y24100000D01*
X50250000Y26250000D02*
X50300000Y26300000D01*
X50300000Y26300000D02*
X52200000Y26300000D01*
D20*
X4075000Y11750000D02*
X2825000Y10500000D01*
X26650000Y18900000D02*
X26150000Y19400000D01*
D19*
X52200000Y26300000D02*
X52850000Y25650000D01*
D20*
X56700000Y25050000D02*
X58250000Y23500000D01*
D18*
X3200000Y6762500D02*
X3200000Y10237500D01*
D19*
X52850000Y24100000D02*
X51550000Y22800000D01*
D18*
X900000Y19212500D02*
X900000Y22687500D01*
D19*
X50250000Y26250000D02*
X50300000Y26200000D01*
D18*
X8600000Y11750000D02*
X4075000Y11750000D01*
D19*
X51550000Y22800000D02*
X51550000Y20640000D01*
D18*
X3050000Y19312500D02*
X3050000Y22787500D01*
D20*
X26150000Y19400000D02*
X26150000Y20640000D01*
D18*
X6587500Y19050000D02*
X3112500Y19050000D01*
D19*
X51550000Y23200000D02*
X51550000Y20640000D01*
%TO.N,SDA*%
X19500000Y4500000D02*
X16350000Y4500000D01*
X14050000Y26300000D02*
X12165000Y26300000D01*
X14750000Y25600000D02*
X14050000Y26300000D01*
D21*
X14750000Y18750000D02*
X14750000Y25600000D01*
D19*
X23500000Y10000000D02*
X14750000Y18750000D01*
X23500000Y7000000D02*
X23500000Y10000000D01*
X15990000Y4140000D02*
X15990000Y2860000D01*
X16350000Y4500000D02*
X15990000Y4140000D01*
X12165000Y26300000D02*
X10915000Y25050000D01*
D20*
%TO.N,+3.3V*%
X14750000Y7500000D02*
X14750000Y13000000D01*
X55500000Y16250000D02*
X53000000Y16250000D01*
X51750000Y7000000D02*
X50000000Y5250000D01*
X46470000Y2970000D02*
X46470000Y2860000D01*
X60250000Y21000000D02*
X55500000Y16250000D01*
X14750000Y13000000D02*
X12750000Y15000000D01*
X48750000Y5250000D02*
X46470000Y2970000D01*
X60250000Y21750000D02*
X60250000Y21000000D01*
X51750000Y15000000D02*
X51750000Y7000000D01*
X53000000Y16250000D02*
X51750000Y15000000D01*
X50000000Y5250000D02*
X48750000Y5250000D01*
D19*
%TO.N,SCL*%
X20000000Y6250000D02*
X21650000Y6250000D01*
X20500000Y4500000D02*
X18860000Y2860000D01*
X18860000Y2860000D02*
X18530000Y2860000D01*
X12150000Y23745000D02*
X13455000Y25050000D01*
X21000000Y4500000D02*
X20500000Y4500000D01*
X22900000Y9850000D02*
X13750000Y19000000D01*
X13750000Y19000000D02*
X12700000Y19000000D01*
D21*
X12150000Y19550000D02*
X12150000Y23745000D01*
D19*
X22900000Y7500000D02*
X22900000Y9850000D01*
X19250000Y7000000D02*
X20000000Y6250000D01*
X12700000Y19000000D02*
X12150000Y19550000D01*
X21650000Y6250000D02*
X22900000Y7500000D01*
%TO.N,GPIO14*%
X10900000Y19200000D02*
X10910000Y19210000D01*
X10910000Y19210000D02*
X10910000Y20640000D01*
%TO.N,GPIO25*%
X11750000Y7500000D02*
X10250000Y9000000D01*
X9710000Y14290000D02*
X8600000Y14290000D01*
X10250000Y13750000D02*
X9710000Y14290000D01*
X10250000Y9000000D02*
X10250000Y13750000D01*
%TO.N,GPIO15*%
X9750000Y19250000D02*
X9750000Y19260000D01*
X9750000Y19260000D02*
X8370000Y20640000D01*
D21*
%TO.N,GPIO28_ADC2*%
X27450000Y19500000D02*
X27450000Y26345000D01*
D19*
X30750000Y12500000D02*
X30750000Y14250000D01*
X33150000Y10100000D02*
X30750000Y12500000D01*
X34500000Y6250000D02*
X33150000Y7600000D01*
X28000000Y17000000D02*
X28000000Y18950000D01*
X41390000Y2860000D02*
X41390000Y5360000D01*
X41390000Y5360000D02*
X40500000Y6250000D01*
X27450000Y26345000D02*
X28695000Y27590000D01*
X30750000Y14250000D02*
X28000000Y17000000D01*
X33150000Y7600000D02*
X33150000Y10100000D01*
X28000000Y18950000D02*
X27450000Y19500000D01*
X40500000Y6250000D02*
X34500000Y6250000D01*
D20*
%TO.N,+5V*%
X8375000Y27590000D02*
X10915000Y27590000D01*
X56860000Y2860000D02*
X58250000Y4250000D01*
X58250000Y4250000D02*
X58250000Y17250000D01*
X61500000Y23000000D02*
X59250000Y25250000D01*
X57550000Y29200000D02*
X12525000Y29200000D01*
X58250000Y17250000D02*
X61500000Y20500000D01*
X59250000Y25250000D02*
X59250000Y27500000D01*
X59250000Y27500000D02*
X57550000Y29200000D01*
X56630000Y2860000D02*
X56860000Y2860000D01*
X12525000Y29200000D02*
X10915000Y27590000D01*
X61500000Y20500000D02*
X61500000Y23000000D01*
D19*
%TO.N,ADC_VREF*%
X43930000Y2860000D02*
X43930000Y10570000D01*
X41300000Y25050000D02*
X41395000Y25050000D01*
X40250000Y24000000D02*
X41300000Y25050000D01*
X43930000Y10570000D02*
X40250000Y14250000D01*
D21*
X40250000Y14250000D02*
X40250000Y24000000D01*
D19*
%TO.N,GPIO24*%
X9040000Y9210000D02*
X8600000Y9210000D01*
X11750000Y6500000D02*
X9040000Y9210000D01*
%TO.N,SPI_MI*%
X18530000Y19630000D02*
X18530000Y20640000D01*
X18500000Y19600000D02*
X18530000Y19630000D01*
%TO.N,GPIO20*%
X23500000Y4500000D02*
X22710000Y4500000D01*
X21000000Y17250000D02*
X21000000Y14750000D01*
X21000000Y14750000D02*
X25250000Y10500000D01*
X25250000Y6250000D02*
X23500000Y4500000D01*
X22710000Y4500000D02*
X21070000Y2860000D01*
X25250000Y10500000D02*
X25250000Y6250000D01*
%TO.N,SPI_MO*%
X22700000Y18550000D02*
X21910000Y18550000D01*
X21910000Y18550000D02*
X21070000Y19390000D01*
X21070000Y19390000D02*
X21070000Y20640000D01*
%TO.N,GPIO9*%
X28690000Y17560000D02*
X28690000Y20640000D01*
X30000000Y16250000D02*
X28690000Y17560000D01*
%TO.N,GPIO21*%
X22500000Y14000000D02*
X25750000Y10750000D01*
X23610000Y3860000D02*
X23610000Y2860000D01*
X25750000Y10750000D02*
X25750000Y6000000D01*
X22950000Y17700000D02*
X22500000Y17250000D01*
X25750000Y6000000D02*
X23610000Y3860000D01*
X22500000Y17250000D02*
X22500000Y14000000D01*
%TO.N,GPIO27_ADC1*%
X33000000Y4250000D02*
X30250000Y7000000D01*
X30250000Y7000000D02*
X30250000Y14000000D01*
X30250000Y14000000D02*
X24850000Y19400000D01*
X36310000Y2860000D02*
X34920000Y4250000D01*
D21*
X24850000Y19400000D02*
X24850000Y26285000D01*
D19*
X24850000Y26285000D02*
X26155000Y27590000D01*
X34920000Y4250000D02*
X33000000Y4250000D01*
%TO.N,SPI_CLK*%
X23610000Y19790000D02*
X23610000Y20640000D01*
X29950000Y19550000D02*
X29950000Y23400000D01*
X30350000Y23800000D02*
X29950000Y23400000D01*
X34750000Y23800000D02*
X30350000Y23800000D01*
X24075000Y19325000D02*
X23610000Y19790000D01*
X30000000Y19500000D02*
X29950000Y19550000D01*
X36000000Y25050000D02*
X34750000Y23800000D01*
X36315000Y25050000D02*
X36000000Y25050000D01*
%TO.N,RX*%
X11950000Y5200000D02*
X23450000Y5200000D01*
X23450000Y5200000D02*
X24750000Y6500000D01*
X19800000Y26200000D02*
X18535000Y27465000D01*
X24750000Y6500000D02*
X24750000Y10250000D01*
D21*
X19800000Y15200000D02*
X19800000Y26200000D01*
D19*
X10910000Y4160000D02*
X11950000Y5200000D01*
X24750000Y10250000D02*
X19800000Y15200000D01*
X18535000Y27465000D02*
X18535000Y27590000D01*
X10910000Y2860000D02*
X10910000Y4160000D01*
%TO.N,TX*%
X17250000Y26250000D02*
X15995000Y27505000D01*
X9700000Y5700000D02*
X23200000Y5700000D01*
X8370000Y4370000D02*
X9700000Y5700000D01*
X24250000Y10000000D02*
X17250000Y17000000D01*
X24250000Y6750000D02*
X24250000Y10000000D01*
X23200000Y5700000D02*
X24250000Y6750000D01*
X15995000Y27505000D02*
X15995000Y27590000D01*
X8370000Y2860000D02*
X8370000Y4370000D01*
D21*
X17250000Y17000000D02*
X17250000Y26250000D01*
D19*
%TO.N,SPI_CS*%
X35075000Y26350000D02*
X36315000Y27590000D01*
X15990000Y19250000D02*
X15990000Y20640000D01*
X32550000Y26350000D02*
X35075000Y26350000D01*
D21*
%TO.N,GPIO26_ADC0*%
X22350000Y19900000D02*
X22350000Y26400000D01*
D19*
X33640000Y2860000D02*
X29750000Y6750000D01*
X21160000Y27590000D02*
X21075000Y27590000D01*
X29750000Y13750000D02*
X25000000Y18500000D01*
X22350000Y26400000D02*
X21160000Y27590000D01*
X25000000Y18500000D02*
X23750000Y18500000D01*
X29750000Y6750000D02*
X29750000Y13750000D01*
X33770000Y2860000D02*
X33640000Y2860000D01*
X23750000Y18500000D02*
X22350000Y19900000D01*
%TO.N,GPIO22*%
X24400000Y17250000D02*
X25500000Y17250000D01*
X25500000Y17250000D02*
X29250000Y13500000D01*
X29250000Y13500000D02*
X29250000Y3420000D01*
X29250000Y3420000D02*
X28690000Y2860000D01*
%TO.N,ADC_CLK*%
X33750000Y18500000D02*
X33370000Y18500000D01*
X33370000Y18500000D02*
X31230000Y20640000D01*
X31230000Y20640000D02*
X31230000Y22980000D01*
%TO.N,GPIO2*%
X50678283Y19201078D02*
X50607572Y19271789D01*
X49589338Y18960662D02*
X49275000Y19275000D01*
X49275000Y19275000D02*
X49010000Y19540000D01*
X49985318Y18225271D02*
X50013603Y18253555D01*
X50324729Y19271789D02*
X49942891Y18889952D01*
X49660048Y18889952D02*
X49589338Y18960662D01*
X50013603Y18253555D02*
X50678283Y18918236D01*
X49010000Y19540000D02*
X49010000Y20640000D01*
X51750000Y17400000D02*
X51150000Y17400000D01*
X51150000Y17400000D02*
X50650000Y17900000D01*
X50056030Y17871716D02*
X49985319Y17942427D01*
X50367156Y17900001D02*
X50338872Y17871716D01*
X50338872Y17871716D02*
G75*
G02*
X50056030Y17871716I-141421J141426D01*
G01*
X49942891Y18889952D02*
G75*
G02*
X49660049Y18889952I-141421J141420D01*
G01*
X50650000Y17900000D02*
G75*
G03*
X50367179Y17899979I-141400J-141400D01*
G01*
X50678283Y18918236D02*
G75*
G03*
X50678326Y19201121I-141383J141464D01*
G01*
X50607572Y19271789D02*
G75*
G03*
X50324730Y19271789I-141421J-141420D01*
G01*
X49985319Y17942427D02*
G75*
G02*
X49985367Y18225221I141381J141373D01*
G01*
%TO.N,GPIO7*%
X33770000Y20640000D02*
X33770000Y20480000D01*
X35000000Y19410000D02*
X33770000Y20640000D01*
X35000000Y19250000D02*
X35000000Y19410000D01*
%TO.N,GPIO5*%
X41390000Y23040000D02*
X41390000Y20640000D01*
X42675000Y24325000D02*
X41390000Y23040000D01*
%TO.N,GPIO3*%
X48975881Y16400000D02*
X48975881Y16500000D01*
X49750000Y17250000D02*
X50250000Y16750000D01*
X48250000Y18250000D02*
X48250000Y18860000D01*
X48250000Y18000000D02*
X48250000Y18250000D01*
X48975860Y17400000D02*
X48975860Y17500000D01*
X47372893Y19737107D02*
X47305000Y19805000D01*
X48450000Y16700000D02*
X48024130Y16700000D01*
X50250000Y16000000D02*
X49750000Y15500000D01*
X47443602Y19666398D02*
X47372893Y19737107D01*
X48775860Y17700000D02*
X48450000Y17700000D01*
X48250000Y17900000D02*
X48250000Y18000000D01*
X50250000Y16750000D02*
X50250000Y16000000D01*
X48450000Y16200000D02*
X48775881Y16200000D01*
X46552648Y18492600D02*
X47443601Y19383556D01*
X48250000Y18860000D02*
X48080000Y19030000D01*
X48775881Y16700000D02*
X48450000Y16700000D01*
X48250000Y17200000D02*
X48775860Y17200000D01*
X46623358Y18139047D02*
X46552647Y18209758D01*
X48250000Y15750000D02*
X48250000Y16000000D01*
X47797156Y19030001D02*
X46906202Y18139046D01*
X47305000Y19805000D02*
X46470000Y20640000D01*
X48500000Y15500000D02*
X48250000Y15750000D01*
X47824130Y16900000D02*
X47824130Y17000000D01*
X48024130Y17200000D02*
X48250000Y17200000D01*
X49750000Y15500000D02*
X48500000Y15500000D01*
X48024130Y16700000D02*
G75*
G02*
X47824100Y16900000I-30J200000D01*
G01*
X48080000Y19030000D02*
G75*
G03*
X47797179Y19029979I-141400J-141400D01*
G01*
X46906202Y18139046D02*
G75*
G02*
X46623377Y18139066I-141402J141454D01*
G01*
X48775860Y17200000D02*
G75*
G03*
X48975900Y17400000I40J200000D01*
G01*
X48450000Y17700000D02*
G75*
G02*
X48250000Y17900000I0J200000D01*
G01*
X46552647Y18209758D02*
G75*
G02*
X46552626Y18492621I141453J141442D01*
G01*
X47824130Y17000000D02*
G75*
G02*
X48024130Y17199970I199970J0D01*
G01*
X47443601Y19383556D02*
G75*
G03*
X47443625Y19666421I-141401J141444D01*
G01*
X48975860Y17500000D02*
G75*
G03*
X48775860Y17699960I-199960J0D01*
G01*
X48975881Y16500000D02*
G75*
G03*
X48775881Y16699981I-199981J0D01*
G01*
X48775881Y16200000D02*
G75*
G03*
X48975900Y16400000I19J200000D01*
G01*
X48250000Y16000000D02*
G75*
G02*
X48450000Y16200000I200000J0D01*
G01*
%TO.N,GPIO1*%
X54090000Y20160000D02*
X54090000Y20640000D01*
X55000000Y19250000D02*
X54090000Y20160000D01*
%TO.N,GPIO6*%
X36310000Y22560000D02*
X36310000Y20640000D01*
X37500000Y23750000D02*
X36310000Y22560000D01*
%TO.N,GPIO0*%
X56000000Y19250000D02*
X56630000Y19880000D01*
X56630000Y19880000D02*
X56630000Y20640000D01*
%TO.N,GPIO4*%
X43970000Y18830648D02*
X43850000Y18830648D01*
X42575000Y17425000D02*
X42200000Y17800000D01*
X45410000Y16259352D02*
X45410000Y17185000D01*
X43250000Y17425000D02*
X42900000Y17425000D01*
X46010000Y17185000D02*
X46010000Y16259352D01*
X42200000Y18700000D02*
X43930000Y20430000D01*
X44810000Y17425000D02*
X44810000Y16259350D01*
X42900000Y17425000D02*
X42575000Y17425000D01*
X42200000Y17800000D02*
X42200000Y18700000D01*
X45410000Y17185000D02*
X45410000Y18590648D01*
X43610000Y18590648D02*
X43610000Y17665000D01*
X44210000Y16259350D02*
X44210000Y17425000D01*
X44210000Y17425000D02*
X44210000Y18590648D01*
X43930000Y20430000D02*
X43930000Y20640000D01*
X47000000Y17425000D02*
X46250000Y17425000D01*
X45170000Y18830648D02*
X45050000Y18830648D01*
X44810000Y18590648D02*
X44810000Y17425000D01*
X44570000Y16019350D02*
X44450000Y16019350D01*
X43370000Y17425000D02*
X43250000Y17425000D01*
X45770000Y16019352D02*
X45650000Y16019352D01*
X45410000Y18590648D02*
G75*
G03*
X45170000Y18830600I-240000J-48D01*
G01*
X44450000Y16019350D02*
G75*
G02*
X44210050Y16259350I0J239950D01*
G01*
X43610000Y17665000D02*
G75*
G02*
X43370000Y17425000I-240000J0D01*
G01*
X43850000Y18830648D02*
G75*
G03*
X43609952Y18590648I0J-240048D01*
G01*
X45650000Y16019352D02*
G75*
G02*
X45409952Y16259352I0J240048D01*
G01*
X44210000Y18590648D02*
G75*
G03*
X43970000Y18830600I-240000J-48D01*
G01*
X44810000Y16259350D02*
G75*
G02*
X44570000Y16019300I-240000J-50D01*
G01*
X45050000Y18830648D02*
G75*
G03*
X44809952Y18590648I0J-240048D01*
G01*
X46250000Y17425000D02*
G75*
G03*
X46010000Y17185000I0J-240000D01*
G01*
X46010000Y16259352D02*
G75*
G02*
X45770000Y16019400I-240000J48D01*
G01*
D20*
%TO.N,/VA*%
X36250000Y10050000D02*
X36250000Y9850000D01*
X40750000Y9250000D02*
X36950000Y9250000D01*
X41750000Y7750000D02*
X41750000Y8250000D01*
X36250000Y10050000D02*
X36250000Y16500000D01*
X35500000Y9250000D02*
X36950000Y9250000D01*
X36250000Y16500000D02*
X37000000Y17250000D01*
X41750000Y8250000D02*
X40750000Y9250000D01*
X36250000Y9850000D02*
X35650000Y9250000D01*
X36850000Y9250000D02*
X36950000Y9250000D01*
X35650000Y9250000D02*
X35500000Y9250000D01*
X36250000Y9850000D02*
X36850000Y9250000D01*
%TD*%
%TA.AperFunction,Conductor*%
%TO.N,SPI_CLK*%
G36*
X30072598Y20086627D02*
G01*
X30075976Y20079424D01*
X30086537Y19964373D01*
X30117700Y19879922D01*
X30117701Y19879920D01*
X30154707Y19823828D01*
X30163311Y19810787D01*
X30198499Y19759664D01*
X30217750Y19731694D01*
X30218546Y19730353D01*
X30271465Y19626039D01*
X30272152Y19617111D01*
X30266324Y19610312D01*
X30265542Y19609950D01*
X30004511Y19500885D01*
X29995556Y19500858D01*
X29995489Y19500885D01*
X29733583Y19610315D01*
X29727271Y19616667D01*
X29727277Y19625572D01*
X29769177Y19727126D01*
X29798978Y19809100D01*
X29815825Y19882439D01*
X29823304Y19968853D01*
X29824839Y20078518D01*
X29828381Y20086742D01*
X29836538Y20090054D01*
X30064325Y20090054D01*
X30072598Y20086627D01*
G37*
%TD.AperFunction*%
%TD*%
%TA.AperFunction,Conductor*%
%TO.N,GPIO20*%
G36*
X21266002Y17139859D02*
G01*
X21272314Y17133507D01*
X21272287Y17124552D01*
X21272130Y17124195D01*
X21224082Y17019177D01*
X21223856Y17018711D01*
X21181574Y16936168D01*
X21150541Y16862980D01*
X21131483Y16775536D01*
X21131482Y16775532D01*
X21125573Y16661097D01*
X21121724Y16653011D01*
X21113889Y16650000D01*
X20886111Y16650000D01*
X20877838Y16653427D01*
X20874427Y16661096D01*
X20868516Y16775533D01*
X20868515Y16775536D01*
X20868515Y16775542D01*
X20849459Y16862975D01*
X20818429Y16936156D01*
X20776134Y17018724D01*
X20775915Y17019177D01*
X20727867Y17124197D01*
X20727542Y17133144D01*
X20733639Y17139702D01*
X20733945Y17139837D01*
X20995490Y17249117D01*
X21004444Y17249143D01*
X21266002Y17139859D01*
G37*
%TD.AperFunction*%
%TD*%
%TA.AperFunction,Conductor*%
%TO.N,SPI_CS*%
G36*
X35541577Y27910378D02*
G01*
X36311215Y27592562D01*
X36317552Y27586239D01*
X36317562Y27586215D01*
X36635372Y26816590D01*
X36635363Y26807635D01*
X36629024Y26801310D01*
X36627984Y26800937D01*
X36272835Y26692171D01*
X36270855Y26691748D01*
X35984720Y26656111D01*
X35984679Y26656106D01*
X35737870Y26626244D01*
X35737861Y26626242D01*
X35490379Y26531107D01*
X35209485Y26306082D01*
X35200886Y26303584D01*
X35193897Y26306940D01*
X35031939Y26468898D01*
X35028512Y26477171D01*
X35031080Y26484484D01*
X35256104Y26765381D01*
X35351241Y27012865D01*
X35381107Y27259711D01*
X35416745Y27545861D01*
X35417168Y27547837D01*
X35430298Y27590707D01*
X35525936Y27902986D01*
X35531635Y27909892D01*
X35540549Y27910746D01*
X35541577Y27910378D01*
G37*
%TD.AperFunction*%
%TD*%
%TA.AperFunction,Conductor*%
%TO.N,ADC_CLK*%
G36*
X32076762Y20987037D02*
G01*
X32083088Y20980699D01*
X32083544Y20979376D01*
X32192995Y20587011D01*
X32305975Y20225493D01*
X32305979Y20225481D01*
X32418969Y19907430D01*
X32531959Y19632879D01*
X32589569Y19515072D01*
X32641278Y19409333D01*
X32641834Y19400395D01*
X32639040Y19395920D01*
X32474772Y19231652D01*
X32466499Y19228225D01*
X32460271Y19230020D01*
X32304562Y19327929D01*
X32302517Y19329561D01*
X32252266Y19379813D01*
X32252263Y19379815D01*
X32252262Y19379816D01*
X32099522Y19475789D01*
X32099520Y19475790D01*
X32099518Y19475791D01*
X31929256Y19535368D01*
X31929247Y19535370D01*
X31926919Y19535632D01*
X31923064Y19536760D01*
X31832077Y19581528D01*
X31832079Y19581528D01*
X31514016Y19694523D01*
X31195980Y19764010D01*
X31195971Y19764011D01*
X30893902Y19788694D01*
X30885936Y19792783D01*
X30883194Y19801308D01*
X30884041Y19804822D01*
X30926427Y19907443D01*
X31227438Y20636218D01*
X31233761Y20642553D01*
X32067807Y20987046D01*
X32076762Y20987037D01*
G37*
%TD.AperFunction*%
%TD*%
%TA.AperFunction,Conductor*%
%TO.N,GPIO21*%
G36*
X22684005Y17810219D02*
G01*
X22850992Y17741652D01*
X22946184Y17702564D01*
X22952536Y17696252D01*
X22952563Y17696185D01*
X23060210Y17434026D01*
X23060183Y17425071D01*
X23053831Y17418759D01*
X23053468Y17418617D01*
X22945240Y17378336D01*
X22944751Y17378166D01*
X22856463Y17349688D01*
X22856449Y17349683D01*
X22782787Y17319889D01*
X22782779Y17319884D01*
X22707480Y17271534D01*
X22707479Y17271532D01*
X22622376Y17194789D01*
X22613937Y17191794D01*
X22606268Y17195205D01*
X22445204Y17356269D01*
X22441777Y17364542D01*
X22444787Y17372375D01*
X22521533Y17457482D01*
X22569882Y17532781D01*
X22599688Y17606469D01*
X22628175Y17694792D01*
X22628314Y17695192D01*
X22668616Y17803471D01*
X22674714Y17810027D01*
X22683662Y17810353D01*
X22684005Y17810219D01*
G37*
%TD.AperFunction*%
%TD*%
%TA.AperFunction,Conductor*%
%TO.N,GPIO14*%
G36*
X11032081Y19794584D02*
G01*
X11035496Y19786830D01*
X11040530Y19673399D01*
X11040531Y19673388D01*
X11057284Y19586139D01*
X11057285Y19586135D01*
X11085485Y19512882D01*
X11125289Y19430396D01*
X11125427Y19430101D01*
X11172247Y19325762D01*
X11172507Y19316811D01*
X11166362Y19310297D01*
X11166083Y19310176D01*
X10904511Y19200885D01*
X10895556Y19200858D01*
X10895489Y19200885D01*
X10634088Y19310104D01*
X10627776Y19316456D01*
X10627803Y19325411D01*
X10627990Y19325832D01*
X10677004Y19430695D01*
X10677314Y19431306D01*
X10722048Y19513212D01*
X10756005Y19585639D01*
X10777497Y19672501D01*
X10784342Y19787010D01*
X10788256Y19795063D01*
X10796021Y19798011D01*
X11023808Y19798011D01*
X11032081Y19794584D01*
G37*
%TD.AperFunction*%
%TD*%
%TA.AperFunction,Conductor*%
%TO.N,GPIO27_ADC1*%
G36*
X25381577Y27910378D02*
G01*
X26151215Y27592562D01*
X26157552Y27586239D01*
X26157562Y27586215D01*
X26475372Y26816590D01*
X26475363Y26807635D01*
X26469024Y26801310D01*
X26467984Y26800937D01*
X26112835Y26692171D01*
X26110855Y26691748D01*
X25824720Y26656111D01*
X25824679Y26656106D01*
X25577870Y26626244D01*
X25577861Y26626242D01*
X25330379Y26531107D01*
X25049485Y26306082D01*
X25040886Y26303584D01*
X25033897Y26306940D01*
X24871939Y26468898D01*
X24868512Y26477171D01*
X24871080Y26484484D01*
X25096104Y26765381D01*
X25191241Y27012865D01*
X25221107Y27259711D01*
X25256745Y27545861D01*
X25257168Y27547837D01*
X25270298Y27590707D01*
X25365936Y27902986D01*
X25371635Y27909892D01*
X25380549Y27910746D01*
X25381577Y27910378D01*
G37*
%TD.AperFunction*%
%TD*%
%TA.AperFunction,Conductor*%
%TO.N,RX*%
G36*
X11112755Y4522650D02*
G01*
X11114411Y4521274D01*
X11279415Y4356270D01*
X11282119Y4352047D01*
X11370513Y4112448D01*
X11459791Y3900778D01*
X11549083Y3719396D01*
X11638362Y3568363D01*
X11638366Y3568357D01*
X11720597Y3457175D01*
X11722761Y3448486D01*
X11718147Y3440811D01*
X11718020Y3440718D01*
X10917373Y2865103D01*
X10908655Y2863056D01*
X10902262Y2866338D01*
X10328907Y3440811D01*
X10195072Y3574907D01*
X10191654Y3583182D01*
X10195089Y3591452D01*
X10197348Y3593213D01*
X10368474Y3695501D01*
X10552469Y3845062D01*
X10662415Y3958085D01*
X10736453Y4034193D01*
X10736463Y4034204D01*
X10799406Y4112448D01*
X10920459Y4262928D01*
X11096491Y4519620D01*
X11103994Y4524503D01*
X11112755Y4522650D01*
G37*
%TD.AperFunction*%
%TD*%
%TA.AperFunction,Conductor*%
%TO.N,GPIO7*%
G36*
X34768294Y19819190D02*
G01*
X34806877Y19783915D01*
X34866194Y19729682D01*
X34948744Y19668829D01*
X35023156Y19620220D01*
X35023690Y19619849D01*
X35105476Y19559559D01*
X35106429Y19558776D01*
X35203131Y19470362D01*
X35206924Y19462250D01*
X35203871Y19453832D01*
X35203537Y19453481D01*
X35002373Y19250971D01*
X34998516Y19248394D01*
X34735072Y19140220D01*
X34726117Y19140247D01*
X34719805Y19146599D01*
X34719343Y19147954D01*
X34691599Y19249293D01*
X34687597Y19263912D01*
X34687189Y19266616D01*
X34683932Y19368308D01*
X34683927Y19368739D01*
X34684461Y19458260D01*
X34660389Y19547669D01*
X34589384Y19641841D01*
X34587140Y19650508D01*
X34590453Y19657155D01*
X34752127Y19818829D01*
X34760399Y19822255D01*
X34768294Y19819190D01*
G37*
%TD.AperFunction*%
%TD*%
%TA.AperFunction,Conductor*%
%TO.N,GPIO3*%
G36*
X47314305Y20986023D02*
G01*
X47320631Y20979685D01*
X47321467Y20976301D01*
X47348256Y20688257D01*
X47376514Y20419670D01*
X47404766Y20186385D01*
X47433023Y19988313D01*
X47460242Y19831476D01*
X47458280Y19822738D01*
X47456987Y19821202D01*
X47290079Y19654294D01*
X47281806Y19650867D01*
X47277245Y19651793D01*
X47051194Y19747480D01*
X47051178Y19747485D01*
X46817876Y19810990D01*
X46817867Y19810992D01*
X46584553Y19839247D01*
X46351235Y19832251D01*
X46138994Y19793817D01*
X46130242Y19795715D01*
X46125396Y19803245D01*
X46126094Y19809795D01*
X46467438Y20636218D01*
X46473761Y20642553D01*
X47305352Y20986032D01*
X47314305Y20986023D01*
G37*
%TD.AperFunction*%
%TD*%
%TA.AperFunction,Conductor*%
%TO.N,GPIO25*%
G36*
X11422375Y8005213D02*
G01*
X11507481Y7928467D01*
X11582779Y7880118D01*
X11582783Y7880117D01*
X11582787Y7880114D01*
X11656449Y7850319D01*
X11656454Y7850317D01*
X11656467Y7850312D01*
X11726809Y7827624D01*
X11744751Y7821837D01*
X11745242Y7821667D01*
X11853468Y7781384D01*
X11860026Y7775287D01*
X11860352Y7766338D01*
X11860210Y7765975D01*
X11752563Y7503816D01*
X11746251Y7497464D01*
X11746184Y7497437D01*
X11484025Y7389790D01*
X11475070Y7389817D01*
X11468758Y7396169D01*
X11468616Y7396532D01*
X11428333Y7504760D01*
X11428163Y7505249D01*
X11426142Y7511512D01*
X11399688Y7593533D01*
X11399681Y7593551D01*
X11369886Y7667213D01*
X11369883Y7667217D01*
X11369882Y7667221D01*
X11321533Y7742519D01*
X11244787Y7827625D01*
X11241793Y7836063D01*
X11245203Y7843731D01*
X11406269Y8004797D01*
X11414541Y8008223D01*
X11422375Y8005213D01*
G37*
%TD.AperFunction*%
%TD*%
%TA.AperFunction,Conductor*%
%TO.N,GPIO2*%
G36*
X49017565Y20632435D02*
G01*
X49727009Y19922991D01*
X49730436Y19914718D01*
X49727009Y19906445D01*
X49726771Y19906214D01*
X49661093Y19844161D01*
X49661089Y19844158D01*
X49586670Y19753897D01*
X49586661Y19753885D01*
X49512240Y19643674D01*
X49512229Y19643657D01*
X49437818Y19513516D01*
X49437799Y19513482D01*
X49364239Y19365109D01*
X49362030Y19362033D01*
X49195641Y19195644D01*
X49187368Y19192217D01*
X49179095Y19195644D01*
X49178409Y19196392D01*
X49006222Y19401697D01*
X48825834Y19582012D01*
X48645447Y19727560D01*
X48645444Y19727562D01*
X48465063Y19838339D01*
X48465059Y19838341D01*
X48300680Y19907607D01*
X48294386Y19913978D01*
X48294441Y19922932D01*
X48296938Y19926650D01*
X49001022Y20632417D01*
X49009288Y20635852D01*
X49017565Y20632435D01*
G37*
%TD.AperFunction*%
%TD*%
%TA.AperFunction,Conductor*%
%TO.N,GNDA*%
G36*
X26511618Y19399289D02*
G01*
X26594951Y19333492D01*
X26669692Y19279681D01*
X26753025Y19213885D01*
X26862132Y19112132D01*
X26650707Y18899293D01*
X26442309Y18692281D01*
X26330487Y18804103D01*
X26270319Y18880308D01*
X26216508Y18955049D01*
X26150711Y19038382D01*
X26048960Y19147487D01*
X26402513Y19501040D01*
X26511618Y19399289D01*
G37*
%TD.AperFunction*%
%TD*%
%TA.AperFunction,Conductor*%
%TO.N,GPIO9*%
G36*
X29672375Y16755213D02*
G01*
X29757481Y16678467D01*
X29832779Y16630118D01*
X29832783Y16630117D01*
X29832787Y16630114D01*
X29906449Y16600319D01*
X29906454Y16600317D01*
X29906467Y16600312D01*
X29976809Y16577624D01*
X29994751Y16571837D01*
X29995242Y16571667D01*
X30103468Y16531384D01*
X30110026Y16525287D01*
X30110352Y16516338D01*
X30110210Y16515975D01*
X30002563Y16253816D01*
X29996251Y16247464D01*
X29996184Y16247437D01*
X29734025Y16139790D01*
X29725070Y16139817D01*
X29718758Y16146169D01*
X29718616Y16146532D01*
X29678333Y16254760D01*
X29678163Y16255249D01*
X29676142Y16261512D01*
X29649688Y16343533D01*
X29649681Y16343551D01*
X29619886Y16417213D01*
X29619883Y16417217D01*
X29619882Y16417221D01*
X29571533Y16492519D01*
X29494787Y16577625D01*
X29491793Y16586063D01*
X29495203Y16593731D01*
X29656269Y16754797D01*
X29664541Y16758223D01*
X29672375Y16755213D01*
G37*
%TD.AperFunction*%
%TD*%
%TA.AperFunction,Conductor*%
%TO.N,SPI_CLK*%
G36*
X23747375Y19830213D02*
G01*
X23832481Y19753467D01*
X23907779Y19705118D01*
X23907783Y19705117D01*
X23907787Y19705114D01*
X23981449Y19675319D01*
X23981454Y19675317D01*
X23981467Y19675312D01*
X24051809Y19652624D01*
X24069751Y19646837D01*
X24070242Y19646667D01*
X24178468Y19606384D01*
X24185026Y19600287D01*
X24185352Y19591338D01*
X24185210Y19590975D01*
X24077563Y19328816D01*
X24071251Y19322464D01*
X24071184Y19322437D01*
X23809025Y19214790D01*
X23800070Y19214817D01*
X23793758Y19221169D01*
X23793616Y19221532D01*
X23753333Y19329760D01*
X23753163Y19330249D01*
X23751142Y19336512D01*
X23724688Y19418533D01*
X23724681Y19418551D01*
X23694886Y19492213D01*
X23694883Y19492217D01*
X23694882Y19492221D01*
X23646533Y19567519D01*
X23569787Y19652625D01*
X23566793Y19661063D01*
X23570203Y19668731D01*
X23731269Y19829797D01*
X23739541Y19833223D01*
X23747375Y19830213D01*
G37*
%TD.AperFunction*%
%TD*%
%TA.AperFunction,Conductor*%
%TO.N,SPI_CLK*%
G36*
X35540943Y25370640D02*
G01*
X36311215Y25052562D01*
X36317552Y25046239D01*
X36317562Y25046215D01*
X36635082Y24277291D01*
X36635073Y24268336D01*
X36628734Y24262011D01*
X36627053Y24261461D01*
X36250105Y24169080D01*
X36246754Y24168758D01*
X35933681Y24183931D01*
X35932913Y24183993D01*
X35657519Y24215605D01*
X35657518Y24215605D01*
X35657517Y24215605D01*
X35587676Y24203638D01*
X35383886Y24168717D01*
X35083200Y23954115D01*
X35074475Y23952098D01*
X35068130Y23955365D01*
X34906171Y24117324D01*
X34902744Y24125597D01*
X34905710Y24133382D01*
X35128433Y24383185D01*
X35257322Y24592773D01*
X35334308Y24798351D01*
X35408582Y25044071D01*
X35408790Y25044692D01*
X35409356Y25046238D01*
X35525515Y25363835D01*
X35531575Y25370427D01*
X35540522Y25370803D01*
X35540943Y25370640D01*
G37*
%TD.AperFunction*%
%TD*%
%TA.AperFunction,Conductor*%
%TO.N,/VA*%
G36*
X36796168Y17453878D02*
G01*
X36796434Y17453623D01*
X37000707Y17250707D01*
X37000762Y17250652D01*
X37203621Y17046436D01*
X37207020Y17038151D01*
X37203566Y17029889D01*
X37203300Y17029633D01*
X37103371Y16936441D01*
X37102641Y16935815D01*
X37019892Y16870479D01*
X37019478Y16870167D01*
X36944953Y16816512D01*
X36861625Y16750720D01*
X36861615Y16750711D01*
X36760776Y16656667D01*
X36752388Y16653530D01*
X36744523Y16656950D01*
X36406949Y16994524D01*
X36403522Y17002797D01*
X36406665Y17010776D01*
X36500711Y17111620D01*
X36566508Y17194953D01*
X36620179Y17269501D01*
X36620462Y17269876D01*
X36685819Y17352653D01*
X36686445Y17353381D01*
X36779633Y17453303D01*
X36787780Y17457015D01*
X36796168Y17453878D01*
G37*
%TD.AperFunction*%
%TD*%
%TA.AperFunction,Conductor*%
%TO.N,+3.3V*%
G36*
X14996974Y8096573D02*
G01*
X15000394Y8088708D01*
X15005199Y7950906D01*
X15017599Y7845452D01*
X15032358Y7754807D01*
X15032430Y7754293D01*
X15044743Y7649579D01*
X15044816Y7648621D01*
X15049579Y7512068D01*
X15046443Y7503680D01*
X15038294Y7499967D01*
X15037925Y7499960D01*
X14750039Y7499001D01*
X14749961Y7499001D01*
X14462074Y7499960D01*
X14453812Y7503414D01*
X14450413Y7511699D01*
X14450418Y7512013D01*
X14455183Y7648629D01*
X14455256Y7649579D01*
X14467573Y7754323D01*
X14467636Y7754778D01*
X14482400Y7845451D01*
X14494800Y7950901D01*
X14499606Y8088709D01*
X14503319Y8096856D01*
X14511299Y8100000D01*
X14988701Y8100000D01*
X14996974Y8096573D01*
G37*
%TD.AperFunction*%
%TD*%
%TA.AperFunction,Conductor*%
%TO.N,GPIO5*%
G36*
X42409005Y24435219D02*
G01*
X42575992Y24366652D01*
X42671184Y24327564D01*
X42677536Y24321252D01*
X42677563Y24321185D01*
X42785210Y24059026D01*
X42785183Y24050071D01*
X42778831Y24043759D01*
X42778468Y24043617D01*
X42670240Y24003336D01*
X42669751Y24003166D01*
X42581463Y23974688D01*
X42581449Y23974683D01*
X42507787Y23944889D01*
X42507779Y23944884D01*
X42432480Y23896534D01*
X42432479Y23896532D01*
X42347376Y23819789D01*
X42338937Y23816794D01*
X42331268Y23820205D01*
X42170204Y23981269D01*
X42166777Y23989542D01*
X42169787Y23997375D01*
X42246533Y24082482D01*
X42294882Y24157781D01*
X42324688Y24231469D01*
X42353175Y24319792D01*
X42353314Y24320192D01*
X42393616Y24428471D01*
X42399714Y24435027D01*
X42408662Y24435353D01*
X42409005Y24435219D01*
G37*
%TD.AperFunction*%
%TD*%
%TA.AperFunction,Conductor*%
%TO.N,GPIO28_ADC2*%
G36*
X27921577Y27910378D02*
G01*
X28691215Y27592562D01*
X28697552Y27586239D01*
X28697562Y27586215D01*
X29015372Y26816590D01*
X29015363Y26807635D01*
X29009024Y26801310D01*
X29007984Y26800937D01*
X28652835Y26692171D01*
X28650855Y26691748D01*
X28364720Y26656111D01*
X28364679Y26656106D01*
X28117870Y26626244D01*
X28117861Y26626242D01*
X27870379Y26531107D01*
X27589485Y26306082D01*
X27580886Y26303584D01*
X27573897Y26306940D01*
X27411939Y26468898D01*
X27408512Y26477171D01*
X27411080Y26484484D01*
X27636104Y26765381D01*
X27731241Y27012865D01*
X27761107Y27259711D01*
X27796745Y27545861D01*
X27797168Y27547837D01*
X27810298Y27590707D01*
X27905936Y27902986D01*
X27911635Y27909892D01*
X27920549Y27910746D01*
X27921577Y27910378D01*
G37*
%TD.AperFunction*%
%TD*%
%TA.AperFunction,Conductor*%
%TO.N,SPI_MO*%
G36*
X22589701Y18816361D02*
G01*
X22589858Y18816004D01*
X22699115Y18554511D01*
X22699142Y18545556D01*
X22699115Y18545489D01*
X22589858Y18283998D01*
X22583506Y18277686D01*
X22574551Y18277713D01*
X22574194Y18277870D01*
X22469174Y18325918D01*
X22468708Y18326144D01*
X22386165Y18368426D01*
X22386157Y18368430D01*
X22386154Y18368431D01*
X22362338Y18378529D01*
X22312977Y18399459D01*
X22312973Y18399460D01*
X22225541Y18418516D01*
X22225537Y18418517D01*
X22225534Y18418517D01*
X22225530Y18418518D01*
X22111097Y18424427D01*
X22103011Y18428276D01*
X22100000Y18436111D01*
X22100000Y18663890D01*
X22103427Y18672163D01*
X22111095Y18675574D01*
X22184367Y18679359D01*
X22225530Y18681484D01*
X22225532Y18681485D01*
X22225541Y18681485D01*
X22312973Y18700541D01*
X22386154Y18731571D01*
X22468739Y18773875D01*
X22469142Y18774070D01*
X22574196Y18822133D01*
X22583143Y18822458D01*
X22589701Y18816361D01*
G37*
%TD.AperFunction*%
%TD*%
%TA.AperFunction,Conductor*%
%TO.N,GPIO24*%
G36*
X9449792Y9645896D02*
G01*
X9450363Y9644638D01*
X9518440Y9467567D01*
X9584395Y9296016D01*
X9584399Y9296006D01*
X9584404Y9295994D01*
X9584405Y9295992D01*
X9723140Y8978625D01*
X9723153Y8978599D01*
X9861912Y8704682D01*
X9998265Y8478258D01*
X10000673Y8474260D01*
X10133410Y8295456D01*
X10135590Y8286771D01*
X10132289Y8280209D01*
X9968209Y8116129D01*
X9959936Y8112702D01*
X9955406Y8113615D01*
X9636788Y8247457D01*
X9636787Y8247458D01*
X9636783Y8247459D01*
X9636775Y8247462D01*
X9310933Y8340841D01*
X9310919Y8340845D01*
X8985067Y8390729D01*
X8822130Y8393922D01*
X8659199Y8397115D01*
X8659198Y8397115D01*
X8659194Y8397115D01*
X8351188Y8362034D01*
X8342580Y8364503D01*
X8338239Y8372335D01*
X8338696Y8377148D01*
X8597852Y9206100D01*
X8603562Y9212958D01*
X9433985Y9650790D01*
X9442902Y9651616D01*
X9449792Y9645896D01*
G37*
%TD.AperFunction*%
%TD*%
%TA.AperFunction,Conductor*%
%TO.N,GPIO26_ADC0*%
G36*
X21857526Y27910430D02*
G01*
X21863851Y27904091D01*
X21864177Y27903202D01*
X21974986Y27558135D01*
X21975385Y27556493D01*
X22021573Y27281116D01*
X22064332Y27045180D01*
X22064334Y27045175D01*
X22168623Y26807748D01*
X22168625Y26807745D01*
X22357184Y26578685D01*
X22392766Y26535461D01*
X22395378Y26526896D01*
X22392006Y26519752D01*
X22230033Y26357779D01*
X22221760Y26354352D01*
X22214588Y26356808D01*
X22213337Y26357779D01*
X21928627Y26578684D01*
X21928625Y26578685D01*
X21673871Y26660861D01*
X21673874Y26660861D01*
X21418986Y26674353D01*
X21418727Y26674370D01*
X21125232Y26696434D01*
X21122861Y26696861D01*
X20762272Y26801074D01*
X20755275Y26806663D01*
X20754280Y26815562D01*
X20754703Y26816772D01*
X21072438Y27586217D01*
X21078759Y27592552D01*
X21848572Y27910439D01*
X21857526Y27910430D01*
G37*
%TD.AperFunction*%
%TD*%
%TA.AperFunction,Conductor*%
%TO.N,SPI_CS*%
G36*
X16112162Y19846573D02*
G01*
X16115573Y19838903D01*
X16121482Y19724470D01*
X16121483Y19724466D01*
X16121483Y19724463D01*
X16121484Y19724459D01*
X16140540Y19637027D01*
X16140541Y19637023D01*
X16171574Y19563835D01*
X16213856Y19481292D01*
X16214082Y19480826D01*
X16262130Y19375806D01*
X16262456Y19366857D01*
X16256359Y19360299D01*
X16256002Y19360142D01*
X15994511Y19250885D01*
X15985556Y19250858D01*
X15985489Y19250885D01*
X15723996Y19360142D01*
X15717684Y19366494D01*
X15717711Y19375449D01*
X15717843Y19375751D01*
X15765930Y19480858D01*
X15766125Y19481261D01*
X15808429Y19563846D01*
X15839459Y19637027D01*
X15858515Y19724459D01*
X15864427Y19838904D01*
X15868276Y19846989D01*
X15876111Y19850000D01*
X16103889Y19850000D01*
X16112162Y19846573D01*
G37*
%TD.AperFunction*%
%TD*%
%TA.AperFunction,Conductor*%
%TO.N,+3.3V*%
G36*
X47560906Y4400335D02*
G01*
X47901413Y4059828D01*
X47904840Y4051555D01*
X47903587Y4046288D01*
X47789917Y3820795D01*
X47789913Y3820787D01*
X47789905Y3820770D01*
X47672438Y3551749D01*
X47554957Y3246697D01*
X47437476Y2905642D01*
X47323728Y2540564D01*
X47317996Y2533684D01*
X47309078Y2532874D01*
X47308319Y2533139D01*
X46473823Y2857533D01*
X46467353Y2863724D01*
X46467344Y2863746D01*
X46299702Y3246697D01*
X46102535Y3697092D01*
X46102358Y3706043D01*
X46108562Y3712500D01*
X46110607Y3713178D01*
X46388276Y3777480D01*
X46679668Y3880959D01*
X46971060Y4020439D01*
X47262452Y4195918D01*
X47545761Y4401532D01*
X47554469Y4403617D01*
X47560906Y4400335D01*
G37*
%TD.AperFunction*%
%TD*%
%TA.AperFunction,Conductor*%
%TO.N,GNDA*%
G36*
X2920288Y10731460D02*
G01*
X3001070Y10677484D01*
X5746139Y7932415D01*
X5844037Y7953710D01*
X5941176Y7955444D01*
X6010005Y7932262D01*
X6041504Y7916212D01*
X6229422Y7865859D01*
X6310222Y7859500D01*
X6310229Y7859500D01*
X6751000Y7859500D01*
X6846288Y7840546D01*
X6927070Y7786570D01*
X6981046Y7705788D01*
X7000000Y7610500D01*
X7000000Y249500D01*
X6981046Y154212D01*
X6927070Y73430D01*
X6846288Y19454D01*
X6751000Y500D01*
X3564249Y500D01*
X3564237Y501D01*
X3544171Y501D01*
X3506526Y501D01*
X3493494Y842D01*
X3173360Y17620D01*
X3147440Y20345D01*
X2837280Y69469D01*
X2811800Y74884D01*
X2508445Y156169D01*
X2483676Y164217D01*
X2190487Y276762D01*
X2166678Y287362D01*
X1886878Y429927D01*
X1864306Y442959D01*
X1600937Y613993D01*
X1579852Y629312D01*
X1335807Y826935D01*
X1316437Y844375D01*
X1094374Y1066438D01*
X1076935Y1085807D01*
X879313Y1329850D01*
X863993Y1350936D01*
X771119Y1493949D01*
X692956Y1614308D01*
X679926Y1636878D01*
X537359Y1916683D01*
X526761Y1940487D01*
X414216Y2233676D01*
X406171Y2258433D01*
X324880Y2561814D01*
X319470Y2587270D01*
X270343Y2897447D01*
X267619Y2923361D01*
X250842Y3243495D01*
X250501Y3256526D01*
X250501Y3314235D01*
X250500Y3314249D01*
X250500Y3371288D01*
X1649500Y3371288D01*
X1649500Y3128713D01*
X1681162Y2888210D01*
X1681163Y2888205D01*
X1743940Y2653918D01*
X1743948Y2653895D01*
X1836770Y2429799D01*
X1836778Y2429783D01*
X1958058Y2219721D01*
X1958064Y2219711D01*
X2105729Y2027269D01*
X2105738Y2027259D01*
X2277258Y1855739D01*
X2277268Y1855730D01*
X2398491Y1762713D01*
X2469711Y1708064D01*
X2469720Y1708059D01*
X2679782Y1586779D01*
X2679798Y1586771D01*
X2819858Y1528758D01*
X2903900Y1493946D01*
X2903911Y1493943D01*
X2903917Y1493941D01*
X3087021Y1444879D01*
X3138211Y1431162D01*
X3378712Y1399500D01*
X3621288Y1399500D01*
X3861789Y1431162D01*
X4023275Y1474433D01*
X4096082Y1493941D01*
X4096084Y1493942D01*
X4096100Y1493946D01*
X4247766Y1556769D01*
X4320201Y1586771D01*
X4320206Y1586774D01*
X4320212Y1586776D01*
X4530289Y1708064D01*
X4722738Y1855735D01*
X4894265Y2027262D01*
X5041936Y2219711D01*
X5163224Y2429788D01*
X5256054Y2653900D01*
X5318838Y2888211D01*
X5350500Y3128712D01*
X5350500Y3371288D01*
X5318838Y3611789D01*
X5276021Y3771584D01*
X5256059Y3846083D01*
X5256057Y3846089D01*
X5256054Y3846100D01*
X5215903Y3943033D01*
X5163229Y4070202D01*
X5163221Y4070218D01*
X5064494Y4241218D01*
X5041936Y4280289D01*
X4961597Y4384989D01*
X4894270Y4472732D01*
X4894261Y4472742D01*
X4722741Y4644262D01*
X4722731Y4644271D01*
X4530289Y4791936D01*
X4530279Y4791942D01*
X4320217Y4913222D01*
X4320201Y4913230D01*
X4096105Y5006052D01*
X4096103Y5006053D01*
X4096100Y5006054D01*
X4096093Y5006056D01*
X4096082Y5006060D01*
X3861795Y5068837D01*
X3861790Y5068838D01*
X3621288Y5100500D01*
X3378712Y5100500D01*
X3138209Y5068838D01*
X3138204Y5068837D01*
X2903917Y5006060D01*
X2903894Y5006052D01*
X2679798Y4913230D01*
X2679782Y4913222D01*
X2469720Y4791942D01*
X2469710Y4791936D01*
X2277268Y4644271D01*
X2277258Y4644262D01*
X2105738Y4472742D01*
X2105729Y4472732D01*
X1958064Y4280290D01*
X1958058Y4280280D01*
X1836778Y4070218D01*
X1836770Y4070202D01*
X1743948Y3846106D01*
X1743940Y3846083D01*
X1681163Y3611796D01*
X1681162Y3611791D01*
X1649500Y3371288D01*
X250500Y3371288D01*
X250500Y7351000D01*
X269454Y7446288D01*
X323430Y7527070D01*
X404212Y7581046D01*
X499500Y7600000D01*
X5322828Y7600000D01*
X5322829Y7600001D01*
X5366726Y7604720D01*
X2647516Y10323930D01*
X2593540Y10404712D01*
X2574586Y10500000D01*
X2593540Y10595288D01*
X2647516Y10676070D01*
X2648930Y10677484D01*
X2729712Y10731460D01*
X2825000Y10750414D01*
X2920288Y10731460D01*
G37*
%TD.AperFunction*%
%TA.AperFunction,Conductor*%
G36*
X26357558Y15481046D02*
G01*
X26438340Y15427070D01*
X28551570Y13313840D01*
X28605546Y13233058D01*
X28624500Y13137770D01*
X28624500Y4809080D01*
X28605546Y4713792D01*
X28568027Y4651174D01*
X28541341Y4618637D01*
X28526990Y4602606D01*
X28363979Y4435622D01*
X28344772Y4417909D01*
X28198703Y4296748D01*
X28173155Y4278161D01*
X28111074Y4238763D01*
X28020464Y4203708D01*
X27977653Y4200000D01*
X26762945Y4200000D01*
X26720774Y4203597D01*
X26720493Y4203646D01*
X26639751Y4210000D01*
X26400001Y4210000D01*
X26400000Y4209999D01*
X26400000Y1959000D01*
X26381046Y1863712D01*
X26327070Y1782930D01*
X26246288Y1728954D01*
X26151000Y1710000D01*
X26149000Y1710000D01*
X26053712Y1728954D01*
X25972930Y1782930D01*
X25918954Y1863712D01*
X25900000Y1959000D01*
X25900000Y4209999D01*
X25887831Y4222168D01*
X25853712Y4228954D01*
X25772930Y4282930D01*
X25718954Y4363712D01*
X25700000Y4459000D01*
X25700000Y4962271D01*
X25718954Y5057559D01*
X25772930Y5138340D01*
X26134535Y5499946D01*
X26148729Y5514140D01*
X26148733Y5514142D01*
X26235858Y5601267D01*
X26291493Y5684530D01*
X26304312Y5703714D01*
X26351463Y5817549D01*
X26354877Y5834710D01*
X26365338Y5887304D01*
X26375500Y5938393D01*
X26375500Y6061607D01*
X26375500Y10811606D01*
X26351463Y10932452D01*
X26336435Y10968733D01*
X26336434Y10968734D01*
X26336434Y10968737D01*
X26304311Y11046288D01*
X26278244Y11085299D01*
X26252176Y11124311D01*
X26235858Y11148733D01*
X26235856Y11148735D01*
X26235854Y11148738D01*
X26142485Y11242106D01*
X26142484Y11242106D01*
X23198430Y14186160D01*
X23144454Y14266942D01*
X23125500Y14362230D01*
X23125500Y15251000D01*
X23144454Y15346288D01*
X23198430Y15427070D01*
X23279212Y15481046D01*
X23374500Y15500000D01*
X26262270Y15500000D01*
X26357558Y15481046D01*
G37*
%TD.AperFunction*%
%TA.AperFunction,Conductor*%
G36*
X32370788Y9731046D02*
G01*
X32451570Y9677070D01*
X32505546Y9596288D01*
X32524500Y9501000D01*
X32524500Y7538393D01*
X32528208Y7519752D01*
X32528208Y7519748D01*
X32528209Y7519748D01*
X32528209Y7519747D01*
X32531687Y7502262D01*
X32548537Y7417546D01*
X32555608Y7400478D01*
X32558082Y7394505D01*
X32588630Y7320755D01*
X32595689Y7303712D01*
X32621369Y7265281D01*
X32621371Y7265278D01*
X32633087Y7247743D01*
X32664142Y7201267D01*
X32751267Y7114142D01*
X32751270Y7114140D01*
X34014139Y5851271D01*
X34014142Y5851267D01*
X34101267Y5764142D01*
X34203714Y5695689D01*
X34203716Y5695689D01*
X34203718Y5695687D01*
X34230666Y5684525D01*
X34317548Y5648537D01*
X34368542Y5638394D01*
X34438393Y5624500D01*
X34438394Y5624500D01*
X40137770Y5624500D01*
X40233058Y5605546D01*
X40313840Y5551570D01*
X40691570Y5173840D01*
X40745546Y5093058D01*
X40764500Y4997770D01*
X40764500Y4736112D01*
X40745546Y4640824D01*
X40741706Y4632037D01*
X40675995Y4489215D01*
X40669883Y4476846D01*
X40593516Y4332534D01*
X40532197Y4257179D01*
X40446705Y4211024D01*
X40373434Y4200000D01*
X39466893Y4200000D01*
X39402442Y4208486D01*
X39391704Y4211364D01*
X39351979Y4209037D01*
X39339734Y4210000D01*
X39100001Y4210000D01*
X39100000Y4209999D01*
X39100000Y1959000D01*
X39081046Y1863712D01*
X39027070Y1782930D01*
X38946288Y1728954D01*
X38851000Y1710000D01*
X38849000Y1710000D01*
X38753712Y1728954D01*
X38672930Y1782930D01*
X38618954Y1863712D01*
X38600000Y1959000D01*
X38600000Y4209999D01*
X38599999Y4210000D01*
X38360260Y4210000D01*
X38355424Y4209810D01*
X38322164Y4215078D01*
X38297561Y4208485D01*
X38233111Y4200000D01*
X36925915Y4200000D01*
X36883744Y4203597D01*
X36880581Y4204141D01*
X36856338Y4206049D01*
X36799778Y4210500D01*
X36799771Y4210500D01*
X36735595Y4210500D01*
X36696244Y4214933D01*
X36696065Y4213771D01*
X36687273Y4215126D01*
X36687269Y4215127D01*
X36435485Y4235702D01*
X36402617Y4240614D01*
X36312685Y4260263D01*
X36180470Y4289151D01*
X36150265Y4297779D01*
X35918395Y4380153D01*
X35891823Y4391365D01*
X35648317Y4511175D01*
X35625699Y4523805D01*
X35520949Y4589672D01*
X35520949Y4589673D01*
X35393724Y4669671D01*
X35350202Y4704389D01*
X35318733Y4735858D01*
X35279346Y4762176D01*
X35244438Y4785501D01*
X35244436Y4785502D01*
X35234798Y4791942D01*
X35216286Y4804312D01*
X35135792Y4837653D01*
X35135791Y4837654D01*
X35117554Y4845208D01*
X35102452Y4851463D01*
X35102449Y4851464D01*
X35102446Y4851465D01*
X35042032Y4863482D01*
X34981612Y4875500D01*
X34981607Y4875500D01*
X34981606Y4875500D01*
X33362230Y4875500D01*
X33266942Y4894454D01*
X33186160Y4948430D01*
X30948430Y7186160D01*
X30894454Y7266942D01*
X30875500Y7362230D01*
X30875500Y9501000D01*
X30894454Y9596288D01*
X30948430Y9677070D01*
X31029212Y9731046D01*
X31124500Y9750000D01*
X32275500Y9750000D01*
X32370788Y9731046D01*
G37*
%TD.AperFunction*%
%TA.AperFunction,Conductor*%
G36*
X57345788Y7581046D02*
G01*
X57426570Y7527070D01*
X57480546Y7446288D01*
X57499500Y7351000D01*
X57499500Y4741090D01*
X57480546Y4645802D01*
X57426570Y4565020D01*
X57372908Y4524255D01*
X57343600Y4507710D01*
X57323079Y4497345D01*
X57079423Y4388078D01*
X57056074Y4378988D01*
X56820617Y4300727D01*
X56794723Y4293646D01*
X56566131Y4244199D01*
X56538325Y4239812D01*
X56285621Y4214479D01*
X56285610Y4214478D01*
X56283204Y4214085D01*
X56281218Y4213760D01*
X56241061Y4210500D01*
X56140222Y4210500D01*
X56059422Y4204141D01*
X56059415Y4204140D01*
X55871509Y4153790D01*
X55871505Y4153789D01*
X55698160Y4065466D01*
X55698156Y4065463D01*
X55546973Y3943037D01*
X55537741Y3933804D01*
X55535454Y3936091D01*
X55478786Y3888971D01*
X55385997Y3860172D01*
X55289251Y3869073D01*
X55203276Y3914321D01*
X55183026Y3934571D01*
X55182259Y3933804D01*
X55173036Y3943027D01*
X55173032Y3943032D01*
X55141768Y3968349D01*
X55021843Y4065463D01*
X55021839Y4065466D01*
X54849416Y4153319D01*
X54848496Y4153788D01*
X54848495Y4153789D01*
X54848494Y4153789D01*
X54848490Y4153790D01*
X54660584Y4204140D01*
X54660579Y4204141D01*
X54660578Y4204141D01*
X54579778Y4210500D01*
X53600222Y4210500D01*
X53519422Y4204141D01*
X53519415Y4204140D01*
X53331509Y4153790D01*
X53331505Y4153789D01*
X53158160Y4065466D01*
X53158156Y4065463D01*
X53006973Y3943037D01*
X52997741Y3933804D01*
X52995527Y3936018D01*
X52938429Y3888555D01*
X52845636Y3859770D01*
X52748891Y3868686D01*
X52662923Y3913947D01*
X52642666Y3934212D01*
X52641903Y3933448D01*
X52632674Y3942677D01*
X52481567Y4065043D01*
X52308314Y4153319D01*
X52308312Y4153320D01*
X52120501Y4203644D01*
X52120491Y4203646D01*
X52039751Y4210000D01*
X51800001Y4210000D01*
X51800000Y4209999D01*
X51800000Y1959000D01*
X51781046Y1863712D01*
X51727070Y1782930D01*
X51646288Y1728954D01*
X51551000Y1710000D01*
X51549000Y1710000D01*
X51453712Y1728954D01*
X51372930Y1782930D01*
X51318954Y1863712D01*
X51300000Y1959000D01*
X51300000Y5385493D01*
X51318954Y5480781D01*
X51372930Y5561563D01*
X51372931Y5561563D01*
X52332950Y6521582D01*
X52332953Y6521586D01*
X52413178Y6641654D01*
X52413188Y6641664D01*
X52413186Y6641665D01*
X52413206Y6641697D01*
X52415084Y6644505D01*
X52440685Y6706312D01*
X52471659Y6781088D01*
X52499723Y6922177D01*
X52499723Y6922178D01*
X52499725Y6922178D01*
X52499727Y6922201D01*
X52500500Y6926082D01*
X52500500Y7351000D01*
X52519454Y7446288D01*
X52573430Y7527070D01*
X52654212Y7581046D01*
X52749500Y7600000D01*
X57250500Y7600000D01*
X57345788Y7581046D01*
G37*
%TD.AperFunction*%
%TA.AperFunction,Conductor*%
G36*
X38946288Y21771046D02*
G01*
X39027070Y21717070D01*
X39081046Y21636288D01*
X39100000Y21541000D01*
X39100000Y19290001D01*
X39100001Y19290000D01*
X39339737Y19290000D01*
X39339749Y19290001D01*
X39380964Y19293244D01*
X39477446Y19281825D01*
X39562213Y19234353D01*
X39622361Y19158055D01*
X39648732Y19064548D01*
X39649500Y19045012D01*
X39649500Y14461815D01*
X39644716Y14413245D01*
X39624500Y14311607D01*
X39624500Y14188393D01*
X39637468Y14123196D01*
X39648537Y14067548D01*
X39675697Y14001977D01*
X39695688Y13953714D01*
X39764143Y13851267D01*
X43231572Y10383838D01*
X43285546Y10303059D01*
X43304500Y10207771D01*
X43304500Y4736112D01*
X43285546Y4640824D01*
X43281706Y4632037D01*
X43215995Y4489215D01*
X43209883Y4476846D01*
X43159976Y4382534D01*
X43098656Y4307179D01*
X43013164Y4261025D01*
X42939893Y4250000D01*
X42380105Y4250000D01*
X42284817Y4268954D01*
X42204035Y4322930D01*
X42160022Y4382534D01*
X42110123Y4476827D01*
X42103999Y4489220D01*
X42038293Y4632035D01*
X42015685Y4726523D01*
X42015500Y4736108D01*
X42015500Y5421607D01*
X42011354Y5442448D01*
X42011353Y5442454D01*
X42003776Y5480546D01*
X41997094Y5514142D01*
X41991463Y5542452D01*
X41977652Y5575793D01*
X41944312Y5656286D01*
X41883205Y5747737D01*
X41875858Y5758733D01*
X41788733Y5845858D01*
X41788729Y5845861D01*
X40985860Y6648730D01*
X40985858Y6648733D01*
X40898733Y6735858D01*
X40841334Y6774211D01*
X40811464Y6794170D01*
X40796288Y6804311D01*
X40796286Y6804312D01*
X40715792Y6837653D01*
X40715791Y6837654D01*
X40697554Y6845208D01*
X40682452Y6851463D01*
X40682449Y6851464D01*
X40682446Y6851465D01*
X40622032Y6863482D01*
X40561612Y6875500D01*
X40561607Y6875500D01*
X40561606Y6875500D01*
X34862230Y6875500D01*
X34766942Y6894454D01*
X34686160Y6948430D01*
X33848430Y7786160D01*
X33794454Y7866942D01*
X33775500Y7962230D01*
X33775500Y9250004D01*
X34694435Y9250004D01*
X34694435Y9249997D01*
X34714630Y9070755D01*
X34714631Y9070749D01*
X34714632Y9070745D01*
X34774211Y8900478D01*
X34774212Y8900477D01*
X34774214Y8900471D01*
X34870180Y8747743D01*
X34870182Y8747741D01*
X34870184Y8747738D01*
X34997738Y8620184D01*
X34997740Y8620183D01*
X34997742Y8620181D01*
X35150470Y8524215D01*
X35150473Y8524214D01*
X35150478Y8524211D01*
X35320745Y8464632D01*
X35320754Y8464631D01*
X35499999Y8444435D01*
X35500000Y8444435D01*
X35511610Y8444435D01*
X35520798Y8444783D01*
X35520794Y8444918D01*
X35529686Y8445229D01*
X35529688Y8445228D01*
X35666240Y8449991D01*
X35680098Y8450761D01*
X35687011Y8451144D01*
X35687016Y8451145D01*
X35687027Y8451145D01*
X35687985Y8451218D01*
X35708611Y8453216D01*
X35813324Y8465529D01*
X35824415Y8466958D01*
X35824929Y8467030D01*
X35836041Y8468712D01*
X35910191Y8480786D01*
X35921114Y8482316D01*
X35979122Y8489138D01*
X35999514Y8490690D01*
X36106327Y8494414D01*
X36151518Y8498024D01*
X36151519Y8498025D01*
X36160091Y8498709D01*
X36179921Y8499500D01*
X36776082Y8499500D01*
X36876082Y8499500D01*
X40335993Y8499500D01*
X40431281Y8480546D01*
X40512062Y8426570D01*
X40704008Y8234624D01*
X40883355Y8055278D01*
X40937332Y7974496D01*
X40956286Y7879208D01*
X40953988Y7845459D01*
X40949122Y7809892D01*
X40948932Y7807816D01*
X40948946Y7805713D01*
X40947386Y7776198D01*
X40944435Y7750002D01*
X40944435Y7749997D01*
X40964630Y7570755D01*
X40964631Y7570749D01*
X40964632Y7570745D01*
X41024211Y7400478D01*
X41024212Y7400477D01*
X41024214Y7400471D01*
X41120180Y7247743D01*
X41120182Y7247741D01*
X41120184Y7247738D01*
X41247738Y7120184D01*
X41247740Y7120183D01*
X41247742Y7120181D01*
X41400470Y7024215D01*
X41400473Y7024214D01*
X41400478Y7024211D01*
X41570745Y6964632D01*
X41570754Y6964631D01*
X41749996Y6944435D01*
X41750000Y6944435D01*
X41750004Y6944435D01*
X41889908Y6960199D01*
X41929255Y6964632D01*
X42099522Y7024211D01*
X42099527Y7024215D01*
X42099529Y7024215D01*
X42252257Y7120181D01*
X42252256Y7120181D01*
X42252262Y7120184D01*
X42379816Y7247738D01*
X42419483Y7310868D01*
X42475785Y7400471D01*
X42475785Y7400473D01*
X42475789Y7400478D01*
X42535368Y7570745D01*
X42555565Y7750000D01*
X42553980Y7764065D01*
X42535369Y7929246D01*
X42535368Y7929255D01*
X42523174Y7964101D01*
X42514865Y7999563D01*
X42513774Y7999346D01*
X42512045Y8008072D01*
X42509319Y8018043D01*
X42500500Y8083724D01*
X42500500Y8323917D01*
X42500500Y8323918D01*
X42492646Y8363402D01*
X42475423Y8449991D01*
X42471660Y8468909D01*
X42471659Y8468911D01*
X42471659Y8468912D01*
X42448753Y8524211D01*
X42435766Y8555566D01*
X42435766Y8555567D01*
X42415085Y8605493D01*
X42415082Y8605498D01*
X42353701Y8697361D01*
X42332951Y8728416D01*
X42313624Y8747743D01*
X42266335Y8795033D01*
X42248879Y8814422D01*
X42245758Y8818277D01*
X42244698Y8819497D01*
X42169911Y8891568D01*
X42170082Y8891747D01*
X42166406Y8894961D01*
X41699137Y9362230D01*
X41228416Y9832952D01*
X41130259Y9898537D01*
X41129924Y9898761D01*
X41105497Y9915083D01*
X41105484Y9915090D01*
X40968914Y9971658D01*
X40968911Y9971659D01*
X40823920Y10000500D01*
X40823918Y10000500D01*
X37264006Y10000500D01*
X37168718Y10019454D01*
X37087940Y10073428D01*
X37073422Y10087945D01*
X37019451Y10168727D01*
X37000500Y10264007D01*
X37000500Y16083805D01*
X37019454Y16179093D01*
X37073430Y16259875D01*
X37098842Y16281128D01*
X37098624Y16281398D01*
X37105537Y16286980D01*
X37105546Y16286986D01*
X37183707Y16359882D01*
X37199218Y16373199D01*
X37245076Y16409406D01*
X37253865Y16416036D01*
X37314833Y16459929D01*
X37323713Y16466470D01*
X37324127Y16466782D01*
X37333145Y16473739D01*
X37415894Y16539075D01*
X37431703Y16552085D01*
X37432433Y16552711D01*
X37448134Y16566754D01*
X37548063Y16659946D01*
X37553831Y16665410D01*
X37554097Y16665666D01*
X37593198Y16708226D01*
X37604419Y16720439D01*
X37616610Y16734533D01*
X37629816Y16747738D01*
X37725789Y16900478D01*
X37785368Y17070745D01*
X37795074Y17156888D01*
X37805565Y17249997D01*
X37805565Y17250004D01*
X37785369Y17429246D01*
X37785368Y17429255D01*
X37725789Y17599522D01*
X37725786Y17599527D01*
X37725785Y17599530D01*
X37629819Y17752258D01*
X37629817Y17752260D01*
X37629816Y17752262D01*
X37502262Y17879816D01*
X37502259Y17879818D01*
X37502257Y17879820D01*
X37349529Y17975786D01*
X37349524Y17975788D01*
X37349522Y17975789D01*
X37179255Y18035368D01*
X37179251Y18035369D01*
X37179245Y18035370D01*
X37000004Y18055565D01*
X36999996Y18055565D01*
X36820754Y18035370D01*
X36820746Y18035369D01*
X36820745Y18035368D01*
X36650478Y17975789D01*
X36650476Y17975789D01*
X36650476Y17975788D01*
X36650470Y17975786D01*
X36497739Y17879818D01*
X36450359Y17832438D01*
X36430370Y17814498D01*
X36409958Y17798078D01*
X36409948Y17798068D01*
X36316771Y17698158D01*
X36303161Y17682963D01*
X36302548Y17682250D01*
X36289054Y17665877D01*
X36223730Y17583142D01*
X36216986Y17574404D01*
X36216686Y17574007D01*
X36209931Y17564844D01*
X36166047Y17503890D01*
X36159398Y17495074D01*
X36123196Y17449224D01*
X36109873Y17433706D01*
X36036976Y17355539D01*
X36002002Y17314490D01*
X35988540Y17299910D01*
X35667048Y16978417D01*
X35667043Y16978412D01*
X35623936Y16913893D01*
X35623934Y16913890D01*
X35584919Y16855500D01*
X35584913Y16855490D01*
X35528341Y16718912D01*
X35499500Y16573921D01*
X35499500Y10283244D01*
X35480546Y10187956D01*
X35426570Y10107174D01*
X35345788Y10053198D01*
X35334632Y10048888D01*
X35327656Y10046384D01*
X35319823Y10043499D01*
X35319525Y10043386D01*
X35317537Y10042630D01*
X35274464Y10026106D01*
X35215275Y10003400D01*
X35209482Y10001123D01*
X35207322Y10000273D01*
X35207210Y10000228D01*
X35207193Y10000220D01*
X35180826Y9987813D01*
X35157069Y9978096D01*
X35150482Y9975791D01*
X35150479Y9975790D01*
X34997741Y9879819D01*
X34870180Y9752258D01*
X34774214Y9599530D01*
X34774211Y9599524D01*
X34774211Y9599522D01*
X34732844Y9481300D01*
X34714632Y9429254D01*
X34714630Y9429246D01*
X34694435Y9250004D01*
X33775500Y9250004D01*
X33775500Y10026085D01*
X33775501Y10026106D01*
X33775501Y10161607D01*
X33775500Y10161609D01*
X33775342Y10162401D01*
X33751463Y10282451D01*
X33749745Y10286598D01*
X33708034Y10387298D01*
X33704312Y10396285D01*
X33635858Y10498733D01*
X31448430Y12686161D01*
X31394454Y12766943D01*
X31375500Y12862231D01*
X31375500Y14311606D01*
X31375499Y14311615D01*
X31374106Y14318616D01*
X31374102Y14318634D01*
X31354527Y14417049D01*
X31354527Y14417050D01*
X31351463Y14432450D01*
X31351463Y14432452D01*
X31304313Y14546282D01*
X31304310Y14546287D01*
X31235860Y14648730D01*
X31235858Y14648733D01*
X31148733Y14735858D01*
X31148729Y14735861D01*
X30559403Y15325187D01*
X30505427Y15405969D01*
X30486473Y15501257D01*
X30505427Y15596545D01*
X30559398Y15677321D01*
X30629816Y15747738D01*
X30693649Y15849328D01*
X30725785Y15900471D01*
X30725785Y15900473D01*
X30725789Y15900478D01*
X30785368Y16070745D01*
X30790875Y16119629D01*
X30805565Y16249997D01*
X30805565Y16250004D01*
X30785369Y16429246D01*
X30785368Y16429255D01*
X30725789Y16599522D01*
X30725786Y16599527D01*
X30725785Y16599530D01*
X30629819Y16752258D01*
X30629817Y16752260D01*
X30629816Y16752262D01*
X30502262Y16879816D01*
X30502259Y16879818D01*
X30502257Y16879820D01*
X30349525Y16975788D01*
X30330572Y16982420D01*
X30324269Y16984626D01*
X30287330Y17001027D01*
X30279805Y17005130D01*
X30171581Y17045412D01*
X30171576Y17045414D01*
X30160630Y17049346D01*
X30160625Y17049348D01*
X30160602Y17049356D01*
X30160142Y17049515D01*
X30149909Y17052937D01*
X30142831Y17055220D01*
X30131981Y17058719D01*
X30118333Y17063121D01*
X30033467Y17110413D01*
X30028039Y17115166D01*
X30010904Y17130618D01*
X29979274Y17156888D01*
X29979272Y17156889D01*
X29978851Y17157239D01*
X29961870Y17172720D01*
X29822930Y17311660D01*
X29768954Y17392442D01*
X29750000Y17487730D01*
X29750000Y18445435D01*
X29768954Y18540723D01*
X29822930Y18621505D01*
X29903712Y18675481D01*
X29986215Y18691892D01*
X29986105Y18692869D01*
X29997688Y18694175D01*
X29999000Y18694435D01*
X30000004Y18694435D01*
X30139908Y18710199D01*
X30179255Y18714632D01*
X30349522Y18774211D01*
X30349527Y18774215D01*
X30349529Y18774215D01*
X30502257Y18870181D01*
X30502256Y18870181D01*
X30502262Y18870184D01*
X30629816Y18997738D01*
X30725789Y19150478D01*
X30725790Y19150482D01*
X30731876Y19160167D01*
X30798621Y19230765D01*
X30887303Y19270448D01*
X30962986Y19275864D01*
X31104525Y19264299D01*
X31137373Y19259390D01*
X31359530Y19210852D01*
X31389715Y19202230D01*
X31621627Y19119842D01*
X31648162Y19108645D01*
X31688556Y19088769D01*
X31688912Y19088594D01*
X31700158Y19079980D01*
X31762301Y19058236D01*
X31762301Y19058235D01*
X31775748Y19053530D01*
X31779359Y19052196D01*
X31785340Y19050163D01*
X31787441Y19049439D01*
X31852323Y19026736D01*
X31902558Y19002544D01*
X31906606Y19000000D01*
X31913311Y18995787D01*
X31946779Y18970595D01*
X31987205Y18934455D01*
X31989250Y18932823D01*
X31989265Y18932813D01*
X31989272Y18932807D01*
X32034805Y18900477D01*
X32035481Y18899997D01*
X32146275Y18830331D01*
X32189800Y18795610D01*
X32777078Y18208332D01*
X32787880Y18196821D01*
X32807715Y18174296D01*
X32807717Y18174295D01*
X32807720Y18174292D01*
X32823242Y18161058D01*
X32837763Y18147647D01*
X32884139Y18101271D01*
X32884142Y18101267D01*
X32927857Y18057552D01*
X32971267Y18014142D01*
X32971268Y18014141D01*
X33003395Y17992674D01*
X33073708Y17945691D01*
X33073711Y17945690D01*
X33073714Y17945688D01*
X33137866Y17919116D01*
X33137868Y17919115D01*
X33137870Y17919114D01*
X33198852Y17893854D01*
X33198537Y17893096D01*
X33244937Y17871945D01*
X33247735Y17870187D01*
X33247738Y17870184D01*
X33400478Y17774211D01*
X33570745Y17714632D01*
X33570754Y17714631D01*
X33749996Y17694435D01*
X33750000Y17694435D01*
X33750004Y17694435D01*
X33896141Y17710901D01*
X33929255Y17714632D01*
X34099522Y17774211D01*
X34099527Y17774215D01*
X34099529Y17774215D01*
X34252257Y17870181D01*
X34252256Y17870181D01*
X34252262Y17870184D01*
X34379816Y17997738D01*
X34418366Y18059090D01*
X34475785Y18150471D01*
X34475785Y18150473D01*
X34475789Y18150478D01*
X34529607Y18304282D01*
X34578965Y18387957D01*
X34656593Y18446378D01*
X34750668Y18470645D01*
X34806815Y18465908D01*
X34806848Y18466197D01*
X34817181Y18465033D01*
X34820058Y18464790D01*
X34820731Y18464637D01*
X34820745Y18464632D01*
X34820759Y18464631D01*
X34820761Y18464630D01*
X34999996Y18444435D01*
X35000000Y18444435D01*
X35000004Y18444435D01*
X35139908Y18460199D01*
X35179255Y18464632D01*
X35349522Y18524211D01*
X35349527Y18524215D01*
X35349529Y18524215D01*
X35502257Y18620181D01*
X35502256Y18620181D01*
X35502262Y18620184D01*
X35629816Y18747738D01*
X35706754Y18870184D01*
X35725785Y18900471D01*
X35725785Y18900473D01*
X35725789Y18900478D01*
X35785368Y19070745D01*
X35785369Y19070758D01*
X35788481Y19084384D01*
X35790085Y19084018D01*
X35814604Y19160944D01*
X35877285Y19235174D01*
X35963602Y19279768D01*
X36032536Y19289500D01*
X36799771Y19289500D01*
X36799778Y19289500D01*
X36880578Y19295859D01*
X36880583Y19295861D01*
X36883744Y19296403D01*
X36925915Y19300000D01*
X38237055Y19300000D01*
X38279226Y19296403D01*
X38279506Y19296355D01*
X38360248Y19290001D01*
X38360263Y19290000D01*
X38599999Y19290000D01*
X38600000Y19290001D01*
X38600000Y21541000D01*
X38618954Y21636288D01*
X38672930Y21717070D01*
X38753712Y21771046D01*
X38849000Y21790000D01*
X38851000Y21790000D01*
X38946288Y21771046D01*
G37*
%TD.AperFunction*%
%TA.AperFunction,Conductor*%
G36*
X41489775Y19270546D02*
G01*
X41570557Y19216570D01*
X41624533Y19135788D01*
X41643487Y19040500D01*
X41624533Y18945212D01*
X41619275Y18932518D01*
X41619274Y18932516D01*
X41598537Y18882454D01*
X41598536Y18882452D01*
X41586660Y18822740D01*
X41586660Y18822739D01*
X41574938Y18763806D01*
X41574930Y18763767D01*
X41574500Y18761610D01*
X41574500Y18761606D01*
X41574500Y17861607D01*
X41574500Y17738393D01*
X41582503Y17698158D01*
X41582875Y17696291D01*
X41582876Y17696284D01*
X41598535Y17617554D01*
X41598538Y17617544D01*
X41607889Y17594969D01*
X41645688Y17503714D01*
X41668942Y17468913D01*
X41668943Y17468911D01*
X41695447Y17429246D01*
X41714142Y17401267D01*
X41801267Y17314142D01*
X41801270Y17314140D01*
X42089139Y17026271D01*
X42089142Y17026267D01*
X42176267Y16939142D01*
X42227486Y16904919D01*
X42227489Y16904916D01*
X42227490Y16904916D01*
X42278714Y16870688D01*
X42339068Y16845690D01*
X42339071Y16845687D01*
X42387658Y16825563D01*
X42392548Y16823537D01*
X42433105Y16815470D01*
X42513393Y16799500D01*
X42513394Y16799500D01*
X43335500Y16799500D01*
X43430788Y16780546D01*
X43511570Y16726570D01*
X43565546Y16645788D01*
X43584500Y16550500D01*
X43584500Y16186031D01*
X43584534Y16185308D01*
X43584532Y16174233D01*
X43584533Y16174223D01*
X43617764Y16007004D01*
X43617765Y16007001D01*
X43617766Y16006998D01*
X43682353Y15851000D01*
X43682989Y15849466D01*
X43682993Y15849457D01*
X43777697Y15707684D01*
X43884093Y15601267D01*
X43898246Y15587111D01*
X43909071Y15579877D01*
X43977763Y15511171D01*
X44014934Y15421408D01*
X44014925Y15324253D01*
X44000000Y15288231D01*
X44000000Y15250000D01*
X44000000Y13250000D01*
X44000001Y13250000D01*
X49000000Y13250000D01*
X50750500Y13250000D01*
X50845788Y13231046D01*
X50926570Y13177070D01*
X50980546Y13096288D01*
X50999500Y13001000D01*
X50999500Y7414009D01*
X50980546Y7318721D01*
X50926570Y7237939D01*
X50926569Y7237939D01*
X49933765Y6245136D01*
X49899887Y6216798D01*
X49894469Y6213030D01*
X49894455Y6213019D01*
X49816295Y6140128D01*
X49800776Y6126804D01*
X49754926Y6090602D01*
X49746106Y6083951D01*
X49723182Y6067447D01*
X49634776Y6027154D01*
X49617714Y6023760D01*
X49589825Y6019219D01*
X49578887Y6017687D01*
X49520878Y6010866D01*
X49500483Y6009313D01*
X49447671Y6007471D01*
X49393673Y6005587D01*
X49389759Y6005275D01*
X49339904Y6001291D01*
X49320074Y6000500D01*
X48676079Y6000500D01*
X48531088Y5971659D01*
X48531085Y5971658D01*
X48394515Y5915090D01*
X48394502Y5915083D01*
X48369744Y5898539D01*
X48369740Y5898536D01*
X48271584Y5832953D01*
X47264308Y4825679D01*
X47234493Y4800228D01*
X46991727Y4624040D01*
X46973930Y4612254D01*
X46806438Y4511388D01*
X46749047Y4476826D01*
X46741209Y4472106D01*
X46720258Y4460817D01*
X46497244Y4354068D01*
X46473065Y4344021D01*
X46259556Y4268199D01*
X46232410Y4260263D01*
X46215821Y4256421D01*
X46159640Y4250000D01*
X44920105Y4250000D01*
X44824817Y4268954D01*
X44744035Y4322930D01*
X44700022Y4382534D01*
X44650123Y4476827D01*
X44643999Y4489220D01*
X44578293Y4632035D01*
X44555685Y4726523D01*
X44555500Y4736108D01*
X44555500Y10631602D01*
X44555500Y10631606D01*
X44555232Y10632951D01*
X44531463Y10752451D01*
X44523507Y10771658D01*
X44509982Y10804311D01*
X44506960Y10811606D01*
X44484312Y10866285D01*
X44467256Y10891810D01*
X44415858Y10968733D01*
X44328733Y11055858D01*
X44328729Y11055861D01*
X40923430Y14461160D01*
X40869454Y14541942D01*
X40850500Y14637230D01*
X40850500Y19040500D01*
X40869454Y19135788D01*
X40923430Y19216570D01*
X41004212Y19270546D01*
X41099500Y19289500D01*
X41394487Y19289500D01*
X41489775Y19270546D01*
G37*
%TD.AperFunction*%
%TA.AperFunction,Conductor*%
G36*
X6896288Y29480546D02*
G01*
X6977070Y29426570D01*
X7031046Y29345788D01*
X7050000Y29250500D01*
X7050000Y27895747D01*
X7041517Y27831305D01*
X7039937Y27825409D01*
X7039935Y27825402D01*
X7019341Y27590006D01*
X7019341Y27589995D01*
X7039935Y27354599D01*
X7039937Y27354592D01*
X7041516Y27348699D01*
X7050000Y27284256D01*
X7050000Y26103593D01*
X7034302Y26016581D01*
X7030909Y26007486D01*
X7030908Y26007481D01*
X7024500Y25947877D01*
X7024500Y24152135D01*
X7024501Y24152131D01*
X7030908Y24092518D01*
X7034301Y24083423D01*
X7050000Y23996408D01*
X7050000Y23133454D01*
X7041515Y23069008D01*
X7025860Y23010586D01*
X7025859Y23010578D01*
X7019500Y22929778D01*
X7019500Y20150222D01*
X7020514Y20137341D01*
X7025859Y20069423D01*
X7025860Y20069416D01*
X7076210Y19881510D01*
X7076211Y19881506D01*
X7164534Y19708161D01*
X7164537Y19708157D01*
X7252281Y19599803D01*
X7286968Y19556968D01*
X7286973Y19556964D01*
X7436365Y19435988D01*
X7438160Y19434535D01*
X7611504Y19346212D01*
X7799422Y19295859D01*
X7880222Y19289500D01*
X7944407Y19289500D01*
X7983769Y19285066D01*
X7983949Y19286227D01*
X7992728Y19284874D01*
X7992733Y19284873D01*
X8244525Y19264299D01*
X8277373Y19259390D01*
X8499526Y19210853D01*
X8529725Y19202226D01*
X8761607Y19119848D01*
X8788179Y19108636D01*
X8846421Y19079980D01*
X8889396Y19058835D01*
X8893185Y19056971D01*
X8970317Y18997897D01*
X9009270Y18938046D01*
X9011603Y18933000D01*
X9020615Y18910751D01*
X9024207Y18900485D01*
X9024210Y18900480D01*
X9024211Y18900478D01*
X9120184Y18747738D01*
X9247738Y18620184D01*
X9247740Y18620183D01*
X9247742Y18620181D01*
X9400470Y18524215D01*
X9400473Y18524214D01*
X9400478Y18524211D01*
X9570745Y18464632D01*
X9570754Y18464631D01*
X9749996Y18444435D01*
X9750000Y18444435D01*
X9750004Y18444435D01*
X9889908Y18460199D01*
X9929255Y18464632D01*
X9990398Y18486028D01*
X10072637Y18500000D01*
X10440094Y18500000D01*
X10535382Y18481046D01*
X10548124Y18475345D01*
X10550474Y18474214D01*
X10550478Y18474211D01*
X10720745Y18414632D01*
X10720754Y18414631D01*
X10899996Y18394435D01*
X10900000Y18394435D01*
X10900004Y18394435D01*
X11052922Y18411665D01*
X11079255Y18414632D01*
X11249522Y18474211D01*
X11249529Y18474216D01*
X11251876Y18475345D01*
X11255240Y18476213D01*
X11262720Y18478830D01*
X11262940Y18478199D01*
X11345953Y18499609D01*
X11359906Y18500000D01*
X12246898Y18500000D01*
X12342186Y18481046D01*
X12385237Y18458035D01*
X12403714Y18445689D01*
X12517548Y18398537D01*
X12638393Y18374500D01*
X12638394Y18374500D01*
X13387770Y18374500D01*
X13483058Y18355546D01*
X13563840Y18301570D01*
X22201570Y9663840D01*
X22255546Y9583058D01*
X22274500Y9487770D01*
X22274500Y7862230D01*
X22255546Y7766942D01*
X22201570Y7686160D01*
X21463840Y6948430D01*
X21383058Y6894454D01*
X21287770Y6875500D01*
X20362230Y6875500D01*
X20266942Y6894454D01*
X20186160Y6948430D01*
X20161917Y6972673D01*
X20136185Y7003966D01*
X20136088Y7003889D01*
X20133125Y7007687D01*
X20131220Y7010004D01*
X20130616Y7010905D01*
X20115172Y7028032D01*
X20065437Y7111487D01*
X20063130Y7118299D01*
X20052926Y7149934D01*
X20049303Y7160745D01*
X20049133Y7161234D01*
X20045414Y7171570D01*
X20005133Y7279796D01*
X20002145Y7287624D01*
X20002003Y7287987D01*
X19988158Y7317798D01*
X19978970Y7340430D01*
X19975789Y7349522D01*
X19933047Y7417546D01*
X19879819Y7502258D01*
X19879817Y7502260D01*
X19879816Y7502262D01*
X19752262Y7629816D01*
X19752259Y7629818D01*
X19752257Y7629820D01*
X19599529Y7725786D01*
X19599524Y7725788D01*
X19599522Y7725789D01*
X19429255Y7785368D01*
X19429251Y7785369D01*
X19429245Y7785370D01*
X19250004Y7805565D01*
X19249996Y7805565D01*
X19070754Y7785370D01*
X19070746Y7785369D01*
X19070745Y7785368D01*
X18900478Y7725789D01*
X18900476Y7725789D01*
X18900476Y7725788D01*
X18900470Y7725786D01*
X18747742Y7629820D01*
X18620180Y7502258D01*
X18524214Y7349530D01*
X18524211Y7349524D01*
X18524211Y7349522D01*
X18467049Y7186160D01*
X18464632Y7179254D01*
X18464630Y7179246D01*
X18444435Y7000004D01*
X18444435Y7000000D01*
X18448434Y6964509D01*
X18450000Y6936628D01*
X18450000Y6574500D01*
X18431046Y6479212D01*
X18377070Y6398430D01*
X18296288Y6344454D01*
X18201000Y6325500D01*
X15799000Y6325500D01*
X15703712Y6344454D01*
X15622930Y6398430D01*
X15568954Y6479212D01*
X15550000Y6574500D01*
X15550000Y7436629D01*
X15551566Y7464509D01*
X15553255Y7479494D01*
X15555565Y7500000D01*
X15555565Y7500004D01*
X15555565Y7511614D01*
X15555217Y7520800D01*
X15555082Y7520795D01*
X15553340Y7570745D01*
X15550009Y7666242D01*
X15548855Y7687029D01*
X15548782Y7687987D01*
X15546784Y7708612D01*
X15534471Y7813326D01*
X15533042Y7824418D01*
X15532970Y7824932D01*
X15531288Y7836044D01*
X15519215Y7910194D01*
X15517683Y7921126D01*
X15516374Y7932259D01*
X15510862Y7979130D01*
X15509310Y7999527D01*
X15509135Y8004535D01*
X15505587Y8106324D01*
X15505067Y8112835D01*
X15501291Y8160119D01*
X15500500Y8179944D01*
X15500500Y13073919D01*
X15500499Y13073921D01*
X15487798Y13137770D01*
X15471658Y13218913D01*
X15415084Y13355495D01*
X15332951Y13478416D01*
X15318446Y13492921D01*
X15228416Y13582952D01*
X15228416Y13582951D01*
X13745128Y15066239D01*
X13716779Y15100134D01*
X13713018Y15105541D01*
X13713017Y15105543D01*
X13713014Y15105546D01*
X13713012Y15105549D01*
X13644275Y15179254D01*
X13640122Y15183708D01*
X13626814Y15199208D01*
X13590566Y15245116D01*
X13583947Y15253895D01*
X13540121Y15314767D01*
X13540106Y15314787D01*
X13540071Y15314836D01*
X13533530Y15323716D01*
X13533218Y15324130D01*
X13526260Y15333150D01*
X13460918Y15415906D01*
X13451691Y15427118D01*
X13447919Y15431701D01*
X13447256Y15432474D01*
X13433241Y15448144D01*
X13340047Y15548074D01*
X13334182Y15554257D01*
X13334154Y15554287D01*
X13333936Y15554513D01*
X13333932Y15554516D01*
X13333926Y15554523D01*
X13279337Y15604617D01*
X13265459Y15616620D01*
X13252261Y15629818D01*
X13099529Y15725786D01*
X13099524Y15725788D01*
X13099522Y15725789D01*
X12929255Y15785368D01*
X12929251Y15785369D01*
X12929245Y15785370D01*
X12750004Y15805565D01*
X12749996Y15805565D01*
X12570754Y15785370D01*
X12570746Y15785369D01*
X12570745Y15785368D01*
X12400478Y15725789D01*
X12400476Y15725789D01*
X12400476Y15725788D01*
X12400470Y15725786D01*
X12247742Y15629820D01*
X12120180Y15502258D01*
X12024214Y15349530D01*
X12024211Y15349524D01*
X12024211Y15349522D01*
X11966189Y15183703D01*
X11964632Y15179254D01*
X11964630Y15179246D01*
X11944435Y15000004D01*
X11944435Y14999997D01*
X11964630Y14820755D01*
X11964631Y14820749D01*
X11964632Y14820745D01*
X12024211Y14650478D01*
X12024212Y14650477D01*
X12024214Y14650471D01*
X12120182Y14497740D01*
X12167570Y14450351D01*
X12185512Y14430360D01*
X12201927Y14409955D01*
X12253100Y14362230D01*
X12301851Y14316765D01*
X12317557Y14302717D01*
X12318287Y14302091D01*
X12334094Y14289082D01*
X12416850Y14223740D01*
X12425870Y14216782D01*
X12426284Y14216470D01*
X12435164Y14209929D01*
X12435204Y14209900D01*
X12435207Y14209898D01*
X12496102Y14166055D01*
X12504911Y14159411D01*
X12550780Y14123196D01*
X12566293Y14109879D01*
X12644457Y14036983D01*
X12644483Y14036961D01*
X12644485Y14036959D01*
X12685537Y14001977D01*
X12700109Y13988523D01*
X13333139Y13355493D01*
X13926570Y12762063D01*
X13980546Y12681281D01*
X13999500Y12585993D01*
X13999500Y8156836D01*
X13995581Y8112835D01*
X13994414Y8106337D01*
X13994412Y8106324D01*
X13990687Y7999518D01*
X13989134Y7979120D01*
X13982313Y7921112D01*
X13980781Y7910179D01*
X13968708Y7836030D01*
X13966913Y7824114D01*
X13966848Y7823645D01*
X13965531Y7813361D01*
X13953215Y7708624D01*
X13951240Y7688299D01*
X13951170Y7687384D01*
X13949990Y7666272D01*
X13945224Y7529625D01*
X13944980Y7519988D01*
X13944917Y7516026D01*
X13944649Y7516031D01*
X13944435Y7511696D01*
X13944435Y7499999D01*
X13945793Y7487943D01*
X13947118Y7471006D01*
X13947822Y7454982D01*
X13950000Y7425044D01*
X13950000Y6574500D01*
X13931046Y6479212D01*
X13877070Y6398430D01*
X13796288Y6344454D01*
X13701000Y6325500D01*
X12797747Y6325500D01*
X12702459Y6344454D01*
X12621677Y6398430D01*
X12567701Y6479212D01*
X12550313Y6546621D01*
X12535369Y6679246D01*
X12535368Y6679255D01*
X12475789Y6849522D01*
X12464478Y6867522D01*
X12429830Y6958285D01*
X12432553Y7055402D01*
X12464478Y7132478D01*
X12475789Y7150478D01*
X12535368Y7320745D01*
X12549513Y7446288D01*
X12555565Y7499997D01*
X12555565Y7500004D01*
X12535369Y7679246D01*
X12535368Y7679255D01*
X12475789Y7849522D01*
X12475786Y7849527D01*
X12475785Y7849530D01*
X12379819Y8002258D01*
X12379817Y8002260D01*
X12379816Y8002262D01*
X12252262Y8129816D01*
X12252259Y8129818D01*
X12252257Y8129820D01*
X12099525Y8225788D01*
X12096443Y8226867D01*
X12074269Y8234626D01*
X12037330Y8251027D01*
X12029805Y8255130D01*
X11921581Y8295412D01*
X11921576Y8295414D01*
X11910630Y8299346D01*
X11910625Y8299348D01*
X11910602Y8299356D01*
X11910142Y8299515D01*
X11899909Y8302937D01*
X11892831Y8305220D01*
X11881981Y8308719D01*
X11868333Y8313121D01*
X11783467Y8360413D01*
X11778039Y8365166D01*
X11769745Y8372646D01*
X11760899Y8380623D01*
X11728841Y8407248D01*
X11711861Y8422729D01*
X10948430Y9186161D01*
X10894454Y9266942D01*
X10875500Y9362230D01*
X10875500Y13811602D01*
X10875499Y13811611D01*
X10873595Y13821180D01*
X10873591Y13821200D01*
X10851463Y13932453D01*
X10849783Y13936508D01*
X10849776Y13936524D01*
X10822664Y14001977D01*
X10804311Y14046286D01*
X10790103Y14067549D01*
X10752921Y14123196D01*
X10735858Y14148733D01*
X10648733Y14235858D01*
X10648732Y14235859D01*
X10210053Y14674537D01*
X10210051Y14674540D01*
X10210051Y14674539D01*
X10195859Y14688731D01*
X10195858Y14688733D01*
X10108733Y14775858D01*
X10108729Y14775861D01*
X10108727Y14775863D01*
X10104424Y14778738D01*
X10100037Y14782995D01*
X10099275Y14783620D01*
X10099327Y14783684D01*
X10039996Y14841252D01*
X9958146Y14956093D01*
X9948527Y14970642D01*
X9869285Y15100134D01*
X9863545Y15109515D01*
X9854085Y15126418D01*
X9805465Y15221840D01*
X9805464Y15221842D01*
X9721776Y15325187D01*
X9683032Y15373032D01*
X9657386Y15393800D01*
X9531843Y15495463D01*
X9531839Y15495466D01*
X9358494Y15583789D01*
X9358490Y15583790D01*
X9170584Y15634140D01*
X9170579Y15634141D01*
X9170578Y15634141D01*
X9089778Y15640500D01*
X6310222Y15640500D01*
X6229422Y15634141D01*
X6229415Y15634140D01*
X6041509Y15583790D01*
X6041505Y15583789D01*
X5868160Y15495466D01*
X5868156Y15495463D01*
X5716973Y15373037D01*
X5716963Y15373027D01*
X5594537Y15221844D01*
X5594534Y15221840D01*
X5506211Y15048495D01*
X5506210Y15048491D01*
X5455860Y14860585D01*
X5455859Y14860578D01*
X5449500Y14779778D01*
X5449500Y14779771D01*
X5449500Y13800223D01*
X5449692Y13795337D01*
X5449557Y13795332D01*
X5450000Y13784087D01*
X5450000Y13649000D01*
X5431046Y13553712D01*
X5377070Y13472930D01*
X5296288Y13418954D01*
X5201000Y13400000D01*
X3949000Y13400000D01*
X3853712Y13418954D01*
X3772930Y13472930D01*
X3718954Y13553712D01*
X3700000Y13649000D01*
X3700000Y15851000D01*
X3718954Y15946288D01*
X3772930Y16027070D01*
X3853712Y16081046D01*
X3949000Y16100000D01*
X5322828Y16100000D01*
X5322829Y16100001D01*
X5366726Y16104720D01*
X2647516Y18823930D01*
X2593540Y18904712D01*
X2574586Y19000000D01*
X2574586Y19000001D01*
X3178553Y19000001D01*
X5746140Y16432414D01*
X5768597Y16492623D01*
X5768597Y16492624D01*
X5774999Y16552168D01*
X5775000Y16552175D01*
X5775000Y21447825D01*
X5774999Y21447833D01*
X5768598Y21507372D01*
X5768595Y21507383D01*
X5746140Y21567588D01*
X3178553Y19000001D01*
X2574586Y19000001D01*
X2593540Y19095288D01*
X2647516Y19176070D01*
X2647517Y19176070D01*
X2825000Y19353553D01*
X5366725Y21895281D01*
X5322823Y21900000D01*
X499500Y21900000D01*
X404212Y21918954D01*
X323430Y21972930D01*
X269454Y22053712D01*
X250500Y22149000D01*
X250500Y26176834D01*
X250501Y26176843D01*
X250501Y26243475D01*
X250842Y26256506D01*
X253112Y26299828D01*
X256857Y26371288D01*
X1649500Y26371288D01*
X1649500Y26128712D01*
X1652476Y26106108D01*
X1681162Y25888210D01*
X1681163Y25888205D01*
X1743940Y25653918D01*
X1743948Y25653895D01*
X1836770Y25429799D01*
X1836778Y25429783D01*
X1958058Y25219721D01*
X1958064Y25219711D01*
X2105729Y25027269D01*
X2105738Y25027259D01*
X2277258Y24855739D01*
X2277268Y24855730D01*
X2349897Y24800000D01*
X2469711Y24708064D01*
X2469720Y24708059D01*
X2679782Y24586779D01*
X2679798Y24586771D01*
X2819858Y24528758D01*
X2903900Y24493946D01*
X2903911Y24493943D01*
X2903917Y24493941D01*
X3087021Y24444879D01*
X3138211Y24431162D01*
X3378712Y24399500D01*
X3621288Y24399500D01*
X3861789Y24431162D01*
X4023275Y24474433D01*
X4096082Y24493941D01*
X4096084Y24493942D01*
X4096100Y24493946D01*
X4300353Y24578550D01*
X4320201Y24586771D01*
X4320206Y24586774D01*
X4320212Y24586776D01*
X4530289Y24708064D01*
X4722738Y24855735D01*
X4894265Y25027262D01*
X5041936Y25219711D01*
X5163224Y25429788D01*
X5256054Y25653900D01*
X5318838Y25888211D01*
X5350500Y26128712D01*
X5350500Y26371288D01*
X5318838Y26611789D01*
X5299848Y26682660D01*
X5256059Y26846083D01*
X5256057Y26846089D01*
X5256054Y26846100D01*
X5217899Y26938215D01*
X5163229Y27070202D01*
X5163221Y27070218D01*
X5041941Y27280280D01*
X5041935Y27280290D01*
X5011135Y27320429D01*
X4894265Y27472738D01*
X4722738Y27644265D01*
X4722735Y27644267D01*
X4722731Y27644271D01*
X4530289Y27791936D01*
X4530279Y27791942D01*
X4320217Y27913222D01*
X4320201Y27913230D01*
X4096105Y28006052D01*
X4096103Y28006053D01*
X4096100Y28006054D01*
X4096096Y28006055D01*
X4096082Y28006060D01*
X3861795Y28068837D01*
X3861790Y28068838D01*
X3621288Y28100500D01*
X3378712Y28100500D01*
X3138209Y28068838D01*
X3138204Y28068837D01*
X2903917Y28006060D01*
X2903894Y28006052D01*
X2679798Y27913230D01*
X2679782Y27913222D01*
X2469720Y27791942D01*
X2469710Y27791936D01*
X2277268Y27644271D01*
X2277258Y27644262D01*
X2105738Y27472742D01*
X2105729Y27472732D01*
X1958064Y27280290D01*
X1958058Y27280280D01*
X1836778Y27070218D01*
X1836770Y27070202D01*
X1743948Y26846106D01*
X1743940Y26846083D01*
X1681163Y26611796D01*
X1681162Y26611791D01*
X1660321Y26453483D01*
X1649500Y26371288D01*
X256857Y26371288D01*
X267619Y26576648D01*
X270342Y26602552D01*
X319470Y26912735D01*
X324883Y26938201D01*
X406168Y27241555D01*
X414216Y27266324D01*
X414217Y27266325D01*
X493451Y27472738D01*
X526761Y27559513D01*
X537355Y27583310D01*
X679936Y27863142D01*
X692946Y27885676D01*
X863998Y28149073D01*
X879307Y28170143D01*
X1076943Y28414203D01*
X1094364Y28433552D01*
X1316448Y28655636D01*
X1335797Y28673057D01*
X1579857Y28870693D01*
X1600927Y28886002D01*
X1864324Y29057054D01*
X1886858Y29070064D01*
X2166690Y29212645D01*
X2190487Y29223239D01*
X2483676Y29335784D01*
X2508445Y29343832D01*
X2811799Y29425117D01*
X2837265Y29430530D01*
X3147448Y29479658D01*
X3173352Y29482381D01*
X3436564Y29496175D01*
X3493514Y29499159D01*
X3506545Y29499500D01*
X3544170Y29499500D01*
X6801000Y29499500D01*
X6896288Y29480546D01*
G37*
%TD.AperFunction*%
%TA.AperFunction,Conductor*%
G36*
X61435763Y29499499D02*
G01*
X61455829Y29499499D01*
X61493474Y29499499D01*
X61506505Y29499158D01*
X61537707Y29497523D01*
X61826644Y29482381D01*
X61852552Y29479657D01*
X62162729Y29430530D01*
X62188185Y29425120D01*
X62491566Y29343829D01*
X62516323Y29335784D01*
X62809512Y29223239D01*
X62833316Y29212641D01*
X63113121Y29070074D01*
X63135691Y29057044D01*
X63396522Y28887657D01*
X63399062Y28886008D01*
X63420144Y28870691D01*
X63477696Y28824087D01*
X63664192Y28673066D01*
X63683562Y28655626D01*
X63905625Y28433563D01*
X63923064Y28414194D01*
X64120686Y28170151D01*
X64136006Y28149065D01*
X64307041Y27885695D01*
X64320073Y27863123D01*
X64462638Y27583323D01*
X64473238Y27559514D01*
X64585783Y27266325D01*
X64593831Y27241556D01*
X64675116Y26938201D01*
X64680531Y26912721D01*
X64729655Y26602561D01*
X64732380Y26576641D01*
X64749158Y26256507D01*
X64749499Y26243475D01*
X64749499Y26176843D01*
X64749500Y26176834D01*
X64749500Y19999000D01*
X64730546Y19903712D01*
X64676570Y19822930D01*
X64595788Y19768954D01*
X64500500Y19750000D01*
X62367330Y19750000D01*
X62272042Y19768954D01*
X62191260Y19822930D01*
X62137284Y19903712D01*
X62118330Y19999000D01*
X62137284Y20094288D01*
X62160297Y20137341D01*
X62165084Y20144505D01*
X62221658Y20281087D01*
X62250500Y20426082D01*
X62250500Y23073918D01*
X62250500Y23081047D01*
X62250000Y23091228D01*
X62250000Y24402480D01*
X62268954Y24497768D01*
X62322930Y24578550D01*
X62374494Y24618117D01*
X62530289Y24708064D01*
X62722738Y24855735D01*
X62894265Y25027262D01*
X63041936Y25219711D01*
X63163224Y25429788D01*
X63256054Y25653900D01*
X63318838Y25888211D01*
X63350500Y26128712D01*
X63350500Y26371288D01*
X63318838Y26611789D01*
X63299848Y26682660D01*
X63256059Y26846083D01*
X63256057Y26846089D01*
X63256054Y26846100D01*
X63217899Y26938215D01*
X63163229Y27070202D01*
X63163221Y27070218D01*
X63041941Y27280280D01*
X63041935Y27280290D01*
X63011135Y27320429D01*
X62894265Y27472738D01*
X62722738Y27644265D01*
X62722735Y27644267D01*
X62722731Y27644271D01*
X62530289Y27791936D01*
X62530279Y27791942D01*
X62320217Y27913222D01*
X62320201Y27913230D01*
X62096105Y28006052D01*
X62096103Y28006053D01*
X62096100Y28006054D01*
X62096096Y28006055D01*
X62096082Y28006060D01*
X61861795Y28068837D01*
X61861790Y28068838D01*
X61621288Y28100500D01*
X61378712Y28100500D01*
X61138209Y28068838D01*
X61138204Y28068837D01*
X60903917Y28006060D01*
X60903894Y28006052D01*
X60679798Y27913230D01*
X60679782Y27913222D01*
X60469720Y27791942D01*
X60469712Y27791937D01*
X60326270Y27681871D01*
X60239134Y27638901D01*
X60142187Y27632547D01*
X60050188Y27663778D01*
X59977144Y27727837D01*
X59944646Y27784126D01*
X59915084Y27855495D01*
X59876511Y27913224D01*
X59866434Y27928306D01*
X59832956Y27978411D01*
X59832954Y27978413D01*
X59832952Y27978416D01*
X58736938Y29074430D01*
X58682962Y29155212D01*
X58664008Y29250500D01*
X58682962Y29345788D01*
X58736938Y29426570D01*
X58817720Y29480546D01*
X58913008Y29499500D01*
X61435751Y29499500D01*
X61435763Y29499499D01*
G37*
%TD.AperFunction*%
%TA.AperFunction,Conductor*%
G36*
X58345788Y26731046D02*
G01*
X58426570Y26677070D01*
X58480546Y26596288D01*
X58499500Y26501000D01*
X58499500Y25176080D01*
X58528341Y25031089D01*
X58584915Y24894508D01*
X58584919Y24894499D01*
X58602928Y24867547D01*
X58602929Y24867546D01*
X58667045Y24771587D01*
X58667047Y24771585D01*
X58667048Y24771584D01*
X58927070Y24511562D01*
X58981046Y24430783D01*
X59000000Y24335494D01*
X59000000Y20914508D01*
X58981046Y20819220D01*
X58927070Y20738438D01*
X58511562Y20322930D01*
X58430780Y20268954D01*
X58335492Y20250000D01*
X58229500Y20250000D01*
X58134212Y20268954D01*
X58053430Y20322930D01*
X57999454Y20403712D01*
X57980500Y20499000D01*
X57980500Y22929771D01*
X57980500Y22929778D01*
X57974141Y23010578D01*
X57923788Y23198496D01*
X57835465Y23371840D01*
X57812274Y23400478D01*
X57713036Y23523027D01*
X57713032Y23523032D01*
X57682860Y23547465D01*
X57551698Y23653678D01*
X57552734Y23654958D01*
X57494166Y23712014D01*
X57455815Y23801280D01*
X57454544Y23898426D01*
X57490546Y23988665D01*
X57523305Y24029118D01*
X57673107Y24178921D01*
X57808600Y24372424D01*
X57908433Y24586515D01*
X57908433Y24586517D01*
X57965636Y24799999D01*
X57965636Y24800000D01*
X57068012Y24800000D01*
X57100925Y24857007D01*
X57135000Y24984174D01*
X57135000Y25115826D01*
X57100925Y25242993D01*
X57068012Y25300000D01*
X57965636Y25300000D01*
X57965636Y25300002D01*
X57908433Y25513484D01*
X57908429Y25513495D01*
X57808603Y25727572D01*
X57808599Y25727580D01*
X57673110Y25921077D01*
X57506075Y26088112D01*
X57466637Y26115727D01*
X57399454Y26185909D01*
X57364242Y26276458D01*
X57366362Y26373590D01*
X57405491Y26462517D01*
X57466636Y26523662D01*
X57506401Y26551505D01*
X57631968Y26677073D01*
X57712747Y26731046D01*
X57808035Y26750000D01*
X58250500Y26750000D01*
X58345788Y26731046D01*
G37*
%TD.AperFunction*%
%TD*%
%TA.AperFunction,Conductor*%
%TO.N,GPIO15*%
G36*
X9216762Y20987037D02*
G01*
X9223088Y20980699D01*
X9223544Y20979376D01*
X9332995Y20587011D01*
X9445975Y20225493D01*
X9445979Y20225481D01*
X9558969Y19907430D01*
X9671959Y19632879D01*
X9729569Y19515072D01*
X9781278Y19409333D01*
X9781834Y19400395D01*
X9779040Y19395920D01*
X9614772Y19231652D01*
X9606499Y19228225D01*
X9600271Y19230020D01*
X9290113Y19425046D01*
X8972077Y19581528D01*
X8972079Y19581528D01*
X8654016Y19694523D01*
X8335980Y19764010D01*
X8335971Y19764011D01*
X8033902Y19788694D01*
X8025936Y19792783D01*
X8023194Y19801308D01*
X8024041Y19804822D01*
X8066427Y19907443D01*
X8367438Y20636218D01*
X8373761Y20642553D01*
X9207807Y20987046D01*
X9216762Y20987037D01*
G37*
%TD.AperFunction*%
%TD*%
%TA.AperFunction,Conductor*%
%TO.N,GPIO4*%
G36*
X43092662Y20948012D02*
G01*
X43926143Y20642381D01*
X43932731Y20636315D01*
X43932741Y20636294D01*
X44316241Y19804269D01*
X44316592Y19795321D01*
X44310513Y19788745D01*
X44307262Y19787788D01*
X44021806Y19747191D01*
X44021803Y19747190D01*
X43720781Y19660877D01*
X43720778Y19660876D01*
X43419753Y19531063D01*
X43118733Y19357750D01*
X43118732Y19357749D01*
X42825788Y19146753D01*
X42817072Y19144699D01*
X42810677Y19147974D01*
X42646217Y19312434D01*
X42642790Y19320707D01*
X42643501Y19324722D01*
X42728749Y19557703D01*
X42816562Y19841191D01*
X42904374Y20168179D01*
X42992187Y20538667D01*
X43014187Y20642381D01*
X43077199Y20939452D01*
X43082268Y20946834D01*
X43091072Y20948469D01*
X43092662Y20948012D01*
G37*
%TD.AperFunction*%
%TD*%
%TA.AperFunction,Conductor*%
%TO.N,SDA*%
G36*
X23622162Y7596573D02*
G01*
X23625573Y7588903D01*
X23631482Y7474470D01*
X23631483Y7474466D01*
X23631483Y7474463D01*
X23631484Y7474459D01*
X23650540Y7387027D01*
X23650541Y7387023D01*
X23681574Y7313835D01*
X23723856Y7231292D01*
X23724082Y7230826D01*
X23772130Y7125806D01*
X23772456Y7116857D01*
X23766359Y7110299D01*
X23766002Y7110142D01*
X23504511Y7000885D01*
X23495556Y7000858D01*
X23495489Y7000885D01*
X23233996Y7110142D01*
X23227684Y7116494D01*
X23227711Y7125449D01*
X23227843Y7125751D01*
X23275930Y7230858D01*
X23276125Y7231261D01*
X23318429Y7313846D01*
X23349459Y7387027D01*
X23368515Y7474459D01*
X23374427Y7588904D01*
X23378276Y7596989D01*
X23386111Y7600000D01*
X23613889Y7600000D01*
X23622162Y7596573D01*
G37*
%TD.AperFunction*%
%TD*%
%TA.AperFunction,Conductor*%
%TO.N,SCL*%
G36*
X19524929Y7110184D02*
G01*
X19531241Y7103832D01*
X19531383Y7103469D01*
X19571664Y6995243D01*
X19571834Y6994754D01*
X19600312Y6906466D01*
X19600317Y6906452D01*
X19630111Y6832790D01*
X19630114Y6832784D01*
X19630116Y6832781D01*
X19678466Y6757482D01*
X19755211Y6672377D01*
X19758206Y6663938D01*
X19754795Y6656269D01*
X19593731Y6495205D01*
X19585458Y6491778D01*
X19577623Y6494789D01*
X19577162Y6495205D01*
X19492518Y6571534D01*
X19417219Y6619884D01*
X19417216Y6619886D01*
X19417210Y6619889D01*
X19343548Y6649683D01*
X19343534Y6649688D01*
X19255246Y6678166D01*
X19254757Y6678336D01*
X19146531Y6718617D01*
X19139973Y6724714D01*
X19139647Y6733663D01*
X19139773Y6733986D01*
X19247436Y6996186D01*
X19253746Y7002536D01*
X19515975Y7110211D01*
X19524929Y7110184D01*
G37*
%TD.AperFunction*%
%TD*%
%TA.AperFunction,Conductor*%
%TO.N,GPIO14*%
G36*
X10918971Y20632426D02*
G01*
X10918979Y20632418D01*
X11626076Y19923942D01*
X11629495Y19915666D01*
X11626060Y19907396D01*
X11624890Y19906374D01*
X11506097Y19815783D01*
X11506090Y19815776D01*
X11376668Y19686143D01*
X11247255Y19525589D01*
X11247237Y19525565D01*
X11117817Y19334064D01*
X11117810Y19334052D01*
X10996029Y19124746D01*
X10988906Y19119319D01*
X10980032Y19120517D01*
X10977643Y19122357D01*
X10812327Y19287673D01*
X10811029Y19289217D01*
X10779501Y19334058D01*
X10686185Y19466776D01*
X10560759Y19618580D01*
X10493083Y19686143D01*
X10435335Y19743796D01*
X10435333Y19743797D01*
X10309904Y19842434D01*
X10197731Y19906869D01*
X10192264Y19913961D01*
X10193414Y19922842D01*
X10195282Y19925283D01*
X10902426Y20632427D01*
X10910698Y20635853D01*
X10918971Y20632426D01*
G37*
%TD.AperFunction*%
%TD*%
%TA.AperFunction,Conductor*%
%TO.N,SCL*%
G36*
X12681577Y25370378D02*
G01*
X13451215Y25052562D01*
X13457552Y25046239D01*
X13457562Y25046215D01*
X13775372Y24276590D01*
X13775363Y24267635D01*
X13769024Y24261310D01*
X13767984Y24260937D01*
X13412835Y24152171D01*
X13410855Y24151748D01*
X13124720Y24116111D01*
X13124679Y24116106D01*
X12877870Y24086244D01*
X12877861Y24086242D01*
X12630379Y23991107D01*
X12349485Y23766082D01*
X12340886Y23763584D01*
X12333897Y23766940D01*
X12171939Y23928898D01*
X12168512Y23937171D01*
X12171080Y23944484D01*
X12396104Y24225381D01*
X12491241Y24472865D01*
X12521107Y24719711D01*
X12556745Y25005861D01*
X12557168Y25007837D01*
X12570298Y25050707D01*
X12665936Y25362986D01*
X12671635Y25369892D01*
X12680549Y25370746D01*
X12681577Y25370378D01*
G37*
%TD.AperFunction*%
%TD*%
%TA.AperFunction,Conductor*%
%TO.N,+5V*%
G36*
X10594196Y28364461D02*
G01*
X10594500Y28363790D01*
X10914134Y27594489D01*
X10914143Y27585534D01*
X10914134Y27585511D01*
X10594500Y26816210D01*
X10588161Y26809885D01*
X10579206Y26809894D01*
X10578535Y26810199D01*
X10256436Y26968492D01*
X10255355Y26969095D01*
X10023843Y27115079D01*
X9821292Y27232871D01*
X9821283Y27232875D01*
X9575795Y27311429D01*
X9575797Y27311429D01*
X9225776Y27339147D01*
X9217800Y27343216D01*
X9215000Y27350810D01*
X9215000Y27829191D01*
X9218427Y27837464D01*
X9225774Y27840854D01*
X9575798Y27868573D01*
X9821290Y27947129D01*
X10023854Y28064929D01*
X10255358Y28210910D01*
X10256417Y28211501D01*
X10578535Y28369803D01*
X10587471Y28370375D01*
X10594196Y28364461D01*
G37*
%TD.AperFunction*%
%TD*%
%TA.AperFunction,Conductor*%
%TO.N,GPIO6*%
G36*
X37419425Y23830574D02*
G01*
X37584183Y23665816D01*
X37587610Y23657543D01*
X37587470Y23655737D01*
X37502700Y23113028D01*
X37417039Y22521132D01*
X37331361Y21885605D01*
X37245682Y21206582D01*
X37245677Y21206538D01*
X37199100Y20813758D01*
X37161466Y20496388D01*
X37157088Y20488576D01*
X37148469Y20486147D01*
X37147746Y20486256D01*
X36319283Y20637470D01*
X36311760Y20642327D01*
X36309693Y20649441D01*
X36331653Y21206538D01*
X36413419Y23280863D01*
X36417169Y23288993D01*
X36422731Y23291856D01*
X36613346Y23331363D01*
X36812912Y23406882D01*
X37012478Y23516560D01*
X37212044Y23660395D01*
X37403364Y23831034D01*
X37411819Y23833982D01*
X37419425Y23830574D01*
G37*
%TD.AperFunction*%
%TD*%
%TA.AperFunction,Conductor*%
%TO.N,SPI_MO*%
G36*
X21077428Y20634858D02*
G01*
X21878343Y20059050D01*
X21883060Y20051438D01*
X21881152Y20042918D01*
X21805435Y19932865D01*
X21723216Y19783890D01*
X21641009Y19605465D01*
X21641006Y19605457D01*
X21558803Y19397579D01*
X21477466Y19162733D01*
X21474683Y19158289D01*
X21309560Y18993166D01*
X21301287Y18989739D01*
X21293014Y18993166D01*
X21291782Y18994618D01*
X21109911Y19248472D01*
X21109910Y19248474D01*
X21109904Y19248481D01*
X20920017Y19473714D01*
X20730113Y19659153D01*
X20567447Y19783890D01*
X20540218Y19804770D01*
X20363745Y19903098D01*
X20358186Y19910119D01*
X20359219Y19919014D01*
X20361097Y19921522D01*
X21062262Y20633568D01*
X21070508Y20637058D01*
X21077428Y20634858D01*
G37*
%TD.AperFunction*%
%TD*%
%TA.AperFunction,Conductor*%
%TO.N,GPIO6*%
G36*
X37234005Y23860219D02*
G01*
X37400992Y23791652D01*
X37496184Y23752564D01*
X37502536Y23746252D01*
X37502563Y23746185D01*
X37610210Y23484026D01*
X37610183Y23475071D01*
X37603831Y23468759D01*
X37603468Y23468617D01*
X37495240Y23428336D01*
X37494751Y23428166D01*
X37406463Y23399688D01*
X37406449Y23399683D01*
X37332787Y23369889D01*
X37332779Y23369884D01*
X37257480Y23321534D01*
X37257479Y23321532D01*
X37172376Y23244789D01*
X37163937Y23241794D01*
X37156268Y23245205D01*
X36995204Y23406269D01*
X36991777Y23414542D01*
X36994787Y23422375D01*
X37071533Y23507482D01*
X37119882Y23582781D01*
X37149688Y23656469D01*
X37178175Y23744792D01*
X37178314Y23745192D01*
X37218616Y23853471D01*
X37224714Y23860027D01*
X37233662Y23860353D01*
X37234005Y23860219D01*
G37*
%TD.AperFunction*%
%TD*%
%TA.AperFunction,Conductor*%
%TO.N,SDA*%
G36*
X19389701Y4766361D02*
G01*
X19389858Y4766004D01*
X19499115Y4504511D01*
X19499142Y4495556D01*
X19499115Y4495489D01*
X19389858Y4233998D01*
X19383506Y4227686D01*
X19374551Y4227713D01*
X19374194Y4227870D01*
X19269174Y4275918D01*
X19268708Y4276144D01*
X19186165Y4318426D01*
X19186157Y4318430D01*
X19186154Y4318431D01*
X19162338Y4328529D01*
X19112977Y4349459D01*
X19112973Y4349460D01*
X19025541Y4368516D01*
X19025537Y4368517D01*
X19025534Y4368517D01*
X19025530Y4368518D01*
X18911097Y4374427D01*
X18903011Y4378276D01*
X18900000Y4386111D01*
X18900000Y4613890D01*
X18903427Y4622163D01*
X18911095Y4625574D01*
X18984367Y4629359D01*
X19025530Y4631484D01*
X19025532Y4631485D01*
X19025541Y4631485D01*
X19112973Y4650541D01*
X19186154Y4681571D01*
X19268739Y4723875D01*
X19269142Y4724070D01*
X19374196Y4772133D01*
X19383143Y4772458D01*
X19389701Y4766361D01*
G37*
%TD.AperFunction*%
%TD*%
%TA.AperFunction,Conductor*%
%TO.N,GPIO5*%
G36*
X42160925Y23971138D02*
G01*
X42161322Y23970759D01*
X42325848Y23806233D01*
X42329275Y23797960D01*
X42329269Y23797591D01*
X42311542Y23235640D01*
X42311543Y23235639D01*
X42311543Y23235626D01*
X42293657Y22625099D01*
X42275771Y21971072D01*
X42275771Y21971062D01*
X42275770Y21971063D01*
X42257885Y21273555D01*
X42257885Y21273545D01*
X42245041Y20741406D01*
X42240312Y20545457D01*
X42236686Y20537269D01*
X42228333Y20534042D01*
X42227158Y20534130D01*
X41398840Y20638095D01*
X41391058Y20642526D01*
X41388625Y20648892D01*
X41205547Y23281149D01*
X41208392Y23289638D01*
X41213288Y23292979D01*
X41394476Y23357569D01*
X41584020Y23460296D01*
X41773563Y23598182D01*
X41963107Y23771226D01*
X42144397Y23970363D01*
X42152501Y23974173D01*
X42160925Y23971138D01*
G37*
%TD.AperFunction*%
%TD*%
%TA.AperFunction,Conductor*%
%TO.N,GPIO25*%
G36*
X9366108Y14953598D02*
G01*
X9367326Y14951952D01*
X9531149Y14684241D01*
X9702259Y14444165D01*
X9702267Y14444155D01*
X9873363Y14243637D01*
X9873375Y14243625D01*
X10044473Y14082645D01*
X10204284Y13969214D01*
X10209047Y13961632D01*
X10207053Y13952902D01*
X10205785Y13951401D01*
X10042005Y13787621D01*
X10034283Y13784207D01*
X9868570Y13776400D01*
X9868564Y13776399D01*
X9698344Y13741185D01*
X9698339Y13741184D01*
X9698338Y13741183D01*
X9661890Y13727821D01*
X9528103Y13678770D01*
X9357868Y13589158D01*
X9197078Y13478828D01*
X9188317Y13476973D01*
X9180958Y13481645D01*
X8605465Y14282123D01*
X8603418Y14290841D01*
X8607211Y14297714D01*
X9349594Y14954608D01*
X9358059Y14957523D01*
X9366108Y14953598D01*
G37*
%TD.AperFunction*%
%TD*%
%TA.AperFunction,Conductor*%
%TO.N,/VA*%
G36*
X35512013Y9549582D02*
G01*
X35648625Y9544817D01*
X35649571Y9544745D01*
X35754314Y9532428D01*
X35754781Y9532363D01*
X35845449Y9517600D01*
X35950900Y9505200D01*
X36088708Y9500394D01*
X36096856Y9496681D01*
X36100000Y9488701D01*
X36100000Y9011300D01*
X36096573Y9003027D01*
X36088708Y8999607D01*
X35950904Y8994801D01*
X35845449Y8982401D01*
X35754804Y8967642D01*
X35754290Y8967570D01*
X35649577Y8955257D01*
X35648619Y8955184D01*
X35512067Y8950421D01*
X35503679Y8953557D01*
X35499966Y8961706D01*
X35499959Y8962028D01*
X35499000Y9250000D01*
X35499959Y9537928D01*
X35503413Y9546188D01*
X35511698Y9549587D01*
X35512013Y9549582D01*
G37*
%TD.AperFunction*%
%TD*%
%TA.AperFunction,Conductor*%
%TO.N,TX*%
G36*
X16777175Y27910285D02*
G01*
X16783500Y27903946D01*
X16783926Y27902728D01*
X16888139Y27542139D01*
X16888566Y27539768D01*
X16910630Y27246273D01*
X16910647Y27246014D01*
X16924139Y26991128D01*
X16983658Y26806616D01*
X17006316Y26736373D01*
X17228192Y26450412D01*
X17230556Y26441775D01*
X17227221Y26434967D01*
X17065248Y26272994D01*
X17056975Y26269567D01*
X17049539Y26272234D01*
X16843582Y26441775D01*
X16777255Y26496375D01*
X16777252Y26496377D01*
X16632816Y26559820D01*
X16539826Y26600666D01*
X16539824Y26600667D01*
X16539820Y26600668D01*
X16303884Y26643427D01*
X16028507Y26689615D01*
X16026865Y26690014D01*
X15681798Y26800823D01*
X15674969Y26806616D01*
X15674235Y26815540D01*
X15674556Y26816417D01*
X15992438Y27586217D01*
X15998759Y27592552D01*
X16768221Y27910294D01*
X16777175Y27910285D01*
G37*
%TD.AperFunction*%
%TD*%
%TA.AperFunction,Conductor*%
%TO.N,GPIO1*%
G36*
X54934988Y20888115D02*
G01*
X54940627Y20881159D01*
X54941079Y20878700D01*
X54969681Y20495166D01*
X54999352Y20140778D01*
X55029029Y19829828D01*
X55058709Y19562350D01*
X55087629Y19344115D01*
X55085318Y19335463D01*
X55084303Y19334305D01*
X54919148Y19169150D01*
X54910875Y19165723D01*
X54903406Y19168417D01*
X54701980Y19335463D01*
X54654319Y19374989D01*
X54654317Y19374991D01*
X54654315Y19374992D01*
X54397033Y19545304D01*
X54397016Y19545315D01*
X54139743Y19672568D01*
X54139740Y19672569D01*
X54139736Y19672571D01*
X53882444Y19756777D01*
X53882442Y19756778D01*
X53882440Y19756778D01*
X53641578Y19795300D01*
X53633950Y19799990D01*
X53631873Y19808701D01*
X53633175Y19812495D01*
X54086978Y20636504D01*
X54093894Y20642073D01*
X54926083Y20889046D01*
X54934988Y20888115D01*
G37*
%TD.AperFunction*%
%TD*%
%TA.AperFunction,Conductor*%
%TO.N,/VA*%
G36*
X41863095Y8487971D02*
G01*
X41864161Y8486744D01*
X41949433Y8373589D01*
X41951390Y8369579D01*
X41979867Y8263404D01*
X41980266Y8260290D01*
X41979497Y8151551D01*
X41983457Y8024622D01*
X42024451Y7874723D01*
X42023327Y7865839D01*
X42017676Y7860841D01*
X41752883Y7750203D01*
X41748344Y7749299D01*
X41463996Y7749968D01*
X41455731Y7753414D01*
X41452324Y7761696D01*
X41452514Y7763770D01*
X41468653Y7852160D01*
X41469689Y7855270D01*
X41508911Y7933963D01*
X41508986Y7934111D01*
X41544727Y8001798D01*
X41551006Y8068086D01*
X41507579Y8136011D01*
X41506010Y8144827D01*
X41509162Y8150584D01*
X41846550Y8487972D01*
X41854822Y8491398D01*
X41863095Y8487971D01*
G37*
%TD.AperFunction*%
%TD*%
%TA.AperFunction,Conductor*%
%TO.N,ADC_VREF*%
G36*
X44055777Y4556573D02*
G01*
X44058133Y4553190D01*
X44193530Y4258902D01*
X44320311Y4019323D01*
X44332059Y3997122D01*
X44470589Y3774650D01*
X44609119Y3591490D01*
X44738285Y3457364D01*
X44741555Y3449028D01*
X44737973Y3440820D01*
X44736693Y3439753D01*
X43936836Y2863922D01*
X43928119Y2861869D01*
X43923164Y2863922D01*
X43123306Y3439753D01*
X43118594Y3447367D01*
X43120647Y3456084D01*
X43121705Y3457354D01*
X43250880Y3591490D01*
X43389410Y3774650D01*
X43527940Y3997122D01*
X43666470Y4258905D01*
X43801867Y4553190D01*
X43808438Y4559274D01*
X43812496Y4560000D01*
X44047504Y4560000D01*
X44055777Y4556573D01*
G37*
%TD.AperFunction*%
%TD*%
%TA.AperFunction,Conductor*%
%TO.N,ADC_VREF*%
G36*
X40620153Y25370966D02*
G01*
X41390511Y25052854D01*
X41396850Y25046529D01*
X41396856Y25046513D01*
X41714822Y24277898D01*
X41714818Y24268943D01*
X41708484Y24262614D01*
X41706270Y24261945D01*
X41326104Y24187119D01*
X41323063Y24186925D01*
X40953121Y24211718D01*
X40953121Y24211723D01*
X40953004Y24211727D01*
X40642459Y24235631D01*
X40642458Y24235631D01*
X40642457Y24235631D01*
X40642452Y24235630D01*
X40429216Y24154799D01*
X40429215Y24154798D01*
X40352357Y23874070D01*
X40346867Y23866996D01*
X40341072Y23865460D01*
X40162278Y23865460D01*
X40154005Y23868887D01*
X40150578Y23877160D01*
X40150592Y23877724D01*
X40166705Y24211727D01*
X40168774Y24254612D01*
X40169000Y24256403D01*
X40170278Y24262614D01*
X40224630Y24526818D01*
X40225241Y24528835D01*
X40317259Y24755725D01*
X40317627Y24756540D01*
X40445931Y25014060D01*
X40466759Y25060001D01*
X40605033Y25364984D01*
X40611569Y25371102D01*
X40620153Y25370966D01*
G37*
%TD.AperFunction*%
%TD*%
%TA.AperFunction,Conductor*%
%TO.N,+5V*%
G36*
X11947948Y28961215D02*
G01*
X12286214Y28622949D01*
X12289641Y28614676D01*
X12286841Y28607082D01*
X12058937Y28339979D01*
X12058936Y28339979D01*
X11940898Y28110847D01*
X11940896Y28110842D01*
X11880958Y27884307D01*
X11820487Y27617403D01*
X11820150Y27616212D01*
X11704319Y27276514D01*
X11698405Y27269790D01*
X11689469Y27269216D01*
X11688779Y27269476D01*
X10918785Y27587438D01*
X10912447Y27593762D01*
X10594475Y28363781D01*
X10594484Y28372735D01*
X10600823Y28379060D01*
X10601502Y28379316D01*
X10941211Y28495153D01*
X10942397Y28495489D01*
X11209309Y28555961D01*
X11435841Y28615898D01*
X11586974Y28693756D01*
X11664977Y28733938D01*
X11664977Y28733939D01*
X11664978Y28733939D01*
X11932082Y28961843D01*
X11940599Y28964605D01*
X11947948Y28961215D01*
G37*
%TD.AperFunction*%
%TD*%
%TA.AperFunction,Conductor*%
%TO.N,+3.3V*%
G36*
X49996320Y5546444D02*
G01*
X50000033Y5538295D01*
X50000040Y5537926D01*
X50001000Y5250000D01*
X50001000Y5249922D01*
X50000040Y4962075D01*
X49996586Y4953813D01*
X49988301Y4950414D01*
X49987932Y4950421D01*
X49851379Y4955184D01*
X49850421Y4955257D01*
X49745707Y4967570D01*
X49745193Y4967642D01*
X49654548Y4982401D01*
X49549094Y4994801D01*
X49411292Y4999607D01*
X49403143Y5003320D01*
X49400000Y5011300D01*
X49400000Y5488701D01*
X49403427Y5496974D01*
X49411291Y5500394D01*
X49549099Y5505200D01*
X49654549Y5517600D01*
X49745222Y5532364D01*
X49745677Y5532427D01*
X49850428Y5544745D01*
X49851371Y5544817D01*
X49987934Y5549580D01*
X49996320Y5546444D01*
G37*
%TD.AperFunction*%
%TD*%
%TA.AperFunction,Conductor*%
%TO.N,RX*%
G36*
X19317085Y27910248D02*
G01*
X19323410Y27903909D01*
X19323860Y27902609D01*
X19425966Y27539341D01*
X19426386Y27536790D01*
X19442030Y27239823D01*
X19442043Y27239467D01*
X19447772Y26980912D01*
X19523835Y26722794D01*
X19744317Y26434376D01*
X19746619Y26425722D01*
X19743295Y26418997D01*
X19581319Y26257021D01*
X19573046Y26253594D01*
X19565553Y26256309D01*
X19485739Y26322885D01*
X19297266Y26480100D01*
X19064608Y26588688D01*
X19064610Y26588688D01*
X18833793Y26637482D01*
X18563583Y26688593D01*
X18562107Y26688973D01*
X18221692Y26800770D01*
X18214902Y26806607D01*
X18214227Y26815537D01*
X18214522Y26816334D01*
X18532438Y27586217D01*
X18538759Y27592552D01*
X19308131Y27910257D01*
X19317085Y27910248D01*
G37*
%TD.AperFunction*%
%TD*%
%TA.AperFunction,Conductor*%
%TO.N,SPI_MI*%
G36*
X18651913Y20190606D02*
G01*
X18655335Y20182677D01*
X18658619Y20071178D01*
X18670748Y19984315D01*
X18693282Y19910968D01*
X18693285Y19910960D01*
X18728106Y19828668D01*
X18772482Y19725670D01*
X18772608Y19716717D01*
X18766366Y19710296D01*
X18766248Y19710245D01*
X18504511Y19600885D01*
X18495556Y19600858D01*
X18495489Y19600885D01*
X18234272Y19710027D01*
X18227960Y19716379D01*
X18227987Y19725334D01*
X18228249Y19725913D01*
X18279207Y19830483D01*
X18279740Y19831452D01*
X18329335Y19911978D01*
X18369130Y19982813D01*
X18395472Y20068494D01*
X18404179Y20183219D01*
X18408222Y20191208D01*
X18415845Y20194033D01*
X18643640Y20194033D01*
X18651913Y20190606D01*
G37*
%TD.AperFunction*%
%TD*%
%TA.AperFunction,Conductor*%
%TO.N,GPIO20*%
G36*
X22314772Y4268349D02*
G01*
X22479040Y4104081D01*
X22482467Y4095808D01*
X22481278Y4090668D01*
X22371958Y3867119D01*
X22258964Y3592559D01*
X22145975Y3274510D01*
X22032995Y2912992D01*
X21923544Y2520626D01*
X21918020Y2513578D01*
X21909130Y2512500D01*
X21907807Y2512956D01*
X21073784Y2857438D01*
X21067446Y2863764D01*
X20724041Y3695179D01*
X20724050Y3704134D01*
X20730388Y3710460D01*
X20733896Y3711306D01*
X21035969Y3735990D01*
X21035976Y3735992D01*
X21035980Y3735992D01*
X21354016Y3805479D01*
X21354016Y3805480D01*
X21354020Y3805480D01*
X21672070Y3918470D01*
X21990121Y4074960D01*
X22300271Y4269982D01*
X22309099Y4271484D01*
X22314772Y4268349D01*
G37*
%TD.AperFunction*%
%TD*%
%TA.AperFunction,Conductor*%
%TO.N,+3.3V*%
G36*
X50255476Y5843051D02*
G01*
X50593050Y5505477D01*
X50596477Y5497204D01*
X50593333Y5489224D01*
X50499289Y5388385D01*
X50499280Y5388375D01*
X50433488Y5305047D01*
X50379833Y5230522D01*
X50379521Y5230108D01*
X50314185Y5147359D01*
X50313559Y5146629D01*
X50220367Y5046700D01*
X50212218Y5042987D01*
X50203830Y5046123D01*
X50203564Y5046379D01*
X49999293Y5249293D01*
X49999238Y5249348D01*
X49796377Y5453566D01*
X49792978Y5461851D01*
X49796432Y5470113D01*
X49796659Y5470331D01*
X49896620Y5563557D01*
X49897349Y5564182D01*
X49980124Y5629538D01*
X49980499Y5629821D01*
X50055047Y5683492D01*
X50138380Y5749289D01*
X50239224Y5843335D01*
X50247611Y5846471D01*
X50255476Y5843051D01*
G37*
%TD.AperFunction*%
%TD*%
%TA.AperFunction,Conductor*%
%TO.N,SDA*%
G36*
X16206894Y4516821D02*
G01*
X16208467Y4515502D01*
X16373523Y4350446D01*
X16376258Y4346136D01*
X16461826Y4108451D01*
X16548274Y3898299D01*
X16548287Y3898268D01*
X16634739Y3718084D01*
X16634743Y3718077D01*
X16721187Y3567884D01*
X16721193Y3567874D01*
X16800817Y3457141D01*
X16802865Y3448424D01*
X16798148Y3440812D01*
X16798148Y3440811D01*
X15997373Y2865103D01*
X15988655Y2863056D01*
X15982262Y2866338D01*
X15275213Y3574766D01*
X15271794Y3583042D01*
X15275229Y3591312D01*
X15277620Y3593149D01*
X15451296Y3693980D01*
X15451300Y3693984D01*
X15451303Y3693985D01*
X15638126Y3842203D01*
X15824949Y4030174D01*
X16011772Y4257897D01*
X16190603Y4513930D01*
X16198149Y4518749D01*
X16206894Y4516821D01*
G37*
%TD.AperFunction*%
%TD*%
%TA.AperFunction,Conductor*%
%TO.N,SCL*%
G36*
X20883697Y4772996D02*
G01*
X20889466Y4766942D01*
X20993616Y4517677D01*
X20998827Y4505207D01*
X20998854Y4496252D01*
X20998835Y4496205D01*
X20890297Y4235111D01*
X20883957Y4228787D01*
X20875002Y4228798D01*
X20873667Y4229456D01*
X20792390Y4276127D01*
X20790890Y4277151D01*
X20718118Y4335596D01*
X20718098Y4335611D01*
X20654645Y4379574D01*
X20599734Y4386970D01*
X20591187Y4388121D01*
X20591186Y4388121D01*
X20591185Y4388121D01*
X20525607Y4345996D01*
X20516795Y4344408D01*
X20511011Y4347567D01*
X20349743Y4508835D01*
X20346316Y4517108D01*
X20349743Y4525381D01*
X20350291Y4525895D01*
X20451753Y4614685D01*
X20453641Y4616031D01*
X20543332Y4667294D01*
X20545500Y4668256D01*
X20634404Y4697295D01*
X20634944Y4697455D01*
X20742094Y4726340D01*
X20742102Y4726344D01*
X20742106Y4726344D01*
X20810820Y4750750D01*
X20874754Y4773456D01*
X20883697Y4772996D01*
G37*
%TD.AperFunction*%
%TD*%
%TA.AperFunction,Conductor*%
%TO.N,ADC_CLK*%
G36*
X33745014Y18795624D02*
G01*
X33749848Y18788086D01*
X33750032Y18786048D01*
X33750695Y18504180D01*
X33747288Y18495898D01*
X33747241Y18495851D01*
X33545508Y18295459D01*
X33537223Y18292060D01*
X33529671Y18294857D01*
X33444373Y18367583D01*
X33425018Y18378655D01*
X33367573Y18411519D01*
X33338498Y18424584D01*
X33296868Y18443290D01*
X33295853Y18443806D01*
X33220491Y18486919D01*
X33218710Y18488172D01*
X33135688Y18558957D01*
X33131616Y18566932D01*
X33134376Y18575451D01*
X33134993Y18576120D01*
X33296156Y18737283D01*
X33304428Y18740709D01*
X33310757Y18738849D01*
X33388882Y18688596D01*
X33388882Y18688597D01*
X33388883Y18688596D01*
X33464166Y18694848D01*
X33541097Y18734362D01*
X33541158Y18734393D01*
X33630803Y18778164D01*
X33633860Y18779163D01*
X33736266Y18797536D01*
X33745014Y18795624D01*
G37*
%TD.AperFunction*%
%TD*%
%TA.AperFunction,Conductor*%
%TO.N,GPIO27_ADC1*%
G36*
X35079728Y4269981D02*
G01*
X35251867Y4161741D01*
X35389878Y4074960D01*
X35389880Y4074959D01*
X35389885Y4074956D01*
X35707921Y3918474D01*
X35707919Y3918474D01*
X35707925Y3918472D01*
X35707929Y3918470D01*
X36025979Y3805480D01*
X36025982Y3805479D01*
X36344018Y3735992D01*
X36344023Y3735992D01*
X36344030Y3735990D01*
X36646098Y3711306D01*
X36654063Y3707218D01*
X36656805Y3698693D01*
X36655958Y3695179D01*
X36312562Y2863785D01*
X36306236Y2857447D01*
X36306215Y2857438D01*
X35472192Y2512956D01*
X35463237Y2512965D01*
X35456911Y2519303D01*
X35456455Y2520626D01*
X35347010Y2912970D01*
X35234020Y3274521D01*
X35121030Y3592571D01*
X35008040Y3867122D01*
X34898721Y4090668D01*
X34898165Y4099606D01*
X34900957Y4104079D01*
X35065228Y4268350D01*
X35073500Y4271776D01*
X35079728Y4269981D01*
G37*
%TD.AperFunction*%
%TD*%
%TA.AperFunction,Conductor*%
%TO.N,SPI_CLK*%
G36*
X23618791Y20633879D02*
G01*
X24418826Y20058703D01*
X24423543Y20051092D01*
X24421974Y20043094D01*
X24374802Y19966066D01*
X24374799Y19966061D01*
X24321939Y19858993D01*
X24269087Y19731197D01*
X24216237Y19582666D01*
X24164246Y19416139D01*
X24161351Y19411353D01*
X23994710Y19244712D01*
X23986437Y19241285D01*
X23978341Y19244538D01*
X23804298Y19411353D01*
X23793758Y19421455D01*
X23600919Y19572440D01*
X23600918Y19572441D01*
X23600910Y19572447D01*
X23408060Y19689595D01*
X23408055Y19689598D01*
X23408052Y19689599D01*
X23215210Y19772897D01*
X23038932Y19818102D01*
X23031769Y19823476D01*
X23030505Y19832341D01*
X23032327Y19836249D01*
X23602467Y20631190D01*
X23610073Y20635915D01*
X23618791Y20633879D01*
G37*
%TD.AperFunction*%
%TD*%
%TA.AperFunction,Conductor*%
%TO.N,GNDA*%
G36*
X52718645Y23791868D02*
G01*
X52654916Y23221175D01*
X52591187Y22606981D01*
X52527458Y21949287D01*
X52463729Y21248093D01*
X52400000Y20503399D01*
X52031637Y20562243D01*
X52031636Y20562243D01*
X51559102Y20637727D01*
X51551473Y20642416D01*
X51549248Y20649228D01*
X51537356Y23290000D01*
X51738258Y23352994D01*
X51939160Y23452355D01*
X52140063Y23588084D01*
X52340965Y23760181D01*
X52541868Y23968645D01*
X52718645Y23791868D01*
G37*
%TD.AperFunction*%
%TD*%
%TA.AperFunction,Conductor*%
%TO.N,GPIO2*%
G36*
X51639701Y17666361D02*
G01*
X51639858Y17666004D01*
X51749115Y17404511D01*
X51749142Y17395556D01*
X51749115Y17395489D01*
X51639858Y17133998D01*
X51633506Y17127686D01*
X51624551Y17127713D01*
X51624194Y17127870D01*
X51519174Y17175918D01*
X51518708Y17176144D01*
X51436165Y17218426D01*
X51436157Y17218430D01*
X51436154Y17218431D01*
X51412338Y17228529D01*
X51362977Y17249459D01*
X51362973Y17249460D01*
X51275541Y17268516D01*
X51275537Y17268517D01*
X51275534Y17268517D01*
X51275530Y17268518D01*
X51161097Y17274427D01*
X51153011Y17278276D01*
X51150000Y17286111D01*
X51150000Y17513890D01*
X51153427Y17522163D01*
X51161095Y17525574D01*
X51234367Y17529359D01*
X51275530Y17531484D01*
X51275532Y17531485D01*
X51275541Y17531485D01*
X51362973Y17550541D01*
X51436154Y17581571D01*
X51518739Y17623875D01*
X51519142Y17624070D01*
X51624196Y17672133D01*
X51633143Y17672458D01*
X51639701Y17666361D01*
G37*
%TD.AperFunction*%
%TD*%
%TA.AperFunction,Conductor*%
%TO.N,GNDA*%
G36*
X50877170Y23875965D02*
G01*
X51091337Y23776097D01*
X51139532Y23763184D01*
X51310744Y23601016D01*
X51492443Y23463130D01*
X51674141Y23359459D01*
X51855840Y23290000D01*
X51576746Y20865503D01*
X51576745Y20865503D01*
X51556177Y20686822D01*
X51551827Y20678995D01*
X51543216Y20676537D01*
X51535389Y20680887D01*
X51533626Y20683980D01*
X50700000Y22865000D01*
X50714114Y22996113D01*
X50728228Y23155435D01*
X50742342Y23342965D01*
X50756456Y23558704D01*
X50770571Y23802652D01*
X50857592Y23889674D01*
X50877170Y23875965D01*
G37*
%TD.AperFunction*%
%TD*%
%TA.AperFunction,Conductor*%
%TO.N,+5V*%
G36*
X8710793Y28370106D02*
G01*
X8711464Y28369802D01*
X8851437Y28301014D01*
X9033573Y28211505D01*
X9034647Y28210905D01*
X9266144Y28064929D01*
X9468709Y27947129D01*
X9714201Y27868573D01*
X10064225Y27840854D01*
X10072200Y27836785D01*
X10075000Y27829191D01*
X10075000Y27350810D01*
X10071573Y27342537D01*
X10064224Y27339147D01*
X9714202Y27311429D01*
X9468715Y27232875D01*
X9468706Y27232871D01*
X9266154Y27115079D01*
X9034643Y26969095D01*
X9033562Y26968492D01*
X8711464Y26810199D01*
X8702528Y26809625D01*
X8695804Y26815539D01*
X8695505Y26816196D01*
X8375864Y27585512D01*
X8375856Y27594466D01*
X8375865Y27594489D01*
X8695499Y28363791D01*
X8701838Y28370115D01*
X8710793Y28370106D01*
G37*
%TD.AperFunction*%
%TD*%
%TA.AperFunction,Conductor*%
%TO.N,GPIO28_ADC2*%
G36*
X41515777Y4556573D02*
G01*
X41518133Y4553190D01*
X41653530Y4258902D01*
X41780311Y4019323D01*
X41792059Y3997122D01*
X41930589Y3774650D01*
X42069119Y3591490D01*
X42198285Y3457364D01*
X42201555Y3449028D01*
X42197973Y3440820D01*
X42196693Y3439753D01*
X41396836Y2863922D01*
X41388119Y2861869D01*
X41383164Y2863922D01*
X40583306Y3439753D01*
X40578594Y3447367D01*
X40580647Y3456084D01*
X40581705Y3457354D01*
X40710880Y3591490D01*
X40849410Y3774650D01*
X40987940Y3997122D01*
X41126470Y4258905D01*
X41261867Y4553190D01*
X41268438Y4559274D01*
X41272496Y4560000D01*
X41507504Y4560000D01*
X41515777Y4556573D01*
G37*
%TD.AperFunction*%
%TD*%
%TA.AperFunction,Conductor*%
%TO.N,TX*%
G36*
X8424338Y4583726D02*
G01*
X8426926Y4581773D01*
X8591236Y4417463D01*
X8593615Y4414030D01*
X8711719Y4154111D01*
X8711740Y4154069D01*
X8830693Y3926367D01*
X8830697Y3926361D01*
X8830702Y3926351D01*
X8949684Y3732687D01*
X9068666Y3573117D01*
X9068668Y3573115D01*
X9178425Y3457367D01*
X9181631Y3449005D01*
X9177986Y3440826D01*
X9176765Y3439816D01*
X8377373Y2865103D01*
X8368655Y2863056D01*
X8362262Y2866338D01*
X7788892Y3440826D01*
X7653635Y3576347D01*
X7650217Y3584622D01*
X7653652Y3592892D01*
X7654525Y3593679D01*
X7798776Y3710840D01*
X7953072Y3874222D01*
X7993013Y3926367D01*
X8107361Y4075657D01*
X8107360Y4075657D01*
X8107368Y4075666D01*
X8261664Y4315171D01*
X8408427Y4579186D01*
X8415442Y4584751D01*
X8424338Y4583726D01*
G37*
%TD.AperFunction*%
%TD*%
%TA.AperFunction,Conductor*%
%TO.N,GPIO9*%
G36*
X28696834Y20636080D02*
G01*
X29496693Y20060247D01*
X29501405Y20052634D01*
X29499352Y20043917D01*
X29498285Y20042637D01*
X29369119Y19908512D01*
X29289720Y19803533D01*
X29230589Y19725351D01*
X29230586Y19725347D01*
X29230582Y19725341D01*
X29092061Y19502883D01*
X29092049Y19502861D01*
X28953530Y19241100D01*
X28818133Y18946810D01*
X28811562Y18940726D01*
X28807504Y18940000D01*
X28572496Y18940000D01*
X28564223Y18943427D01*
X28561867Y18946810D01*
X28426468Y19241100D01*
X28401282Y19288693D01*
X28287940Y19502879D01*
X28149410Y19725351D01*
X28010880Y19908511D01*
X27881713Y20042638D01*
X27878444Y20050973D01*
X27882026Y20059181D01*
X27883294Y20060239D01*
X28683164Y20636080D01*
X28691881Y20638132D01*
X28696834Y20636080D01*
G37*
%TD.AperFunction*%
%TD*%
%TA.AperFunction,Conductor*%
%TO.N,GPIO3*%
G36*
X50024929Y17360184D02*
G01*
X50031241Y17353832D01*
X50031383Y17353469D01*
X50071664Y17245243D01*
X50071834Y17244754D01*
X50100312Y17156466D01*
X50100317Y17156452D01*
X50130111Y17082790D01*
X50130114Y17082784D01*
X50130116Y17082781D01*
X50178466Y17007482D01*
X50255211Y16922377D01*
X50258206Y16913938D01*
X50254795Y16906269D01*
X50093731Y16745205D01*
X50085458Y16741778D01*
X50077623Y16744789D01*
X50077162Y16745205D01*
X49992518Y16821534D01*
X49917219Y16869884D01*
X49917216Y16869886D01*
X49917210Y16869889D01*
X49843548Y16899683D01*
X49843534Y16899688D01*
X49755246Y16928166D01*
X49754757Y16928336D01*
X49646531Y16968617D01*
X49639973Y16974714D01*
X49639647Y16983663D01*
X49639773Y16983986D01*
X49747436Y17246186D01*
X49753746Y17252536D01*
X50015975Y17360211D01*
X50024929Y17360184D01*
G37*
%TD.AperFunction*%
%TD*%
%TA.AperFunction,Conductor*%
%TO.N,SCL*%
G36*
X19882732Y4047827D02*
G01*
X20046853Y3883706D01*
X20050280Y3875433D01*
X20048284Y3868897D01*
X19918938Y3676844D01*
X19784194Y3433270D01*
X19784191Y3433265D01*
X19649478Y3146253D01*
X19514732Y2815670D01*
X19384429Y2453915D01*
X19378401Y2447293D01*
X19369456Y2446872D01*
X19368265Y2447378D01*
X18533656Y2857151D01*
X18527740Y2863873D01*
X18527732Y2863896D01*
X18334659Y3433270D01*
X18246383Y3693598D01*
X18246971Y3702531D01*
X18253706Y3708433D01*
X18258112Y3709035D01*
X18568035Y3691734D01*
X18895249Y3716968D01*
X19222462Y3785701D01*
X19549676Y3897935D01*
X19869434Y4050120D01*
X19878374Y4050580D01*
X19882732Y4047827D01*
G37*
%TD.AperFunction*%
%TD*%
%TA.AperFunction,Conductor*%
%TO.N,GPIO0*%
G36*
X56636461Y20632239D02*
G01*
X57180984Y19830866D01*
X57182800Y19822097D01*
X57177883Y19814613D01*
X57174098Y19812928D01*
X56970036Y19762809D01*
X56851779Y19713126D01*
X56749622Y19670206D01*
X56749618Y19670204D01*
X56749614Y19670202D01*
X56529213Y19539142D01*
X56529205Y19539137D01*
X56308798Y19369609D01*
X56308789Y19369601D01*
X56096655Y19169413D01*
X56088286Y19166227D01*
X56080352Y19169649D01*
X55914495Y19335506D01*
X55911145Y19342440D01*
X55885289Y19566898D01*
X55858967Y19768813D01*
X55832644Y19944135D01*
X55806322Y20092864D01*
X55781911Y20206133D01*
X55783518Y20214941D01*
X55788110Y20219059D01*
X56621550Y20636126D01*
X56630481Y20636763D01*
X56636461Y20632239D01*
G37*
%TD.AperFunction*%
%TD*%
%TA.AperFunction,Conductor*%
%TO.N,GPIO22*%
G36*
X29372701Y4529720D02*
G01*
X29376068Y4522628D01*
X29401417Y4272839D01*
X29408000Y4207978D01*
X29425664Y4054143D01*
X29441004Y3920548D01*
X29473996Y3670974D01*
X29507003Y3459069D01*
X29538354Y3293681D01*
X29536528Y3284914D01*
X29532101Y3281042D01*
X28698454Y2863238D01*
X28689523Y2862595D01*
X28684084Y2866378D01*
X28297187Y3348832D01*
X28067059Y3635798D01*
X28064558Y3644395D01*
X28068868Y3652245D01*
X28071476Y3653826D01*
X28271018Y3741567D01*
X28484513Y3877051D01*
X28698009Y4054143D01*
X28911504Y4272841D01*
X29121490Y4528867D01*
X29129386Y4533090D01*
X29130536Y4533147D01*
X29364428Y4533147D01*
X29372701Y4529720D01*
G37*
%TD.AperFunction*%
%TD*%
%TA.AperFunction,Conductor*%
%TO.N,+3.3V*%
G36*
X12970112Y15203568D02*
G01*
X12970330Y15203342D01*
X13063553Y15103381D01*
X13064179Y15102651D01*
X13129521Y15019895D01*
X13129833Y15019481D01*
X13183488Y14944956D01*
X13249280Y14861628D01*
X13249285Y14861622D01*
X13249287Y14861620D01*
X13318068Y14787868D01*
X13343333Y14760777D01*
X13346470Y14752389D01*
X13343050Y14744524D01*
X13005476Y14406950D01*
X12997203Y14403523D01*
X12989223Y14406667D01*
X12888382Y14500711D01*
X12888372Y14500720D01*
X12805044Y14566512D01*
X12730519Y14620167D01*
X12730105Y14620479D01*
X12647349Y14685821D01*
X12646619Y14686447D01*
X12546697Y14779635D01*
X12542985Y14787781D01*
X12546121Y14796169D01*
X12546343Y14796400D01*
X12749293Y15000707D01*
X12953566Y15203624D01*
X12961850Y15207022D01*
X12970112Y15203568D01*
G37*
%TD.AperFunction*%
%TD*%
%TA.AperFunction,Conductor*%
%TO.N,GPIO0*%
G36*
X56343731Y19754796D02*
G01*
X56504795Y19593732D01*
X56508222Y19585459D01*
X56505211Y19577624D01*
X56428468Y19492521D01*
X56428466Y19492520D01*
X56380116Y19417221D01*
X56380111Y19417213D01*
X56350317Y19343551D01*
X56350312Y19343537D01*
X56321834Y19255249D01*
X56321664Y19254760D01*
X56281383Y19146532D01*
X56275286Y19139974D01*
X56266337Y19139648D01*
X56265974Y19139790D01*
X56003815Y19247437D01*
X55997463Y19253749D01*
X55997436Y19253816D01*
X55958348Y19349008D01*
X55889789Y19515976D01*
X55889816Y19524930D01*
X55896168Y19531242D01*
X55896500Y19531373D01*
X56004808Y19571686D01*
X56005208Y19571825D01*
X56093531Y19600312D01*
X56112399Y19607945D01*
X56167210Y19630114D01*
X56167211Y19630116D01*
X56167219Y19630118D01*
X56242518Y19678467D01*
X56327625Y19755213D01*
X56336062Y19758207D01*
X56343731Y19754796D01*
G37*
%TD.AperFunction*%
%TD*%
%TA.AperFunction,Conductor*%
%TO.N,GPIO22*%
G36*
X24525448Y17522289D02*
G01*
X24525770Y17522148D01*
X24630837Y17474078D01*
X24631276Y17473866D01*
X24713844Y17431571D01*
X24787025Y17400541D01*
X24874458Y17381485D01*
X24874465Y17381485D01*
X24874468Y17381484D01*
X24918493Y17379211D01*
X24988904Y17375574D01*
X24996989Y17371725D01*
X25000000Y17363890D01*
X25000000Y17136111D01*
X24996573Y17127838D01*
X24988903Y17124427D01*
X24874468Y17118518D01*
X24874464Y17118517D01*
X24874459Y17118517D01*
X24874458Y17118516D01*
X24806765Y17103763D01*
X24787020Y17099459D01*
X24713832Y17068426D01*
X24631289Y17026144D01*
X24630823Y17025918D01*
X24525805Y16977870D01*
X24516856Y16977544D01*
X24510298Y16983641D01*
X24510141Y16983998D01*
X24492582Y17026024D01*
X24400883Y17245491D01*
X24400857Y17254444D01*
X24400862Y17254458D01*
X24510142Y17516006D01*
X24516493Y17522316D01*
X24525448Y17522289D01*
G37*
%TD.AperFunction*%
%TD*%
%TA.AperFunction,Conductor*%
%TO.N,GPIO1*%
G36*
X54672375Y19755213D02*
G01*
X54757481Y19678467D01*
X54832779Y19630118D01*
X54832783Y19630117D01*
X54832787Y19630114D01*
X54906449Y19600319D01*
X54906454Y19600317D01*
X54906467Y19600312D01*
X54976809Y19577624D01*
X54994751Y19571837D01*
X54995242Y19571667D01*
X55103468Y19531384D01*
X55110026Y19525287D01*
X55110352Y19516338D01*
X55110210Y19515975D01*
X55002563Y19253816D01*
X54996251Y19247464D01*
X54996184Y19247437D01*
X54734025Y19139790D01*
X54725070Y19139817D01*
X54718758Y19146169D01*
X54718616Y19146532D01*
X54678333Y19254760D01*
X54678163Y19255249D01*
X54676142Y19261512D01*
X54649688Y19343533D01*
X54649681Y19343551D01*
X54619886Y19417213D01*
X54619883Y19417217D01*
X54619882Y19417221D01*
X54571533Y19492519D01*
X54494787Y19577625D01*
X54491793Y19586063D01*
X54495203Y19593731D01*
X54656269Y19754797D01*
X54664541Y19758223D01*
X54672375Y19755213D01*
G37*
%TD.AperFunction*%
%TD*%
%TA.AperFunction,Conductor*%
%TO.N,SPI_CS*%
G36*
X15998267Y20632722D02*
G01*
X15998279Y20632710D01*
X16705388Y19924626D01*
X16708809Y19916351D01*
X16705376Y19908080D01*
X16703548Y19906590D01*
X16595420Y19835327D01*
X16595411Y19835320D01*
X16475316Y19729300D01*
X16475312Y19729296D01*
X16355215Y19596409D01*
X16355193Y19596382D01*
X16235104Y19436637D01*
X16235093Y19436621D01*
X16118455Y19255369D01*
X16111096Y19250266D01*
X16108616Y19250000D01*
X15871385Y19250000D01*
X15863112Y19253427D01*
X15861546Y19255368D01*
X15744897Y19436632D01*
X15744894Y19436637D01*
X15624805Y19596382D01*
X15624802Y19596386D01*
X15624792Y19596399D01*
X15504687Y19729295D01*
X15504686Y19729296D01*
X15504682Y19729300D01*
X15384587Y19835320D01*
X15384578Y19835327D01*
X15276451Y19906590D01*
X15271429Y19914004D01*
X15273121Y19922798D01*
X15274606Y19924621D01*
X15981721Y20632711D01*
X15989992Y20636143D01*
X15998267Y20632722D01*
G37*
%TD.AperFunction*%
%TD*%
%TA.AperFunction,Conductor*%
%TO.N,/VA*%
G36*
X35815504Y9753187D02*
G01*
X36152506Y9416185D01*
X36155933Y9407912D01*
X36152506Y9399639D01*
X36152165Y9399311D01*
X36055616Y9310279D01*
X36054760Y9309562D01*
X35973698Y9248001D01*
X35973211Y9247651D01*
X35899803Y9197627D01*
X35899790Y9197617D01*
X35818051Y9135542D01*
X35720365Y9045461D01*
X35711959Y9042372D01*
X35704187Y9045761D01*
X35500970Y9247627D01*
X35498393Y9251484D01*
X35474545Y9309562D01*
X35389744Y9516086D01*
X35389771Y9525041D01*
X35396123Y9531353D01*
X35396329Y9531436D01*
X35498342Y9570570D01*
X35498432Y9570604D01*
X35581060Y9600265D01*
X35649382Y9631630D01*
X35719501Y9680107D01*
X35799311Y9753526D01*
X35807719Y9756604D01*
X35815504Y9753187D01*
G37*
%TD.AperFunction*%
%TD*%
%TA.AperFunction,Conductor*%
%TO.N,GPIO7*%
G36*
X34616465Y20961992D02*
G01*
X34622627Y20955495D01*
X34623087Y20954006D01*
X34720996Y20541311D01*
X34822002Y20159074D01*
X34922998Y19820375D01*
X35023994Y19525173D01*
X35118557Y19289499D01*
X35118457Y19280545D01*
X35112055Y19274283D01*
X35107698Y19273442D01*
X34878431Y19273442D01*
X34872112Y19275295D01*
X34849978Y19289499D01*
X34578435Y19463754D01*
X34281870Y19610566D01*
X34281866Y19610568D01*
X34281865Y19610568D01*
X33985308Y19713876D01*
X33985303Y19713878D01*
X33688747Y19773688D01*
X33688742Y19773689D01*
X33688740Y19773689D01*
X33688733Y19773690D01*
X33688727Y19773690D01*
X33409107Y19789069D01*
X33401035Y19792945D01*
X33398068Y19801394D01*
X33399057Y19805499D01*
X33556042Y20159088D01*
X33768030Y20636565D01*
X33774518Y20642733D01*
X34607513Y20962229D01*
X34616465Y20961992D01*
G37*
%TD.AperFunction*%
%TD*%
%TA.AperFunction,Conductor*%
%TO.N,+5V*%
G36*
X57878194Y4219177D02*
G01*
X58218469Y3878902D01*
X58221896Y3870629D01*
X58219732Y3863850D01*
X58076368Y3662162D01*
X58076364Y3662156D01*
X57927273Y3416411D01*
X57927271Y3416408D01*
X57778194Y3134691D01*
X57778186Y3134676D01*
X57629095Y2816932D01*
X57484715Y2474365D01*
X57478344Y2468072D01*
X57469389Y2468127D01*
X57468994Y2468302D01*
X57118466Y2631519D01*
X56633696Y2857243D01*
X56627646Y2863839D01*
X56326203Y3695874D01*
X56326607Y3704817D01*
X56333218Y3710857D01*
X56336034Y3711499D01*
X56631249Y3741093D01*
X56941414Y3808185D01*
X57251579Y3911278D01*
X57561744Y4050370D01*
X57864169Y4221094D01*
X57873058Y4222175D01*
X57878194Y4219177D01*
G37*
%TD.AperFunction*%
%TD*%
%TA.AperFunction,Conductor*%
%TO.N,GPIO15*%
G36*
X9428375Y19759136D02*
G01*
X9512539Y19682457D01*
X9586596Y19633047D01*
X9658911Y19601787D01*
X9717985Y19581634D01*
X9745914Y19572106D01*
X9746274Y19571977D01*
X9853548Y19531420D01*
X9860074Y19525289D01*
X9860354Y19516338D01*
X9860233Y19516032D01*
X9752563Y19253816D01*
X9746251Y19247464D01*
X9746184Y19247437D01*
X9484091Y19139817D01*
X9475136Y19139844D01*
X9468824Y19146196D01*
X9468659Y19146622D01*
X9428948Y19255229D01*
X9428735Y19255865D01*
X9401813Y19345026D01*
X9373848Y19419799D01*
X9373848Y19419800D01*
X9327001Y19496032D01*
X9250692Y19581636D01*
X9247746Y19590090D01*
X9251153Y19597691D01*
X9412223Y19758761D01*
X9420495Y19762187D01*
X9428375Y19759136D01*
G37*
%TD.AperFunction*%
%TD*%
%TA.AperFunction,Conductor*%
%TO.N,GPIO21*%
G36*
X24024860Y4435053D02*
G01*
X24025430Y4434519D01*
X24190936Y4269013D01*
X24194094Y4263233D01*
X24240219Y4051691D01*
X24287072Y3862362D01*
X24333934Y3698558D01*
X24380793Y3560314D01*
X24424084Y3456213D01*
X24424097Y3447259D01*
X24420111Y3442221D01*
X23618275Y2865752D01*
X23609557Y2863705D01*
X23602342Y2867902D01*
X23138647Y3442221D01*
X22984490Y3633156D01*
X22981960Y3641744D01*
X22986244Y3649607D01*
X22989361Y3651412D01*
X23182858Y3726424D01*
X23391290Y3846599D01*
X23599721Y4006148D01*
X23808153Y4205069D01*
X24008352Y4433951D01*
X24016377Y4437920D01*
X24024860Y4435053D01*
G37*
%TD.AperFunction*%
%TD*%
%TA.AperFunction,Conductor*%
%TO.N,SPI_CLK*%
G36*
X23618791Y20633879D02*
G01*
X24418826Y20058703D01*
X24423543Y20051092D01*
X24421974Y20043094D01*
X24374802Y19966066D01*
X24374799Y19966061D01*
X24321939Y19858993D01*
X24269087Y19731197D01*
X24216237Y19582666D01*
X24164246Y19416139D01*
X24161351Y19411353D01*
X23994710Y19244712D01*
X23986437Y19241285D01*
X23978341Y19244538D01*
X23804298Y19411353D01*
X23793758Y19421455D01*
X23600919Y19572440D01*
X23600918Y19572441D01*
X23600910Y19572447D01*
X23408060Y19689595D01*
X23408055Y19689598D01*
X23408052Y19689599D01*
X23215210Y19772897D01*
X23038932Y19818102D01*
X23031769Y19823476D01*
X23030505Y19832341D01*
X23032327Y19836249D01*
X23602467Y20631190D01*
X23610073Y20635915D01*
X23618791Y20633879D01*
G37*
%TD.AperFunction*%
%TD*%
%TA.AperFunction,Conductor*%
%TO.N,GPIO4*%
G36*
X46889701Y17691361D02*
G01*
X46889858Y17691004D01*
X46999115Y17429511D01*
X46999142Y17420556D01*
X46999115Y17420489D01*
X46889858Y17158998D01*
X46883506Y17152686D01*
X46874551Y17152713D01*
X46874194Y17152870D01*
X46769174Y17200918D01*
X46768708Y17201144D01*
X46686165Y17243426D01*
X46686157Y17243430D01*
X46686154Y17243431D01*
X46662338Y17253529D01*
X46612977Y17274459D01*
X46612973Y17274460D01*
X46525541Y17293516D01*
X46525537Y17293517D01*
X46525534Y17293517D01*
X46525530Y17293518D01*
X46411097Y17299427D01*
X46403011Y17303276D01*
X46400000Y17311111D01*
X46400000Y17538890D01*
X46403427Y17547163D01*
X46411095Y17550574D01*
X46484367Y17554359D01*
X46525530Y17556484D01*
X46525532Y17556485D01*
X46525541Y17556485D01*
X46612973Y17575541D01*
X46686154Y17606571D01*
X46768739Y17648875D01*
X46769142Y17649070D01*
X46874196Y17697133D01*
X46883143Y17697458D01*
X46889701Y17691361D01*
G37*
%TD.AperFunction*%
%TD*%
%TA.AperFunction,Conductor*%
%TO.N,SPI_MI*%
G36*
X18537525Y20630148D02*
G01*
X18540203Y20627467D01*
X19107493Y19836499D01*
X19109530Y19827779D01*
X19104804Y19820172D01*
X19100707Y19818301D01*
X19011786Y19797027D01*
X18905941Y19753293D01*
X18800085Y19691143D01*
X18694240Y19610587D01*
X18596651Y19519340D01*
X18588267Y19516193D01*
X18580387Y19519613D01*
X18411613Y19688387D01*
X18411612Y19688388D01*
X18317761Y19744461D01*
X18317757Y19744463D01*
X18317755Y19744464D01*
X18223917Y19785891D01*
X18223912Y19785893D01*
X18223911Y19785893D01*
X18130060Y19812686D01*
X18130057Y19812687D01*
X18130055Y19812687D01*
X18130050Y19812688D01*
X18055423Y19822351D01*
X18036210Y19824839D01*
X18036208Y19824839D01*
X17965938Y19822977D01*
X17957577Y19826184D01*
X17953932Y19834363D01*
X17956127Y19841501D01*
X18521197Y20627480D01*
X18528807Y20632195D01*
X18537525Y20630148D01*
G37*
%TD.AperFunction*%
%TD*%
%TA.AperFunction,Conductor*%
%TO.N,GPIO26_ADC0*%
G36*
X32487511Y4192601D02*
G01*
X32576474Y4141902D01*
X32578950Y4140013D01*
X32699525Y4019438D01*
X32769438Y3949525D01*
X32769439Y3949524D01*
X32769441Y3949523D01*
X32855059Y3900091D01*
X32855063Y3900089D01*
X32902813Y3887295D01*
X32950561Y3874501D01*
X32950563Y3874500D01*
X33118074Y3874500D01*
X33122744Y3873528D01*
X33126913Y3871712D01*
X33126915Y3871712D01*
X33126916Y3871711D01*
X33126924Y3871708D01*
X33450486Y3774309D01*
X33450490Y3774309D01*
X33450491Y3774308D01*
X33774069Y3720404D01*
X34081199Y3710529D01*
X34089358Y3706838D01*
X34092517Y3698459D01*
X34091744Y3694638D01*
X33772450Y2863831D01*
X33766284Y2857338D01*
X33766262Y2857328D01*
X32931985Y2488291D01*
X32923033Y2488078D01*
X32916552Y2494258D01*
X32916089Y2495490D01*
X32796596Y2877440D01*
X32673192Y3228391D01*
X32549787Y3535842D01*
X32426383Y3799793D01*
X32386124Y3871712D01*
X32307305Y4012517D01*
X32306254Y4021410D01*
X32309239Y4026503D01*
X32473446Y4190710D01*
X32481718Y4194136D01*
X32487511Y4192601D01*
G37*
%TD.AperFunction*%
%TD*%
%TA.AperFunction,Conductor*%
%TO.N,GPIO24*%
G36*
X11422375Y7005213D02*
G01*
X11507481Y6928467D01*
X11582779Y6880118D01*
X11582783Y6880117D01*
X11582787Y6880114D01*
X11656449Y6850319D01*
X11656454Y6850317D01*
X11656467Y6850312D01*
X11726809Y6827624D01*
X11744751Y6821837D01*
X11745242Y6821667D01*
X11853468Y6781384D01*
X11860026Y6775287D01*
X11860352Y6766338D01*
X11860210Y6765975D01*
X11752563Y6503816D01*
X11746251Y6497464D01*
X11746184Y6497437D01*
X11484025Y6389790D01*
X11475070Y6389817D01*
X11468758Y6396169D01*
X11468616Y6396532D01*
X11428333Y6504760D01*
X11428163Y6505249D01*
X11426142Y6511512D01*
X11399688Y6593533D01*
X11399681Y6593551D01*
X11369886Y6667213D01*
X11369883Y6667217D01*
X11369882Y6667221D01*
X11321533Y6742519D01*
X11244787Y6827625D01*
X11241793Y6836063D01*
X11245203Y6843731D01*
X11406269Y7004797D01*
X11414541Y7008223D01*
X11422375Y7005213D01*
G37*
%TD.AperFunction*%
%TD*%
%TA.AperFunction,Conductor*%
%TO.N,SDA*%
G36*
X12036102Y26333061D02*
G01*
X12198060Y26171103D01*
X12201487Y26162830D01*
X12198918Y26155515D01*
X11973893Y25874621D01*
X11878758Y25627139D01*
X11878756Y25627130D01*
X11848896Y25380332D01*
X11848891Y25380291D01*
X11813252Y25094145D01*
X11812829Y25092165D01*
X11704063Y24737016D01*
X11698364Y24730109D01*
X11689450Y24729255D01*
X11688410Y24729628D01*
X10918785Y25047438D01*
X10912447Y25053762D01*
X10594627Y25823413D01*
X10594636Y25832366D01*
X10600975Y25838691D01*
X10602010Y25839063D01*
X10957167Y25947833D01*
X10959139Y25948255D01*
X11245289Y25983893D01*
X11492135Y26013759D01*
X11739619Y26108896D01*
X12020516Y26333920D01*
X12029113Y26336417D01*
X12036102Y26333061D01*
G37*
%TD.AperFunction*%
%TD*%
%TA.AperFunction,Conductor*%
%TO.N,+3.3V*%
G36*
X60537926Y21750041D02*
G01*
X60546187Y21746587D01*
X60549586Y21738302D01*
X60549579Y21737933D01*
X60544816Y21601381D01*
X60544743Y21600423D01*
X60532430Y21495710D01*
X60532358Y21495196D01*
X60517599Y21404551D01*
X60505199Y21299096D01*
X60500394Y21161292D01*
X60496681Y21153144D01*
X60488701Y21150000D01*
X60011299Y21150000D01*
X60003026Y21153427D01*
X59999606Y21161292D01*
X59994800Y21299096D01*
X59982400Y21404551D01*
X59967637Y21495219D01*
X59967572Y21495686D01*
X59955255Y21600429D01*
X59955183Y21601381D01*
X59950420Y21737936D01*
X59953556Y21746321D01*
X59961705Y21750034D01*
X59962025Y21750041D01*
X60250000Y21751000D01*
X60537926Y21750041D01*
G37*
%TD.AperFunction*%
%TD*%
M02*
