%TF.GenerationSoftware,KiCad,Pcbnew,8.0.1*%
%TF.CreationDate,2024-03-28T06:54:54+07:00*%
%TF.ProjectId,ADC_pHAT,4144435f-7048-4415-942e-6b696361645f,rev?*%
%TF.SameCoordinates,PX5cbead0PY56c8cc0*%
%TF.FileFunction,Copper,L1,Top*%
%TF.FilePolarity,Positive*%
%FSLAX46Y46*%
G04 Gerber Fmt 4.6, Leading zero omitted, Abs format (unit mm)*
G04 Created by KiCad (PCBNEW 8.0.1) date 2024-03-28 06:54:54*
%MOMM*%
%LPD*%
G01*
G04 APERTURE LIST*
G04 Aperture macros list*
%AMRoundRect*
0 Rectangle with rounded corners*
0 $1 Rounding radius*
0 $2 $3 $4 $5 $6 $7 $8 $9 X,Y pos of 4 corners*
0 Add a 4 corners polygon primitive as box body*
4,1,4,$2,$3,$4,$5,$6,$7,$8,$9,$2,$3,0*
0 Add four circle primitives for the rounded corners*
1,1,$1+$1,$2,$3*
1,1,$1+$1,$4,$5*
1,1,$1+$1,$6,$7*
1,1,$1+$1,$8,$9*
0 Add four rect primitives between the rounded corners*
20,1,$1+$1,$2,$3,$4,$5,0*
20,1,$1+$1,$4,$5,$6,$7,0*
20,1,$1+$1,$6,$7,$8,$9,0*
20,1,$1+$1,$8,$9,$2,$3,0*%
G04 Aperture macros list end*
%TA.AperFunction,ComponentPad*%
%ADD10R,1.700000X1.700000*%
%TD*%
%TA.AperFunction,ComponentPad*%
%ADD11O,1.700000X1.700000*%
%TD*%
%TA.AperFunction,SMDPad,CuDef*%
%ADD12RoundRect,0.425000X-0.425000X1.325000X-0.425000X-1.325000X0.425000X-1.325000X0.425000X1.325000X0*%
%TD*%
%TA.AperFunction,SMDPad,CuDef*%
%ADD13RoundRect,0.425000X-1.325000X-0.425000X1.325000X-0.425000X1.325000X0.425000X-1.325000X0.425000X0*%
%TD*%
%TA.AperFunction,SMDPad,CuDef*%
%ADD14R,4.900000X1.600000*%
%TD*%
%TA.AperFunction,ViaPad*%
%ADD15C,0.600000*%
%TD*%
%TA.AperFunction,Conductor*%
%ADD16C,0.500000*%
%TD*%
%TA.AperFunction,Conductor*%
%ADD17C,0.250000*%
%TD*%
G04 APERTURE END LIST*
D10*
%TO.P,J2,1,Pin_1*%
%TO.N,+3.3V*%
X8375000Y25050000D03*
D11*
%TO.P,J2,2,Pin_2*%
%TO.N,+5V*%
X8375000Y27590000D03*
%TO.P,J2,3,Pin_3*%
%TO.N,SDA*%
X10915000Y25050000D03*
%TO.P,J2,4,Pin_4*%
%TO.N,+5V*%
X10915000Y27590000D03*
%TO.P,J2,5,Pin_5*%
%TO.N,SCL*%
X13455000Y25050000D03*
%TO.P,J2,6,Pin_6*%
%TO.N,GNDA*%
X13455000Y27590000D03*
%TO.P,J2,7,Pin_7*%
%TO.N,GPIO9*%
X15995000Y25050000D03*
%TO.P,J2,8,Pin_8*%
%TO.N,TX*%
X15995000Y27590000D03*
%TO.P,J2,9,Pin_9*%
%TO.N,GNDA*%
X18535000Y25050000D03*
%TO.P,J2,10,Pin_10*%
%TO.N,RX*%
X18535000Y27590000D03*
%TO.P,J2,11,Pin_11*%
%TO.N,GPIO14*%
X21075000Y25050000D03*
%TO.P,J2,12,Pin_12*%
%TO.N,GPIO26_ADC0*%
X21075000Y27590000D03*
%TO.P,J2,13,Pin_13*%
%TO.N,GPIO15*%
X23615000Y25050000D03*
%TO.P,J2,14,Pin_14*%
%TO.N,GNDA*%
X23615000Y27590000D03*
%TO.P,J2,15,Pin_15*%
%TO.N,GPIO20*%
X26155000Y25050000D03*
%TO.P,J2,16,Pin_16*%
%TO.N,GPIO27_ADC1*%
X26155000Y27590000D03*
%TO.P,J2,17,Pin_17*%
%TO.N,GPIO21*%
X28695000Y25050000D03*
%TO.P,J2,18,Pin_18*%
%TO.N,GPIO28_ADC2*%
X28695000Y27590000D03*
%TO.P,J2,19,Pin_19*%
%TO.N,SPI_MO*%
X31235000Y25050000D03*
%TO.P,J2,20,Pin_20*%
%TO.N,unconnected-(J2-Pin_20-Pad20)*%
X31235000Y27590000D03*
%TO.P,J2,21,Pin_21*%
%TO.N,SPI_MI*%
X33775000Y25050000D03*
%TO.P,J2,22,Pin_22*%
%TO.N,GPIO22*%
X33775000Y27590000D03*
%TO.P,J2,23,Pin_23*%
%TO.N,SPI_CLK*%
X36315000Y25050000D03*
%TO.P,J2,24,Pin_24*%
%TO.N,SPI_CS*%
X36315000Y27590000D03*
%TO.P,J2,25,Pin_25*%
%TO.N,unconnected-(J2-Pin_25-Pad25)*%
X38855000Y25050000D03*
%TO.P,J2,26,Pin_26*%
%TO.N,unconnected-(J2-Pin_26-Pad26)*%
X38855000Y27590000D03*
%TO.P,J2,27,Pin_27*%
%TO.N,ADC_VREF*%
X41395000Y25050000D03*
%TO.P,J2,28,Pin_28*%
%TO.N,unconnected-(J2-Pin_28-Pad28)*%
X41395000Y27590000D03*
%TO.P,J2,29,Pin_29*%
%TO.N,unconnected-(J2-Pin_29-Pad29)*%
X43935000Y25050000D03*
%TO.P,J2,30,Pin_30*%
%TO.N,GNDA*%
X43935000Y27590000D03*
%TO.P,J2,31,Pin_31*%
%TO.N,unconnected-(J2-Pin_31-Pad31)*%
X46475000Y25050000D03*
%TO.P,J2,32,Pin_32*%
%TO.N,GPIO24*%
X46475000Y27590000D03*
%TO.P,J2,33,Pin_33*%
%TO.N,unconnected-(J2-Pin_33-Pad33)*%
X49015000Y25050000D03*
%TO.P,J2,34,Pin_34*%
%TO.N,GNDA*%
X49015000Y27590000D03*
%TO.P,J2,35,Pin_35*%
%TO.N,unconnected-(J2-Pin_35-Pad35)*%
X51555000Y25050000D03*
%TO.P,J2,36,Pin_36*%
%TO.N,GPIO25*%
X51555000Y27590000D03*
%TO.P,J2,37,Pin_37*%
%TO.N,unconnected-(J2-Pin_37-Pad37)*%
X54095000Y25050000D03*
%TO.P,J2,38,Pin_38*%
%TO.N,unconnected-(J2-Pin_38-Pad38)*%
X54095000Y27590000D03*
%TO.P,J2,39,Pin_39*%
%TO.N,GNDA*%
X56635000Y25050000D03*
%TO.P,J2,40,Pin_40*%
%TO.N,unconnected-(J2-Pin_40-Pad40)*%
X56635000Y27590000D03*
%TD*%
D12*
%TO.P,U1,1,GPIO0*%
%TO.N,GPIO0*%
X56630000Y21540000D03*
%TO.P,U1,2,GPIO1*%
%TO.N,GPIO1*%
X54090000Y21540000D03*
%TO.P,U1,3,GND*%
%TO.N,GNDA*%
X51550000Y21540000D03*
%TO.P,U1,4,GPIO2*%
%TO.N,GPIO2*%
X49010000Y21540000D03*
%TO.P,U1,5,GPIO3*%
%TO.N,GPIO3*%
X46470000Y21540000D03*
%TO.P,U1,6,GPIO4*%
%TO.N,GPIO4*%
X43930000Y21540000D03*
%TO.P,U1,7,GPIO5*%
%TO.N,GPIO5*%
X41390000Y21540000D03*
%TO.P,U1,8,GND*%
%TO.N,GNDA*%
X38850000Y21540000D03*
%TO.P,U1,9,GPIO6*%
%TO.N,GPIO6*%
X36310000Y21540000D03*
%TO.P,U1,10,GPIO7*%
%TO.N,GPIO7*%
X33770000Y21540000D03*
%TO.P,U1,11,GPIO8*%
%TO.N,ADC_CLK*%
X31230000Y21540000D03*
%TO.P,U1,12,GPIO9*%
%TO.N,GPIO9*%
X28690000Y21540000D03*
%TO.P,U1,13,GND*%
%TO.N,GNDA*%
X26150000Y21540000D03*
%TO.P,U1,14,GPIO10*%
%TO.N,SPI_CLK*%
X23610000Y21540000D03*
%TO.P,U1,15,GPIO11*%
%TO.N,SPI_MO*%
X21070000Y21540000D03*
%TO.P,U1,16,GPIO12*%
%TO.N,SPI_MI*%
X18530000Y21540000D03*
%TO.P,U1,17,GPIO13*%
%TO.N,SPI_CS*%
X15990000Y21540000D03*
%TO.P,U1,18,GND*%
%TO.N,GNDA*%
X13450000Y21540000D03*
%TO.P,U1,19,GPIO14*%
%TO.N,GPIO14*%
X10910000Y21540000D03*
%TO.P,U1,20,GPIO15*%
%TO.N,GPIO15*%
X8370000Y21540000D03*
%TO.P,U1,21,GPIO16*%
%TO.N,TX*%
X8370000Y1960000D03*
%TO.P,U1,22,GPIO17*%
%TO.N,RX*%
X10910000Y1960000D03*
%TO.P,U1,23,GND*%
%TO.N,GNDA*%
X13450000Y1960000D03*
%TO.P,U1,24,GPIO18*%
%TO.N,SDA*%
X15990000Y1960000D03*
%TO.P,U1,25,GPIO19*%
%TO.N,SCL*%
X18530000Y1960000D03*
%TO.P,U1,26,GPIO20*%
%TO.N,GPIO20*%
X21070000Y1960000D03*
%TO.P,U1,27,GPIO21*%
%TO.N,GPIO21*%
X23610000Y1960000D03*
%TO.P,U1,28,GND*%
%TO.N,GNDA*%
X26150000Y1960000D03*
%TO.P,U1,29,GPIO22*%
%TO.N,GPIO22*%
X28690000Y1960000D03*
%TO.P,U1,30,RUN*%
%TO.N,unconnected-(U1-RUN-Pad30)*%
X31230000Y1960000D03*
%TO.P,U1,31,GPIO26_ADC0*%
%TO.N,GPIO26_ADC0*%
X33770000Y1960000D03*
%TO.P,U1,32,GPIO27_ADC1*%
%TO.N,GPIO27_ADC1*%
X36310000Y1960000D03*
%TO.P,U1,33,AGND*%
%TO.N,GNDA*%
X38850000Y1960000D03*
%TO.P,U1,34,GPIO28_ADC2*%
%TO.N,GPIO28_ADC2*%
X41390000Y1960000D03*
%TO.P,U1,35,ADC_VREF*%
%TO.N,ADC_VREF*%
X43930000Y1960000D03*
%TO.P,U1,36,3V3*%
%TO.N,+3.3V*%
X46470000Y1960000D03*
%TO.P,U1,37,3V3_EN*%
%TO.N,unconnected-(U1-3V3_EN-Pad37)*%
X49010000Y1960000D03*
%TO.P,U1,38,GND*%
%TO.N,GNDA*%
X51550000Y1960000D03*
%TO.P,U1,39,VSYS*%
%TO.N,unconnected-(U1-VSYS-Pad39)*%
X54090000Y1960000D03*
%TO.P,U1,40,VBUS*%
%TO.N,+5V*%
X56630000Y1960000D03*
D13*
%TO.P,U1,41,SWCLK*%
%TO.N,GPIO25*%
X7700000Y14290000D03*
%TO.P,U1,42,GND*%
%TO.N,GNDA*%
X7700000Y11750000D03*
%TO.P,U1,43,SWDIO*%
%TO.N,GPIO24*%
X7700000Y9210000D03*
%TD*%
D14*
%TO.P,J1,2,Ext*%
%TO.N,GNDA*%
X2825000Y19000000D03*
X2825000Y10500000D03*
%TD*%
D15*
%TO.N,GNDA*%
X46000000Y9000000D03*
X57750000Y17500000D03*
X39000000Y20750000D03*
X53250000Y6750000D03*
X13500000Y750000D03*
X10650000Y16450000D03*
X4000000Y13750000D03*
X17250000Y10500000D03*
X27000000Y14250000D03*
X13450000Y22900000D03*
X3000000Y12250000D03*
X26000000Y4500000D03*
X21525000Y7525000D03*
X41200000Y18950000D03*
X3000000Y17250000D03*
X43000000Y8000000D03*
X40500000Y12750000D03*
X62000000Y19250000D03*
X62000000Y13500000D03*
X59250000Y12750000D03*
X13500000Y6750000D03*
X31750000Y18750000D03*
X40500000Y11750000D03*
X32200000Y7750000D03*
X51500000Y3250000D03*
X13000000Y7500000D03*
X31250000Y7750000D03*
X40212500Y5000000D03*
X7800000Y18850000D03*
X26650000Y18900000D03*
X62000000Y10000000D03*
X59250000Y16250000D03*
X42750000Y15000000D03*
X35750000Y7750000D03*
X59250000Y14700000D03*
X9050000Y16450000D03*
X62000000Y16000000D03*
X51500000Y8250000D03*
X40500000Y10500000D03*
X45500000Y4750000D03*
X4000000Y15750000D03*
X16000000Y10500000D03*
X32200000Y9250000D03*
X5000000Y15750000D03*
X42750000Y16000000D03*
X42750000Y10500000D03*
X59250000Y8500000D03*
X30250000Y17500000D03*
X3000000Y13750000D03*
X57750000Y16250000D03*
X34750000Y7750000D03*
X31000000Y15500000D03*
X5000000Y12250000D03*
X43000000Y4750000D03*
X42750000Y14000000D03*
X750000Y17250000D03*
X12000000Y16450000D03*
X45000000Y8000000D03*
X51500000Y2000000D03*
X3000000Y15750000D03*
X50000000Y8250000D03*
X39000000Y7750000D03*
X40250000Y7750000D03*
X59250000Y10700000D03*
X47250000Y8000000D03*
X26000000Y14250000D03*
X5000000Y17250000D03*
X750000Y12250000D03*
X39000000Y21750000D03*
X5000000Y13750000D03*
X62000000Y11750000D03*
X21500000Y8625000D03*
X57750000Y18750000D03*
X17500000Y7250000D03*
X26000000Y3000000D03*
%TO.N,SDA*%
X19500000Y4500000D03*
X23500000Y7000000D03*
%TO.N,+3.3V*%
X50000000Y5250000D03*
X14750000Y7500000D03*
X12750000Y15000000D03*
X59150000Y17500000D03*
%TO.N,SCL*%
X19250000Y7000000D03*
X21000000Y4500000D03*
%TO.N,GPIO14*%
X10750000Y19250000D03*
%TO.N,GPIO25*%
X11750000Y7500000D03*
%TO.N,GPIO15*%
X9750000Y19250000D03*
%TO.N,GPIO24*%
X11750000Y6500000D03*
%TO.N,SPI_MI*%
X18500000Y19600000D03*
%TO.N,GPIO20*%
X21000000Y17750000D03*
%TO.N,SPI_MO*%
X22500000Y18750000D03*
%TO.N,GPIO9*%
X30000000Y16250000D03*
%TO.N,GPIO21*%
X22500000Y17750000D03*
%TO.N,SPI_CLK*%
X30000000Y19500000D03*
X24000000Y19250000D03*
%TO.N,SPI_CS*%
X15990000Y19250000D03*
%TO.N,GPIO22*%
X23750000Y17750000D03*
%TO.N,ADC_CLK*%
X33750000Y18500000D03*
%TO.N,GPIO2*%
X51750000Y17400000D03*
%TO.N,GPIO7*%
X35000000Y19250000D03*
%TO.N,GPIO5*%
X42675000Y24325000D03*
%TO.N,GPIO3*%
X49750000Y17250000D03*
%TO.N,GPIO1*%
X55000000Y19250000D03*
%TO.N,GPIO6*%
X37500000Y23750000D03*
%TO.N,GPIO0*%
X56000000Y19250000D03*
%TO.N,GPIO4*%
X47000000Y17425000D03*
%TO.N,/VA*%
X41750000Y7750000D03*
X37000000Y17250000D03*
X35500000Y9250000D03*
%TD*%
D16*
%TO.N,GNDA*%
X38850000Y2860000D02*
X38850000Y1588298D01*
X56635000Y25050000D02*
X56700000Y25050000D01*
X26625000Y18925000D02*
X26625000Y20165000D01*
X51550000Y20640000D02*
X51550000Y19200000D01*
X8600000Y11750000D02*
X6750000Y11750000D01*
X51550000Y19200000D02*
X52200000Y18550000D01*
X6000000Y11000000D02*
X3325000Y11000000D01*
X56700000Y25050000D02*
X58250000Y23500000D01*
X6750000Y11750000D02*
X6000000Y11000000D01*
X26625000Y20165000D02*
X26150000Y20640000D01*
X26650000Y18900000D02*
X26625000Y18925000D01*
X3325000Y11000000D02*
X2825000Y10500000D01*
D17*
%TO.N,SDA*%
X19500000Y4500000D02*
X16350000Y4500000D01*
X14050000Y26300000D02*
X12165000Y26300000D01*
X14750000Y25600000D02*
X14050000Y26300000D01*
X14750000Y18750000D02*
X14750000Y25600000D01*
X23500000Y10000000D02*
X14750000Y18750000D01*
X23500000Y7000000D02*
X23500000Y10000000D01*
X15990000Y4140000D02*
X15990000Y2860000D01*
X16350000Y4500000D02*
X15990000Y4140000D01*
X12165000Y26300000D02*
X10915000Y25050000D01*
D16*
%TO.N,+3.3V*%
X57750000Y5250000D02*
X61125000Y8625000D01*
X14750000Y7500000D02*
X14750000Y13000000D01*
X63250000Y16500000D02*
X62250000Y17500000D01*
X46470000Y2970000D02*
X46470000Y2860000D01*
X62875000Y8625000D02*
X63250000Y9000000D01*
X62250000Y17500000D02*
X59150000Y17500000D01*
X61125000Y8625000D02*
X62875000Y8625000D01*
X63250000Y9000000D02*
X63250000Y16500000D01*
X14750000Y13000000D02*
X12750000Y15000000D01*
X48750000Y5250000D02*
X46470000Y2970000D01*
X50000000Y5250000D02*
X57750000Y5250000D01*
X50000000Y5250000D02*
X48750000Y5250000D01*
D17*
%TO.N,SCL*%
X20000000Y6250000D02*
X21650000Y6250000D01*
X20500000Y4500000D02*
X18860000Y2860000D01*
X18860000Y2860000D02*
X18530000Y2860000D01*
X12150000Y23745000D02*
X13455000Y25050000D01*
X21000000Y4500000D02*
X20500000Y4500000D01*
X22900000Y9850000D02*
X13750000Y19000000D01*
X13750000Y19000000D02*
X12700000Y19000000D01*
X12150000Y19550000D02*
X12150000Y23745000D01*
X22900000Y7500000D02*
X22900000Y9850000D01*
X19250000Y7000000D02*
X20000000Y6250000D01*
X12700000Y19000000D02*
X12150000Y19550000D01*
X21650000Y6250000D02*
X22900000Y7500000D01*
%TO.N,GPIO14*%
X10750000Y19250000D02*
X10910000Y19410000D01*
X10910000Y19410000D02*
X10910000Y20640000D01*
%TO.N,GPIO25*%
X11750000Y7500000D02*
X10250000Y9000000D01*
X9710000Y14290000D02*
X8600000Y14290000D01*
X10250000Y13750000D02*
X9710000Y14290000D01*
X10250000Y9000000D02*
X10250000Y13750000D01*
%TO.N,GPIO15*%
X9750000Y19250000D02*
X9750000Y19260000D01*
X9750000Y19260000D02*
X8370000Y20640000D01*
%TO.N,GPIO28_ADC2*%
X28000000Y18950000D02*
X27450000Y19500000D01*
X41390000Y2860000D02*
X41390000Y5360000D01*
X41390000Y5360000D02*
X40500000Y6250000D01*
X40500000Y6250000D02*
X34500000Y6250000D01*
X34500000Y6250000D02*
X33150000Y7600000D01*
X33150000Y7600000D02*
X33150000Y10100000D01*
X30750000Y14250000D02*
X28000000Y17000000D01*
X30750000Y12500000D02*
X30750000Y14250000D01*
X28000000Y17000000D02*
X28000000Y18950000D01*
X27450000Y19500000D02*
X27450000Y26345000D01*
X27450000Y26345000D02*
X28695000Y27590000D01*
X33150000Y10100000D02*
X30750000Y12500000D01*
D16*
%TO.N,+5V*%
X8375000Y27590000D02*
X10915000Y27590000D01*
X64250000Y8250000D02*
X64250000Y21000000D01*
X61500000Y7500000D02*
X63500000Y7500000D01*
X57550000Y29200000D02*
X12525000Y29200000D01*
X56630000Y2860000D02*
X56860000Y2860000D01*
X58500000Y25000000D02*
X58500000Y28250000D01*
X12525000Y29200000D02*
X10915000Y27590000D01*
X64250000Y21000000D02*
X62750000Y22500000D01*
X56860000Y2860000D02*
X61500000Y7500000D01*
X61000000Y22500000D02*
X58500000Y25000000D01*
X58500000Y28250000D02*
X57550000Y29200000D01*
X63500000Y7500000D02*
X64250000Y8250000D01*
X62750000Y22500000D02*
X61000000Y22500000D01*
D17*
%TO.N,ADC_VREF*%
X40250000Y24000000D02*
X41300000Y25050000D01*
X43930000Y10820000D02*
X40250000Y14500000D01*
X41300000Y25050000D02*
X41395000Y25050000D01*
X43930000Y2860000D02*
X43930000Y10820000D01*
X40250000Y14500000D02*
X40250000Y24000000D01*
%TO.N,GPIO24*%
X9040000Y9210000D02*
X8600000Y9210000D01*
X11750000Y6500000D02*
X9040000Y9210000D01*
%TO.N,SPI_MI*%
X18530000Y19630000D02*
X18530000Y20640000D01*
X18500000Y19600000D02*
X18530000Y19630000D01*
%TO.N,GPIO20*%
X25250000Y6250000D02*
X23500000Y4500000D01*
X21000000Y17750000D02*
X21000000Y14750000D01*
X23500000Y4500000D02*
X22710000Y4500000D01*
X22710000Y4500000D02*
X21070000Y2860000D01*
X21000000Y14750000D02*
X25250000Y10500000D01*
X25250000Y10500000D02*
X25250000Y6250000D01*
%TO.N,SPI_MO*%
X21710000Y18750000D02*
X21250000Y19210000D01*
X22500000Y18750000D02*
X21710000Y18750000D01*
X21250000Y20460000D02*
X21070000Y20640000D01*
X21250000Y19210000D02*
X21250000Y20460000D01*
%TO.N,GPIO9*%
X28690000Y17560000D02*
X28690000Y20640000D01*
X30000000Y16250000D02*
X28690000Y17560000D01*
%TO.N,GPIO21*%
X25750000Y6000000D02*
X23610000Y3860000D01*
X22500000Y14000000D02*
X25750000Y10750000D01*
X23610000Y3860000D02*
X23610000Y2860000D01*
X22500000Y17750000D02*
X22500000Y14000000D01*
X25750000Y10750000D02*
X25750000Y6000000D01*
%TO.N,GPIO27_ADC1*%
X33000000Y4250000D02*
X30250000Y7000000D01*
X30250000Y7000000D02*
X30250000Y14000000D01*
X30250000Y14000000D02*
X24850000Y19400000D01*
X36310000Y2860000D02*
X34920000Y4250000D01*
X24850000Y19400000D02*
X24850000Y26285000D01*
X24850000Y26285000D02*
X26155000Y27590000D01*
X34920000Y4250000D02*
X33000000Y4250000D01*
%TO.N,SPI_CLK*%
X24000000Y19250000D02*
X23610000Y19640000D01*
X34900000Y26350000D02*
X36200000Y25050000D01*
X30600000Y26350000D02*
X34900000Y26350000D01*
X30000000Y19500000D02*
X29950000Y19550000D01*
X23610000Y19640000D02*
X23610000Y20640000D01*
X29950000Y19550000D02*
X29950000Y25700000D01*
X36200000Y25050000D02*
X36315000Y25050000D01*
X29950000Y25700000D02*
X30600000Y26350000D01*
%TO.N,RX*%
X11950000Y5200000D02*
X23450000Y5200000D01*
X23450000Y5200000D02*
X24750000Y6500000D01*
X19800000Y26200000D02*
X18535000Y27465000D01*
X24750000Y6500000D02*
X24750000Y10250000D01*
X19800000Y15200000D02*
X19800000Y26200000D01*
X10910000Y4160000D02*
X11950000Y5200000D01*
X24750000Y10250000D02*
X19800000Y15200000D01*
X18535000Y27465000D02*
X18535000Y27590000D01*
X10910000Y2860000D02*
X10910000Y4160000D01*
%TO.N,TX*%
X17250000Y26250000D02*
X15995000Y27505000D01*
X9700000Y5700000D02*
X23200000Y5700000D01*
X8370000Y4370000D02*
X9700000Y5700000D01*
X24250000Y10000000D02*
X17250000Y17000000D01*
X24250000Y6750000D02*
X24250000Y10000000D01*
X23200000Y5700000D02*
X24250000Y6750000D01*
X15995000Y27505000D02*
X15995000Y27590000D01*
X8370000Y2860000D02*
X8370000Y4370000D01*
X17250000Y17000000D02*
X17250000Y26250000D01*
%TO.N,SPI_CS*%
X15990000Y19250000D02*
X15990000Y20640000D01*
%TO.N,GPIO26_ADC0*%
X22350000Y19900000D02*
X22350000Y26400000D01*
X33640000Y2860000D02*
X29750000Y6750000D01*
X21160000Y27590000D02*
X21075000Y27590000D01*
X29750000Y13750000D02*
X25000000Y18500000D01*
X22350000Y26400000D02*
X21160000Y27590000D01*
X25000000Y18500000D02*
X23750000Y18500000D01*
X29750000Y6750000D02*
X29750000Y13750000D01*
X33770000Y2860000D02*
X33640000Y2860000D01*
X23750000Y18500000D02*
X22350000Y19900000D01*
%TO.N,GPIO22*%
X29250000Y13500000D02*
X29250000Y3420000D01*
X29250000Y3420000D02*
X28690000Y2860000D01*
X25000000Y17750000D02*
X29250000Y13500000D01*
X23750000Y17750000D02*
X25000000Y17750000D01*
%TO.N,ADC_CLK*%
X33750000Y18500000D02*
X33370000Y18500000D01*
X33370000Y18500000D02*
X31230000Y20640000D01*
X31230000Y20640000D02*
X31230000Y22980000D01*
%TO.N,GPIO2*%
X50678283Y19201078D02*
X50607572Y19271789D01*
X49589338Y18960662D02*
X49275000Y19275000D01*
X49275000Y19275000D02*
X49010000Y19540000D01*
X49985318Y18225271D02*
X50013603Y18253555D01*
X50324729Y19271789D02*
X49942891Y18889952D01*
X49660048Y18889952D02*
X49589338Y18960662D01*
X50013603Y18253555D02*
X50678283Y18918236D01*
X49010000Y19540000D02*
X49010000Y20640000D01*
X51750000Y17400000D02*
X51150000Y17400000D01*
X51150000Y17400000D02*
X50650000Y17900000D01*
X50056030Y17871716D02*
X49985319Y17942427D01*
X50367156Y17900001D02*
X50338872Y17871716D01*
X50338872Y17871716D02*
G75*
G02*
X50056030Y17871716I-141421J141426D01*
G01*
X49942890Y18889953D02*
G75*
G02*
X49660049Y18889953I-141420J141419D01*
G01*
X50649999Y17899999D02*
G75*
G03*
X50367179Y17899978I-141399J-141399D01*
G01*
X50678283Y18918236D02*
G75*
G03*
X50678326Y19201121I-141383J141464D01*
G01*
X50607571Y19271788D02*
G75*
G03*
X50324730Y19271788I-141420J-141419D01*
G01*
X49985319Y17942427D02*
G75*
G02*
X49985368Y18225221I141381J141373D01*
G01*
%TO.N,GPIO7*%
X33770000Y20640000D02*
X33770000Y20480000D01*
X35000000Y19410000D02*
X33770000Y20640000D01*
X35000000Y19250000D02*
X35000000Y19410000D01*
%TO.N,GPIO5*%
X41390000Y23040000D02*
X41390000Y20640000D01*
X42675000Y24325000D02*
X41390000Y23040000D01*
%TO.N,GPIO3*%
X48975881Y16400000D02*
X48975881Y16500000D01*
X49750000Y17250000D02*
X50250000Y16750000D01*
X48250000Y18250000D02*
X48250000Y18860000D01*
X48250000Y18000000D02*
X48250000Y18250000D01*
X48975860Y17400000D02*
X48975860Y17500000D01*
X47372893Y19737107D02*
X47305000Y19805000D01*
X48450000Y16700000D02*
X48024130Y16700000D01*
X50250000Y16000000D02*
X49750000Y15500000D01*
X47443602Y19666398D02*
X47372893Y19737107D01*
X48775860Y17700000D02*
X48450000Y17700000D01*
X48250000Y17900000D02*
X48250000Y18000000D01*
X50250000Y16750000D02*
X50250000Y16000000D01*
X48450000Y16200000D02*
X48775881Y16200000D01*
X46552648Y18492600D02*
X47443601Y19383556D01*
X48250000Y18860000D02*
X48080000Y19030000D01*
X48775881Y16700000D02*
X48450000Y16700000D01*
X48250000Y17200000D02*
X48775860Y17200000D01*
X46623358Y18139047D02*
X46552647Y18209758D01*
X48250000Y15750000D02*
X48250000Y16000000D01*
X47797156Y19030001D02*
X46906202Y18139046D01*
X47305000Y19805000D02*
X46470000Y20640000D01*
X48500000Y15500000D02*
X48250000Y15750000D01*
X47824130Y16900000D02*
X47824130Y17000000D01*
X48024130Y17200000D02*
X48250000Y17200000D01*
X49750000Y15500000D02*
X48500000Y15500000D01*
X48024130Y16700000D02*
G75*
G02*
X47824100Y16900000I-30J200000D01*
G01*
X48079999Y19029999D02*
G75*
G03*
X47797179Y19029978I-141399J-141399D01*
G01*
X46906202Y18139046D02*
G75*
G02*
X46623378Y18139067I-141402J141454D01*
G01*
X48775860Y17200000D02*
G75*
G03*
X48975900Y17400000I40J200000D01*
G01*
X48450000Y17700000D02*
G75*
G02*
X48250000Y17900000I0J200000D01*
G01*
X46552648Y18209759D02*
G75*
G02*
X46552627Y18492621I141452J141441D01*
G01*
X47824130Y17000000D02*
G75*
G02*
X48024130Y17199970I199970J0D01*
G01*
X47443601Y19383556D02*
G75*
G03*
X47443624Y19666420I-141401J141444D01*
G01*
X48975860Y17500000D02*
G75*
G03*
X48775860Y17699960I-199960J0D01*
G01*
X48975881Y16500000D02*
G75*
G03*
X48775881Y16699981I-199981J0D01*
G01*
X48775881Y16200000D02*
G75*
G03*
X48975900Y16400000I19J200000D01*
G01*
X48250000Y16000000D02*
G75*
G02*
X48450000Y16200000I200000J0D01*
G01*
%TO.N,GPIO1*%
X54090000Y20160000D02*
X54090000Y20640000D01*
X55000000Y19250000D02*
X54090000Y20160000D01*
%TO.N,GPIO6*%
X36310000Y22560000D02*
X36310000Y20640000D01*
X37500000Y23750000D02*
X36310000Y22560000D01*
%TO.N,GPIO0*%
X56000000Y19250000D02*
X56630000Y19880000D01*
X56630000Y19880000D02*
X56630000Y20640000D01*
%TO.N,GPIO4*%
X43970000Y18830648D02*
X43850000Y18830648D01*
X42575000Y17425000D02*
X42200000Y17800000D01*
X45410000Y16259352D02*
X45410000Y17185000D01*
X43250000Y17425000D02*
X42900000Y17425000D01*
X46010000Y17185000D02*
X46010000Y16259352D01*
X42200000Y18700000D02*
X43930000Y20430000D01*
X44810000Y17425000D02*
X44810000Y16259350D01*
X42900000Y17425000D02*
X42575000Y17425000D01*
X42200000Y17800000D02*
X42200000Y18700000D01*
X45410000Y17185000D02*
X45410000Y18590648D01*
X43610000Y18590648D02*
X43610000Y17665000D01*
X44210000Y16259350D02*
X44210000Y17425000D01*
X44210000Y17425000D02*
X44210000Y18590648D01*
X43930000Y20430000D02*
X43930000Y20640000D01*
X47000000Y17425000D02*
X46250000Y17425000D01*
X45170000Y18830648D02*
X45050000Y18830648D01*
X44810000Y18590648D02*
X44810000Y17425000D01*
X44570000Y16019350D02*
X44450000Y16019350D01*
X43370000Y17425000D02*
X43250000Y17425000D01*
X45770000Y16019352D02*
X45650000Y16019352D01*
X45410000Y18590648D02*
G75*
G03*
X45170000Y18830600I-240000J-48D01*
G01*
X44450000Y16019350D02*
G75*
G02*
X44210050Y16259350I0J239950D01*
G01*
X43610000Y17665000D02*
G75*
G02*
X43370000Y17425000I-240000J0D01*
G01*
X43850000Y18830648D02*
G75*
G03*
X43609952Y18590648I0J-240048D01*
G01*
X45650000Y16019352D02*
G75*
G02*
X45409952Y16259352I0J240048D01*
G01*
X44210000Y18590648D02*
G75*
G03*
X43970000Y18830600I-240000J-48D01*
G01*
X44810000Y16259350D02*
G75*
G02*
X44570000Y16019300I-240000J-50D01*
G01*
X45050000Y18830648D02*
G75*
G03*
X44809952Y18590648I0J-240048D01*
G01*
X46250000Y17425000D02*
G75*
G03*
X46010000Y17185000I0J-240000D01*
G01*
X46010000Y16259352D02*
G75*
G02*
X45770000Y16019400I-240000J48D01*
G01*
D16*
%TO.N,/VA*%
X36250000Y10050000D02*
X36250000Y9850000D01*
X40750000Y9250000D02*
X36950000Y9250000D01*
X41750000Y7750000D02*
X41750000Y8250000D01*
X36250000Y10050000D02*
X36250000Y16500000D01*
X35500000Y9250000D02*
X36950000Y9250000D01*
X36250000Y16500000D02*
X37000000Y17250000D01*
X41750000Y8250000D02*
X40750000Y9250000D01*
X36250000Y9850000D02*
X35650000Y9250000D01*
X36850000Y9250000D02*
X36950000Y9250000D01*
X35650000Y9250000D02*
X35500000Y9250000D01*
X36250000Y9850000D02*
X36850000Y9250000D01*
%TD*%
%TA.AperFunction,Conductor*%
%TO.N,GNDA*%
G36*
X6896288Y29480546D02*
G01*
X6977070Y29426570D01*
X7031046Y29345788D01*
X7050000Y29250500D01*
X7050000Y27895747D01*
X7041517Y27831305D01*
X7039937Y27825409D01*
X7039935Y27825402D01*
X7019341Y27590006D01*
X7019341Y27589995D01*
X7039935Y27354599D01*
X7039937Y27354592D01*
X7041516Y27348699D01*
X7050000Y27284256D01*
X7050000Y26103593D01*
X7034302Y26016581D01*
X7030909Y26007486D01*
X7030908Y26007481D01*
X7024500Y25947877D01*
X7024500Y24152135D01*
X7024501Y24152131D01*
X7030908Y24092518D01*
X7034301Y24083423D01*
X7050000Y23996408D01*
X7050000Y23133454D01*
X7041515Y23069008D01*
X7025860Y23010586D01*
X7025859Y23010578D01*
X7019500Y22929778D01*
X7019500Y20150222D01*
X7025859Y20069423D01*
X7025860Y20069416D01*
X7076210Y19881510D01*
X7076211Y19881506D01*
X7164534Y19708161D01*
X7164537Y19708157D01*
X7252281Y19599803D01*
X7286968Y19556968D01*
X7286973Y19556964D01*
X7436365Y19435988D01*
X7438160Y19434535D01*
X7611504Y19346212D01*
X7799422Y19295859D01*
X7880222Y19289500D01*
X8717465Y19289500D01*
X8812753Y19270546D01*
X8893535Y19216570D01*
X8947511Y19135788D01*
X8960814Y19084215D01*
X8961521Y19084376D01*
X8964631Y19070749D01*
X8964631Y19070747D01*
X8964632Y19070745D01*
X9024211Y18900478D01*
X9024212Y18900477D01*
X9024214Y18900471D01*
X9120180Y18747743D01*
X9120182Y18747741D01*
X9120184Y18747738D01*
X9247738Y18620184D01*
X9247740Y18620183D01*
X9247742Y18620181D01*
X9400470Y18524215D01*
X9400473Y18524214D01*
X9400478Y18524211D01*
X9570745Y18464632D01*
X9570754Y18464631D01*
X9749996Y18444435D01*
X9750000Y18444435D01*
X9750004Y18444435D01*
X9889908Y18460199D01*
X9929255Y18464632D01*
X9990398Y18486028D01*
X10072637Y18500000D01*
X10427363Y18500000D01*
X10509601Y18486028D01*
X10570745Y18464632D01*
X10570754Y18464631D01*
X10749996Y18444435D01*
X10750000Y18444435D01*
X10750004Y18444435D01*
X10889908Y18460199D01*
X10929255Y18464632D01*
X10990398Y18486028D01*
X11072637Y18500000D01*
X12246899Y18500000D01*
X12342187Y18481046D01*
X12385234Y18458037D01*
X12403714Y18445689D01*
X12517548Y18398537D01*
X12638393Y18374500D01*
X12638394Y18374500D01*
X13387770Y18374500D01*
X13483058Y18355546D01*
X13563840Y18301570D01*
X22201570Y9663840D01*
X22255546Y9583058D01*
X22274500Y9487770D01*
X22274500Y7862230D01*
X22255546Y7766942D01*
X22201570Y7686160D01*
X21463840Y6948430D01*
X21383058Y6894454D01*
X21287770Y6875500D01*
X20362230Y6875500D01*
X20266942Y6894454D01*
X20186160Y6948430D01*
X20107139Y7027451D01*
X20053163Y7108233D01*
X20035774Y7175651D01*
X20035368Y7179255D01*
X19975789Y7349522D01*
X19975786Y7349527D01*
X19975785Y7349530D01*
X19879819Y7502258D01*
X19879817Y7502260D01*
X19879816Y7502262D01*
X19752262Y7629816D01*
X19752259Y7629818D01*
X19752257Y7629820D01*
X19599529Y7725786D01*
X19599524Y7725788D01*
X19599522Y7725789D01*
X19429255Y7785368D01*
X19429251Y7785369D01*
X19429245Y7785370D01*
X19250004Y7805565D01*
X19249996Y7805565D01*
X19070754Y7785370D01*
X19070746Y7785369D01*
X19070745Y7785368D01*
X18900478Y7725789D01*
X18900476Y7725789D01*
X18900476Y7725788D01*
X18900470Y7725786D01*
X18747742Y7629820D01*
X18620180Y7502258D01*
X18524214Y7349530D01*
X18524211Y7349524D01*
X18524211Y7349522D01*
X18464633Y7179256D01*
X18464632Y7179254D01*
X18464630Y7179246D01*
X18444435Y7000004D01*
X18444435Y7000000D01*
X18448434Y6964509D01*
X18450000Y6936628D01*
X18450000Y6574500D01*
X18431046Y6479212D01*
X18377070Y6398430D01*
X18296288Y6344454D01*
X18201000Y6325500D01*
X15799000Y6325500D01*
X15703712Y6344454D01*
X15622930Y6398430D01*
X15568954Y6479212D01*
X15550000Y6574500D01*
X15550000Y7436629D01*
X15551566Y7464510D01*
X15555565Y7500000D01*
X15555565Y7500004D01*
X15551566Y7535497D01*
X15550000Y7563375D01*
X15550000Y7598318D01*
X15546444Y7605542D01*
X15539574Y7641922D01*
X15535368Y7679255D01*
X15514790Y7738064D01*
X15514473Y7738971D01*
X15500500Y7821210D01*
X15500500Y13073919D01*
X15500499Y13073921D01*
X15487798Y13137770D01*
X15471658Y13218913D01*
X15415084Y13355495D01*
X15332951Y13478416D01*
X15332949Y13478418D01*
X15228416Y13582952D01*
X15228416Y13582951D01*
X13518655Y15292713D01*
X13485665Y15339213D01*
X13483229Y15337682D01*
X13379819Y15502258D01*
X13379817Y15502260D01*
X13379816Y15502262D01*
X13252262Y15629816D01*
X13252259Y15629818D01*
X13252257Y15629820D01*
X13099529Y15725786D01*
X13099524Y15725788D01*
X13099522Y15725789D01*
X12929255Y15785368D01*
X12929251Y15785369D01*
X12929245Y15785370D01*
X12750004Y15805565D01*
X12749996Y15805565D01*
X12570754Y15785370D01*
X12570746Y15785369D01*
X12570745Y15785368D01*
X12400478Y15725789D01*
X12400476Y15725789D01*
X12400476Y15725788D01*
X12400470Y15725786D01*
X12247742Y15629820D01*
X12120180Y15502258D01*
X12024214Y15349530D01*
X12024211Y15349524D01*
X12024211Y15349522D01*
X11993622Y15262102D01*
X11964632Y15179254D01*
X11964630Y15179246D01*
X11944435Y15000004D01*
X11944435Y14999997D01*
X11964630Y14820755D01*
X11964631Y14820749D01*
X11964632Y14820745D01*
X12024211Y14650478D01*
X12024212Y14650477D01*
X12024214Y14650471D01*
X12120180Y14497743D01*
X12120182Y14497741D01*
X12120184Y14497738D01*
X12247738Y14370184D01*
X12247740Y14370183D01*
X12247742Y14370181D01*
X12412318Y14266771D01*
X12410787Y14264335D01*
X12457287Y14231345D01*
X13210217Y13478415D01*
X13926570Y12762063D01*
X13980546Y12681281D01*
X13999500Y12585993D01*
X13999500Y7821210D01*
X13985525Y7738965D01*
X13972729Y7702399D01*
X13950000Y7663870D01*
X13950000Y7563372D01*
X13948434Y7535492D01*
X13944435Y7500002D01*
X13944435Y7500000D01*
X13948434Y7464509D01*
X13950000Y7436628D01*
X13950000Y6574500D01*
X13931046Y6479212D01*
X13877070Y6398430D01*
X13796288Y6344454D01*
X13701000Y6325500D01*
X12797747Y6325500D01*
X12702459Y6344454D01*
X12621677Y6398430D01*
X12567701Y6479212D01*
X12550313Y6546621D01*
X12535369Y6679246D01*
X12535368Y6679255D01*
X12475789Y6849522D01*
X12464478Y6867522D01*
X12429830Y6958285D01*
X12432553Y7055402D01*
X12464478Y7132478D01*
X12475789Y7150478D01*
X12535368Y7320745D01*
X12551566Y7464509D01*
X12555565Y7499997D01*
X12555565Y7500004D01*
X12535369Y7679246D01*
X12535368Y7679255D01*
X12475789Y7849522D01*
X12475786Y7849527D01*
X12475785Y7849530D01*
X12379819Y8002258D01*
X12379817Y8002260D01*
X12379816Y8002262D01*
X12252262Y8129816D01*
X12252259Y8129818D01*
X12252257Y8129820D01*
X12099529Y8225786D01*
X12099524Y8225788D01*
X12099522Y8225789D01*
X11929255Y8285368D01*
X11929253Y8285369D01*
X11929248Y8285370D01*
X11929251Y8285370D01*
X11925640Y8285776D01*
X11921024Y8287248D01*
X11915615Y8288482D01*
X11915719Y8288939D01*
X11833074Y8315280D01*
X11777451Y8357140D01*
X10948430Y9186161D01*
X10894454Y9266943D01*
X10875500Y9362231D01*
X10875500Y13811605D01*
X10851462Y13932455D01*
X10804313Y14046282D01*
X10804310Y14046287D01*
X10804261Y14046361D01*
X10735858Y14148733D01*
X10648733Y14235858D01*
X10648732Y14235859D01*
X10210053Y14674537D01*
X10210051Y14674540D01*
X10210051Y14674539D01*
X10195859Y14688731D01*
X10195858Y14688733D01*
X10108733Y14775858D01*
X10102866Y14779778D01*
X10055231Y14811607D01*
X10013814Y14839282D01*
X9945117Y14907983D01*
X9911641Y14981865D01*
X9893788Y15048496D01*
X9805465Y15221840D01*
X9782661Y15250000D01*
X9683036Y15373027D01*
X9683032Y15373032D01*
X9657386Y15393800D01*
X9531843Y15495463D01*
X9531839Y15495466D01*
X9358494Y15583789D01*
X9358490Y15583790D01*
X9170584Y15634140D01*
X9170579Y15634141D01*
X9170578Y15634141D01*
X9089778Y15640500D01*
X6310222Y15640500D01*
X6229422Y15634141D01*
X6229415Y15634140D01*
X6041509Y15583790D01*
X6041505Y15583789D01*
X5868160Y15495466D01*
X5868156Y15495463D01*
X5716973Y15373037D01*
X5716963Y15373027D01*
X5594537Y15221844D01*
X5594534Y15221840D01*
X5506211Y15048495D01*
X5506210Y15048491D01*
X5455860Y14860585D01*
X5455859Y14860578D01*
X5449500Y14779778D01*
X5449500Y14779771D01*
X5449500Y13800223D01*
X5449692Y13795337D01*
X5449557Y13795332D01*
X5450000Y13784087D01*
X5450000Y12049000D01*
X5431046Y11953712D01*
X5377070Y11872930D01*
X5296288Y11818954D01*
X5201000Y11800000D01*
X4478554Y11800000D01*
X3178554Y10500000D01*
X4478554Y9200000D01*
X5200500Y9200000D01*
X5295788Y9181046D01*
X5376570Y9127070D01*
X5430546Y9046288D01*
X5449500Y8951000D01*
X5449500Y8720222D01*
X5455859Y8639423D01*
X5455860Y8639416D01*
X5506210Y8451510D01*
X5506211Y8451506D01*
X5594534Y8278161D01*
X5594537Y8278157D01*
X5688725Y8161845D01*
X5716968Y8126968D01*
X5716973Y8126964D01*
X5806753Y8054261D01*
X5868160Y8004535D01*
X6041504Y7916212D01*
X6229422Y7865859D01*
X6310222Y7859500D01*
X6310229Y7859500D01*
X6751000Y7859500D01*
X6846288Y7840546D01*
X6927070Y7786570D01*
X6981046Y7705788D01*
X7000000Y7610500D01*
X7000000Y249500D01*
X6981046Y154212D01*
X6927070Y73430D01*
X6846288Y19454D01*
X6751000Y500D01*
X3564249Y500D01*
X3564237Y501D01*
X3544171Y501D01*
X3506526Y501D01*
X3493494Y842D01*
X3173360Y17620D01*
X3147440Y20345D01*
X2837280Y69469D01*
X2811800Y74884D01*
X2508445Y156169D01*
X2483676Y164217D01*
X2190487Y276762D01*
X2166678Y287362D01*
X1886878Y429927D01*
X1864306Y442959D01*
X1600937Y613993D01*
X1579852Y629312D01*
X1335807Y826935D01*
X1316437Y844375D01*
X1094374Y1066438D01*
X1076935Y1085807D01*
X879313Y1329850D01*
X863993Y1350936D01*
X771119Y1493949D01*
X692956Y1614308D01*
X679926Y1636878D01*
X537359Y1916683D01*
X526761Y1940487D01*
X414216Y2233676D01*
X406171Y2258433D01*
X324880Y2561814D01*
X319470Y2587270D01*
X270343Y2897447D01*
X267619Y2923361D01*
X256857Y3128713D01*
X1649500Y3128713D01*
X1681162Y2888210D01*
X1681163Y2888205D01*
X1743940Y2653918D01*
X1743948Y2653895D01*
X1836770Y2429799D01*
X1836778Y2429783D01*
X1958058Y2219721D01*
X1958064Y2219711D01*
X2105729Y2027269D01*
X2105738Y2027259D01*
X2277258Y1855739D01*
X2277268Y1855730D01*
X2398491Y1762713D01*
X2469711Y1708064D01*
X2469720Y1708059D01*
X2679782Y1586779D01*
X2679798Y1586771D01*
X2819858Y1528758D01*
X2903900Y1493946D01*
X2903911Y1493943D01*
X2903917Y1493941D01*
X3087021Y1444879D01*
X3138211Y1431162D01*
X3378712Y1399500D01*
X3621288Y1399500D01*
X3861789Y1431162D01*
X4023275Y1474433D01*
X4096082Y1493941D01*
X4096084Y1493942D01*
X4096100Y1493946D01*
X4247766Y1556769D01*
X4320201Y1586771D01*
X4320206Y1586774D01*
X4320212Y1586776D01*
X4530289Y1708064D01*
X4722738Y1855735D01*
X4894265Y2027262D01*
X5041936Y2219711D01*
X5163224Y2429788D01*
X5256054Y2653900D01*
X5318838Y2888211D01*
X5350500Y3128712D01*
X5350500Y3371288D01*
X5318838Y3611789D01*
X5256054Y3846100D01*
X5215904Y3943032D01*
X5163229Y4070202D01*
X5163221Y4070218D01*
X5041941Y4280280D01*
X5041935Y4280290D01*
X5016784Y4313067D01*
X4949050Y4401341D01*
X4894270Y4472732D01*
X4894261Y4472742D01*
X4722741Y4644262D01*
X4722731Y4644271D01*
X4530289Y4791936D01*
X4530279Y4791942D01*
X4320217Y4913222D01*
X4320201Y4913230D01*
X4096105Y5006052D01*
X4096103Y5006053D01*
X4096100Y5006054D01*
X4096096Y5006055D01*
X4096082Y5006060D01*
X3861795Y5068837D01*
X3861790Y5068838D01*
X3621288Y5100500D01*
X3378712Y5100500D01*
X3138209Y5068838D01*
X3138204Y5068837D01*
X2903917Y5006060D01*
X2903894Y5006052D01*
X2679798Y4913230D01*
X2679782Y4913222D01*
X2469720Y4791942D01*
X2469710Y4791936D01*
X2277268Y4644271D01*
X2277258Y4644262D01*
X2105738Y4472742D01*
X2105729Y4472732D01*
X1958064Y4280290D01*
X1958058Y4280280D01*
X1836778Y4070218D01*
X1836770Y4070202D01*
X1743948Y3846106D01*
X1743940Y3846083D01*
X1681163Y3611796D01*
X1681162Y3611791D01*
X1649500Y3371288D01*
X1649500Y3128713D01*
X256857Y3128713D01*
X250842Y3243495D01*
X250501Y3256526D01*
X250501Y3314235D01*
X250500Y3314249D01*
X250500Y8951000D01*
X269454Y9046288D01*
X323430Y9127070D01*
X404212Y9181046D01*
X499500Y9200000D01*
X1171446Y9200000D01*
X1878553Y9200000D01*
X3771447Y9200000D01*
X2825000Y10146447D01*
X1878553Y9200001D01*
X1878553Y9200000D01*
X1171446Y9200000D01*
X2471446Y10500000D01*
X1171446Y11800000D01*
X1878553Y11800000D01*
X2825000Y10853554D01*
X3771447Y11800000D01*
X1878553Y11800000D01*
X1171446Y11800000D01*
X499500Y11800000D01*
X404212Y11818954D01*
X323430Y11872930D01*
X269454Y11953712D01*
X250500Y12049000D01*
X250500Y17451000D01*
X269454Y17546288D01*
X323430Y17627070D01*
X404212Y17681046D01*
X499500Y17700000D01*
X1171446Y17700000D01*
X1878553Y17700000D01*
X3771447Y17700000D01*
X2825000Y18646447D01*
X1878553Y17700001D01*
X1878553Y17700000D01*
X1171446Y17700000D01*
X2471446Y19000000D01*
X3178554Y19000000D01*
X4478554Y17700000D01*
X5322825Y17700000D01*
X5322832Y17700001D01*
X5382371Y17706402D01*
X5382378Y17706404D01*
X5517087Y17756647D01*
X5632187Y17842811D01*
X5632189Y17842813D01*
X5718353Y17957913D01*
X5768596Y18092622D01*
X5768598Y18092629D01*
X5774999Y18152168D01*
X5775000Y18152175D01*
X5775000Y19847825D01*
X5774999Y19847833D01*
X5768598Y19907372D01*
X5768596Y19907379D01*
X5718353Y20042088D01*
X5632189Y20157188D01*
X5632187Y20157190D01*
X5517087Y20243354D01*
X5382378Y20293597D01*
X5382371Y20293599D01*
X5322832Y20300000D01*
X4478554Y20300000D01*
X3178554Y19000000D01*
X2471446Y19000000D01*
X1171446Y20300000D01*
X1878553Y20300000D01*
X2825000Y19353554D01*
X3771447Y20300000D01*
X1878553Y20300000D01*
X1171446Y20300000D01*
X499500Y20300000D01*
X404212Y20318954D01*
X323430Y20372930D01*
X269454Y20453712D01*
X250500Y20549000D01*
X250500Y26128713D01*
X1649500Y26128713D01*
X1681162Y25888210D01*
X1681163Y25888205D01*
X1743940Y25653918D01*
X1743948Y25653895D01*
X1836770Y25429799D01*
X1836778Y25429783D01*
X1958058Y25219721D01*
X1958064Y25219711D01*
X2105729Y25027269D01*
X2105738Y25027259D01*
X2277258Y24855739D01*
X2277268Y24855730D01*
X2374545Y24781087D01*
X2469711Y24708064D01*
X2469720Y24708059D01*
X2679782Y24586779D01*
X2679798Y24586771D01*
X2819858Y24528758D01*
X2903900Y24493946D01*
X2903911Y24493943D01*
X2903917Y24493941D01*
X3087021Y24444879D01*
X3138211Y24431162D01*
X3378712Y24399500D01*
X3621288Y24399500D01*
X3861789Y24431162D01*
X4023275Y24474433D01*
X4096082Y24493941D01*
X4096084Y24493942D01*
X4096100Y24493946D01*
X4247766Y24556769D01*
X4320201Y24586771D01*
X4320206Y24586774D01*
X4320212Y24586776D01*
X4530289Y24708064D01*
X4722738Y24855735D01*
X4894265Y25027262D01*
X5041936Y25219711D01*
X5163224Y25429788D01*
X5256054Y25653900D01*
X5318838Y25888211D01*
X5350500Y26128712D01*
X5350500Y26371288D01*
X5318838Y26611789D01*
X5300497Y26680238D01*
X5256059Y26846083D01*
X5256057Y26846090D01*
X5256054Y26846100D01*
X5202455Y26975500D01*
X5163229Y27070202D01*
X5163221Y27070218D01*
X5041941Y27280280D01*
X5041935Y27280290D01*
X4894270Y27472732D01*
X4894261Y27472742D01*
X4722741Y27644262D01*
X4722731Y27644271D01*
X4530289Y27791936D01*
X4530279Y27791942D01*
X4320217Y27913222D01*
X4320201Y27913230D01*
X4096105Y28006052D01*
X4096103Y28006053D01*
X4096100Y28006054D01*
X4096096Y28006055D01*
X4096082Y28006060D01*
X3861795Y28068837D01*
X3861790Y28068838D01*
X3621288Y28100500D01*
X3378712Y28100500D01*
X3138209Y28068838D01*
X3138204Y28068837D01*
X2903917Y28006060D01*
X2903894Y28006052D01*
X2679798Y27913230D01*
X2679782Y27913222D01*
X2469720Y27791942D01*
X2469710Y27791936D01*
X2277268Y27644271D01*
X2277258Y27644262D01*
X2105738Y27472742D01*
X2105729Y27472732D01*
X1958064Y27280290D01*
X1958058Y27280280D01*
X1836778Y27070218D01*
X1836770Y27070202D01*
X1743948Y26846106D01*
X1743940Y26846083D01*
X1681163Y26611796D01*
X1681162Y26611791D01*
X1649500Y26371288D01*
X1649500Y26128713D01*
X250500Y26128713D01*
X250500Y26176834D01*
X250501Y26176843D01*
X250501Y26243475D01*
X250842Y26256506D01*
X253112Y26299828D01*
X267619Y26576648D01*
X270342Y26602552D01*
X319470Y26912735D01*
X324883Y26938201D01*
X406168Y27241555D01*
X414216Y27266324D01*
X414217Y27266325D01*
X493451Y27472738D01*
X526761Y27559513D01*
X537355Y27583310D01*
X679936Y27863142D01*
X692946Y27885676D01*
X863998Y28149073D01*
X879307Y28170143D01*
X1076943Y28414203D01*
X1094364Y28433552D01*
X1316448Y28655636D01*
X1335797Y28673057D01*
X1579857Y28870693D01*
X1600927Y28886002D01*
X1864324Y29057054D01*
X1886858Y29070064D01*
X2166690Y29212645D01*
X2190487Y29223239D01*
X2483676Y29335784D01*
X2508445Y29343832D01*
X2811799Y29425117D01*
X2837265Y29430530D01*
X3147448Y29479658D01*
X3173352Y29482381D01*
X3436564Y29496175D01*
X3493514Y29499159D01*
X3506545Y29499500D01*
X3544170Y29499500D01*
X6801000Y29499500D01*
X6896288Y29480546D01*
G37*
%TD.AperFunction*%
%TA.AperFunction,Conductor*%
G36*
X26357558Y15481046D02*
G01*
X26438340Y15427070D01*
X28551570Y13313840D01*
X28605546Y13233058D01*
X28624500Y13137770D01*
X28624500Y4459500D01*
X28605546Y4364212D01*
X28551570Y4283430D01*
X28470788Y4229454D01*
X28375500Y4210500D01*
X28200222Y4210500D01*
X28119422Y4204141D01*
X28119415Y4204140D01*
X27931509Y4153790D01*
X27931505Y4153789D01*
X27758160Y4065466D01*
X27758156Y4065463D01*
X27606973Y3943037D01*
X27597741Y3933804D01*
X27595527Y3936018D01*
X27538429Y3888555D01*
X27445636Y3859770D01*
X27348891Y3868686D01*
X27262923Y3913947D01*
X27242666Y3934212D01*
X27241903Y3933448D01*
X27232674Y3942677D01*
X27081567Y4065043D01*
X26908314Y4153319D01*
X26908312Y4153320D01*
X26720501Y4203644D01*
X26720491Y4203646D01*
X26639751Y4210000D01*
X26400001Y4210000D01*
X26400000Y4209999D01*
X26400000Y1959000D01*
X26381046Y1863712D01*
X26327070Y1782930D01*
X26246288Y1728954D01*
X26151000Y1710000D01*
X26149000Y1710000D01*
X26053712Y1728954D01*
X25972930Y1782930D01*
X25918954Y1863712D01*
X25900000Y1959000D01*
X25900000Y4209999D01*
X25887831Y4222168D01*
X25853712Y4228954D01*
X25772930Y4282930D01*
X25718954Y4363712D01*
X25700000Y4459000D01*
X25700000Y4962271D01*
X25718954Y5057559D01*
X25772930Y5138340D01*
X26134535Y5499946D01*
X26148729Y5514140D01*
X26148733Y5514142D01*
X26235858Y5601267D01*
X26291493Y5684530D01*
X26304312Y5703714D01*
X26351463Y5817549D01*
X26375500Y5938393D01*
X26375500Y6061607D01*
X26375500Y10811606D01*
X26351463Y10932452D01*
X26337652Y10965793D01*
X26304312Y11046286D01*
X26257538Y11116286D01*
X26235858Y11148733D01*
X26148733Y11235858D01*
X26148729Y11235861D01*
X23198430Y14186160D01*
X23144454Y14266942D01*
X23125500Y14362230D01*
X23125500Y15251000D01*
X23144454Y15346288D01*
X23198430Y15427070D01*
X23279212Y15481046D01*
X23374500Y15500000D01*
X26262270Y15500000D01*
X26357558Y15481046D01*
G37*
%TD.AperFunction*%
%TA.AperFunction,Conductor*%
G36*
X32370788Y9731046D02*
G01*
X32451570Y9677070D01*
X32505546Y9596288D01*
X32524500Y9501000D01*
X32524500Y7538389D01*
X32531686Y7502265D01*
X32531686Y7502263D01*
X32531687Y7502263D01*
X32531687Y7502262D01*
X32548537Y7417548D01*
X32548538Y7417546D01*
X32548538Y7417544D01*
X32555608Y7400478D01*
X32558082Y7394505D01*
X32595688Y7303714D01*
X32595689Y7303713D01*
X32629914Y7252492D01*
X32633091Y7247738D01*
X32664142Y7201267D01*
X32751267Y7114142D01*
X32751270Y7114140D01*
X34014139Y5851271D01*
X34014142Y5851267D01*
X34101267Y5764142D01*
X34203714Y5695689D01*
X34203716Y5695689D01*
X34203718Y5695687D01*
X34230666Y5684525D01*
X34317548Y5648537D01*
X34368542Y5638394D01*
X34438393Y5624500D01*
X34438394Y5624500D01*
X40137770Y5624500D01*
X40233058Y5605546D01*
X40313840Y5551570D01*
X40691570Y5173840D01*
X40745546Y5093058D01*
X40764500Y4997770D01*
X40764500Y4449000D01*
X40745546Y4353712D01*
X40691570Y4272930D01*
X40610788Y4218954D01*
X40515500Y4200000D01*
X39466893Y4200000D01*
X39402442Y4208486D01*
X39391704Y4211364D01*
X39351979Y4209037D01*
X39339734Y4210000D01*
X39100001Y4210000D01*
X39100000Y4209999D01*
X39100000Y1959000D01*
X39081046Y1863712D01*
X39027070Y1782930D01*
X38946288Y1728954D01*
X38851000Y1710000D01*
X38849000Y1710000D01*
X38753712Y1728954D01*
X38672930Y1782930D01*
X38618954Y1863712D01*
X38600000Y1959000D01*
X38600000Y4209999D01*
X38599999Y4210000D01*
X38360260Y4210000D01*
X38355424Y4209810D01*
X38322164Y4215078D01*
X38297561Y4208485D01*
X38233111Y4200000D01*
X36925915Y4200000D01*
X36883744Y4203597D01*
X36880581Y4204141D01*
X36856338Y4206049D01*
X36799778Y4210500D01*
X36799771Y4210500D01*
X35947230Y4210500D01*
X35851942Y4229454D01*
X35771160Y4283430D01*
X35405860Y4648730D01*
X35405858Y4648733D01*
X35318733Y4735858D01*
X35269537Y4768730D01*
X35244438Y4785501D01*
X35244436Y4785502D01*
X35216287Y4804311D01*
X35216288Y4804311D01*
X35216286Y4804312D01*
X35135792Y4837653D01*
X35135791Y4837654D01*
X35117554Y4845208D01*
X35102452Y4851463D01*
X35102449Y4851464D01*
X35102446Y4851465D01*
X35042032Y4863482D01*
X34981612Y4875500D01*
X34981607Y4875500D01*
X34981606Y4875500D01*
X33362230Y4875500D01*
X33266942Y4894454D01*
X33186160Y4948430D01*
X30948430Y7186160D01*
X30894454Y7266942D01*
X30875500Y7362230D01*
X30875500Y9501000D01*
X30894454Y9596288D01*
X30948430Y9677070D01*
X31029212Y9731046D01*
X31124500Y9750000D01*
X32275500Y9750000D01*
X32370788Y9731046D01*
G37*
%TD.AperFunction*%
%TA.AperFunction,Conductor*%
G36*
X38946288Y21771046D02*
G01*
X39027070Y21717070D01*
X39081046Y21636288D01*
X39100000Y21541000D01*
X39100000Y19290001D01*
X39100001Y19290000D01*
X39339737Y19290000D01*
X39339737Y19290001D01*
X39355959Y19291277D01*
X39452441Y19279860D01*
X39537209Y19232389D01*
X39597359Y19156093D01*
X39623732Y19062586D01*
X39624500Y19043045D01*
X39624500Y14438394D01*
X39648537Y14317548D01*
X39648538Y14317546D01*
X39648539Y14317542D01*
X39654019Y14304312D01*
X39654019Y14304311D01*
X39695684Y14203720D01*
X39695685Y14203719D01*
X39714877Y14174997D01*
X39714877Y14174996D01*
X39764138Y14101272D01*
X39764139Y14101271D01*
X39764142Y14101267D01*
X39851267Y14014142D01*
X39851270Y14014140D01*
X43231570Y10633840D01*
X43285546Y10553058D01*
X43304500Y10457770D01*
X43304500Y4499000D01*
X43285546Y4403712D01*
X43231570Y4322930D01*
X43150788Y4268954D01*
X43055500Y4250000D01*
X42264500Y4250000D01*
X42169212Y4268954D01*
X42088430Y4322930D01*
X42034454Y4403712D01*
X42015500Y4499000D01*
X42015500Y5421605D01*
X42015500Y5421606D01*
X41991463Y5542452D01*
X41977652Y5575793D01*
X41951723Y5638394D01*
X41944314Y5656282D01*
X41944313Y5656284D01*
X41944312Y5656286D01*
X41896115Y5728416D01*
X41875858Y5758733D01*
X41875855Y5758736D01*
X41875853Y5758739D01*
X41782485Y5852106D01*
X41782484Y5852106D01*
X40985860Y6648730D01*
X40985858Y6648733D01*
X40898733Y6735858D01*
X40897954Y6736379D01*
X40841333Y6774212D01*
X40841331Y6774213D01*
X40796286Y6804312D01*
X40702443Y6843183D01*
X40702443Y6843184D01*
X40682455Y6851462D01*
X40682449Y6851464D01*
X40622026Y6863483D01*
X40622026Y6863484D01*
X40561612Y6875500D01*
X40561607Y6875500D01*
X40561606Y6875500D01*
X34862230Y6875500D01*
X34766942Y6894454D01*
X34686160Y6948430D01*
X33848430Y7786160D01*
X33794454Y7866942D01*
X33775500Y7962230D01*
X33775500Y9249997D01*
X34694435Y9249997D01*
X34714630Y9070755D01*
X34714631Y9070749D01*
X34714632Y9070745D01*
X34774211Y8900478D01*
X34774212Y8900477D01*
X34774214Y8900471D01*
X34870180Y8747743D01*
X34870182Y8747741D01*
X34870184Y8747738D01*
X34997738Y8620184D01*
X34997740Y8620183D01*
X34997742Y8620181D01*
X35150470Y8524215D01*
X35150473Y8524214D01*
X35150478Y8524211D01*
X35320745Y8464632D01*
X35320754Y8464631D01*
X35499996Y8444435D01*
X35500000Y8444435D01*
X35500004Y8444435D01*
X35639908Y8460199D01*
X35679255Y8464632D01*
X35724735Y8480546D01*
X35738971Y8485527D01*
X35821209Y8499500D01*
X36776082Y8499500D01*
X36876082Y8499500D01*
X40335993Y8499500D01*
X40431281Y8480546D01*
X40512060Y8426572D01*
X40712844Y8225789D01*
X40884372Y8054261D01*
X40938348Y7973479D01*
X40957302Y7878191D01*
X40955737Y7850314D01*
X40948555Y7786570D01*
X40944436Y7750003D01*
X40944435Y7749998D01*
X40944435Y7749997D01*
X40964630Y7570755D01*
X40964631Y7570749D01*
X40964632Y7570745D01*
X41024211Y7400478D01*
X41024212Y7400477D01*
X41024214Y7400471D01*
X41120180Y7247743D01*
X41120182Y7247741D01*
X41120184Y7247738D01*
X41247738Y7120184D01*
X41247740Y7120183D01*
X41247742Y7120181D01*
X41400470Y7024215D01*
X41400473Y7024214D01*
X41400478Y7024211D01*
X41570745Y6964632D01*
X41570754Y6964631D01*
X41749996Y6944435D01*
X41750000Y6944435D01*
X41750004Y6944435D01*
X41889908Y6960199D01*
X41929255Y6964632D01*
X42099522Y7024211D01*
X42099527Y7024215D01*
X42099529Y7024215D01*
X42252257Y7120181D01*
X42252256Y7120181D01*
X42252262Y7120184D01*
X42379816Y7247738D01*
X42404998Y7287816D01*
X42475785Y7400471D01*
X42475785Y7400473D01*
X42475789Y7400478D01*
X42535368Y7570745D01*
X42547594Y7679255D01*
X42555565Y7749997D01*
X42555565Y7750003D01*
X42535369Y7929250D01*
X42535368Y7929253D01*
X42535368Y7929255D01*
X42514473Y7988971D01*
X42500500Y8071210D01*
X42500500Y8323917D01*
X42500500Y8323918D01*
X42492646Y8363402D01*
X42471659Y8468912D01*
X42419762Y8594199D01*
X42416454Y8603445D01*
X42332955Y8728411D01*
X42332949Y8728418D01*
X42228416Y8832952D01*
X42228416Y8832951D01*
X41228416Y9832952D01*
X41130259Y9898537D01*
X41129924Y9898761D01*
X41105497Y9915083D01*
X41105484Y9915090D01*
X40968914Y9971658D01*
X40968911Y9971659D01*
X40823920Y10000500D01*
X40823918Y10000500D01*
X37264006Y10000500D01*
X37168718Y10019454D01*
X37087940Y10073428D01*
X37073422Y10087945D01*
X37019451Y10168727D01*
X37000500Y10264007D01*
X37000500Y16085995D01*
X37019454Y16181283D01*
X37073428Y16262062D01*
X37292709Y16481344D01*
X37339214Y16514329D01*
X37337680Y16516770D01*
X37493426Y16614632D01*
X37502262Y16620184D01*
X37629816Y16747738D01*
X37678682Y16825507D01*
X37725785Y16900471D01*
X37725785Y16900473D01*
X37725789Y16900478D01*
X37785368Y17070745D01*
X37805565Y17250000D01*
X37803656Y17266942D01*
X37785369Y17429246D01*
X37785368Y17429255D01*
X37725789Y17599522D01*
X37725786Y17599527D01*
X37725785Y17599530D01*
X37629819Y17752258D01*
X37629817Y17752260D01*
X37629816Y17752262D01*
X37502262Y17879816D01*
X37502259Y17879818D01*
X37502257Y17879820D01*
X37349529Y17975786D01*
X37349524Y17975788D01*
X37349522Y17975789D01*
X37179255Y18035368D01*
X37179251Y18035369D01*
X37179245Y18035370D01*
X37000004Y18055565D01*
X36999996Y18055565D01*
X36820754Y18035370D01*
X36820746Y18035369D01*
X36820745Y18035368D01*
X36650478Y17975789D01*
X36650476Y17975789D01*
X36650476Y17975788D01*
X36650470Y17975786D01*
X36497742Y17879820D01*
X36370183Y17752261D01*
X36361468Y17738391D01*
X36274211Y17599522D01*
X36274209Y17599519D01*
X36266773Y17587683D01*
X36264349Y17589206D01*
X36231345Y17542715D01*
X35667046Y16978415D01*
X35667045Y16978414D01*
X35619530Y16907298D01*
X35619526Y16907292D01*
X35613142Y16897738D01*
X35584916Y16855496D01*
X35584913Y16855491D01*
X35528342Y16718915D01*
X35528341Y16718912D01*
X35499500Y16573921D01*
X35499500Y10274592D01*
X35480546Y10179304D01*
X35426570Y10098522D01*
X35345788Y10044546D01*
X35332740Y10039565D01*
X35320745Y10035369D01*
X35320745Y10035368D01*
X35150478Y9975789D01*
X35150476Y9975789D01*
X35150476Y9975788D01*
X35150470Y9975786D01*
X34997742Y9879820D01*
X34870180Y9752258D01*
X34774214Y9599530D01*
X34774211Y9599524D01*
X34774211Y9599522D01*
X34732842Y9481294D01*
X34714632Y9429254D01*
X34714630Y9429246D01*
X34694435Y9250004D01*
X34694435Y9249997D01*
X33775500Y9249997D01*
X33775500Y10026085D01*
X33775501Y10026106D01*
X33775501Y10161607D01*
X33775500Y10161609D01*
X33775342Y10162401D01*
X33751463Y10282451D01*
X33749745Y10286598D01*
X33708034Y10387298D01*
X33704312Y10396285D01*
X33635858Y10498733D01*
X31448430Y12686161D01*
X31394454Y12766943D01*
X31375500Y12862231D01*
X31375500Y14311605D01*
X31374318Y14317548D01*
X31351463Y14432452D01*
X31333839Y14475000D01*
X31304313Y14546282D01*
X31304310Y14546287D01*
X31265524Y14604334D01*
X31235858Y14648733D01*
X31148733Y14735858D01*
X31148729Y14735861D01*
X30559403Y15325187D01*
X30505427Y15405969D01*
X30486473Y15501257D01*
X30505427Y15596545D01*
X30559398Y15677321D01*
X30629816Y15747738D01*
X30693649Y15849328D01*
X30725785Y15900471D01*
X30725785Y15900473D01*
X30725789Y15900478D01*
X30785368Y16070745D01*
X30790875Y16119629D01*
X30805565Y16249997D01*
X30805565Y16250004D01*
X30785369Y16429246D01*
X30785368Y16429255D01*
X30725789Y16599522D01*
X30725786Y16599527D01*
X30725785Y16599530D01*
X30629819Y16752258D01*
X30629817Y16752260D01*
X30629816Y16752262D01*
X30502262Y16879816D01*
X30502259Y16879818D01*
X30502257Y16879820D01*
X30349529Y16975786D01*
X30349524Y16975788D01*
X30349522Y16975789D01*
X30179255Y17035368D01*
X30179251Y17035369D01*
X30179247Y17035370D01*
X30175639Y17035776D01*
X30171028Y17037246D01*
X30165616Y17038481D01*
X30165720Y17038938D01*
X30083073Y17065280D01*
X30027450Y17107140D01*
X29822930Y17311660D01*
X29768954Y17392442D01*
X29750000Y17487730D01*
X29750000Y18445435D01*
X29768954Y18540723D01*
X29822930Y18621505D01*
X29903712Y18675481D01*
X29986215Y18691892D01*
X29986105Y18692869D01*
X29997688Y18694175D01*
X29999000Y18694435D01*
X30000004Y18694435D01*
X30139908Y18710199D01*
X30179255Y18714632D01*
X30349522Y18774211D01*
X30349527Y18774215D01*
X30349529Y18774215D01*
X30477341Y18854525D01*
X30502262Y18870184D01*
X30629816Y18997738D01*
X30671540Y19064141D01*
X30733229Y19162318D01*
X30734585Y19161466D01*
X30783266Y19226157D01*
X30866944Y19275523D01*
X30949195Y19289500D01*
X31592770Y19289500D01*
X31688058Y19270546D01*
X31768840Y19216570D01*
X32884139Y18101271D01*
X32884142Y18101267D01*
X32971267Y18014142D01*
X33013593Y17985861D01*
X33013596Y17985858D01*
X33013597Y17985858D01*
X33073714Y17945688D01*
X33105365Y17932578D01*
X33147596Y17915085D01*
X33147599Y17915085D01*
X33147600Y17915084D01*
X33169837Y17905873D01*
X33198853Y17893854D01*
X33198538Y17893096D01*
X33244935Y17871945D01*
X33400471Y17774215D01*
X33400472Y17774215D01*
X33400478Y17774211D01*
X33570745Y17714632D01*
X33570754Y17714631D01*
X33749996Y17694435D01*
X33750000Y17694435D01*
X33750004Y17694435D01*
X33889908Y17710199D01*
X33929255Y17714632D01*
X34099522Y17774211D01*
X34099527Y17774215D01*
X34099529Y17774215D01*
X34252257Y17870181D01*
X34252256Y17870181D01*
X34252262Y17870184D01*
X34379816Y17997738D01*
X34460274Y18125786D01*
X34475785Y18150471D01*
X34475785Y18150473D01*
X34475789Y18150478D01*
X34529607Y18304282D01*
X34578965Y18387957D01*
X34656593Y18446378D01*
X34750668Y18470645D01*
X34806815Y18465908D01*
X34806848Y18466197D01*
X34817181Y18465033D01*
X34820058Y18464790D01*
X34820731Y18464637D01*
X34820745Y18464632D01*
X34820759Y18464631D01*
X34820761Y18464630D01*
X34999996Y18444435D01*
X35000000Y18444435D01*
X35000004Y18444435D01*
X35139908Y18460199D01*
X35179255Y18464632D01*
X35349522Y18524211D01*
X35349527Y18524215D01*
X35349529Y18524215D01*
X35502257Y18620181D01*
X35502256Y18620181D01*
X35502262Y18620184D01*
X35629816Y18747738D01*
X35696915Y18854525D01*
X35725785Y18900471D01*
X35725785Y18900473D01*
X35725789Y18900478D01*
X35785368Y19070745D01*
X35785369Y19070758D01*
X35788481Y19084384D01*
X35790085Y19084018D01*
X35814604Y19160944D01*
X35877285Y19235174D01*
X35963602Y19279768D01*
X36032536Y19289500D01*
X36799771Y19289500D01*
X36799778Y19289500D01*
X36880578Y19295859D01*
X36880583Y19295861D01*
X36883744Y19296403D01*
X36925915Y19300000D01*
X38237055Y19300000D01*
X38279226Y19296403D01*
X38279506Y19296355D01*
X38360248Y19290001D01*
X38360263Y19290000D01*
X38599999Y19290000D01*
X38600000Y19290001D01*
X38600000Y21541000D01*
X38618954Y21636288D01*
X38672930Y21717070D01*
X38753712Y21771046D01*
X38849000Y21790000D01*
X38851000Y21790000D01*
X38946288Y21771046D01*
G37*
%TD.AperFunction*%
%TA.AperFunction,Conductor*%
G36*
X58002348Y24381136D02*
G01*
X58091275Y24342007D01*
X58124518Y24314114D01*
X60521584Y21917048D01*
X60595270Y21867814D01*
X60644505Y21834916D01*
X60781087Y21778342D01*
X60926080Y21749501D01*
X60926081Y21749500D01*
X60926082Y21749500D01*
X60926083Y21749500D01*
X61073917Y21749500D01*
X62335992Y21749500D01*
X62431280Y21730546D01*
X62512061Y21676570D01*
X63426569Y20762063D01*
X63480546Y20681281D01*
X63499500Y20585993D01*
X63499500Y18499000D01*
X63480546Y18403712D01*
X63426570Y18322930D01*
X63345788Y18268954D01*
X63250500Y18250000D01*
X62341227Y18250000D01*
X62331043Y18250500D01*
X62323918Y18250500D01*
X59471209Y18250500D01*
X59388971Y18264473D01*
X59329259Y18285367D01*
X59329256Y18285368D01*
X59329255Y18285368D01*
X59329253Y18285369D01*
X59329245Y18285370D01*
X59150004Y18305565D01*
X59149996Y18305565D01*
X58970754Y18285370D01*
X58970746Y18285369D01*
X58970745Y18285368D01*
X58800478Y18225789D01*
X58800476Y18225789D01*
X58800476Y18225788D01*
X58800470Y18225786D01*
X58647742Y18129820D01*
X58520180Y18002258D01*
X58424214Y17849530D01*
X58424211Y17849524D01*
X58424211Y17849522D01*
X58366943Y17685858D01*
X58364632Y17679254D01*
X58364630Y17679246D01*
X58344435Y17500004D01*
X58344435Y17499997D01*
X58364630Y17320755D01*
X58364631Y17320749D01*
X58364632Y17320745D01*
X58424211Y17150478D01*
X58424212Y17150477D01*
X58424214Y17150471D01*
X58520180Y16997743D01*
X58520182Y16997741D01*
X58520184Y16997738D01*
X58647738Y16870184D01*
X58647740Y16870183D01*
X58647742Y16870181D01*
X58800470Y16774215D01*
X58800473Y16774214D01*
X58800478Y16774211D01*
X58970745Y16714632D01*
X58970754Y16714631D01*
X59149996Y16694435D01*
X59150000Y16694435D01*
X59150004Y16694435D01*
X59289908Y16710199D01*
X59329255Y16714632D01*
X59374735Y16730546D01*
X59388971Y16735527D01*
X59471209Y16749500D01*
X61835993Y16749500D01*
X61931281Y16730546D01*
X62012062Y16676570D01*
X62426569Y16262064D01*
X62480546Y16181282D01*
X62499500Y16085994D01*
X62499500Y9624500D01*
X62480546Y9529212D01*
X62426570Y9448430D01*
X62345788Y9394454D01*
X62250500Y9375500D01*
X61051079Y9375500D01*
X60906088Y9346659D01*
X60906085Y9346658D01*
X60769509Y9290087D01*
X60769502Y9290083D01*
X60742105Y9271777D01*
X60741851Y9271606D01*
X60723121Y9259091D01*
X60646587Y9207955D01*
X57512062Y6073430D01*
X57431280Y6019454D01*
X57335992Y6000500D01*
X50321209Y6000500D01*
X50238971Y6014473D01*
X50179259Y6035367D01*
X50179256Y6035368D01*
X50179255Y6035368D01*
X50179253Y6035369D01*
X50179245Y6035370D01*
X50000004Y6055565D01*
X49999996Y6055565D01*
X49820754Y6035370D01*
X49820740Y6035367D01*
X49761029Y6014473D01*
X49678791Y6000500D01*
X48676079Y6000500D01*
X48531088Y5971659D01*
X48531085Y5971658D01*
X48394515Y5915090D01*
X48394502Y5915083D01*
X48369744Y5898539D01*
X48369740Y5898536D01*
X48271587Y5832955D01*
X46761562Y4322930D01*
X46680780Y4268954D01*
X46585492Y4250000D01*
X44804500Y4250000D01*
X44709212Y4268954D01*
X44628430Y4322930D01*
X44574454Y4403712D01*
X44555500Y4499000D01*
X44555500Y9325000D01*
X52214723Y9325000D01*
X52233793Y9107023D01*
X52243514Y9070745D01*
X52290424Y8895672D01*
X52382898Y8697361D01*
X52472987Y8568700D01*
X52508402Y8518123D01*
X52663123Y8363402D01*
X52842361Y8237898D01*
X53040670Y8145425D01*
X53252023Y8088793D01*
X53470000Y8069723D01*
X53687977Y8088793D01*
X53899330Y8145425D01*
X54097639Y8237898D01*
X54276877Y8363402D01*
X54431598Y8518123D01*
X54557102Y8697361D01*
X54640268Y8875712D01*
X54697713Y8954057D01*
X54780772Y9004459D01*
X54876796Y9019239D01*
X54971167Y8996147D01*
X55049517Y8938699D01*
X55099919Y8855640D01*
X55111310Y8803706D01*
X55112172Y8803849D01*
X55113868Y8793685D01*
X55170841Y8568707D01*
X55170843Y8568700D01*
X55193028Y8518123D01*
X55264074Y8356154D01*
X55391019Y8161849D01*
X55391022Y8161845D01*
X55548214Y7991089D01*
X55548220Y7991084D01*
X55730096Y7849524D01*
X55731374Y7848530D01*
X55768172Y7828616D01*
X55935487Y7738069D01*
X55935489Y7738069D01*
X55935497Y7738064D01*
X56155019Y7662702D01*
X56383951Y7624500D01*
X56616049Y7624500D01*
X56844981Y7662702D01*
X57064503Y7738064D01*
X57268626Y7848530D01*
X57451784Y7991087D01*
X57608979Y8161847D01*
X57735924Y8356151D01*
X57829157Y8568700D01*
X57886134Y8793695D01*
X57905300Y9025000D01*
X57886134Y9256305D01*
X57829157Y9481300D01*
X57735924Y9693849D01*
X57645042Y9832955D01*
X57608980Y9888152D01*
X57608977Y9888156D01*
X57451785Y10058912D01*
X57451779Y10058917D01*
X57268628Y10201469D01*
X57064512Y10311932D01*
X57064507Y10311934D01*
X57064503Y10311936D01*
X56844981Y10387298D01*
X56844978Y10387299D01*
X56844974Y10387300D01*
X56616049Y10425500D01*
X56383951Y10425500D01*
X56155025Y10387300D01*
X56155019Y10387299D01*
X56155019Y10387298D01*
X55935497Y10311936D01*
X55935494Y10311935D01*
X55935487Y10311932D01*
X55731371Y10201469D01*
X55548220Y10058917D01*
X55548214Y10058912D01*
X55391022Y9888156D01*
X55391019Y9888152D01*
X55264074Y9693847D01*
X55215478Y9583058D01*
X55179485Y9501000D01*
X55177599Y9496701D01*
X55121964Y9417052D01*
X55040085Y9364757D01*
X54944425Y9347776D01*
X54849549Y9368695D01*
X54769900Y9424330D01*
X54717605Y9506209D01*
X54710162Y9532783D01*
X54709020Y9532476D01*
X54706207Y9542976D01*
X54706207Y9542977D01*
X54649575Y9754330D01*
X54591058Y9879820D01*
X54557105Y9952632D01*
X54557101Y9952640D01*
X54496235Y10039565D01*
X54431598Y10131877D01*
X54276877Y10286598D01*
X54267688Y10293032D01*
X54097639Y10412102D01*
X53899328Y10504576D01*
X53801239Y10530859D01*
X53687977Y10561207D01*
X53470000Y10580277D01*
X53252023Y10561207D01*
X53221611Y10553058D01*
X53040666Y10504574D01*
X52842368Y10412106D01*
X52842360Y10412102D01*
X52663124Y10286599D01*
X52508401Y10131876D01*
X52382898Y9952640D01*
X52382894Y9952632D01*
X52290426Y9754334D01*
X52290425Y9754330D01*
X52233793Y9542977D01*
X52214723Y9325000D01*
X44555500Y9325000D01*
X44555500Y10881605D01*
X44554075Y10888770D01*
X44531463Y11002452D01*
X44513307Y11046285D01*
X44490451Y11101464D01*
X44490448Y11101470D01*
X44484312Y11116285D01*
X44484310Y11116288D01*
X44484308Y11116292D01*
X44467257Y11141809D01*
X44467255Y11141812D01*
X44415858Y11218733D01*
X44328733Y11305858D01*
X44328729Y11305861D01*
X40948430Y14686160D01*
X40894454Y14766942D01*
X40875500Y14862230D01*
X40875500Y19040500D01*
X40894454Y19135788D01*
X40948430Y19216570D01*
X41029212Y19270546D01*
X41124500Y19289500D01*
X41394486Y19289500D01*
X41489774Y19270546D01*
X41570556Y19216570D01*
X41624532Y19135788D01*
X41643486Y19040500D01*
X41624534Y18945217D01*
X41617405Y18928005D01*
X41617404Y18928002D01*
X41598536Y18882452D01*
X41598535Y18882449D01*
X41586517Y18822030D01*
X41586518Y18822029D01*
X41574929Y18763764D01*
X41574923Y18763736D01*
X41574501Y18761617D01*
X41574500Y18761605D01*
X41574500Y17738391D01*
X41584949Y17685863D01*
X41584950Y17685857D01*
X41598535Y17617554D01*
X41598538Y17617544D01*
X41607889Y17594969D01*
X41607889Y17594968D01*
X41645684Y17503720D01*
X41645688Y17503713D01*
X41668939Y17468918D01*
X41668941Y17468912D01*
X41668943Y17468912D01*
X41695441Y17429254D01*
X41714142Y17401267D01*
X41801267Y17314142D01*
X41801270Y17314140D01*
X42089139Y17026271D01*
X42089142Y17026267D01*
X42176267Y16939142D01*
X42227486Y16904919D01*
X42227489Y16904916D01*
X42227490Y16904916D01*
X42278714Y16870688D01*
X42339068Y16845690D01*
X42339071Y16845687D01*
X42387658Y16825563D01*
X42392548Y16823537D01*
X42422651Y16817550D01*
X42422652Y16817549D01*
X42433105Y16815470D01*
X42513393Y16799500D01*
X42513394Y16799500D01*
X43335500Y16799500D01*
X43430788Y16780546D01*
X43511570Y16726570D01*
X43565546Y16645788D01*
X43584500Y16550500D01*
X43584500Y16186031D01*
X43584534Y16185308D01*
X43584532Y16174233D01*
X43584533Y16174223D01*
X43617764Y16007004D01*
X43617765Y16007001D01*
X43617766Y16006998D01*
X43674647Y15869613D01*
X43682989Y15849466D01*
X43682993Y15849457D01*
X43777697Y15707684D01*
X43855546Y15629820D01*
X43898246Y15587111D01*
X43909071Y15579877D01*
X43977763Y15511171D01*
X44014934Y15421408D01*
X44014925Y15324253D01*
X44000000Y15288231D01*
X44000000Y15250000D01*
X44000000Y13250000D01*
X44000001Y13250000D01*
X46500000Y13250000D01*
X49000000Y13250000D01*
X50250000Y13250000D01*
X50999999Y13250000D01*
X51000000Y13250000D01*
X51000000Y14175000D01*
X52214723Y14175000D01*
X52233793Y13957023D01*
X52240376Y13932455D01*
X52290424Y13745672D01*
X52382898Y13547361D01*
X52457310Y13441089D01*
X52508402Y13368123D01*
X52663123Y13213402D01*
X52842361Y13087898D01*
X53040670Y12995425D01*
X53252023Y12938793D01*
X53470000Y12919723D01*
X53687977Y12938793D01*
X53899330Y12995425D01*
X54097639Y13087898D01*
X54276877Y13213402D01*
X54431598Y13368123D01*
X54557102Y13547361D01*
X54649575Y13745670D01*
X54706207Y13957023D01*
X54706207Y13957028D01*
X54709020Y13967524D01*
X54712225Y13966666D01*
X54739394Y14036795D01*
X54806488Y14107063D01*
X54895365Y14146306D01*
X54992494Y14148551D01*
X55083088Y14113455D01*
X55153356Y14046361D01*
X55177599Y14003299D01*
X55264072Y13806157D01*
X55264074Y13806155D01*
X55264076Y13806151D01*
X55303589Y13745672D01*
X55391019Y13611849D01*
X55391022Y13611845D01*
X55548214Y13441089D01*
X55548220Y13441084D01*
X55711703Y13313840D01*
X55731374Y13298530D01*
X55828863Y13245772D01*
X55935487Y13188069D01*
X55935489Y13188069D01*
X55935497Y13188064D01*
X56155019Y13112702D01*
X56383951Y13074500D01*
X56616049Y13074500D01*
X56844981Y13112702D01*
X57064503Y13188064D01*
X57268626Y13298530D01*
X57451784Y13441087D01*
X57608979Y13611847D01*
X57735924Y13806151D01*
X57829157Y14018700D01*
X57886134Y14243695D01*
X57905300Y14475000D01*
X57886134Y14706305D01*
X57829157Y14931300D01*
X57735924Y15143849D01*
X57665919Y15251000D01*
X57608980Y15338152D01*
X57608977Y15338156D01*
X57451785Y15508912D01*
X57451779Y15508917D01*
X57268628Y15651469D01*
X57064512Y15761932D01*
X57064507Y15761934D01*
X57064503Y15761936D01*
X56844981Y15837298D01*
X56844978Y15837299D01*
X56844974Y15837300D01*
X56616049Y15875500D01*
X56383951Y15875500D01*
X56155025Y15837300D01*
X56155019Y15837299D01*
X56155019Y15837298D01*
X55935497Y15761936D01*
X55935494Y15761935D01*
X55935487Y15761932D01*
X55731371Y15651469D01*
X55548220Y15508917D01*
X55548214Y15508912D01*
X55391022Y15338156D01*
X55391019Y15338152D01*
X55264074Y15143847D01*
X55170842Y14931298D01*
X55170841Y14931294D01*
X55113868Y14706316D01*
X55112172Y14696151D01*
X55110499Y14696431D01*
X55087316Y14615544D01*
X55026846Y14539501D01*
X54941878Y14492388D01*
X54845349Y14481377D01*
X54751955Y14508145D01*
X54675912Y14568615D01*
X54640268Y14624287D01*
X54557102Y14802638D01*
X54431598Y14981877D01*
X54276877Y15136598D01*
X54266524Y15143847D01*
X54097639Y15262102D01*
X53899328Y15354576D01*
X53798378Y15381625D01*
X53687977Y15411207D01*
X53470000Y15430277D01*
X53252023Y15411207D01*
X53141622Y15381625D01*
X53040666Y15354574D01*
X52842368Y15262106D01*
X52842360Y15262102D01*
X52663124Y15136599D01*
X52508401Y14981876D01*
X52382898Y14802640D01*
X52382894Y14802632D01*
X52290426Y14604334D01*
X52290425Y14604330D01*
X52233793Y14392977D01*
X52214723Y14175000D01*
X51000000Y14175000D01*
X51000000Y15250000D01*
X51000000Y16475317D01*
X51018954Y16570605D01*
X51072930Y16651387D01*
X51153712Y16705363D01*
X51249000Y16724317D01*
X51344288Y16705363D01*
X51381477Y16686150D01*
X51400478Y16674211D01*
X51570745Y16614632D01*
X51570754Y16614631D01*
X51749996Y16594435D01*
X51750000Y16594435D01*
X51750004Y16594435D01*
X51905176Y16611919D01*
X51929255Y16614632D01*
X52099522Y16674211D01*
X52099527Y16674215D01*
X52099529Y16674215D01*
X52252257Y16770181D01*
X52252256Y16770181D01*
X52252262Y16770184D01*
X52379816Y16897738D01*
X52430509Y16978415D01*
X52475785Y17050471D01*
X52475785Y17050473D01*
X52475789Y17050478D01*
X52535368Y17220745D01*
X52546635Y17320745D01*
X52555565Y17399997D01*
X52555565Y17400004D01*
X52535369Y17579246D01*
X52535368Y17579255D01*
X52475789Y17749522D01*
X52475786Y17749527D01*
X52475785Y17749530D01*
X52379819Y17902258D01*
X52379817Y17902260D01*
X52379816Y17902262D01*
X52252262Y18029816D01*
X52252259Y18029818D01*
X52252257Y18029820D01*
X52099529Y18125786D01*
X52099524Y18125788D01*
X52099522Y18125789D01*
X51929255Y18185368D01*
X51929251Y18185369D01*
X51929245Y18185370D01*
X51750004Y18205565D01*
X51749999Y18205565D01*
X51714508Y18201566D01*
X51686628Y18200000D01*
X51599000Y18200000D01*
X51503712Y18218954D01*
X51422930Y18272930D01*
X51368954Y18353712D01*
X51350000Y18449000D01*
X51350000Y18891795D01*
X51354793Y18940418D01*
X51362328Y18978262D01*
X51362350Y19126553D01*
X51381318Y19221834D01*
X51389131Y19233524D01*
X51374930Y19243012D01*
X51320954Y19323794D01*
X51320950Y19323803D01*
X51318949Y19328635D01*
X51300000Y19423911D01*
X51300000Y21541000D01*
X51318954Y21636288D01*
X51372930Y21717070D01*
X51453712Y21771046D01*
X51549000Y21790000D01*
X51551000Y21790000D01*
X51646288Y21771046D01*
X51727070Y21717070D01*
X51781046Y21636288D01*
X51800000Y21541000D01*
X51800000Y19419082D01*
X51781046Y19323794D01*
X51773215Y19312074D01*
X51787420Y19302581D01*
X51800001Y19290000D01*
X52039737Y19290000D01*
X52039751Y19290001D01*
X52120493Y19296355D01*
X52120774Y19296403D01*
X52162945Y19300000D01*
X53474085Y19300000D01*
X53516256Y19296403D01*
X53519418Y19295860D01*
X53519422Y19295859D01*
X53600222Y19289500D01*
X53967464Y19289500D01*
X54062752Y19270546D01*
X54143534Y19216570D01*
X54197510Y19135788D01*
X54210810Y19084224D01*
X54211518Y19084385D01*
X54214630Y19070752D01*
X54214631Y19070747D01*
X54214632Y19070745D01*
X54274211Y18900478D01*
X54274212Y18900477D01*
X54274214Y18900471D01*
X54370180Y18747743D01*
X54370182Y18747741D01*
X54370184Y18747738D01*
X54497738Y18620184D01*
X54497740Y18620183D01*
X54497742Y18620181D01*
X54650470Y18524215D01*
X54650473Y18524214D01*
X54650478Y18524211D01*
X54820745Y18464632D01*
X54820754Y18464631D01*
X54999996Y18444435D01*
X55000000Y18444435D01*
X55000004Y18444435D01*
X55139908Y18460199D01*
X55179255Y18464632D01*
X55349522Y18524211D01*
X55367521Y18535522D01*
X55458285Y18570170D01*
X55555402Y18567447D01*
X55632477Y18535522D01*
X55650478Y18524211D01*
X55820745Y18464632D01*
X55820754Y18464631D01*
X55999996Y18444435D01*
X56000000Y18444435D01*
X56000004Y18444435D01*
X56139908Y18460199D01*
X56179255Y18464632D01*
X56349522Y18524211D01*
X56349527Y18524215D01*
X56349529Y18524215D01*
X56502257Y18620181D01*
X56502256Y18620181D01*
X56502262Y18620184D01*
X56629816Y18747738D01*
X56696915Y18854525D01*
X56725785Y18900471D01*
X56725785Y18900473D01*
X56725789Y18900478D01*
X56785368Y19070745D01*
X56785368Y19070754D01*
X56788479Y19084376D01*
X56790083Y19084010D01*
X56814605Y19160946D01*
X56877287Y19235176D01*
X56963604Y19279768D01*
X57032536Y19289500D01*
X57119771Y19289500D01*
X57119778Y19289500D01*
X57200578Y19295859D01*
X57388496Y19346212D01*
X57561840Y19434535D01*
X57713032Y19556968D01*
X57835465Y19708160D01*
X57923788Y19881504D01*
X57974141Y20069422D01*
X57980500Y20150222D01*
X57980500Y22929778D01*
X57974141Y23010578D01*
X57923788Y23198496D01*
X57835465Y23371840D01*
X57812274Y23400478D01*
X57713036Y23523027D01*
X57713032Y23523032D01*
X57692533Y23539632D01*
X57551698Y23653678D01*
X57552734Y23654958D01*
X57494166Y23712014D01*
X57455815Y23801280D01*
X57454544Y23898426D01*
X57490546Y23988665D01*
X57523305Y24029118D01*
X57673110Y24178923D01*
X57744486Y24280858D01*
X57814667Y24348042D01*
X57905216Y24383255D01*
X58002348Y24381136D01*
G37*
%TD.AperFunction*%
%TD*%
M02*
