%TF.GenerationSoftware,KiCad,Pcbnew,8.0.2*%
%TF.CreationDate,2024-05-17T00:49:12+07:00*%
%TF.ProjectId,ADC_pHAT,4144435f-7048-4415-942e-6b696361645f,rev?*%
%TF.SameCoordinates,PX5cbead0PY56c8cc0*%
%TF.FileFunction,Paste,Bot*%
%TF.FilePolarity,Positive*%
%FSLAX46Y46*%
G04 Gerber Fmt 4.6, Leading zero omitted, Abs format (unit mm)*
G04 Created by KiCad (PCBNEW 8.0.2) date 2024-05-17 00:49:12*
%MOMM*%
%LPD*%
G01*
G04 APERTURE LIST*
G04 Aperture macros list*
%AMRoundRect*
0 Rectangle with rounded corners*
0 $1 Rounding radius*
0 $2 $3 $4 $5 $6 $7 $8 $9 X,Y pos of 4 corners*
0 Add a 4 corners polygon primitive as box body*
4,1,4,$2,$3,$4,$5,$6,$7,$8,$9,$2,$3,0*
0 Add four circle primitives for the rounded corners*
1,1,$1+$1,$2,$3*
1,1,$1+$1,$4,$5*
1,1,$1+$1,$6,$7*
1,1,$1+$1,$8,$9*
0 Add four rect primitives between the rounded corners*
20,1,$1+$1,$2,$3,$4,$5,0*
20,1,$1+$1,$4,$5,$6,$7,0*
20,1,$1+$1,$6,$7,$8,$9,0*
20,1,$1+$1,$8,$9,$2,$3,0*%
%AMFreePoly0*
4,1,9,3.862500,-0.866500,0.737500,-0.866500,0.737500,-0.450000,-0.737500,-0.450000,-0.737500,0.450000,0.737500,0.450000,0.737500,0.866500,3.862500,0.866500,3.862500,-0.866500,3.862500,-0.866500,$1*%
G04 Aperture macros list end*
%ADD10RoundRect,0.250000X-0.275000X-0.700000X0.275000X-0.700000X0.275000X0.700000X-0.275000X0.700000X0*%
%ADD11RoundRect,0.250000X0.650000X-0.325000X0.650000X0.325000X-0.650000X0.325000X-0.650000X-0.325000X0*%
%ADD12RoundRect,0.250000X-0.650000X0.325000X-0.650000X-0.325000X0.650000X-0.325000X0.650000X0.325000X0*%
%ADD13RoundRect,0.250000X0.625000X-0.312500X0.625000X0.312500X-0.625000X0.312500X-0.625000X-0.312500X0*%
%ADD14R,0.850000X0.600000*%
%ADD15RoundRect,0.150000X-0.725000X-0.150000X0.725000X-0.150000X0.725000X0.150000X-0.725000X0.150000X0*%
%ADD16RoundRect,0.100000X-0.637500X-0.100000X0.637500X-0.100000X0.637500X0.100000X-0.637500X0.100000X0*%
%ADD17RoundRect,0.250000X0.325000X0.650000X-0.325000X0.650000X-0.325000X-0.650000X0.325000X-0.650000X0*%
%ADD18RoundRect,0.250000X0.312500X0.625000X-0.312500X0.625000X-0.312500X-0.625000X0.312500X-0.625000X0*%
%ADD19RoundRect,0.250000X-0.312500X-0.625000X0.312500X-0.625000X0.312500X0.625000X-0.312500X0.625000X0*%
%ADD20RoundRect,0.250000X-0.325000X-0.650000X0.325000X-0.650000X0.325000X0.650000X-0.325000X0.650000X0*%
%ADD21RoundRect,0.250000X-0.625000X0.312500X-0.625000X-0.312500X0.625000X-0.312500X0.625000X0.312500X0*%
%ADD22R,2.350000X0.700000*%
%ADD23R,4.900000X4.800000*%
%ADD24RoundRect,0.250000X0.700000X-0.275000X0.700000X0.275000X-0.700000X0.275000X-0.700000X-0.275000X0*%
%ADD25RoundRect,0.225000X-0.225000X0.425000X-0.225000X-0.425000X0.225000X-0.425000X0.225000X0.425000X0*%
%ADD26FreePoly0,270.000000*%
%ADD27RoundRect,0.250000X-0.700000X0.275000X-0.700000X-0.275000X0.700000X-0.275000X0.700000X0.275000X0*%
%ADD28R,0.750000X0.300000*%
%ADD29R,0.900000X1.300000*%
G04 APERTURE END LIST*
D10*
%TO.C,FB3*%
X8925000Y12750000D03*
X12075000Y12750000D03*
%TD*%
D11*
%TO.C,C13*%
X16500000Y5775000D03*
X16500000Y8725000D03*
%TD*%
D12*
%TO.C,C9*%
X36172500Y6225000D03*
X36172500Y3275000D03*
%TD*%
%TO.C,C4*%
X44250000Y6225000D03*
X44250000Y3275000D03*
%TD*%
D13*
%TO.C,R5*%
X29000000Y3287500D03*
X29000000Y6212500D03*
%TD*%
D14*
%TO.C,D1*%
X14200000Y10700000D03*
X14200000Y8800000D03*
X11800000Y9750000D03*
%TD*%
D15*
%TO.C,U4*%
X24175000Y10345000D03*
X24175000Y11615000D03*
X24175000Y12885000D03*
X24175000Y14155000D03*
X29325000Y14155000D03*
X29325000Y12885000D03*
X29325000Y11615000D03*
X29325000Y10345000D03*
%TD*%
D16*
%TO.C,U2*%
X38637500Y9425000D03*
X38637500Y10075000D03*
X38637500Y10725000D03*
X38637500Y11375000D03*
X38637500Y12025000D03*
X38637500Y12675000D03*
X38637500Y13325000D03*
X38637500Y13975000D03*
X38637500Y14625000D03*
X38637500Y15275000D03*
X38637500Y15925000D03*
X38637500Y16575000D03*
X44362500Y16575000D03*
X44362500Y15925000D03*
X44362500Y15275000D03*
X44362500Y14625000D03*
X44362500Y13975000D03*
X44362500Y13325000D03*
X44362500Y12675000D03*
X44362500Y12025000D03*
X44362500Y11375000D03*
X44362500Y10725000D03*
X44362500Y10075000D03*
X44362500Y9425000D03*
%TD*%
D17*
%TO.C,C11*%
X35475000Y14500000D03*
X32525000Y14500000D03*
%TD*%
%TO.C,C7*%
X35475000Y17000000D03*
X32525000Y17000000D03*
%TD*%
D18*
%TO.C,R8*%
X28462500Y17500000D03*
X25537500Y17500000D03*
%TD*%
D19*
%TO.C,R2*%
X48537500Y10250000D03*
X51462500Y10250000D03*
%TD*%
D11*
%TO.C,C2*%
X50750000Y18775000D03*
X50750000Y21725000D03*
%TD*%
D20*
%TO.C,C8*%
X14025000Y12750000D03*
X16975000Y12750000D03*
%TD*%
D21*
%TO.C,R7*%
X19500000Y17962500D03*
X19500000Y15037500D03*
%TD*%
D17*
%TO.C,C6*%
X35475000Y11000000D03*
X32525000Y11000000D03*
%TD*%
D18*
%TO.C,R9*%
X21712500Y12750000D03*
X18787500Y12750000D03*
%TD*%
D13*
%TO.C,R4*%
X17000000Y15037500D03*
X17000000Y17962500D03*
%TD*%
D22*
%TO.C,J1*%
X1250000Y14750000D03*
D23*
X2825000Y19000000D03*
X2825000Y10500000D03*
%TD*%
D11*
%TO.C,C1*%
X48250000Y18775000D03*
X48250000Y21725000D03*
%TD*%
D13*
%TO.C,R6*%
X31250000Y3287500D03*
X31250000Y6212500D03*
%TD*%
D24*
%TO.C,FB2*%
X46750000Y3175000D03*
X46750000Y6325000D03*
%TD*%
D12*
%TO.C,C10*%
X33750000Y6225000D03*
X33750000Y3275000D03*
%TD*%
D25*
%TO.C,U3*%
X7000000Y10700000D03*
D26*
X8500000Y10612500D03*
D25*
X10000000Y10700000D03*
%TD*%
D12*
%TO.C,C5*%
X38500000Y6225000D03*
X38500000Y3275000D03*
%TD*%
D27*
%TO.C,FB1*%
X53250000Y21825000D03*
X53250000Y18675000D03*
%TD*%
D21*
%TO.C,R1*%
X14500000Y17962500D03*
X14500000Y15037500D03*
%TD*%
D20*
%TO.C,C12*%
X18775000Y10250000D03*
X21725000Y10250000D03*
%TD*%
%TO.C,C14*%
X25275000Y8250000D03*
X28225000Y8250000D03*
%TD*%
D12*
%TO.C,C3*%
X41750000Y6225000D03*
X41750000Y3275000D03*
%TD*%
D28*
%TO.C,IC1*%
X22500000Y8500000D03*
X22500000Y8000000D03*
X22500000Y7500000D03*
X22500000Y7000000D03*
X20500000Y7000000D03*
X20500000Y7500000D03*
X20500000Y8000000D03*
X20500000Y8500000D03*
D29*
X21500000Y7750000D03*
%TD*%
M02*
