%TF.GenerationSoftware,KiCad,Pcbnew,8.0.2*%
%TF.CreationDate,2024-05-24T16:47:28+07:00*%
%TF.ProjectId,ADC_pHAT,4144435f-7048-4415-942e-6b696361645f,rev?*%
%TF.SameCoordinates,PX5cbead0PY5705d50*%
%TF.FileFunction,Copper,L2,Bot*%
%TF.FilePolarity,Positive*%
%FSLAX46Y46*%
G04 Gerber Fmt 4.6, Leading zero omitted, Abs format (unit mm)*
G04 Created by KiCad (PCBNEW 8.0.2) date 2024-05-24 16:47:28*
%MOMM*%
%LPD*%
G01*
G04 APERTURE LIST*
G04 Aperture macros list*
%AMRoundRect*
0 Rectangle with rounded corners*
0 $1 Rounding radius*
0 $2 $3 $4 $5 $6 $7 $8 $9 X,Y pos of 4 corners*
0 Add a 4 corners polygon primitive as box body*
4,1,4,$2,$3,$4,$5,$6,$7,$8,$9,$2,$3,0*
0 Add four circle primitives for the rounded corners*
1,1,$1+$1,$2,$3*
1,1,$1+$1,$4,$5*
1,1,$1+$1,$6,$7*
1,1,$1+$1,$8,$9*
0 Add four rect primitives between the rounded corners*
20,1,$1+$1,$2,$3,$4,$5,0*
20,1,$1+$1,$4,$5,$6,$7,0*
20,1,$1+$1,$6,$7,$8,$9,0*
20,1,$1+$1,$8,$9,$2,$3,0*%
G04 Aperture macros list end*
%TA.AperFunction,ComponentPad*%
%ADD10C,2.000000*%
%TD*%
%TA.AperFunction,SMDPad,CuDef*%
%ADD11R,4.900000X4.800000*%
%TD*%
%TA.AperFunction,ComponentPad*%
%ADD12R,1.700000X1.700000*%
%TD*%
%TA.AperFunction,ComponentPad*%
%ADD13O,1.700000X1.700000*%
%TD*%
%TA.AperFunction,SMDPad,CuDef*%
%ADD14RoundRect,0.425000X0.425000X-1.325000X0.425000X1.325000X-0.425000X1.325000X-0.425000X-1.325000X0*%
%TD*%
%TA.AperFunction,SMDPad,CuDef*%
%ADD15RoundRect,0.425000X-1.325000X-0.425000X1.325000X-0.425000X1.325000X0.425000X-1.325000X0.425000X0*%
%TD*%
%TA.AperFunction,ViaPad*%
%ADD16C,0.600000*%
%TD*%
%TA.AperFunction,Conductor*%
%ADD17C,0.500000*%
%TD*%
%TA.AperFunction,Conductor*%
%ADD18C,0.250000*%
%TD*%
G04 APERTURE END LIST*
D10*
%TO.P,REF\u002A\u002A,1*%
%TO.N,N/C*%
X3300000Y15000000D03*
%TD*%
D11*
%TO.P,J1,2,Ext*%
%TO.N,GNDA*%
X3075000Y19250000D03*
X3075000Y10750000D03*
%TD*%
D12*
%TO.P,J2,1,Pin_1*%
%TO.N,unconnected-(J2-Pin_1-Pad1)*%
X8400000Y25460000D03*
D13*
%TO.P,J2,2,Pin_2*%
%TO.N,+5V*%
X8400000Y28000000D03*
%TO.P,J2,3,Pin_3*%
%TO.N,SDA*%
X10940000Y25460000D03*
%TO.P,J2,4,Pin_4*%
%TO.N,+5V*%
X10940000Y28000000D03*
%TO.P,J2,5,Pin_5*%
%TO.N,SCL*%
X13480000Y25460000D03*
%TO.P,J2,6,Pin_6*%
%TO.N,GNDA*%
X13480000Y28000000D03*
%TO.P,J2,7,Pin_7*%
%TO.N,unconnected-(J2-Pin_7-Pad7)*%
X16020000Y25460000D03*
%TO.P,J2,8,Pin_8*%
%TO.N,TX*%
X16020000Y28000000D03*
%TO.P,J2,9,Pin_9*%
%TO.N,GNDA*%
X18560000Y25460000D03*
%TO.P,J2,10,Pin_10*%
%TO.N,RX*%
X18560000Y28000000D03*
%TO.P,J2,11,Pin_11*%
%TO.N,GPIO21*%
X21100000Y25460000D03*
%TO.P,J2,12,Pin_12*%
%TO.N,unconnected-(J2-Pin_12-Pad12)*%
X21100000Y28000000D03*
%TO.P,J2,13,Pin_13*%
%TO.N,unconnected-(J2-Pin_13-Pad13)*%
X23640000Y25460000D03*
%TO.P,J2,14,Pin_14*%
%TO.N,GNDA*%
X23640000Y28000000D03*
%TO.P,J2,15,Pin_15*%
%TO.N,GPIO22*%
X26180000Y25460000D03*
%TO.P,J2,16,Pin_16*%
%TO.N,unconnected-(J2-Pin_16-Pad16)*%
X26180000Y28000000D03*
%TO.P,J2,17,Pin_17*%
%TO.N,GPIO26_ADC0*%
X28720000Y25460000D03*
%TO.P,J2,18,Pin_18*%
%TO.N,unconnected-(J2-Pin_18-Pad18)*%
X28720000Y28000000D03*
%TO.P,J2,19,Pin_19*%
%TO.N,SPI_MO*%
X31260000Y25460000D03*
%TO.P,J2,20,Pin_20*%
%TO.N,unconnected-(J2-Pin_20-Pad20)*%
X31260000Y28000000D03*
%TO.P,J2,21,Pin_21*%
%TO.N,SPI_MI*%
X33800000Y25460000D03*
%TO.P,J2,22,Pin_22*%
%TO.N,unconnected-(J2-Pin_22-Pad22)*%
X33800000Y28000000D03*
%TO.P,J2,23,Pin_23*%
%TO.N,SPI_CLK*%
X36340000Y25460000D03*
%TO.P,J2,24,Pin_24*%
%TO.N,SPI_CS*%
X36340000Y28000000D03*
%TO.P,J2,25,Pin_25*%
%TO.N,unconnected-(J2-Pin_25-Pad25)*%
X38880000Y25460000D03*
%TO.P,J2,26,Pin_26*%
%TO.N,unconnected-(J2-Pin_26-Pad26)*%
X38880000Y28000000D03*
%TO.P,J2,27,Pin_27*%
%TO.N,ADC_VREF*%
X41420000Y25460000D03*
%TO.P,J2,28,Pin_28*%
%TO.N,unconnected-(J2-Pin_28-Pad28)*%
X41420000Y28000000D03*
%TO.P,J2,29,Pin_29*%
%TO.N,unconnected-(J2-Pin_29-Pad29)*%
X43960000Y25460000D03*
%TO.P,J2,30,Pin_30*%
%TO.N,GNDA*%
X43960000Y28000000D03*
%TO.P,J2,31,Pin_31*%
%TO.N,unconnected-(J2-Pin_31-Pad31)*%
X46500000Y25460000D03*
%TO.P,J2,32,Pin_32*%
%TO.N,GPIO24*%
X46500000Y28000000D03*
%TO.P,J2,33,Pin_33*%
%TO.N,unconnected-(J2-Pin_33-Pad33)*%
X49040000Y25460000D03*
%TO.P,J2,34,Pin_34*%
%TO.N,GNDA*%
X49040000Y28000000D03*
%TO.P,J2,35,Pin_35*%
%TO.N,unconnected-(J2-Pin_35-Pad35)*%
X51580000Y25460000D03*
%TO.P,J2,36,Pin_36*%
%TO.N,GPIO25*%
X51580000Y28000000D03*
%TO.P,J2,37,Pin_37*%
%TO.N,unconnected-(J2-Pin_37-Pad37)*%
X54120000Y25460000D03*
%TO.P,J2,38,Pin_38*%
%TO.N,unconnected-(J2-Pin_38-Pad38)*%
X54120000Y28000000D03*
%TO.P,J2,39,Pin_39*%
%TO.N,GNDA*%
X56660000Y25460000D03*
%TO.P,J2,40,Pin_40*%
%TO.N,unconnected-(J2-Pin_40-Pad40)*%
X56660000Y28000000D03*
%TD*%
D14*
%TO.P,U1,1,GPIO0*%
%TO.N,ADC_CLK*%
X56630000Y2210000D03*
%TO.P,U1,2,GPIO1*%
%TO.N,GPIO0*%
X54090000Y2210000D03*
%TO.P,U1,3,GND*%
%TO.N,GNDA*%
X51550000Y2210000D03*
%TO.P,U1,4,GPIO2*%
%TO.N,GPIO1*%
X49010000Y2210000D03*
%TO.P,U1,5,GPIO3*%
%TO.N,GPIO2*%
X46470000Y2210000D03*
%TO.P,U1,6,GPIO4*%
%TO.N,GPIO3*%
X43930000Y2210000D03*
%TO.P,U1,7,GPIO5*%
%TO.N,GPIO4*%
X41390000Y2210000D03*
%TO.P,U1,8,GND*%
%TO.N,GNDA*%
X38850000Y2210000D03*
%TO.P,U1,9,GPIO6*%
%TO.N,GPIO5*%
X36310000Y2210000D03*
%TO.P,U1,10,GPIO7*%
%TO.N,GPIO6*%
X33770000Y2210000D03*
%TO.P,U1,11,GPIO8*%
%TO.N,GPIO7*%
X31230000Y2210000D03*
%TO.P,U1,12,GPIO9*%
%TO.N,GPIO9*%
X28690000Y2210000D03*
%TO.P,U1,13,GND*%
%TO.N,GNDA*%
X26150000Y2210000D03*
%TO.P,U1,14,GPIO10*%
%TO.N,SPI_CLK*%
X23610000Y2210000D03*
%TO.P,U1,15,GPIO11*%
%TO.N,SPI_MO*%
X21070000Y2210000D03*
%TO.P,U1,16,GPIO12*%
%TO.N,SPI_MI*%
X18530000Y2210000D03*
%TO.P,U1,17,GPIO13*%
%TO.N,SPI_CS*%
X15990000Y2210000D03*
%TO.P,U1,18,GND*%
%TO.N,GNDA*%
X13450000Y2210000D03*
%TO.P,U1,19,GPIO14*%
%TO.N,GPIO14*%
X10910000Y2210000D03*
%TO.P,U1,20,GPIO15*%
%TO.N,GPIO15*%
X8370000Y2210000D03*
%TO.P,U1,21,GPIO16*%
%TO.N,TX*%
X8370000Y21790000D03*
%TO.P,U1,22,GPIO17*%
%TO.N,RX*%
X10910000Y21790000D03*
%TO.P,U1,23,GND*%
%TO.N,GNDA*%
X13450000Y21790000D03*
%TO.P,U1,24,GPIO18*%
%TO.N,SDA*%
X15990000Y21790000D03*
%TO.P,U1,25,GPIO19*%
%TO.N,SCL*%
X18530000Y21790000D03*
%TO.P,U1,26,GPIO20*%
%TO.N,GPIO20*%
X21070000Y21790000D03*
%TO.P,U1,27,GPIO21*%
%TO.N,GPIO21*%
X23610000Y21790000D03*
%TO.P,U1,28,GND*%
%TO.N,GNDA*%
X26150000Y21790000D03*
%TO.P,U1,29,GPIO22*%
%TO.N,GPIO22*%
X28690000Y21790000D03*
%TO.P,U1,30,RUN*%
%TO.N,unconnected-(U1-RUN-Pad30)*%
X31230000Y21790000D03*
%TO.P,U1,31,GPIO26_ADC0*%
%TO.N,GPIO26_ADC0*%
X33770000Y21790000D03*
%TO.P,U1,32,GPIO27_ADC1*%
%TO.N,GPIO27_ADC1*%
X36310000Y21790000D03*
%TO.P,U1,33,AGND*%
%TO.N,GNDA*%
X38850000Y21790000D03*
%TO.P,U1,34,GPIO28_ADC2*%
%TO.N,GPIO28_ADC2*%
X41390000Y21790000D03*
%TO.P,U1,35,ADC_VREF*%
%TO.N,ADC_VREF*%
X43930000Y21790000D03*
%TO.P,U1,36,3V3*%
%TO.N,+3.3V*%
X46470000Y21790000D03*
%TO.P,U1,37,3V3_EN*%
%TO.N,unconnected-(U1-3V3_EN-Pad37)*%
X49010000Y21790000D03*
%TO.P,U1,38,GND*%
%TO.N,GNDA*%
X51550000Y21790000D03*
%TO.P,U1,39,VSYS*%
%TO.N,unconnected-(U1-VSYS-Pad39)*%
X54090000Y21790000D03*
%TO.P,U1,40,VBUS*%
%TO.N,+5V*%
X56630000Y21790000D03*
D15*
%TO.P,U1,41,SWCLK*%
%TO.N,GPIO25*%
X7700000Y9460000D03*
%TO.P,U1,42,GND*%
%TO.N,GNDA*%
X7700000Y12000000D03*
%TO.P,U1,43,SWDIO*%
%TO.N,GPIO24*%
X7700000Y14540000D03*
%TD*%
D16*
%TO.N,GNDA*%
X58250000Y16750000D03*
X56750000Y16750000D03*
X55000000Y16750000D03*
X59250000Y750000D03*
X64000000Y5250000D03*
X59250000Y5250000D03*
X61250000Y18750000D03*
X61250000Y22250000D03*
X59000000Y22250000D03*
X64250000Y21500000D03*
X64250000Y18750000D03*
X64250000Y24000000D03*
X30300000Y4750000D03*
X12500000Y11000000D03*
X5500000Y7500000D03*
X3750000Y7500000D03*
X2250000Y7500000D03*
X750000Y7500000D03*
X5500000Y22750000D03*
X3750000Y22750000D03*
X2250000Y22750000D03*
X750000Y22750000D03*
X24500000Y18000000D03*
X24000000Y19000000D03*
X22750000Y19000000D03*
X24500000Y9000000D03*
X24500000Y10250000D03*
X24500000Y11500000D03*
X38750000Y21975000D03*
X40250000Y7050000D03*
X24150000Y12450000D03*
X14200000Y12650000D03*
X13250000Y13250000D03*
X12500000Y13750000D03*
X14450000Y14950000D03*
%TO.N,SDA*%
X14250000Y18750000D03*
%TO.N,+3.3V*%
X45450000Y23850000D03*
%TO.N,SCL*%
X14250000Y17750000D03*
%TO.N,GNDA*%
X5250000Y16000000D03*
X32000000Y9500000D03*
X12000000Y17250000D03*
X10500000Y17250000D03*
X25750000Y19000000D03*
X43600000Y9175000D03*
X5250000Y14000000D03*
X41050000Y12450000D03*
X57100000Y7100000D03*
X16500000Y10750000D03*
X12250000Y18000000D03*
X18250000Y10750000D03*
X27250000Y4250000D03*
X19750000Y10750000D03*
X36750000Y17225000D03*
X38150000Y11100000D03*
X32000000Y8250000D03*
X53000000Y16500000D03*
X22425000Y8750000D03*
X10250000Y10750000D03*
X13500000Y4750000D03*
X9000000Y17250000D03*
X41150000Y14325000D03*
X7500000Y17250000D03*
X12750000Y16000000D03*
X41050000Y11425000D03*
X43625000Y10375000D03*
%TO.N,SPI_CLK*%
X30000000Y8750000D03*
X30000000Y6000000D03*
%TO.N,TX*%
X9750000Y19500000D03*
%TO.N,ADC_CLK*%
X57750000Y4500000D03*
%TO.N,GPIO2*%
X47950000Y4350000D03*
%TO.N,GPIO7*%
X32200000Y4150000D03*
%TO.N,GPIO5*%
X37500000Y4500000D03*
%TO.N,GPIO3*%
X45250000Y4500000D03*
%TO.N,GPIO1*%
X51025000Y5025000D03*
%TO.N,GPIO6*%
X35000000Y4500000D03*
%TO.N,GPIO0*%
X54950000Y5050000D03*
%TO.N,GPIO4*%
X42750000Y4500000D03*
%TO.N,RX*%
X12000000Y19500000D03*
%TO.N,SPI_CS*%
X22250000Y6000000D03*
X25975000Y8000000D03*
%TO.N,GPIO20*%
X13875000Y10875000D03*
%TO.N,SPI_MO*%
X28425000Y6000000D03*
X28500000Y9500000D03*
%TO.N,SPI_MI*%
X24500000Y6000000D03*
X26250000Y8750000D03*
%TD*%
D17*
%TO.N,GNDA*%
X51578298Y3110000D02*
X53000000Y4531702D01*
X53000000Y4531702D02*
X53000000Y6500000D01*
X51550000Y3110000D02*
X51578298Y3110000D01*
X5050000Y9562500D02*
X5050000Y6137500D01*
X3950000Y9612500D02*
X3950000Y6187500D01*
X2950000Y9562500D02*
X2950000Y6137500D01*
X1950000Y9562500D02*
X1950000Y6137500D01*
X900000Y9562500D02*
X900000Y6137500D01*
X6762500Y17750000D02*
X3337500Y17750000D01*
X6662500Y18900000D02*
X3237500Y18900000D01*
X6662500Y19950000D02*
X3237500Y19950000D01*
X6662500Y20950000D02*
X3237500Y20950000D01*
X2000000Y19687500D02*
X2000000Y23112500D01*
X3100000Y19687500D02*
X3100000Y23112500D01*
X4150000Y19637500D02*
X4150000Y23062500D01*
X5250000Y19187500D02*
X5250000Y22612500D01*
X3075000Y22675000D02*
X3150000Y22750000D01*
X900000Y19250000D02*
X900000Y22675000D01*
D18*
%TO.N,GPIO2*%
X47710000Y4350000D02*
X46470000Y3110000D01*
X47950000Y4350000D02*
X47710000Y4350000D01*
%TO.N,GPIO1*%
X50925000Y5025000D02*
X49010000Y3110000D01*
X51025000Y5025000D02*
X50925000Y5025000D01*
%TO.N,GPIO7*%
X32200000Y4150000D02*
X31230000Y3180000D01*
X31230000Y3180000D02*
X31230000Y3110000D01*
%TO.N,GPIO0*%
X54950000Y3970000D02*
X54090000Y3110000D01*
X54950000Y5050000D02*
X54950000Y3970000D01*
%TO.N,GPIO24*%
X11500000Y12250000D02*
X9210000Y14540000D01*
X9210000Y14540000D02*
X8600000Y14540000D01*
X11500000Y7500000D02*
X11500000Y12250000D01*
X11750000Y7250000D02*
X11500000Y7500000D01*
X38250000Y7250000D02*
X11750000Y7250000D01*
X47750000Y16750000D02*
X38250000Y7250000D01*
X46500000Y28000000D02*
X47750000Y26750000D01*
X47750000Y26750000D02*
X47750000Y16750000D01*
D17*
%TO.N,+3.3V*%
X45450000Y23850000D02*
X46470000Y22830000D01*
X46470000Y22830000D02*
X46470000Y20890000D01*
D18*
%TO.N,SDA*%
X15500000Y18750000D02*
X14250000Y18750000D01*
X12300000Y24200000D02*
X11040000Y25460000D01*
X15990000Y20890000D02*
X15990000Y19240000D01*
X15990000Y20890000D02*
X15990000Y22760000D01*
X15990000Y22760000D02*
X14550000Y24200000D01*
X11040000Y25460000D02*
X10940000Y25460000D01*
X14550000Y24200000D02*
X12300000Y24200000D01*
X15990000Y19240000D02*
X15500000Y18750000D01*
%TO.N,SCL*%
X18530000Y22345000D02*
X16775000Y24100000D01*
X18530000Y20890000D02*
X18530000Y22345000D01*
X18530000Y20890000D02*
X18530000Y19030000D01*
X16775000Y24100000D02*
X15500000Y24100000D01*
X18530000Y19030000D02*
X17250000Y17750000D01*
X14140000Y25460000D02*
X13480000Y25460000D01*
X17250000Y17750000D02*
X14250000Y17750000D01*
X15500000Y24100000D02*
X14140000Y25460000D01*
D17*
%TO.N,+5V*%
X56630000Y22130000D02*
X58500000Y24000000D01*
X58500000Y29000000D02*
X57750000Y29750000D01*
X8400000Y28000000D02*
X10940000Y28000000D01*
X12690000Y29750000D02*
X10940000Y28000000D01*
X58500000Y24000000D02*
X58500000Y29000000D01*
X57750000Y29750000D02*
X12690000Y29750000D01*
X56630000Y20890000D02*
X56630000Y22130000D01*
D18*
%TO.N,ADC_VREF*%
X43930000Y22950000D02*
X41420000Y25460000D01*
X43930000Y20890000D02*
X43930000Y22950000D01*
D17*
%TO.N,GNDA*%
X13450000Y4700000D02*
X13450000Y3110000D01*
X51550000Y16450000D02*
X51550000Y20890000D01*
X13450000Y19200000D02*
X12250000Y18000000D01*
X8600000Y12000000D02*
X9000000Y12000000D01*
X13450000Y20890000D02*
X13450000Y19200000D01*
X26150000Y19400000D02*
X26150000Y20890000D01*
X4325000Y12000000D02*
X3075000Y10750000D01*
X13500000Y4750000D02*
X13450000Y4700000D01*
X26150000Y3150000D02*
X27250000Y4250000D01*
X26150000Y3110000D02*
X26150000Y3150000D01*
X9000000Y12000000D02*
X10250000Y10750000D01*
X25750000Y19000000D02*
X26150000Y19400000D01*
D18*
%TO.N,SPI_CLK*%
X30000000Y8750000D02*
X30000000Y10275000D01*
X35025000Y23650000D02*
X36340000Y24965000D01*
X35025000Y15300000D02*
X35025000Y23650000D01*
X30000000Y10275000D02*
X35025000Y15300000D01*
X23610000Y3160000D02*
X23610000Y3110000D01*
X29250000Y5250000D02*
X25700000Y5250000D01*
X36340000Y24965000D02*
X36340000Y25460000D01*
X25700000Y5250000D02*
X23610000Y3160000D01*
X30000000Y6000000D02*
X29250000Y5250000D01*
%TO.N,TX*%
X8370000Y20880000D02*
X8370000Y20890000D01*
X9750000Y19500000D02*
X8370000Y20880000D01*
%TO.N,GPIO26_ADC0*%
X35075000Y26150000D02*
X34450000Y26775000D01*
X35075000Y24825000D02*
X35075000Y26150000D01*
X33770000Y20890000D02*
X33770000Y23520000D01*
X33770000Y23520000D02*
X35075000Y24825000D01*
X30035000Y26775000D02*
X28720000Y25460000D01*
X34450000Y26775000D02*
X30035000Y26775000D01*
%TO.N,ADC_CLK*%
X57750000Y4500000D02*
X56630000Y3380000D01*
X56630000Y3380000D02*
X56630000Y3110000D01*
%TO.N,GPIO5*%
X37500000Y4500000D02*
X36310000Y3310000D01*
X36310000Y3310000D02*
X36310000Y3110000D01*
%TO.N,GPIO3*%
X43930000Y3180000D02*
X43930000Y3110000D01*
X45250000Y4500000D02*
X43930000Y3180000D01*
%TO.N,GPIO6*%
X35000000Y4500000D02*
X33770000Y3270000D01*
X33770000Y3270000D02*
X33770000Y3110000D01*
%TO.N,GPIO4*%
X42750000Y4470000D02*
X41390000Y3110000D01*
X42750000Y4500000D02*
X42750000Y4470000D01*
%TO.N,GPIO25*%
X51580000Y28000000D02*
X51580000Y27230000D01*
X38500000Y6750000D02*
X11250000Y6750000D01*
X51580000Y27230000D02*
X50250000Y25900000D01*
X50250000Y18500000D02*
X38500000Y6750000D01*
X8600000Y9400000D02*
X8600000Y9460000D01*
X11250000Y6750000D02*
X8600000Y9400000D01*
X50250000Y25900000D02*
X50250000Y18500000D01*
%TO.N,RX*%
X10910000Y20590000D02*
X10910000Y20890000D01*
X12000000Y19500000D02*
X10910000Y20590000D01*
%TO.N,SPI_CS*%
X35650000Y14600000D02*
X35650000Y18150000D01*
X22250000Y6000000D02*
X18880000Y6000000D01*
X18880000Y6000000D02*
X15990000Y3110000D01*
X37550000Y26450000D02*
X36340000Y27660000D01*
X37550000Y20050000D02*
X37550000Y26450000D01*
X35650000Y18150000D02*
X37550000Y20050000D01*
X30750000Y9700000D02*
X35650000Y14600000D01*
X36340000Y27660000D02*
X36340000Y28000000D01*
X30250000Y8000000D02*
X30750000Y8500000D01*
X25975000Y8000000D02*
X30250000Y8000000D01*
X30750000Y8500000D02*
X30750000Y9700000D01*
%TO.N,GPIO20*%
X13875000Y10875000D02*
X21070000Y18070000D01*
X21070000Y18070000D02*
X21070000Y20890000D01*
%TO.N,GPIO21*%
X23610000Y20890000D02*
X23610000Y22950000D01*
X23610000Y22950000D02*
X21100000Y25460000D01*
%TO.N,SPI_MO*%
X31260000Y25410000D02*
X31260000Y25460000D01*
X24125000Y4625000D02*
X22875000Y4625000D01*
X22875000Y4625000D02*
X21360000Y3110000D01*
X21360000Y3110000D02*
X21070000Y3110000D01*
X28500000Y9500000D02*
X28500000Y10500000D01*
X28425000Y6000000D02*
X25500000Y6000000D01*
X25500000Y6000000D02*
X24125000Y4625000D01*
X28500000Y10500000D02*
X29975000Y11975000D01*
X29975000Y24125000D02*
X31260000Y25410000D01*
X29975000Y11975000D02*
X29975000Y24125000D01*
%TO.N,SPI_MI*%
X26250000Y8750000D02*
X28750000Y8750000D01*
X24500000Y6000000D02*
X23375000Y6000000D01*
X33800000Y25325000D02*
X33800000Y25460000D01*
X29250000Y9250000D02*
X29250000Y10250000D01*
X32500000Y13500000D02*
X32500000Y24025000D01*
X20250000Y5000000D02*
X18530000Y3280000D01*
X29250000Y10250000D02*
X32500000Y13500000D01*
X32500000Y24025000D02*
X33800000Y25325000D01*
X22375000Y5000000D02*
X20250000Y5000000D01*
X18530000Y3280000D02*
X18530000Y3110000D01*
X23375000Y6000000D02*
X22375000Y5000000D01*
X28750000Y8750000D02*
X29250000Y9250000D01*
%TO.N,GPIO22*%
X28690000Y22950000D02*
X26180000Y25460000D01*
X28690000Y20890000D02*
X28690000Y22950000D01*
%TD*%
%TA.AperFunction,Conductor*%
%TO.N,GNDA*%
G36*
X3118334Y11044373D02*
G01*
X3162681Y11015872D01*
X5522618Y8655935D01*
X5545421Y8624550D01*
X5577493Y8561607D01*
X5594535Y8528160D01*
X5716968Y8376968D01*
X5826494Y8288275D01*
X5868162Y8254533D01*
X5964546Y8205424D01*
X5995933Y8182620D01*
X6006638Y8171915D01*
X6032106Y8170093D01*
X6037025Y8167931D01*
X6041497Y8166214D01*
X6041503Y8166213D01*
X6041504Y8166212D01*
X6229422Y8115859D01*
X6310222Y8109500D01*
X8954548Y8109500D01*
X9021587Y8089815D01*
X9042229Y8073181D01*
X10761016Y6354394D01*
X10761045Y6354363D01*
X10851263Y6264145D01*
X10851271Y6264139D01*
X10916901Y6220286D01*
X10916902Y6220286D01*
X10953715Y6195688D01*
X11020396Y6168069D01*
X11020398Y6168067D01*
X11060640Y6151399D01*
X11067548Y6148537D01*
X11100931Y6141897D01*
X11188391Y6124501D01*
X11188392Y6124500D01*
X11188393Y6124500D01*
X11188394Y6124500D01*
X13876000Y6124500D01*
X13943039Y6104815D01*
X13988794Y6052011D01*
X14000000Y6000500D01*
X14000000Y4584000D01*
X13980315Y4516961D01*
X13927511Y4471206D01*
X13876000Y4460000D01*
X13700000Y4460000D01*
X13700000Y2084000D01*
X13680315Y2016961D01*
X13627511Y1971206D01*
X13576000Y1960000D01*
X13324000Y1960000D01*
X13256961Y1979685D01*
X13211206Y2032489D01*
X13200000Y2084000D01*
X13200000Y4460000D01*
X12960256Y4460000D01*
X12879498Y4453644D01*
X12873902Y4452682D01*
X12873814Y4453192D01*
X12849577Y4450000D01*
X11512358Y4450000D01*
X11486221Y4453441D01*
X11486177Y4453179D01*
X11480580Y4454141D01*
X11399783Y4460500D01*
X11399778Y4460500D01*
X10420222Y4460500D01*
X10420216Y4460500D01*
X10339419Y4454141D01*
X10333823Y4453179D01*
X10333778Y4453441D01*
X10307642Y4450000D01*
X8972358Y4450000D01*
X8946221Y4453441D01*
X8946177Y4453179D01*
X8940580Y4454141D01*
X8859783Y4460500D01*
X8859778Y4460500D01*
X7880222Y4460500D01*
X7880216Y4460500D01*
X7799425Y4454142D01*
X7611504Y4403788D01*
X7438161Y4315466D01*
X7286968Y4193032D01*
X7164534Y4041839D01*
X7076212Y3868496D01*
X7025858Y3680575D01*
X7019500Y3599784D01*
X7019500Y820217D01*
X7025858Y739424D01*
X7045775Y665096D01*
X7050000Y633002D01*
X7050000Y374500D01*
X7030315Y307461D01*
X6977511Y261706D01*
X6926000Y250500D01*
X3554173Y250500D01*
X3554161Y250501D01*
X3544171Y250501D01*
X3503247Y250501D01*
X3496757Y250671D01*
X3166822Y267963D01*
X3153914Y269320D01*
X2830816Y320493D01*
X2818120Y323191D01*
X2502125Y407862D01*
X2489782Y411873D01*
X2184378Y529106D01*
X2172520Y534385D01*
X1978973Y633002D01*
X1881030Y682907D01*
X1869803Y689389D01*
X1595439Y867563D01*
X1584951Y875183D01*
X1330706Y1081066D01*
X1321062Y1089750D01*
X1089750Y1321062D01*
X1081065Y1330707D01*
X875187Y1584945D01*
X867565Y1595435D01*
X689379Y1869817D01*
X682909Y1881023D01*
X534379Y2172530D01*
X529105Y2184378D01*
X509684Y2234971D01*
X411872Y2489783D01*
X407861Y2502125D01*
X360254Y2679795D01*
X323188Y2818126D01*
X320492Y2830816D01*
X308917Y2903896D01*
X269319Y3153915D01*
X267962Y3166822D01*
X250671Y3496757D01*
X250501Y3503247D01*
X250501Y3554159D01*
X250500Y3554173D01*
X250500Y3621289D01*
X1649500Y3621289D01*
X1649500Y3378712D01*
X1681161Y3138215D01*
X1743947Y2903896D01*
X1779477Y2818120D01*
X1836776Y2679788D01*
X1958064Y2469711D01*
X1958066Y2469708D01*
X1958067Y2469707D01*
X2105733Y2277264D01*
X2105739Y2277257D01*
X2277256Y2105740D01*
X2277263Y2105734D01*
X2372718Y2032489D01*
X2469711Y1958064D01*
X2679788Y1836776D01*
X2903900Y1743946D01*
X3138211Y1681162D01*
X3318586Y1657416D01*
X3378711Y1649500D01*
X3378712Y1649500D01*
X3621289Y1649500D01*
X3669388Y1655833D01*
X3861789Y1681162D01*
X4096100Y1743946D01*
X4320212Y1836776D01*
X4530289Y1958064D01*
X4722738Y2105735D01*
X4894265Y2277262D01*
X5041936Y2469711D01*
X5163224Y2679788D01*
X5256054Y2903900D01*
X5318838Y3138211D01*
X5350500Y3378712D01*
X5350500Y3621288D01*
X5350142Y3624004D01*
X5330368Y3774210D01*
X5318838Y3861789D01*
X5256054Y4096100D01*
X5163224Y4320212D01*
X5041936Y4530289D01*
X4940604Y4662348D01*
X4894266Y4722737D01*
X4894260Y4722744D01*
X4722743Y4894261D01*
X4722736Y4894267D01*
X4530293Y5041933D01*
X4530292Y5041934D01*
X4530289Y5041936D01*
X4333478Y5155565D01*
X4320214Y5163223D01*
X4320205Y5163227D01*
X4096104Y5256053D01*
X3861785Y5318839D01*
X3621289Y5350500D01*
X3621288Y5350500D01*
X3378712Y5350500D01*
X3378711Y5350500D01*
X3138214Y5318839D01*
X2903895Y5256053D01*
X2679794Y5163227D01*
X2679785Y5163223D01*
X2528346Y5075789D01*
X2483684Y5050003D01*
X2469706Y5041933D01*
X2277263Y4894267D01*
X2277256Y4894261D01*
X2105739Y4722744D01*
X2105733Y4722737D01*
X1958067Y4530294D01*
X1958064Y4530290D01*
X1958064Y4530289D01*
X1951274Y4518528D01*
X1836777Y4320215D01*
X1836773Y4320206D01*
X1743947Y4096105D01*
X1681161Y3861786D01*
X1649500Y3621289D01*
X250500Y3621289D01*
X250500Y7777440D01*
X270185Y7844479D01*
X322989Y7890234D01*
X392147Y7900178D01*
X417834Y7893622D01*
X517623Y7856403D01*
X517627Y7856402D01*
X577155Y7850001D01*
X577172Y7850000D01*
X5572819Y7850000D01*
X5572819Y7850001D01*
X5616727Y7854721D01*
X2809128Y10662320D01*
X2775643Y10723643D01*
X2780627Y10793335D01*
X2809128Y10837682D01*
X2987319Y11015872D01*
X3048642Y11049357D01*
X3118334Y11044373D01*
G37*
%TD.AperFunction*%
%TA.AperFunction,Conductor*%
G36*
X61445839Y29749499D02*
G01*
X61455829Y29749499D01*
X61496753Y29749499D01*
X61503242Y29749330D01*
X61833177Y29732038D01*
X61846085Y29730681D01*
X62169190Y29679507D01*
X62181873Y29676812D01*
X62497880Y29592138D01*
X62510218Y29588128D01*
X62815626Y29470893D01*
X62827469Y29465621D01*
X63118976Y29317091D01*
X63130190Y29310616D01*
X63404564Y29132435D01*
X63415045Y29124820D01*
X63604404Y28971481D01*
X63669292Y28918936D01*
X63678937Y28910251D01*
X63910249Y28678939D01*
X63918934Y28669294D01*
X64124812Y28415056D01*
X64132437Y28404562D01*
X64310616Y28130190D01*
X64317093Y28118971D01*
X64377712Y28000001D01*
X64465615Y27827481D01*
X64470894Y27815623D01*
X64588127Y27510219D01*
X64592138Y27497876D01*
X64676809Y27181881D01*
X64679507Y27169185D01*
X64730680Y26846087D01*
X64732037Y26833179D01*
X64749329Y26503244D01*
X64749499Y26496754D01*
X64749499Y26441397D01*
X64749500Y26441388D01*
X64749500Y19006093D01*
X64748903Y18993939D01*
X64736296Y18865936D01*
X64731554Y18842094D01*
X64695993Y18724866D01*
X64686690Y18702408D01*
X64628942Y18594370D01*
X64615438Y18574160D01*
X64537725Y18479465D01*
X64520535Y18462275D01*
X64425840Y18384562D01*
X64405630Y18371058D01*
X64297592Y18313310D01*
X64275134Y18304007D01*
X64157906Y18268446D01*
X64134064Y18263704D01*
X64006062Y18251097D01*
X63993908Y18250500D01*
X59901578Y18250500D01*
X59707173Y18219710D01*
X59519970Y18158883D01*
X59344594Y18069524D01*
X59260457Y18008394D01*
X59185354Y17953828D01*
X59185352Y17953826D01*
X59185351Y17953826D01*
X59046174Y17814649D01*
X59046174Y17814648D01*
X59046172Y17814646D01*
X58998840Y17749500D01*
X58930476Y17655406D01*
X58841117Y17480030D01*
X58780290Y17292827D01*
X58749500Y17098423D01*
X58749500Y6901578D01*
X58780290Y6707174D01*
X58841117Y6519971D01*
X58914060Y6376814D01*
X58930476Y6344595D01*
X59046172Y6185354D01*
X59185354Y6046172D01*
X59344595Y5930476D01*
X59427455Y5888257D01*
X59519970Y5841118D01*
X59519972Y5841118D01*
X59519975Y5841116D01*
X59601441Y5814646D01*
X59707173Y5780291D01*
X59901578Y5749500D01*
X59901583Y5749500D01*
X59950172Y5749500D01*
X63955830Y5749500D01*
X63993908Y5749500D01*
X64006061Y5748903D01*
X64016635Y5747862D01*
X64134069Y5736296D01*
X64157897Y5731557D01*
X64275140Y5695992D01*
X64297589Y5686692D01*
X64310454Y5679816D01*
X64405630Y5628943D01*
X64425839Y5615440D01*
X64502822Y5552262D01*
X64520535Y5537726D01*
X64537725Y5520536D01*
X64615438Y5425841D01*
X64628942Y5405631D01*
X64686690Y5297593D01*
X64695992Y5275136D01*
X64729706Y5163997D01*
X64731554Y5157907D01*
X64736296Y5134065D01*
X64748903Y5006062D01*
X64749500Y4993908D01*
X64749500Y3554174D01*
X64749499Y3554166D01*
X64749499Y3503248D01*
X64749329Y3496758D01*
X64732037Y3166823D01*
X64730680Y3153915D01*
X64679507Y2830817D01*
X64676809Y2818121D01*
X64592138Y2502126D01*
X64588127Y2489783D01*
X64470894Y2184379D01*
X64465615Y2172521D01*
X64317097Y1881037D01*
X64310607Y1869797D01*
X64132441Y1595446D01*
X64124812Y1584945D01*
X63918935Y1330708D01*
X63910250Y1321063D01*
X63678938Y1089751D01*
X63669293Y1081066D01*
X63415055Y875188D01*
X63404555Y867559D01*
X63130197Y689389D01*
X63118964Y682903D01*
X62827480Y534385D01*
X62815622Y529106D01*
X62510218Y411873D01*
X62497875Y407862D01*
X62181880Y323191D01*
X62169184Y320493D01*
X61846086Y269320D01*
X61833178Y267963D01*
X61503244Y250671D01*
X61496754Y250501D01*
X61445840Y250501D01*
X61445828Y250500D01*
X58674000Y250500D01*
X58606961Y270185D01*
X58561206Y322989D01*
X58550000Y374500D01*
X58550000Y3621289D01*
X59649500Y3621289D01*
X59649500Y3378712D01*
X59681161Y3138215D01*
X59743947Y2903896D01*
X59779477Y2818120D01*
X59836776Y2679788D01*
X59958064Y2469711D01*
X59958066Y2469708D01*
X59958067Y2469707D01*
X60105733Y2277264D01*
X60105739Y2277257D01*
X60277256Y2105740D01*
X60277263Y2105734D01*
X60372718Y2032489D01*
X60469711Y1958064D01*
X60679788Y1836776D01*
X60903900Y1743946D01*
X61138211Y1681162D01*
X61318586Y1657416D01*
X61378711Y1649500D01*
X61378712Y1649500D01*
X61621289Y1649500D01*
X61669388Y1655833D01*
X61861789Y1681162D01*
X62096100Y1743946D01*
X62320212Y1836776D01*
X62530289Y1958064D01*
X62722738Y2105735D01*
X62894265Y2277262D01*
X63041936Y2469711D01*
X63163224Y2679788D01*
X63256054Y2903900D01*
X63318838Y3138211D01*
X63350500Y3378712D01*
X63350500Y3621288D01*
X63350142Y3624004D01*
X63330368Y3774210D01*
X63318838Y3861789D01*
X63256054Y4096100D01*
X63163224Y4320212D01*
X63041936Y4530289D01*
X62940604Y4662348D01*
X62894266Y4722737D01*
X62894260Y4722744D01*
X62722743Y4894261D01*
X62722736Y4894267D01*
X62530293Y5041933D01*
X62530292Y5041934D01*
X62530289Y5041936D01*
X62333478Y5155565D01*
X62320214Y5163223D01*
X62320205Y5163227D01*
X62096104Y5256053D01*
X61861785Y5318839D01*
X61621289Y5350500D01*
X61621288Y5350500D01*
X61378712Y5350500D01*
X61378711Y5350500D01*
X61138214Y5318839D01*
X60903895Y5256053D01*
X60679794Y5163227D01*
X60679785Y5163223D01*
X60528346Y5075789D01*
X60483684Y5050003D01*
X60469706Y5041933D01*
X60277263Y4894267D01*
X60277256Y4894261D01*
X60105739Y4722744D01*
X60105733Y4722737D01*
X59958067Y4530294D01*
X59958064Y4530290D01*
X59958064Y4530289D01*
X59951274Y4518528D01*
X59836777Y4320215D01*
X59836773Y4320206D01*
X59743947Y4096105D01*
X59681161Y3861786D01*
X59649500Y3621289D01*
X58550000Y3621289D01*
X58550000Y4443648D01*
X58550780Y4457532D01*
X58550944Y4458983D01*
X58553276Y4479685D01*
X58555565Y4499998D01*
X58555565Y4500004D01*
X58535369Y4679250D01*
X58535368Y4679255D01*
X58520153Y4722738D01*
X58475789Y4849522D01*
X58474067Y4852262D01*
X58400063Y4970039D01*
X58379816Y5002262D01*
X58252262Y5129816D01*
X58226069Y5146274D01*
X58099523Y5225789D01*
X57929254Y5285369D01*
X57929249Y5285370D01*
X57750004Y5305565D01*
X57749996Y5305565D01*
X57570750Y5285370D01*
X57570745Y5285369D01*
X57489554Y5256958D01*
X57448599Y5250000D01*
X55816092Y5250000D01*
X55749053Y5269685D01*
X55703298Y5322489D01*
X55699050Y5333046D01*
X55675789Y5399522D01*
X55659252Y5425841D01*
X55579816Y5552262D01*
X55452262Y5679816D01*
X55364280Y5735099D01*
X55299523Y5775789D01*
X55129254Y5835369D01*
X55129249Y5835370D01*
X54950004Y5855565D01*
X54949996Y5855565D01*
X54770750Y5835370D01*
X54770745Y5835369D01*
X54600476Y5775789D01*
X54447737Y5679816D01*
X54320184Y5552263D01*
X54224210Y5399522D01*
X54164630Y5229250D01*
X54160936Y5196462D01*
X54150000Y5170438D01*
X54150000Y5106353D01*
X54149220Y5092469D01*
X54144435Y5050002D01*
X54144435Y5049998D01*
X54149220Y5007532D01*
X54150000Y4993648D01*
X54150000Y4584500D01*
X54130315Y4517461D01*
X54077511Y4471706D01*
X54026000Y4460500D01*
X53600216Y4460500D01*
X53519425Y4454142D01*
X53331504Y4403788D01*
X53158161Y4315466D01*
X53006968Y4193032D01*
X52916044Y4080751D01*
X52858556Y4041039D01*
X52788725Y4038712D01*
X52728722Y4074508D01*
X52723313Y4080751D01*
X52632678Y4192674D01*
X52481567Y4315043D01*
X52308315Y4403318D01*
X52120497Y4453645D01*
X52039743Y4460000D01*
X51924000Y4460000D01*
X51856961Y4479685D01*
X51811206Y4532489D01*
X51800000Y4584000D01*
X51800000Y4795047D01*
X51806958Y4836000D01*
X51807164Y4836589D01*
X51810368Y4845745D01*
X51813185Y4870746D01*
X51830565Y5024997D01*
X51830565Y5025004D01*
X51810369Y5204250D01*
X51810368Y5204255D01*
X51781985Y5285369D01*
X51750789Y5374522D01*
X51735080Y5399522D01*
X51654815Y5527263D01*
X51527262Y5654816D01*
X51374523Y5750789D01*
X51204254Y5810369D01*
X51204249Y5810370D01*
X51025004Y5830565D01*
X51024996Y5830565D01*
X50845750Y5810370D01*
X50845745Y5810369D01*
X50675476Y5750789D01*
X50522737Y5654816D01*
X50395184Y5527263D01*
X50299210Y5374522D01*
X50297132Y5370205D01*
X50250313Y5318342D01*
X50185409Y5300000D01*
X45306353Y5300000D01*
X45292469Y5300780D01*
X45250002Y5305565D01*
X45249998Y5305565D01*
X45207531Y5300780D01*
X45193647Y5300000D01*
X42806363Y5300000D01*
X42792479Y5300780D01*
X42750011Y5305565D01*
X42749998Y5305565D01*
X42707531Y5300780D01*
X42693647Y5300000D01*
X42630899Y5300000D01*
X42627422Y5297118D01*
X42592284Y5287796D01*
X42570750Y5285370D01*
X42400478Y5225790D01*
X42247737Y5129816D01*
X42120184Y5002263D01*
X42024210Y4849522D01*
X41964630Y4679250D01*
X41955517Y4598367D01*
X41928450Y4533953D01*
X41919980Y4524571D01*
X41892227Y4496819D01*
X41830907Y4463334D01*
X41804547Y4460500D01*
X40900214Y4460500D01*
X40831639Y4455103D01*
X40826801Y4456120D01*
X40819732Y4454225D01*
X40787637Y4450000D01*
X39450423Y4450000D01*
X39426185Y4453192D01*
X39426098Y4452682D01*
X39420501Y4453644D01*
X39339743Y4460000D01*
X39100000Y4460000D01*
X39100000Y2084000D01*
X39080315Y2016961D01*
X39027511Y1971206D01*
X38976000Y1960000D01*
X38724000Y1960000D01*
X38656961Y1979685D01*
X38611206Y2032489D01*
X38600000Y2084000D01*
X38600000Y4460000D01*
X38420885Y4460000D01*
X38353846Y4479685D01*
X38308091Y4532489D01*
X38297665Y4570117D01*
X38285369Y4679250D01*
X38285368Y4679255D01*
X38270153Y4722738D01*
X38225789Y4849522D01*
X38224067Y4852262D01*
X38150063Y4970039D01*
X38129816Y5002262D01*
X38002262Y5129816D01*
X37976069Y5146274D01*
X37849523Y5225789D01*
X37679254Y5285369D01*
X37679249Y5285370D01*
X37500004Y5305565D01*
X37499998Y5305565D01*
X37457531Y5300780D01*
X37443647Y5300000D01*
X35056353Y5300000D01*
X35042469Y5300780D01*
X35000002Y5305565D01*
X34999996Y5305565D01*
X34820750Y5285370D01*
X34820745Y5285369D01*
X34650476Y5225789D01*
X34497737Y5129816D01*
X34370184Y5002263D01*
X34365841Y4996816D01*
X34363393Y4998769D01*
X34321277Y4961646D01*
X34268813Y4950000D01*
X32256356Y4950000D01*
X32242473Y4950780D01*
X32200003Y4955565D01*
X32199996Y4955565D01*
X32157527Y4950780D01*
X32151552Y4950445D01*
X32148830Y4949801D01*
X32020749Y4935370D01*
X32020745Y4935369D01*
X31850476Y4875789D01*
X31697737Y4779816D01*
X31570184Y4652263D01*
X31567843Y4648537D01*
X31486152Y4518527D01*
X31433819Y4472237D01*
X31381160Y4460500D01*
X30740216Y4460500D01*
X30659423Y4454142D01*
X30473133Y4404225D01*
X30441040Y4400000D01*
X30124000Y4400000D01*
X30056961Y4419685D01*
X30011206Y4472489D01*
X30000000Y4524000D01*
X30000000Y5064049D01*
X30019685Y5131088D01*
X30036317Y5151728D01*
X30044203Y5159614D01*
X30058377Y5173789D01*
X30119697Y5207274D01*
X30132156Y5209326D01*
X30179255Y5214632D01*
X30349522Y5274211D01*
X30502262Y5370184D01*
X30629816Y5497738D01*
X30725789Y5650478D01*
X30785368Y5820745D01*
X30785369Y5820751D01*
X30805565Y5999997D01*
X30805565Y6000500D01*
X30805657Y6000814D01*
X30806345Y6006919D01*
X30807414Y6006799D01*
X30825250Y6067539D01*
X30878054Y6113294D01*
X30929565Y6124500D01*
X38561608Y6124500D01*
X38561608Y6124501D01*
X38649069Y6141897D01*
X38649070Y6141897D01*
X38660298Y6144131D01*
X38682452Y6148537D01*
X38718580Y6163502D01*
X38796286Y6195688D01*
X38847509Y6229916D01*
X38898733Y6264142D01*
X38985858Y6351267D01*
X38985858Y6351269D01*
X38996066Y6361476D01*
X38996067Y6361479D01*
X41134589Y8500000D01*
X44000000Y8500000D01*
X46000000Y8500000D01*
X46500000Y8500000D01*
X48500000Y8500000D01*
X49000000Y8500000D01*
X51000000Y8500000D01*
X51000000Y9575003D01*
X52214723Y9575003D01*
X52214723Y9574998D01*
X52233793Y9357025D01*
X52233793Y9357021D01*
X52290422Y9145678D01*
X52290424Y9145674D01*
X52290425Y9145670D01*
X52311944Y9099522D01*
X52382897Y8947362D01*
X52382898Y8947361D01*
X52508402Y8768123D01*
X52663123Y8613402D01*
X52842361Y8487898D01*
X53040670Y8395425D01*
X53252023Y8338793D01*
X53434926Y8322792D01*
X53469998Y8319723D01*
X53470000Y8319723D01*
X53470002Y8319723D01*
X53498254Y8322195D01*
X53687977Y8338793D01*
X53899330Y8395425D01*
X54097639Y8487898D01*
X54276877Y8613402D01*
X54431598Y8768123D01*
X54557102Y8947361D01*
X54649575Y9145670D01*
X54684231Y9275007D01*
X55094700Y9275007D01*
X55094700Y9274994D01*
X55113864Y9043703D01*
X55113866Y9043692D01*
X55170842Y8818700D01*
X55264075Y8606152D01*
X55391016Y8411853D01*
X55391019Y8411849D01*
X55391021Y8411847D01*
X55548216Y8241087D01*
X55548219Y8241085D01*
X55548222Y8241082D01*
X55731365Y8098536D01*
X55731371Y8098532D01*
X55731374Y8098530D01*
X55778215Y8073181D01*
X55914943Y7999187D01*
X55935497Y7988064D01*
X56049487Y7948932D01*
X56155015Y7912703D01*
X56155017Y7912703D01*
X56155019Y7912702D01*
X56383951Y7874500D01*
X56383952Y7874500D01*
X56616048Y7874500D01*
X56616049Y7874500D01*
X56844981Y7912702D01*
X57064503Y7988064D01*
X57268626Y8098530D01*
X57282721Y8109500D01*
X57357793Y8167931D01*
X57451784Y8241087D01*
X57608979Y8411847D01*
X57735924Y8606151D01*
X57829157Y8818700D01*
X57886134Y9043695D01*
X57894584Y9145670D01*
X57905300Y9274994D01*
X57905300Y9275007D01*
X57886135Y9506298D01*
X57886133Y9506309D01*
X57829157Y9731301D01*
X57735924Y9943849D01*
X57608983Y10138148D01*
X57608980Y10138151D01*
X57608979Y10138153D01*
X57451784Y10308913D01*
X57451779Y10308917D01*
X57451777Y10308919D01*
X57268634Y10451465D01*
X57268628Y10451469D01*
X57064504Y10561936D01*
X57064495Y10561939D01*
X56844984Y10637298D01*
X56673282Y10665950D01*
X56616049Y10675500D01*
X56383951Y10675500D01*
X56338164Y10667860D01*
X56155015Y10637298D01*
X55935504Y10561939D01*
X55935495Y10561936D01*
X55731371Y10451469D01*
X55731365Y10451465D01*
X55548222Y10308919D01*
X55548219Y10308916D01*
X55391016Y10138148D01*
X55264075Y9943849D01*
X55170842Y9731301D01*
X55113866Y9506309D01*
X55113864Y9506298D01*
X55094700Y9275007D01*
X54684231Y9275007D01*
X54706207Y9357023D01*
X54725277Y9575000D01*
X54706207Y9792977D01*
X54649575Y10004330D01*
X54557102Y10202638D01*
X54557100Y10202641D01*
X54557099Y10202643D01*
X54431599Y10381876D01*
X54362005Y10451470D01*
X54276877Y10536598D01*
X54097639Y10662102D01*
X54097640Y10662102D01*
X54097638Y10662103D01*
X53965664Y10723643D01*
X53899330Y10754575D01*
X53899326Y10754576D01*
X53899322Y10754578D01*
X53687977Y10811207D01*
X53470002Y10830277D01*
X53469998Y10830277D01*
X53367138Y10821278D01*
X53252023Y10811207D01*
X53252020Y10811207D01*
X53040677Y10754578D01*
X53040668Y10754574D01*
X52842361Y10662102D01*
X52842357Y10662100D01*
X52663121Y10536598D01*
X52508402Y10381879D01*
X52382900Y10202643D01*
X52382898Y10202639D01*
X52290426Y10004332D01*
X52290422Y10004323D01*
X52233793Y9792980D01*
X52233793Y9792976D01*
X52214723Y9575003D01*
X51000000Y9575003D01*
X51000000Y10500000D01*
X49000000Y10500000D01*
X49000000Y8500000D01*
X48500000Y8500000D01*
X48500000Y10500000D01*
X46500000Y10500000D01*
X46500000Y8500000D01*
X46000000Y8500000D01*
X46000000Y10500000D01*
X44000000Y10500000D01*
X44000000Y8500000D01*
X41134589Y8500000D01*
X47059590Y14425000D01*
X52214723Y14425000D01*
X52232407Y14222861D01*
X52233793Y14207025D01*
X52233793Y14207021D01*
X52290422Y13995678D01*
X52290424Y13995674D01*
X52290425Y13995670D01*
X52302664Y13969424D01*
X52382897Y13797362D01*
X52407998Y13761514D01*
X52508402Y13618123D01*
X52663123Y13463402D01*
X52842361Y13337898D01*
X53040670Y13245425D01*
X53252023Y13188793D01*
X53434926Y13172792D01*
X53469998Y13169723D01*
X53470000Y13169723D01*
X53470002Y13169723D01*
X53498254Y13172195D01*
X53687977Y13188793D01*
X53899330Y13245425D01*
X54097639Y13337898D01*
X54276877Y13463402D01*
X54431598Y13618123D01*
X54557102Y13797361D01*
X54649575Y13995670D01*
X54706207Y14207023D01*
X54725277Y14425000D01*
X54721927Y14463286D01*
X54717828Y14510142D01*
X54706207Y14642977D01*
X54684227Y14725007D01*
X55094700Y14725007D01*
X55094700Y14724994D01*
X55113864Y14493703D01*
X55113866Y14493692D01*
X55170842Y14268700D01*
X55264075Y14056152D01*
X55391016Y13861853D01*
X55391019Y13861849D01*
X55391021Y13861847D01*
X55548216Y13691087D01*
X55548219Y13691085D01*
X55548222Y13691082D01*
X55731365Y13548536D01*
X55731371Y13548532D01*
X55731374Y13548530D01*
X55935497Y13438064D01*
X56049487Y13398932D01*
X56155015Y13362703D01*
X56155017Y13362703D01*
X56155019Y13362702D01*
X56383951Y13324500D01*
X56383952Y13324500D01*
X56616048Y13324500D01*
X56616049Y13324500D01*
X56844981Y13362702D01*
X57064503Y13438064D01*
X57268626Y13548530D01*
X57451784Y13691087D01*
X57608979Y13861847D01*
X57735924Y14056151D01*
X57829157Y14268700D01*
X57886134Y14493695D01*
X57889838Y14538393D01*
X57905300Y14724994D01*
X57905300Y14725007D01*
X57886135Y14956298D01*
X57886133Y14956309D01*
X57829157Y15181301D01*
X57735924Y15393849D01*
X57608983Y15588148D01*
X57608980Y15588151D01*
X57608979Y15588153D01*
X57451784Y15758913D01*
X57451779Y15758917D01*
X57451777Y15758919D01*
X57268634Y15901465D01*
X57268628Y15901469D01*
X57064504Y16011936D01*
X57064495Y16011939D01*
X56844984Y16087298D01*
X56673282Y16115950D01*
X56616049Y16125500D01*
X56383951Y16125500D01*
X56338164Y16117860D01*
X56155015Y16087298D01*
X55935504Y16011939D01*
X55935495Y16011936D01*
X55731371Y15901469D01*
X55731365Y15901465D01*
X55548222Y15758919D01*
X55548219Y15758916D01*
X55391016Y15588148D01*
X55264075Y15393849D01*
X55170842Y15181301D01*
X55113866Y14956309D01*
X55113864Y14956298D01*
X55094700Y14725007D01*
X54684227Y14725007D01*
X54649575Y14854330D01*
X54557102Y15052638D01*
X54557100Y15052641D01*
X54557099Y15052643D01*
X54431599Y15231876D01*
X54364979Y15298496D01*
X54276877Y15386598D01*
X54097639Y15512102D01*
X54097640Y15512102D01*
X54097638Y15512103D01*
X53996873Y15559090D01*
X53899330Y15604575D01*
X53899326Y15604576D01*
X53899322Y15604578D01*
X53687977Y15661207D01*
X53470002Y15680277D01*
X53469998Y15680277D01*
X53324682Y15667564D01*
X53252023Y15661207D01*
X53252020Y15661207D01*
X53040677Y15604578D01*
X53040668Y15604574D01*
X52842361Y15512102D01*
X52842357Y15512100D01*
X52663121Y15386598D01*
X52508402Y15231879D01*
X52382900Y15052643D01*
X52382898Y15052639D01*
X52290426Y14854332D01*
X52290422Y14854323D01*
X52233793Y14642980D01*
X52233793Y14642976D01*
X52218073Y14463286D01*
X52214723Y14425000D01*
X47059590Y14425000D01*
X50735857Y18101266D01*
X50756131Y18131607D01*
X50759546Y18136717D01*
X50804310Y18203713D01*
X50804311Y18203714D01*
X50851463Y18317548D01*
X50863975Y18380454D01*
X50868758Y18404497D01*
X50868758Y18404500D01*
X50875500Y18438393D01*
X50875500Y18561606D01*
X50875500Y19420399D01*
X50895185Y19487438D01*
X50947989Y19533193D01*
X51009230Y19544017D01*
X51060259Y19540001D01*
X51060270Y19540000D01*
X51300000Y19540000D01*
X51300000Y21916000D01*
X51319685Y21983039D01*
X51372489Y22028794D01*
X51424000Y22040000D01*
X51676000Y22040000D01*
X51743039Y22020315D01*
X51788794Y21967511D01*
X51800000Y21916000D01*
X51800000Y19540000D01*
X52039730Y19540000D01*
X52039743Y19540001D01*
X52120501Y19546357D01*
X52126098Y19547318D01*
X52126185Y19546809D01*
X52150423Y19550000D01*
X53487642Y19550000D01*
X53513778Y19546560D01*
X53513823Y19546821D01*
X53519416Y19545861D01*
X53519422Y19545859D01*
X53600222Y19539500D01*
X53600230Y19539500D01*
X54579770Y19539500D01*
X54579778Y19539500D01*
X54660578Y19545859D01*
X54660584Y19545861D01*
X54666177Y19546821D01*
X54666221Y19546560D01*
X54692358Y19550000D01*
X56027642Y19550000D01*
X56053778Y19546560D01*
X56053823Y19546821D01*
X56059416Y19545861D01*
X56059422Y19545859D01*
X56140222Y19539500D01*
X56140230Y19539500D01*
X57119770Y19539500D01*
X57119778Y19539500D01*
X57200578Y19545859D01*
X57388496Y19596212D01*
X57561840Y19684535D01*
X57713032Y19806968D01*
X57835465Y19958160D01*
X57923788Y20131504D01*
X57974141Y20319422D01*
X57980500Y20400222D01*
X57980500Y22367771D01*
X58000185Y22434810D01*
X58016819Y22455452D01*
X59082948Y23521581D01*
X59082951Y23521584D01*
X59165084Y23644505D01*
X59221658Y23781087D01*
X59250500Y23926082D01*
X59250500Y24073917D01*
X59250500Y26621289D01*
X59649500Y26621289D01*
X59649500Y26378712D01*
X59680214Y26145405D01*
X59681162Y26138211D01*
X59692734Y26095023D01*
X59743947Y25903896D01*
X59830306Y25695408D01*
X59836776Y25679788D01*
X59958064Y25469711D01*
X59958066Y25469708D01*
X59958067Y25469707D01*
X60105733Y25277264D01*
X60105739Y25277257D01*
X60277256Y25105740D01*
X60277262Y25105735D01*
X60469711Y24958064D01*
X60679788Y24836776D01*
X60903900Y24743946D01*
X61138211Y24681162D01*
X61318586Y24657416D01*
X61378711Y24649500D01*
X61378712Y24649500D01*
X61621289Y24649500D01*
X61669388Y24655833D01*
X61861789Y24681162D01*
X62096100Y24743946D01*
X62320212Y24836776D01*
X62530289Y24958064D01*
X62722738Y25105735D01*
X62894265Y25277262D01*
X63041936Y25469711D01*
X63163224Y25679788D01*
X63256054Y25903900D01*
X63318838Y26138211D01*
X63350500Y26378712D01*
X63350500Y26621288D01*
X63349600Y26628121D01*
X63333185Y26752807D01*
X63318838Y26861789D01*
X63256054Y27096100D01*
X63163224Y27320212D01*
X63041936Y27530289D01*
X62894265Y27722738D01*
X62894260Y27722744D01*
X62722743Y27894261D01*
X62722736Y27894267D01*
X62530293Y28041933D01*
X62530292Y28041934D01*
X62530289Y28041936D01*
X62320212Y28163224D01*
X62320205Y28163227D01*
X62096104Y28256053D01*
X61978944Y28287446D01*
X61861789Y28318838D01*
X61861788Y28318839D01*
X61861785Y28318839D01*
X61621289Y28350500D01*
X61621288Y28350500D01*
X61378712Y28350500D01*
X61378711Y28350500D01*
X61138214Y28318839D01*
X60903895Y28256053D01*
X60679794Y28163227D01*
X60679785Y28163223D01*
X60469706Y28041933D01*
X60277263Y27894267D01*
X60277256Y27894261D01*
X60105739Y27722744D01*
X60105733Y27722737D01*
X59958067Y27530294D01*
X59836777Y27320215D01*
X59836773Y27320206D01*
X59743947Y27096105D01*
X59681161Y26861786D01*
X59649500Y26621289D01*
X59250500Y26621289D01*
X59250500Y29073918D01*
X59250500Y29074908D01*
X59250000Y29085086D01*
X59250000Y29625500D01*
X59269685Y29692539D01*
X59322489Y29738294D01*
X59374000Y29749500D01*
X61445827Y29749500D01*
X61445839Y29749499D01*
G37*
%TD.AperFunction*%
%TA.AperFunction,Conductor*%
G36*
X27915217Y4604815D02*
G01*
X27960972Y4552011D01*
X27970916Y4482853D01*
X27941891Y4419297D01*
X27904473Y4390015D01*
X27758161Y4315466D01*
X27606968Y4193032D01*
X27516044Y4080751D01*
X27458556Y4041039D01*
X27388725Y4038712D01*
X27328722Y4074508D01*
X27323313Y4080751D01*
X27232678Y4192674D01*
X27081567Y4315043D01*
X26934425Y4390015D01*
X26883629Y4437989D01*
X26866834Y4505810D01*
X26889371Y4571945D01*
X26944086Y4615397D01*
X26990720Y4624500D01*
X27848178Y4624500D01*
X27915217Y4604815D01*
G37*
%TD.AperFunction*%
%TA.AperFunction,Conductor*%
G36*
X6993039Y29729815D02*
G01*
X7038794Y29677011D01*
X7050000Y29625500D01*
X7050000Y28070095D01*
X7049528Y28059287D01*
X7044341Y28000001D01*
X7044341Y28000000D01*
X7049528Y27940714D01*
X7050000Y27929906D01*
X7050000Y26369174D01*
X7049572Y26361202D01*
X7049678Y26361196D01*
X7049500Y26357872D01*
X7049500Y24562137D01*
X7049679Y24558820D01*
X7049572Y24558815D01*
X7050000Y24550844D01*
X7050000Y23366999D01*
X7045775Y23334906D01*
X7025858Y23260577D01*
X7019500Y23179784D01*
X7019500Y20400217D01*
X7025858Y20319426D01*
X7025858Y20319423D01*
X7025859Y20319422D01*
X7076212Y20131504D01*
X7164535Y19958160D01*
X7286968Y19806968D01*
X7438160Y19684535D01*
X7611504Y19596212D01*
X7799422Y19545859D01*
X7880222Y19539500D01*
X8774547Y19539500D01*
X8841586Y19519815D01*
X8862228Y19503181D01*
X8923787Y19441622D01*
X8957272Y19380299D01*
X8959326Y19367826D01*
X8964630Y19320751D01*
X9024210Y19150479D01*
X9091009Y19044170D01*
X9120184Y18997738D01*
X9247738Y18870184D01*
X9400478Y18774211D01*
X9469678Y18749997D01*
X9570745Y18714632D01*
X9570750Y18714631D01*
X9749996Y18694435D01*
X9750000Y18694435D01*
X9750002Y18694435D01*
X9792469Y18699220D01*
X9806353Y18700000D01*
X11943647Y18700000D01*
X11957531Y18699220D01*
X11999998Y18694435D01*
X12000000Y18694435D01*
X12000002Y18694435D01*
X12042469Y18699220D01*
X12056353Y18700000D01*
X12118110Y18700000D01*
X12122709Y18703648D01*
X12155387Y18711943D01*
X12179255Y18714632D01*
X12349522Y18774211D01*
X12502262Y18870184D01*
X12629816Y18997738D01*
X12725789Y19150478D01*
X12785368Y19320745D01*
X12787277Y19337682D01*
X12796185Y19416748D01*
X12797968Y19432576D01*
X12825034Y19496989D01*
X12882629Y19536544D01*
X12930919Y19542310D01*
X12960261Y19540001D01*
X12960270Y19540000D01*
X13200000Y19540000D01*
X13200000Y21916000D01*
X13219685Y21983039D01*
X13272489Y22028794D01*
X13324000Y22040000D01*
X13576000Y22040000D01*
X13643039Y22020315D01*
X13688794Y21967511D01*
X13700000Y21916000D01*
X13700000Y19540000D01*
X13716280Y19523720D01*
X13749765Y19462397D01*
X13744781Y19392705D01*
X13716280Y19348358D01*
X13620184Y19252263D01*
X13524211Y19099524D01*
X13464631Y18929255D01*
X13464630Y18929250D01*
X13444435Y18750004D01*
X13444435Y18749997D01*
X13464630Y18570751D01*
X13464633Y18570738D01*
X13524209Y18400480D01*
X13577309Y18315971D01*
X13596309Y18248734D01*
X13577309Y18184029D01*
X13524209Y18099521D01*
X13464633Y17929263D01*
X13464630Y17929250D01*
X13444435Y17750004D01*
X13444435Y17749997D01*
X13464630Y17570751D01*
X13464631Y17570746D01*
X13524211Y17400477D01*
X13591853Y17292826D01*
X13620184Y17247738D01*
X13747738Y17120184D01*
X13782380Y17098417D01*
X13856234Y17052011D01*
X13900478Y17024211D01*
X14047485Y16972771D01*
X14070745Y16964632D01*
X14070750Y16964631D01*
X14249996Y16944435D01*
X14250000Y16944435D01*
X14250004Y16944435D01*
X14429249Y16964631D01*
X14429252Y16964632D01*
X14429255Y16964632D01*
X14599522Y17024211D01*
X14728883Y17105495D01*
X14794855Y17124500D01*
X15026000Y17124500D01*
X15093039Y17104815D01*
X15138794Y17052011D01*
X15150000Y17000500D01*
X15150000Y13085953D01*
X15130315Y13018914D01*
X15113681Y12998272D01*
X13816621Y11701213D01*
X13755298Y11667728D01*
X13742825Y11665674D01*
X13695750Y11660370D01*
X13525478Y11600790D01*
X13372737Y11504816D01*
X13245184Y11377263D01*
X13149211Y11224524D01*
X13089631Y11054255D01*
X13089630Y11054250D01*
X13069435Y10875004D01*
X13069435Y10874997D01*
X13089630Y10695751D01*
X13089631Y10695746D01*
X13149211Y10525477D01*
X13195713Y10451470D01*
X13245184Y10372738D01*
X13372738Y10245184D01*
X13525478Y10149211D01*
X13695745Y10089632D01*
X13695750Y10089631D01*
X13874996Y10069435D01*
X13875000Y10069435D01*
X13875004Y10069435D01*
X14054249Y10089631D01*
X14054252Y10089632D01*
X14054255Y10089632D01*
X14224522Y10149211D01*
X14377262Y10245184D01*
X14504816Y10372738D01*
X14600789Y10525478D01*
X14660368Y10695745D01*
X14665672Y10742827D01*
X14692737Y10807237D01*
X14701201Y10816613D01*
X21555858Y17671267D01*
X21624312Y17773715D01*
X21671463Y17887549D01*
X21695501Y18008394D01*
X21695501Y18131607D01*
X21695501Y18131608D01*
X21695501Y18136717D01*
X21695500Y18136743D01*
X21695500Y19426000D01*
X21715185Y19493039D01*
X21767989Y19538794D01*
X21819500Y19550000D01*
X23007642Y19550000D01*
X23033778Y19546560D01*
X23033823Y19546821D01*
X23039416Y19545861D01*
X23039422Y19545859D01*
X23120222Y19539500D01*
X23120230Y19539500D01*
X24099770Y19539500D01*
X24099778Y19539500D01*
X24180578Y19545859D01*
X24180584Y19545861D01*
X24186177Y19546821D01*
X24186221Y19546560D01*
X24212358Y19550000D01*
X25549577Y19550000D01*
X25573814Y19546809D01*
X25573902Y19547318D01*
X25579498Y19546357D01*
X25660256Y19540001D01*
X25660270Y19540000D01*
X25900000Y19540000D01*
X25900000Y21916000D01*
X25919685Y21983039D01*
X25972489Y22028794D01*
X26024000Y22040000D01*
X26276000Y22040000D01*
X26343039Y22020315D01*
X26388794Y21967511D01*
X26400000Y21916000D01*
X26400000Y19540000D01*
X26639730Y19540000D01*
X26639743Y19540001D01*
X26720501Y19546357D01*
X26726098Y19547318D01*
X26726185Y19546809D01*
X26750423Y19550000D01*
X28087642Y19550000D01*
X28113778Y19546560D01*
X28113823Y19546821D01*
X28119416Y19545861D01*
X28119422Y19545859D01*
X28200222Y19539500D01*
X28200230Y19539500D01*
X29179770Y19539500D01*
X29179778Y19539500D01*
X29215771Y19542333D01*
X29284148Y19527969D01*
X29333905Y19478918D01*
X29349500Y19418715D01*
X29349500Y12285453D01*
X29329815Y12218414D01*
X29313181Y12197772D01*
X28716199Y11600790D01*
X28101270Y10985861D01*
X28101267Y10985858D01*
X28057704Y10942296D01*
X28014142Y10898734D01*
X27998296Y10875019D01*
X27982557Y10851463D01*
X27945688Y10796286D01*
X27945686Y10796284D01*
X27945686Y10796282D01*
X27945685Y10796281D01*
X27913336Y10718181D01*
X27902722Y10692555D01*
X27902718Y10692545D01*
X27898539Y10682460D01*
X27898535Y10682446D01*
X27874565Y10561935D01*
X27874542Y10561815D01*
X27874500Y10561605D01*
X27874500Y10044855D01*
X27855494Y9978883D01*
X27774211Y9849524D01*
X27714631Y9679255D01*
X27714630Y9679250D01*
X27694435Y9500004D01*
X27694435Y9499500D01*
X27694342Y9499187D01*
X27693655Y9493081D01*
X27692585Y9493202D01*
X27674750Y9432461D01*
X27621946Y9386706D01*
X27570435Y9375500D01*
X26794855Y9375500D01*
X26728883Y9394506D01*
X26599523Y9475789D01*
X26429254Y9535369D01*
X26429249Y9535370D01*
X26250004Y9555565D01*
X26249996Y9555565D01*
X26070750Y9535370D01*
X26070745Y9535369D01*
X25900476Y9475789D01*
X25747737Y9379816D01*
X25620184Y9252263D01*
X25524211Y9099524D01*
X25464631Y8929255D01*
X25464630Y8929250D01*
X25444435Y8750004D01*
X25444435Y8749995D01*
X25452784Y8675889D01*
X25440729Y8607068D01*
X25417246Y8574327D01*
X25345187Y8502267D01*
X25345186Y8502266D01*
X25249211Y8349524D01*
X25189631Y8179255D01*
X25189630Y8179250D01*
X25169435Y8000004D01*
X25169435Y7999500D01*
X25169342Y7999187D01*
X25168655Y7993081D01*
X25167585Y7993202D01*
X25149750Y7932461D01*
X25096946Y7886706D01*
X25045435Y7875500D01*
X12249500Y7875500D01*
X12182461Y7895185D01*
X12136706Y7947989D01*
X12125500Y7999500D01*
X12125500Y12311604D01*
X12125500Y12311606D01*
X12101463Y12432452D01*
X12087652Y12465793D01*
X12054312Y12546286D01*
X12054310Y12546289D01*
X12054309Y12546292D01*
X12018086Y12600501D01*
X12018086Y12600502D01*
X12018083Y12600504D01*
X11985859Y12648732D01*
X11985855Y12648737D01*
X11895637Y12738955D01*
X11895606Y12738984D01*
X9986819Y14647771D01*
X9953334Y14709094D01*
X9950500Y14735452D01*
X9950500Y15029771D01*
X9950500Y15029778D01*
X9944141Y15110578D01*
X9893788Y15298496D01*
X9805465Y15471840D01*
X9683032Y15623032D01*
X9531840Y15745465D01*
X9358496Y15833788D01*
X9170578Y15884141D01*
X9170577Y15884142D01*
X9170574Y15884142D01*
X9089783Y15890500D01*
X9089778Y15890500D01*
X6310222Y15890500D01*
X6310216Y15890500D01*
X6229425Y15884142D01*
X6041504Y15833788D01*
X5868161Y15745466D01*
X5716968Y15623032D01*
X5594534Y15471839D01*
X5506212Y15298496D01*
X5455858Y15110575D01*
X5449500Y15029784D01*
X5449500Y14050217D01*
X5455858Y13969424D01*
X5499623Y13806093D01*
X5497960Y13736244D01*
X5458797Y13678381D01*
X5394569Y13650877D01*
X5379848Y13650000D01*
X4874000Y13650000D01*
X4806961Y13669685D01*
X4761206Y13722489D01*
X4750000Y13774000D01*
X4750000Y14598084D01*
X4753794Y14628525D01*
X4785108Y14752179D01*
X4793572Y14854323D01*
X4805643Y14999995D01*
X4805643Y15000006D01*
X4785109Y15247813D01*
X4785107Y15247825D01*
X4753794Y15371477D01*
X4750000Y15401917D01*
X4750000Y16226000D01*
X4769685Y16293039D01*
X4822489Y16338794D01*
X4874000Y16350000D01*
X5572819Y16350000D01*
X5572819Y16350001D01*
X5616727Y16354721D01*
X2809128Y19162320D01*
X2775643Y19223643D01*
X2777528Y19250001D01*
X3428553Y19250001D01*
X3428553Y19249999D01*
X5996139Y16682413D01*
X6018598Y16742629D01*
X6024999Y16802156D01*
X6025000Y16802173D01*
X6025000Y21697828D01*
X6024999Y21697845D01*
X6018598Y21757377D01*
X5996139Y21817589D01*
X3428553Y19250001D01*
X2777528Y19250001D01*
X2780627Y19293335D01*
X2809128Y19337682D01*
X3075000Y19603553D01*
X5616727Y22145281D01*
X5572829Y22150000D01*
X577155Y22150000D01*
X517627Y22143599D01*
X517619Y22143597D01*
X417833Y22106379D01*
X348141Y22101395D01*
X286818Y22134880D01*
X253334Y22196204D01*
X250500Y22222561D01*
X250500Y26441388D01*
X250501Y26441397D01*
X250501Y26496754D01*
X250671Y26503244D01*
X253112Y26549828D01*
X256857Y26621289D01*
X1649500Y26621289D01*
X1649500Y26378712D01*
X1680214Y26145405D01*
X1681162Y26138211D01*
X1692734Y26095023D01*
X1743947Y25903896D01*
X1830306Y25695408D01*
X1836776Y25679788D01*
X1958064Y25469711D01*
X1958066Y25469708D01*
X1958067Y25469707D01*
X2105733Y25277264D01*
X2105739Y25277257D01*
X2277256Y25105740D01*
X2277262Y25105735D01*
X2469711Y24958064D01*
X2679788Y24836776D01*
X2903900Y24743946D01*
X3138211Y24681162D01*
X3318586Y24657416D01*
X3378711Y24649500D01*
X3378712Y24649500D01*
X3621289Y24649500D01*
X3669388Y24655833D01*
X3861789Y24681162D01*
X4096100Y24743946D01*
X4320212Y24836776D01*
X4530289Y24958064D01*
X4722738Y25105735D01*
X4894265Y25277262D01*
X5041936Y25469711D01*
X5163224Y25679788D01*
X5256054Y25903900D01*
X5318838Y26138211D01*
X5350500Y26378712D01*
X5350500Y26621288D01*
X5349600Y26628121D01*
X5333185Y26752807D01*
X5318838Y26861789D01*
X5256054Y27096100D01*
X5163224Y27320212D01*
X5041936Y27530289D01*
X4894265Y27722738D01*
X4894260Y27722744D01*
X4722743Y27894261D01*
X4722736Y27894267D01*
X4530293Y28041933D01*
X4530292Y28041934D01*
X4530289Y28041936D01*
X4320212Y28163224D01*
X4320205Y28163227D01*
X4096104Y28256053D01*
X3978944Y28287446D01*
X3861789Y28318838D01*
X3861788Y28318839D01*
X3861785Y28318839D01*
X3621289Y28350500D01*
X3621288Y28350500D01*
X3378712Y28350500D01*
X3378711Y28350500D01*
X3138214Y28318839D01*
X2903895Y28256053D01*
X2679794Y28163227D01*
X2679785Y28163223D01*
X2469706Y28041933D01*
X2277263Y27894267D01*
X2277256Y27894261D01*
X2105739Y27722744D01*
X2105733Y27722737D01*
X1958067Y27530294D01*
X1836777Y27320215D01*
X1836773Y27320206D01*
X1743947Y27096105D01*
X1681161Y26861786D01*
X1649500Y26621289D01*
X256857Y26621289D01*
X267962Y26833181D01*
X269319Y26846087D01*
X269738Y26848733D01*
X320494Y27169196D01*
X323187Y27181871D01*
X407864Y27497886D01*
X411872Y27510218D01*
X529110Y27815634D01*
X534376Y27827463D01*
X682913Y28118985D01*
X689379Y28130184D01*
X867565Y28404566D01*
X875179Y28415047D01*
X1081073Y28669302D01*
X1089740Y28678928D01*
X1321072Y28910260D01*
X1330698Y28918927D01*
X1584953Y29124821D01*
X1595434Y29132435D01*
X1869816Y29310621D01*
X1881015Y29317087D01*
X2172537Y29465624D01*
X2184366Y29470890D01*
X2489786Y29588130D01*
X2502114Y29592136D01*
X2818129Y29676813D01*
X2830804Y29679506D01*
X3153915Y29730682D01*
X3166819Y29732038D01*
X3326404Y29740402D01*
X3496777Y29749330D01*
X3503267Y29749500D01*
X3544170Y29749500D01*
X6926000Y29749500D01*
X6993039Y29729815D01*
G37*
%TD.AperFunction*%
%TA.AperFunction,Conductor*%
G36*
X39043039Y22020315D02*
G01*
X39088794Y21967511D01*
X39100000Y21916000D01*
X39100000Y19540000D01*
X39339730Y19540000D01*
X39339743Y19540001D01*
X39420501Y19546357D01*
X39426098Y19547318D01*
X39426185Y19546809D01*
X39450423Y19550000D01*
X40787642Y19550000D01*
X40813778Y19546560D01*
X40813823Y19546821D01*
X40819416Y19545861D01*
X40819422Y19545859D01*
X40900222Y19539500D01*
X40900230Y19539500D01*
X41879770Y19539500D01*
X41879778Y19539500D01*
X41960578Y19545859D01*
X41960584Y19545861D01*
X41966177Y19546821D01*
X41966221Y19546560D01*
X41992358Y19550000D01*
X43327642Y19550000D01*
X43353778Y19546560D01*
X43353823Y19546821D01*
X43359416Y19545861D01*
X43359422Y19545859D01*
X43440222Y19539500D01*
X43440230Y19539500D01*
X44419770Y19539500D01*
X44419778Y19539500D01*
X44500578Y19545859D01*
X44500584Y19545861D01*
X44506177Y19546821D01*
X44506221Y19546560D01*
X44532358Y19550000D01*
X45867642Y19550000D01*
X45893778Y19546560D01*
X45893823Y19546821D01*
X45899416Y19545861D01*
X45899422Y19545859D01*
X45980222Y19539500D01*
X45980230Y19539500D01*
X46959770Y19539500D01*
X46959778Y19539500D01*
X46990771Y19541940D01*
X47059146Y19527577D01*
X47108904Y19478527D01*
X47124500Y19418322D01*
X47124500Y17060452D01*
X47104815Y16993413D01*
X47088181Y16972771D01*
X38027229Y7911819D01*
X37965906Y7878334D01*
X37939548Y7875500D01*
X31774000Y7875500D01*
X31706961Y7895185D01*
X31661206Y7947989D01*
X31650000Y7999500D01*
X31650000Y9664048D01*
X31669685Y9731087D01*
X31686319Y9751729D01*
X33704275Y11769685D01*
X36135857Y14201266D01*
X36145512Y14215716D01*
X36150289Y14222863D01*
X36204307Y14303708D01*
X36204307Y14303709D01*
X36204311Y14303714D01*
X36251463Y14417548D01*
X36254465Y14432643D01*
X36259030Y14455588D01*
X36259030Y14455593D01*
X36275500Y14538393D01*
X36275500Y14661606D01*
X36275500Y17839549D01*
X36295185Y17906588D01*
X36311814Y17927225D01*
X37941662Y19557074D01*
X37941670Y19557080D01*
X37948729Y19564141D01*
X37948733Y19564142D01*
X37954955Y19570365D01*
X38016272Y19603851D01*
X38085964Y19598872D01*
X38087083Y19598449D01*
X38091688Y19596681D01*
X38279502Y19546356D01*
X38360256Y19540001D01*
X38360270Y19540000D01*
X38600000Y19540000D01*
X38600000Y21916000D01*
X38619685Y21983039D01*
X38672489Y22028794D01*
X38724000Y22040000D01*
X38976000Y22040000D01*
X39043039Y22020315D01*
G37*
%TD.AperFunction*%
%TA.AperFunction,Conductor*%
G36*
X10381087Y12480315D02*
G01*
X10401729Y12463681D01*
X10838181Y12027229D01*
X10871666Y11965906D01*
X10874500Y11939548D01*
X10874500Y10374000D01*
X10854815Y10306961D01*
X10802011Y10261206D01*
X10750500Y10250000D01*
X9953724Y10250000D01*
X9886685Y10269685D01*
X9843239Y10317705D01*
X9810540Y10381879D01*
X9805465Y10391840D01*
X9683032Y10543032D01*
X9570747Y10633959D01*
X9531038Y10691443D01*
X9528710Y10761274D01*
X9564505Y10821278D01*
X9570749Y10826688D01*
X9682675Y10917325D01*
X9805042Y11068433D01*
X9893317Y11241685D01*
X9943644Y11429503D01*
X9949999Y11510257D01*
X9950000Y11510270D01*
X9950000Y11750000D01*
X7574000Y11750000D01*
X7506961Y11769685D01*
X7461206Y11822489D01*
X7450000Y11874000D01*
X7450000Y12126000D01*
X7469685Y12193039D01*
X7522489Y12238794D01*
X7574000Y12250000D01*
X9950000Y12250000D01*
X9950000Y12376000D01*
X9969685Y12443039D01*
X10022489Y12488794D01*
X10074000Y12500000D01*
X10314048Y12500000D01*
X10381087Y12480315D01*
G37*
%TD.AperFunction*%
%TD*%
M02*
