%TF.GenerationSoftware,KiCad,Pcbnew,8.0.2*%
%TF.CreationDate,2024-05-24T16:47:28+07:00*%
%TF.ProjectId,ADC_pHAT,4144435f-7048-4415-942e-6b696361645f,rev?*%
%TF.SameCoordinates,PX5cbead0PY5705d50*%
%TF.FileFunction,Copper,L1,Top*%
%TF.FilePolarity,Positive*%
%FSLAX46Y46*%
G04 Gerber Fmt 4.6, Leading zero omitted, Abs format (unit mm)*
G04 Created by KiCad (PCBNEW 8.0.2) date 2024-05-24 16:47:28*
%MOMM*%
%LPD*%
G01*
G04 APERTURE LIST*
G04 Aperture macros list*
%AMRoundRect*
0 Rectangle with rounded corners*
0 $1 Rounding radius*
0 $2 $3 $4 $5 $6 $7 $8 $9 X,Y pos of 4 corners*
0 Add a 4 corners polygon primitive as box body*
4,1,4,$2,$3,$4,$5,$6,$7,$8,$9,$2,$3,0*
0 Add four circle primitives for the rounded corners*
1,1,$1+$1,$2,$3*
1,1,$1+$1,$4,$5*
1,1,$1+$1,$6,$7*
1,1,$1+$1,$8,$9*
0 Add four rect primitives between the rounded corners*
20,1,$1+$1,$2,$3,$4,$5,0*
20,1,$1+$1,$4,$5,$6,$7,0*
20,1,$1+$1,$6,$7,$8,$9,0*
20,1,$1+$1,$8,$9,$2,$3,0*%
G04 Aperture macros list end*
%TA.AperFunction,SMDPad,CuDef*%
%ADD10RoundRect,0.250000X-0.325000X-0.650000X0.325000X-0.650000X0.325000X0.650000X-0.325000X0.650000X0*%
%TD*%
%TA.AperFunction,SMDPad,CuDef*%
%ADD11RoundRect,0.250000X-0.650000X0.325000X-0.650000X-0.325000X0.650000X-0.325000X0.650000X0.325000X0*%
%TD*%
%TA.AperFunction,SMDPad,CuDef*%
%ADD12RoundRect,0.250000X0.650000X-0.325000X0.650000X0.325000X-0.650000X0.325000X-0.650000X-0.325000X0*%
%TD*%
%TA.AperFunction,SMDPad,CuDef*%
%ADD13RoundRect,0.250000X0.312500X0.625000X-0.312500X0.625000X-0.312500X-0.625000X0.312500X-0.625000X0*%
%TD*%
%TA.AperFunction,SMDPad,CuDef*%
%ADD14RoundRect,0.250000X-0.625000X0.312500X-0.625000X-0.312500X0.625000X-0.312500X0.625000X0.312500X0*%
%TD*%
%TA.AperFunction,ComponentPad*%
%ADD15C,2.000000*%
%TD*%
%TA.AperFunction,SMDPad,CuDef*%
%ADD16RoundRect,0.150000X-0.725000X-0.150000X0.725000X-0.150000X0.725000X0.150000X-0.725000X0.150000X0*%
%TD*%
%TA.AperFunction,SMDPad,CuDef*%
%ADD17RoundRect,0.100000X-0.637500X-0.100000X0.637500X-0.100000X0.637500X0.100000X-0.637500X0.100000X0*%
%TD*%
%TA.AperFunction,SMDPad,CuDef*%
%ADD18RoundRect,0.250000X0.325000X0.650000X-0.325000X0.650000X-0.325000X-0.650000X0.325000X-0.650000X0*%
%TD*%
%TA.AperFunction,SMDPad,CuDef*%
%ADD19RoundRect,0.250000X-0.312500X-0.625000X0.312500X-0.625000X0.312500X0.625000X-0.312500X0.625000X0*%
%TD*%
%TA.AperFunction,SMDPad,CuDef*%
%ADD20RoundRect,0.250000X0.625000X-0.312500X0.625000X0.312500X-0.625000X0.312500X-0.625000X-0.312500X0*%
%TD*%
%TA.AperFunction,SMDPad,CuDef*%
%ADD21R,2.350000X0.700000*%
%TD*%
%TA.AperFunction,SMDPad,CuDef*%
%ADD22R,4.900000X4.800000*%
%TD*%
%TA.AperFunction,SMDPad,CuDef*%
%ADD23RoundRect,0.250000X-0.700000X0.275000X-0.700000X-0.275000X0.700000X-0.275000X0.700000X0.275000X0*%
%TD*%
%TA.AperFunction,SMDPad,CuDef*%
%ADD24R,1.000000X0.400000*%
%TD*%
%TA.AperFunction,ComponentPad*%
%ADD25R,1.700000X1.700000*%
%TD*%
%TA.AperFunction,ComponentPad*%
%ADD26O,1.700000X1.700000*%
%TD*%
%TA.AperFunction,ViaPad*%
%ADD27C,0.600000*%
%TD*%
%TA.AperFunction,Conductor*%
%ADD28C,0.500000*%
%TD*%
%TA.AperFunction,Conductor*%
%ADD29C,0.250000*%
%TD*%
%TA.AperFunction,Conductor*%
%ADD30C,0.400000*%
%TD*%
G04 APERTURE END LIST*
D10*
%TO.P,C15,1*%
%TO.N,Net-(IC1-B)*%
X15775000Y20500000D03*
%TO.P,C15,2*%
%TO.N,/vo*%
X18725000Y20500000D03*
%TD*%
D11*
%TO.P,C13,1*%
%TO.N,GNDA*%
X27500000Y19475000D03*
%TO.P,C13,2*%
%TO.N,+3.3V*%
X27500000Y16525000D03*
%TD*%
D12*
%TO.P,C9,1*%
%TO.N,/VRT*%
X38750000Y19025000D03*
%TO.P,C9,2*%
%TO.N,GNDA*%
X38750000Y21975000D03*
%TD*%
%TO.P,C4,1*%
%TO.N,/VA*%
X46250000Y19025000D03*
%TO.P,C4,2*%
%TO.N,GNDA*%
X46250000Y21975000D03*
%TD*%
D13*
%TO.P,R3,1*%
%TO.N,/vo*%
X18712500Y18250000D03*
%TO.P,R3,2*%
%TO.N,Net-(IC1-B)*%
X15787500Y18250000D03*
%TD*%
D14*
%TO.P,R5,1*%
%TO.N,+3.3V*%
X31250000Y21962500D03*
%TO.P,R5,2*%
%TO.N,/VRT*%
X31250000Y19037500D03*
%TD*%
D15*
%TO.P,REF\u002A\u002A,1*%
%TO.N,N/C*%
X3300000Y15000000D03*
%TD*%
D16*
%TO.P,U4,1,FB*%
%TO.N,/vo*%
X22425000Y14405000D03*
%TO.P,U4,2,-*%
%TO.N,Net-(IC1-B)*%
X22425000Y13135000D03*
%TO.P,U4,3,+*%
%TO.N,Net-(U4-+)*%
X22425000Y11865000D03*
%TO.P,U4,4,V-*%
%TO.N,GNDA*%
X22425000Y10595000D03*
%TO.P,U4,5,V-*%
X27575000Y10595000D03*
%TO.P,U4,6*%
%TO.N,/vo*%
X27575000Y11865000D03*
%TO.P,U4,7,V+*%
%TO.N,+3.3V*%
X27575000Y13135000D03*
%TO.P,U4,8,~{SHDN}*%
%TO.N,unconnected-(U4-~{SHDN}-Pad8)*%
X27575000Y14405000D03*
%TD*%
D17*
%TO.P,U2,1,VA*%
%TO.N,/VA*%
X39637500Y15325000D03*
%TO.P,U2,2,AGND*%
%TO.N,GNDA*%
X39637500Y14675000D03*
%TO.P,U2,3,VRT*%
%TO.N,/VRT*%
X39637500Y14025000D03*
%TO.P,U2,4,VA*%
%TO.N,/VA*%
X39637500Y13375000D03*
%TO.P,U2,5,AGND*%
%TO.N,GNDA*%
X39637500Y12725000D03*
%TO.P,U2,6,VIN*%
%TO.N,/vo*%
X39637500Y12075000D03*
%TO.P,U2,7,GND*%
%TO.N,GNDA*%
X39637500Y11425000D03*
%TO.P,U2,8,AGND*%
X39637500Y10775000D03*
%TO.P,U2,9,VRM*%
%TO.N,Net-(U2-VRM)*%
X39637500Y10125000D03*
%TO.P,U2,10,VRB*%
%TO.N,GNDA*%
X39637500Y9475000D03*
%TO.P,U2,11,AGND*%
X39637500Y8825000D03*
%TO.P,U2,12,VA*%
%TO.N,/VA*%
X39637500Y8175000D03*
%TO.P,U2,13,D7*%
%TO.N,GPIO7*%
X45362500Y8175000D03*
%TO.P,U2,14,D6*%
%TO.N,GPIO6*%
X45362500Y8825000D03*
%TO.P,U2,15,D5*%
%TO.N,GPIO5*%
X45362500Y9475000D03*
%TO.P,U2,16,D4*%
%TO.N,GPIO4*%
X45362500Y10125000D03*
%TO.P,U2,17,DRGND*%
%TO.N,GNDA*%
X45362500Y10775000D03*
%TO.P,U2,18,DRVD*%
%TO.N,/DRVD*%
X45362500Y11425000D03*
%TO.P,U2,19,D3*%
%TO.N,GPIO3*%
X45362500Y12075000D03*
%TO.P,U2,20,D2*%
%TO.N,GPIO2*%
X45362500Y12725000D03*
%TO.P,U2,21,D1*%
%TO.N,GPIO1*%
X45362500Y13375000D03*
%TO.P,U2,22,D0*%
%TO.N,GPIO0*%
X45362500Y14025000D03*
%TO.P,U2,23,PD*%
%TO.N,Net-(U2-PD)*%
X45362500Y14675000D03*
%TO.P,U2,24,CLK*%
%TO.N,ADC_CLK*%
X45362500Y15325000D03*
%TD*%
D18*
%TO.P,C11,1*%
%TO.N,Net-(U2-VRM)*%
X36475000Y10250000D03*
%TO.P,C11,2*%
%TO.N,GNDA*%
X33525000Y10250000D03*
%TD*%
%TO.P,C7,1*%
%TO.N,/VA*%
X36475000Y7750000D03*
%TO.P,C7,2*%
%TO.N,GNDA*%
X33525000Y7750000D03*
%TD*%
D14*
%TO.P,R8,1*%
%TO.N,GNDA*%
X19750000Y9175000D03*
%TO.P,R8,2*%
%TO.N,Net-(R7-Pad1)*%
X19750000Y6250000D03*
%TD*%
D19*
%TO.P,R2,1*%
%TO.N,Net-(U2-PD)*%
X48537500Y15350000D03*
%TO.P,R2,2*%
%TO.N,GNDA*%
X51462500Y15350000D03*
%TD*%
D12*
%TO.P,C2,1*%
%TO.N,/DRVD*%
X57000000Y19025000D03*
%TO.P,C2,2*%
%TO.N,GNDA*%
X57000000Y21975000D03*
%TD*%
D10*
%TO.P,C8,1*%
%TO.N,Net-(J1-In)*%
X8275000Y15000000D03*
%TO.P,C8,2*%
%TO.N,/vs*%
X11225000Y15000000D03*
%TD*%
D20*
%TO.P,R7,1*%
%TO.N,Net-(R7-Pad1)*%
X17250000Y6250000D03*
%TO.P,R7,2*%
%TO.N,Net-(U4-+)*%
X17250000Y9175000D03*
%TD*%
D18*
%TO.P,C6,1*%
%TO.N,/VA*%
X36475000Y13750000D03*
%TO.P,C6,2*%
%TO.N,GNDA*%
X33525000Y13750000D03*
%TD*%
D13*
%TO.P,R9,1*%
%TO.N,Net-(IC1-B)*%
X18962500Y13500000D03*
%TO.P,R9,2*%
%TO.N,/vs*%
X16037500Y13500000D03*
%TD*%
D14*
%TO.P,R4,1*%
%TO.N,Net-(U4-+)*%
X14750000Y9175000D03*
%TO.P,R4,2*%
%TO.N,Net-(R1-Pad1)*%
X14750000Y6250000D03*
%TD*%
D21*
%TO.P,J1,1,In*%
%TO.N,Net-(J1-In)*%
X1500000Y15000000D03*
D22*
%TO.P,J1,2,Ext*%
%TO.N,GNDA*%
X3075000Y19250000D03*
X3075000Y10750000D03*
%TD*%
D12*
%TO.P,C1,1*%
%TO.N,/DRVD*%
X54250000Y19025000D03*
%TO.P,C1,2*%
%TO.N,GNDA*%
X54250000Y21975000D03*
%TD*%
D14*
%TO.P,R6,1*%
%TO.N,GNDA*%
X33750000Y21962500D03*
%TO.P,R6,2*%
%TO.N,/VRT*%
X33750000Y19037500D03*
%TD*%
D23*
%TO.P,FB2,1*%
%TO.N,+3.3V*%
X49000000Y22075000D03*
%TO.P,FB2,2*%
%TO.N,/VA*%
X49000000Y18925000D03*
%TD*%
D12*
%TO.P,C10,1*%
%TO.N,/VRT*%
X36250000Y19025000D03*
%TO.P,C10,2*%
%TO.N,GNDA*%
X36250000Y21975000D03*
%TD*%
%TO.P,C5,1*%
%TO.N,/VA*%
X41250000Y19025000D03*
%TO.P,C5,2*%
%TO.N,GNDA*%
X41250000Y21975000D03*
%TD*%
D23*
%TO.P,FB1,1*%
%TO.N,+3.3V*%
X51750000Y22075000D03*
%TO.P,FB1,2*%
%TO.N,/DRVD*%
X51750000Y18925000D03*
%TD*%
D20*
%TO.P,R1,1*%
%TO.N,Net-(R1-Pad1)*%
X12250000Y6250000D03*
%TO.P,R1,2*%
%TO.N,GPIO20*%
X12250000Y9175000D03*
%TD*%
D10*
%TO.P,C12,1*%
%TO.N,Net-(IC1-B)*%
X15775000Y16000000D03*
%TO.P,C12,2*%
%TO.N,/vo*%
X18725000Y16000000D03*
%TD*%
D11*
%TO.P,C14,1*%
%TO.N,GNDA*%
X31250000Y17225000D03*
%TO.P,C14,2*%
%TO.N,+3.3V*%
X31250000Y14275000D03*
%TD*%
D12*
%TO.P,C3,1*%
%TO.N,/VA*%
X43750000Y19025000D03*
%TO.P,C3,2*%
%TO.N,GNDA*%
X43750000Y21975000D03*
%TD*%
D24*
%TO.P,IC1,1,VDD*%
%TO.N,+3.3V*%
X24500000Y15600000D03*
%TO.P,IC1,2,VSS*%
%TO.N,GNDA*%
X24500000Y16250000D03*
%TO.P,IC1,3,SCL*%
%TO.N,SCL*%
X24500000Y16900000D03*
%TO.P,IC1,4,SDA*%
%TO.N,SDA*%
X22500000Y16900000D03*
%TO.P,IC1,5,B*%
%TO.N,Net-(IC1-B)*%
X22500000Y16250000D03*
%TO.P,IC1,6,W*%
%TO.N,/vo*%
X22500000Y15600000D03*
%TD*%
D25*
%TO.P,J2,1,Pin_1*%
%TO.N,unconnected-(J2-Pin_1-Pad1)*%
X8400000Y25460000D03*
D26*
%TO.P,J2,2,Pin_2*%
%TO.N,+5V*%
X8400000Y28000000D03*
%TO.P,J2,3,Pin_3*%
%TO.N,SDA*%
X10940000Y25460000D03*
%TO.P,J2,4,Pin_4*%
%TO.N,+5V*%
X10940000Y28000000D03*
%TO.P,J2,5,Pin_5*%
%TO.N,SCL*%
X13480000Y25460000D03*
%TO.P,J2,6,Pin_6*%
%TO.N,GNDA*%
X13480000Y28000000D03*
%TO.P,J2,7,Pin_7*%
%TO.N,unconnected-(J2-Pin_7-Pad7)*%
X16020000Y25460000D03*
%TO.P,J2,8,Pin_8*%
%TO.N,TX*%
X16020000Y28000000D03*
%TO.P,J2,9,Pin_9*%
%TO.N,GNDA*%
X18560000Y25460000D03*
%TO.P,J2,10,Pin_10*%
%TO.N,RX*%
X18560000Y28000000D03*
%TO.P,J2,11,Pin_11*%
%TO.N,GPIO21*%
X21100000Y25460000D03*
%TO.P,J2,12,Pin_12*%
%TO.N,unconnected-(J2-Pin_12-Pad12)*%
X21100000Y28000000D03*
%TO.P,J2,13,Pin_13*%
%TO.N,unconnected-(J2-Pin_13-Pad13)*%
X23640000Y25460000D03*
%TO.P,J2,14,Pin_14*%
%TO.N,GNDA*%
X23640000Y28000000D03*
%TO.P,J2,15,Pin_15*%
%TO.N,GPIO22*%
X26180000Y25460000D03*
%TO.P,J2,16,Pin_16*%
%TO.N,unconnected-(J2-Pin_16-Pad16)*%
X26180000Y28000000D03*
%TO.P,J2,17,Pin_17*%
%TO.N,GPIO26_ADC0*%
X28720000Y25460000D03*
%TO.P,J2,18,Pin_18*%
%TO.N,unconnected-(J2-Pin_18-Pad18)*%
X28720000Y28000000D03*
%TO.P,J2,19,Pin_19*%
%TO.N,SPI_MO*%
X31260000Y25460000D03*
%TO.P,J2,20,Pin_20*%
%TO.N,unconnected-(J2-Pin_20-Pad20)*%
X31260000Y28000000D03*
%TO.P,J2,21,Pin_21*%
%TO.N,SPI_MI*%
X33800000Y25460000D03*
%TO.P,J2,22,Pin_22*%
%TO.N,unconnected-(J2-Pin_22-Pad22)*%
X33800000Y28000000D03*
%TO.P,J2,23,Pin_23*%
%TO.N,SPI_CLK*%
X36340000Y25460000D03*
%TO.P,J2,24,Pin_24*%
%TO.N,SPI_CS*%
X36340000Y28000000D03*
%TO.P,J2,25,Pin_25*%
%TO.N,unconnected-(J2-Pin_25-Pad25)*%
X38880000Y25460000D03*
%TO.P,J2,26,Pin_26*%
%TO.N,unconnected-(J2-Pin_26-Pad26)*%
X38880000Y28000000D03*
%TO.P,J2,27,Pin_27*%
%TO.N,ADC_VREF*%
X41420000Y25460000D03*
%TO.P,J2,28,Pin_28*%
%TO.N,unconnected-(J2-Pin_28-Pad28)*%
X41420000Y28000000D03*
%TO.P,J2,29,Pin_29*%
%TO.N,unconnected-(J2-Pin_29-Pad29)*%
X43960000Y25460000D03*
%TO.P,J2,30,Pin_30*%
%TO.N,GNDA*%
X43960000Y28000000D03*
%TO.P,J2,31,Pin_31*%
%TO.N,unconnected-(J2-Pin_31-Pad31)*%
X46500000Y25460000D03*
%TO.P,J2,32,Pin_32*%
%TO.N,GPIO24*%
X46500000Y28000000D03*
%TO.P,J2,33,Pin_33*%
%TO.N,unconnected-(J2-Pin_33-Pad33)*%
X49040000Y25460000D03*
%TO.P,J2,34,Pin_34*%
%TO.N,GNDA*%
X49040000Y28000000D03*
%TO.P,J2,35,Pin_35*%
%TO.N,unconnected-(J2-Pin_35-Pad35)*%
X51580000Y25460000D03*
%TO.P,J2,36,Pin_36*%
%TO.N,GPIO25*%
X51580000Y28000000D03*
%TO.P,J2,37,Pin_37*%
%TO.N,unconnected-(J2-Pin_37-Pad37)*%
X54120000Y25460000D03*
%TO.P,J2,38,Pin_38*%
%TO.N,unconnected-(J2-Pin_38-Pad38)*%
X54120000Y28000000D03*
%TO.P,J2,39,Pin_39*%
%TO.N,GNDA*%
X56660000Y25460000D03*
%TO.P,J2,40,Pin_40*%
%TO.N,unconnected-(J2-Pin_40-Pad40)*%
X56660000Y28000000D03*
%TD*%
D27*
%TO.N,GNDA*%
X58250000Y16750000D03*
X56750000Y16750000D03*
X55000000Y16750000D03*
X59250000Y750000D03*
X64000000Y5250000D03*
X59250000Y5250000D03*
X61250000Y18750000D03*
X61250000Y22250000D03*
X59000000Y22250000D03*
X64250000Y21500000D03*
X64250000Y18750000D03*
X64250000Y24000000D03*
X30300000Y4750000D03*
X12500000Y11000000D03*
X5500000Y7500000D03*
X3750000Y7500000D03*
X2250000Y7500000D03*
X750000Y7500000D03*
X5500000Y22750000D03*
X3750000Y22750000D03*
X2250000Y22750000D03*
X750000Y22750000D03*
X24500000Y18000000D03*
X24000000Y19000000D03*
X22750000Y19000000D03*
X24500000Y9000000D03*
X24500000Y10250000D03*
X24500000Y11500000D03*
X38750000Y21975000D03*
X40250000Y7050000D03*
X24150000Y12450000D03*
X14200000Y12650000D03*
X13250000Y13250000D03*
X12500000Y13750000D03*
X14450000Y14950000D03*
%TO.N,SDA*%
X14250000Y18750000D03*
%TO.N,+3.3V*%
X45450000Y23850000D03*
%TO.N,SCL*%
X14250000Y17750000D03*
%TO.N,GNDA*%
X5250000Y16000000D03*
X32000000Y9500000D03*
X12000000Y17250000D03*
X10500000Y17250000D03*
X25750000Y19000000D03*
X43600000Y9175000D03*
X5250000Y14000000D03*
X41050000Y12450000D03*
X57100000Y7100000D03*
X16500000Y10750000D03*
X12250000Y18000000D03*
X18250000Y10750000D03*
X27250000Y4250000D03*
X19750000Y10750000D03*
X36750000Y17225000D03*
X38150000Y11100000D03*
X32000000Y8250000D03*
X53000000Y16500000D03*
X22425000Y8750000D03*
X10250000Y10750000D03*
X13500000Y4750000D03*
X9000000Y17250000D03*
X41150000Y14325000D03*
X7500000Y17250000D03*
X12750000Y16000000D03*
X41050000Y11425000D03*
X43625000Y10375000D03*
%TO.N,SPI_CLK*%
X30000000Y8750000D03*
X30000000Y6000000D03*
%TO.N,TX*%
X9750000Y19500000D03*
%TO.N,ADC_CLK*%
X57750000Y4500000D03*
%TO.N,GPIO2*%
X47950000Y4350000D03*
%TO.N,GPIO7*%
X32200000Y4150000D03*
%TO.N,GPIO5*%
X37500000Y4500000D03*
%TO.N,GPIO3*%
X45250000Y4500000D03*
%TO.N,GPIO1*%
X51025000Y5025000D03*
%TO.N,GPIO6*%
X35000000Y4500000D03*
%TO.N,GPIO0*%
X54950000Y5050000D03*
%TO.N,GPIO4*%
X42750000Y4500000D03*
%TO.N,RX*%
X12000000Y19500000D03*
%TO.N,SPI_CS*%
X22250000Y6000000D03*
X25975000Y8000000D03*
%TO.N,GPIO20*%
X13875000Y10875000D03*
%TO.N,SPI_MO*%
X28425000Y6000000D03*
X28500000Y9500000D03*
%TO.N,SPI_MI*%
X24500000Y6000000D03*
X26250000Y8750000D03*
%TD*%
D28*
%TO.N,GNDA*%
X5250000Y23637500D02*
X5250000Y19362500D01*
X7337500Y21000000D02*
X3062500Y21000000D01*
X7037500Y19950000D02*
X2762500Y19950000D01*
X7537500Y18900000D02*
X3262500Y18900000D01*
X7587500Y17750000D02*
X3312500Y17750000D01*
X7737500Y12850000D02*
X3462500Y12850000D01*
X7937500Y11700000D02*
X3662500Y11700000D01*
X7837500Y10700000D02*
X3562500Y10700000D01*
X7937500Y9750000D02*
X3662500Y9750000D01*
X7887500Y8800000D02*
X3612500Y8800000D01*
X5050000Y5812500D02*
X5050000Y10087500D01*
X3950000Y5862500D02*
X3950000Y10137500D01*
X2950000Y5812500D02*
X2950000Y10087500D01*
X1950000Y5962500D02*
X1950000Y10237500D01*
X900000Y6012500D02*
X900000Y10287500D01*
X4150000Y18762500D02*
X4150000Y23037500D01*
X3100000Y18812500D02*
X3100000Y23087500D01*
X2000000Y18812500D02*
X2000000Y23087500D01*
X3075000Y23525000D02*
X3150000Y23600000D01*
X900000Y18812500D02*
X900000Y23087500D01*
D29*
%TO.N,GPIO7*%
X34000000Y3963969D02*
X34000000Y4198969D01*
X34421826Y4971826D02*
X35450000Y6000000D01*
X41775000Y6000000D02*
X43950000Y8175000D01*
X34000000Y4550000D02*
X34421826Y4971826D01*
X33760000Y2638969D02*
X33426242Y2638969D01*
X35450000Y6000000D02*
X41775000Y6000000D01*
X34250000Y3363969D02*
X34250000Y3713969D01*
X33650000Y1750000D02*
X34000000Y2100000D01*
X33760000Y3238969D02*
X34000000Y3238969D01*
X34000000Y4198969D02*
X34000000Y4550000D01*
X33426242Y3238969D02*
X33760000Y3238969D01*
X34000000Y2100000D02*
X34000000Y2398969D01*
X32650000Y1750000D02*
X33650000Y1750000D01*
X34000000Y3238969D02*
X34125000Y3238969D01*
X32200000Y2200000D02*
X32650000Y1750000D01*
X43950000Y8175000D02*
X45362500Y8175000D01*
X32200000Y4150000D02*
X32200000Y2200000D01*
X33186242Y2878969D02*
X33186242Y2998969D01*
X34125000Y3838969D02*
G75*
G02*
X33999969Y3963969I0J125031D01*
G01*
X34000000Y2398969D02*
G75*
G03*
X33760000Y2639000I-240000J31D01*
G01*
X34250000Y3713969D02*
G75*
G03*
X34125000Y3839000I-125000J31D01*
G01*
X34125000Y3238969D02*
G75*
G03*
X34250031Y3363969I0J125031D01*
G01*
X33426242Y2638969D02*
G75*
G02*
X33186169Y2878969I-42J240031D01*
G01*
X33186242Y2998969D02*
G75*
G02*
X33426242Y3238958I239958J31D01*
G01*
%TO.N,GPIO6*%
X47000000Y8500000D02*
X46675000Y8825000D01*
X46675000Y8825000D02*
X45362500Y8825000D01*
X46425000Y6675000D02*
X47000000Y7250000D01*
X47000000Y7250000D02*
X47000000Y8500000D01*
X43175000Y6675000D02*
X46425000Y6675000D01*
X36550000Y2500000D02*
X36550000Y4750000D01*
X36150000Y2100000D02*
X36550000Y2500000D01*
X41750000Y5250000D02*
X43175000Y6675000D01*
X37050000Y5250000D02*
X41750000Y5250000D01*
X35550000Y2100000D02*
X36150000Y2100000D01*
X36550000Y4750000D02*
X37050000Y5250000D01*
X35000000Y2650000D02*
X35550000Y2100000D01*
X35000000Y4500000D02*
X35000000Y2650000D01*
%TO.N,GPIO4*%
X49825000Y10125000D02*
X45362500Y10125000D01*
X50450000Y7650000D02*
X50450000Y9500000D01*
X48475000Y5675000D02*
X50450000Y7650000D01*
X45325000Y5675000D02*
X48475000Y5675000D01*
X43150000Y2200000D02*
X44000000Y2200000D01*
X44000000Y2200000D02*
X44450000Y2650000D01*
X50450000Y9500000D02*
X49825000Y10125000D01*
X42750000Y2600000D02*
X43150000Y2200000D01*
X44450000Y4800000D02*
X45325000Y5675000D01*
X44450000Y2650000D02*
X44450000Y4800000D01*
X42750000Y4500000D02*
X42750000Y2600000D01*
%TO.N,GPIO5*%
X47775000Y9475000D02*
X45362500Y9475000D01*
X47425000Y6175000D02*
X48250000Y7000000D01*
X43400000Y6175000D02*
X47425000Y6175000D01*
X38975000Y1750000D02*
X43400000Y6175000D01*
X37850000Y1750000D02*
X38975000Y1750000D01*
X48250000Y9000000D02*
X47775000Y9475000D01*
X37500000Y2100000D02*
X37850000Y1750000D01*
X37500000Y4500000D02*
X37500000Y2100000D01*
X48250000Y7000000D02*
X48250000Y9000000D01*
%TO.N,GPIO3*%
X47375000Y11000000D02*
X46300000Y12075000D01*
X50250000Y11000000D02*
X47375000Y11000000D01*
X51000000Y10250000D02*
X50250000Y11000000D01*
X48775000Y5175000D02*
X51000000Y7400000D01*
X51000000Y7400000D02*
X51000000Y10250000D01*
X47725000Y5175000D02*
X48775000Y5175000D01*
X46550000Y2000000D02*
X47150000Y2600000D01*
X47150000Y2600000D02*
X47150000Y4600000D01*
X47150000Y4600000D02*
X47725000Y5175000D01*
X45850000Y2000000D02*
X46550000Y2000000D01*
X45250000Y2600000D02*
X45850000Y2000000D01*
X45250000Y4500000D02*
X45250000Y2600000D01*
X46300000Y12075000D02*
X45362500Y12075000D01*
%TO.N,GPIO2*%
X46400000Y12725000D02*
X45362500Y12725000D01*
X47625000Y11500000D02*
X46400000Y12725000D01*
X50300000Y5625000D02*
X51750000Y7075000D01*
X49650000Y2100000D02*
X50300000Y2750000D01*
X51750000Y10900000D02*
X51150000Y11500000D01*
X48500000Y2100000D02*
X49650000Y2100000D01*
X50300000Y2750000D02*
X50300000Y5625000D01*
X51750000Y7075000D02*
X51750000Y10900000D01*
X47950000Y2650000D02*
X48500000Y2100000D01*
X47950000Y4350000D02*
X47950000Y2650000D01*
X51150000Y11500000D02*
X47625000Y11500000D01*
%TO.N,GPIO1*%
X51450000Y12000000D02*
X48000000Y12000000D01*
X53300000Y7400000D02*
X52250000Y8450000D01*
X51550000Y3200000D02*
X52600000Y3200000D01*
X51025000Y5025000D02*
X51025000Y3725000D01*
X53300000Y3900000D02*
X53300000Y7400000D01*
X46625000Y13375000D02*
X45362500Y13375000D01*
X52250000Y8450000D02*
X52250000Y11200000D01*
X52250000Y11200000D02*
X51450000Y12000000D01*
X51025000Y3725000D02*
X51550000Y3200000D01*
X52600000Y3200000D02*
X53300000Y3900000D01*
X48000000Y12000000D02*
X46625000Y13375000D01*
%TO.N,GPIO0*%
X54710000Y7984231D02*
G75*
G03*
X54949969Y8224231I0J239969D01*
G01*
X54422889Y7384231D02*
G75*
G02*
X54182931Y7624231I11J239969D01*
G01*
X54950000Y5944231D02*
G75*
G03*
X54710000Y6184200I-240000J-31D01*
G01*
X54422911Y6184231D02*
G75*
G02*
X54182931Y6424231I-11J239969D01*
G01*
X54182911Y6544231D02*
G75*
G02*
X54422911Y6784189I239989J-31D01*
G01*
X55477111Y6784231D02*
G75*
G03*
X55717069Y7024231I-11J239969D01*
G01*
X55717111Y7144231D02*
G75*
G03*
X55477111Y7384211I-240011J-31D01*
G01*
X54182889Y7744231D02*
G75*
G02*
X54422889Y7984211I240011J-31D01*
G01*
X54950000Y8344231D02*
X54950000Y8934159D01*
X54182911Y6424231D02*
X54182911Y6544231D01*
X54422889Y7984231D02*
X54710000Y7984231D01*
X54950000Y10300000D02*
X52750000Y12500000D01*
X55717111Y7024231D02*
X55717111Y7144231D01*
X54950000Y7384231D02*
X54710000Y7384231D01*
X46725000Y14025000D02*
X45362500Y14025000D01*
X48250000Y12500000D02*
X46725000Y14025000D01*
X54950000Y8934159D02*
X54950000Y10300000D01*
X54950000Y8224231D02*
X54950000Y8344231D01*
X52750000Y12500000D02*
X48250000Y12500000D01*
X54710000Y7384231D02*
X54422889Y7384231D01*
X55477111Y7384231D02*
X54950000Y7384231D01*
X54950000Y6784231D02*
X55477111Y6784231D01*
X54182889Y7624231D02*
X54182889Y7744231D01*
X54710000Y6784231D02*
X54950000Y6784231D01*
X54422911Y6784231D02*
X54710000Y6784231D01*
X54950000Y5050000D02*
X54950000Y5944231D01*
X54710000Y6184231D02*
X54422911Y6184231D01*
%TO.N,ADC_CLK*%
X58100000Y4850000D02*
X57750000Y4500000D01*
X58100000Y9950000D02*
X58100000Y4850000D01*
X55050000Y13000000D02*
X58100000Y9950000D01*
X48500000Y13000000D02*
X55050000Y13000000D01*
X45362500Y15325000D02*
X46175000Y15325000D01*
X46175000Y15325000D02*
X48500000Y13000000D01*
D28*
%TO.N,GNDA*%
X52612500Y16500000D02*
X53000000Y16500000D01*
X51462500Y15350000D02*
X52612500Y16500000D01*
D29*
%TO.N,Net-(U2-PD)*%
X44325000Y14675000D02*
X45362500Y14675000D01*
X44000000Y15000000D02*
X44325000Y14675000D01*
X44000000Y15750000D02*
X44000000Y15000000D01*
X44250000Y16000000D02*
X44000000Y15750000D01*
X47887500Y16000000D02*
X44250000Y16000000D01*
X48537500Y15350000D02*
X47887500Y16000000D01*
D28*
%TO.N,GNDA*%
X38750000Y21975000D02*
X38737500Y21962500D01*
X41237500Y21962500D02*
X41250000Y21975000D01*
X38762500Y21962500D02*
X41237500Y21962500D01*
X38737500Y21962500D02*
X33750000Y21962500D01*
X38750000Y21975000D02*
X38762500Y21962500D01*
%TO.N,+3.3V*%
X33137500Y23850000D02*
X31250000Y21962500D01*
X48925000Y22075000D02*
X47150000Y23850000D01*
X49000000Y22075000D02*
X48925000Y22075000D01*
X47150000Y23850000D02*
X33137500Y23850000D01*
D29*
%TO.N,/vs*%
X13292893Y14707107D02*
G75*
G03*
X12585786Y14999990I-707093J-707107D01*
G01*
X14914214Y13500000D02*
G75*
G02*
X14207100Y13792886I-14J1000000D01*
G01*
X13292893Y14707107D02*
X14207107Y13792893D01*
X11225000Y15000000D02*
X12585786Y15000000D01*
X14914214Y13500000D02*
X16037500Y13500000D01*
%TO.N,Net-(U2-VRM)*%
X39637500Y10125000D02*
X36600000Y10125000D01*
X36600000Y10125000D02*
X36475000Y10250000D01*
%TO.N,/vo*%
X22425000Y14405000D02*
X20320000Y14405000D01*
X18712500Y18250000D02*
X18725000Y18237500D01*
X20900000Y15600000D02*
X20250000Y16250000D01*
X27575000Y11865000D02*
X27710000Y12000000D01*
X20250000Y16250000D02*
X20250000Y18975000D01*
X26260000Y11865000D02*
X23720000Y14405000D01*
X18725000Y18262500D02*
X18712500Y18250000D01*
X23720000Y14405000D02*
X22425000Y14405000D01*
X27575000Y11865000D02*
X26260000Y11865000D01*
X20250000Y18975000D02*
X18725000Y20500000D01*
X27710000Y12000000D02*
X39562500Y12000000D01*
X18725000Y18237500D02*
X18725000Y16000000D01*
X39562500Y12000000D02*
X39637500Y12075000D01*
X20320000Y14405000D02*
X18725000Y16000000D01*
X22500000Y15600000D02*
X20900000Y15600000D01*
X18725000Y20500000D02*
X18725000Y18262500D01*
%TO.N,SDA*%
X15250000Y22500000D02*
X20275000Y22500000D01*
X21250000Y21525000D02*
X21250000Y17000000D01*
X21250000Y17000000D02*
X21350000Y16900000D01*
X14250000Y18750000D02*
X14250000Y21500000D01*
X20275000Y22500000D02*
X21250000Y21525000D01*
X21350000Y16900000D02*
X22500000Y16900000D01*
X14250000Y21500000D02*
X15250000Y22500000D01*
D28*
%TO.N,+3.3V*%
X29135000Y13635000D02*
X29135000Y13135000D01*
X49000000Y22075000D02*
X51750000Y22075000D01*
X29500000Y14275000D02*
X29375000Y14150000D01*
X30962500Y21962500D02*
X31250000Y21962500D01*
X29135000Y13135000D02*
X29250000Y13250000D01*
X27500000Y16525000D02*
X27525000Y16500000D01*
X31250000Y14275000D02*
X29500000Y14275000D01*
X27525000Y16500000D02*
X29250000Y16500000D01*
X31250000Y14275000D02*
X31025000Y14275000D01*
X29375000Y14150000D02*
X29375000Y13875000D01*
X29375000Y13875000D02*
X29135000Y13635000D01*
D30*
X24500000Y15600000D02*
X26575000Y15600000D01*
D28*
X29250000Y20250000D02*
X30962500Y21962500D01*
D30*
X26575000Y15600000D02*
X27500000Y16525000D01*
D28*
X29250000Y13250000D02*
X29250000Y20250000D01*
X29135000Y13135000D02*
X29375000Y13375000D01*
X29375000Y13375000D02*
X29375000Y13875000D01*
X27575000Y13135000D02*
X29135000Y13135000D01*
D29*
%TO.N,SCL*%
X23850000Y16900000D02*
X23375000Y17375000D01*
X21750000Y21750000D02*
X20500000Y23000000D01*
X20500000Y23000000D02*
X15000000Y23000000D01*
X22375000Y17375000D02*
X21750000Y18000000D01*
X15000000Y23000000D02*
X13500000Y21500000D01*
X24500000Y16900000D02*
X23850000Y16900000D01*
X13500000Y18500000D02*
X14250000Y17750000D01*
X13500000Y21500000D02*
X13500000Y18500000D01*
X23375000Y17375000D02*
X22375000Y17375000D01*
X21750000Y18000000D02*
X21750000Y21750000D01*
D30*
%TO.N,GNDA*%
X39637500Y12725000D02*
X40800000Y12725000D01*
X41050000Y12475000D02*
X41050000Y12450000D01*
D28*
X54250000Y21975000D02*
X57000000Y21975000D01*
X22425000Y8750000D02*
X22425000Y10595000D01*
X22095000Y10595000D02*
X22425000Y10595000D01*
D30*
X41050000Y12450000D02*
X41050000Y11425000D01*
X39637500Y10775000D02*
X41025000Y10775000D01*
D28*
X56660000Y25460000D02*
X56660000Y22315000D01*
X36750000Y17225000D02*
X33025000Y17225000D01*
D30*
X41050000Y11425000D02*
X41050000Y10800000D01*
X40800000Y12725000D02*
X41050000Y12475000D01*
D28*
X33025000Y17225000D02*
X31250000Y17225000D01*
D30*
X40850000Y9475000D02*
X41050000Y9675000D01*
X25750000Y19475000D02*
X27500000Y19475000D01*
D28*
X43625000Y10375000D02*
X44025000Y10775000D01*
D30*
X25750000Y16500000D02*
X25750000Y19475000D01*
D28*
X33525000Y13750000D02*
X33525000Y17000000D01*
D30*
X39637500Y10775000D02*
X38475000Y10775000D01*
D28*
X56660000Y22315000D02*
X57000000Y21975000D01*
D30*
X39637500Y11425000D02*
X41050000Y11425000D01*
X39637500Y14675000D02*
X40800000Y14675000D01*
D28*
X46250000Y21975000D02*
X43750000Y21975000D01*
X41250000Y21975000D02*
X43750000Y21975000D01*
X33750000Y17225000D02*
X33025000Y17225000D01*
X39675000Y8987500D02*
X39675000Y9362500D01*
X33525000Y10250000D02*
X33525000Y7750000D01*
D30*
X40800000Y14675000D02*
X41150000Y14325000D01*
X25500000Y16250000D02*
X25750000Y16500000D01*
X39637500Y11425000D02*
X38475000Y11425000D01*
D28*
X44025000Y10775000D02*
X45362500Y10775000D01*
D30*
X38475000Y10775000D02*
X38150000Y11100000D01*
X39637500Y9475000D02*
X40850000Y9475000D01*
X38475000Y11425000D02*
X38150000Y11100000D01*
D28*
X33525000Y17000000D02*
X33750000Y17225000D01*
D30*
X41050000Y9675000D02*
X41050000Y11425000D01*
X24500000Y16250000D02*
X25500000Y16250000D01*
D29*
%TO.N,SPI_CLK*%
X30000000Y6000000D02*
X30000000Y8750000D01*
%TO.N,TX*%
X14705000Y24455000D02*
X14705000Y26685000D01*
X9750000Y19500000D02*
X14705000Y24455000D01*
X14705000Y26685000D02*
X16020000Y28000000D01*
%TO.N,Net-(R1-Pad1)*%
X14750000Y6250000D02*
X12250000Y6250000D01*
%TO.N,Net-(R7-Pad1)*%
X17250000Y6250000D02*
X19750000Y6250000D01*
%TO.N,Net-(J1-In)*%
X1500000Y15000000D02*
X8275000Y15000000D01*
%TO.N,RX*%
X15485000Y24235000D02*
X16735000Y24235000D01*
X17250000Y26690000D02*
X18560000Y28000000D01*
X17250000Y24750000D02*
X17250000Y26690000D01*
X12000000Y19500000D02*
X12000000Y20750000D01*
X16735000Y24235000D02*
X17250000Y24750000D01*
X12000000Y20750000D02*
X15485000Y24235000D01*
D28*
%TO.N,/DRVD*%
X54150000Y18925000D02*
X54250000Y19025000D01*
X51750000Y18925000D02*
X54150000Y18925000D01*
X44000000Y17000000D02*
X51000000Y17000000D01*
X43500000Y12250000D02*
X43000000Y12750000D01*
D30*
X43500000Y12250000D02*
X44325000Y11425000D01*
D28*
X51000000Y17000000D02*
X51750000Y17750000D01*
X54250000Y19025000D02*
X57000000Y19025000D01*
D30*
X44325000Y11425000D02*
X45362500Y11425000D01*
D28*
X43000000Y12750000D02*
X43000000Y16000000D01*
X51750000Y17750000D02*
X51750000Y18925000D01*
X43000000Y16000000D02*
X44000000Y17000000D01*
D30*
%TO.N,/VA*%
X40550000Y8175000D02*
X39637500Y8175000D01*
X39637500Y8175000D02*
X36900000Y8175000D01*
D28*
X36900000Y8175000D02*
X36475000Y7750000D01*
D30*
X39637500Y13375000D02*
X41875000Y13375000D01*
D28*
X49000000Y18925000D02*
X49000000Y19025000D01*
D30*
X39637500Y15325000D02*
X42000000Y15325000D01*
D28*
X42000000Y9000000D02*
X42000000Y18275000D01*
D30*
X41875000Y13375000D02*
X42000000Y13250000D01*
D28*
X49000000Y19025000D02*
X46250000Y19025000D01*
D30*
X39637500Y13375000D02*
X36850000Y13375000D01*
D28*
X42000000Y18275000D02*
X41250000Y19025000D01*
X46250000Y19025000D02*
X41250000Y19025000D01*
X36850000Y13375000D02*
X36475000Y13750000D01*
D30*
X40550000Y8175000D02*
X41175000Y8175000D01*
X41175000Y8175000D02*
X42000000Y9000000D01*
%TO.N,/VRT*%
X37750000Y17000000D02*
X38750000Y18000000D01*
X38225000Y14025000D02*
X37750000Y14500000D01*
D29*
X38737500Y19037500D02*
X38750000Y19025000D01*
D30*
X38750000Y18000000D02*
X38750000Y19025000D01*
X39637500Y14025000D02*
X38225000Y14025000D01*
X37750000Y14500000D02*
X37750000Y17000000D01*
D28*
X31250000Y19037500D02*
X38737500Y19037500D01*
D29*
%TO.N,SPI_CS*%
X24250000Y8000000D02*
X25975000Y8000000D01*
X22250000Y6000000D02*
X24250000Y8000000D01*
%TO.N,GPIO20*%
X13875000Y10875000D02*
X12250000Y9250000D01*
X12250000Y9250000D02*
X12250000Y9175000D01*
%TO.N,SPI_MO*%
X28425000Y9425000D02*
X28425000Y6000000D01*
X28500000Y9500000D02*
X28425000Y9425000D01*
%TO.N,SPI_MI*%
X26250000Y8750000D02*
X26750000Y8250000D01*
X26250000Y7000000D02*
X24750000Y7000000D01*
X24750000Y7000000D02*
X24500000Y6750000D01*
X24500000Y6750000D02*
X24500000Y6000000D01*
X26750000Y7500000D02*
X26250000Y7000000D01*
X26750000Y8250000D02*
X26750000Y7500000D01*
%TO.N,Net-(U4-+)*%
X14750000Y10500000D02*
X14750000Y9175000D01*
X16115000Y11865000D02*
X14750000Y10500000D01*
X22425000Y11865000D02*
X16115000Y11865000D01*
X14750000Y9175000D02*
X17250000Y9175000D01*
%TO.N,Net-(IC1-B)*%
X15775000Y20500000D02*
X15787500Y20487500D01*
X22425000Y13135000D02*
X22310000Y13250000D01*
X17275000Y22000000D02*
X15775000Y20500000D01*
X20750000Y21250000D02*
X20000000Y22000000D01*
X15787500Y18250000D02*
X15775000Y18237500D01*
X20000000Y22000000D02*
X17275000Y22000000D01*
X21000000Y16250000D02*
X20750000Y16500000D01*
X22310000Y13250000D02*
X19212500Y13250000D01*
X18750000Y13500000D02*
X16250000Y16000000D01*
X19212500Y13250000D02*
X18962500Y13500000D01*
X18962500Y13500000D02*
X18750000Y13500000D01*
X15787500Y20487500D02*
X15787500Y18250000D01*
X20750000Y16500000D02*
X20750000Y21250000D01*
X22500000Y16250000D02*
X21000000Y16250000D01*
X16250000Y16000000D02*
X15775000Y16000000D01*
X15775000Y18237500D02*
X15775000Y16000000D01*
%TD*%
%TA.AperFunction,Conductor*%
%TO.N,GNDA*%
G36*
X61445839Y29749499D02*
G01*
X61455829Y29749499D01*
X61496753Y29749499D01*
X61503242Y29749330D01*
X61833177Y29732038D01*
X61846085Y29730681D01*
X62169190Y29679507D01*
X62181873Y29676812D01*
X62497880Y29592138D01*
X62510218Y29588128D01*
X62815626Y29470893D01*
X62827469Y29465621D01*
X63118976Y29317091D01*
X63130190Y29310616D01*
X63404564Y29132435D01*
X63415045Y29124820D01*
X63617221Y28961102D01*
X63669292Y28918936D01*
X63678937Y28910251D01*
X63910249Y28678939D01*
X63918934Y28669294D01*
X64124812Y28415056D01*
X64132437Y28404562D01*
X64310616Y28130190D01*
X64317093Y28118971D01*
X64377712Y28000001D01*
X64465615Y27827481D01*
X64470894Y27815623D01*
X64588127Y27510219D01*
X64592138Y27497876D01*
X64676809Y27181881D01*
X64679507Y27169185D01*
X64730680Y26846087D01*
X64732037Y26833179D01*
X64749329Y26503244D01*
X64749499Y26496754D01*
X64749499Y26441397D01*
X64749500Y26441388D01*
X64749500Y19006093D01*
X64748903Y18993939D01*
X64736296Y18865936D01*
X64731554Y18842094D01*
X64695993Y18724866D01*
X64686690Y18702408D01*
X64628942Y18594370D01*
X64615438Y18574160D01*
X64537725Y18479465D01*
X64520535Y18462275D01*
X64425840Y18384562D01*
X64405630Y18371058D01*
X64297592Y18313310D01*
X64275134Y18304007D01*
X64157906Y18268446D01*
X64134064Y18263704D01*
X64006062Y18251097D01*
X63993908Y18250500D01*
X59901578Y18250500D01*
X59707173Y18219710D01*
X59519970Y18158883D01*
X59344594Y18069524D01*
X59268366Y18014140D01*
X59185354Y17953828D01*
X59185352Y17953826D01*
X59185351Y17953826D01*
X59046174Y17814649D01*
X59046174Y17814648D01*
X59046172Y17814646D01*
X59011312Y17766665D01*
X58930476Y17655406D01*
X58841117Y17480030D01*
X58780290Y17292827D01*
X58749500Y17098423D01*
X58749500Y16224000D01*
X58729815Y16156961D01*
X58677011Y16111206D01*
X58625500Y16100000D01*
X56779138Y16100000D01*
X56758728Y16101691D01*
X56616049Y16125500D01*
X56383951Y16125500D01*
X56342949Y16118658D01*
X56155015Y16087298D01*
X55935504Y16011939D01*
X55935495Y16011936D01*
X55731371Y15901469D01*
X55731365Y15901465D01*
X55548222Y15758919D01*
X55548212Y15758910D01*
X55484792Y15690017D01*
X55424905Y15654026D01*
X55393563Y15650000D01*
X53746128Y15650000D01*
X53714036Y15654225D01*
X53687982Y15661206D01*
X53687979Y15661207D01*
X53687977Y15661207D01*
X53562266Y15672205D01*
X53470002Y15680277D01*
X53469998Y15680277D01*
X53324789Y15667573D01*
X53252023Y15661207D01*
X53252021Y15661207D01*
X53252017Y15661206D01*
X53225964Y15654225D01*
X53193872Y15650000D01*
X52648999Y15650000D01*
X52581960Y15669685D01*
X52536205Y15722489D01*
X52524999Y15774000D01*
X52524999Y16024972D01*
X52524998Y16024987D01*
X52514505Y16127698D01*
X52459358Y16294120D01*
X52459356Y16294125D01*
X52367315Y16443346D01*
X52238237Y16572424D01*
X52240072Y16574260D01*
X52206707Y16621392D01*
X52200000Y16661622D01*
X52200000Y17087271D01*
X52219685Y17154310D01*
X52236314Y17174948D01*
X52332951Y17271584D01*
X52415084Y17394505D01*
X52471658Y17531087D01*
X52485465Y17600499D01*
X52500500Y17676080D01*
X52500500Y17787838D01*
X52520185Y17854877D01*
X52572989Y17900632D01*
X52598552Y17909093D01*
X52602788Y17910001D01*
X52602797Y17910001D01*
X52769334Y17965186D01*
X52918656Y18057288D01*
X52962463Y18101096D01*
X53023784Y18134580D01*
X53093475Y18129596D01*
X53127052Y18110681D01*
X53131337Y18107293D01*
X53131342Y18107290D01*
X53131344Y18107288D01*
X53280666Y18015186D01*
X53447203Y17960001D01*
X53549991Y17949500D01*
X54950008Y17949501D01*
X54951575Y17949661D01*
X54967895Y17951329D01*
X55052797Y17960001D01*
X55219334Y18015186D01*
X55368656Y18107288D01*
X55492712Y18231344D01*
X55492712Y18231345D01*
X55497819Y18236451D01*
X55499705Y18234565D01*
X55546625Y18267788D01*
X55586868Y18274500D01*
X55663132Y18274500D01*
X55730171Y18254815D01*
X55751346Y18235617D01*
X55752181Y18236451D01*
X55757288Y18231344D01*
X55881344Y18107288D01*
X56030666Y18015186D01*
X56197203Y17960001D01*
X56299991Y17949500D01*
X57700008Y17949501D01*
X57701575Y17949661D01*
X57717895Y17951329D01*
X57802797Y17960001D01*
X57969334Y18015186D01*
X58118656Y18107288D01*
X58242712Y18231344D01*
X58334814Y18380666D01*
X58389999Y18547203D01*
X58400500Y18649991D01*
X58400499Y19400008D01*
X58389999Y19502797D01*
X58334814Y19669334D01*
X58242712Y19818656D01*
X58118656Y19942712D01*
X57969334Y20034814D01*
X57802797Y20089999D01*
X57802795Y20090000D01*
X57700010Y20100500D01*
X56299998Y20100500D01*
X56296836Y20100338D01*
X56296832Y20100410D01*
X56288789Y20100000D01*
X54961223Y20100000D01*
X54953169Y20100411D01*
X54953166Y20100339D01*
X54950014Y20100500D01*
X54950009Y20100500D01*
X54950003Y20100500D01*
X53549998Y20100500D01*
X53549981Y20100499D01*
X53447203Y20090000D01*
X53447200Y20089999D01*
X53280668Y20034815D01*
X53280659Y20034811D01*
X53173089Y19968461D01*
X53107993Y19950000D01*
X52511223Y19950000D01*
X52503169Y19950411D01*
X52503166Y19950339D01*
X52500014Y19950500D01*
X52500009Y19950500D01*
X52500003Y19950500D01*
X50999998Y19950500D01*
X50996836Y19950338D01*
X50996832Y19950410D01*
X50988789Y19950000D01*
X49761223Y19950000D01*
X49753169Y19950411D01*
X49753166Y19950339D01*
X49750014Y19950500D01*
X49750009Y19950500D01*
X49750003Y19950500D01*
X48249998Y19950500D01*
X48246836Y19950338D01*
X48246832Y19950410D01*
X48238789Y19950000D01*
X47392007Y19950000D01*
X47326911Y19968461D01*
X47219340Y20034811D01*
X47219335Y20034813D01*
X47219334Y20034814D01*
X47052797Y20089999D01*
X47052795Y20090000D01*
X46950010Y20100500D01*
X45549998Y20100500D01*
X45549981Y20100499D01*
X45447203Y20090000D01*
X45447200Y20089999D01*
X45280668Y20034815D01*
X45280663Y20034813D01*
X45131342Y19942711D01*
X45087680Y19899049D01*
X45026357Y19865565D01*
X44956665Y19870550D01*
X44912320Y19899049D01*
X44868657Y19942711D01*
X44868656Y19942712D01*
X44719334Y20034814D01*
X44552797Y20089999D01*
X44552795Y20090000D01*
X44450010Y20100500D01*
X43049998Y20100500D01*
X43049981Y20100499D01*
X42947203Y20090000D01*
X42947200Y20089999D01*
X42780668Y20034815D01*
X42780663Y20034813D01*
X42631342Y19942711D01*
X42587680Y19899049D01*
X42526357Y19865565D01*
X42456665Y19870550D01*
X42412320Y19899049D01*
X42368657Y19942711D01*
X42368656Y19942712D01*
X42219334Y20034814D01*
X42052797Y20089999D01*
X42052795Y20090000D01*
X41950010Y20100500D01*
X40549998Y20100500D01*
X40549981Y20100499D01*
X40447203Y20090000D01*
X40447200Y20089999D01*
X40280668Y20034815D01*
X40280663Y20034813D01*
X40131342Y19942711D01*
X40087680Y19899049D01*
X40026357Y19865565D01*
X39956665Y19870550D01*
X39912320Y19899049D01*
X39868657Y19942711D01*
X39868656Y19942712D01*
X39719334Y20034814D01*
X39552797Y20089999D01*
X39552795Y20090000D01*
X39450010Y20100500D01*
X38049998Y20100500D01*
X38049981Y20100499D01*
X37947203Y20090000D01*
X37947200Y20089999D01*
X37780668Y20034815D01*
X37780663Y20034813D01*
X37631342Y19942711D01*
X37587680Y19899049D01*
X37526357Y19865565D01*
X37456665Y19870550D01*
X37412320Y19899049D01*
X37368657Y19942711D01*
X37368656Y19942712D01*
X37219334Y20034814D01*
X37052797Y20089999D01*
X37052795Y20090000D01*
X36950010Y20100500D01*
X35549998Y20100500D01*
X35549981Y20100499D01*
X35447203Y20090000D01*
X35447200Y20089999D01*
X35280668Y20034815D01*
X35280663Y20034813D01*
X35131342Y19942711D01*
X35075181Y19886549D01*
X35013858Y19853064D01*
X34944166Y19858048D01*
X34899819Y19886549D01*
X34843657Y19942711D01*
X34843656Y19942712D01*
X34694334Y20034814D01*
X34527797Y20089999D01*
X34527795Y20090000D01*
X34425016Y20100500D01*
X33624000Y20100500D01*
X33556961Y20120185D01*
X33511206Y20172989D01*
X33500000Y20224500D01*
X33500000Y21712500D01*
X34000000Y21712500D01*
X34000000Y20900001D01*
X34424972Y20900001D01*
X34424986Y20900002D01*
X34527697Y20910495D01*
X34694119Y20965642D01*
X34694124Y20965644D01*
X34843345Y21057685D01*
X34899819Y21114158D01*
X34961142Y21147643D01*
X35030834Y21142659D01*
X35075181Y21114158D01*
X35131654Y21057685D01*
X35280875Y20965644D01*
X35280880Y20965642D01*
X35447302Y20910495D01*
X35447309Y20910494D01*
X35550019Y20900001D01*
X35999999Y20900001D01*
X36500000Y20900001D01*
X36949972Y20900001D01*
X36949986Y20900002D01*
X37052697Y20910495D01*
X37219119Y20965642D01*
X37219124Y20965644D01*
X37368345Y21057685D01*
X37412319Y21101658D01*
X37473642Y21135143D01*
X37543334Y21130159D01*
X37587681Y21101658D01*
X37631654Y21057685D01*
X37780875Y20965644D01*
X37780880Y20965642D01*
X37947302Y20910495D01*
X37947309Y20910494D01*
X38050019Y20900001D01*
X38499999Y20900001D01*
X39000000Y20900001D01*
X39449972Y20900001D01*
X39449986Y20900002D01*
X39552697Y20910495D01*
X39719119Y20965642D01*
X39719124Y20965644D01*
X39868345Y21057685D01*
X39912319Y21101658D01*
X39973642Y21135143D01*
X40043334Y21130159D01*
X40087681Y21101658D01*
X40131654Y21057685D01*
X40280875Y20965644D01*
X40280880Y20965642D01*
X40447302Y20910495D01*
X40447309Y20910494D01*
X40550019Y20900001D01*
X40999999Y20900001D01*
X41500000Y20900001D01*
X41949972Y20900001D01*
X41949986Y20900002D01*
X42052697Y20910495D01*
X42219119Y20965642D01*
X42219124Y20965644D01*
X42368345Y21057685D01*
X42412319Y21101658D01*
X42473642Y21135143D01*
X42543334Y21130159D01*
X42587681Y21101658D01*
X42631654Y21057685D01*
X42780875Y20965644D01*
X42780880Y20965642D01*
X42947302Y20910495D01*
X42947309Y20910494D01*
X43050019Y20900001D01*
X43499999Y20900001D01*
X44000000Y20900001D01*
X44449972Y20900001D01*
X44449986Y20900002D01*
X44552697Y20910495D01*
X44719119Y20965642D01*
X44719124Y20965644D01*
X44868345Y21057685D01*
X44912319Y21101658D01*
X44973642Y21135143D01*
X45043334Y21130159D01*
X45087681Y21101658D01*
X45131654Y21057685D01*
X45280875Y20965644D01*
X45280880Y20965642D01*
X45447302Y20910495D01*
X45447309Y20910494D01*
X45550019Y20900001D01*
X45999999Y20900001D01*
X46000000Y20900002D01*
X46000000Y21725000D01*
X44000000Y21725000D01*
X44000000Y20900001D01*
X43499999Y20900001D01*
X43500000Y20900002D01*
X43500000Y21725000D01*
X41500000Y21725000D01*
X41500000Y20900001D01*
X40999999Y20900001D01*
X41000000Y20900002D01*
X41000000Y21725000D01*
X39000000Y21725000D01*
X39000000Y20900001D01*
X38499999Y20900001D01*
X38500000Y20900002D01*
X38500000Y21725000D01*
X36500000Y21725000D01*
X36500000Y20900001D01*
X35999999Y20900001D01*
X36000000Y20900002D01*
X36000000Y21725000D01*
X35148198Y21725000D01*
X35130496Y21715334D01*
X35104138Y21712500D01*
X34000000Y21712500D01*
X33500000Y21712500D01*
X33500000Y22088500D01*
X33519685Y22155539D01*
X33572489Y22201294D01*
X33624000Y22212500D01*
X34826802Y22212500D01*
X34844504Y22222166D01*
X34870862Y22225000D01*
X46376000Y22225000D01*
X46443039Y22205315D01*
X46488794Y22152511D01*
X46500000Y22101000D01*
X46500000Y20900001D01*
X46949972Y20900001D01*
X46949986Y20900002D01*
X47052697Y20910495D01*
X47219119Y20965642D01*
X47219128Y20965646D01*
X47325959Y21031539D01*
X47391055Y21050000D01*
X48238777Y21050000D01*
X48246830Y21049590D01*
X48246834Y21049661D01*
X48249966Y21049503D01*
X48249991Y21049500D01*
X49750008Y21049501D01*
X49750014Y21049502D01*
X49753164Y21049662D01*
X49753167Y21049591D01*
X49761211Y21050000D01*
X50988777Y21050000D01*
X50996830Y21049590D01*
X50996834Y21049661D01*
X50999966Y21049503D01*
X50999991Y21049500D01*
X52500008Y21049501D01*
X52500014Y21049502D01*
X52503164Y21049662D01*
X52503167Y21049591D01*
X52511211Y21050000D01*
X53108945Y21050000D01*
X53174041Y21031539D01*
X53280871Y20965646D01*
X53280880Y20965642D01*
X53447302Y20910495D01*
X53447309Y20910494D01*
X53550019Y20900001D01*
X53999999Y20900001D01*
X54500000Y20900001D01*
X54735839Y20900001D01*
X54735842Y20900000D01*
X56500000Y20900000D01*
X56551354Y20900000D01*
X56551363Y20900001D01*
X56750000Y20900001D01*
X57250000Y20900001D01*
X57699972Y20900001D01*
X57699986Y20900002D01*
X57802697Y20910495D01*
X57969119Y20965642D01*
X57969124Y20965644D01*
X58118345Y21057685D01*
X58242315Y21181655D01*
X58334356Y21330876D01*
X58334358Y21330881D01*
X58389505Y21497303D01*
X58389506Y21497310D01*
X58399999Y21600014D01*
X58400000Y21600027D01*
X58400000Y21725000D01*
X57250000Y21725000D01*
X57250000Y20900001D01*
X56750000Y20900001D01*
X56750000Y21725000D01*
X54500000Y21725000D01*
X54500000Y20900001D01*
X53999999Y20900001D01*
X54000000Y20900002D01*
X54000000Y22225000D01*
X54500000Y22225000D01*
X56750000Y22225000D01*
X57250000Y22225000D01*
X58399999Y22225000D01*
X58399999Y22349972D01*
X58399998Y22349987D01*
X58389505Y22452698D01*
X58334358Y22619120D01*
X58334356Y22619125D01*
X58242315Y22768346D01*
X58118345Y22892316D01*
X57969124Y22984357D01*
X57969119Y22984359D01*
X57802697Y23039506D01*
X57802690Y23039507D01*
X57699986Y23050000D01*
X57250000Y23050000D01*
X57250000Y22225000D01*
X56750000Y22225000D01*
X56750000Y23050000D01*
X56300028Y23050000D01*
X56300012Y23049999D01*
X56197302Y23039506D01*
X56030880Y22984359D01*
X56030875Y22984357D01*
X55881654Y22892316D01*
X55757684Y22768346D01*
X55730539Y22724336D01*
X55678591Y22677611D01*
X55609628Y22666390D01*
X55545546Y22694233D01*
X55519461Y22724336D01*
X55492315Y22768346D01*
X55368345Y22892316D01*
X55219124Y22984357D01*
X55219119Y22984359D01*
X55052697Y23039506D01*
X55052690Y23039507D01*
X54949986Y23050000D01*
X54500000Y23050000D01*
X54500000Y22225000D01*
X54000000Y22225000D01*
X54000000Y23980341D01*
X54019685Y24047380D01*
X54072489Y24093135D01*
X54114740Y24102327D01*
X54114606Y24103869D01*
X54150011Y24106967D01*
X54355408Y24124937D01*
X54419186Y24142026D01*
X54433178Y24145775D01*
X54465271Y24150000D01*
X56316663Y24150000D01*
X56348755Y24145775D01*
X56409999Y24129366D01*
X56410000Y24129366D01*
X56410000Y25026988D01*
X56467007Y24994075D01*
X56594174Y24960000D01*
X56725826Y24960000D01*
X56852993Y24994075D01*
X56910000Y25026988D01*
X56910000Y24129367D01*
X57123483Y24186567D01*
X57123492Y24186571D01*
X57337578Y24286400D01*
X57531082Y24421895D01*
X57698105Y24588918D01*
X57833600Y24782422D01*
X57933429Y24996508D01*
X57933432Y24996514D01*
X57990636Y25210000D01*
X57093012Y25210000D01*
X57125925Y25267007D01*
X57160000Y25394174D01*
X57160000Y25525826D01*
X57125925Y25652993D01*
X57093012Y25710000D01*
X57990636Y25710000D01*
X57990635Y25710001D01*
X57954225Y25845888D01*
X57950000Y25877982D01*
X57950000Y26621289D01*
X59649500Y26621289D01*
X59649500Y26378712D01*
X59680214Y26145405D01*
X59681162Y26138211D01*
X59692734Y26095023D01*
X59743947Y25903896D01*
X59836773Y25679795D01*
X59836777Y25679786D01*
X59852246Y25652993D01*
X59958064Y25469711D01*
X59958066Y25469708D01*
X59958067Y25469707D01*
X60105733Y25277264D01*
X60105739Y25277257D01*
X60277256Y25105740D01*
X60277262Y25105735D01*
X60469711Y24958064D01*
X60679788Y24836776D01*
X60903900Y24743946D01*
X61138211Y24681162D01*
X61318586Y24657416D01*
X61378711Y24649500D01*
X61378712Y24649500D01*
X61621289Y24649500D01*
X61669388Y24655833D01*
X61861789Y24681162D01*
X62096100Y24743946D01*
X62320212Y24836776D01*
X62530289Y24958064D01*
X62722738Y25105735D01*
X62894265Y25277262D01*
X63041936Y25469711D01*
X63163224Y25679788D01*
X63256054Y25903900D01*
X63318838Y26138211D01*
X63350500Y26378712D01*
X63350500Y26621288D01*
X63349600Y26628121D01*
X63333489Y26750500D01*
X63318838Y26861789D01*
X63256054Y27096100D01*
X63163224Y27320212D01*
X63041936Y27530289D01*
X62894265Y27722738D01*
X62894260Y27722744D01*
X62722743Y27894261D01*
X62722736Y27894267D01*
X62530293Y28041933D01*
X62530292Y28041934D01*
X62530289Y28041936D01*
X62320212Y28163224D01*
X62320205Y28163227D01*
X62096104Y28256053D01*
X61978944Y28287446D01*
X61861789Y28318838D01*
X61861788Y28318839D01*
X61861785Y28318839D01*
X61621289Y28350500D01*
X61621288Y28350500D01*
X61378712Y28350500D01*
X61378711Y28350500D01*
X61138214Y28318839D01*
X60903895Y28256053D01*
X60679794Y28163227D01*
X60679785Y28163223D01*
X60469706Y28041933D01*
X60277263Y27894267D01*
X60277256Y27894261D01*
X60105739Y27722744D01*
X60105733Y27722737D01*
X59958067Y27530294D01*
X59836777Y27320215D01*
X59836773Y27320206D01*
X59743947Y27096105D01*
X59681161Y26861786D01*
X59649500Y26621289D01*
X57950000Y26621289D01*
X57950000Y27580089D01*
X57954225Y27612182D01*
X57983848Y27722738D01*
X57995063Y27764592D01*
X58015659Y28000000D01*
X57995063Y28235408D01*
X57933903Y28463663D01*
X57834035Y28677829D01*
X57833259Y28678938D01*
X57698494Y28871403D01*
X57531402Y29038494D01*
X57531395Y29038499D01*
X57526099Y29042207D01*
X57485645Y29070534D01*
X57337834Y29174033D01*
X57337830Y29174035D01*
X57324285Y29180351D01*
X57123663Y29273903D01*
X57123659Y29273904D01*
X57123655Y29273906D01*
X56895413Y29335062D01*
X56895403Y29335064D01*
X56660001Y29355659D01*
X56659999Y29355659D01*
X56424596Y29335064D01*
X56424586Y29335062D01*
X56309502Y29304225D01*
X56277409Y29300000D01*
X54502591Y29300000D01*
X54470498Y29304225D01*
X54355413Y29335062D01*
X54355403Y29335064D01*
X54120001Y29355659D01*
X54119999Y29355659D01*
X53884596Y29335064D01*
X53884586Y29335062D01*
X53769502Y29304225D01*
X53737409Y29300000D01*
X51962591Y29300000D01*
X51930498Y29304225D01*
X51815413Y29335062D01*
X51815403Y29335064D01*
X51580001Y29355659D01*
X51579999Y29355659D01*
X51344596Y29335064D01*
X51344586Y29335062D01*
X51229502Y29304225D01*
X51197409Y29300000D01*
X49420660Y29300000D01*
X49388566Y29304225D01*
X49290000Y29330636D01*
X49290000Y28433012D01*
X49232993Y28465925D01*
X49105826Y28500000D01*
X48974174Y28500000D01*
X48847007Y28465925D01*
X48790000Y28433012D01*
X48790000Y29330636D01*
X48789999Y29330636D01*
X48691434Y29304225D01*
X48659340Y29300000D01*
X46882591Y29300000D01*
X46850498Y29304225D01*
X46735413Y29335062D01*
X46735403Y29335064D01*
X46500001Y29355659D01*
X46499999Y29355659D01*
X46264596Y29335064D01*
X46264586Y29335062D01*
X46149502Y29304225D01*
X46117409Y29300000D01*
X44340660Y29300000D01*
X44308566Y29304225D01*
X44210000Y29330636D01*
X44210000Y28433012D01*
X44152993Y28465925D01*
X44025826Y28500000D01*
X43894174Y28500000D01*
X43767007Y28465925D01*
X43710000Y28433012D01*
X43710000Y29330636D01*
X43709999Y29330636D01*
X43611434Y29304225D01*
X43579340Y29300000D01*
X41802591Y29300000D01*
X41770498Y29304225D01*
X41655413Y29335062D01*
X41655403Y29335064D01*
X41420001Y29355659D01*
X41419999Y29355659D01*
X41184596Y29335064D01*
X41184586Y29335062D01*
X41069502Y29304225D01*
X41037409Y29300000D01*
X39262591Y29300000D01*
X39230498Y29304225D01*
X39115413Y29335062D01*
X39115403Y29335064D01*
X38880001Y29355659D01*
X38879999Y29355659D01*
X38644596Y29335064D01*
X38644586Y29335062D01*
X38529502Y29304225D01*
X38497409Y29300000D01*
X36722591Y29300000D01*
X36690498Y29304225D01*
X36575413Y29335062D01*
X36575403Y29335064D01*
X36340001Y29355659D01*
X36339999Y29355659D01*
X36104596Y29335064D01*
X36104586Y29335062D01*
X35989502Y29304225D01*
X35957409Y29300000D01*
X34182591Y29300000D01*
X34150498Y29304225D01*
X34035413Y29335062D01*
X34035403Y29335064D01*
X33800001Y29355659D01*
X33799999Y29355659D01*
X33564596Y29335064D01*
X33564586Y29335062D01*
X33449502Y29304225D01*
X33417409Y29300000D01*
X31642591Y29300000D01*
X31610498Y29304225D01*
X31495413Y29335062D01*
X31495403Y29335064D01*
X31260001Y29355659D01*
X31259999Y29355659D01*
X31024596Y29335064D01*
X31024586Y29335062D01*
X30909502Y29304225D01*
X30877409Y29300000D01*
X29102591Y29300000D01*
X29070498Y29304225D01*
X28955413Y29335062D01*
X28955403Y29335064D01*
X28720001Y29355659D01*
X28719999Y29355659D01*
X28484596Y29335064D01*
X28484586Y29335062D01*
X28369502Y29304225D01*
X28337409Y29300000D01*
X26562591Y29300000D01*
X26530498Y29304225D01*
X26415413Y29335062D01*
X26415403Y29335064D01*
X26180001Y29355659D01*
X26179999Y29355659D01*
X25944596Y29335064D01*
X25944586Y29335062D01*
X25829502Y29304225D01*
X25797409Y29300000D01*
X24020660Y29300000D01*
X23988566Y29304225D01*
X23890000Y29330636D01*
X23890000Y28433012D01*
X23832993Y28465925D01*
X23705826Y28500000D01*
X23574174Y28500000D01*
X23447007Y28465925D01*
X23390000Y28433012D01*
X23390000Y29330636D01*
X23389999Y29330636D01*
X23291434Y29304225D01*
X23259340Y29300000D01*
X21482591Y29300000D01*
X21450498Y29304225D01*
X21335413Y29335062D01*
X21335403Y29335064D01*
X21100001Y29355659D01*
X21099999Y29355659D01*
X20864596Y29335064D01*
X20864586Y29335062D01*
X20749502Y29304225D01*
X20717409Y29300000D01*
X18942591Y29300000D01*
X18910498Y29304225D01*
X18795413Y29335062D01*
X18795403Y29335064D01*
X18560001Y29355659D01*
X18559999Y29355659D01*
X18324596Y29335064D01*
X18324586Y29335062D01*
X18209502Y29304225D01*
X18177409Y29300000D01*
X16402591Y29300000D01*
X16370498Y29304225D01*
X16255413Y29335062D01*
X16255403Y29335064D01*
X16020001Y29355659D01*
X16019999Y29355659D01*
X15784596Y29335064D01*
X15784586Y29335062D01*
X15669502Y29304225D01*
X15637409Y29300000D01*
X13860660Y29300000D01*
X13828566Y29304225D01*
X13730000Y29330636D01*
X13730000Y28433012D01*
X13672993Y28465925D01*
X13545826Y28500000D01*
X13414174Y28500000D01*
X13287007Y28465925D01*
X13230000Y28433012D01*
X13230000Y29330636D01*
X13229999Y29330636D01*
X13016513Y29273433D01*
X13016507Y29273430D01*
X12802422Y29173601D01*
X12802420Y29173600D01*
X12608926Y29038114D01*
X12608920Y29038109D01*
X12441891Y28871080D01*
X12441890Y28871078D01*
X12311880Y28685405D01*
X12257303Y28641781D01*
X12187804Y28634588D01*
X12125450Y28666110D01*
X12108730Y28685406D01*
X11978494Y28871403D01*
X11811402Y29038494D01*
X11811395Y29038499D01*
X11806099Y29042207D01*
X11765645Y29070534D01*
X11617834Y29174033D01*
X11617830Y29174035D01*
X11604285Y29180351D01*
X11403663Y29273903D01*
X11403659Y29273904D01*
X11403655Y29273906D01*
X11175413Y29335062D01*
X11175403Y29335064D01*
X10940001Y29355659D01*
X10939999Y29355659D01*
X10704596Y29335064D01*
X10704586Y29335062D01*
X10476344Y29273906D01*
X10476335Y29273902D01*
X10262171Y29174036D01*
X10262169Y29174035D01*
X10068597Y29038495D01*
X9901505Y28871403D01*
X9771575Y28685842D01*
X9716998Y28642217D01*
X9647500Y28635023D01*
X9585145Y28666546D01*
X9568425Y28685842D01*
X9438494Y28871403D01*
X9271402Y29038494D01*
X9271395Y29038499D01*
X9266099Y29042207D01*
X9225645Y29070534D01*
X9077834Y29174033D01*
X9077830Y29174035D01*
X9064285Y29180351D01*
X8863663Y29273903D01*
X8863659Y29273904D01*
X8863655Y29273906D01*
X8635413Y29335062D01*
X8635403Y29335064D01*
X8400001Y29355659D01*
X8399999Y29355659D01*
X8164596Y29335064D01*
X8164586Y29335062D01*
X7936344Y29273906D01*
X7936335Y29273902D01*
X7722171Y29174036D01*
X7722169Y29174035D01*
X7528597Y29038495D01*
X7361505Y28871403D01*
X7225965Y28677831D01*
X7225964Y28677829D01*
X7126098Y28463665D01*
X7126094Y28463656D01*
X7064938Y28235414D01*
X7064936Y28235404D01*
X7044341Y28000001D01*
X7044341Y28000000D01*
X7064936Y27764597D01*
X7064938Y27764587D01*
X7126094Y27536345D01*
X7126096Y27536341D01*
X7126097Y27536337D01*
X7205801Y27365412D01*
X7225965Y27322170D01*
X7225967Y27322166D01*
X7328588Y27175609D01*
X7361504Y27128600D01*
X7361506Y27128598D01*
X7483430Y27006674D01*
X7516915Y26945351D01*
X7511931Y26875659D01*
X7470059Y26819726D01*
X7439083Y26802811D01*
X7307669Y26753797D01*
X7307664Y26753794D01*
X7192455Y26667548D01*
X7192452Y26667545D01*
X7106206Y26552336D01*
X7106202Y26552329D01*
X7055908Y26417483D01*
X7049501Y26357884D01*
X7049500Y26357865D01*
X7049500Y24562130D01*
X7049501Y24562124D01*
X7055908Y24502517D01*
X7106202Y24367672D01*
X7106206Y24367665D01*
X7192452Y24252456D01*
X7192455Y24252453D01*
X7307664Y24166207D01*
X7307671Y24166203D01*
X7442517Y24115909D01*
X7442516Y24115909D01*
X7449444Y24115165D01*
X7502127Y24109500D01*
X8678851Y24109501D01*
X8745889Y24089816D01*
X8791644Y24037013D01*
X8802810Y23988632D01*
X8802920Y23984263D01*
X8803911Y23980041D01*
X8948456Y19547295D01*
X8947743Y19529378D01*
X8944435Y19500003D01*
X8944435Y19499997D01*
X8964630Y19320751D01*
X8964631Y19320746D01*
X9024211Y19150477D01*
X9101295Y19027800D01*
X9120184Y18997738D01*
X9247738Y18870184D01*
X9400478Y18774211D01*
X9489554Y18743042D01*
X9570745Y18714632D01*
X9570750Y18714631D01*
X9749996Y18694435D01*
X9750000Y18694435D01*
X9750004Y18694435D01*
X9929249Y18714631D01*
X9929252Y18714632D01*
X9929255Y18714632D01*
X10010446Y18743043D01*
X10051401Y18750000D01*
X11698599Y18750000D01*
X11739554Y18743042D01*
X11820745Y18714632D01*
X11820750Y18714631D01*
X11999996Y18694435D01*
X12000000Y18694435D01*
X12000004Y18694435D01*
X12179249Y18714631D01*
X12179252Y18714632D01*
X12179255Y18714632D01*
X12260446Y18743043D01*
X12301401Y18750000D01*
X12750500Y18750000D01*
X12817539Y18730315D01*
X12863294Y18677511D01*
X12874500Y18626000D01*
X12874500Y18438394D01*
X12896887Y18325844D01*
X12898538Y18317545D01*
X12898539Y18317540D01*
X12906173Y18299113D01*
X12906174Y18299107D01*
X12906175Y18299107D01*
X12945685Y18203719D01*
X12945686Y18203717D01*
X12945687Y18203715D01*
X12945688Y18203714D01*
X12960634Y18181347D01*
X12960635Y18181344D01*
X12960636Y18181344D01*
X13014141Y18101268D01*
X13014144Y18101264D01*
X13105586Y18009822D01*
X13105608Y18009802D01*
X13423787Y17691623D01*
X13457272Y17630300D01*
X13459326Y17617827D01*
X13464630Y17570751D01*
X13524210Y17400479D01*
X13620184Y17247738D01*
X13747738Y17120184D01*
X13821370Y17073918D01*
X13880251Y17036920D01*
X13900478Y17024211D01*
X14057313Y16969332D01*
X14070745Y16964632D01*
X14070750Y16964631D01*
X14249996Y16944435D01*
X14250000Y16944435D01*
X14250002Y16944435D01*
X14292469Y16949220D01*
X14306353Y16950000D01*
X14588159Y16950000D01*
X14655198Y16930315D01*
X14700953Y16877511D01*
X14710897Y16808353D01*
X14710130Y16804069D01*
X14699500Y16700017D01*
X14699500Y15299999D01*
X14699501Y15299982D01*
X14710000Y15197204D01*
X14725643Y15149999D01*
X14743706Y15095487D01*
X14750000Y15056485D01*
X14750000Y14624000D01*
X14730315Y14556961D01*
X14677511Y14511206D01*
X14626000Y14500000D01*
X14435952Y14500000D01*
X14368913Y14519685D01*
X14348271Y14536319D01*
X13794272Y15090318D01*
X13794256Y15090336D01*
X13773496Y15111096D01*
X13773480Y15111125D01*
X13659858Y15224745D01*
X13659854Y15224749D01*
X13509654Y15339999D01*
X13490808Y15354460D01*
X13490804Y15354462D01*
X13490802Y15354464D01*
X13350807Y15435288D01*
X13306270Y15461001D01*
X13306266Y15461003D01*
X13109396Y15542547D01*
X12903577Y15597693D01*
X12903574Y15597694D01*
X12692332Y15625501D01*
X12692323Y15625502D01*
X12692319Y15625502D01*
X12692311Y15625502D01*
X12585777Y15625500D01*
X12420089Y15625500D01*
X12353050Y15645185D01*
X12307295Y15697989D01*
X12296731Y15736898D01*
X12293948Y15764140D01*
X12289999Y15802797D01*
X12234814Y15969334D01*
X12142712Y16118656D01*
X12018656Y16242712D01*
X11869334Y16334814D01*
X11702797Y16389999D01*
X11702795Y16390000D01*
X11600010Y16400500D01*
X10849998Y16400500D01*
X10849980Y16400499D01*
X10747203Y16390000D01*
X10747200Y16389999D01*
X10580668Y16334815D01*
X10580663Y16334813D01*
X10431342Y16242711D01*
X10307289Y16118658D01*
X10215187Y15969337D01*
X10215185Y15969332D01*
X10194422Y15906674D01*
X10160001Y15802797D01*
X10160001Y15802796D01*
X10160000Y15802796D01*
X10149500Y15700017D01*
X10149500Y14299999D01*
X10149501Y14299982D01*
X10160000Y14197204D01*
X10160001Y14197201D01*
X10215185Y14030669D01*
X10215187Y14030664D01*
X10236772Y13995669D01*
X10307288Y13881344D01*
X10431344Y13757288D01*
X10580666Y13665186D01*
X10747203Y13610001D01*
X10849991Y13599500D01*
X11600008Y13599501D01*
X11600016Y13599502D01*
X11600019Y13599502D01*
X11656302Y13605252D01*
X11702797Y13610001D01*
X11869334Y13665186D01*
X12018656Y13757288D01*
X12142712Y13881344D01*
X12234814Y14030666D01*
X12279329Y14165005D01*
X12319102Y14222449D01*
X12383618Y14249272D01*
X12397035Y14250000D01*
X12814048Y14250000D01*
X12881087Y14230315D01*
X12901729Y14213681D01*
X13706771Y13408639D01*
X13706792Y13408616D01*
X13726503Y13388905D01*
X13726518Y13388877D01*
X13814315Y13301082D01*
X13840146Y13275251D01*
X13925182Y13210002D01*
X13995452Y13156083D01*
X14009198Y13145536D01*
X14193734Y13038997D01*
X14390598Y12957456D01*
X14408088Y12952770D01*
X14467750Y12916408D01*
X14498282Y12853563D01*
X14500000Y12832994D01*
X14500000Y11774000D01*
X14480315Y11706961D01*
X14427511Y11661206D01*
X14376000Y11650000D01*
X14104954Y11650000D01*
X14064003Y11656957D01*
X14054255Y11660368D01*
X14054253Y11660369D01*
X14054246Y11660370D01*
X13875004Y11680565D01*
X13874996Y11680565D01*
X13695750Y11660370D01*
X13695745Y11660369D01*
X13525476Y11600789D01*
X13372737Y11504816D01*
X13245184Y11377263D01*
X13149210Y11224522D01*
X13089630Y11054250D01*
X13084326Y11007175D01*
X13057258Y10942761D01*
X13048787Y10933379D01*
X12389727Y10274319D01*
X12328404Y10240834D01*
X12302046Y10238000D01*
X11574998Y10238000D01*
X11574980Y10237999D01*
X11472203Y10227500D01*
X11472200Y10227499D01*
X11305668Y10172315D01*
X11305663Y10172313D01*
X11156342Y10080211D01*
X11032289Y9956158D01*
X10940187Y9806837D01*
X10940185Y9806832D01*
X10930625Y9777981D01*
X10885001Y9640297D01*
X10885001Y9640296D01*
X10885000Y9640296D01*
X10874500Y9537517D01*
X10874500Y8812499D01*
X10874501Y8812481D01*
X10885000Y8709707D01*
X10885001Y8709704D01*
X10893706Y8683434D01*
X10900000Y8644430D01*
X10900000Y6780571D01*
X10893707Y6741569D01*
X10885001Y6715297D01*
X10885000Y6715291D01*
X10874500Y6612517D01*
X10874500Y5887499D01*
X10874501Y5887481D01*
X10885000Y5784704D01*
X10885001Y5784701D01*
X10929479Y5650478D01*
X10940186Y5618166D01*
X11032288Y5468844D01*
X11156344Y5344788D01*
X11305666Y5252686D01*
X11472203Y5197501D01*
X11574991Y5187000D01*
X12925008Y5187001D01*
X13027797Y5197501D01*
X13194334Y5252686D01*
X13343656Y5344788D01*
X13412319Y5413451D01*
X13473642Y5446936D01*
X13543334Y5441952D01*
X13587681Y5413451D01*
X13656344Y5344788D01*
X13805666Y5252686D01*
X13972203Y5197501D01*
X14074991Y5187000D01*
X15425008Y5187001D01*
X15527797Y5197501D01*
X15694334Y5252686D01*
X15843656Y5344788D01*
X15912319Y5413451D01*
X15973642Y5446936D01*
X16043334Y5441952D01*
X16087681Y5413451D01*
X16156344Y5344788D01*
X16305666Y5252686D01*
X16472203Y5197501D01*
X16574991Y5187000D01*
X17925008Y5187001D01*
X18027797Y5197501D01*
X18194334Y5252686D01*
X18343656Y5344788D01*
X18412319Y5413451D01*
X18473642Y5446936D01*
X18543334Y5441952D01*
X18587681Y5413451D01*
X18656344Y5344788D01*
X18805666Y5252686D01*
X18972203Y5197501D01*
X19074991Y5187000D01*
X20425008Y5187001D01*
X20527797Y5197501D01*
X20694334Y5252686D01*
X20843656Y5344788D01*
X20967712Y5468844D01*
X21059814Y5618166D01*
X21114999Y5784703D01*
X21125500Y5887491D01*
X21125500Y6000004D01*
X21444435Y6000004D01*
X21444435Y5999997D01*
X21464630Y5820751D01*
X21464631Y5820746D01*
X21524211Y5650477D01*
X21583212Y5556578D01*
X21620184Y5497738D01*
X21747738Y5370184D01*
X21798669Y5338182D01*
X21881943Y5285857D01*
X21900478Y5274211D01*
X22070745Y5214632D01*
X22070750Y5214631D01*
X22249996Y5194435D01*
X22250000Y5194435D01*
X22250002Y5194435D01*
X22292469Y5199220D01*
X22306353Y5200000D01*
X24443647Y5200000D01*
X24457531Y5199220D01*
X24499998Y5194435D01*
X24500000Y5194435D01*
X24500004Y5194435D01*
X24679249Y5214631D01*
X24679252Y5214632D01*
X24679255Y5214632D01*
X24849522Y5274211D01*
X25002262Y5370184D01*
X25129816Y5497738D01*
X25225789Y5650478D01*
X25285368Y5820745D01*
X25287500Y5839668D01*
X25305565Y5999997D01*
X25305565Y6000004D01*
X27619435Y6000004D01*
X27619435Y5999997D01*
X27639630Y5820751D01*
X27639631Y5820746D01*
X27699211Y5650477D01*
X27758212Y5556578D01*
X27795184Y5497738D01*
X27922738Y5370184D01*
X27973669Y5338182D01*
X28056943Y5285857D01*
X28075478Y5274211D01*
X28245745Y5214632D01*
X28245750Y5214631D01*
X28424996Y5194435D01*
X28425000Y5194435D01*
X28425002Y5194435D01*
X28467469Y5199220D01*
X28481353Y5200000D01*
X29943647Y5200000D01*
X29957531Y5199220D01*
X29999998Y5194435D01*
X30000000Y5194435D01*
X30000004Y5194435D01*
X30179249Y5214631D01*
X30179252Y5214632D01*
X30179255Y5214632D01*
X30349522Y5274211D01*
X30502262Y5370184D01*
X30629816Y5497738D01*
X30725789Y5650478D01*
X30785368Y5820745D01*
X30787500Y5839668D01*
X30805565Y5999997D01*
X30805565Y6000004D01*
X30785369Y6179250D01*
X30785368Y6179255D01*
X30774769Y6209545D01*
X30725789Y6349522D01*
X30725487Y6350002D01*
X30644506Y6478883D01*
X30625500Y6544855D01*
X30625500Y7050014D01*
X32450001Y7050014D01*
X32460494Y6947303D01*
X32515641Y6780881D01*
X32515643Y6780876D01*
X32607684Y6631655D01*
X32731654Y6507685D01*
X32880875Y6415644D01*
X32880880Y6415642D01*
X33047302Y6360495D01*
X33047309Y6360494D01*
X33150019Y6350001D01*
X33274999Y6350001D01*
X33275000Y6350002D01*
X33275000Y7500000D01*
X32450001Y7500000D01*
X32450001Y7050014D01*
X30625500Y7050014D01*
X30625500Y8205146D01*
X30644507Y8271119D01*
X30646730Y8274656D01*
X30720506Y8392070D01*
X30725788Y8400476D01*
X30739058Y8438399D01*
X30743113Y8449987D01*
X32450000Y8449987D01*
X32450000Y8000000D01*
X33275000Y8000000D01*
X33275000Y10000000D01*
X32450001Y10000000D01*
X32450001Y9550014D01*
X32460494Y9447303D01*
X32515641Y9280881D01*
X32515643Y9280876D01*
X32607684Y9131655D01*
X32651658Y9087681D01*
X32685143Y9026358D01*
X32680159Y8956666D01*
X32651658Y8912319D01*
X32607684Y8868346D01*
X32515643Y8719125D01*
X32515641Y8719120D01*
X32460494Y8552698D01*
X32460493Y8552691D01*
X32450000Y8449987D01*
X30743113Y8449987D01*
X30785368Y8570745D01*
X30786647Y8582098D01*
X30805565Y8749997D01*
X30805565Y8750004D01*
X30785369Y8929250D01*
X30785368Y8929255D01*
X30773084Y8964361D01*
X30725789Y9099522D01*
X30723886Y9102550D01*
X30679737Y9172813D01*
X30629816Y9252262D01*
X30502262Y9379816D01*
X30455224Y9409372D01*
X30349523Y9475789D01*
X30179254Y9535369D01*
X30179249Y9535370D01*
X30000004Y9555565D01*
X29999998Y9555565D01*
X29957531Y9550780D01*
X29943647Y9550000D01*
X29410745Y9550000D01*
X29343706Y9569685D01*
X29297951Y9622489D01*
X29287525Y9660117D01*
X29285369Y9679250D01*
X29285368Y9679255D01*
X29240725Y9806837D01*
X29225789Y9849522D01*
X29129816Y10002262D01*
X29002262Y10129816D01*
X29002260Y10129818D01*
X29002257Y10129820D01*
X28982562Y10142195D01*
X28936270Y10194529D01*
X28925621Y10263582D01*
X28929457Y10281785D01*
X28947099Y10342509D01*
X28947100Y10342512D01*
X28947295Y10344999D01*
X28947295Y10345000D01*
X27825000Y10345000D01*
X27825000Y9966077D01*
X27805994Y9900106D01*
X27774209Y9849521D01*
X27714633Y9679263D01*
X27714630Y9679250D01*
X27694435Y9500004D01*
X27694435Y9499997D01*
X27714630Y9320751D01*
X27714631Y9320746D01*
X27774212Y9150475D01*
X27780492Y9140481D01*
X27799500Y9074507D01*
X27799500Y6544855D01*
X27780494Y6478883D01*
X27699211Y6349524D01*
X27639631Y6179255D01*
X27639630Y6179250D01*
X27619435Y6000004D01*
X25305565Y6000004D01*
X25285369Y6179250D01*
X25285366Y6179263D01*
X25274770Y6209545D01*
X25271208Y6279324D01*
X25305936Y6339951D01*
X25367930Y6372179D01*
X25391811Y6374500D01*
X26311607Y6374500D01*
X26372029Y6386519D01*
X26432452Y6398537D01*
X26472646Y6415186D01*
X26546286Y6445688D01*
X26616415Y6492548D01*
X26648733Y6514142D01*
X26735858Y6601267D01*
X26735859Y6601269D01*
X26742925Y6608335D01*
X26742928Y6608339D01*
X27148729Y7014140D01*
X27148733Y7014142D01*
X27235858Y7101267D01*
X27271902Y7155212D01*
X27287254Y7178187D01*
X27287256Y7178190D01*
X27304310Y7203712D01*
X27304311Y7203714D01*
X27304312Y7203715D01*
X27345229Y7302499D01*
X27351463Y7317548D01*
X27367216Y7396746D01*
X27367611Y7398730D01*
X27367611Y7398733D01*
X27375500Y7438393D01*
X27375500Y7561607D01*
X27375500Y8311606D01*
X27374731Y8315470D01*
X27351463Y8432451D01*
X27349001Y8438394D01*
X27328496Y8487898D01*
X27304312Y8546285D01*
X27280382Y8582098D01*
X27235858Y8648733D01*
X27235856Y8648736D01*
X27145637Y8738955D01*
X27145606Y8738984D01*
X27076211Y8808379D01*
X27042726Y8869702D01*
X27040673Y8882162D01*
X27035368Y8929255D01*
X26975789Y9099522D01*
X26973886Y9102550D01*
X26929737Y9172813D01*
X26879816Y9252262D01*
X26752262Y9379816D01*
X26705224Y9409372D01*
X26599523Y9475789D01*
X26429254Y9535369D01*
X26429249Y9535370D01*
X26250004Y9555565D01*
X26249996Y9555565D01*
X26070750Y9535370D01*
X26070745Y9535369D01*
X25900476Y9475789D01*
X25747737Y9379816D01*
X25620184Y9252263D01*
X25524211Y9099524D01*
X25464631Y8929255D01*
X25464630Y8929250D01*
X25444435Y8750004D01*
X25444435Y8749500D01*
X25444342Y8749187D01*
X25443655Y8743081D01*
X25442585Y8743202D01*
X25424750Y8682461D01*
X25371946Y8636706D01*
X25320435Y8625500D01*
X24188389Y8625500D01*
X24127971Y8613482D01*
X24067548Y8601463D01*
X24067546Y8601463D01*
X24067545Y8601462D01*
X24067543Y8601462D01*
X24047555Y8593182D01*
X23953718Y8554315D01*
X23953709Y8554310D01*
X23915406Y8528715D01*
X23915405Y8528714D01*
X23851268Y8485860D01*
X23826631Y8461222D01*
X23764142Y8398733D01*
X23764139Y8398730D01*
X22191621Y6826213D01*
X22130298Y6792728D01*
X22117825Y6790674D01*
X22070750Y6785370D01*
X21900478Y6725790D01*
X21747737Y6629816D01*
X21620184Y6502263D01*
X21524211Y6349524D01*
X21464631Y6179255D01*
X21464630Y6179250D01*
X21444435Y6000004D01*
X21125500Y6000004D01*
X21125499Y6612508D01*
X21125315Y6614306D01*
X21114999Y6715297D01*
X21114998Y6715300D01*
X21106293Y6741569D01*
X21059814Y6881834D01*
X20967712Y7031156D01*
X20843656Y7155212D01*
X20723134Y7229550D01*
X20694336Y7247313D01*
X20694331Y7247315D01*
X20657704Y7259452D01*
X20527797Y7302499D01*
X20527795Y7302500D01*
X20425016Y7313000D01*
X19624000Y7313000D01*
X19556961Y7332685D01*
X19511206Y7385489D01*
X19500000Y7437000D01*
X19500000Y8112501D01*
X20000000Y8112501D01*
X20424972Y8112501D01*
X20424986Y8112502D01*
X20527697Y8122995D01*
X20694119Y8178142D01*
X20694124Y8178144D01*
X20843345Y8270185D01*
X20967315Y8394155D01*
X21059356Y8543376D01*
X21059358Y8543381D01*
X21114505Y8709803D01*
X21114506Y8709810D01*
X21124999Y8812514D01*
X21125000Y8812527D01*
X21125000Y8925000D01*
X20000000Y8925000D01*
X20000000Y8112501D01*
X19500000Y8112501D01*
X19500000Y9425000D01*
X20000000Y9425000D01*
X21124999Y9425000D01*
X21124999Y9537472D01*
X21124998Y9537487D01*
X21114505Y9640198D01*
X21059358Y9806620D01*
X21059353Y9806631D01*
X21037173Y9842590D01*
X21018732Y9909982D01*
X21036751Y9967397D01*
X20991714Y9962620D01*
X20929279Y9993984D01*
X20926224Y9996937D01*
X20843345Y10079816D01*
X20694124Y10171857D01*
X20694119Y10171859D01*
X20527697Y10227006D01*
X20527690Y10227007D01*
X20424986Y10237500D01*
X20000000Y10237500D01*
X20000000Y9425000D01*
X19500000Y9425000D01*
X19500000Y10237500D01*
X19075028Y10237500D01*
X19075012Y10237499D01*
X18972302Y10227006D01*
X18805880Y10171859D01*
X18805875Y10171857D01*
X18656657Y10079818D01*
X18588034Y10011195D01*
X18526710Y9977711D01*
X18457019Y9982696D01*
X18412672Y10011196D01*
X18343657Y10080211D01*
X18343656Y10080212D01*
X18234177Y10147739D01*
X18194336Y10172313D01*
X18194331Y10172315D01*
X18192862Y10172802D01*
X18027797Y10227499D01*
X18027795Y10227500D01*
X17925010Y10238000D01*
X16574998Y10238000D01*
X16574981Y10237999D01*
X16472203Y10227500D01*
X16472200Y10227499D01*
X16305668Y10172315D01*
X16305659Y10172311D01*
X16189096Y10100414D01*
X16121704Y10081974D01*
X16055040Y10102897D01*
X16010271Y10156539D01*
X16000000Y10205953D01*
X16000000Y10344999D01*
X21052704Y10344999D01*
X21052899Y10342514D01*
X21098718Y10184802D01*
X21120637Y10147739D01*
X21137820Y10080015D01*
X21119309Y10024666D01*
X21162627Y10030077D01*
X21225634Y9999881D01*
X21230392Y9995368D01*
X21298438Y9927322D01*
X21298447Y9927315D01*
X21439803Y9843718D01*
X21439806Y9843717D01*
X21597504Y9797901D01*
X21597510Y9797900D01*
X21634350Y9795001D01*
X21634366Y9795000D01*
X22175000Y9795000D01*
X22675000Y9795000D01*
X23215634Y9795000D01*
X23215649Y9795001D01*
X23252489Y9797900D01*
X23252495Y9797901D01*
X23410193Y9843717D01*
X23410196Y9843718D01*
X23551552Y9927315D01*
X23551561Y9927322D01*
X23667678Y10043439D01*
X23667685Y10043448D01*
X23751281Y10184802D01*
X23797100Y10342514D01*
X23797295Y10344999D01*
X26202704Y10344999D01*
X26202899Y10342514D01*
X26248718Y10184802D01*
X26332314Y10043448D01*
X26332321Y10043439D01*
X26448438Y9927322D01*
X26448447Y9927315D01*
X26589803Y9843718D01*
X26589806Y9843717D01*
X26747504Y9797901D01*
X26747510Y9797900D01*
X26784350Y9795001D01*
X26784366Y9795000D01*
X27325000Y9795000D01*
X27325000Y10345000D01*
X26202705Y10345000D01*
X26202704Y10344999D01*
X23797295Y10344999D01*
X23797295Y10345000D01*
X22675000Y10345000D01*
X22675000Y9795000D01*
X22175000Y9795000D01*
X22175000Y10345000D01*
X21052705Y10345000D01*
X21052704Y10344999D01*
X16000000Y10344999D01*
X16000000Y10814048D01*
X16019685Y10881087D01*
X16036316Y10901726D01*
X16337772Y11203181D01*
X16399095Y11236666D01*
X16425453Y11239500D01*
X21019889Y11239500D01*
X21086928Y11219815D01*
X21132683Y11167011D01*
X21142627Y11097853D01*
X21126621Y11052379D01*
X21098718Y11005199D01*
X21052899Y10847487D01*
X21052704Y10845002D01*
X21052705Y10845000D01*
X23797295Y10845000D01*
X23797295Y10845002D01*
X23797100Y10847487D01*
X23751281Y11005199D01*
X23667685Y11146553D01*
X23662900Y11152722D01*
X23665366Y11154636D01*
X23638802Y11203224D01*
X23643749Y11272918D01*
X23664856Y11305768D01*
X23663301Y11306974D01*
X23668077Y11313132D01*
X23668081Y11313135D01*
X23751744Y11454602D01*
X23797598Y11612431D01*
X23800500Y11649306D01*
X23800500Y12080694D01*
X23797598Y12117569D01*
X23751744Y12275398D01*
X23668081Y12416865D01*
X23668078Y12416868D01*
X23663298Y12423031D01*
X23665750Y12424934D01*
X23639155Y12473579D01*
X23644104Y12543274D01*
X23664940Y12575696D01*
X23663298Y12576969D01*
X23668076Y12583131D01*
X23668081Y12583135D01*
X23730761Y12689121D01*
X23781830Y12736804D01*
X23837493Y12750000D01*
X24439047Y12750000D01*
X24506086Y12730315D01*
X24526728Y12713681D01*
X25774141Y11466268D01*
X25774142Y11466267D01*
X25850453Y11389956D01*
X25861268Y11379141D01*
X25953445Y11317550D01*
X25959827Y11313286D01*
X25963714Y11310689D01*
X26077548Y11263537D01*
X26195795Y11240017D01*
X26257704Y11207633D01*
X26292279Y11146918D01*
X26288540Y11077148D01*
X26278336Y11055280D01*
X26248718Y11005198D01*
X26202899Y10847487D01*
X26202704Y10845002D01*
X26202705Y10845000D01*
X28947295Y10845000D01*
X28947295Y10845002D01*
X28947100Y10847489D01*
X28947099Y10847495D01*
X28904924Y10992663D01*
X28900000Y11027258D01*
X28900000Y11250500D01*
X28919685Y11317539D01*
X28972489Y11363294D01*
X29024000Y11374500D01*
X32395409Y11374500D01*
X32462448Y11354815D01*
X32508203Y11302011D01*
X32518147Y11232853D01*
X32513115Y11211496D01*
X32460494Y11052698D01*
X32460493Y11052691D01*
X32450000Y10949987D01*
X32450000Y10500000D01*
X33651000Y10500000D01*
X33718039Y10480315D01*
X33763794Y10427511D01*
X33775000Y10376000D01*
X33775000Y8000000D01*
X33950000Y8000000D01*
X33950000Y7500000D01*
X33775000Y7500000D01*
X33775000Y6350001D01*
X33826000Y6350001D01*
X33893039Y6330316D01*
X33938794Y6277512D01*
X33950000Y6226001D01*
X33950000Y5435953D01*
X33930315Y5368914D01*
X33913681Y5348272D01*
X33551728Y4986319D01*
X33490405Y4952834D01*
X33464047Y4950000D01*
X32256353Y4950000D01*
X32242469Y4950780D01*
X32200002Y4955565D01*
X32199996Y4955565D01*
X32020750Y4935370D01*
X32020745Y4935369D01*
X31850476Y4875789D01*
X31697737Y4779816D01*
X31570184Y4652263D01*
X31474211Y4499524D01*
X31414631Y4329255D01*
X31414630Y4329250D01*
X31394435Y4150004D01*
X31394435Y4149997D01*
X31414630Y3970751D01*
X31414631Y3970746D01*
X31474211Y3800476D01*
X31528152Y3714631D01*
X31555398Y3671269D01*
X31555493Y3671119D01*
X31574500Y3605146D01*
X31574500Y2138391D01*
X31578063Y2120476D01*
X31598537Y2017547D01*
X31600227Y2013469D01*
X31600224Y2013469D01*
X31600230Y2013460D01*
X31645688Y1903714D01*
X31664705Y1875254D01*
X31664706Y1875251D01*
X31664707Y1875251D01*
X31714141Y1801268D01*
X31714144Y1801264D01*
X31805586Y1709822D01*
X31805608Y1709802D01*
X32161016Y1354394D01*
X32161045Y1354363D01*
X32251264Y1264144D01*
X32251267Y1264142D01*
X32302490Y1229916D01*
X32353714Y1195688D01*
X32434207Y1162348D01*
X32467548Y1148537D01*
X32527971Y1136519D01*
X32588393Y1124500D01*
X33711607Y1124500D01*
X33772029Y1136519D01*
X33827834Y1147619D01*
X33852019Y1150000D01*
X37647981Y1150000D01*
X37672172Y1147617D01*
X37788389Y1124501D01*
X37788393Y1124500D01*
X37788394Y1124500D01*
X39036607Y1124500D01*
X39097029Y1136519D01*
X39157452Y1148537D01*
X39157455Y1148539D01*
X39157458Y1148539D01*
X39190787Y1162346D01*
X39190786Y1162346D01*
X39190792Y1162348D01*
X39271286Y1195688D01*
X39322509Y1229916D01*
X39322511Y1229917D01*
X39341687Y1242730D01*
X39373733Y1264142D01*
X39460858Y1351267D01*
X39460859Y1351269D01*
X39467925Y1358335D01*
X39467932Y1358343D01*
X39473278Y1363689D01*
X39534604Y1397169D01*
X39560951Y1400000D01*
X45647981Y1400000D01*
X45672165Y1397619D01*
X45727971Y1386519D01*
X45788393Y1374500D01*
X46611607Y1374500D01*
X46672029Y1386519D01*
X46732452Y1398537D01*
X46732455Y1398539D01*
X46732458Y1398539D01*
X46765787Y1412346D01*
X46765786Y1412346D01*
X46765792Y1412348D01*
X46846286Y1445688D01*
X46896288Y1479101D01*
X46962963Y1499980D01*
X46965181Y1500000D01*
X48297981Y1500000D01*
X48322172Y1497617D01*
X48438388Y1474501D01*
X48438392Y1474500D01*
X48438393Y1474500D01*
X49711607Y1474500D01*
X49772029Y1486519D01*
X49832452Y1498537D01*
X49832455Y1498539D01*
X49832458Y1498539D01*
X49865787Y1512346D01*
X49865786Y1512346D01*
X49865792Y1512348D01*
X49946286Y1545688D01*
X50012590Y1589992D01*
X50048733Y1614142D01*
X50135858Y1701267D01*
X50135860Y1701270D01*
X50142925Y1708335D01*
X50142928Y1708339D01*
X50698729Y2264140D01*
X50698733Y2264142D01*
X50785858Y2351267D01*
X50844074Y2438393D01*
X50854312Y2453715D01*
X50881932Y2520397D01*
X50883195Y2523445D01*
X50927032Y2577851D01*
X50993324Y2599921D01*
X50997759Y2600000D01*
X51347980Y2600000D01*
X51372171Y2597617D01*
X51418500Y2588402D01*
X51418520Y2588399D01*
X51418542Y2588394D01*
X51488391Y2574501D01*
X51488392Y2574500D01*
X51488393Y2574500D01*
X52661608Y2574500D01*
X52661608Y2574501D01*
X52731458Y2588394D01*
X52731459Y2588394D01*
X52748611Y2591806D01*
X52782452Y2598537D01*
X52818576Y2613500D01*
X52896286Y2645688D01*
X52947319Y2679788D01*
X52954606Y2684657D01*
X52954608Y2684659D01*
X52998733Y2714142D01*
X53085858Y2801267D01*
X53085858Y2801269D01*
X53096066Y2811476D01*
X53096067Y2811479D01*
X53785857Y3501266D01*
X53806187Y3531691D01*
X53854311Y3603714D01*
X53861591Y3621289D01*
X59649500Y3621289D01*
X59649500Y3378712D01*
X59681161Y3138215D01*
X59743947Y2903896D01*
X59822546Y2714143D01*
X59836776Y2679788D01*
X59958064Y2469711D01*
X59958066Y2469708D01*
X59958067Y2469707D01*
X60105733Y2277264D01*
X60105739Y2277257D01*
X60277256Y2105740D01*
X60277263Y2105734D01*
X60365023Y2038394D01*
X60469711Y1958064D01*
X60679788Y1836776D01*
X60903900Y1743946D01*
X61138211Y1681162D01*
X61318586Y1657416D01*
X61378711Y1649500D01*
X61378712Y1649500D01*
X61621289Y1649500D01*
X61669388Y1655833D01*
X61861789Y1681162D01*
X62096100Y1743946D01*
X62320212Y1836776D01*
X62530289Y1958064D01*
X62722738Y2105735D01*
X62894265Y2277262D01*
X63041936Y2469711D01*
X63163224Y2679788D01*
X63256054Y2903900D01*
X63318838Y3138211D01*
X63350500Y3378712D01*
X63350500Y3621288D01*
X63347636Y3643039D01*
X63331450Y3765992D01*
X63318838Y3861789D01*
X63256054Y4096100D01*
X63163224Y4320212D01*
X63041936Y4530289D01*
X62936614Y4667548D01*
X62894266Y4722737D01*
X62894260Y4722744D01*
X62722743Y4894261D01*
X62722736Y4894267D01*
X62530293Y5041933D01*
X62530292Y5041934D01*
X62530289Y5041936D01*
X62340579Y5151465D01*
X62320214Y5163223D01*
X62320205Y5163227D01*
X62096104Y5256053D01*
X61861785Y5318839D01*
X61621289Y5350500D01*
X61621288Y5350500D01*
X61378712Y5350500D01*
X61378711Y5350500D01*
X61138214Y5318839D01*
X60903895Y5256053D01*
X60679794Y5163227D01*
X60679785Y5163223D01*
X60502840Y5061063D01*
X60477239Y5046282D01*
X60469706Y5041933D01*
X60277263Y4894267D01*
X60277256Y4894261D01*
X60105739Y4722744D01*
X60105733Y4722737D01*
X59958067Y4530294D01*
X59958064Y4530290D01*
X59958064Y4530289D01*
X59951926Y4519658D01*
X59836777Y4320215D01*
X59836773Y4320206D01*
X59743947Y4096105D01*
X59681161Y3861786D01*
X59649500Y3621289D01*
X53861591Y3621289D01*
X53901463Y3717548D01*
X53925500Y3838394D01*
X53925500Y4126000D01*
X53945185Y4193039D01*
X53997989Y4238794D01*
X54049500Y4250000D01*
X54893647Y4250000D01*
X54907531Y4249220D01*
X54949998Y4244435D01*
X54950000Y4244435D01*
X54950004Y4244435D01*
X55129249Y4264631D01*
X55129252Y4264632D01*
X55129255Y4264632D01*
X55299522Y4324211D01*
X55452262Y4420184D01*
X55579816Y4547738D01*
X55675789Y4700478D01*
X55735368Y4870745D01*
X55735369Y4870751D01*
X55755565Y5049997D01*
X55755565Y5050002D01*
X55750780Y5092469D01*
X55750000Y5106353D01*
X55750000Y6117564D01*
X55769685Y6184603D01*
X55822489Y6230358D01*
X55826540Y6232122D01*
X55887128Y6257223D01*
X56028887Y6351959D01*
X56028890Y6351962D01*
X56028891Y6351962D01*
X56075459Y6398539D01*
X56149438Y6472531D01*
X56244148Y6614306D01*
X56309379Y6771834D01*
X56342622Y6939062D01*
X56342611Y7024312D01*
X56342611Y7024500D01*
X56342611Y7060681D01*
X56342621Y7060860D01*
X56342620Y7068359D01*
X56342621Y7068362D01*
X56342617Y7092925D01*
X56342636Y7092991D01*
X56342630Y7144312D01*
X56342631Y7144312D01*
X56342621Y7229550D01*
X56341684Y7234260D01*
X56338194Y7251798D01*
X56344415Y7321390D01*
X56387273Y7376571D01*
X56453161Y7399822D01*
X56459809Y7400000D01*
X57350500Y7400000D01*
X57417539Y7380315D01*
X57463294Y7327511D01*
X57474500Y7276000D01*
X57474500Y5339351D01*
X57454815Y5272312D01*
X57404302Y5227631D01*
X57400479Y5225790D01*
X57247737Y5129816D01*
X57120184Y5002263D01*
X57024211Y4849524D01*
X56964631Y4679255D01*
X56964630Y4679250D01*
X56944435Y4500004D01*
X56944435Y4499997D01*
X56964630Y4320751D01*
X56964631Y4320746D01*
X57024211Y4150477D01*
X57115223Y4005634D01*
X57120184Y3997738D01*
X57247738Y3870184D01*
X57310282Y3830885D01*
X57400280Y3774335D01*
X57400478Y3774211D01*
X57542841Y3724396D01*
X57570745Y3714632D01*
X57570750Y3714631D01*
X57749996Y3694435D01*
X57750000Y3694435D01*
X57750004Y3694435D01*
X57929249Y3714631D01*
X57929252Y3714632D01*
X57929255Y3714632D01*
X58099522Y3774211D01*
X58252262Y3870184D01*
X58379816Y3997738D01*
X58475789Y4150478D01*
X58535368Y4320745D01*
X58540672Y4367823D01*
X58567737Y4432235D01*
X58576214Y4441623D01*
X58585858Y4451267D01*
X58650982Y4548731D01*
X58650982Y4548732D01*
X58650983Y4548733D01*
X58654312Y4553715D01*
X58697018Y4656818D01*
X58701463Y4667548D01*
X58725500Y4788394D01*
X58725500Y5626000D01*
X58745185Y5693039D01*
X58797989Y5738794D01*
X58849500Y5750000D01*
X59890354Y5750000D01*
X59900077Y5749618D01*
X59901577Y5749500D01*
X59901583Y5749500D01*
X59950172Y5749500D01*
X63955830Y5749500D01*
X63993908Y5749500D01*
X64006061Y5748903D01*
X64016635Y5747862D01*
X64134069Y5736296D01*
X64157897Y5731557D01*
X64275140Y5695992D01*
X64297589Y5686692D01*
X64356123Y5655405D01*
X64405630Y5628943D01*
X64425839Y5615440D01*
X64502822Y5552262D01*
X64520535Y5537726D01*
X64537724Y5520537D01*
X64576581Y5473189D01*
X64615438Y5425841D01*
X64628942Y5405631D01*
X64686690Y5297593D01*
X64695992Y5275136D01*
X64722728Y5187000D01*
X64731554Y5157907D01*
X64736296Y5134065D01*
X64748903Y5006062D01*
X64749500Y4993908D01*
X64749500Y3554174D01*
X64749499Y3554166D01*
X64749499Y3503248D01*
X64749329Y3496758D01*
X64732037Y3166823D01*
X64730680Y3153915D01*
X64679507Y2830817D01*
X64676809Y2818121D01*
X64592138Y2502126D01*
X64588127Y2489783D01*
X64470894Y2184379D01*
X64465615Y2172521D01*
X64317097Y1881037D01*
X64310607Y1869797D01*
X64132441Y1595446D01*
X64124812Y1584945D01*
X63918935Y1330708D01*
X63910250Y1321063D01*
X63678938Y1089751D01*
X63669293Y1081066D01*
X63415055Y875188D01*
X63404555Y867559D01*
X63130197Y689389D01*
X63118964Y682903D01*
X62827480Y534385D01*
X62815622Y529106D01*
X62510218Y411873D01*
X62497875Y407862D01*
X62181880Y323191D01*
X62169184Y320493D01*
X61846086Y269320D01*
X61833178Y267963D01*
X61503244Y250671D01*
X61496754Y250501D01*
X61445840Y250501D01*
X61445828Y250500D01*
X3554173Y250500D01*
X3554161Y250501D01*
X3544171Y250501D01*
X3503247Y250501D01*
X3496757Y250671D01*
X3166822Y267963D01*
X3153914Y269320D01*
X2830816Y320493D01*
X2818120Y323191D01*
X2502125Y407862D01*
X2489782Y411873D01*
X2184378Y529106D01*
X2172520Y534385D01*
X1881030Y682907D01*
X1869803Y689389D01*
X1595439Y867563D01*
X1584951Y875183D01*
X1330706Y1081066D01*
X1321062Y1089750D01*
X1089750Y1321062D01*
X1081065Y1330707D01*
X875187Y1584945D01*
X867565Y1595435D01*
X689379Y1869817D01*
X682909Y1881023D01*
X534379Y2172530D01*
X529105Y2184378D01*
X509684Y2234971D01*
X411872Y2489783D01*
X407861Y2502125D01*
X402964Y2520400D01*
X323188Y2818126D01*
X320492Y2830816D01*
X318216Y2845185D01*
X269319Y3153915D01*
X267962Y3166822D01*
X250671Y3496757D01*
X250501Y3503247D01*
X250501Y3554159D01*
X250500Y3554173D01*
X250500Y3621289D01*
X1649500Y3621289D01*
X1649500Y3378712D01*
X1681161Y3138215D01*
X1743947Y2903896D01*
X1822546Y2714143D01*
X1836776Y2679788D01*
X1958064Y2469711D01*
X1958066Y2469708D01*
X1958067Y2469707D01*
X2105733Y2277264D01*
X2105739Y2277257D01*
X2277256Y2105740D01*
X2277263Y2105734D01*
X2365023Y2038394D01*
X2469711Y1958064D01*
X2679788Y1836776D01*
X2903900Y1743946D01*
X3138211Y1681162D01*
X3318586Y1657416D01*
X3378711Y1649500D01*
X3378712Y1649500D01*
X3621289Y1649500D01*
X3669388Y1655833D01*
X3861789Y1681162D01*
X4096100Y1743946D01*
X4320212Y1836776D01*
X4530289Y1958064D01*
X4722738Y2105735D01*
X4894265Y2277262D01*
X5041936Y2469711D01*
X5163224Y2679788D01*
X5256054Y2903900D01*
X5318838Y3138211D01*
X5350500Y3378712D01*
X5350500Y3621288D01*
X5347636Y3643039D01*
X5331450Y3765992D01*
X5318838Y3861789D01*
X5256054Y4096100D01*
X5163224Y4320212D01*
X5041936Y4530289D01*
X4936614Y4667548D01*
X4894266Y4722737D01*
X4894260Y4722744D01*
X4722743Y4894261D01*
X4722736Y4894267D01*
X4530293Y5041933D01*
X4530292Y5041934D01*
X4530289Y5041936D01*
X4340579Y5151465D01*
X4320214Y5163223D01*
X4320205Y5163227D01*
X4096104Y5256053D01*
X3861785Y5318839D01*
X3621289Y5350500D01*
X3621288Y5350500D01*
X3378712Y5350500D01*
X3378711Y5350500D01*
X3138214Y5318839D01*
X2903895Y5256053D01*
X2679794Y5163227D01*
X2679785Y5163223D01*
X2502840Y5061063D01*
X2477239Y5046282D01*
X2469706Y5041933D01*
X2277263Y4894267D01*
X2277256Y4894261D01*
X2105739Y4722744D01*
X2105733Y4722737D01*
X1958067Y4530294D01*
X1958064Y4530290D01*
X1958064Y4530289D01*
X1951926Y4519658D01*
X1836777Y4320215D01*
X1836773Y4320206D01*
X1743947Y4096105D01*
X1681161Y3861786D01*
X1649500Y3621289D01*
X250500Y3621289D01*
X250500Y7777440D01*
X270185Y7844479D01*
X322989Y7890234D01*
X392147Y7900178D01*
X417834Y7893622D01*
X517623Y7856403D01*
X517627Y7856402D01*
X577155Y7850001D01*
X577172Y7850000D01*
X5572819Y7850000D01*
X5572819Y7850001D01*
X5616727Y7854721D01*
X2809128Y10662320D01*
X2775643Y10723643D01*
X2777528Y10750001D01*
X3428553Y10750001D01*
X3428553Y10749999D01*
X5996139Y8182413D01*
X6018598Y8242629D01*
X6024999Y8302156D01*
X6025000Y8302173D01*
X6025000Y13197828D01*
X6024999Y13197845D01*
X6018598Y13257377D01*
X5996139Y13317589D01*
X3428553Y10750001D01*
X2777528Y10750001D01*
X2780627Y10793335D01*
X2809128Y10837682D01*
X3075000Y11103553D01*
X5616727Y13645281D01*
X5572829Y13650000D01*
X4874000Y13650000D01*
X4806961Y13669685D01*
X4761206Y13722489D01*
X4750000Y13774000D01*
X4750000Y14250500D01*
X4769685Y14317539D01*
X4822489Y14363294D01*
X4874000Y14374500D01*
X7079911Y14374500D01*
X7146950Y14354815D01*
X7192705Y14302011D01*
X7203269Y14263102D01*
X7210001Y14197203D01*
X7210001Y14197201D01*
X7265185Y14030669D01*
X7265187Y14030664D01*
X7286772Y13995669D01*
X7357288Y13881344D01*
X7481344Y13757288D01*
X7630666Y13665186D01*
X7797203Y13610001D01*
X7899991Y13599500D01*
X8650008Y13599501D01*
X8650016Y13599502D01*
X8650019Y13599502D01*
X8706302Y13605252D01*
X8752797Y13610001D01*
X8919334Y13665186D01*
X9068656Y13757288D01*
X9192712Y13881344D01*
X9284814Y14030666D01*
X9339999Y14197203D01*
X9350500Y14299991D01*
X9350499Y15700008D01*
X9339999Y15802797D01*
X9284814Y15969334D01*
X9192712Y16118656D01*
X9068656Y16242712D01*
X8919334Y16334814D01*
X8752797Y16389999D01*
X8752795Y16390000D01*
X8650010Y16400500D01*
X7899998Y16400500D01*
X7899980Y16400499D01*
X7797203Y16390000D01*
X7797200Y16389999D01*
X7630668Y16334815D01*
X7630663Y16334813D01*
X7481342Y16242711D01*
X7357289Y16118658D01*
X7265187Y15969337D01*
X7265185Y15969332D01*
X7244422Y15906674D01*
X7210002Y15802798D01*
X7210001Y15802796D01*
X7210000Y15802795D01*
X7203268Y15736897D01*
X7176871Y15672205D01*
X7119690Y15632054D01*
X7079910Y15625500D01*
X4874000Y15625500D01*
X4806961Y15645185D01*
X4761206Y15697989D01*
X4750000Y15749500D01*
X4750000Y16226000D01*
X4769685Y16293039D01*
X4822489Y16338794D01*
X4874000Y16350000D01*
X5572819Y16350000D01*
X5572819Y16350001D01*
X5616727Y16354721D01*
X2809128Y19162320D01*
X2775643Y19223643D01*
X2777528Y19250001D01*
X3428553Y19250001D01*
X3428553Y19249999D01*
X5996139Y16682413D01*
X6018598Y16742629D01*
X6024999Y16802156D01*
X6025000Y16802173D01*
X6025000Y21697828D01*
X6024999Y21697845D01*
X6018598Y21757377D01*
X5996139Y21817589D01*
X3428553Y19250001D01*
X2777528Y19250001D01*
X2780627Y19293335D01*
X2809128Y19337682D01*
X3075000Y19603553D01*
X5616727Y22145281D01*
X5572829Y22150000D01*
X577155Y22150000D01*
X517627Y22143599D01*
X517619Y22143597D01*
X417833Y22106379D01*
X348141Y22101395D01*
X286818Y22134880D01*
X253334Y22196204D01*
X250500Y22222561D01*
X250500Y26441388D01*
X250501Y26441397D01*
X250501Y26496754D01*
X250671Y26503244D01*
X253112Y26549828D01*
X256857Y26621289D01*
X1649500Y26621289D01*
X1649500Y26378712D01*
X1680214Y26145405D01*
X1681162Y26138211D01*
X1692734Y26095023D01*
X1743947Y25903896D01*
X1836773Y25679795D01*
X1836777Y25679786D01*
X1852246Y25652993D01*
X1958064Y25469711D01*
X1958066Y25469708D01*
X1958067Y25469707D01*
X2105733Y25277264D01*
X2105739Y25277257D01*
X2277256Y25105740D01*
X2277262Y25105735D01*
X2469711Y24958064D01*
X2679788Y24836776D01*
X2903900Y24743946D01*
X3138211Y24681162D01*
X3318586Y24657416D01*
X3378711Y24649500D01*
X3378712Y24649500D01*
X3621289Y24649500D01*
X3669388Y24655833D01*
X3861789Y24681162D01*
X4096100Y24743946D01*
X4320212Y24836776D01*
X4530289Y24958064D01*
X4722738Y25105735D01*
X4894265Y25277262D01*
X5041936Y25469711D01*
X5163224Y25679788D01*
X5256054Y25903900D01*
X5318838Y26138211D01*
X5350500Y26378712D01*
X5350500Y26621288D01*
X5349600Y26628121D01*
X5333489Y26750500D01*
X5318838Y26861789D01*
X5256054Y27096100D01*
X5163224Y27320212D01*
X5041936Y27530289D01*
X4894265Y27722738D01*
X4894260Y27722744D01*
X4722743Y27894261D01*
X4722736Y27894267D01*
X4530293Y28041933D01*
X4530292Y28041934D01*
X4530289Y28041936D01*
X4320212Y28163224D01*
X4320205Y28163227D01*
X4096104Y28256053D01*
X3978944Y28287446D01*
X3861789Y28318838D01*
X3861788Y28318839D01*
X3861785Y28318839D01*
X3621289Y28350500D01*
X3621288Y28350500D01*
X3378712Y28350500D01*
X3378711Y28350500D01*
X3138214Y28318839D01*
X2903895Y28256053D01*
X2679794Y28163227D01*
X2679785Y28163223D01*
X2469706Y28041933D01*
X2277263Y27894267D01*
X2277256Y27894261D01*
X2105739Y27722744D01*
X2105733Y27722737D01*
X1958067Y27530294D01*
X1836777Y27320215D01*
X1836773Y27320206D01*
X1743947Y27096105D01*
X1681161Y26861786D01*
X1649500Y26621289D01*
X256857Y26621289D01*
X267962Y26833181D01*
X269319Y26846087D01*
X320494Y27169196D01*
X323187Y27181871D01*
X407864Y27497886D01*
X411872Y27510218D01*
X529110Y27815634D01*
X534376Y27827463D01*
X682913Y28118985D01*
X689379Y28130184D01*
X867565Y28404566D01*
X875179Y28415047D01*
X1081073Y28669302D01*
X1089740Y28678928D01*
X1321072Y28910260D01*
X1330698Y28918927D01*
X1584953Y29124821D01*
X1595434Y29132435D01*
X1869816Y29310621D01*
X1881015Y29317087D01*
X2172537Y29465624D01*
X2184366Y29470890D01*
X2489786Y29588130D01*
X2502114Y29592136D01*
X2818129Y29676813D01*
X2830804Y29679506D01*
X3153915Y29730682D01*
X3166819Y29732038D01*
X3326404Y29740402D01*
X3496777Y29749330D01*
X3503267Y29749500D01*
X3544170Y29749500D01*
X61445827Y29749500D01*
X61445839Y29749499D01*
G37*
%TD.AperFunction*%
%TA.AperFunction,Conductor*%
G36*
X43725020Y11030315D02*
G01*
X43745657Y11013686D01*
X43878457Y10880886D01*
X43982740Y10811207D01*
X43993192Y10804223D01*
X44048452Y10781334D01*
X44102856Y10737493D01*
X44124921Y10671199D01*
X44125000Y10666777D01*
X44125000Y10635677D01*
X44140442Y10518378D01*
X44140445Y10518366D01*
X44148837Y10498105D01*
X44156304Y10428636D01*
X44148838Y10403206D01*
X44139956Y10381762D01*
X44139955Y10381761D01*
X44124500Y10264362D01*
X44124500Y9985637D01*
X44139953Y9868247D01*
X44139957Y9868235D01*
X44148566Y9847450D01*
X44156033Y9777981D01*
X44148566Y9752550D01*
X44139957Y9731766D01*
X44139955Y9731761D01*
X44124500Y9614362D01*
X44124500Y9335637D01*
X44139953Y9218247D01*
X44139957Y9218235D01*
X44148566Y9197450D01*
X44156033Y9127981D01*
X44148566Y9102550D01*
X44139957Y9081766D01*
X44139955Y9081761D01*
X44124500Y8964362D01*
X44124500Y8924500D01*
X44104815Y8857461D01*
X44052011Y8811706D01*
X44000500Y8800500D01*
X43888393Y8800500D01*
X43812318Y8785368D01*
X43812317Y8785369D01*
X43767553Y8776465D01*
X43767545Y8776462D01*
X43653716Y8729313D01*
X43567953Y8672007D01*
X43551266Y8660858D01*
X43551260Y8660853D01*
X41552229Y6661819D01*
X41490906Y6628334D01*
X41464548Y6625500D01*
X37605117Y6625500D01*
X37538078Y6645185D01*
X37492323Y6697989D01*
X37482379Y6767147D01*
X37487411Y6788504D01*
X37488811Y6792728D01*
X37539999Y6947203D01*
X37550500Y7049991D01*
X37550500Y7350500D01*
X37570185Y7417539D01*
X37622989Y7463294D01*
X37674500Y7474500D01*
X41243996Y7474500D01*
X41359490Y7497474D01*
X41379328Y7501420D01*
X41495404Y7549500D01*
X41506807Y7554223D01*
X41506808Y7554224D01*
X41506811Y7554225D01*
X41621543Y7630886D01*
X42286975Y8296320D01*
X42327202Y8323198D01*
X42355495Y8334916D01*
X42478416Y8417049D01*
X42582951Y8521584D01*
X42665084Y8644505D01*
X42721658Y8781087D01*
X42739285Y8869702D01*
X42750500Y8926080D01*
X42750500Y10926000D01*
X42770185Y10993039D01*
X42822989Y11038794D01*
X42874500Y11050000D01*
X43657981Y11050000D01*
X43725020Y11030315D01*
G37*
%TD.AperFunction*%
%TA.AperFunction,Conductor*%
G36*
X35546830Y17949590D02*
G01*
X35546834Y17949661D01*
X35549966Y17949503D01*
X35549991Y17949500D01*
X36950008Y17949501D01*
X36950014Y17949502D01*
X36953164Y17949662D01*
X36953167Y17949591D01*
X36961211Y17950000D01*
X37409980Y17950000D01*
X37477019Y17930315D01*
X37522774Y17877511D01*
X37532718Y17808353D01*
X37503693Y17744797D01*
X37497661Y17738319D01*
X37205888Y17446547D01*
X37205887Y17446546D01*
X37129222Y17331808D01*
X37076421Y17204333D01*
X37076418Y17204321D01*
X37050481Y17073927D01*
X37050480Y17073922D01*
X37049501Y17069004D01*
X37049500Y17068989D01*
X37049500Y15267434D01*
X37029815Y15200395D01*
X36977011Y15154640D01*
X36912899Y15144076D01*
X36850012Y15150500D01*
X36099998Y15150500D01*
X36099980Y15150499D01*
X35997203Y15140000D01*
X35997200Y15139999D01*
X35830668Y15084815D01*
X35830663Y15084813D01*
X35681342Y14992711D01*
X35557289Y14868658D01*
X35465187Y14719337D01*
X35465185Y14719332D01*
X35465115Y14719120D01*
X35410001Y14552797D01*
X35410001Y14552796D01*
X35410000Y14552796D01*
X35399500Y14450017D01*
X35399500Y13049999D01*
X35399501Y13049982D01*
X35410000Y12947204D01*
X35410001Y12947201D01*
X35427990Y12892915D01*
X35450495Y12824999D01*
X35462589Y12788504D01*
X35464991Y12718676D01*
X35429259Y12658634D01*
X35366739Y12627441D01*
X35344883Y12625500D01*
X34654591Y12625500D01*
X34587552Y12645185D01*
X34541797Y12697989D01*
X34531853Y12767147D01*
X34536885Y12788504D01*
X34589505Y12947303D01*
X34589506Y12947310D01*
X34599999Y13050014D01*
X34600000Y13050027D01*
X34600000Y13500000D01*
X33399000Y13500000D01*
X33331961Y13519685D01*
X33286206Y13572489D01*
X33275000Y13624000D01*
X33275000Y14000000D01*
X33775000Y14000000D01*
X34599999Y14000000D01*
X34599999Y14449972D01*
X34599998Y14449987D01*
X34589505Y14552698D01*
X34534358Y14719120D01*
X34534356Y14719125D01*
X34442315Y14868346D01*
X34318345Y14992316D01*
X34169124Y15084357D01*
X34169119Y15084359D01*
X34002697Y15139506D01*
X34002690Y15139507D01*
X33899986Y15150000D01*
X33775000Y15150000D01*
X33775000Y14000000D01*
X33275000Y14000000D01*
X33275000Y15150000D01*
X33150027Y15150000D01*
X33150012Y15149999D01*
X33047302Y15139506D01*
X32880880Y15084359D01*
X32880875Y15084357D01*
X32731656Y14992317D01*
X32723879Y14984540D01*
X32662554Y14951058D01*
X32592863Y14956045D01*
X32536931Y14997918D01*
X32530662Y15007129D01*
X32492712Y15068656D01*
X32368657Y15192711D01*
X32368656Y15192712D01*
X32247512Y15267434D01*
X32219336Y15284813D01*
X32219331Y15284815D01*
X32173560Y15299982D01*
X32052797Y15339999D01*
X32052795Y15340000D01*
X31950016Y15350500D01*
X31124000Y15350500D01*
X31056961Y15370185D01*
X31011206Y15422989D01*
X31000000Y15474500D01*
X31000000Y16150001D01*
X31500000Y16150001D01*
X31949972Y16150001D01*
X31949986Y16150002D01*
X32052697Y16160495D01*
X32219119Y16215642D01*
X32219124Y16215644D01*
X32368345Y16307685D01*
X32492315Y16431655D01*
X32584356Y16580876D01*
X32584358Y16580881D01*
X32639505Y16747303D01*
X32639506Y16747310D01*
X32649999Y16850014D01*
X32650000Y16850027D01*
X32650000Y16975000D01*
X31500000Y16975000D01*
X31500000Y16150001D01*
X31000000Y16150001D01*
X31000000Y17351000D01*
X31019685Y17418039D01*
X31072489Y17463794D01*
X31124000Y17475000D01*
X32649999Y17475000D01*
X32649999Y17599972D01*
X32649998Y17599987D01*
X32639505Y17702698D01*
X32611572Y17786996D01*
X32609170Y17856824D01*
X32644902Y17916866D01*
X32707422Y17948059D01*
X32729278Y17950000D01*
X35538777Y17950000D01*
X35546830Y17949590D01*
G37*
%TD.AperFunction*%
%TA.AperFunction,Conductor*%
G36*
X18810000Y24129366D02*
G01*
X18871245Y24145775D01*
X18903337Y24150000D01*
X20754729Y24150000D01*
X20786822Y24145775D01*
X20800814Y24142026D01*
X20864592Y24124937D01*
X21041034Y24109500D01*
X21099999Y24104341D01*
X21100000Y24104341D01*
X21100001Y24104341D01*
X21139234Y24107774D01*
X21335408Y24124937D01*
X21399186Y24142026D01*
X21413178Y24145775D01*
X21445271Y24150000D01*
X23294729Y24150000D01*
X23326822Y24145775D01*
X23340814Y24142026D01*
X23404592Y24124937D01*
X23581034Y24109500D01*
X23639999Y24104341D01*
X23640000Y24104341D01*
X23640001Y24104341D01*
X23679234Y24107774D01*
X23875408Y24124937D01*
X23939186Y24142026D01*
X23953178Y24145775D01*
X23985271Y24150000D01*
X25834729Y24150000D01*
X25866822Y24145775D01*
X25880814Y24142026D01*
X25944592Y24124937D01*
X26121034Y24109500D01*
X26179999Y24104341D01*
X26180000Y24104341D01*
X26180001Y24104341D01*
X26219234Y24107774D01*
X26415408Y24124937D01*
X26479186Y24142026D01*
X26493178Y24145775D01*
X26525271Y24150000D01*
X28374729Y24150000D01*
X28406773Y24145788D01*
X28407420Y24145615D01*
X28408044Y24145448D01*
X28467719Y24109108D01*
X28498275Y24046274D01*
X28500000Y24025660D01*
X28500000Y20645846D01*
X28480315Y20578807D01*
X28427511Y20533052D01*
X28358353Y20523108D01*
X28336997Y20528140D01*
X28302700Y20539505D01*
X28302690Y20539507D01*
X28199986Y20550000D01*
X27750000Y20550000D01*
X27750000Y17724500D01*
X27730315Y17657461D01*
X27677511Y17611706D01*
X27626000Y17600500D01*
X26799998Y17600500D01*
X26799980Y17600499D01*
X26697203Y17590000D01*
X26697200Y17589999D01*
X26530668Y17534815D01*
X26530663Y17534813D01*
X26381342Y17442711D01*
X26257289Y17318658D01*
X26165187Y17169337D01*
X26165185Y17169332D01*
X26148899Y17120184D01*
X26110001Y17002797D01*
X26110001Y17002796D01*
X26110000Y17002796D01*
X26099500Y16900017D01*
X26099500Y16900009D01*
X26099500Y16621392D01*
X26099501Y16424500D01*
X26079817Y16357461D01*
X26027013Y16311706D01*
X25975501Y16300500D01*
X25624000Y16300500D01*
X25556961Y16320185D01*
X25511206Y16372989D01*
X25500000Y16424500D01*
X25500000Y16497828D01*
X25499999Y16497840D01*
X25493380Y16559396D01*
X25493380Y16585910D01*
X25494090Y16592515D01*
X25494091Y16592517D01*
X25500500Y16652127D01*
X25500499Y17147872D01*
X25494091Y17207483D01*
X25457473Y17305660D01*
X25443797Y17342329D01*
X25443793Y17342336D01*
X25357547Y17457545D01*
X25357544Y17457548D01*
X25242335Y17543794D01*
X25242328Y17543798D01*
X25107482Y17594092D01*
X25107483Y17594092D01*
X25047883Y17600499D01*
X25047881Y17600500D01*
X25047873Y17600500D01*
X25047865Y17600500D01*
X24085453Y17600500D01*
X24018414Y17620185D01*
X23997776Y17636815D01*
X23860859Y17773731D01*
X23860858Y17773733D01*
X23773733Y17860858D01*
X23773732Y17860859D01*
X23773731Y17860860D01*
X23722509Y17895085D01*
X23715824Y17899552D01*
X23671286Y17929312D01*
X23668864Y17930315D01*
X23651100Y17937673D01*
X23582195Y17966214D01*
X23582193Y17966216D01*
X23557455Y17976462D01*
X23557453Y17976463D01*
X23557452Y17976463D01*
X23497029Y17988482D01*
X23436610Y18000500D01*
X23436607Y18000500D01*
X23436606Y18000500D01*
X22685453Y18000500D01*
X22618414Y18020185D01*
X22597772Y18036819D01*
X22411819Y18222772D01*
X22378334Y18284095D01*
X22375500Y18310453D01*
X22375500Y19100014D01*
X26100001Y19100014D01*
X26110494Y18997303D01*
X26165641Y18830881D01*
X26165643Y18830876D01*
X26257684Y18681655D01*
X26381654Y18557685D01*
X26530875Y18465644D01*
X26530880Y18465642D01*
X26697302Y18410495D01*
X26697309Y18410494D01*
X26800019Y18400001D01*
X27249999Y18400001D01*
X27250000Y18400002D01*
X27250000Y19225000D01*
X26100001Y19225000D01*
X26100001Y19100014D01*
X22375500Y19100014D01*
X22375500Y19849987D01*
X26100000Y19849987D01*
X26100000Y19725000D01*
X27250000Y19725000D01*
X27250000Y20550000D01*
X26800028Y20550000D01*
X26800012Y20549999D01*
X26697302Y20539506D01*
X26530880Y20484359D01*
X26530875Y20484357D01*
X26381654Y20392316D01*
X26257684Y20268346D01*
X26165643Y20119125D01*
X26165641Y20119120D01*
X26110494Y19952698D01*
X26110493Y19952691D01*
X26100000Y19849987D01*
X22375500Y19849987D01*
X22375500Y21811606D01*
X22374310Y21817589D01*
X22366652Y21856087D01*
X22351463Y21932451D01*
X22349001Y21938394D01*
X22308399Y22036417D01*
X22304312Y22046285D01*
X22282244Y22079311D01*
X22235858Y22148733D01*
X22235856Y22148736D01*
X22145637Y22238955D01*
X22145606Y22238984D01*
X20990198Y23394392D01*
X20990178Y23394414D01*
X20898733Y23485859D01*
X20847509Y23520085D01*
X20796287Y23554311D01*
X20796286Y23554312D01*
X20796283Y23554314D01*
X20796280Y23554315D01*
X20715792Y23587653D01*
X20682453Y23601463D01*
X20672427Y23603457D01*
X20622029Y23613482D01*
X20561610Y23625500D01*
X20561607Y23625500D01*
X20561606Y23625500D01*
X18424000Y23625500D01*
X18356961Y23645185D01*
X18311206Y23697989D01*
X18300000Y23749500D01*
X18300000Y24060544D01*
X18310000Y24094600D01*
X18310000Y25026988D01*
X18367007Y24994075D01*
X18494174Y24960000D01*
X18625826Y24960000D01*
X18752993Y24994075D01*
X18810000Y25026988D01*
X18810000Y24129366D01*
G37*
%TD.AperFunction*%
%TD*%
M02*
