%TF.GenerationSoftware,KiCad,Pcbnew,8.0.2*%
%TF.CreationDate,2024-05-17T00:49:12+07:00*%
%TF.ProjectId,ADC_pHAT,4144435f-7048-4415-942e-6b696361645f,rev?*%
%TF.SameCoordinates,PX5cbead0PY56c8cc0*%
%TF.FileFunction,Soldermask,Top*%
%TF.FilePolarity,Negative*%
%FSLAX46Y46*%
G04 Gerber Fmt 4.6, Leading zero omitted, Abs format (unit mm)*
G04 Created by KiCad (PCBNEW 8.0.2) date 2024-05-17 00:49:12*
%MOMM*%
%LPD*%
G01*
G04 APERTURE LIST*
G04 Aperture macros list*
%AMRoundRect*
0 Rectangle with rounded corners*
0 $1 Rounding radius*
0 $2 $3 $4 $5 $6 $7 $8 $9 X,Y pos of 4 corners*
0 Add a 4 corners polygon primitive as box body*
4,1,4,$2,$3,$4,$5,$6,$7,$8,$9,$2,$3,0*
0 Add four circle primitives for the rounded corners*
1,1,$1+$1,$2,$3*
1,1,$1+$1,$4,$5*
1,1,$1+$1,$6,$7*
1,1,$1+$1,$8,$9*
0 Add four rect primitives between the rounded corners*
20,1,$1+$1,$2,$3,$4,$5,0*
20,1,$1+$1,$4,$5,$6,$7,0*
20,1,$1+$1,$6,$7,$8,$9,0*
20,1,$1+$1,$8,$9,$2,$3,0*%
G04 Aperture macros list end*
%ADD10R,1.700000X1.700000*%
%ADD11O,1.700000X1.700000*%
%ADD12C,3.200000*%
%ADD13O,1.800000X1.800000*%
%ADD14O,1.500000X1.500000*%
%ADD15RoundRect,0.425000X-0.425000X1.325000X-0.425000X-1.325000X0.425000X-1.325000X0.425000X1.325000X0*%
%ADD16RoundRect,0.425000X-1.325000X-0.425000X1.325000X-0.425000X1.325000X0.425000X-1.325000X0.425000X0*%
%ADD17C,1.700000*%
%ADD18R,4.900000X4.800000*%
G04 APERTURE END LIST*
D10*
%TO.C,J2*%
X8375000Y25050000D03*
D11*
X8375000Y27590000D03*
X10915000Y25050000D03*
X10915000Y27590000D03*
X13455000Y25050000D03*
X13455000Y27590000D03*
X15995000Y25050000D03*
X15995000Y27590000D03*
X18535000Y25050000D03*
X18535000Y27590000D03*
X21075000Y25050000D03*
X21075000Y27590000D03*
X23615000Y25050000D03*
X23615000Y27590000D03*
X26155000Y25050000D03*
X26155000Y27590000D03*
X28695000Y25050000D03*
X28695000Y27590000D03*
X31235000Y25050000D03*
X31235000Y27590000D03*
X33775000Y25050000D03*
X33775000Y27590000D03*
X36315000Y25050000D03*
X36315000Y27590000D03*
X38855000Y25050000D03*
X38855000Y27590000D03*
X41395000Y25050000D03*
X41395000Y27590000D03*
X43935000Y25050000D03*
X43935000Y27590000D03*
X46475000Y25050000D03*
X46475000Y27590000D03*
X49015000Y25050000D03*
X49015000Y27590000D03*
X51555000Y25050000D03*
X51555000Y27590000D03*
X54095000Y25050000D03*
X54095000Y27590000D03*
X56635000Y25050000D03*
X56635000Y27590000D03*
%TD*%
D12*
%TO.C,REF\u002A\u002A*%
X61500000Y3250000D03*
%TD*%
%TO.C,REF\u002A\u002A*%
X3500000Y3250000D03*
%TD*%
D13*
%TO.C,U1*%
X56500000Y14475000D03*
D14*
X53470000Y14175000D03*
X53470000Y9325000D03*
D13*
X56500000Y9025000D03*
D15*
X56630000Y21540000D03*
X54090000Y21540000D03*
X51550000Y21540000D03*
X49010000Y21540000D03*
X46470000Y21540000D03*
X43930000Y21540000D03*
X41390000Y21540000D03*
X38850000Y21540000D03*
X36310000Y21540000D03*
X33770000Y21540000D03*
X31230000Y21540000D03*
X28690000Y21540000D03*
X26150000Y21540000D03*
X23610000Y21540000D03*
X21070000Y21540000D03*
X18530000Y21540000D03*
X15990000Y21540000D03*
X13450000Y21540000D03*
X10910000Y21540000D03*
X8370000Y21540000D03*
X8370000Y1960000D03*
X10910000Y1960000D03*
X13450000Y1960000D03*
X15990000Y1960000D03*
X18530000Y1960000D03*
X21070000Y1960000D03*
X23610000Y1960000D03*
X26150000Y1960000D03*
X28690000Y1960000D03*
X31230000Y1960000D03*
X33770000Y1960000D03*
X36310000Y1960000D03*
X38850000Y1960000D03*
X41390000Y1960000D03*
X43930000Y1960000D03*
X46470000Y1960000D03*
X49010000Y1960000D03*
X51550000Y1960000D03*
X54090000Y1960000D03*
X56630000Y1960000D03*
D16*
X7700000Y14290000D03*
X7700000Y11750000D03*
X7700000Y9210000D03*
%TD*%
D12*
%TO.C,REF\u002A\u002A*%
X61500000Y26250000D03*
%TD*%
%TO.C,REF\u002A\u002A*%
X3500000Y26250000D03*
%TD*%
D17*
%TO.C, *%
X2250000Y14750000D03*
%TD*%
D18*
%TO.C,J1*%
X2825000Y19000000D03*
X2825000Y10500000D03*
%TD*%
M02*
