%TF.GenerationSoftware,KiCad,Pcbnew,8.0.2*%
%TF.CreationDate,2024-05-24T16:47:28+07:00*%
%TF.ProjectId,ADC_pHAT,4144435f-7048-4415-942e-6b696361645f,rev?*%
%TF.SameCoordinates,PX5cbead0PY5705d50*%
%TF.FileFunction,Legend,Top*%
%TF.FilePolarity,Positive*%
%FSLAX46Y46*%
G04 Gerber Fmt 4.6, Leading zero omitted, Abs format (unit mm)*
G04 Created by KiCad (PCBNEW 8.0.2) date 2024-05-24 16:47:28*
%MOMM*%
%LPD*%
G01*
G04 APERTURE LIST*
%ADD10C,0.100000*%
%ADD11C,0.150000*%
%ADD12C,0.120000*%
%ADD13C,0.200000*%
G04 APERTURE END LIST*
D10*
X32175000Y1025000D02*
X30575000Y1025000D01*
X30575000Y1025000D02*
X30725000Y1175000D01*
X30575000Y1025000D02*
X30725000Y875000D01*
X59200000Y19700000D02*
X59350000Y19850000D01*
X59200000Y19700000D02*
X59350000Y19550000D01*
X60800000Y19700000D02*
X59200000Y19700000D01*
X60656637Y20900000D02*
G75*
G02*
X59143363Y20900000I-756637J0D01*
G01*
X59143363Y20900000D02*
G75*
G02*
X60656637Y20900000I756637J0D01*
G01*
X59706265Y20769933D02*
X60182455Y20769933D01*
X59611027Y20484218D02*
X59944360Y21484218D01*
X59944360Y21484218D02*
X60277693Y20484218D01*
X32106637Y2143363D02*
G75*
G02*
X30593363Y2143363I-756637J0D01*
G01*
X30593363Y2143363D02*
G75*
G02*
X32106637Y2143363I756637J0D01*
G01*
X31156265Y2013296D02*
X31632455Y2013296D01*
X31061027Y1727581D02*
X31394360Y2727581D01*
X31394360Y2727581D02*
X31727693Y1727581D01*
G36*
X63717823Y21495009D02*
G01*
X63718016Y21494720D01*
X63756697Y21459299D01*
X63798672Y21381346D01*
X63801691Y21101754D01*
X63421917Y21100336D01*
X63419017Y21368915D01*
X63455104Y21446909D01*
X63455393Y21447101D01*
X63490814Y21485783D01*
X63569028Y21527899D01*
X63641526Y21530311D01*
X63717823Y21495009D01*
G37*
G36*
X64241631Y21542628D02*
G01*
X64241825Y21542338D01*
X64280507Y21506918D01*
X64322474Y21428979D01*
X64325568Y21103711D01*
X63898088Y21102114D01*
X63895196Y21369922D01*
X63896043Y21371407D01*
X63935375Y21498863D01*
X63967004Y21533402D01*
X64045102Y21575455D01*
X64164615Y21578263D01*
X64241631Y21542628D01*
G37*
G36*
X64533530Y18892774D02*
G01*
X63211308Y18892774D01*
X63211308Y19644447D01*
X63326225Y19644447D01*
X63326225Y19606179D01*
X63353285Y19579119D01*
X63372419Y19575313D01*
X64163141Y19578945D01*
X64241631Y19542628D01*
X64241825Y19542338D01*
X64280507Y19506918D01*
X64322527Y19428882D01*
X64325555Y19262093D01*
X64289733Y19184673D01*
X64289445Y19184479D01*
X64254022Y19145797D01*
X64176137Y19103859D01*
X63353285Y19100079D01*
X63326225Y19073019D01*
X63326225Y19034751D01*
X63353285Y19007691D01*
X63372419Y19003885D01*
X64174808Y19007571D01*
X64185487Y19004011D01*
X64198887Y19007681D01*
X64201076Y19007691D01*
X64201887Y19008503D01*
X64204303Y19009164D01*
X64290003Y19055310D01*
X64296314Y19055310D01*
X64312535Y19066148D01*
X64314873Y19068702D01*
X64314952Y19068744D01*
X64314974Y19068813D01*
X64352330Y19109608D01*
X64357560Y19111350D01*
X64369521Y19126762D01*
X64412037Y19218652D01*
X64418613Y19225227D01*
X64421277Y19238621D01*
X64422293Y19240816D01*
X64421930Y19241905D01*
X64422419Y19244361D01*
X64419071Y19428718D01*
X64422293Y19438382D01*
X64418654Y19451667D01*
X64418613Y19453971D01*
X64417801Y19454783D01*
X64417140Y19457198D01*
X64370994Y19542899D01*
X64370994Y19549210D01*
X64360155Y19565431D01*
X64357603Y19567768D01*
X64357560Y19567848D01*
X64357489Y19567872D01*
X64316694Y19605227D01*
X64314952Y19610454D01*
X64299540Y19622416D01*
X64207651Y19664932D01*
X64201076Y19671507D01*
X64187682Y19674172D01*
X64185487Y19675187D01*
X64184398Y19674825D01*
X64181942Y19675313D01*
X63353285Y19671507D01*
X63326225Y19644447D01*
X63211308Y19644447D01*
X63211308Y20482456D01*
X63322419Y20482456D01*
X63325847Y20250725D01*
X63322545Y20240816D01*
X63326191Y20227502D01*
X63326225Y20225227D01*
X63327036Y20224416D01*
X63327698Y20222000D01*
X63373844Y20136300D01*
X63373844Y20129989D01*
X63384683Y20113768D01*
X63387234Y20111432D01*
X63387278Y20111351D01*
X63387347Y20111328D01*
X63428141Y20073973D01*
X63429884Y20068744D01*
X63445296Y20056783D01*
X63537185Y20014267D01*
X63543761Y20007691D01*
X63557154Y20005027D01*
X63559350Y20004011D01*
X63560438Y20004374D01*
X63562895Y20003885D01*
X63653054Y20006886D01*
X63661678Y20004011D01*
X63674817Y20007610D01*
X63677267Y20007691D01*
X63678078Y20008503D01*
X63680494Y20009164D01*
X63766194Y20055310D01*
X63772505Y20055310D01*
X63788726Y20066149D01*
X63791062Y20068701D01*
X63791143Y20068744D01*
X63791166Y20068814D01*
X63828521Y20109608D01*
X63833750Y20111350D01*
X63845711Y20126762D01*
X63885415Y20212575D01*
X63888783Y20214595D01*
X63897116Y20232234D01*
X63937899Y20408547D01*
X63940949Y20412476D01*
X63978913Y20494528D01*
X63979202Y20494720D01*
X64014623Y20533402D01*
X64092837Y20575518D01*
X64165335Y20577930D01*
X64241631Y20542628D01*
X64241825Y20542338D01*
X64280507Y20506918D01*
X64322506Y20428920D01*
X64325689Y20213790D01*
X64324985Y20212553D01*
X64274926Y20050341D01*
X64292040Y20016112D01*
X64328344Y20004011D01*
X64362573Y20021125D01*
X64372234Y20038074D01*
X64413813Y20172809D01*
X64418613Y20177608D01*
X64422419Y20196742D01*
X64418990Y20428475D01*
X64422293Y20438382D01*
X64418646Y20451697D01*
X64418613Y20453971D01*
X64417801Y20454783D01*
X64417140Y20457198D01*
X64370994Y20542899D01*
X64370994Y20549210D01*
X64360155Y20565431D01*
X64357603Y20567768D01*
X64357560Y20567848D01*
X64357489Y20567872D01*
X64316694Y20605227D01*
X64314952Y20610454D01*
X64299540Y20622416D01*
X64207651Y20664932D01*
X64201076Y20671507D01*
X64187682Y20674172D01*
X64185487Y20675187D01*
X64184398Y20674825D01*
X64181942Y20675313D01*
X64091781Y20672313D01*
X64083159Y20675187D01*
X64070019Y20671589D01*
X64067570Y20671507D01*
X64066758Y20670696D01*
X64064343Y20670034D01*
X63978642Y20623888D01*
X63972331Y20623888D01*
X63956110Y20613049D01*
X63953773Y20610498D01*
X63953693Y20610454D01*
X63953669Y20610384D01*
X63916315Y20569590D01*
X63911087Y20567847D01*
X63899125Y20552435D01*
X63859420Y20466624D01*
X63856054Y20464603D01*
X63847721Y20446964D01*
X63806937Y20270652D01*
X63803887Y20266721D01*
X63765923Y20184672D01*
X63765634Y20184478D01*
X63730214Y20145797D01*
X63651998Y20103681D01*
X63579502Y20101269D01*
X63503205Y20136571D01*
X63503012Y20136860D01*
X63464330Y20172280D01*
X63422331Y20250280D01*
X63419148Y20465409D01*
X63419853Y20466645D01*
X63469912Y20628857D01*
X63452798Y20663085D01*
X63416494Y20675187D01*
X63382265Y20658072D01*
X63372604Y20641124D01*
X63331024Y20506390D01*
X63326225Y20501590D01*
X63322419Y20482456D01*
X63211308Y20482456D01*
X63211308Y21387218D01*
X63322419Y21387218D01*
X63326225Y21034751D01*
X63353285Y21007691D01*
X63372419Y21003885D01*
X64391553Y21007691D01*
X64418613Y21034751D01*
X64422419Y21053885D01*
X64418859Y21428082D01*
X64422293Y21438382D01*
X64418634Y21451742D01*
X64418613Y21453971D01*
X64417801Y21454783D01*
X64417140Y21457198D01*
X64370994Y21542899D01*
X64370994Y21549210D01*
X64360155Y21565431D01*
X64357603Y21567768D01*
X64357560Y21567848D01*
X64357489Y21567872D01*
X64316694Y21605227D01*
X64314952Y21610454D01*
X64299540Y21622416D01*
X64207651Y21664932D01*
X64201076Y21671507D01*
X64187682Y21674172D01*
X64185487Y21675187D01*
X64184398Y21674825D01*
X64181942Y21675313D01*
X64044826Y21672092D01*
X64035540Y21675187D01*
X64022304Y21671563D01*
X64019951Y21671507D01*
X64019139Y21670696D01*
X64016724Y21670034D01*
X63931023Y21623888D01*
X63924712Y21623888D01*
X63908491Y21613049D01*
X63906154Y21610498D01*
X63906074Y21610454D01*
X63906050Y21610384D01*
X63865934Y21566574D01*
X63858455Y21562834D01*
X63851767Y21551102D01*
X63850034Y21549209D01*
X63850034Y21548062D01*
X63848794Y21545886D01*
X63838934Y21513937D01*
X63836345Y21517812D01*
X63833793Y21520149D01*
X63833750Y21520229D01*
X63833679Y21520253D01*
X63792885Y21557607D01*
X63791143Y21562835D01*
X63775731Y21574797D01*
X63683842Y21617313D01*
X63677267Y21623888D01*
X63663873Y21626553D01*
X63661678Y21627568D01*
X63660589Y21627206D01*
X63658133Y21627694D01*
X63567972Y21624694D01*
X63559350Y21627568D01*
X63546210Y21623970D01*
X63543761Y21623888D01*
X63542949Y21623077D01*
X63540534Y21622415D01*
X63454833Y21576269D01*
X63448522Y21576269D01*
X63432301Y21565430D01*
X63429964Y21562879D01*
X63429884Y21562835D01*
X63429860Y21562765D01*
X63392506Y21521971D01*
X63387278Y21520228D01*
X63375316Y21504816D01*
X63332800Y21412928D01*
X63326225Y21406352D01*
X63323560Y21392959D01*
X63322545Y21390763D01*
X63322907Y21389675D01*
X63322419Y21387218D01*
X63211308Y21387218D01*
X63211308Y21786424D01*
X64533530Y21786424D01*
X64533530Y18892774D01*
G37*
D11*
X12857142Y22390420D02*
X12809523Y22342800D01*
X12809523Y22342800D02*
X12666666Y22295181D01*
X12666666Y22295181D02*
X12571428Y22295181D01*
X12571428Y22295181D02*
X12428571Y22342800D01*
X12428571Y22342800D02*
X12333333Y22438039D01*
X12333333Y22438039D02*
X12285714Y22533277D01*
X12285714Y22533277D02*
X12238095Y22723753D01*
X12238095Y22723753D02*
X12238095Y22866610D01*
X12238095Y22866610D02*
X12285714Y23057086D01*
X12285714Y23057086D02*
X12333333Y23152324D01*
X12333333Y23152324D02*
X12428571Y23247562D01*
X12428571Y23247562D02*
X12571428Y23295181D01*
X12571428Y23295181D02*
X12666666Y23295181D01*
X12666666Y23295181D02*
X12809523Y23247562D01*
X12809523Y23247562D02*
X12857142Y23199943D01*
X13809523Y22295181D02*
X13238095Y22295181D01*
X13523809Y22295181D02*
X13523809Y23295181D01*
X13523809Y23295181D02*
X13428571Y23152324D01*
X13428571Y23152324D02*
X13333333Y23057086D01*
X13333333Y23057086D02*
X13238095Y23009467D01*
X14714285Y23295181D02*
X14238095Y23295181D01*
X14238095Y23295181D02*
X14190476Y22818991D01*
X14190476Y22818991D02*
X14238095Y22866610D01*
X14238095Y22866610D02*
X14333333Y22914229D01*
X14333333Y22914229D02*
X14571428Y22914229D01*
X14571428Y22914229D02*
X14666666Y22866610D01*
X14666666Y22866610D02*
X14714285Y22818991D01*
X14714285Y22818991D02*
X14761904Y22723753D01*
X14761904Y22723753D02*
X14761904Y22485658D01*
X14761904Y22485658D02*
X14714285Y22390420D01*
X14714285Y22390420D02*
X14666666Y22342800D01*
X14666666Y22342800D02*
X14571428Y22295181D01*
X14571428Y22295181D02*
X14333333Y22295181D01*
X14333333Y22295181D02*
X14238095Y22342800D01*
X14238095Y22342800D02*
X14190476Y22390420D01*
X27859580Y21607143D02*
X27907200Y21559524D01*
X27907200Y21559524D02*
X27954819Y21416667D01*
X27954819Y21416667D02*
X27954819Y21321429D01*
X27954819Y21321429D02*
X27907200Y21178572D01*
X27907200Y21178572D02*
X27811961Y21083334D01*
X27811961Y21083334D02*
X27716723Y21035715D01*
X27716723Y21035715D02*
X27526247Y20988096D01*
X27526247Y20988096D02*
X27383390Y20988096D01*
X27383390Y20988096D02*
X27192914Y21035715D01*
X27192914Y21035715D02*
X27097676Y21083334D01*
X27097676Y21083334D02*
X27002438Y21178572D01*
X27002438Y21178572D02*
X26954819Y21321429D01*
X26954819Y21321429D02*
X26954819Y21416667D01*
X26954819Y21416667D02*
X27002438Y21559524D01*
X27002438Y21559524D02*
X27050057Y21607143D01*
X27954819Y22559524D02*
X27954819Y21988096D01*
X27954819Y22273810D02*
X26954819Y22273810D01*
X26954819Y22273810D02*
X27097676Y22178572D01*
X27097676Y22178572D02*
X27192914Y22083334D01*
X27192914Y22083334D02*
X27240533Y21988096D01*
X26954819Y22892858D02*
X26954819Y23511905D01*
X26954819Y23511905D02*
X27335771Y23178572D01*
X27335771Y23178572D02*
X27335771Y23321429D01*
X27335771Y23321429D02*
X27383390Y23416667D01*
X27383390Y23416667D02*
X27431009Y23464286D01*
X27431009Y23464286D02*
X27526247Y23511905D01*
X27526247Y23511905D02*
X27764342Y23511905D01*
X27764342Y23511905D02*
X27859580Y23464286D01*
X27859580Y23464286D02*
X27907200Y23416667D01*
X27907200Y23416667D02*
X27954819Y23321429D01*
X27954819Y23321429D02*
X27954819Y23035715D01*
X27954819Y23035715D02*
X27907200Y22940477D01*
X27907200Y22940477D02*
X27859580Y22892858D01*
X20859580Y1583334D02*
X20907200Y1535715D01*
X20907200Y1535715D02*
X20954819Y1392858D01*
X20954819Y1392858D02*
X20954819Y1297620D01*
X20954819Y1297620D02*
X20907200Y1154763D01*
X20907200Y1154763D02*
X20811961Y1059525D01*
X20811961Y1059525D02*
X20716723Y1011906D01*
X20716723Y1011906D02*
X20526247Y964287D01*
X20526247Y964287D02*
X20383390Y964287D01*
X20383390Y964287D02*
X20192914Y1011906D01*
X20192914Y1011906D02*
X20097676Y1059525D01*
X20097676Y1059525D02*
X20002438Y1154763D01*
X20002438Y1154763D02*
X19954819Y1297620D01*
X19954819Y1297620D02*
X19954819Y1392858D01*
X19954819Y1392858D02*
X20002438Y1535715D01*
X20002438Y1535715D02*
X20050057Y1583334D01*
X20954819Y2059525D02*
X20954819Y2250001D01*
X20954819Y2250001D02*
X20907200Y2345239D01*
X20907200Y2345239D02*
X20859580Y2392858D01*
X20859580Y2392858D02*
X20716723Y2488096D01*
X20716723Y2488096D02*
X20526247Y2535715D01*
X20526247Y2535715D02*
X20145295Y2535715D01*
X20145295Y2535715D02*
X20050057Y2488096D01*
X20050057Y2488096D02*
X20002438Y2440477D01*
X20002438Y2440477D02*
X19954819Y2345239D01*
X19954819Y2345239D02*
X19954819Y2154763D01*
X19954819Y2154763D02*
X20002438Y2059525D01*
X20002438Y2059525D02*
X20050057Y2011906D01*
X20050057Y2011906D02*
X20145295Y1964287D01*
X20145295Y1964287D02*
X20383390Y1964287D01*
X20383390Y1964287D02*
X20478628Y2011906D01*
X20478628Y2011906D02*
X20526247Y2059525D01*
X20526247Y2059525D02*
X20573866Y2154763D01*
X20573866Y2154763D02*
X20573866Y2345239D01*
X20573866Y2345239D02*
X20526247Y2440477D01*
X20526247Y2440477D02*
X20478628Y2488096D01*
X20478628Y2488096D02*
X20383390Y2535715D01*
X24609580Y1583334D02*
X24657200Y1535715D01*
X24657200Y1535715D02*
X24704819Y1392858D01*
X24704819Y1392858D02*
X24704819Y1297620D01*
X24704819Y1297620D02*
X24657200Y1154763D01*
X24657200Y1154763D02*
X24561961Y1059525D01*
X24561961Y1059525D02*
X24466723Y1011906D01*
X24466723Y1011906D02*
X24276247Y964287D01*
X24276247Y964287D02*
X24133390Y964287D01*
X24133390Y964287D02*
X23942914Y1011906D01*
X23942914Y1011906D02*
X23847676Y1059525D01*
X23847676Y1059525D02*
X23752438Y1154763D01*
X23752438Y1154763D02*
X23704819Y1297620D01*
X23704819Y1297620D02*
X23704819Y1392858D01*
X23704819Y1392858D02*
X23752438Y1535715D01*
X23752438Y1535715D02*
X23800057Y1583334D01*
X24038152Y2440477D02*
X24704819Y2440477D01*
X23657200Y2202382D02*
X24371485Y1964287D01*
X24371485Y1964287D02*
X24371485Y2583334D01*
X13083333Y19295181D02*
X12750000Y19771372D01*
X12511905Y19295181D02*
X12511905Y20295181D01*
X12511905Y20295181D02*
X12892857Y20295181D01*
X12892857Y20295181D02*
X12988095Y20247562D01*
X12988095Y20247562D02*
X13035714Y20199943D01*
X13035714Y20199943D02*
X13083333Y20104705D01*
X13083333Y20104705D02*
X13083333Y19961848D01*
X13083333Y19961848D02*
X13035714Y19866610D01*
X13035714Y19866610D02*
X12988095Y19818991D01*
X12988095Y19818991D02*
X12892857Y19771372D01*
X12892857Y19771372D02*
X12511905Y19771372D01*
X13416667Y20295181D02*
X14035714Y20295181D01*
X14035714Y20295181D02*
X13702381Y19914229D01*
X13702381Y19914229D02*
X13845238Y19914229D01*
X13845238Y19914229D02*
X13940476Y19866610D01*
X13940476Y19866610D02*
X13988095Y19818991D01*
X13988095Y19818991D02*
X14035714Y19723753D01*
X14035714Y19723753D02*
X14035714Y19485658D01*
X14035714Y19485658D02*
X13988095Y19390420D01*
X13988095Y19390420D02*
X13940476Y19342800D01*
X13940476Y19342800D02*
X13845238Y19295181D01*
X13845238Y19295181D02*
X13559524Y19295181D01*
X13559524Y19295181D02*
X13464286Y19342800D01*
X13464286Y19342800D02*
X13416667Y19390420D01*
X17204819Y1583334D02*
X16728628Y1250001D01*
X17204819Y1011906D02*
X16204819Y1011906D01*
X16204819Y1011906D02*
X16204819Y1392858D01*
X16204819Y1392858D02*
X16252438Y1488096D01*
X16252438Y1488096D02*
X16300057Y1535715D01*
X16300057Y1535715D02*
X16395295Y1583334D01*
X16395295Y1583334D02*
X16538152Y1583334D01*
X16538152Y1583334D02*
X16633390Y1535715D01*
X16633390Y1535715D02*
X16681009Y1488096D01*
X16681009Y1488096D02*
X16728628Y1392858D01*
X16728628Y1392858D02*
X16728628Y1011906D01*
X16204819Y2488096D02*
X16204819Y2011906D01*
X16204819Y2011906D02*
X16681009Y1964287D01*
X16681009Y1964287D02*
X16633390Y2011906D01*
X16633390Y2011906D02*
X16585771Y2107144D01*
X16585771Y2107144D02*
X16585771Y2345239D01*
X16585771Y2345239D02*
X16633390Y2440477D01*
X16633390Y2440477D02*
X16681009Y2488096D01*
X16681009Y2488096D02*
X16776247Y2535715D01*
X16776247Y2535715D02*
X17014342Y2535715D01*
X17014342Y2535715D02*
X17109580Y2488096D01*
X17109580Y2488096D02*
X17157200Y2440477D01*
X17157200Y2440477D02*
X17204819Y2345239D01*
X17204819Y2345239D02*
X17204819Y2107144D01*
X17204819Y2107144D02*
X17157200Y2011906D01*
X17157200Y2011906D02*
X17109580Y1964287D01*
X29488095Y11045181D02*
X29488095Y10235658D01*
X29488095Y10235658D02*
X29535714Y10140420D01*
X29535714Y10140420D02*
X29583333Y10092800D01*
X29583333Y10092800D02*
X29678571Y10045181D01*
X29678571Y10045181D02*
X29869047Y10045181D01*
X29869047Y10045181D02*
X29964285Y10092800D01*
X29964285Y10092800D02*
X30011904Y10140420D01*
X30011904Y10140420D02*
X30059523Y10235658D01*
X30059523Y10235658D02*
X30059523Y11045181D01*
X30964285Y10711848D02*
X30964285Y10045181D01*
X30726190Y11092800D02*
X30488095Y10378515D01*
X30488095Y10378515D02*
X31107142Y10378515D01*
X41988095Y7045181D02*
X41988095Y6235658D01*
X41988095Y6235658D02*
X42035714Y6140420D01*
X42035714Y6140420D02*
X42083333Y6092800D01*
X42083333Y6092800D02*
X42178571Y6045181D01*
X42178571Y6045181D02*
X42369047Y6045181D01*
X42369047Y6045181D02*
X42464285Y6092800D01*
X42464285Y6092800D02*
X42511904Y6140420D01*
X42511904Y6140420D02*
X42559523Y6235658D01*
X42559523Y6235658D02*
X42559523Y7045181D01*
X42988095Y6949943D02*
X43035714Y6997562D01*
X43035714Y6997562D02*
X43130952Y7045181D01*
X43130952Y7045181D02*
X43369047Y7045181D01*
X43369047Y7045181D02*
X43464285Y6997562D01*
X43464285Y6997562D02*
X43511904Y6949943D01*
X43511904Y6949943D02*
X43559523Y6854705D01*
X43559523Y6854705D02*
X43559523Y6759467D01*
X43559523Y6759467D02*
X43511904Y6616610D01*
X43511904Y6616610D02*
X42940476Y6045181D01*
X42940476Y6045181D02*
X43559523Y6045181D01*
X34357142Y5140420D02*
X34309523Y5092800D01*
X34309523Y5092800D02*
X34166666Y5045181D01*
X34166666Y5045181D02*
X34071428Y5045181D01*
X34071428Y5045181D02*
X33928571Y5092800D01*
X33928571Y5092800D02*
X33833333Y5188039D01*
X33833333Y5188039D02*
X33785714Y5283277D01*
X33785714Y5283277D02*
X33738095Y5473753D01*
X33738095Y5473753D02*
X33738095Y5616610D01*
X33738095Y5616610D02*
X33785714Y5807086D01*
X33785714Y5807086D02*
X33833333Y5902324D01*
X33833333Y5902324D02*
X33928571Y5997562D01*
X33928571Y5997562D02*
X34071428Y6045181D01*
X34071428Y6045181D02*
X34166666Y6045181D01*
X34166666Y6045181D02*
X34309523Y5997562D01*
X34309523Y5997562D02*
X34357142Y5949943D01*
X35309523Y5045181D02*
X34738095Y5045181D01*
X35023809Y5045181D02*
X35023809Y6045181D01*
X35023809Y6045181D02*
X34928571Y5902324D01*
X34928571Y5902324D02*
X34833333Y5807086D01*
X34833333Y5807086D02*
X34738095Y5759467D01*
X36261904Y5045181D02*
X35690476Y5045181D01*
X35976190Y5045181D02*
X35976190Y6045181D01*
X35976190Y6045181D02*
X35880952Y5902324D01*
X35880952Y5902324D02*
X35785714Y5807086D01*
X35785714Y5807086D02*
X35690476Y5759467D01*
X34833333Y3640420D02*
X34785714Y3592800D01*
X34785714Y3592800D02*
X34642857Y3545181D01*
X34642857Y3545181D02*
X34547619Y3545181D01*
X34547619Y3545181D02*
X34404762Y3592800D01*
X34404762Y3592800D02*
X34309524Y3688039D01*
X34309524Y3688039D02*
X34261905Y3783277D01*
X34261905Y3783277D02*
X34214286Y3973753D01*
X34214286Y3973753D02*
X34214286Y4116610D01*
X34214286Y4116610D02*
X34261905Y4307086D01*
X34261905Y4307086D02*
X34309524Y4402324D01*
X34309524Y4402324D02*
X34404762Y4497562D01*
X34404762Y4497562D02*
X34547619Y4545181D01*
X34547619Y4545181D02*
X34642857Y4545181D01*
X34642857Y4545181D02*
X34785714Y4497562D01*
X34785714Y4497562D02*
X34833333Y4449943D01*
X35166667Y4545181D02*
X35833333Y4545181D01*
X35833333Y4545181D02*
X35404762Y3545181D01*
X10704819Y6083334D02*
X10228628Y5750001D01*
X10704819Y5511906D02*
X9704819Y5511906D01*
X9704819Y5511906D02*
X9704819Y5892858D01*
X9704819Y5892858D02*
X9752438Y5988096D01*
X9752438Y5988096D02*
X9800057Y6035715D01*
X9800057Y6035715D02*
X9895295Y6083334D01*
X9895295Y6083334D02*
X10038152Y6083334D01*
X10038152Y6083334D02*
X10133390Y6035715D01*
X10133390Y6035715D02*
X10181009Y5988096D01*
X10181009Y5988096D02*
X10228628Y5892858D01*
X10228628Y5892858D02*
X10228628Y5511906D01*
X10133390Y6654763D02*
X10085771Y6559525D01*
X10085771Y6559525D02*
X10038152Y6511906D01*
X10038152Y6511906D02*
X9942914Y6464287D01*
X9942914Y6464287D02*
X9895295Y6464287D01*
X9895295Y6464287D02*
X9800057Y6511906D01*
X9800057Y6511906D02*
X9752438Y6559525D01*
X9752438Y6559525D02*
X9704819Y6654763D01*
X9704819Y6654763D02*
X9704819Y6845239D01*
X9704819Y6845239D02*
X9752438Y6940477D01*
X9752438Y6940477D02*
X9800057Y6988096D01*
X9800057Y6988096D02*
X9895295Y7035715D01*
X9895295Y7035715D02*
X9942914Y7035715D01*
X9942914Y7035715D02*
X10038152Y6988096D01*
X10038152Y6988096D02*
X10085771Y6940477D01*
X10085771Y6940477D02*
X10133390Y6845239D01*
X10133390Y6845239D02*
X10133390Y6654763D01*
X10133390Y6654763D02*
X10181009Y6559525D01*
X10181009Y6559525D02*
X10228628Y6511906D01*
X10228628Y6511906D02*
X10323866Y6464287D01*
X10323866Y6464287D02*
X10514342Y6464287D01*
X10514342Y6464287D02*
X10609580Y6511906D01*
X10609580Y6511906D02*
X10657200Y6559525D01*
X10657200Y6559525D02*
X10704819Y6654763D01*
X10704819Y6654763D02*
X10704819Y6845239D01*
X10704819Y6845239D02*
X10657200Y6940477D01*
X10657200Y6940477D02*
X10609580Y6988096D01*
X10609580Y6988096D02*
X10514342Y7035715D01*
X10514342Y7035715D02*
X10323866Y7035715D01*
X10323866Y7035715D02*
X10228628Y6988096D01*
X10228628Y6988096D02*
X10181009Y6940477D01*
X10181009Y6940477D02*
X10133390Y6845239D01*
X49833333Y12795181D02*
X49500000Y13271372D01*
X49261905Y12795181D02*
X49261905Y13795181D01*
X49261905Y13795181D02*
X49642857Y13795181D01*
X49642857Y13795181D02*
X49738095Y13747562D01*
X49738095Y13747562D02*
X49785714Y13699943D01*
X49785714Y13699943D02*
X49833333Y13604705D01*
X49833333Y13604705D02*
X49833333Y13461848D01*
X49833333Y13461848D02*
X49785714Y13366610D01*
X49785714Y13366610D02*
X49738095Y13318991D01*
X49738095Y13318991D02*
X49642857Y13271372D01*
X49642857Y13271372D02*
X49261905Y13271372D01*
X50214286Y13699943D02*
X50261905Y13747562D01*
X50261905Y13747562D02*
X50357143Y13795181D01*
X50357143Y13795181D02*
X50595238Y13795181D01*
X50595238Y13795181D02*
X50690476Y13747562D01*
X50690476Y13747562D02*
X50738095Y13699943D01*
X50738095Y13699943D02*
X50785714Y13604705D01*
X50785714Y13604705D02*
X50785714Y13509467D01*
X50785714Y13509467D02*
X50738095Y13366610D01*
X50738095Y13366610D02*
X50166667Y12795181D01*
X50166667Y12795181D02*
X50785714Y12795181D01*
X29859580Y1583334D02*
X29907200Y1535715D01*
X29907200Y1535715D02*
X29954819Y1392858D01*
X29954819Y1392858D02*
X29954819Y1297620D01*
X29954819Y1297620D02*
X29907200Y1154763D01*
X29907200Y1154763D02*
X29811961Y1059525D01*
X29811961Y1059525D02*
X29716723Y1011906D01*
X29716723Y1011906D02*
X29526247Y964287D01*
X29526247Y964287D02*
X29383390Y964287D01*
X29383390Y964287D02*
X29192914Y1011906D01*
X29192914Y1011906D02*
X29097676Y1059525D01*
X29097676Y1059525D02*
X29002438Y1154763D01*
X29002438Y1154763D02*
X28954819Y1297620D01*
X28954819Y1297620D02*
X28954819Y1392858D01*
X28954819Y1392858D02*
X29002438Y1535715D01*
X29002438Y1535715D02*
X29050057Y1583334D01*
X29050057Y1964287D02*
X29002438Y2011906D01*
X29002438Y2011906D02*
X28954819Y2107144D01*
X28954819Y2107144D02*
X28954819Y2345239D01*
X28954819Y2345239D02*
X29002438Y2440477D01*
X29002438Y2440477D02*
X29050057Y2488096D01*
X29050057Y2488096D02*
X29145295Y2535715D01*
X29145295Y2535715D02*
X29240533Y2535715D01*
X29240533Y2535715D02*
X29383390Y2488096D01*
X29383390Y2488096D02*
X29954819Y1916668D01*
X29954819Y1916668D02*
X29954819Y2535715D01*
X10333333Y16640420D02*
X10285714Y16592800D01*
X10285714Y16592800D02*
X10142857Y16545181D01*
X10142857Y16545181D02*
X10047619Y16545181D01*
X10047619Y16545181D02*
X9904762Y16592800D01*
X9904762Y16592800D02*
X9809524Y16688039D01*
X9809524Y16688039D02*
X9761905Y16783277D01*
X9761905Y16783277D02*
X9714286Y16973753D01*
X9714286Y16973753D02*
X9714286Y17116610D01*
X9714286Y17116610D02*
X9761905Y17307086D01*
X9761905Y17307086D02*
X9809524Y17402324D01*
X9809524Y17402324D02*
X9904762Y17497562D01*
X9904762Y17497562D02*
X10047619Y17545181D01*
X10047619Y17545181D02*
X10142857Y17545181D01*
X10142857Y17545181D02*
X10285714Y17497562D01*
X10285714Y17497562D02*
X10333333Y17449943D01*
X10904762Y17116610D02*
X10809524Y17164229D01*
X10809524Y17164229D02*
X10761905Y17211848D01*
X10761905Y17211848D02*
X10714286Y17307086D01*
X10714286Y17307086D02*
X10714286Y17354705D01*
X10714286Y17354705D02*
X10761905Y17449943D01*
X10761905Y17449943D02*
X10809524Y17497562D01*
X10809524Y17497562D02*
X10904762Y17545181D01*
X10904762Y17545181D02*
X11095238Y17545181D01*
X11095238Y17545181D02*
X11190476Y17497562D01*
X11190476Y17497562D02*
X11238095Y17449943D01*
X11238095Y17449943D02*
X11285714Y17354705D01*
X11285714Y17354705D02*
X11285714Y17307086D01*
X11285714Y17307086D02*
X11238095Y17211848D01*
X11238095Y17211848D02*
X11190476Y17164229D01*
X11190476Y17164229D02*
X11095238Y17116610D01*
X11095238Y17116610D02*
X10904762Y17116610D01*
X10904762Y17116610D02*
X10809524Y17068991D01*
X10809524Y17068991D02*
X10761905Y17021372D01*
X10761905Y17021372D02*
X10714286Y16926134D01*
X10714286Y16926134D02*
X10714286Y16735658D01*
X10714286Y16735658D02*
X10761905Y16640420D01*
X10761905Y16640420D02*
X10809524Y16592800D01*
X10809524Y16592800D02*
X10904762Y16545181D01*
X10904762Y16545181D02*
X11095238Y16545181D01*
X11095238Y16545181D02*
X11190476Y16592800D01*
X11190476Y16592800D02*
X11238095Y16640420D01*
X11238095Y16640420D02*
X11285714Y16735658D01*
X11285714Y16735658D02*
X11285714Y16926134D01*
X11285714Y16926134D02*
X11238095Y17021372D01*
X11238095Y17021372D02*
X11190476Y17068991D01*
X11190476Y17068991D02*
X11095238Y17116610D01*
X9454819Y6083334D02*
X8978628Y5750001D01*
X9454819Y5511906D02*
X8454819Y5511906D01*
X8454819Y5511906D02*
X8454819Y5892858D01*
X8454819Y5892858D02*
X8502438Y5988096D01*
X8502438Y5988096D02*
X8550057Y6035715D01*
X8550057Y6035715D02*
X8645295Y6083334D01*
X8645295Y6083334D02*
X8788152Y6083334D01*
X8788152Y6083334D02*
X8883390Y6035715D01*
X8883390Y6035715D02*
X8931009Y5988096D01*
X8931009Y5988096D02*
X8978628Y5892858D01*
X8978628Y5892858D02*
X8978628Y5511906D01*
X8454819Y6416668D02*
X8454819Y7083334D01*
X8454819Y7083334D02*
X9454819Y6654763D01*
X35333333Y15390420D02*
X35285714Y15342800D01*
X35285714Y15342800D02*
X35142857Y15295181D01*
X35142857Y15295181D02*
X35047619Y15295181D01*
X35047619Y15295181D02*
X34904762Y15342800D01*
X34904762Y15342800D02*
X34809524Y15438039D01*
X34809524Y15438039D02*
X34761905Y15533277D01*
X34761905Y15533277D02*
X34714286Y15723753D01*
X34714286Y15723753D02*
X34714286Y15866610D01*
X34714286Y15866610D02*
X34761905Y16057086D01*
X34761905Y16057086D02*
X34809524Y16152324D01*
X34809524Y16152324D02*
X34904762Y16247562D01*
X34904762Y16247562D02*
X35047619Y16295181D01*
X35047619Y16295181D02*
X35142857Y16295181D01*
X35142857Y16295181D02*
X35285714Y16247562D01*
X35285714Y16247562D02*
X35333333Y16199943D01*
X36190476Y16295181D02*
X36000000Y16295181D01*
X36000000Y16295181D02*
X35904762Y16247562D01*
X35904762Y16247562D02*
X35857143Y16199943D01*
X35857143Y16199943D02*
X35761905Y16057086D01*
X35761905Y16057086D02*
X35714286Y15866610D01*
X35714286Y15866610D02*
X35714286Y15485658D01*
X35714286Y15485658D02*
X35761905Y15390420D01*
X35761905Y15390420D02*
X35809524Y15342800D01*
X35809524Y15342800D02*
X35904762Y15295181D01*
X35904762Y15295181D02*
X36095238Y15295181D01*
X36095238Y15295181D02*
X36190476Y15342800D01*
X36190476Y15342800D02*
X36238095Y15390420D01*
X36238095Y15390420D02*
X36285714Y15485658D01*
X36285714Y15485658D02*
X36285714Y15723753D01*
X36285714Y15723753D02*
X36238095Y15818991D01*
X36238095Y15818991D02*
X36190476Y15866610D01*
X36190476Y15866610D02*
X36095238Y15914229D01*
X36095238Y15914229D02*
X35904762Y15914229D01*
X35904762Y15914229D02*
X35809524Y15866610D01*
X35809524Y15866610D02*
X35761905Y15818991D01*
X35761905Y15818991D02*
X35714286Y15723753D01*
X13083333Y17795181D02*
X12750000Y18271372D01*
X12511905Y17795181D02*
X12511905Y18795181D01*
X12511905Y18795181D02*
X12892857Y18795181D01*
X12892857Y18795181D02*
X12988095Y18747562D01*
X12988095Y18747562D02*
X13035714Y18699943D01*
X13035714Y18699943D02*
X13083333Y18604705D01*
X13083333Y18604705D02*
X13083333Y18461848D01*
X13083333Y18461848D02*
X13035714Y18366610D01*
X13035714Y18366610D02*
X12988095Y18318991D01*
X12988095Y18318991D02*
X12892857Y18271372D01*
X12892857Y18271372D02*
X12511905Y18271372D01*
X13559524Y17795181D02*
X13750000Y17795181D01*
X13750000Y17795181D02*
X13845238Y17842800D01*
X13845238Y17842800D02*
X13892857Y17890420D01*
X13892857Y17890420D02*
X13988095Y18033277D01*
X13988095Y18033277D02*
X14035714Y18223753D01*
X14035714Y18223753D02*
X14035714Y18604705D01*
X14035714Y18604705D02*
X13988095Y18699943D01*
X13988095Y18699943D02*
X13940476Y18747562D01*
X13940476Y18747562D02*
X13845238Y18795181D01*
X13845238Y18795181D02*
X13654762Y18795181D01*
X13654762Y18795181D02*
X13559524Y18747562D01*
X13559524Y18747562D02*
X13511905Y18699943D01*
X13511905Y18699943D02*
X13464286Y18604705D01*
X13464286Y18604705D02*
X13464286Y18366610D01*
X13464286Y18366610D02*
X13511905Y18271372D01*
X13511905Y18271372D02*
X13559524Y18223753D01*
X13559524Y18223753D02*
X13654762Y18176134D01*
X13654762Y18176134D02*
X13845238Y18176134D01*
X13845238Y18176134D02*
X13940476Y18223753D01*
X13940476Y18223753D02*
X13988095Y18271372D01*
X13988095Y18271372D02*
X14035714Y18366610D01*
X8204819Y6083334D02*
X7728628Y5750001D01*
X8204819Y5511906D02*
X7204819Y5511906D01*
X7204819Y5511906D02*
X7204819Y5892858D01*
X7204819Y5892858D02*
X7252438Y5988096D01*
X7252438Y5988096D02*
X7300057Y6035715D01*
X7300057Y6035715D02*
X7395295Y6083334D01*
X7395295Y6083334D02*
X7538152Y6083334D01*
X7538152Y6083334D02*
X7633390Y6035715D01*
X7633390Y6035715D02*
X7681009Y5988096D01*
X7681009Y5988096D02*
X7728628Y5892858D01*
X7728628Y5892858D02*
X7728628Y5511906D01*
X7538152Y6940477D02*
X8204819Y6940477D01*
X7157200Y6702382D02*
X7871485Y6464287D01*
X7871485Y6464287D02*
X7871485Y7083334D01*
X1122493Y6880181D02*
X1122493Y6165896D01*
X1122493Y6165896D02*
X1074874Y6023039D01*
X1074874Y6023039D02*
X979636Y5927800D01*
X979636Y5927800D02*
X836779Y5880181D01*
X836779Y5880181D02*
X741541Y5880181D01*
X2122493Y5880181D02*
X1551065Y5880181D01*
X1836779Y5880181D02*
X1836779Y6880181D01*
X1836779Y6880181D02*
X1741541Y6737324D01*
X1741541Y6737324D02*
X1646303Y6642086D01*
X1646303Y6642086D02*
X1551065Y6594467D01*
X28609580Y1583334D02*
X28657200Y1535715D01*
X28657200Y1535715D02*
X28704819Y1392858D01*
X28704819Y1392858D02*
X28704819Y1297620D01*
X28704819Y1297620D02*
X28657200Y1154763D01*
X28657200Y1154763D02*
X28561961Y1059525D01*
X28561961Y1059525D02*
X28466723Y1011906D01*
X28466723Y1011906D02*
X28276247Y964287D01*
X28276247Y964287D02*
X28133390Y964287D01*
X28133390Y964287D02*
X27942914Y1011906D01*
X27942914Y1011906D02*
X27847676Y1059525D01*
X27847676Y1059525D02*
X27752438Y1154763D01*
X27752438Y1154763D02*
X27704819Y1297620D01*
X27704819Y1297620D02*
X27704819Y1392858D01*
X27704819Y1392858D02*
X27752438Y1535715D01*
X27752438Y1535715D02*
X27800057Y1583334D01*
X28704819Y2535715D02*
X28704819Y1964287D01*
X28704819Y2250001D02*
X27704819Y2250001D01*
X27704819Y2250001D02*
X27847676Y2154763D01*
X27847676Y2154763D02*
X27942914Y2059525D01*
X27942914Y2059525D02*
X27990533Y1964287D01*
X18454819Y1583334D02*
X17978628Y1250001D01*
X18454819Y1011906D02*
X17454819Y1011906D01*
X17454819Y1011906D02*
X17454819Y1392858D01*
X17454819Y1392858D02*
X17502438Y1488096D01*
X17502438Y1488096D02*
X17550057Y1535715D01*
X17550057Y1535715D02*
X17645295Y1583334D01*
X17645295Y1583334D02*
X17788152Y1583334D01*
X17788152Y1583334D02*
X17883390Y1535715D01*
X17883390Y1535715D02*
X17931009Y1488096D01*
X17931009Y1488096D02*
X17978628Y1392858D01*
X17978628Y1392858D02*
X17978628Y1011906D01*
X17454819Y2440477D02*
X17454819Y2250001D01*
X17454819Y2250001D02*
X17502438Y2154763D01*
X17502438Y2154763D02*
X17550057Y2107144D01*
X17550057Y2107144D02*
X17692914Y2011906D01*
X17692914Y2011906D02*
X17883390Y1964287D01*
X17883390Y1964287D02*
X18264342Y1964287D01*
X18264342Y1964287D02*
X18359580Y2011906D01*
X18359580Y2011906D02*
X18407200Y2059525D01*
X18407200Y2059525D02*
X18454819Y2154763D01*
X18454819Y2154763D02*
X18454819Y2345239D01*
X18454819Y2345239D02*
X18407200Y2440477D01*
X18407200Y2440477D02*
X18359580Y2488096D01*
X18359580Y2488096D02*
X18264342Y2535715D01*
X18264342Y2535715D02*
X18026247Y2535715D01*
X18026247Y2535715D02*
X17931009Y2488096D01*
X17931009Y2488096D02*
X17883390Y2440477D01*
X17883390Y2440477D02*
X17835771Y2345239D01*
X17835771Y2345239D02*
X17835771Y2154763D01*
X17835771Y2154763D02*
X17883390Y2059525D01*
X17883390Y2059525D02*
X17931009Y2011906D01*
X17931009Y2011906D02*
X18026247Y1964287D01*
X25431009Y1416667D02*
X25431009Y1083334D01*
X25954819Y1083334D02*
X24954819Y1083334D01*
X24954819Y1083334D02*
X24954819Y1559524D01*
X25431009Y2273810D02*
X25478628Y2416667D01*
X25478628Y2416667D02*
X25526247Y2464286D01*
X25526247Y2464286D02*
X25621485Y2511905D01*
X25621485Y2511905D02*
X25764342Y2511905D01*
X25764342Y2511905D02*
X25859580Y2464286D01*
X25859580Y2464286D02*
X25907200Y2416667D01*
X25907200Y2416667D02*
X25954819Y2321429D01*
X25954819Y2321429D02*
X25954819Y1940477D01*
X25954819Y1940477D02*
X24954819Y1940477D01*
X24954819Y1940477D02*
X24954819Y2273810D01*
X24954819Y2273810D02*
X25002438Y2369048D01*
X25002438Y2369048D02*
X25050057Y2416667D01*
X25050057Y2416667D02*
X25145295Y2464286D01*
X25145295Y2464286D02*
X25240533Y2464286D01*
X25240533Y2464286D02*
X25335771Y2416667D01*
X25335771Y2416667D02*
X25383390Y2369048D01*
X25383390Y2369048D02*
X25431009Y2273810D01*
X25431009Y2273810D02*
X25431009Y1940477D01*
X25050057Y2892858D02*
X25002438Y2940477D01*
X25002438Y2940477D02*
X24954819Y3035715D01*
X24954819Y3035715D02*
X24954819Y3273810D01*
X24954819Y3273810D02*
X25002438Y3369048D01*
X25002438Y3369048D02*
X25050057Y3416667D01*
X25050057Y3416667D02*
X25145295Y3464286D01*
X25145295Y3464286D02*
X25240533Y3464286D01*
X25240533Y3464286D02*
X25383390Y3416667D01*
X25383390Y3416667D02*
X25954819Y2845239D01*
X25954819Y2845239D02*
X25954819Y3464286D01*
X19609580Y1607143D02*
X19657200Y1559524D01*
X19657200Y1559524D02*
X19704819Y1416667D01*
X19704819Y1416667D02*
X19704819Y1321429D01*
X19704819Y1321429D02*
X19657200Y1178572D01*
X19657200Y1178572D02*
X19561961Y1083334D01*
X19561961Y1083334D02*
X19466723Y1035715D01*
X19466723Y1035715D02*
X19276247Y988096D01*
X19276247Y988096D02*
X19133390Y988096D01*
X19133390Y988096D02*
X18942914Y1035715D01*
X18942914Y1035715D02*
X18847676Y1083334D01*
X18847676Y1083334D02*
X18752438Y1178572D01*
X18752438Y1178572D02*
X18704819Y1321429D01*
X18704819Y1321429D02*
X18704819Y1416667D01*
X18704819Y1416667D02*
X18752438Y1559524D01*
X18752438Y1559524D02*
X18800057Y1607143D01*
X19704819Y2559524D02*
X19704819Y1988096D01*
X19704819Y2273810D02*
X18704819Y2273810D01*
X18704819Y2273810D02*
X18847676Y2178572D01*
X18847676Y2178572D02*
X18942914Y2083334D01*
X18942914Y2083334D02*
X18990533Y1988096D01*
X18704819Y3178572D02*
X18704819Y3273810D01*
X18704819Y3273810D02*
X18752438Y3369048D01*
X18752438Y3369048D02*
X18800057Y3416667D01*
X18800057Y3416667D02*
X18895295Y3464286D01*
X18895295Y3464286D02*
X19085771Y3511905D01*
X19085771Y3511905D02*
X19323866Y3511905D01*
X19323866Y3511905D02*
X19514342Y3464286D01*
X19514342Y3464286D02*
X19609580Y3416667D01*
X19609580Y3416667D02*
X19657200Y3369048D01*
X19657200Y3369048D02*
X19704819Y3273810D01*
X19704819Y3273810D02*
X19704819Y3178572D01*
X19704819Y3178572D02*
X19657200Y3083334D01*
X19657200Y3083334D02*
X19609580Y3035715D01*
X19609580Y3035715D02*
X19514342Y2988096D01*
X19514342Y2988096D02*
X19323866Y2940477D01*
X19323866Y2940477D02*
X19085771Y2940477D01*
X19085771Y2940477D02*
X18895295Y2988096D01*
X18895295Y2988096D02*
X18800057Y3035715D01*
X18800057Y3035715D02*
X18752438Y3083334D01*
X18752438Y3083334D02*
X18704819Y3178572D01*
X22109580Y1583334D02*
X22157200Y1535715D01*
X22157200Y1535715D02*
X22204819Y1392858D01*
X22204819Y1392858D02*
X22204819Y1297620D01*
X22204819Y1297620D02*
X22157200Y1154763D01*
X22157200Y1154763D02*
X22061961Y1059525D01*
X22061961Y1059525D02*
X21966723Y1011906D01*
X21966723Y1011906D02*
X21776247Y964287D01*
X21776247Y964287D02*
X21633390Y964287D01*
X21633390Y964287D02*
X21442914Y1011906D01*
X21442914Y1011906D02*
X21347676Y1059525D01*
X21347676Y1059525D02*
X21252438Y1154763D01*
X21252438Y1154763D02*
X21204819Y1297620D01*
X21204819Y1297620D02*
X21204819Y1392858D01*
X21204819Y1392858D02*
X21252438Y1535715D01*
X21252438Y1535715D02*
X21300057Y1583334D01*
X21204819Y2488096D02*
X21204819Y2011906D01*
X21204819Y2011906D02*
X21681009Y1964287D01*
X21681009Y1964287D02*
X21633390Y2011906D01*
X21633390Y2011906D02*
X21585771Y2107144D01*
X21585771Y2107144D02*
X21585771Y2345239D01*
X21585771Y2345239D02*
X21633390Y2440477D01*
X21633390Y2440477D02*
X21681009Y2488096D01*
X21681009Y2488096D02*
X21776247Y2535715D01*
X21776247Y2535715D02*
X22014342Y2535715D01*
X22014342Y2535715D02*
X22109580Y2488096D01*
X22109580Y2488096D02*
X22157200Y2440477D01*
X22157200Y2440477D02*
X22204819Y2345239D01*
X22204819Y2345239D02*
X22204819Y2107144D01*
X22204819Y2107144D02*
X22157200Y2011906D01*
X22157200Y2011906D02*
X22109580Y1964287D01*
X26931009Y1416667D02*
X26931009Y1083334D01*
X27454819Y1083334D02*
X26454819Y1083334D01*
X26454819Y1083334D02*
X26454819Y1559524D01*
X26931009Y2273810D02*
X26978628Y2416667D01*
X26978628Y2416667D02*
X27026247Y2464286D01*
X27026247Y2464286D02*
X27121485Y2511905D01*
X27121485Y2511905D02*
X27264342Y2511905D01*
X27264342Y2511905D02*
X27359580Y2464286D01*
X27359580Y2464286D02*
X27407200Y2416667D01*
X27407200Y2416667D02*
X27454819Y2321429D01*
X27454819Y2321429D02*
X27454819Y1940477D01*
X27454819Y1940477D02*
X26454819Y1940477D01*
X26454819Y1940477D02*
X26454819Y2273810D01*
X26454819Y2273810D02*
X26502438Y2369048D01*
X26502438Y2369048D02*
X26550057Y2416667D01*
X26550057Y2416667D02*
X26645295Y2464286D01*
X26645295Y2464286D02*
X26740533Y2464286D01*
X26740533Y2464286D02*
X26835771Y2416667D01*
X26835771Y2416667D02*
X26883390Y2369048D01*
X26883390Y2369048D02*
X26931009Y2273810D01*
X26931009Y2273810D02*
X26931009Y1940477D01*
X27454819Y3464286D02*
X27454819Y2892858D01*
X27454819Y3178572D02*
X26454819Y3178572D01*
X26454819Y3178572D02*
X26597676Y3083334D01*
X26597676Y3083334D02*
X26692914Y2988096D01*
X26692914Y2988096D02*
X26740533Y2892858D01*
X6799819Y6083334D02*
X6323628Y5750001D01*
X6799819Y5511906D02*
X5799819Y5511906D01*
X5799819Y5511906D02*
X5799819Y5892858D01*
X5799819Y5892858D02*
X5847438Y5988096D01*
X5847438Y5988096D02*
X5895057Y6035715D01*
X5895057Y6035715D02*
X5990295Y6083334D01*
X5990295Y6083334D02*
X6133152Y6083334D01*
X6133152Y6083334D02*
X6228390Y6035715D01*
X6228390Y6035715D02*
X6276009Y5988096D01*
X6276009Y5988096D02*
X6323628Y5892858D01*
X6323628Y5892858D02*
X6323628Y5511906D01*
X6799819Y7035715D02*
X6799819Y6464287D01*
X6799819Y6750001D02*
X5799819Y6750001D01*
X5799819Y6750001D02*
X5942676Y6654763D01*
X5942676Y6654763D02*
X6037914Y6559525D01*
X6037914Y6559525D02*
X6085533Y6464287D01*
X12857142Y20890420D02*
X12809523Y20842800D01*
X12809523Y20842800D02*
X12666666Y20795181D01*
X12666666Y20795181D02*
X12571428Y20795181D01*
X12571428Y20795181D02*
X12428571Y20842800D01*
X12428571Y20842800D02*
X12333333Y20938039D01*
X12333333Y20938039D02*
X12285714Y21033277D01*
X12285714Y21033277D02*
X12238095Y21223753D01*
X12238095Y21223753D02*
X12238095Y21366610D01*
X12238095Y21366610D02*
X12285714Y21557086D01*
X12285714Y21557086D02*
X12333333Y21652324D01*
X12333333Y21652324D02*
X12428571Y21747562D01*
X12428571Y21747562D02*
X12571428Y21795181D01*
X12571428Y21795181D02*
X12666666Y21795181D01*
X12666666Y21795181D02*
X12809523Y21747562D01*
X12809523Y21747562D02*
X12857142Y21699943D01*
X13809523Y20795181D02*
X13238095Y20795181D01*
X13523809Y20795181D02*
X13523809Y21795181D01*
X13523809Y21795181D02*
X13428571Y21652324D01*
X13428571Y21652324D02*
X13333333Y21557086D01*
X13333333Y21557086D02*
X13238095Y21509467D01*
X14190476Y21699943D02*
X14238095Y21747562D01*
X14238095Y21747562D02*
X14333333Y21795181D01*
X14333333Y21795181D02*
X14571428Y21795181D01*
X14571428Y21795181D02*
X14666666Y21747562D01*
X14666666Y21747562D02*
X14714285Y21699943D01*
X14714285Y21699943D02*
X14761904Y21604705D01*
X14761904Y21604705D02*
X14761904Y21509467D01*
X14761904Y21509467D02*
X14714285Y21366610D01*
X14714285Y21366610D02*
X14142857Y20795181D01*
X14142857Y20795181D02*
X14761904Y20795181D01*
X33859580Y15857143D02*
X33907200Y15809524D01*
X33907200Y15809524D02*
X33954819Y15666667D01*
X33954819Y15666667D02*
X33954819Y15571429D01*
X33954819Y15571429D02*
X33907200Y15428572D01*
X33907200Y15428572D02*
X33811961Y15333334D01*
X33811961Y15333334D02*
X33716723Y15285715D01*
X33716723Y15285715D02*
X33526247Y15238096D01*
X33526247Y15238096D02*
X33383390Y15238096D01*
X33383390Y15238096D02*
X33192914Y15285715D01*
X33192914Y15285715D02*
X33097676Y15333334D01*
X33097676Y15333334D02*
X33002438Y15428572D01*
X33002438Y15428572D02*
X32954819Y15571429D01*
X32954819Y15571429D02*
X32954819Y15666667D01*
X32954819Y15666667D02*
X33002438Y15809524D01*
X33002438Y15809524D02*
X33050057Y15857143D01*
X33954819Y16809524D02*
X33954819Y16238096D01*
X33954819Y16523810D02*
X32954819Y16523810D01*
X32954819Y16523810D02*
X33097676Y16428572D01*
X33097676Y16428572D02*
X33192914Y16333334D01*
X33192914Y16333334D02*
X33240533Y16238096D01*
X33288152Y17666667D02*
X33954819Y17666667D01*
X32907200Y17428572D02*
X33621485Y17190477D01*
X33621485Y17190477D02*
X33621485Y17809524D01*
X23359580Y1583334D02*
X23407200Y1535715D01*
X23407200Y1535715D02*
X23454819Y1392858D01*
X23454819Y1392858D02*
X23454819Y1297620D01*
X23454819Y1297620D02*
X23407200Y1154763D01*
X23407200Y1154763D02*
X23311961Y1059525D01*
X23311961Y1059525D02*
X23216723Y1011906D01*
X23216723Y1011906D02*
X23026247Y964287D01*
X23026247Y964287D02*
X22883390Y964287D01*
X22883390Y964287D02*
X22692914Y1011906D01*
X22692914Y1011906D02*
X22597676Y1059525D01*
X22597676Y1059525D02*
X22502438Y1154763D01*
X22502438Y1154763D02*
X22454819Y1297620D01*
X22454819Y1297620D02*
X22454819Y1392858D01*
X22454819Y1392858D02*
X22502438Y1535715D01*
X22502438Y1535715D02*
X22550057Y1583334D01*
X22454819Y1916668D02*
X22454819Y2535715D01*
X22454819Y2535715D02*
X22835771Y2202382D01*
X22835771Y2202382D02*
X22835771Y2345239D01*
X22835771Y2345239D02*
X22883390Y2440477D01*
X22883390Y2440477D02*
X22931009Y2488096D01*
X22931009Y2488096D02*
X23026247Y2535715D01*
X23026247Y2535715D02*
X23264342Y2535715D01*
X23264342Y2535715D02*
X23359580Y2488096D01*
X23359580Y2488096D02*
X23407200Y2440477D01*
X23407200Y2440477D02*
X23454819Y2345239D01*
X23454819Y2345239D02*
X23454819Y2059525D01*
X23454819Y2059525D02*
X23407200Y1964287D01*
X23407200Y1964287D02*
X23359580Y1916668D01*
X22273810Y20045181D02*
X22273810Y21045181D01*
X23321428Y20140420D02*
X23273809Y20092800D01*
X23273809Y20092800D02*
X23130952Y20045181D01*
X23130952Y20045181D02*
X23035714Y20045181D01*
X23035714Y20045181D02*
X22892857Y20092800D01*
X22892857Y20092800D02*
X22797619Y20188039D01*
X22797619Y20188039D02*
X22750000Y20283277D01*
X22750000Y20283277D02*
X22702381Y20473753D01*
X22702381Y20473753D02*
X22702381Y20616610D01*
X22702381Y20616610D02*
X22750000Y20807086D01*
X22750000Y20807086D02*
X22797619Y20902324D01*
X22797619Y20902324D02*
X22892857Y20997562D01*
X22892857Y20997562D02*
X23035714Y21045181D01*
X23035714Y21045181D02*
X23130952Y21045181D01*
X23130952Y21045181D02*
X23273809Y20997562D01*
X23273809Y20997562D02*
X23321428Y20949943D01*
X24273809Y20045181D02*
X23702381Y20045181D01*
X23988095Y20045181D02*
X23988095Y21045181D01*
X23988095Y21045181D02*
X23892857Y20902324D01*
X23892857Y20902324D02*
X23797619Y20807086D01*
X23797619Y20807086D02*
X23702381Y20759467D01*
D12*
%TO.C,C15*%
X15150000Y19300000D02*
X19350000Y19300000D01*
X19350000Y21700000D02*
X15150000Y21700000D01*
X15150000Y19300000D02*
G75*
G02*
X15150000Y21700000I1474352J1200000D01*
G01*
X19350000Y21700000D02*
G75*
G02*
X19350000Y19300000I-1408120J-1200000D01*
G01*
%TO.C,C13*%
X26300000Y20100000D02*
X26300000Y15900000D01*
X28700000Y15900000D02*
X28700000Y20100000D01*
X26300000Y20100000D02*
G75*
G02*
X28700000Y20100000I1200000J-1474352D01*
G01*
X28700000Y15900000D02*
G75*
G02*
X26300000Y15900000I-1200000J1408120D01*
G01*
%TO.C,C9*%
X37550000Y22600000D02*
X37550000Y18400000D01*
X39950000Y18400000D02*
X39950000Y22600000D01*
X37550000Y22600000D02*
G75*
G02*
X39950000Y22600000I1200000J-1408120D01*
G01*
X39950000Y18400000D02*
G75*
G02*
X37550000Y18400000I-1200000J1474352D01*
G01*
%TO.C,C4*%
X45050000Y22600000D02*
X45050000Y18400000D01*
X47450000Y18400000D02*
X47450000Y22600000D01*
X45050000Y22600000D02*
G75*
G02*
X47450000Y22600000I1200000J-1408120D01*
G01*
X47450000Y18400000D02*
G75*
G02*
X45050000Y18400000I-1200000J1474352D01*
G01*
%TO.C,R3*%
X14950000Y19450000D02*
X14950000Y17050000D01*
X14950000Y17050000D02*
X19550000Y17050000D01*
X19550000Y19450000D02*
X14950000Y19450000D01*
X19550000Y17050000D02*
X19550000Y19450000D01*
%TO.C,R5*%
X30050000Y22800000D02*
X30050000Y18200000D01*
X30050000Y18200000D02*
X32450000Y18200000D01*
X32450000Y22800000D02*
X30050000Y22800000D01*
X32450000Y18200000D02*
X32450000Y22800000D01*
%TO.C,REF\u002A\u002A*%
X4800000Y15000000D02*
G75*
G02*
X1800000Y15000000I-1500000J0D01*
G01*
X1800000Y15000000D02*
G75*
G02*
X4800000Y15000000I1500000J0D01*
G01*
%TO.C,U4*%
X25000000Y15060000D02*
X23050000Y15060000D01*
X25000000Y15060000D02*
X26950000Y15060000D01*
X25000000Y9940000D02*
X23050000Y9940000D01*
X25000000Y9940000D02*
X26950000Y9940000D01*
X22300000Y14965000D02*
X22060000Y15295000D01*
X22540000Y15295000D01*
X22300000Y14965000D01*
G36*
X22300000Y14965000D02*
G01*
X22060000Y15295000D01*
X22540000Y15295000D01*
X22300000Y14965000D01*
G37*
%TO.C,U2*%
X42500000Y15785000D02*
X40300000Y15785000D01*
X42500000Y15785000D02*
X44700000Y15785000D01*
X42500000Y7715000D02*
X40300000Y7715000D01*
X42500000Y7715000D02*
X44700000Y7715000D01*
X38640000Y15325000D02*
X38310000Y15085000D01*
X38310000Y15565000D01*
X38640000Y15325000D01*
G36*
X38640000Y15325000D02*
G01*
X38310000Y15085000D01*
X38310000Y15565000D01*
X38640000Y15325000D01*
G37*
%TO.C,C11*%
X32900000Y9050000D02*
X37100000Y9050000D01*
X37100000Y11450000D02*
X32900000Y11450000D01*
X32900000Y9050000D02*
G75*
G02*
X32900000Y11450000I1408120J1200000D01*
G01*
X37100000Y11450000D02*
G75*
G02*
X37100000Y9050000I-1474352J-1200000D01*
G01*
%TO.C,C7*%
X32900000Y6550000D02*
X37100000Y6550000D01*
X37100000Y8950000D02*
X32900000Y8950000D01*
X32900000Y6550000D02*
G75*
G02*
X32900000Y8950000I1408120J1200000D01*
G01*
X37100000Y8950000D02*
G75*
G02*
X37100000Y6550000I-1474352J-1200000D01*
G01*
%TO.C,R8*%
X18550000Y10012500D02*
X18550000Y5412500D01*
X18550000Y5412500D02*
X20950000Y5412500D01*
X20950000Y10012500D02*
X18550000Y10012500D01*
X20950000Y5412500D02*
X20950000Y10012500D01*
%TO.C,R2*%
X47700000Y16550000D02*
X47700000Y14150000D01*
X47700000Y14150000D02*
X52300000Y14150000D01*
X52300000Y16550000D02*
X47700000Y16550000D01*
X52300000Y14150000D02*
X52300000Y16550000D01*
%TO.C,C2*%
X55800000Y22600000D02*
X55800000Y18400000D01*
X58200000Y18400000D02*
X58200000Y22600000D01*
X55800000Y22600000D02*
G75*
G02*
X58200000Y22600000I1200000J-1408120D01*
G01*
X58200000Y18400000D02*
G75*
G02*
X55800000Y18400000I-1200000J1474352D01*
G01*
%TO.C,C8*%
X7650000Y13800000D02*
X11850000Y13800000D01*
X11850000Y16200000D02*
X7650000Y16200000D01*
X7650000Y13800000D02*
G75*
G02*
X7650000Y16200000I1474352J1200000D01*
G01*
X11850000Y16200000D02*
G75*
G02*
X11850000Y13800000I-1408120J-1200000D01*
G01*
%TO.C,R7*%
X16050000Y10012500D02*
X16050000Y5412500D01*
X16050000Y5412500D02*
X18450000Y5412500D01*
X18450000Y10012500D02*
X16050000Y10012500D01*
X18450000Y5412500D02*
X18450000Y10012500D01*
%TO.C,C6*%
X32900000Y12550000D02*
X37100000Y12550000D01*
X37100000Y14950000D02*
X32900000Y14950000D01*
X32900000Y12550000D02*
G75*
G02*
X32900000Y14950000I1408120J1200000D01*
G01*
X37100000Y14950000D02*
G75*
G02*
X37100000Y12550000I-1474352J-1200000D01*
G01*
%TO.C,R9*%
X15200000Y14700000D02*
X15200000Y12300000D01*
X15200000Y12300000D02*
X19800000Y12300000D01*
X19800000Y14700000D02*
X15200000Y14700000D01*
X19800000Y12300000D02*
X19800000Y14700000D01*
%TO.C,R4*%
X13550000Y10012500D02*
X13550000Y5412500D01*
X13550000Y5412500D02*
X15950000Y5412500D01*
X15950000Y10012500D02*
X13550000Y10012500D01*
X15950000Y5412500D02*
X15950000Y10012500D01*
D13*
%TO.C,J1*%
X-9305000Y17665000D02*
X-9305000Y12335000D01*
X-8590000Y17715000D02*
X-8590000Y12335000D01*
X-8590000Y17665000D02*
X-9305000Y17665000D01*
X-8590000Y12335000D02*
X-9305000Y12335000D01*
X-8379000Y18094000D02*
X-8590000Y17715000D01*
X-8379000Y18094000D02*
X-8590000Y12335000D01*
X-8379000Y11906000D02*
X-8590000Y12335000D01*
X-8241000Y18094000D02*
X-8590000Y12335000D01*
X-8241000Y18094000D02*
X-8379000Y18094000D01*
X-8241000Y11906000D02*
X-8379000Y11906000D01*
X-8030010Y17715000D02*
X-8590000Y12335000D01*
X-8030010Y17715000D02*
X-8241000Y18094000D01*
X-8030010Y12285000D02*
X-8241000Y11906000D01*
X-7819010Y18094000D02*
X-8379000Y11906000D01*
X-7819010Y18094000D02*
X-8030010Y17715000D01*
X-7819010Y11906000D02*
X-8030010Y12285000D01*
X-7681000Y18094000D02*
X-8241000Y11906000D01*
X-7681000Y18094000D02*
X-7819010Y18094000D01*
X-7681000Y11906000D02*
X-7819010Y11906000D01*
X-7470000Y17715000D02*
X-8030010Y12285000D01*
X-7470000Y17715000D02*
X-7681000Y18094000D01*
X-7470000Y12285000D02*
X-7681000Y11906000D01*
X-7259000Y18094000D02*
X-7819010Y11906000D01*
X-7259000Y18094000D02*
X-7470000Y17715000D01*
X-7259000Y11906000D02*
X-7470000Y12285000D01*
X-7121000Y18094000D02*
X-7681000Y11906000D01*
X-7121000Y18094000D02*
X-7259000Y18094000D01*
X-7121000Y11906000D02*
X-7259000Y11906000D01*
X-6910000Y17715000D02*
X-7470000Y12285000D01*
X-6910000Y17715000D02*
X-7121000Y18094000D01*
X-6910000Y12285000D02*
X-7121000Y11906000D01*
X-6699000Y18094000D02*
X-7259000Y11906000D01*
X-6699000Y18094000D02*
X-6910000Y17715000D01*
X-6699000Y11906000D02*
X-6910000Y12285000D01*
X-6561000Y18094000D02*
X-7121000Y11906000D01*
X-6561000Y18094000D02*
X-6699000Y18094000D01*
X-6561000Y11906000D02*
X-6699000Y11906000D01*
X-6350000Y17715000D02*
X-6910000Y12285000D01*
X-6350000Y17715000D02*
X-6561000Y18094000D01*
X-6350000Y12285000D02*
X-6561000Y11906000D01*
X-6139000Y18094000D02*
X-6699000Y11906000D01*
X-6139000Y18094000D02*
X-6350000Y17715000D01*
X-6139000Y11906000D02*
X-6350000Y12285000D01*
X-6001000Y18094000D02*
X-6561000Y11906000D01*
X-6001000Y18094000D02*
X-6139000Y18094000D01*
X-6001000Y11906000D02*
X-6139000Y11906000D01*
X-5790000Y17715000D02*
X-6350000Y12285000D01*
X-5790000Y17715000D02*
X-6001000Y18094000D01*
X-5790000Y12285000D02*
X-6001000Y11906000D01*
X-5579000Y18094000D02*
X-6139000Y11906000D01*
X-5579000Y18094000D02*
X-5790000Y17715000D01*
X-5579000Y11906000D02*
X-5790000Y12285000D01*
X-5441000Y18094000D02*
X-6001000Y11906000D01*
X-5441000Y18094000D02*
X-5579000Y18094000D01*
X-5441000Y11906000D02*
X-5579000Y11906000D01*
X-5230000Y17715000D02*
X-5790000Y12285000D01*
X-5230000Y17715000D02*
X-5441000Y18094000D01*
X-5230000Y12285000D02*
X-5441000Y11906000D01*
X-5019000Y18094000D02*
X-5579000Y11906000D01*
X-5019000Y18094000D02*
X-5230000Y17715000D01*
X-5019000Y11906000D02*
X-5230000Y12285000D01*
X-4881000Y18094000D02*
X-5441000Y11906000D01*
X-4881000Y18094000D02*
X-5019000Y18094000D01*
X-4881000Y11906000D02*
X-5019000Y11906000D01*
X-4670000Y17712690D02*
X-5230000Y12285000D01*
X-4670000Y17712690D02*
X-5019000Y11906000D01*
X-4670000Y17712690D02*
X-4881000Y18094000D01*
X-4670000Y17712690D02*
X-4670000Y12285000D01*
X-4670000Y17665000D02*
X-4881000Y11906000D01*
X-4670000Y12285000D02*
X-4881000Y11906000D01*
X-4295000Y17447390D02*
X-4670000Y17665000D01*
X-4295000Y17447390D02*
X-4295000Y12546720D01*
X-4295000Y12546730D02*
X-4670000Y12335000D01*
X-1425000Y19760000D02*
X-1425000Y10240000D01*
X-1425000Y17447390D02*
X-4295000Y17447390D01*
X-1425000Y12546730D02*
X-4295000Y12546730D01*
X225000Y19760000D02*
X-1425000Y19760000D01*
X225000Y19760000D02*
X225000Y16137300D01*
X225000Y13862700D02*
X225000Y10240000D01*
X225000Y10240000D02*
X-1425000Y10240000D01*
D12*
%TO.C,C1*%
X53050000Y22600000D02*
X53050000Y18400000D01*
X55450000Y18400000D02*
X55450000Y22600000D01*
X53050000Y22600000D02*
G75*
G02*
X55450000Y22600000I1200000J-1408120D01*
G01*
X55450000Y18400000D02*
G75*
G02*
X53050000Y18400000I-1200000J1474352D01*
G01*
%TO.C,R6*%
X32550000Y22800000D02*
X32550000Y18200000D01*
X32550000Y18200000D02*
X34950000Y18200000D01*
X34950000Y22800000D02*
X32550000Y22800000D01*
X34950000Y18200000D02*
X34950000Y22800000D01*
%TO.C,FB2*%
X47700000Y23000000D02*
X47700000Y18000000D01*
X47700000Y18000000D02*
X50300000Y18000000D01*
X50300000Y23000000D02*
X47700000Y23000000D01*
X50300000Y18000000D02*
X50300000Y23000000D01*
%TO.C,C10*%
X35050000Y22600000D02*
X35050000Y18400000D01*
X37450000Y18400000D02*
X37450000Y22600000D01*
X35050000Y22600000D02*
G75*
G02*
X37450000Y22600000I1200000J-1408120D01*
G01*
X37450000Y18400000D02*
G75*
G02*
X35050000Y18400000I-1200000J1474352D01*
G01*
%TO.C,C5*%
X40050000Y22600000D02*
X40050000Y18400000D01*
X42450000Y18400000D02*
X42450000Y22600000D01*
X40050000Y22600000D02*
G75*
G02*
X42450000Y22600000I1200000J-1408120D01*
G01*
X42450000Y18400000D02*
G75*
G02*
X40050000Y18400000I-1200000J1474352D01*
G01*
%TO.C,FB1*%
X50450000Y23000000D02*
X50450000Y18000000D01*
X50450000Y18000000D02*
X53050000Y18000000D01*
X53050000Y23000000D02*
X50450000Y23000000D01*
X53050000Y18000000D02*
X53050000Y23000000D01*
%TO.C,R1*%
X11050000Y10012500D02*
X11050000Y5412500D01*
X11050000Y5412500D02*
X13450000Y5412500D01*
X13450000Y10012500D02*
X11050000Y10012500D01*
X13450000Y5412500D02*
X13450000Y10012500D01*
%TO.C,C12*%
X15150000Y14800000D02*
X19350000Y14800000D01*
X19350000Y17200000D02*
X15150000Y17200000D01*
X15150000Y14800000D02*
G75*
G02*
X15150000Y17200000I1474352J1200000D01*
G01*
X19350000Y17200000D02*
G75*
G02*
X19350000Y14800000I-1408120J-1200000D01*
G01*
%TO.C,C14*%
X30050000Y17850000D02*
X30050000Y13650000D01*
X32450000Y13650000D02*
X32450000Y17850000D01*
X30050000Y17850000D02*
G75*
G02*
X32450000Y17850000I1200000J-1474352D01*
G01*
X32450000Y13650000D02*
G75*
G02*
X30050000Y13650000I-1200000J1408120D01*
G01*
%TO.C,C3*%
X42550000Y22600000D02*
X42550000Y18400000D01*
X44950000Y18400000D02*
X44950000Y22600000D01*
X42550000Y22600000D02*
G75*
G02*
X44950000Y22600000I1200000J-1408120D01*
G01*
X44950000Y18400000D02*
G75*
G02*
X42550000Y18400000I-1200000J1474352D01*
G01*
D13*
%TO.C,IC1*%
X23350000Y17250000D02*
X23650000Y17250000D01*
X23350000Y15250000D02*
X23350000Y17250000D01*
X23650000Y17250000D02*
X23650000Y15250000D01*
X23650000Y15250000D02*
X23350000Y15250000D01*
X25000000Y15050000D02*
X24000000Y15050000D01*
%TD*%
M02*
