M48
; DRILL file {KiCad 8.0.2} date 2024-05-24T16:47:30+0700
; FORMAT={-:-/ absolute / metric / decimal}
; #@! TF.CreationDate,2024-05-24T16:47:30+07:00
; #@! TF.GenerationSoftware,Kicad,Pcbnew,8.0.2
; #@! TF.FileFunction,Plated,1,2,PTH
FMAT,2
METRIC
; #@! TA.AperFunction,Plated,PTH,ViaDrill
T1C0.300
; #@! TA.AperFunction,Plated,PTH,ComponentDrill
T2C1.000
%
G90
G05
T1
X0.75Y22.75
X0.75Y7.5
X2.25Y22.75
X2.25Y7.5
X3.75Y22.75
X3.75Y7.5
X5.25Y16.0
X5.25Y14.0
X5.5Y22.75
X5.5Y7.5
X7.5Y17.25
X9.0Y17.25
X9.75Y19.5
X10.25Y10.75
X10.5Y17.25
X12.0Y19.5
X12.0Y17.25
X12.25Y18.0
X12.5Y13.75
X12.5Y11.0
X12.75Y16.0
X13.25Y13.25
X13.5Y4.75
X13.875Y10.875
X14.2Y12.65
X14.25Y18.75
X14.25Y17.75
X14.45Y14.95
X16.5Y10.75
X18.25Y10.75
X19.75Y10.75
X22.25Y6.0
X22.425Y8.75
X22.75Y19.0
X24.0Y19.0
X24.15Y12.45
X24.5Y18.0
X24.5Y11.5
X24.5Y10.25
X24.5Y9.0
X24.5Y6.0
X25.75Y19.0
X25.975Y8.0
X26.25Y8.75
X27.25Y4.25
X28.425Y6.0
X28.5Y9.5
X30.0Y8.75
X30.0Y6.0
X30.3Y4.75
X32.0Y9.5
X32.0Y8.25
X32.2Y4.15
X35.0Y4.5
X36.75Y17.225
X37.5Y4.5
X38.15Y11.1
X38.75Y21.975
X40.25Y7.05
X41.05Y12.45
X41.05Y11.425
X41.15Y14.325
X42.75Y4.5
X43.6Y9.175
X43.625Y10.375
X45.25Y4.5
X45.45Y23.85
X47.95Y4.35
X51.025Y5.025
X53.0Y16.5
X54.95Y5.05
X55.0Y16.75
X56.75Y16.75
X57.1Y7.1
X57.75Y4.5
X58.25Y16.75
X59.0Y22.25
X59.25Y5.25
X59.25Y0.75
X61.25Y22.25
X61.25Y18.75
X64.0Y5.25
X64.25Y24.0
X64.25Y21.5
X64.25Y18.75
T2
X3.3Y15.0
X8.4Y28.0
X8.4Y25.46
X10.94Y28.0
X10.94Y25.46
X13.48Y28.0
X13.48Y25.46
X16.02Y28.0
X16.02Y25.46
X18.56Y28.0
X18.56Y25.46
X21.1Y28.0
X21.1Y25.46
X23.64Y28.0
X23.64Y25.46
X26.18Y28.0
X26.18Y25.46
X28.72Y28.0
X28.72Y25.46
X31.26Y28.0
X31.26Y25.46
X33.8Y28.0
X33.8Y25.46
X36.34Y28.0
X36.34Y25.46
X38.88Y28.0
X38.88Y25.46
X41.42Y28.0
X41.42Y25.46
X43.96Y28.0
X43.96Y25.46
X46.5Y28.0
X46.5Y25.46
X49.04Y28.0
X49.04Y25.46
X51.58Y28.0
X51.58Y25.46
X54.12Y28.0
X54.12Y25.46
X56.66Y28.0
X56.66Y25.46
M30
