%TF.GenerationSoftware,KiCad,Pcbnew,8.0.1*%
%TF.CreationDate,2024-03-28T06:54:54+07:00*%
%TF.ProjectId,ADC_pHAT,4144435f-7048-4415-942e-6b696361645f,rev?*%
%TF.SameCoordinates,PX5cbead0PY56c8cc0*%
%TF.FileFunction,Legend,Top*%
%TF.FilePolarity,Positive*%
%FSLAX46Y46*%
G04 Gerber Fmt 4.6, Leading zero omitted, Abs format (unit mm)*
G04 Created by KiCad (PCBNEW 8.0.1) date 2024-03-28 06:54:54*
%MOMM*%
%LPD*%
G01*
G04 APERTURE LIST*
%ADD10C,0.150000*%
%ADD11C,0.200000*%
%ADD12C,0.120000*%
G04 APERTURE END LIST*
D10*
X5499819Y25986667D02*
X6214104Y25986667D01*
X6214104Y25986667D02*
X6356961Y25939048D01*
X6356961Y25939048D02*
X6452200Y25843810D01*
X6452200Y25843810D02*
X6499819Y25700953D01*
X6499819Y25700953D02*
X6499819Y25605715D01*
X5595057Y26415239D02*
X5547438Y26462858D01*
X5547438Y26462858D02*
X5499819Y26558096D01*
X5499819Y26558096D02*
X5499819Y26796191D01*
X5499819Y26796191D02*
X5547438Y26891429D01*
X5547438Y26891429D02*
X5595057Y26939048D01*
X5595057Y26939048D02*
X5690295Y26986667D01*
X5690295Y26986667D02*
X5785533Y26986667D01*
X5785533Y26986667D02*
X5928390Y26939048D01*
X5928390Y26939048D02*
X6499819Y26367620D01*
X6499819Y26367620D02*
X6499819Y26986667D01*
D11*
X31952219Y10988096D02*
X32761742Y10988096D01*
X32761742Y10988096D02*
X32856980Y11035715D01*
X32856980Y11035715D02*
X32904600Y11083334D01*
X32904600Y11083334D02*
X32952219Y11178572D01*
X32952219Y11178572D02*
X32952219Y11369048D01*
X32952219Y11369048D02*
X32904600Y11464286D01*
X32904600Y11464286D02*
X32856980Y11511905D01*
X32856980Y11511905D02*
X32761742Y11559524D01*
X32761742Y11559524D02*
X31952219Y11559524D01*
X32952219Y12559524D02*
X32952219Y11988096D01*
X32952219Y12273810D02*
X31952219Y12273810D01*
X31952219Y12273810D02*
X32095076Y12178572D01*
X32095076Y12178572D02*
X32190314Y12083334D01*
X32190314Y12083334D02*
X32237933Y11988096D01*
D10*
X46009131Y-140123D02*
X46359317Y-490309D01*
X46359317Y-490309D02*
X45955256Y-517247D01*
X45955256Y-517247D02*
X46036068Y-598059D01*
X46036068Y-598059D02*
X46063006Y-678871D01*
X46063006Y-678871D02*
X46063006Y-732746D01*
X46063006Y-732746D02*
X46036068Y-813558D01*
X46036068Y-813558D02*
X45901381Y-948245D01*
X45901381Y-948245D02*
X45820569Y-975182D01*
X45820569Y-975182D02*
X45766694Y-975182D01*
X45766694Y-975182D02*
X45685882Y-948245D01*
X45685882Y-948245D02*
X45524258Y-786621D01*
X45524258Y-786621D02*
X45497320Y-705808D01*
X45497320Y-705808D02*
X45497320Y-651934D01*
X46520942Y-651934D02*
X46143818Y-1406181D01*
X46143818Y-1406181D02*
X46898065Y-1029057D01*
X47032752Y-1163744D02*
X47382938Y-1513930D01*
X47382938Y-1513930D02*
X46978877Y-1540868D01*
X46978877Y-1540868D02*
X47059690Y-1621680D01*
X47059690Y-1621680D02*
X47086627Y-1702492D01*
X47086627Y-1702492D02*
X47086627Y-1756367D01*
X47086627Y-1756367D02*
X47059690Y-1837179D01*
X47059690Y-1837179D02*
X46925003Y-1971866D01*
X46925003Y-1971866D02*
X46844190Y-1998804D01*
X46844190Y-1998804D02*
X46790316Y-1998804D01*
X46790316Y-1998804D02*
X46709503Y-1971866D01*
X46709503Y-1971866D02*
X46547879Y-1810242D01*
X46547879Y-1810242D02*
X46520942Y-1729430D01*
X46520942Y-1729430D02*
X46520942Y-1675555D01*
X41253131Y-347998D02*
X41226194Y-267185D01*
X41226194Y-267185D02*
X41145381Y-186373D01*
X41145381Y-186373D02*
X41037632Y-132498D01*
X41037632Y-132498D02*
X40929882Y-132498D01*
X40929882Y-132498D02*
X40849070Y-159436D01*
X40849070Y-159436D02*
X40714383Y-240248D01*
X40714383Y-240248D02*
X40633571Y-321060D01*
X40633571Y-321060D02*
X40552758Y-455747D01*
X40552758Y-455747D02*
X40525821Y-536560D01*
X40525821Y-536560D02*
X40525821Y-644309D01*
X40525821Y-644309D02*
X40579696Y-752059D01*
X40579696Y-752059D02*
X40633571Y-805934D01*
X40633571Y-805934D02*
X40741320Y-859808D01*
X40741320Y-859808D02*
X40795195Y-859808D01*
X40795195Y-859808D02*
X40983757Y-671247D01*
X40983757Y-671247D02*
X40876007Y-563497D01*
X40983757Y-1156120D02*
X41549442Y-590434D01*
X41549442Y-590434D02*
X41764942Y-805934D01*
X41764942Y-805934D02*
X41791879Y-886746D01*
X41791879Y-886746D02*
X41791879Y-940621D01*
X41791879Y-940621D02*
X41764942Y-1021433D01*
X41764942Y-1021433D02*
X41684129Y-1102245D01*
X41684129Y-1102245D02*
X41603317Y-1129182D01*
X41603317Y-1129182D02*
X41549442Y-1129182D01*
X41549442Y-1129182D02*
X41468630Y-1102245D01*
X41468630Y-1102245D02*
X41253131Y-886746D01*
X42034316Y-1183057D02*
X42088190Y-1183057D01*
X42088190Y-1183057D02*
X42169003Y-1209995D01*
X42169003Y-1209995D02*
X42303690Y-1344682D01*
X42303690Y-1344682D02*
X42330627Y-1425494D01*
X42330627Y-1425494D02*
X42330627Y-1479369D01*
X42330627Y-1479369D02*
X42303690Y-1560181D01*
X42303690Y-1560181D02*
X42249815Y-1614056D01*
X42249815Y-1614056D02*
X42142065Y-1667930D01*
X42142065Y-1667930D02*
X41495568Y-1667930D01*
X41495568Y-1667930D02*
X41845754Y-2018117D01*
X42492252Y-2018117D02*
X42465314Y-1937305D01*
X42465314Y-1937305D02*
X42465314Y-1883430D01*
X42465314Y-1883430D02*
X42492252Y-1802618D01*
X42492252Y-1802618D02*
X42519189Y-1775680D01*
X42519189Y-1775680D02*
X42600001Y-1748743D01*
X42600001Y-1748743D02*
X42653876Y-1748743D01*
X42653876Y-1748743D02*
X42734688Y-1775680D01*
X42734688Y-1775680D02*
X42842438Y-1883430D01*
X42842438Y-1883430D02*
X42869375Y-1964242D01*
X42869375Y-1964242D02*
X42869375Y-2018117D01*
X42869375Y-2018117D02*
X42842438Y-2098929D01*
X42842438Y-2098929D02*
X42815500Y-2125866D01*
X42815500Y-2125866D02*
X42734688Y-2152804D01*
X42734688Y-2152804D02*
X42680813Y-2152804D01*
X42680813Y-2152804D02*
X42600001Y-2125866D01*
X42600001Y-2125866D02*
X42492252Y-2018117D01*
X42492252Y-2018117D02*
X42411439Y-1991179D01*
X42411439Y-1991179D02*
X42357565Y-1991179D01*
X42357565Y-1991179D02*
X42276752Y-2018117D01*
X42276752Y-2018117D02*
X42169003Y-2125866D01*
X42169003Y-2125866D02*
X42142065Y-2206679D01*
X42142065Y-2206679D02*
X42142065Y-2260553D01*
X42142065Y-2260553D02*
X42169003Y-2341366D01*
X42169003Y-2341366D02*
X42276752Y-2449115D01*
X42276752Y-2449115D02*
X42357565Y-2476053D01*
X42357565Y-2476053D02*
X42411439Y-2476053D01*
X42411439Y-2476053D02*
X42492252Y-2449115D01*
X42492252Y-2449115D02*
X42600001Y-2341366D01*
X42600001Y-2341366D02*
X42626939Y-2260553D01*
X42626939Y-2260553D02*
X42626939Y-2206679D01*
X42626939Y-2206679D02*
X42600001Y-2125866D01*
X6624200Y15640476D02*
X6662295Y15754762D01*
X6662295Y15754762D02*
X6662295Y15945238D01*
X6662295Y15945238D02*
X6624200Y16021429D01*
X6624200Y16021429D02*
X6586104Y16059524D01*
X6586104Y16059524D02*
X6509914Y16097619D01*
X6509914Y16097619D02*
X6433723Y16097619D01*
X6433723Y16097619D02*
X6357533Y16059524D01*
X6357533Y16059524D02*
X6319438Y16021429D01*
X6319438Y16021429D02*
X6281342Y15945238D01*
X6281342Y15945238D02*
X6243247Y15792857D01*
X6243247Y15792857D02*
X6205152Y15716667D01*
X6205152Y15716667D02*
X6167057Y15678572D01*
X6167057Y15678572D02*
X6090866Y15640476D01*
X6090866Y15640476D02*
X6014676Y15640476D01*
X6014676Y15640476D02*
X5938485Y15678572D01*
X5938485Y15678572D02*
X5900390Y15716667D01*
X5900390Y15716667D02*
X5862295Y15792857D01*
X5862295Y15792857D02*
X5862295Y15983334D01*
X5862295Y15983334D02*
X5900390Y16097619D01*
X5862295Y16364286D02*
X6662295Y16554762D01*
X6662295Y16554762D02*
X6090866Y16707143D01*
X6090866Y16707143D02*
X6662295Y16859524D01*
X6662295Y16859524D02*
X5862295Y17050000D01*
X6586104Y17811906D02*
X6624200Y17773810D01*
X6624200Y17773810D02*
X6662295Y17659525D01*
X6662295Y17659525D02*
X6662295Y17583334D01*
X6662295Y17583334D02*
X6624200Y17469048D01*
X6624200Y17469048D02*
X6548009Y17392858D01*
X6548009Y17392858D02*
X6471819Y17354763D01*
X6471819Y17354763D02*
X6319438Y17316667D01*
X6319438Y17316667D02*
X6205152Y17316667D01*
X6205152Y17316667D02*
X6052771Y17354763D01*
X6052771Y17354763D02*
X5976580Y17392858D01*
X5976580Y17392858D02*
X5900390Y17469048D01*
X5900390Y17469048D02*
X5862295Y17583334D01*
X5862295Y17583334D02*
X5862295Y17659525D01*
X5862295Y17659525D02*
X5900390Y17773810D01*
X5900390Y17773810D02*
X5938485Y17811906D01*
X6662295Y18535715D02*
X6662295Y18154763D01*
X6662295Y18154763D02*
X5862295Y18154763D01*
X6662295Y18802382D02*
X5862295Y18802382D01*
X6662295Y19259525D02*
X6205152Y18916667D01*
X5862295Y19259525D02*
X6319438Y18802382D01*
X48591415Y27593D02*
X48941601Y-322593D01*
X48941601Y-322593D02*
X48537540Y-349531D01*
X48537540Y-349531D02*
X48618353Y-430343D01*
X48618353Y-430343D02*
X48645290Y-511155D01*
X48645290Y-511155D02*
X48645290Y-565030D01*
X48645290Y-565030D02*
X48618353Y-645842D01*
X48618353Y-645842D02*
X48483666Y-780529D01*
X48483666Y-780529D02*
X48402853Y-807467D01*
X48402853Y-807467D02*
X48348979Y-807467D01*
X48348979Y-807467D02*
X48268166Y-780529D01*
X48268166Y-780529D02*
X48106542Y-618905D01*
X48106542Y-618905D02*
X48079605Y-538093D01*
X48079605Y-538093D02*
X48079605Y-484218D01*
X49103226Y-484218D02*
X48726102Y-1238465D01*
X48726102Y-1238465D02*
X49480350Y-861342D01*
X49615036Y-996028D02*
X49965223Y-1346215D01*
X49965223Y-1346215D02*
X49561162Y-1373152D01*
X49561162Y-1373152D02*
X49641974Y-1453964D01*
X49641974Y-1453964D02*
X49668911Y-1534776D01*
X49668911Y-1534776D02*
X49668911Y-1588651D01*
X49668911Y-1588651D02*
X49641974Y-1669464D01*
X49641974Y-1669464D02*
X49507287Y-1804151D01*
X49507287Y-1804151D02*
X49426475Y-1831088D01*
X49426475Y-1831088D02*
X49372600Y-1831088D01*
X49372600Y-1831088D02*
X49291788Y-1804151D01*
X49291788Y-1804151D02*
X49130163Y-1642526D01*
X49130163Y-1642526D02*
X49103226Y-1561714D01*
X49103226Y-1561714D02*
X49103226Y-1507839D01*
X49453412Y-2073525D02*
X49884411Y-2504523D01*
X50369284Y-2289024D02*
X50557846Y-2477586D01*
X50342347Y-2854709D02*
X50072973Y-2585335D01*
X50072973Y-2585335D02*
X50638658Y-2019650D01*
X50638658Y-2019650D02*
X50908032Y-2289024D01*
X50584784Y-3097146D02*
X51150469Y-2531461D01*
X51150469Y-2531461D02*
X50908032Y-3420395D01*
X50908032Y-3420395D02*
X51473718Y-2854710D01*
X42964292Y-403406D02*
X43233666Y-672780D01*
X42748792Y-511155D02*
X43503040Y-134032D01*
X43503040Y-134032D02*
X43125916Y-888279D01*
X43314478Y-1076841D02*
X43880163Y-511155D01*
X43880163Y-511155D02*
X44014850Y-645842D01*
X44014850Y-645842D02*
X44068725Y-753592D01*
X44068725Y-753592D02*
X44068725Y-861341D01*
X44068725Y-861341D02*
X44041788Y-942154D01*
X44041788Y-942154D02*
X43960975Y-1076841D01*
X43960975Y-1076841D02*
X43880163Y-1157653D01*
X43880163Y-1157653D02*
X43745476Y-1238465D01*
X43745476Y-1238465D02*
X43664664Y-1265402D01*
X43664664Y-1265402D02*
X43556914Y-1265402D01*
X43556914Y-1265402D02*
X43449165Y-1211528D01*
X43449165Y-1211528D02*
X43314478Y-1076841D01*
X44257287Y-1911900D02*
X44203412Y-1911900D01*
X44203412Y-1911900D02*
X44095662Y-1858025D01*
X44095662Y-1858025D02*
X44041788Y-1804150D01*
X44041788Y-1804150D02*
X43987913Y-1696401D01*
X43987913Y-1696401D02*
X43987913Y-1588651D01*
X43987913Y-1588651D02*
X44014850Y-1507839D01*
X44014850Y-1507839D02*
X44095662Y-1373152D01*
X44095662Y-1373152D02*
X44176475Y-1292340D01*
X44176475Y-1292340D02*
X44311162Y-1211528D01*
X44311162Y-1211528D02*
X44391974Y-1184590D01*
X44391974Y-1184590D02*
X44499723Y-1184590D01*
X44499723Y-1184590D02*
X44607473Y-1238465D01*
X44607473Y-1238465D02*
X44661348Y-1292340D01*
X44661348Y-1292340D02*
X44715223Y-1400089D01*
X44715223Y-1400089D02*
X44715223Y-1453964D01*
X44257287Y-2127399D02*
X44688285Y-2558398D01*
X45361720Y-1992712D02*
X44984597Y-2746960D01*
X44984597Y-2746960D02*
X45738844Y-2369836D01*
X45684969Y-3447332D02*
X45765781Y-2989396D01*
X45361720Y-3124083D02*
X45927406Y-2558398D01*
X45927406Y-2558398D02*
X46142905Y-2773897D01*
X46142905Y-2773897D02*
X46169842Y-2854709D01*
X46169842Y-2854709D02*
X46169842Y-2908584D01*
X46169842Y-2908584D02*
X46142905Y-2989396D01*
X46142905Y-2989396D02*
X46062093Y-3070208D01*
X46062093Y-3070208D02*
X45981280Y-3097146D01*
X45981280Y-3097146D02*
X45927406Y-3097146D01*
X45927406Y-3097146D02*
X45846593Y-3070208D01*
X45846593Y-3070208D02*
X45631094Y-2854709D01*
X7979131Y25760002D02*
X7952194Y25840815D01*
X7952194Y25840815D02*
X7871381Y25921627D01*
X7871381Y25921627D02*
X7763632Y25975502D01*
X7763632Y25975502D02*
X7655882Y25975502D01*
X7655882Y25975502D02*
X7575070Y25948564D01*
X7575070Y25948564D02*
X7440383Y25867752D01*
X7440383Y25867752D02*
X7359571Y25786940D01*
X7359571Y25786940D02*
X7278758Y25652253D01*
X7278758Y25652253D02*
X7251821Y25571440D01*
X7251821Y25571440D02*
X7251821Y25463691D01*
X7251821Y25463691D02*
X7305696Y25355941D01*
X7305696Y25355941D02*
X7359571Y25302066D01*
X7359571Y25302066D02*
X7467320Y25248192D01*
X7467320Y25248192D02*
X7521195Y25248192D01*
X7521195Y25248192D02*
X7709757Y25436753D01*
X7709757Y25436753D02*
X7602007Y25544503D01*
X7709757Y24951880D02*
X8275442Y25517566D01*
X8275442Y25517566D02*
X8490942Y25302066D01*
X8490942Y25302066D02*
X8517879Y25221254D01*
X8517879Y25221254D02*
X8517879Y25167379D01*
X8517879Y25167379D02*
X8490942Y25086567D01*
X8490942Y25086567D02*
X8410129Y25005755D01*
X8410129Y25005755D02*
X8329317Y24978818D01*
X8329317Y24978818D02*
X8275442Y24978818D01*
X8275442Y24978818D02*
X8194630Y25005755D01*
X8194630Y25005755D02*
X7979131Y25221254D01*
X8571754Y24089883D02*
X8248505Y24413132D01*
X8410129Y24251508D02*
X8975815Y24817193D01*
X8975815Y24817193D02*
X8841128Y24790256D01*
X8841128Y24790256D02*
X8733378Y24790256D01*
X8733378Y24790256D02*
X8652566Y24817193D01*
X9649250Y24143758D02*
X9379876Y24413132D01*
X9379876Y24413132D02*
X9083565Y24170695D01*
X9083565Y24170695D02*
X9137439Y24170695D01*
X9137439Y24170695D02*
X9218252Y24143758D01*
X9218252Y24143758D02*
X9352939Y24009071D01*
X9352939Y24009071D02*
X9379876Y23928259D01*
X9379876Y23928259D02*
X9379876Y23874384D01*
X9379876Y23874384D02*
X9352939Y23793572D01*
X9352939Y23793572D02*
X9218252Y23658885D01*
X9218252Y23658885D02*
X9137439Y23631947D01*
X9137439Y23631947D02*
X9083565Y23631947D01*
X9083565Y23631947D02*
X9002752Y23658885D01*
X9002752Y23658885D02*
X8868065Y23793572D01*
X8868065Y23793572D02*
X8841128Y23874384D01*
X8841128Y23874384D02*
X8841128Y23928259D01*
X18139131Y-347998D02*
X18112194Y-267185D01*
X18112194Y-267185D02*
X18031381Y-186373D01*
X18031381Y-186373D02*
X17923632Y-132498D01*
X17923632Y-132498D02*
X17815882Y-132498D01*
X17815882Y-132498D02*
X17735070Y-159436D01*
X17735070Y-159436D02*
X17600383Y-240248D01*
X17600383Y-240248D02*
X17519571Y-321060D01*
X17519571Y-321060D02*
X17438758Y-455747D01*
X17438758Y-455747D02*
X17411821Y-536560D01*
X17411821Y-536560D02*
X17411821Y-644309D01*
X17411821Y-644309D02*
X17465696Y-752059D01*
X17465696Y-752059D02*
X17519571Y-805934D01*
X17519571Y-805934D02*
X17627320Y-859808D01*
X17627320Y-859808D02*
X17681195Y-859808D01*
X17681195Y-859808D02*
X17869757Y-671247D01*
X17869757Y-671247D02*
X17762007Y-563497D01*
X17869757Y-1156120D02*
X18435442Y-590434D01*
X18435442Y-590434D02*
X18650942Y-805934D01*
X18650942Y-805934D02*
X18677879Y-886746D01*
X18677879Y-886746D02*
X18677879Y-940621D01*
X18677879Y-940621D02*
X18650942Y-1021433D01*
X18650942Y-1021433D02*
X18570129Y-1102245D01*
X18570129Y-1102245D02*
X18489317Y-1129182D01*
X18489317Y-1129182D02*
X18435442Y-1129182D01*
X18435442Y-1129182D02*
X18354630Y-1102245D01*
X18354630Y-1102245D02*
X18139131Y-886746D01*
X18731754Y-2018117D02*
X18408505Y-1694868D01*
X18570129Y-1856492D02*
X19135815Y-1290807D01*
X19135815Y-1290807D02*
X19001128Y-1317744D01*
X19001128Y-1317744D02*
X18893378Y-1317744D01*
X18893378Y-1317744D02*
X18812566Y-1290807D01*
X19001128Y-2287491D02*
X19108878Y-2395240D01*
X19108878Y-2395240D02*
X19189690Y-2422178D01*
X19189690Y-2422178D02*
X19243565Y-2422178D01*
X19243565Y-2422178D02*
X19378252Y-2395240D01*
X19378252Y-2395240D02*
X19512939Y-2314428D01*
X19512939Y-2314428D02*
X19728438Y-2098929D01*
X19728438Y-2098929D02*
X19755375Y-2018117D01*
X19755375Y-2018117D02*
X19755375Y-1964242D01*
X19755375Y-1964242D02*
X19728438Y-1883430D01*
X19728438Y-1883430D02*
X19620688Y-1775680D01*
X19620688Y-1775680D02*
X19539876Y-1748743D01*
X19539876Y-1748743D02*
X19486001Y-1748743D01*
X19486001Y-1748743D02*
X19405189Y-1775680D01*
X19405189Y-1775680D02*
X19270502Y-1910367D01*
X19270502Y-1910367D02*
X19243565Y-1991179D01*
X19243565Y-1991179D02*
X19243565Y-2045054D01*
X19243565Y-2045054D02*
X19270502Y-2125866D01*
X19270502Y-2125866D02*
X19378252Y-2233616D01*
X19378252Y-2233616D02*
X19459064Y-2260553D01*
X19459064Y-2260553D02*
X19512939Y-2260553D01*
X19512939Y-2260553D02*
X19593751Y-2233616D01*
X53089757Y29251D02*
X52712633Y-724996D01*
X52712633Y-724996D02*
X53466881Y-347873D01*
X53089757Y-1048245D02*
X53143632Y-1155995D01*
X53143632Y-1155995D02*
X53278319Y-1290682D01*
X53278319Y-1290682D02*
X53359131Y-1317619D01*
X53359131Y-1317619D02*
X53413006Y-1317619D01*
X53413006Y-1317619D02*
X53493818Y-1290682D01*
X53493818Y-1290682D02*
X53547693Y-1236807D01*
X53547693Y-1236807D02*
X53574630Y-1155995D01*
X53574630Y-1155995D02*
X53574630Y-1102120D01*
X53574630Y-1102120D02*
X53547693Y-1021308D01*
X53547693Y-1021308D02*
X53466881Y-886621D01*
X53466881Y-886621D02*
X53439943Y-805808D01*
X53439943Y-805808D02*
X53439943Y-751934D01*
X53439943Y-751934D02*
X53466881Y-671121D01*
X53466881Y-671121D02*
X53520755Y-617247D01*
X53520755Y-617247D02*
X53601568Y-590309D01*
X53601568Y-590309D02*
X53655442Y-590309D01*
X53655442Y-590309D02*
X53736255Y-617247D01*
X53736255Y-617247D02*
X53870942Y-751934D01*
X53870942Y-751934D02*
X53924816Y-859683D01*
X54005629Y-1479244D02*
X53736255Y-1748618D01*
X54113378Y-994370D02*
X54005629Y-1479244D01*
X54005629Y-1479244D02*
X54490502Y-1371494D01*
X54113378Y-2071866D02*
X54167253Y-2179616D01*
X54167253Y-2179616D02*
X54301940Y-2314303D01*
X54301940Y-2314303D02*
X54382752Y-2341240D01*
X54382752Y-2341240D02*
X54436627Y-2341240D01*
X54436627Y-2341240D02*
X54517439Y-2314303D01*
X54517439Y-2314303D02*
X54571314Y-2260428D01*
X54571314Y-2260428D02*
X54598251Y-2179616D01*
X54598251Y-2179616D02*
X54598251Y-2125741D01*
X54598251Y-2125741D02*
X54571314Y-2044929D01*
X54571314Y-2044929D02*
X54490502Y-1910242D01*
X54490502Y-1910242D02*
X54463564Y-1829430D01*
X54463564Y-1829430D02*
X54463564Y-1775555D01*
X54463564Y-1775555D02*
X54490502Y-1694743D01*
X54490502Y-1694743D02*
X54544377Y-1640868D01*
X54544377Y-1640868D02*
X54625189Y-1613930D01*
X54625189Y-1613930D02*
X54679064Y-1613930D01*
X54679064Y-1613930D02*
X54759876Y-1640868D01*
X54759876Y-1640868D02*
X54894563Y-1775555D01*
X54894563Y-1775555D02*
X54948438Y-1883304D01*
X38701568Y25263565D02*
X38674631Y25344377D01*
X38674631Y25344377D02*
X38593819Y25425189D01*
X38593819Y25425189D02*
X38486069Y25479064D01*
X38486069Y25479064D02*
X38378319Y25479064D01*
X38378319Y25479064D02*
X38297507Y25452127D01*
X38297507Y25452127D02*
X38162820Y25371315D01*
X38162820Y25371315D02*
X38082008Y25290502D01*
X38082008Y25290502D02*
X38001196Y25155815D01*
X38001196Y25155815D02*
X37974258Y25075003D01*
X37974258Y25075003D02*
X37974258Y24967254D01*
X37974258Y24967254D02*
X38028133Y24859504D01*
X38028133Y24859504D02*
X38082008Y24805629D01*
X38082008Y24805629D02*
X38189758Y24751754D01*
X38189758Y24751754D02*
X38243632Y24751754D01*
X38243632Y24751754D02*
X38432194Y24940316D01*
X38432194Y24940316D02*
X38324445Y25048066D01*
X38432194Y24455443D02*
X38997880Y25021128D01*
X38997880Y25021128D02*
X38755443Y24132194D01*
X38755443Y24132194D02*
X39321128Y24697880D01*
X39024817Y23862820D02*
X39590502Y24428506D01*
X39590502Y24428506D02*
X39725189Y24293819D01*
X39725189Y24293819D02*
X39779064Y24186069D01*
X39779064Y24186069D02*
X39779064Y24078320D01*
X39779064Y24078320D02*
X39752127Y23997507D01*
X39752127Y23997507D02*
X39671314Y23862820D01*
X39671314Y23862820D02*
X39590502Y23782008D01*
X39590502Y23782008D02*
X39455815Y23701196D01*
X39455815Y23701196D02*
X39375003Y23674259D01*
X39375003Y23674259D02*
X39267253Y23674259D01*
X39267253Y23674259D02*
X39159504Y23728133D01*
X39159504Y23728133D02*
X39024817Y23862820D01*
X55972414Y-203406D02*
X55595290Y-957653D01*
X55595290Y-957653D02*
X56349537Y-580529D01*
X56457287Y-1227027D02*
X56511161Y-1334776D01*
X56511161Y-1334776D02*
X56511161Y-1388651D01*
X56511161Y-1388651D02*
X56484224Y-1469463D01*
X56484224Y-1469463D02*
X56403412Y-1550276D01*
X56403412Y-1550276D02*
X56322600Y-1577213D01*
X56322600Y-1577213D02*
X56268725Y-1577213D01*
X56268725Y-1577213D02*
X56187913Y-1550276D01*
X56187913Y-1550276D02*
X55972413Y-1334776D01*
X55972413Y-1334776D02*
X56538099Y-769091D01*
X56538099Y-769091D02*
X56726661Y-957653D01*
X56726661Y-957653D02*
X56753598Y-1038465D01*
X56753598Y-1038465D02*
X56753598Y-1092340D01*
X56753598Y-1092340D02*
X56726661Y-1173152D01*
X56726661Y-1173152D02*
X56672786Y-1227027D01*
X56672786Y-1227027D02*
X56591974Y-1253964D01*
X56591974Y-1253964D02*
X56538099Y-1253964D01*
X56538099Y-1253964D02*
X56457287Y-1227027D01*
X56457287Y-1227027D02*
X56268725Y-1038465D01*
X57103784Y-1334776D02*
X56645848Y-1792712D01*
X56645848Y-1792712D02*
X56618911Y-1873524D01*
X56618911Y-1873524D02*
X56618911Y-1927399D01*
X56618911Y-1927399D02*
X56645848Y-2008211D01*
X56645848Y-2008211D02*
X56753598Y-2115961D01*
X56753598Y-2115961D02*
X56834410Y-2142898D01*
X56834410Y-2142898D02*
X56888285Y-2142898D01*
X56888285Y-2142898D02*
X56969097Y-2115961D01*
X56969097Y-2115961D02*
X57427033Y-1658025D01*
X57130722Y-2439210D02*
X57184596Y-2546959D01*
X57184596Y-2546959D02*
X57319283Y-2681646D01*
X57319283Y-2681646D02*
X57400096Y-2708584D01*
X57400096Y-2708584D02*
X57453970Y-2708584D01*
X57453970Y-2708584D02*
X57534783Y-2681646D01*
X57534783Y-2681646D02*
X57588657Y-2627771D01*
X57588657Y-2627771D02*
X57615595Y-2546959D01*
X57615595Y-2546959D02*
X57615595Y-2493084D01*
X57615595Y-2493084D02*
X57588657Y-2412272D01*
X57588657Y-2412272D02*
X57507845Y-2277585D01*
X57507845Y-2277585D02*
X57480908Y-2196773D01*
X57480908Y-2196773D02*
X57480908Y-2142898D01*
X57480908Y-2142898D02*
X57507845Y-2062086D01*
X57507845Y-2062086D02*
X57561720Y-2008211D01*
X57561720Y-2008211D02*
X57642532Y-1981274D01*
X57642532Y-1981274D02*
X57696407Y-1981274D01*
X57696407Y-1981274D02*
X57777219Y-2008211D01*
X57777219Y-2008211D02*
X57911906Y-2142898D01*
X57911906Y-2142898D02*
X57965781Y-2250648D01*
X43808505Y25236628D02*
X43781568Y25317440D01*
X43781568Y25317440D02*
X43700756Y25398252D01*
X43700756Y25398252D02*
X43593006Y25452127D01*
X43593006Y25452127D02*
X43485257Y25452127D01*
X43485257Y25452127D02*
X43404444Y25425190D01*
X43404444Y25425190D02*
X43269757Y25344377D01*
X43269757Y25344377D02*
X43188945Y25263565D01*
X43188945Y25263565D02*
X43108133Y25128878D01*
X43108133Y25128878D02*
X43081196Y25048066D01*
X43081196Y25048066D02*
X43081196Y24940316D01*
X43081196Y24940316D02*
X43135070Y24832567D01*
X43135070Y24832567D02*
X43188945Y24778692D01*
X43188945Y24778692D02*
X43296695Y24724817D01*
X43296695Y24724817D02*
X43350570Y24724817D01*
X43350570Y24724817D02*
X43539131Y24913379D01*
X43539131Y24913379D02*
X43431382Y25021129D01*
X43539131Y24428506D02*
X44104817Y24994191D01*
X44104817Y24994191D02*
X44320316Y24778692D01*
X44320316Y24778692D02*
X44347253Y24697880D01*
X44347253Y24697880D02*
X44347253Y24644005D01*
X44347253Y24644005D02*
X44320316Y24563193D01*
X44320316Y24563193D02*
X44239504Y24482381D01*
X44239504Y24482381D02*
X44158692Y24455443D01*
X44158692Y24455443D02*
X44104817Y24455443D01*
X44104817Y24455443D02*
X44024005Y24482381D01*
X44024005Y24482381D02*
X43808505Y24697880D01*
X44724377Y23997507D02*
X44347253Y23620384D01*
X44805189Y24347694D02*
X44266441Y24078320D01*
X44266441Y24078320D02*
X44616627Y23728133D01*
X20679131Y25906002D02*
X20652194Y25986815D01*
X20652194Y25986815D02*
X20571381Y26067627D01*
X20571381Y26067627D02*
X20463632Y26121502D01*
X20463632Y26121502D02*
X20355882Y26121502D01*
X20355882Y26121502D02*
X20275070Y26094564D01*
X20275070Y26094564D02*
X20140383Y26013752D01*
X20140383Y26013752D02*
X20059571Y25932940D01*
X20059571Y25932940D02*
X19978758Y25798253D01*
X19978758Y25798253D02*
X19951821Y25717440D01*
X19951821Y25717440D02*
X19951821Y25609691D01*
X19951821Y25609691D02*
X20005696Y25501941D01*
X20005696Y25501941D02*
X20059571Y25448066D01*
X20059571Y25448066D02*
X20167320Y25394192D01*
X20167320Y25394192D02*
X20221195Y25394192D01*
X20221195Y25394192D02*
X20409757Y25582753D01*
X20409757Y25582753D02*
X20302007Y25690503D01*
X20409757Y25097880D02*
X20975442Y25663566D01*
X20975442Y25663566D02*
X21190942Y25448066D01*
X21190942Y25448066D02*
X21217879Y25367254D01*
X21217879Y25367254D02*
X21217879Y25313379D01*
X21217879Y25313379D02*
X21190942Y25232567D01*
X21190942Y25232567D02*
X21110129Y25151755D01*
X21110129Y25151755D02*
X21029317Y25124818D01*
X21029317Y25124818D02*
X20975442Y25124818D01*
X20975442Y25124818D02*
X20894630Y25151755D01*
X20894630Y25151755D02*
X20679131Y25367254D01*
X21271754Y24235883D02*
X20948505Y24559132D01*
X21110129Y24397508D02*
X21675815Y24963193D01*
X21675815Y24963193D02*
X21541128Y24936256D01*
X21541128Y24936256D02*
X21433378Y24936256D01*
X21433378Y24936256D02*
X21352566Y24963193D01*
X21810502Y23697135D02*
X21487253Y24020384D01*
X21648878Y23858760D02*
X22214563Y24424445D01*
X22214563Y24424445D02*
X22079876Y24397508D01*
X22079876Y24397508D02*
X21972126Y24397508D01*
X21972126Y24397508D02*
X21891314Y24424445D01*
X46348505Y25236628D02*
X46321568Y25317440D01*
X46321568Y25317440D02*
X46240756Y25398252D01*
X46240756Y25398252D02*
X46133006Y25452127D01*
X46133006Y25452127D02*
X46025257Y25452127D01*
X46025257Y25452127D02*
X45944444Y25425190D01*
X45944444Y25425190D02*
X45809757Y25344377D01*
X45809757Y25344377D02*
X45728945Y25263565D01*
X45728945Y25263565D02*
X45648133Y25128878D01*
X45648133Y25128878D02*
X45621196Y25048066D01*
X45621196Y25048066D02*
X45621196Y24940316D01*
X45621196Y24940316D02*
X45675070Y24832567D01*
X45675070Y24832567D02*
X45728945Y24778692D01*
X45728945Y24778692D02*
X45836695Y24724817D01*
X45836695Y24724817D02*
X45890570Y24724817D01*
X45890570Y24724817D02*
X46079131Y24913379D01*
X46079131Y24913379D02*
X45971382Y25021129D01*
X46079131Y24428506D02*
X46644817Y24994191D01*
X46644817Y24994191D02*
X46860316Y24778692D01*
X46860316Y24778692D02*
X46887253Y24697880D01*
X46887253Y24697880D02*
X46887253Y24644005D01*
X46887253Y24644005D02*
X46860316Y24563193D01*
X46860316Y24563193D02*
X46779504Y24482381D01*
X46779504Y24482381D02*
X46698692Y24455443D01*
X46698692Y24455443D02*
X46644817Y24455443D01*
X46644817Y24455443D02*
X46564005Y24482381D01*
X46564005Y24482381D02*
X46348505Y24697880D01*
X47156627Y24482381D02*
X47506814Y24132194D01*
X47506814Y24132194D02*
X47102753Y24105257D01*
X47102753Y24105257D02*
X47183565Y24024445D01*
X47183565Y24024445D02*
X47210502Y23943633D01*
X47210502Y23943633D02*
X47210502Y23889758D01*
X47210502Y23889758D02*
X47183565Y23808946D01*
X47183565Y23808946D02*
X47048878Y23674259D01*
X47048878Y23674259D02*
X46968066Y23647321D01*
X46968066Y23647321D02*
X46914191Y23647321D01*
X46914191Y23647321D02*
X46833379Y23674259D01*
X46833379Y23674259D02*
X46671754Y23835883D01*
X46671754Y23835883D02*
X46644817Y23916695D01*
X46644817Y23916695D02*
X46644817Y23970570D01*
X35909131Y-347998D02*
X35882194Y-267185D01*
X35882194Y-267185D02*
X35801381Y-186373D01*
X35801381Y-186373D02*
X35693632Y-132498D01*
X35693632Y-132498D02*
X35585882Y-132498D01*
X35585882Y-132498D02*
X35505070Y-159436D01*
X35505070Y-159436D02*
X35370383Y-240248D01*
X35370383Y-240248D02*
X35289571Y-321060D01*
X35289571Y-321060D02*
X35208758Y-455747D01*
X35208758Y-455747D02*
X35181821Y-536560D01*
X35181821Y-536560D02*
X35181821Y-644309D01*
X35181821Y-644309D02*
X35235696Y-752059D01*
X35235696Y-752059D02*
X35289571Y-805934D01*
X35289571Y-805934D02*
X35397320Y-859808D01*
X35397320Y-859808D02*
X35451195Y-859808D01*
X35451195Y-859808D02*
X35639757Y-671247D01*
X35639757Y-671247D02*
X35532007Y-563497D01*
X35639757Y-1156120D02*
X36205442Y-590434D01*
X36205442Y-590434D02*
X36420942Y-805934D01*
X36420942Y-805934D02*
X36447879Y-886746D01*
X36447879Y-886746D02*
X36447879Y-940621D01*
X36447879Y-940621D02*
X36420942Y-1021433D01*
X36420942Y-1021433D02*
X36340129Y-1102245D01*
X36340129Y-1102245D02*
X36259317Y-1129182D01*
X36259317Y-1129182D02*
X36205442Y-1129182D01*
X36205442Y-1129182D02*
X36124630Y-1102245D01*
X36124630Y-1102245D02*
X35909131Y-886746D01*
X36690316Y-1183057D02*
X36744190Y-1183057D01*
X36744190Y-1183057D02*
X36825003Y-1209995D01*
X36825003Y-1209995D02*
X36959690Y-1344682D01*
X36959690Y-1344682D02*
X36986627Y-1425494D01*
X36986627Y-1425494D02*
X36986627Y-1479369D01*
X36986627Y-1479369D02*
X36959690Y-1560181D01*
X36959690Y-1560181D02*
X36905815Y-1614056D01*
X36905815Y-1614056D02*
X36798065Y-1667930D01*
X36798065Y-1667930D02*
X36151568Y-1667930D01*
X36151568Y-1667930D02*
X36501754Y-2018117D01*
X37256001Y-1640993D02*
X37633125Y-2018117D01*
X37633125Y-2018117D02*
X36825003Y-2341366D01*
X20679131Y-347998D02*
X20652194Y-267185D01*
X20652194Y-267185D02*
X20571381Y-186373D01*
X20571381Y-186373D02*
X20463632Y-132498D01*
X20463632Y-132498D02*
X20355882Y-132498D01*
X20355882Y-132498D02*
X20275070Y-159436D01*
X20275070Y-159436D02*
X20140383Y-240248D01*
X20140383Y-240248D02*
X20059571Y-321060D01*
X20059571Y-321060D02*
X19978758Y-455747D01*
X19978758Y-455747D02*
X19951821Y-536560D01*
X19951821Y-536560D02*
X19951821Y-644309D01*
X19951821Y-644309D02*
X20005696Y-752059D01*
X20005696Y-752059D02*
X20059571Y-805934D01*
X20059571Y-805934D02*
X20167320Y-859808D01*
X20167320Y-859808D02*
X20221195Y-859808D01*
X20221195Y-859808D02*
X20409757Y-671247D01*
X20409757Y-671247D02*
X20302007Y-563497D01*
X20409757Y-1156120D02*
X20975442Y-590434D01*
X20975442Y-590434D02*
X21190942Y-805934D01*
X21190942Y-805934D02*
X21217879Y-886746D01*
X21217879Y-886746D02*
X21217879Y-940621D01*
X21217879Y-940621D02*
X21190942Y-1021433D01*
X21190942Y-1021433D02*
X21110129Y-1102245D01*
X21110129Y-1102245D02*
X21029317Y-1129182D01*
X21029317Y-1129182D02*
X20975442Y-1129182D01*
X20975442Y-1129182D02*
X20894630Y-1102245D01*
X20894630Y-1102245D02*
X20679131Y-886746D01*
X21460316Y-1183057D02*
X21514190Y-1183057D01*
X21514190Y-1183057D02*
X21595003Y-1209995D01*
X21595003Y-1209995D02*
X21729690Y-1344682D01*
X21729690Y-1344682D02*
X21756627Y-1425494D01*
X21756627Y-1425494D02*
X21756627Y-1479369D01*
X21756627Y-1479369D02*
X21729690Y-1560181D01*
X21729690Y-1560181D02*
X21675815Y-1614056D01*
X21675815Y-1614056D02*
X21568065Y-1667930D01*
X21568065Y-1667930D02*
X20921568Y-1667930D01*
X20921568Y-1667930D02*
X21271754Y-2018117D01*
X22187626Y-1802618D02*
X22241500Y-1856492D01*
X22241500Y-1856492D02*
X22268438Y-1937305D01*
X22268438Y-1937305D02*
X22268438Y-1991179D01*
X22268438Y-1991179D02*
X22241500Y-2071992D01*
X22241500Y-2071992D02*
X22160688Y-2206679D01*
X22160688Y-2206679D02*
X22026001Y-2341366D01*
X22026001Y-2341366D02*
X21891314Y-2422178D01*
X21891314Y-2422178D02*
X21810502Y-2449115D01*
X21810502Y-2449115D02*
X21756627Y-2449115D01*
X21756627Y-2449115D02*
X21675815Y-2422178D01*
X21675815Y-2422178D02*
X21621940Y-2368303D01*
X21621940Y-2368303D02*
X21595003Y-2287491D01*
X21595003Y-2287491D02*
X21595003Y-2233616D01*
X21595003Y-2233616D02*
X21621940Y-2152804D01*
X21621940Y-2152804D02*
X21702752Y-2018117D01*
X21702752Y-2018117D02*
X21837439Y-1883430D01*
X21837439Y-1883430D02*
X21972126Y-1802618D01*
X21972126Y-1802618D02*
X22052939Y-1775680D01*
X22052939Y-1775680D02*
X22106813Y-1775680D01*
X22106813Y-1775680D02*
X22187626Y-1802618D01*
X10519131Y-347998D02*
X10492194Y-267185D01*
X10492194Y-267185D02*
X10411381Y-186373D01*
X10411381Y-186373D02*
X10303632Y-132498D01*
X10303632Y-132498D02*
X10195882Y-132498D01*
X10195882Y-132498D02*
X10115070Y-159436D01*
X10115070Y-159436D02*
X9980383Y-240248D01*
X9980383Y-240248D02*
X9899571Y-321060D01*
X9899571Y-321060D02*
X9818758Y-455747D01*
X9818758Y-455747D02*
X9791821Y-536560D01*
X9791821Y-536560D02*
X9791821Y-644309D01*
X9791821Y-644309D02*
X9845696Y-752059D01*
X9845696Y-752059D02*
X9899571Y-805934D01*
X9899571Y-805934D02*
X10007320Y-859808D01*
X10007320Y-859808D02*
X10061195Y-859808D01*
X10061195Y-859808D02*
X10249757Y-671247D01*
X10249757Y-671247D02*
X10142007Y-563497D01*
X10249757Y-1156120D02*
X10815442Y-590434D01*
X10815442Y-590434D02*
X11030942Y-805934D01*
X11030942Y-805934D02*
X11057879Y-886746D01*
X11057879Y-886746D02*
X11057879Y-940621D01*
X11057879Y-940621D02*
X11030942Y-1021433D01*
X11030942Y-1021433D02*
X10950129Y-1102245D01*
X10950129Y-1102245D02*
X10869317Y-1129182D01*
X10869317Y-1129182D02*
X10815442Y-1129182D01*
X10815442Y-1129182D02*
X10734630Y-1102245D01*
X10734630Y-1102245D02*
X10519131Y-886746D01*
X11111754Y-2018117D02*
X10788505Y-1694868D01*
X10950129Y-1856492D02*
X11515815Y-1290807D01*
X11515815Y-1290807D02*
X11381128Y-1317744D01*
X11381128Y-1317744D02*
X11273378Y-1317744D01*
X11273378Y-1317744D02*
X11192566Y-1290807D01*
X11866001Y-1640993D02*
X12243125Y-2018117D01*
X12243125Y-2018117D02*
X11435003Y-2341366D01*
X10519131Y25806002D02*
X10492194Y25886815D01*
X10492194Y25886815D02*
X10411381Y25967627D01*
X10411381Y25967627D02*
X10303632Y26021502D01*
X10303632Y26021502D02*
X10195882Y26021502D01*
X10195882Y26021502D02*
X10115070Y25994564D01*
X10115070Y25994564D02*
X9980383Y25913752D01*
X9980383Y25913752D02*
X9899571Y25832940D01*
X9899571Y25832940D02*
X9818758Y25698253D01*
X9818758Y25698253D02*
X9791821Y25617440D01*
X9791821Y25617440D02*
X9791821Y25509691D01*
X9791821Y25509691D02*
X9845696Y25401941D01*
X9845696Y25401941D02*
X9899571Y25348066D01*
X9899571Y25348066D02*
X10007320Y25294192D01*
X10007320Y25294192D02*
X10061195Y25294192D01*
X10061195Y25294192D02*
X10249757Y25482753D01*
X10249757Y25482753D02*
X10142007Y25590503D01*
X10249757Y24997880D02*
X10815442Y25563566D01*
X10815442Y25563566D02*
X11030942Y25348066D01*
X11030942Y25348066D02*
X11057879Y25267254D01*
X11057879Y25267254D02*
X11057879Y25213379D01*
X11057879Y25213379D02*
X11030942Y25132567D01*
X11030942Y25132567D02*
X10950129Y25051755D01*
X10950129Y25051755D02*
X10869317Y25024818D01*
X10869317Y25024818D02*
X10815442Y25024818D01*
X10815442Y25024818D02*
X10734630Y25051755D01*
X10734630Y25051755D02*
X10519131Y25267254D01*
X11111754Y24135883D02*
X10788505Y24459132D01*
X10950129Y24297508D02*
X11515815Y24863193D01*
X11515815Y24863193D02*
X11381128Y24836256D01*
X11381128Y24836256D02*
X11273378Y24836256D01*
X11273378Y24836256D02*
X11192566Y24863193D01*
X11973751Y24028134D02*
X11596627Y23651010D01*
X12054563Y24378320D02*
X11515815Y24108946D01*
X11515815Y24108946D02*
X11866001Y23758760D01*
X37758759Y-401873D02*
X38028133Y-671247D01*
X37543260Y-509623D02*
X38297507Y-132499D01*
X38297507Y-132499D02*
X37920384Y-886746D01*
X38944005Y-832871D02*
X38917067Y-752059D01*
X38917067Y-752059D02*
X38836255Y-671247D01*
X38836255Y-671247D02*
X38728505Y-617372D01*
X38728505Y-617372D02*
X38620756Y-617372D01*
X38620756Y-617372D02*
X38539944Y-644310D01*
X38539944Y-644310D02*
X38405257Y-725122D01*
X38405257Y-725122D02*
X38324444Y-805934D01*
X38324444Y-805934D02*
X38243632Y-940621D01*
X38243632Y-940621D02*
X38216695Y-1021433D01*
X38216695Y-1021433D02*
X38216695Y-1129183D01*
X38216695Y-1129183D02*
X38270570Y-1236932D01*
X38270570Y-1236932D02*
X38324444Y-1290807D01*
X38324444Y-1290807D02*
X38432194Y-1344682D01*
X38432194Y-1344682D02*
X38486069Y-1344682D01*
X38486069Y-1344682D02*
X38674631Y-1156120D01*
X38674631Y-1156120D02*
X38566881Y-1048371D01*
X38674631Y-1640993D02*
X39240316Y-1075308D01*
X39240316Y-1075308D02*
X38997879Y-1964242D01*
X38997879Y-1964242D02*
X39563565Y-1398557D01*
X39267253Y-2233616D02*
X39832939Y-1667931D01*
X39832939Y-1667931D02*
X39967626Y-1802618D01*
X39967626Y-1802618D02*
X40021501Y-1910367D01*
X40021501Y-1910367D02*
X40021501Y-2018117D01*
X40021501Y-2018117D02*
X39994563Y-2098929D01*
X39994563Y-2098929D02*
X39913751Y-2233616D01*
X39913751Y-2233616D02*
X39832939Y-2314428D01*
X39832939Y-2314428D02*
X39698252Y-2395241D01*
X39698252Y-2395241D02*
X39617439Y-2422178D01*
X39617439Y-2422178D02*
X39509690Y-2422178D01*
X39509690Y-2422178D02*
X39401940Y-2368303D01*
X39401940Y-2368303D02*
X39267253Y-2233616D01*
X36188505Y25236628D02*
X36161568Y25317440D01*
X36161568Y25317440D02*
X36080756Y25398252D01*
X36080756Y25398252D02*
X35973006Y25452127D01*
X35973006Y25452127D02*
X35865257Y25452127D01*
X35865257Y25452127D02*
X35784444Y25425190D01*
X35784444Y25425190D02*
X35649757Y25344377D01*
X35649757Y25344377D02*
X35568945Y25263565D01*
X35568945Y25263565D02*
X35488133Y25128878D01*
X35488133Y25128878D02*
X35461196Y25048066D01*
X35461196Y25048066D02*
X35461196Y24940316D01*
X35461196Y24940316D02*
X35515070Y24832567D01*
X35515070Y24832567D02*
X35568945Y24778692D01*
X35568945Y24778692D02*
X35676695Y24724817D01*
X35676695Y24724817D02*
X35730570Y24724817D01*
X35730570Y24724817D02*
X35919131Y24913379D01*
X35919131Y24913379D02*
X35811382Y25021129D01*
X35919131Y24428506D02*
X36484817Y24994191D01*
X36484817Y24994191D02*
X36700316Y24778692D01*
X36700316Y24778692D02*
X36727253Y24697880D01*
X36727253Y24697880D02*
X36727253Y24644005D01*
X36727253Y24644005D02*
X36700316Y24563193D01*
X36700316Y24563193D02*
X36619504Y24482381D01*
X36619504Y24482381D02*
X36538692Y24455443D01*
X36538692Y24455443D02*
X36484817Y24455443D01*
X36484817Y24455443D02*
X36404005Y24482381D01*
X36404005Y24482381D02*
X36188505Y24697880D01*
X37292939Y24186069D02*
X37185189Y24293819D01*
X37185189Y24293819D02*
X37104377Y24320756D01*
X37104377Y24320756D02*
X37050502Y24320756D01*
X37050502Y24320756D02*
X36915815Y24293819D01*
X36915815Y24293819D02*
X36781128Y24213007D01*
X36781128Y24213007D02*
X36565629Y23997507D01*
X36565629Y23997507D02*
X36538692Y23916695D01*
X36538692Y23916695D02*
X36538692Y23862820D01*
X36538692Y23862820D02*
X36565629Y23782008D01*
X36565629Y23782008D02*
X36673379Y23674259D01*
X36673379Y23674259D02*
X36754191Y23647321D01*
X36754191Y23647321D02*
X36808066Y23647321D01*
X36808066Y23647321D02*
X36888878Y23674259D01*
X36888878Y23674259D02*
X37023565Y23808946D01*
X37023565Y23808946D02*
X37050502Y23889758D01*
X37050502Y23889758D02*
X37050502Y23943633D01*
X37050502Y23943633D02*
X37023565Y24024445D01*
X37023565Y24024445D02*
X36915815Y24132194D01*
X36915815Y24132194D02*
X36835003Y24159132D01*
X36835003Y24159132D02*
X36781128Y24159132D01*
X36781128Y24159132D02*
X36700316Y24132194D01*
X18139131Y25906002D02*
X18112194Y25986815D01*
X18112194Y25986815D02*
X18031381Y26067627D01*
X18031381Y26067627D02*
X17923632Y26121502D01*
X17923632Y26121502D02*
X17815882Y26121502D01*
X17815882Y26121502D02*
X17735070Y26094564D01*
X17735070Y26094564D02*
X17600383Y26013752D01*
X17600383Y26013752D02*
X17519571Y25932940D01*
X17519571Y25932940D02*
X17438758Y25798253D01*
X17438758Y25798253D02*
X17411821Y25717440D01*
X17411821Y25717440D02*
X17411821Y25609691D01*
X17411821Y25609691D02*
X17465696Y25501941D01*
X17465696Y25501941D02*
X17519571Y25448066D01*
X17519571Y25448066D02*
X17627320Y25394192D01*
X17627320Y25394192D02*
X17681195Y25394192D01*
X17681195Y25394192D02*
X17869757Y25582753D01*
X17869757Y25582753D02*
X17762007Y25690503D01*
X17869757Y25097880D02*
X18435442Y25663566D01*
X18435442Y25663566D02*
X18650942Y25448066D01*
X18650942Y25448066D02*
X18677879Y25367254D01*
X18677879Y25367254D02*
X18677879Y25313379D01*
X18677879Y25313379D02*
X18650942Y25232567D01*
X18650942Y25232567D02*
X18570129Y25151755D01*
X18570129Y25151755D02*
X18489317Y25124818D01*
X18489317Y25124818D02*
X18435442Y25124818D01*
X18435442Y25124818D02*
X18354630Y25151755D01*
X18354630Y25151755D02*
X18139131Y25367254D01*
X18731754Y24235883D02*
X18408505Y24559132D01*
X18570129Y24397508D02*
X19135815Y24963193D01*
X19135815Y24963193D02*
X19001128Y24936256D01*
X19001128Y24936256D02*
X18893378Y24936256D01*
X18893378Y24936256D02*
X18812566Y24963193D01*
X19459064Y24532195D02*
X19512939Y24532195D01*
X19512939Y24532195D02*
X19593751Y24505257D01*
X19593751Y24505257D02*
X19728438Y24370570D01*
X19728438Y24370570D02*
X19755375Y24289758D01*
X19755375Y24289758D02*
X19755375Y24235883D01*
X19755375Y24235883D02*
X19728438Y24155071D01*
X19728438Y24155071D02*
X19674563Y24101196D01*
X19674563Y24101196D02*
X19566813Y24047321D01*
X19566813Y24047321D02*
X18920316Y24047321D01*
X18920316Y24047321D02*
X19270502Y23697135D01*
X23209131Y-347998D02*
X23182194Y-267185D01*
X23182194Y-267185D02*
X23101381Y-186373D01*
X23101381Y-186373D02*
X22993632Y-132498D01*
X22993632Y-132498D02*
X22885882Y-132498D01*
X22885882Y-132498D02*
X22805070Y-159436D01*
X22805070Y-159436D02*
X22670383Y-240248D01*
X22670383Y-240248D02*
X22589571Y-321060D01*
X22589571Y-321060D02*
X22508758Y-455747D01*
X22508758Y-455747D02*
X22481821Y-536560D01*
X22481821Y-536560D02*
X22481821Y-644309D01*
X22481821Y-644309D02*
X22535696Y-752059D01*
X22535696Y-752059D02*
X22589571Y-805934D01*
X22589571Y-805934D02*
X22697320Y-859808D01*
X22697320Y-859808D02*
X22751195Y-859808D01*
X22751195Y-859808D02*
X22939757Y-671247D01*
X22939757Y-671247D02*
X22832007Y-563497D01*
X22939757Y-1156120D02*
X23505442Y-590434D01*
X23505442Y-590434D02*
X23720942Y-805934D01*
X23720942Y-805934D02*
X23747879Y-886746D01*
X23747879Y-886746D02*
X23747879Y-940621D01*
X23747879Y-940621D02*
X23720942Y-1021433D01*
X23720942Y-1021433D02*
X23640129Y-1102245D01*
X23640129Y-1102245D02*
X23559317Y-1129182D01*
X23559317Y-1129182D02*
X23505442Y-1129182D01*
X23505442Y-1129182D02*
X23424630Y-1102245D01*
X23424630Y-1102245D02*
X23209131Y-886746D01*
X23990316Y-1183057D02*
X24044190Y-1183057D01*
X24044190Y-1183057D02*
X24125003Y-1209995D01*
X24125003Y-1209995D02*
X24259690Y-1344682D01*
X24259690Y-1344682D02*
X24286627Y-1425494D01*
X24286627Y-1425494D02*
X24286627Y-1479369D01*
X24286627Y-1479369D02*
X24259690Y-1560181D01*
X24259690Y-1560181D02*
X24205815Y-1614056D01*
X24205815Y-1614056D02*
X24098065Y-1667930D01*
X24098065Y-1667930D02*
X23451568Y-1667930D01*
X23451568Y-1667930D02*
X23801754Y-2018117D01*
X24340502Y-2556865D02*
X24017253Y-2233616D01*
X24178878Y-2395240D02*
X24744563Y-1829555D01*
X24744563Y-1829555D02*
X24609876Y-1856492D01*
X24609876Y-1856492D02*
X24502126Y-1856492D01*
X24502126Y-1856492D02*
X24421314Y-1829555D01*
X23219131Y25760002D02*
X23192194Y25840815D01*
X23192194Y25840815D02*
X23111381Y25921627D01*
X23111381Y25921627D02*
X23003632Y25975502D01*
X23003632Y25975502D02*
X22895882Y25975502D01*
X22895882Y25975502D02*
X22815070Y25948564D01*
X22815070Y25948564D02*
X22680383Y25867752D01*
X22680383Y25867752D02*
X22599571Y25786940D01*
X22599571Y25786940D02*
X22518758Y25652253D01*
X22518758Y25652253D02*
X22491821Y25571440D01*
X22491821Y25571440D02*
X22491821Y25463691D01*
X22491821Y25463691D02*
X22545696Y25355941D01*
X22545696Y25355941D02*
X22599571Y25302066D01*
X22599571Y25302066D02*
X22707320Y25248192D01*
X22707320Y25248192D02*
X22761195Y25248192D01*
X22761195Y25248192D02*
X22949757Y25436753D01*
X22949757Y25436753D02*
X22842007Y25544503D01*
X22949757Y24951880D02*
X23515442Y25517566D01*
X23515442Y25517566D02*
X23730942Y25302066D01*
X23730942Y25302066D02*
X23757879Y25221254D01*
X23757879Y25221254D02*
X23757879Y25167379D01*
X23757879Y25167379D02*
X23730942Y25086567D01*
X23730942Y25086567D02*
X23650129Y25005755D01*
X23650129Y25005755D02*
X23569317Y24978818D01*
X23569317Y24978818D02*
X23515442Y24978818D01*
X23515442Y24978818D02*
X23434630Y25005755D01*
X23434630Y25005755D02*
X23219131Y25221254D01*
X23811754Y24089883D02*
X23488505Y24413132D01*
X23650129Y24251508D02*
X24215815Y24817193D01*
X24215815Y24817193D02*
X24081128Y24790256D01*
X24081128Y24790256D02*
X23973378Y24790256D01*
X23973378Y24790256D02*
X23892566Y24817193D01*
X24727626Y24305382D02*
X24781500Y24251508D01*
X24781500Y24251508D02*
X24808438Y24170695D01*
X24808438Y24170695D02*
X24808438Y24116821D01*
X24808438Y24116821D02*
X24781500Y24036008D01*
X24781500Y24036008D02*
X24700688Y23901321D01*
X24700688Y23901321D02*
X24566001Y23766634D01*
X24566001Y23766634D02*
X24431314Y23685822D01*
X24431314Y23685822D02*
X24350502Y23658885D01*
X24350502Y23658885D02*
X24296627Y23658885D01*
X24296627Y23658885D02*
X24215815Y23685822D01*
X24215815Y23685822D02*
X24161940Y23739697D01*
X24161940Y23739697D02*
X24135003Y23820509D01*
X24135003Y23820509D02*
X24135003Y23874384D01*
X24135003Y23874384D02*
X24161940Y23955196D01*
X24161940Y23955196D02*
X24242752Y24089883D01*
X24242752Y24089883D02*
X24377439Y24224570D01*
X24377439Y24224570D02*
X24512126Y24305382D01*
X24512126Y24305382D02*
X24592939Y24332320D01*
X24592939Y24332320D02*
X24646813Y24332320D01*
X24646813Y24332320D02*
X24727626Y24305382D01*
X56508505Y25236628D02*
X56481568Y25317440D01*
X56481568Y25317440D02*
X56400756Y25398252D01*
X56400756Y25398252D02*
X56293006Y25452127D01*
X56293006Y25452127D02*
X56185257Y25452127D01*
X56185257Y25452127D02*
X56104444Y25425190D01*
X56104444Y25425190D02*
X55969757Y25344377D01*
X55969757Y25344377D02*
X55888945Y25263565D01*
X55888945Y25263565D02*
X55808133Y25128878D01*
X55808133Y25128878D02*
X55781196Y25048066D01*
X55781196Y25048066D02*
X55781196Y24940316D01*
X55781196Y24940316D02*
X55835070Y24832567D01*
X55835070Y24832567D02*
X55888945Y24778692D01*
X55888945Y24778692D02*
X55996695Y24724817D01*
X55996695Y24724817D02*
X56050570Y24724817D01*
X56050570Y24724817D02*
X56239131Y24913379D01*
X56239131Y24913379D02*
X56131382Y25021129D01*
X56239131Y24428506D02*
X56804817Y24994191D01*
X56804817Y24994191D02*
X57020316Y24778692D01*
X57020316Y24778692D02*
X57047253Y24697880D01*
X57047253Y24697880D02*
X57047253Y24644005D01*
X57047253Y24644005D02*
X57020316Y24563193D01*
X57020316Y24563193D02*
X56939504Y24482381D01*
X56939504Y24482381D02*
X56858692Y24455443D01*
X56858692Y24455443D02*
X56804817Y24455443D01*
X56804817Y24455443D02*
X56724005Y24482381D01*
X56724005Y24482381D02*
X56508505Y24697880D01*
X57478252Y24320756D02*
X57532127Y24266881D01*
X57532127Y24266881D02*
X57559064Y24186069D01*
X57559064Y24186069D02*
X57559064Y24132194D01*
X57559064Y24132194D02*
X57532127Y24051382D01*
X57532127Y24051382D02*
X57451314Y23916695D01*
X57451314Y23916695D02*
X57316627Y23782008D01*
X57316627Y23782008D02*
X57181940Y23701196D01*
X57181940Y23701196D02*
X57101128Y23674259D01*
X57101128Y23674259D02*
X57047253Y23674259D01*
X57047253Y23674259D02*
X56966441Y23701196D01*
X56966441Y23701196D02*
X56912566Y23755071D01*
X56912566Y23755071D02*
X56885629Y23835883D01*
X56885629Y23835883D02*
X56885629Y23889758D01*
X56885629Y23889758D02*
X56912566Y23970570D01*
X56912566Y23970570D02*
X56993379Y24105257D01*
X56993379Y24105257D02*
X57128066Y24239944D01*
X57128066Y24239944D02*
X57262753Y24320756D01*
X57262753Y24320756D02*
X57343565Y24347694D01*
X57343565Y24347694D02*
X57397440Y24347694D01*
X57397440Y24347694D02*
X57478252Y24320756D01*
X26001568Y25263565D02*
X25974631Y25344377D01*
X25974631Y25344377D02*
X25893819Y25425189D01*
X25893819Y25425189D02*
X25786069Y25479064D01*
X25786069Y25479064D02*
X25678319Y25479064D01*
X25678319Y25479064D02*
X25597507Y25452127D01*
X25597507Y25452127D02*
X25462820Y25371315D01*
X25462820Y25371315D02*
X25382008Y25290502D01*
X25382008Y25290502D02*
X25301196Y25155815D01*
X25301196Y25155815D02*
X25274258Y25075003D01*
X25274258Y25075003D02*
X25274258Y24967254D01*
X25274258Y24967254D02*
X25328133Y24859504D01*
X25328133Y24859504D02*
X25382008Y24805629D01*
X25382008Y24805629D02*
X25489758Y24751754D01*
X25489758Y24751754D02*
X25543632Y24751754D01*
X25543632Y24751754D02*
X25732194Y24940316D01*
X25732194Y24940316D02*
X25624445Y25048066D01*
X25732194Y24455443D02*
X26297880Y25021128D01*
X26297880Y25021128D02*
X26055443Y24132194D01*
X26055443Y24132194D02*
X26621128Y24697880D01*
X26324817Y23862820D02*
X26890502Y24428506D01*
X26890502Y24428506D02*
X27025189Y24293819D01*
X27025189Y24293819D02*
X27079064Y24186069D01*
X27079064Y24186069D02*
X27079064Y24078320D01*
X27079064Y24078320D02*
X27052127Y23997507D01*
X27052127Y23997507D02*
X26971314Y23862820D01*
X26971314Y23862820D02*
X26890502Y23782008D01*
X26890502Y23782008D02*
X26755815Y23701196D01*
X26755815Y23701196D02*
X26675003Y23674259D01*
X26675003Y23674259D02*
X26567253Y23674259D01*
X26567253Y23674259D02*
X26459504Y23728133D01*
X26459504Y23728133D02*
X26324817Y23862820D01*
X33678505Y25136628D02*
X33651568Y25217440D01*
X33651568Y25217440D02*
X33570756Y25298252D01*
X33570756Y25298252D02*
X33463006Y25352127D01*
X33463006Y25352127D02*
X33355257Y25352127D01*
X33355257Y25352127D02*
X33274444Y25325190D01*
X33274444Y25325190D02*
X33139757Y25244377D01*
X33139757Y25244377D02*
X33058945Y25163565D01*
X33058945Y25163565D02*
X32978133Y25028878D01*
X32978133Y25028878D02*
X32951196Y24948066D01*
X32951196Y24948066D02*
X32951196Y24840316D01*
X32951196Y24840316D02*
X33005070Y24732567D01*
X33005070Y24732567D02*
X33058945Y24678692D01*
X33058945Y24678692D02*
X33166695Y24624817D01*
X33166695Y24624817D02*
X33220570Y24624817D01*
X33220570Y24624817D02*
X33409131Y24813379D01*
X33409131Y24813379D02*
X33301382Y24921129D01*
X33409131Y24328506D02*
X33974817Y24894191D01*
X33974817Y24894191D02*
X34190316Y24678692D01*
X34190316Y24678692D02*
X34217253Y24597880D01*
X34217253Y24597880D02*
X34217253Y24544005D01*
X34217253Y24544005D02*
X34190316Y24463193D01*
X34190316Y24463193D02*
X34109504Y24382381D01*
X34109504Y24382381D02*
X34028692Y24355443D01*
X34028692Y24355443D02*
X33974817Y24355443D01*
X33974817Y24355443D02*
X33894005Y24382381D01*
X33894005Y24382381D02*
X33678505Y24597880D01*
X34486627Y24382381D02*
X34863751Y24005257D01*
X34863751Y24005257D02*
X34055629Y23682008D01*
X28568505Y25236628D02*
X28541568Y25317440D01*
X28541568Y25317440D02*
X28460756Y25398252D01*
X28460756Y25398252D02*
X28353006Y25452127D01*
X28353006Y25452127D02*
X28245257Y25452127D01*
X28245257Y25452127D02*
X28164444Y25425190D01*
X28164444Y25425190D02*
X28029757Y25344377D01*
X28029757Y25344377D02*
X27948945Y25263565D01*
X27948945Y25263565D02*
X27868133Y25128878D01*
X27868133Y25128878D02*
X27841196Y25048066D01*
X27841196Y25048066D02*
X27841196Y24940316D01*
X27841196Y24940316D02*
X27895070Y24832567D01*
X27895070Y24832567D02*
X27948945Y24778692D01*
X27948945Y24778692D02*
X28056695Y24724817D01*
X28056695Y24724817D02*
X28110570Y24724817D01*
X28110570Y24724817D02*
X28299131Y24913379D01*
X28299131Y24913379D02*
X28191382Y25021129D01*
X28299131Y24428506D02*
X28864817Y24994191D01*
X28864817Y24994191D02*
X29080316Y24778692D01*
X29080316Y24778692D02*
X29107253Y24697880D01*
X29107253Y24697880D02*
X29107253Y24644005D01*
X29107253Y24644005D02*
X29080316Y24563193D01*
X29080316Y24563193D02*
X28999504Y24482381D01*
X28999504Y24482381D02*
X28918692Y24455443D01*
X28918692Y24455443D02*
X28864817Y24455443D01*
X28864817Y24455443D02*
X28784005Y24482381D01*
X28784005Y24482381D02*
X28568505Y24697880D01*
X28891754Y23835883D02*
X28999504Y23728133D01*
X28999504Y23728133D02*
X29080316Y23701196D01*
X29080316Y23701196D02*
X29134191Y23701196D01*
X29134191Y23701196D02*
X29268878Y23728133D01*
X29268878Y23728133D02*
X29403565Y23808946D01*
X29403565Y23808946D02*
X29619064Y24024445D01*
X29619064Y24024445D02*
X29646001Y24105257D01*
X29646001Y24105257D02*
X29646001Y24159132D01*
X29646001Y24159132D02*
X29619064Y24239944D01*
X29619064Y24239944D02*
X29511314Y24347694D01*
X29511314Y24347694D02*
X29430502Y24374631D01*
X29430502Y24374631D02*
X29376627Y24374631D01*
X29376627Y24374631D02*
X29295815Y24347694D01*
X29295815Y24347694D02*
X29161128Y24213007D01*
X29161128Y24213007D02*
X29134191Y24132194D01*
X29134191Y24132194D02*
X29134191Y24078320D01*
X29134191Y24078320D02*
X29161128Y23997507D01*
X29161128Y23997507D02*
X29268878Y23889758D01*
X29268878Y23889758D02*
X29349690Y23862820D01*
X29349690Y23862820D02*
X29403565Y23862820D01*
X29403565Y23862820D02*
X29484377Y23889758D01*
X15599131Y25760002D02*
X15572194Y25840815D01*
X15572194Y25840815D02*
X15491381Y25921627D01*
X15491381Y25921627D02*
X15383632Y25975502D01*
X15383632Y25975502D02*
X15275882Y25975502D01*
X15275882Y25975502D02*
X15195070Y25948564D01*
X15195070Y25948564D02*
X15060383Y25867752D01*
X15060383Y25867752D02*
X14979571Y25786940D01*
X14979571Y25786940D02*
X14898758Y25652253D01*
X14898758Y25652253D02*
X14871821Y25571440D01*
X14871821Y25571440D02*
X14871821Y25463691D01*
X14871821Y25463691D02*
X14925696Y25355941D01*
X14925696Y25355941D02*
X14979571Y25302066D01*
X14979571Y25302066D02*
X15087320Y25248192D01*
X15087320Y25248192D02*
X15141195Y25248192D01*
X15141195Y25248192D02*
X15329757Y25436753D01*
X15329757Y25436753D02*
X15222007Y25544503D01*
X15329757Y24951880D02*
X15895442Y25517566D01*
X15895442Y25517566D02*
X16110942Y25302066D01*
X16110942Y25302066D02*
X16137879Y25221254D01*
X16137879Y25221254D02*
X16137879Y25167379D01*
X16137879Y25167379D02*
X16110942Y25086567D01*
X16110942Y25086567D02*
X16030129Y25005755D01*
X16030129Y25005755D02*
X15949317Y24978818D01*
X15949317Y24978818D02*
X15895442Y24978818D01*
X15895442Y24978818D02*
X15814630Y25005755D01*
X15814630Y25005755D02*
X15599131Y25221254D01*
X16191754Y24089883D02*
X15868505Y24413132D01*
X16030129Y24251508D02*
X16595815Y24817193D01*
X16595815Y24817193D02*
X16461128Y24790256D01*
X16461128Y24790256D02*
X16353378Y24790256D01*
X16353378Y24790256D02*
X16272566Y24817193D01*
X16946001Y24467007D02*
X17296187Y24116821D01*
X17296187Y24116821D02*
X16892126Y24089883D01*
X16892126Y24089883D02*
X16972939Y24009071D01*
X16972939Y24009071D02*
X16999876Y23928259D01*
X16999876Y23928259D02*
X16999876Y23874384D01*
X16999876Y23874384D02*
X16972939Y23793572D01*
X16972939Y23793572D02*
X16838252Y23658885D01*
X16838252Y23658885D02*
X16757439Y23631947D01*
X16757439Y23631947D02*
X16703565Y23631947D01*
X16703565Y23631947D02*
X16622752Y23658885D01*
X16622752Y23658885D02*
X16461128Y23820509D01*
X16461128Y23820509D02*
X16434191Y23901321D01*
X16434191Y23901321D02*
X16434191Y23955196D01*
X13301568Y-336435D02*
X13274631Y-255623D01*
X13274631Y-255623D02*
X13193819Y-174811D01*
X13193819Y-174811D02*
X13086069Y-120936D01*
X13086069Y-120936D02*
X12978319Y-120936D01*
X12978319Y-120936D02*
X12897507Y-147873D01*
X12897507Y-147873D02*
X12762820Y-228685D01*
X12762820Y-228685D02*
X12682008Y-309498D01*
X12682008Y-309498D02*
X12601196Y-444185D01*
X12601196Y-444185D02*
X12574258Y-524997D01*
X12574258Y-524997D02*
X12574258Y-632746D01*
X12574258Y-632746D02*
X12628133Y-740496D01*
X12628133Y-740496D02*
X12682008Y-794371D01*
X12682008Y-794371D02*
X12789758Y-848246D01*
X12789758Y-848246D02*
X12843632Y-848246D01*
X12843632Y-848246D02*
X13032194Y-659684D01*
X13032194Y-659684D02*
X12924445Y-551934D01*
X13032194Y-1144557D02*
X13597880Y-578872D01*
X13597880Y-578872D02*
X13355443Y-1467806D01*
X13355443Y-1467806D02*
X13921128Y-902120D01*
X13624817Y-1737180D02*
X14190502Y-1171494D01*
X14190502Y-1171494D02*
X14325189Y-1306181D01*
X14325189Y-1306181D02*
X14379064Y-1413931D01*
X14379064Y-1413931D02*
X14379064Y-1521680D01*
X14379064Y-1521680D02*
X14352127Y-1602493D01*
X14352127Y-1602493D02*
X14271314Y-1737180D01*
X14271314Y-1737180D02*
X14190502Y-1817992D01*
X14190502Y-1817992D02*
X14055815Y-1898804D01*
X14055815Y-1898804D02*
X13975003Y-1925741D01*
X13975003Y-1925741D02*
X13867253Y-1925741D01*
X13867253Y-1925741D02*
X13759504Y-1871867D01*
X13759504Y-1871867D02*
X13624817Y-1737180D01*
X51401568Y25263565D02*
X51374631Y25344377D01*
X51374631Y25344377D02*
X51293819Y25425189D01*
X51293819Y25425189D02*
X51186069Y25479064D01*
X51186069Y25479064D02*
X51078319Y25479064D01*
X51078319Y25479064D02*
X50997507Y25452127D01*
X50997507Y25452127D02*
X50862820Y25371315D01*
X50862820Y25371315D02*
X50782008Y25290502D01*
X50782008Y25290502D02*
X50701196Y25155815D01*
X50701196Y25155815D02*
X50674258Y25075003D01*
X50674258Y25075003D02*
X50674258Y24967254D01*
X50674258Y24967254D02*
X50728133Y24859504D01*
X50728133Y24859504D02*
X50782008Y24805629D01*
X50782008Y24805629D02*
X50889758Y24751754D01*
X50889758Y24751754D02*
X50943632Y24751754D01*
X50943632Y24751754D02*
X51132194Y24940316D01*
X51132194Y24940316D02*
X51024445Y25048066D01*
X51132194Y24455443D02*
X51697880Y25021128D01*
X51697880Y25021128D02*
X51455443Y24132194D01*
X51455443Y24132194D02*
X52021128Y24697880D01*
X51724817Y23862820D02*
X52290502Y24428506D01*
X52290502Y24428506D02*
X52425189Y24293819D01*
X52425189Y24293819D02*
X52479064Y24186069D01*
X52479064Y24186069D02*
X52479064Y24078320D01*
X52479064Y24078320D02*
X52452127Y23997507D01*
X52452127Y23997507D02*
X52371314Y23862820D01*
X52371314Y23862820D02*
X52290502Y23782008D01*
X52290502Y23782008D02*
X52155815Y23701196D01*
X52155815Y23701196D02*
X52075003Y23674259D01*
X52075003Y23674259D02*
X51967253Y23674259D01*
X51967253Y23674259D02*
X51859504Y23728133D01*
X51859504Y23728133D02*
X51724817Y23862820D01*
X53978505Y25336628D02*
X53951568Y25417440D01*
X53951568Y25417440D02*
X53870756Y25498252D01*
X53870756Y25498252D02*
X53763006Y25552127D01*
X53763006Y25552127D02*
X53655257Y25552127D01*
X53655257Y25552127D02*
X53574444Y25525190D01*
X53574444Y25525190D02*
X53439757Y25444377D01*
X53439757Y25444377D02*
X53358945Y25363565D01*
X53358945Y25363565D02*
X53278133Y25228878D01*
X53278133Y25228878D02*
X53251196Y25148066D01*
X53251196Y25148066D02*
X53251196Y25040316D01*
X53251196Y25040316D02*
X53305070Y24932567D01*
X53305070Y24932567D02*
X53358945Y24878692D01*
X53358945Y24878692D02*
X53466695Y24824817D01*
X53466695Y24824817D02*
X53520570Y24824817D01*
X53520570Y24824817D02*
X53709131Y25013379D01*
X53709131Y25013379D02*
X53601382Y25121129D01*
X53709131Y24528506D02*
X54274817Y25094191D01*
X54274817Y25094191D02*
X54490316Y24878692D01*
X54490316Y24878692D02*
X54517253Y24797880D01*
X54517253Y24797880D02*
X54517253Y24744005D01*
X54517253Y24744005D02*
X54490316Y24663193D01*
X54490316Y24663193D02*
X54409504Y24582381D01*
X54409504Y24582381D02*
X54328692Y24555443D01*
X54328692Y24555443D02*
X54274817Y24555443D01*
X54274817Y24555443D02*
X54194005Y24582381D01*
X54194005Y24582381D02*
X53978505Y24797880D01*
X54571128Y23666509D02*
X54247879Y23989758D01*
X54409504Y23828133D02*
X54975189Y24393819D01*
X54975189Y24393819D02*
X54840502Y24366881D01*
X54840502Y24366881D02*
X54732753Y24366881D01*
X54732753Y24366881D02*
X54651940Y24393819D01*
X48888505Y25336628D02*
X48861568Y25417440D01*
X48861568Y25417440D02*
X48780756Y25498252D01*
X48780756Y25498252D02*
X48673006Y25552127D01*
X48673006Y25552127D02*
X48565257Y25552127D01*
X48565257Y25552127D02*
X48484444Y25525190D01*
X48484444Y25525190D02*
X48349757Y25444377D01*
X48349757Y25444377D02*
X48268945Y25363565D01*
X48268945Y25363565D02*
X48188133Y25228878D01*
X48188133Y25228878D02*
X48161196Y25148066D01*
X48161196Y25148066D02*
X48161196Y25040316D01*
X48161196Y25040316D02*
X48215070Y24932567D01*
X48215070Y24932567D02*
X48268945Y24878692D01*
X48268945Y24878692D02*
X48376695Y24824817D01*
X48376695Y24824817D02*
X48430570Y24824817D01*
X48430570Y24824817D02*
X48619131Y25013379D01*
X48619131Y25013379D02*
X48511382Y25121129D01*
X48619131Y24528506D02*
X49184817Y25094191D01*
X49184817Y25094191D02*
X49400316Y24878692D01*
X49400316Y24878692D02*
X49427253Y24797880D01*
X49427253Y24797880D02*
X49427253Y24744005D01*
X49427253Y24744005D02*
X49400316Y24663193D01*
X49400316Y24663193D02*
X49319504Y24582381D01*
X49319504Y24582381D02*
X49238692Y24555443D01*
X49238692Y24555443D02*
X49184817Y24555443D01*
X49184817Y24555443D02*
X49104005Y24582381D01*
X49104005Y24582381D02*
X48888505Y24797880D01*
X49669690Y24501568D02*
X49723565Y24501568D01*
X49723565Y24501568D02*
X49804377Y24474631D01*
X49804377Y24474631D02*
X49939064Y24339944D01*
X49939064Y24339944D02*
X49966001Y24259132D01*
X49966001Y24259132D02*
X49966001Y24205257D01*
X49966001Y24205257D02*
X49939064Y24124445D01*
X49939064Y24124445D02*
X49885189Y24070570D01*
X49885189Y24070570D02*
X49777440Y24016695D01*
X49777440Y24016695D02*
X49130942Y24016695D01*
X49130942Y24016695D02*
X49481128Y23666509D01*
X26001568Y-336435D02*
X25974631Y-255623D01*
X25974631Y-255623D02*
X25893819Y-174811D01*
X25893819Y-174811D02*
X25786069Y-120936D01*
X25786069Y-120936D02*
X25678319Y-120936D01*
X25678319Y-120936D02*
X25597507Y-147873D01*
X25597507Y-147873D02*
X25462820Y-228685D01*
X25462820Y-228685D02*
X25382008Y-309498D01*
X25382008Y-309498D02*
X25301196Y-444185D01*
X25301196Y-444185D02*
X25274258Y-524997D01*
X25274258Y-524997D02*
X25274258Y-632746D01*
X25274258Y-632746D02*
X25328133Y-740496D01*
X25328133Y-740496D02*
X25382008Y-794371D01*
X25382008Y-794371D02*
X25489758Y-848246D01*
X25489758Y-848246D02*
X25543632Y-848246D01*
X25543632Y-848246D02*
X25732194Y-659684D01*
X25732194Y-659684D02*
X25624445Y-551934D01*
X25732194Y-1144557D02*
X26297880Y-578872D01*
X26297880Y-578872D02*
X26055443Y-1467806D01*
X26055443Y-1467806D02*
X26621128Y-902120D01*
X26324817Y-1737180D02*
X26890502Y-1171494D01*
X26890502Y-1171494D02*
X27025189Y-1306181D01*
X27025189Y-1306181D02*
X27079064Y-1413931D01*
X27079064Y-1413931D02*
X27079064Y-1521680D01*
X27079064Y-1521680D02*
X27052127Y-1602493D01*
X27052127Y-1602493D02*
X26971314Y-1737180D01*
X26971314Y-1737180D02*
X26890502Y-1817992D01*
X26890502Y-1817992D02*
X26755815Y-1898804D01*
X26755815Y-1898804D02*
X26675003Y-1925741D01*
X26675003Y-1925741D02*
X26567253Y-1925741D01*
X26567253Y-1925741D02*
X26459504Y-1871867D01*
X26459504Y-1871867D02*
X26324817Y-1737180D01*
X6624200Y4454762D02*
X6662295Y4569048D01*
X6662295Y4569048D02*
X6662295Y4759524D01*
X6662295Y4759524D02*
X6624200Y4835715D01*
X6624200Y4835715D02*
X6586104Y4873810D01*
X6586104Y4873810D02*
X6509914Y4911905D01*
X6509914Y4911905D02*
X6433723Y4911905D01*
X6433723Y4911905D02*
X6357533Y4873810D01*
X6357533Y4873810D02*
X6319438Y4835715D01*
X6319438Y4835715D02*
X6281342Y4759524D01*
X6281342Y4759524D02*
X6243247Y4607143D01*
X6243247Y4607143D02*
X6205152Y4530953D01*
X6205152Y4530953D02*
X6167057Y4492858D01*
X6167057Y4492858D02*
X6090866Y4454762D01*
X6090866Y4454762D02*
X6014676Y4454762D01*
X6014676Y4454762D02*
X5938485Y4492858D01*
X5938485Y4492858D02*
X5900390Y4530953D01*
X5900390Y4530953D02*
X5862295Y4607143D01*
X5862295Y4607143D02*
X5862295Y4797620D01*
X5862295Y4797620D02*
X5900390Y4911905D01*
X5862295Y5178572D02*
X6662295Y5369048D01*
X6662295Y5369048D02*
X6090866Y5521429D01*
X6090866Y5521429D02*
X6662295Y5673810D01*
X6662295Y5673810D02*
X5862295Y5864286D01*
X6662295Y6169049D02*
X5862295Y6169049D01*
X5862295Y6169049D02*
X5862295Y6359525D01*
X5862295Y6359525D02*
X5900390Y6473811D01*
X5900390Y6473811D02*
X5976580Y6550001D01*
X5976580Y6550001D02*
X6052771Y6588096D01*
X6052771Y6588096D02*
X6205152Y6626192D01*
X6205152Y6626192D02*
X6319438Y6626192D01*
X6319438Y6626192D02*
X6471819Y6588096D01*
X6471819Y6588096D02*
X6548009Y6550001D01*
X6548009Y6550001D02*
X6624200Y6473811D01*
X6624200Y6473811D02*
X6662295Y6359525D01*
X6662295Y6359525D02*
X6662295Y6169049D01*
X6662295Y6969049D02*
X5862295Y6969049D01*
X5862295Y7502382D02*
X5862295Y7654763D01*
X5862295Y7654763D02*
X5900390Y7730953D01*
X5900390Y7730953D02*
X5976580Y7807144D01*
X5976580Y7807144D02*
X6128961Y7845239D01*
X6128961Y7845239D02*
X6395628Y7845239D01*
X6395628Y7845239D02*
X6548009Y7807144D01*
X6548009Y7807144D02*
X6624200Y7730953D01*
X6624200Y7730953D02*
X6662295Y7654763D01*
X6662295Y7654763D02*
X6662295Y7502382D01*
X6662295Y7502382D02*
X6624200Y7426191D01*
X6624200Y7426191D02*
X6548009Y7350001D01*
X6548009Y7350001D02*
X6395628Y7311905D01*
X6395628Y7311905D02*
X6128961Y7311905D01*
X6128961Y7311905D02*
X5976580Y7350001D01*
X5976580Y7350001D02*
X5900390Y7426191D01*
X5900390Y7426191D02*
X5862295Y7502382D01*
X31108505Y25236628D02*
X31081568Y25317440D01*
X31081568Y25317440D02*
X31000756Y25398252D01*
X31000756Y25398252D02*
X30893006Y25452127D01*
X30893006Y25452127D02*
X30785257Y25452127D01*
X30785257Y25452127D02*
X30704444Y25425190D01*
X30704444Y25425190D02*
X30569757Y25344377D01*
X30569757Y25344377D02*
X30488945Y25263565D01*
X30488945Y25263565D02*
X30408133Y25128878D01*
X30408133Y25128878D02*
X30381196Y25048066D01*
X30381196Y25048066D02*
X30381196Y24940316D01*
X30381196Y24940316D02*
X30435070Y24832567D01*
X30435070Y24832567D02*
X30488945Y24778692D01*
X30488945Y24778692D02*
X30596695Y24724817D01*
X30596695Y24724817D02*
X30650570Y24724817D01*
X30650570Y24724817D02*
X30839131Y24913379D01*
X30839131Y24913379D02*
X30731382Y25021129D01*
X30839131Y24428506D02*
X31404817Y24994191D01*
X31404817Y24994191D02*
X31620316Y24778692D01*
X31620316Y24778692D02*
X31647253Y24697880D01*
X31647253Y24697880D02*
X31647253Y24644005D01*
X31647253Y24644005D02*
X31620316Y24563193D01*
X31620316Y24563193D02*
X31539504Y24482381D01*
X31539504Y24482381D02*
X31458692Y24455443D01*
X31458692Y24455443D02*
X31404817Y24455443D01*
X31404817Y24455443D02*
X31324005Y24482381D01*
X31324005Y24482381D02*
X31108505Y24697880D01*
X31808878Y24105257D02*
X31781940Y24186069D01*
X31781940Y24186069D02*
X31781940Y24239944D01*
X31781940Y24239944D02*
X31808878Y24320756D01*
X31808878Y24320756D02*
X31835815Y24347694D01*
X31835815Y24347694D02*
X31916627Y24374631D01*
X31916627Y24374631D02*
X31970502Y24374631D01*
X31970502Y24374631D02*
X32051314Y24347694D01*
X32051314Y24347694D02*
X32159064Y24239944D01*
X32159064Y24239944D02*
X32186001Y24159132D01*
X32186001Y24159132D02*
X32186001Y24105257D01*
X32186001Y24105257D02*
X32159064Y24024445D01*
X32159064Y24024445D02*
X32132127Y23997507D01*
X32132127Y23997507D02*
X32051314Y23970570D01*
X32051314Y23970570D02*
X31997440Y23970570D01*
X31997440Y23970570D02*
X31916627Y23997507D01*
X31916627Y23997507D02*
X31808878Y24105257D01*
X31808878Y24105257D02*
X31728066Y24132194D01*
X31728066Y24132194D02*
X31674191Y24132194D01*
X31674191Y24132194D02*
X31593379Y24105257D01*
X31593379Y24105257D02*
X31485629Y23997507D01*
X31485629Y23997507D02*
X31458692Y23916695D01*
X31458692Y23916695D02*
X31458692Y23862820D01*
X31458692Y23862820D02*
X31485629Y23782008D01*
X31485629Y23782008D02*
X31593379Y23674259D01*
X31593379Y23674259D02*
X31674191Y23647321D01*
X31674191Y23647321D02*
X31728066Y23647321D01*
X31728066Y23647321D02*
X31808878Y23674259D01*
X31808878Y23674259D02*
X31916627Y23782008D01*
X31916627Y23782008D02*
X31943565Y23862820D01*
X31943565Y23862820D02*
X31943565Y23916695D01*
X31943565Y23916695D02*
X31916627Y23997507D01*
X13301568Y25263565D02*
X13274631Y25344377D01*
X13274631Y25344377D02*
X13193819Y25425189D01*
X13193819Y25425189D02*
X13086069Y25479064D01*
X13086069Y25479064D02*
X12978319Y25479064D01*
X12978319Y25479064D02*
X12897507Y25452127D01*
X12897507Y25452127D02*
X12762820Y25371315D01*
X12762820Y25371315D02*
X12682008Y25290502D01*
X12682008Y25290502D02*
X12601196Y25155815D01*
X12601196Y25155815D02*
X12574258Y25075003D01*
X12574258Y25075003D02*
X12574258Y24967254D01*
X12574258Y24967254D02*
X12628133Y24859504D01*
X12628133Y24859504D02*
X12682008Y24805629D01*
X12682008Y24805629D02*
X12789758Y24751754D01*
X12789758Y24751754D02*
X12843632Y24751754D01*
X12843632Y24751754D02*
X13032194Y24940316D01*
X13032194Y24940316D02*
X12924445Y25048066D01*
X13032194Y24455443D02*
X13597880Y25021128D01*
X13597880Y25021128D02*
X13355443Y24132194D01*
X13355443Y24132194D02*
X13921128Y24697880D01*
X13624817Y23862820D02*
X14190502Y24428506D01*
X14190502Y24428506D02*
X14325189Y24293819D01*
X14325189Y24293819D02*
X14379064Y24186069D01*
X14379064Y24186069D02*
X14379064Y24078320D01*
X14379064Y24078320D02*
X14352127Y23997507D01*
X14352127Y23997507D02*
X14271314Y23862820D01*
X14271314Y23862820D02*
X14190502Y23782008D01*
X14190502Y23782008D02*
X14055815Y23701196D01*
X14055815Y23701196D02*
X13975003Y23674259D01*
X13975003Y23674259D02*
X13867253Y23674259D01*
X13867253Y23674259D02*
X13759504Y23728133D01*
X13759504Y23728133D02*
X13624817Y23862820D01*
X15599131Y-347998D02*
X15572194Y-267185D01*
X15572194Y-267185D02*
X15491381Y-186373D01*
X15491381Y-186373D02*
X15383632Y-132498D01*
X15383632Y-132498D02*
X15275882Y-132498D01*
X15275882Y-132498D02*
X15195070Y-159436D01*
X15195070Y-159436D02*
X15060383Y-240248D01*
X15060383Y-240248D02*
X14979571Y-321060D01*
X14979571Y-321060D02*
X14898758Y-455747D01*
X14898758Y-455747D02*
X14871821Y-536560D01*
X14871821Y-536560D02*
X14871821Y-644309D01*
X14871821Y-644309D02*
X14925696Y-752059D01*
X14925696Y-752059D02*
X14979571Y-805934D01*
X14979571Y-805934D02*
X15087320Y-859808D01*
X15087320Y-859808D02*
X15141195Y-859808D01*
X15141195Y-859808D02*
X15329757Y-671247D01*
X15329757Y-671247D02*
X15222007Y-563497D01*
X15329757Y-1156120D02*
X15895442Y-590434D01*
X15895442Y-590434D02*
X16110942Y-805934D01*
X16110942Y-805934D02*
X16137879Y-886746D01*
X16137879Y-886746D02*
X16137879Y-940621D01*
X16137879Y-940621D02*
X16110942Y-1021433D01*
X16110942Y-1021433D02*
X16030129Y-1102245D01*
X16030129Y-1102245D02*
X15949317Y-1129182D01*
X15949317Y-1129182D02*
X15895442Y-1129182D01*
X15895442Y-1129182D02*
X15814630Y-1102245D01*
X15814630Y-1102245D02*
X15599131Y-886746D01*
X16191754Y-2018117D02*
X15868505Y-1694868D01*
X16030129Y-1856492D02*
X16595815Y-1290807D01*
X16595815Y-1290807D02*
X16461128Y-1317744D01*
X16461128Y-1317744D02*
X16353378Y-1317744D01*
X16353378Y-1317744D02*
X16272566Y-1290807D01*
X16838252Y-2018117D02*
X16811314Y-1937305D01*
X16811314Y-1937305D02*
X16811314Y-1883430D01*
X16811314Y-1883430D02*
X16838252Y-1802618D01*
X16838252Y-1802618D02*
X16865189Y-1775680D01*
X16865189Y-1775680D02*
X16946001Y-1748743D01*
X16946001Y-1748743D02*
X16999876Y-1748743D01*
X16999876Y-1748743D02*
X17080688Y-1775680D01*
X17080688Y-1775680D02*
X17188438Y-1883430D01*
X17188438Y-1883430D02*
X17215375Y-1964242D01*
X17215375Y-1964242D02*
X17215375Y-2018117D01*
X17215375Y-2018117D02*
X17188438Y-2098929D01*
X17188438Y-2098929D02*
X17161500Y-2125866D01*
X17161500Y-2125866D02*
X17080688Y-2152804D01*
X17080688Y-2152804D02*
X17026813Y-2152804D01*
X17026813Y-2152804D02*
X16946001Y-2125866D01*
X16946001Y-2125866D02*
X16838252Y-2018117D01*
X16838252Y-2018117D02*
X16757439Y-1991179D01*
X16757439Y-1991179D02*
X16703565Y-1991179D01*
X16703565Y-1991179D02*
X16622752Y-2018117D01*
X16622752Y-2018117D02*
X16515003Y-2125866D01*
X16515003Y-2125866D02*
X16488065Y-2206679D01*
X16488065Y-2206679D02*
X16488065Y-2260553D01*
X16488065Y-2260553D02*
X16515003Y-2341366D01*
X16515003Y-2341366D02*
X16622752Y-2449115D01*
X16622752Y-2449115D02*
X16703565Y-2476053D01*
X16703565Y-2476053D02*
X16757439Y-2476053D01*
X16757439Y-2476053D02*
X16838252Y-2449115D01*
X16838252Y-2449115D02*
X16946001Y-2341366D01*
X16946001Y-2341366D02*
X16972939Y-2260553D01*
X16972939Y-2260553D02*
X16972939Y-2206679D01*
X16972939Y-2206679D02*
X16946001Y-2125866D01*
X41268505Y25236628D02*
X41241568Y25317440D01*
X41241568Y25317440D02*
X41160756Y25398252D01*
X41160756Y25398252D02*
X41053006Y25452127D01*
X41053006Y25452127D02*
X40945257Y25452127D01*
X40945257Y25452127D02*
X40864444Y25425190D01*
X40864444Y25425190D02*
X40729757Y25344377D01*
X40729757Y25344377D02*
X40648945Y25263565D01*
X40648945Y25263565D02*
X40568133Y25128878D01*
X40568133Y25128878D02*
X40541196Y25048066D01*
X40541196Y25048066D02*
X40541196Y24940316D01*
X40541196Y24940316D02*
X40595070Y24832567D01*
X40595070Y24832567D02*
X40648945Y24778692D01*
X40648945Y24778692D02*
X40756695Y24724817D01*
X40756695Y24724817D02*
X40810570Y24724817D01*
X40810570Y24724817D02*
X40999131Y24913379D01*
X40999131Y24913379D02*
X40891382Y25021129D01*
X40999131Y24428506D02*
X41564817Y24994191D01*
X41564817Y24994191D02*
X41780316Y24778692D01*
X41780316Y24778692D02*
X41807253Y24697880D01*
X41807253Y24697880D02*
X41807253Y24644005D01*
X41807253Y24644005D02*
X41780316Y24563193D01*
X41780316Y24563193D02*
X41699504Y24482381D01*
X41699504Y24482381D02*
X41618692Y24455443D01*
X41618692Y24455443D02*
X41564817Y24455443D01*
X41564817Y24455443D02*
X41484005Y24482381D01*
X41484005Y24482381D02*
X41268505Y24697880D01*
X42399876Y24159132D02*
X42130502Y24428506D01*
X42130502Y24428506D02*
X41834191Y24186069D01*
X41834191Y24186069D02*
X41888066Y24186069D01*
X41888066Y24186069D02*
X41968878Y24159132D01*
X41968878Y24159132D02*
X42103565Y24024445D01*
X42103565Y24024445D02*
X42130502Y23943633D01*
X42130502Y23943633D02*
X42130502Y23889758D01*
X42130502Y23889758D02*
X42103565Y23808946D01*
X42103565Y23808946D02*
X41968878Y23674259D01*
X41968878Y23674259D02*
X41888066Y23647321D01*
X41888066Y23647321D02*
X41834191Y23647321D01*
X41834191Y23647321D02*
X41753379Y23674259D01*
X41753379Y23674259D02*
X41618692Y23808946D01*
X41618692Y23808946D02*
X41591754Y23889758D01*
X41591754Y23889758D02*
X41591754Y23943633D01*
X28299131Y-347998D02*
X28272194Y-267185D01*
X28272194Y-267185D02*
X28191381Y-186373D01*
X28191381Y-186373D02*
X28083632Y-132498D01*
X28083632Y-132498D02*
X27975882Y-132498D01*
X27975882Y-132498D02*
X27895070Y-159436D01*
X27895070Y-159436D02*
X27760383Y-240248D01*
X27760383Y-240248D02*
X27679571Y-321060D01*
X27679571Y-321060D02*
X27598758Y-455747D01*
X27598758Y-455747D02*
X27571821Y-536560D01*
X27571821Y-536560D02*
X27571821Y-644309D01*
X27571821Y-644309D02*
X27625696Y-752059D01*
X27625696Y-752059D02*
X27679571Y-805934D01*
X27679571Y-805934D02*
X27787320Y-859808D01*
X27787320Y-859808D02*
X27841195Y-859808D01*
X27841195Y-859808D02*
X28029757Y-671247D01*
X28029757Y-671247D02*
X27922007Y-563497D01*
X28029757Y-1156120D02*
X28595442Y-590434D01*
X28595442Y-590434D02*
X28810942Y-805934D01*
X28810942Y-805934D02*
X28837879Y-886746D01*
X28837879Y-886746D02*
X28837879Y-940621D01*
X28837879Y-940621D02*
X28810942Y-1021433D01*
X28810942Y-1021433D02*
X28730129Y-1102245D01*
X28730129Y-1102245D02*
X28649317Y-1129182D01*
X28649317Y-1129182D02*
X28595442Y-1129182D01*
X28595442Y-1129182D02*
X28514630Y-1102245D01*
X28514630Y-1102245D02*
X28299131Y-886746D01*
X29080316Y-1183057D02*
X29134190Y-1183057D01*
X29134190Y-1183057D02*
X29215003Y-1209995D01*
X29215003Y-1209995D02*
X29349690Y-1344682D01*
X29349690Y-1344682D02*
X29376627Y-1425494D01*
X29376627Y-1425494D02*
X29376627Y-1479369D01*
X29376627Y-1479369D02*
X29349690Y-1560181D01*
X29349690Y-1560181D02*
X29295815Y-1614056D01*
X29295815Y-1614056D02*
X29188065Y-1667930D01*
X29188065Y-1667930D02*
X28541568Y-1667930D01*
X28541568Y-1667930D02*
X28891754Y-2018117D01*
X29619064Y-1721805D02*
X29672939Y-1721805D01*
X29672939Y-1721805D02*
X29753751Y-1748743D01*
X29753751Y-1748743D02*
X29888438Y-1883430D01*
X29888438Y-1883430D02*
X29915375Y-1964242D01*
X29915375Y-1964242D02*
X29915375Y-2018117D01*
X29915375Y-2018117D02*
X29888438Y-2098929D01*
X29888438Y-2098929D02*
X29834563Y-2152804D01*
X29834563Y-2152804D02*
X29726813Y-2206679D01*
X29726813Y-2206679D02*
X29080316Y-2206679D01*
X29080316Y-2206679D02*
X29430502Y-2556865D01*
X7979131Y-347998D02*
X7952194Y-267185D01*
X7952194Y-267185D02*
X7871381Y-186373D01*
X7871381Y-186373D02*
X7763632Y-132498D01*
X7763632Y-132498D02*
X7655882Y-132498D01*
X7655882Y-132498D02*
X7575070Y-159436D01*
X7575070Y-159436D02*
X7440383Y-240248D01*
X7440383Y-240248D02*
X7359571Y-321060D01*
X7359571Y-321060D02*
X7278758Y-455747D01*
X7278758Y-455747D02*
X7251821Y-536560D01*
X7251821Y-536560D02*
X7251821Y-644309D01*
X7251821Y-644309D02*
X7305696Y-752059D01*
X7305696Y-752059D02*
X7359571Y-805934D01*
X7359571Y-805934D02*
X7467320Y-859808D01*
X7467320Y-859808D02*
X7521195Y-859808D01*
X7521195Y-859808D02*
X7709757Y-671247D01*
X7709757Y-671247D02*
X7602007Y-563497D01*
X7709757Y-1156120D02*
X8275442Y-590434D01*
X8275442Y-590434D02*
X8490942Y-805934D01*
X8490942Y-805934D02*
X8517879Y-886746D01*
X8517879Y-886746D02*
X8517879Y-940621D01*
X8517879Y-940621D02*
X8490942Y-1021433D01*
X8490942Y-1021433D02*
X8410129Y-1102245D01*
X8410129Y-1102245D02*
X8329317Y-1129182D01*
X8329317Y-1129182D02*
X8275442Y-1129182D01*
X8275442Y-1129182D02*
X8194630Y-1102245D01*
X8194630Y-1102245D02*
X7979131Y-886746D01*
X8571754Y-2018117D02*
X8248505Y-1694868D01*
X8410129Y-1856492D02*
X8975815Y-1290807D01*
X8975815Y-1290807D02*
X8841128Y-1317744D01*
X8841128Y-1317744D02*
X8733378Y-1317744D01*
X8733378Y-1317744D02*
X8652566Y-1290807D01*
X9622313Y-1937305D02*
X9514563Y-1829555D01*
X9514563Y-1829555D02*
X9433751Y-1802618D01*
X9433751Y-1802618D02*
X9379876Y-1802618D01*
X9379876Y-1802618D02*
X9245189Y-1829555D01*
X9245189Y-1829555D02*
X9110502Y-1910367D01*
X9110502Y-1910367D02*
X8895003Y-2125866D01*
X8895003Y-2125866D02*
X8868065Y-2206679D01*
X8868065Y-2206679D02*
X8868065Y-2260553D01*
X8868065Y-2260553D02*
X8895003Y-2341366D01*
X8895003Y-2341366D02*
X9002752Y-2449115D01*
X9002752Y-2449115D02*
X9083565Y-2476053D01*
X9083565Y-2476053D02*
X9137439Y-2476053D01*
X9137439Y-2476053D02*
X9218252Y-2449115D01*
X9218252Y-2449115D02*
X9352939Y-2314428D01*
X9352939Y-2314428D02*
X9379876Y-2233616D01*
X9379876Y-2233616D02*
X9379876Y-2179741D01*
X9379876Y-2179741D02*
X9352939Y-2098929D01*
X9352939Y-2098929D02*
X9245189Y-1991179D01*
X9245189Y-1991179D02*
X9164377Y-1964242D01*
X9164377Y-1964242D02*
X9110502Y-1964242D01*
X9110502Y-1964242D02*
X9029690Y-1991179D01*
X51401568Y-336435D02*
X51374631Y-255623D01*
X51374631Y-255623D02*
X51293819Y-174811D01*
X51293819Y-174811D02*
X51186069Y-120936D01*
X51186069Y-120936D02*
X51078319Y-120936D01*
X51078319Y-120936D02*
X50997507Y-147873D01*
X50997507Y-147873D02*
X50862820Y-228685D01*
X50862820Y-228685D02*
X50782008Y-309498D01*
X50782008Y-309498D02*
X50701196Y-444185D01*
X50701196Y-444185D02*
X50674258Y-524997D01*
X50674258Y-524997D02*
X50674258Y-632746D01*
X50674258Y-632746D02*
X50728133Y-740496D01*
X50728133Y-740496D02*
X50782008Y-794371D01*
X50782008Y-794371D02*
X50889758Y-848246D01*
X50889758Y-848246D02*
X50943632Y-848246D01*
X50943632Y-848246D02*
X51132194Y-659684D01*
X51132194Y-659684D02*
X51024445Y-551934D01*
X51132194Y-1144557D02*
X51697880Y-578872D01*
X51697880Y-578872D02*
X51455443Y-1467806D01*
X51455443Y-1467806D02*
X52021128Y-902120D01*
X51724817Y-1737180D02*
X52290502Y-1171494D01*
X52290502Y-1171494D02*
X52425189Y-1306181D01*
X52425189Y-1306181D02*
X52479064Y-1413931D01*
X52479064Y-1413931D02*
X52479064Y-1521680D01*
X52479064Y-1521680D02*
X52452127Y-1602493D01*
X52452127Y-1602493D02*
X52371314Y-1737180D01*
X52371314Y-1737180D02*
X52290502Y-1817992D01*
X52290502Y-1817992D02*
X52155815Y-1898804D01*
X52155815Y-1898804D02*
X52075003Y-1925741D01*
X52075003Y-1925741D02*
X51967253Y-1925741D01*
X51967253Y-1925741D02*
X51859504Y-1871867D01*
X51859504Y-1871867D02*
X51724817Y-1737180D01*
X30556289Y-1088651D02*
X30637101Y-630716D01*
X30233040Y-765403D02*
X30798725Y-199717D01*
X30798725Y-199717D02*
X31014224Y-415216D01*
X31014224Y-415216D02*
X31041162Y-496029D01*
X31041162Y-496029D02*
X31041162Y-549903D01*
X31041162Y-549903D02*
X31014224Y-630716D01*
X31014224Y-630716D02*
X30933412Y-711528D01*
X30933412Y-711528D02*
X30852600Y-738465D01*
X30852600Y-738465D02*
X30798725Y-738465D01*
X30798725Y-738465D02*
X30717913Y-711528D01*
X30717913Y-711528D02*
X30502414Y-496029D01*
X31364411Y-765403D02*
X30906475Y-1223338D01*
X30906475Y-1223338D02*
X30879537Y-1304151D01*
X30879537Y-1304151D02*
X30879537Y-1358025D01*
X30879537Y-1358025D02*
X30906475Y-1438838D01*
X30906475Y-1438838D02*
X31014224Y-1546587D01*
X31014224Y-1546587D02*
X31095037Y-1573525D01*
X31095037Y-1573525D02*
X31148911Y-1573525D01*
X31148911Y-1573525D02*
X31229724Y-1546587D01*
X31229724Y-1546587D02*
X31687659Y-1088651D01*
X31391348Y-1923711D02*
X31957033Y-1358025D01*
X31957033Y-1358025D02*
X31714597Y-2246959D01*
X31714597Y-2246959D02*
X32280282Y-1681274D01*
X33379131Y-347998D02*
X33352194Y-267185D01*
X33352194Y-267185D02*
X33271381Y-186373D01*
X33271381Y-186373D02*
X33163632Y-132498D01*
X33163632Y-132498D02*
X33055882Y-132498D01*
X33055882Y-132498D02*
X32975070Y-159436D01*
X32975070Y-159436D02*
X32840383Y-240248D01*
X32840383Y-240248D02*
X32759571Y-321060D01*
X32759571Y-321060D02*
X32678758Y-455747D01*
X32678758Y-455747D02*
X32651821Y-536560D01*
X32651821Y-536560D02*
X32651821Y-644309D01*
X32651821Y-644309D02*
X32705696Y-752059D01*
X32705696Y-752059D02*
X32759571Y-805934D01*
X32759571Y-805934D02*
X32867320Y-859808D01*
X32867320Y-859808D02*
X32921195Y-859808D01*
X32921195Y-859808D02*
X33109757Y-671247D01*
X33109757Y-671247D02*
X33002007Y-563497D01*
X33109757Y-1156120D02*
X33675442Y-590434D01*
X33675442Y-590434D02*
X33890942Y-805934D01*
X33890942Y-805934D02*
X33917879Y-886746D01*
X33917879Y-886746D02*
X33917879Y-940621D01*
X33917879Y-940621D02*
X33890942Y-1021433D01*
X33890942Y-1021433D02*
X33810129Y-1102245D01*
X33810129Y-1102245D02*
X33729317Y-1129182D01*
X33729317Y-1129182D02*
X33675442Y-1129182D01*
X33675442Y-1129182D02*
X33594630Y-1102245D01*
X33594630Y-1102245D02*
X33379131Y-886746D01*
X34160316Y-1183057D02*
X34214190Y-1183057D01*
X34214190Y-1183057D02*
X34295003Y-1209995D01*
X34295003Y-1209995D02*
X34429690Y-1344682D01*
X34429690Y-1344682D02*
X34456627Y-1425494D01*
X34456627Y-1425494D02*
X34456627Y-1479369D01*
X34456627Y-1479369D02*
X34429690Y-1560181D01*
X34429690Y-1560181D02*
X34375815Y-1614056D01*
X34375815Y-1614056D02*
X34268065Y-1667930D01*
X34268065Y-1667930D02*
X33621568Y-1667930D01*
X33621568Y-1667930D02*
X33971754Y-2018117D01*
X35022313Y-1937305D02*
X34914563Y-1829555D01*
X34914563Y-1829555D02*
X34833751Y-1802618D01*
X34833751Y-1802618D02*
X34779876Y-1802618D01*
X34779876Y-1802618D02*
X34645189Y-1829555D01*
X34645189Y-1829555D02*
X34510502Y-1910367D01*
X34510502Y-1910367D02*
X34295003Y-2125866D01*
X34295003Y-2125866D02*
X34268065Y-2206679D01*
X34268065Y-2206679D02*
X34268065Y-2260553D01*
X34268065Y-2260553D02*
X34295003Y-2341366D01*
X34295003Y-2341366D02*
X34402752Y-2449115D01*
X34402752Y-2449115D02*
X34483565Y-2476053D01*
X34483565Y-2476053D02*
X34537439Y-2476053D01*
X34537439Y-2476053D02*
X34618252Y-2449115D01*
X34618252Y-2449115D02*
X34752939Y-2314428D01*
X34752939Y-2314428D02*
X34779876Y-2233616D01*
X34779876Y-2233616D02*
X34779876Y-2179741D01*
X34779876Y-2179741D02*
X34752939Y-2098929D01*
X34752939Y-2098929D02*
X34645189Y-1991179D01*
X34645189Y-1991179D02*
X34564377Y-1964242D01*
X34564377Y-1964242D02*
X34510502Y-1964242D01*
X34510502Y-1964242D02*
X34429690Y-1991179D01*
D12*
%TO.C,J2*%
X7045000Y28920000D02*
X57965000Y28920000D01*
X7045000Y26320000D02*
X7045000Y28920000D01*
X7045000Y23720000D02*
X7045000Y25050000D01*
X8375000Y23720000D02*
X7045000Y23720000D01*
X9645000Y26320000D02*
X7045000Y26320000D01*
X9645000Y23720000D02*
X9645000Y26320000D01*
X9645000Y23720000D02*
X57965000Y23720000D01*
X57965000Y23720000D02*
X57965000Y28920000D01*
%TO.C,U1*%
X7000000Y15450000D02*
X7000000Y22250000D01*
X7000000Y13250000D02*
X7000000Y12850000D01*
X7000000Y10650000D02*
X7000000Y10250000D01*
X7000000Y1250000D02*
X7000000Y8050000D01*
X9800000Y22250000D02*
X9400000Y22250000D01*
X9800000Y1250000D02*
X9400000Y1250000D01*
X12400000Y22250000D02*
X12000000Y22250000D01*
X12400000Y1250000D02*
X12000000Y1250000D01*
X14900000Y22250000D02*
X14500000Y22250000D01*
X14900000Y1250000D02*
X14500000Y1250000D01*
X17400000Y22250000D02*
X17000000Y22250000D01*
X17400000Y1250000D02*
X17000000Y1250000D01*
X20000000Y22250000D02*
X19600000Y22250000D01*
X20000000Y1250000D02*
X19600000Y1250000D01*
X22500000Y22250000D02*
X22100000Y22250000D01*
X22500000Y1250000D02*
X22100000Y1250000D01*
X25100000Y22250000D02*
X24700000Y22250000D01*
X25100000Y1250000D02*
X24700000Y1250000D01*
X27600000Y22250000D02*
X27200000Y22250000D01*
X27600000Y1250000D02*
X27200000Y1250000D01*
X30200000Y22250000D02*
X29800000Y22250000D01*
X30200000Y1250000D02*
X29800000Y1250000D01*
X32700000Y22250000D02*
X32300000Y22250000D01*
X32700000Y1250000D02*
X32300000Y1250000D01*
X35200000Y22250000D02*
X34800000Y22250000D01*
X35200000Y1250000D02*
X34800000Y1250000D01*
X37800000Y22250000D02*
X37400000Y22250000D01*
X37800000Y1250000D02*
X37400000Y1250000D01*
X40300000Y22250000D02*
X39900000Y22250000D01*
X40300000Y1250000D02*
X39900000Y1250000D01*
X42900000Y22250000D02*
X42500000Y22250000D01*
X42900000Y1250000D02*
X42500000Y1250000D01*
X45400000Y22250000D02*
X45000000Y22250000D01*
X45400000Y1250000D02*
X45000000Y1250000D01*
X47900000Y22250000D02*
X47500000Y22250000D01*
X47900000Y1250000D02*
X47500000Y1250000D01*
X50500000Y22250000D02*
X50100000Y22250000D01*
X50500000Y1250000D02*
X50100000Y1250000D01*
X53000000Y22250000D02*
X52600000Y22250000D01*
X53000000Y1250000D02*
X52600000Y1250000D01*
X55333000Y22250000D02*
X55333000Y19243000D01*
X55333000Y19243000D02*
X58000000Y19243000D01*
X55600000Y22250000D02*
X55200000Y22250000D01*
X55600000Y1250000D02*
X55200000Y1250000D01*
X58000000Y22250000D02*
X57700000Y22250000D01*
X58000000Y22250000D02*
X58000000Y1250000D01*
X58000000Y1250000D02*
X57700000Y1250000D01*
%TD*%
M02*
