%TF.GenerationSoftware,KiCad,Pcbnew,8.0.2*%
%TF.CreationDate,2024-05-17T00:49:12+07:00*%
%TF.ProjectId,ADC_pHAT,4144435f-7048-4415-942e-6b696361645f,rev?*%
%TF.SameCoordinates,PX5cbead0PY56c8cc0*%
%TF.FileFunction,Legend,Bot*%
%TF.FilePolarity,Positive*%
%FSLAX46Y46*%
G04 Gerber Fmt 4.6, Leading zero omitted, Abs format (unit mm)*
G04 Created by KiCad (PCBNEW 8.0.2) date 2024-05-17 00:49:12*
%MOMM*%
%LPD*%
G01*
G04 APERTURE LIST*
%ADD10C,0.100000*%
%ADD11C,0.150000*%
%ADD12C,0.120000*%
%ADD13C,0.200000*%
%ADD14C,0.250000*%
G04 APERTURE END LIST*
D10*
X22750000Y3750000D02*
X23500000Y4750000D01*
X18500000Y5750000D02*
X18500000Y9000000D01*
X23500000Y4750000D02*
X23500000Y6000000D01*
X23500000Y6000000D02*
X23000000Y6500000D01*
X19750000Y5750000D02*
X18500000Y5750000D01*
D11*
X11083333Y15068991D02*
X11416666Y15068991D01*
X11416666Y14545181D02*
X11416666Y15545181D01*
X11416666Y15545181D02*
X10940476Y15545181D01*
X10226190Y15068991D02*
X10083333Y15021372D01*
X10083333Y15021372D02*
X10035714Y14973753D01*
X10035714Y14973753D02*
X9988095Y14878515D01*
X9988095Y14878515D02*
X9988095Y14735658D01*
X9988095Y14735658D02*
X10035714Y14640420D01*
X10035714Y14640420D02*
X10083333Y14592800D01*
X10083333Y14592800D02*
X10178571Y14545181D01*
X10178571Y14545181D02*
X10559523Y14545181D01*
X10559523Y14545181D02*
X10559523Y15545181D01*
X10559523Y15545181D02*
X10226190Y15545181D01*
X10226190Y15545181D02*
X10130952Y15497562D01*
X10130952Y15497562D02*
X10083333Y15449943D01*
X10083333Y15449943D02*
X10035714Y15354705D01*
X10035714Y15354705D02*
X10035714Y15259467D01*
X10035714Y15259467D02*
X10083333Y15164229D01*
X10083333Y15164229D02*
X10130952Y15116610D01*
X10130952Y15116610D02*
X10226190Y15068991D01*
X10226190Y15068991D02*
X10559523Y15068991D01*
X9654761Y15545181D02*
X9035714Y15545181D01*
X9035714Y15545181D02*
X9369047Y15164229D01*
X9369047Y15164229D02*
X9226190Y15164229D01*
X9226190Y15164229D02*
X9130952Y15116610D01*
X9130952Y15116610D02*
X9083333Y15068991D01*
X9083333Y15068991D02*
X9035714Y14973753D01*
X9035714Y14973753D02*
X9035714Y14735658D01*
X9035714Y14735658D02*
X9083333Y14640420D01*
X9083333Y14640420D02*
X9130952Y14592800D01*
X9130952Y14592800D02*
X9226190Y14545181D01*
X9226190Y14545181D02*
X9511904Y14545181D01*
X9511904Y14545181D02*
X9607142Y14592800D01*
X9607142Y14592800D02*
X9654761Y14640420D01*
X16859580Y3642858D02*
X16907200Y3690477D01*
X16907200Y3690477D02*
X16954819Y3833334D01*
X16954819Y3833334D02*
X16954819Y3928572D01*
X16954819Y3928572D02*
X16907200Y4071429D01*
X16907200Y4071429D02*
X16811961Y4166667D01*
X16811961Y4166667D02*
X16716723Y4214286D01*
X16716723Y4214286D02*
X16526247Y4261905D01*
X16526247Y4261905D02*
X16383390Y4261905D01*
X16383390Y4261905D02*
X16192914Y4214286D01*
X16192914Y4214286D02*
X16097676Y4166667D01*
X16097676Y4166667D02*
X16002438Y4071429D01*
X16002438Y4071429D02*
X15954819Y3928572D01*
X15954819Y3928572D02*
X15954819Y3833334D01*
X15954819Y3833334D02*
X16002438Y3690477D01*
X16002438Y3690477D02*
X16050057Y3642858D01*
X16954819Y2690477D02*
X16954819Y3261905D01*
X16954819Y2976191D02*
X15954819Y2976191D01*
X15954819Y2976191D02*
X16097676Y3071429D01*
X16097676Y3071429D02*
X16192914Y3166667D01*
X16192914Y3166667D02*
X16240533Y3261905D01*
X15954819Y2357143D02*
X15954819Y1738096D01*
X15954819Y1738096D02*
X16335771Y2071429D01*
X16335771Y2071429D02*
X16335771Y1928572D01*
X16335771Y1928572D02*
X16383390Y1833334D01*
X16383390Y1833334D02*
X16431009Y1785715D01*
X16431009Y1785715D02*
X16526247Y1738096D01*
X16526247Y1738096D02*
X16764342Y1738096D01*
X16764342Y1738096D02*
X16859580Y1785715D01*
X16859580Y1785715D02*
X16907200Y1833334D01*
X16907200Y1833334D02*
X16954819Y1928572D01*
X16954819Y1928572D02*
X16954819Y2214286D01*
X16954819Y2214286D02*
X16907200Y2309524D01*
X16907200Y2309524D02*
X16859580Y2357143D01*
X53609580Y1916667D02*
X53657200Y1964286D01*
X53657200Y1964286D02*
X53704819Y2107143D01*
X53704819Y2107143D02*
X53704819Y2202381D01*
X53704819Y2202381D02*
X53657200Y2345238D01*
X53657200Y2345238D02*
X53561961Y2440476D01*
X53561961Y2440476D02*
X53466723Y2488095D01*
X53466723Y2488095D02*
X53276247Y2535714D01*
X53276247Y2535714D02*
X53133390Y2535714D01*
X53133390Y2535714D02*
X52942914Y2488095D01*
X52942914Y2488095D02*
X52847676Y2440476D01*
X52847676Y2440476D02*
X52752438Y2345238D01*
X52752438Y2345238D02*
X52704819Y2202381D01*
X52704819Y2202381D02*
X52704819Y2107143D01*
X52704819Y2107143D02*
X52752438Y1964286D01*
X52752438Y1964286D02*
X52800057Y1916667D01*
X53704819Y1440476D02*
X53704819Y1250000D01*
X53704819Y1250000D02*
X53657200Y1154762D01*
X53657200Y1154762D02*
X53609580Y1107143D01*
X53609580Y1107143D02*
X53466723Y1011905D01*
X53466723Y1011905D02*
X53276247Y964286D01*
X53276247Y964286D02*
X52895295Y964286D01*
X52895295Y964286D02*
X52800057Y1011905D01*
X52800057Y1011905D02*
X52752438Y1059524D01*
X52752438Y1059524D02*
X52704819Y1154762D01*
X52704819Y1154762D02*
X52704819Y1345238D01*
X52704819Y1345238D02*
X52752438Y1440476D01*
X52752438Y1440476D02*
X52800057Y1488095D01*
X52800057Y1488095D02*
X52895295Y1535714D01*
X52895295Y1535714D02*
X53133390Y1535714D01*
X53133390Y1535714D02*
X53228628Y1488095D01*
X53228628Y1488095D02*
X53276247Y1440476D01*
X53276247Y1440476D02*
X53323866Y1345238D01*
X53323866Y1345238D02*
X53323866Y1154762D01*
X53323866Y1154762D02*
X53276247Y1059524D01*
X53276247Y1059524D02*
X53228628Y1011905D01*
X53228628Y1011905D02*
X53133390Y964286D01*
X58109580Y1916667D02*
X58157200Y1964286D01*
X58157200Y1964286D02*
X58204819Y2107143D01*
X58204819Y2107143D02*
X58204819Y2202381D01*
X58204819Y2202381D02*
X58157200Y2345238D01*
X58157200Y2345238D02*
X58061961Y2440476D01*
X58061961Y2440476D02*
X57966723Y2488095D01*
X57966723Y2488095D02*
X57776247Y2535714D01*
X57776247Y2535714D02*
X57633390Y2535714D01*
X57633390Y2535714D02*
X57442914Y2488095D01*
X57442914Y2488095D02*
X57347676Y2440476D01*
X57347676Y2440476D02*
X57252438Y2345238D01*
X57252438Y2345238D02*
X57204819Y2202381D01*
X57204819Y2202381D02*
X57204819Y2107143D01*
X57204819Y2107143D02*
X57252438Y1964286D01*
X57252438Y1964286D02*
X57300057Y1916667D01*
X57538152Y1059524D02*
X58204819Y1059524D01*
X57157200Y1297619D02*
X57871485Y1535714D01*
X57871485Y1535714D02*
X57871485Y916667D01*
X49204819Y1916667D02*
X48728628Y2250000D01*
X49204819Y2488095D02*
X48204819Y2488095D01*
X48204819Y2488095D02*
X48204819Y2107143D01*
X48204819Y2107143D02*
X48252438Y2011905D01*
X48252438Y2011905D02*
X48300057Y1964286D01*
X48300057Y1964286D02*
X48395295Y1916667D01*
X48395295Y1916667D02*
X48538152Y1916667D01*
X48538152Y1916667D02*
X48633390Y1964286D01*
X48633390Y1964286D02*
X48681009Y2011905D01*
X48681009Y2011905D02*
X48728628Y2107143D01*
X48728628Y2107143D02*
X48728628Y2488095D01*
X48204819Y1011905D02*
X48204819Y1488095D01*
X48204819Y1488095D02*
X48681009Y1535714D01*
X48681009Y1535714D02*
X48633390Y1488095D01*
X48633390Y1488095D02*
X48585771Y1392857D01*
X48585771Y1392857D02*
X48585771Y1154762D01*
X48585771Y1154762D02*
X48633390Y1059524D01*
X48633390Y1059524D02*
X48681009Y1011905D01*
X48681009Y1011905D02*
X48776247Y964286D01*
X48776247Y964286D02*
X49014342Y964286D01*
X49014342Y964286D02*
X49109580Y1011905D01*
X49109580Y1011905D02*
X49157200Y1059524D01*
X49157200Y1059524D02*
X49204819Y1154762D01*
X49204819Y1154762D02*
X49204819Y1392857D01*
X49204819Y1392857D02*
X49157200Y1488095D01*
X49157200Y1488095D02*
X49109580Y1535714D01*
X13988094Y5045181D02*
X13988094Y6045181D01*
X13988094Y6045181D02*
X13749999Y6045181D01*
X13749999Y6045181D02*
X13607142Y5997562D01*
X13607142Y5997562D02*
X13511904Y5902324D01*
X13511904Y5902324D02*
X13464285Y5807086D01*
X13464285Y5807086D02*
X13416666Y5616610D01*
X13416666Y5616610D02*
X13416666Y5473753D01*
X13416666Y5473753D02*
X13464285Y5283277D01*
X13464285Y5283277D02*
X13511904Y5188039D01*
X13511904Y5188039D02*
X13607142Y5092800D01*
X13607142Y5092800D02*
X13749999Y5045181D01*
X13749999Y5045181D02*
X13988094Y5045181D01*
X12464285Y5045181D02*
X13035713Y5045181D01*
X12749999Y5045181D02*
X12749999Y6045181D01*
X12749999Y6045181D02*
X12845237Y5902324D01*
X12845237Y5902324D02*
X12940475Y5807086D01*
X12940475Y5807086D02*
X13035713Y5759467D01*
X24511904Y16045181D02*
X24511904Y15235658D01*
X24511904Y15235658D02*
X24464285Y15140420D01*
X24464285Y15140420D02*
X24416666Y15092800D01*
X24416666Y15092800D02*
X24321428Y15045181D01*
X24321428Y15045181D02*
X24130952Y15045181D01*
X24130952Y15045181D02*
X24035714Y15092800D01*
X24035714Y15092800D02*
X23988095Y15140420D01*
X23988095Y15140420D02*
X23940476Y15235658D01*
X23940476Y15235658D02*
X23940476Y16045181D01*
X23035714Y15711848D02*
X23035714Y15045181D01*
X23273809Y16092800D02*
X23511904Y15378515D01*
X23511904Y15378515D02*
X22892857Y15378515D01*
X42761904Y18295181D02*
X42761904Y17485658D01*
X42761904Y17485658D02*
X42714285Y17390420D01*
X42714285Y17390420D02*
X42666666Y17342800D01*
X42666666Y17342800D02*
X42571428Y17295181D01*
X42571428Y17295181D02*
X42380952Y17295181D01*
X42380952Y17295181D02*
X42285714Y17342800D01*
X42285714Y17342800D02*
X42238095Y17390420D01*
X42238095Y17390420D02*
X42190476Y17485658D01*
X42190476Y17485658D02*
X42190476Y18295181D01*
X41761904Y18199943D02*
X41714285Y18247562D01*
X41714285Y18247562D02*
X41619047Y18295181D01*
X41619047Y18295181D02*
X41380952Y18295181D01*
X41380952Y18295181D02*
X41285714Y18247562D01*
X41285714Y18247562D02*
X41238095Y18199943D01*
X41238095Y18199943D02*
X41190476Y18104705D01*
X41190476Y18104705D02*
X41190476Y18009467D01*
X41190476Y18009467D02*
X41238095Y17866610D01*
X41238095Y17866610D02*
X41809523Y17295181D01*
X41809523Y17295181D02*
X41190476Y17295181D01*
X34142857Y18890420D02*
X34190476Y18842800D01*
X34190476Y18842800D02*
X34333333Y18795181D01*
X34333333Y18795181D02*
X34428571Y18795181D01*
X34428571Y18795181D02*
X34571428Y18842800D01*
X34571428Y18842800D02*
X34666666Y18938039D01*
X34666666Y18938039D02*
X34714285Y19033277D01*
X34714285Y19033277D02*
X34761904Y19223753D01*
X34761904Y19223753D02*
X34761904Y19366610D01*
X34761904Y19366610D02*
X34714285Y19557086D01*
X34714285Y19557086D02*
X34666666Y19652324D01*
X34666666Y19652324D02*
X34571428Y19747562D01*
X34571428Y19747562D02*
X34428571Y19795181D01*
X34428571Y19795181D02*
X34333333Y19795181D01*
X34333333Y19795181D02*
X34190476Y19747562D01*
X34190476Y19747562D02*
X34142857Y19699943D01*
X33190476Y18795181D02*
X33761904Y18795181D01*
X33476190Y18795181D02*
X33476190Y19795181D01*
X33476190Y19795181D02*
X33571428Y19652324D01*
X33571428Y19652324D02*
X33666666Y19557086D01*
X33666666Y19557086D02*
X33761904Y19509467D01*
X32238095Y18795181D02*
X32809523Y18795181D01*
X32523809Y18795181D02*
X32523809Y19795181D01*
X32523809Y19795181D02*
X32619047Y19652324D01*
X32619047Y19652324D02*
X32714285Y19557086D01*
X32714285Y19557086D02*
X32809523Y19509467D01*
X34166666Y20390420D02*
X34214285Y20342800D01*
X34214285Y20342800D02*
X34357142Y20295181D01*
X34357142Y20295181D02*
X34452380Y20295181D01*
X34452380Y20295181D02*
X34595237Y20342800D01*
X34595237Y20342800D02*
X34690475Y20438039D01*
X34690475Y20438039D02*
X34738094Y20533277D01*
X34738094Y20533277D02*
X34785713Y20723753D01*
X34785713Y20723753D02*
X34785713Y20866610D01*
X34785713Y20866610D02*
X34738094Y21057086D01*
X34738094Y21057086D02*
X34690475Y21152324D01*
X34690475Y21152324D02*
X34595237Y21247562D01*
X34595237Y21247562D02*
X34452380Y21295181D01*
X34452380Y21295181D02*
X34357142Y21295181D01*
X34357142Y21295181D02*
X34214285Y21247562D01*
X34214285Y21247562D02*
X34166666Y21199943D01*
X33833332Y21295181D02*
X33166666Y21295181D01*
X33166666Y21295181D02*
X33595237Y20295181D01*
X27166666Y18950181D02*
X27499999Y19426372D01*
X27738094Y18950181D02*
X27738094Y19950181D01*
X27738094Y19950181D02*
X27357142Y19950181D01*
X27357142Y19950181D02*
X27261904Y19902562D01*
X27261904Y19902562D02*
X27214285Y19854943D01*
X27214285Y19854943D02*
X27166666Y19759705D01*
X27166666Y19759705D02*
X27166666Y19616848D01*
X27166666Y19616848D02*
X27214285Y19521610D01*
X27214285Y19521610D02*
X27261904Y19473991D01*
X27261904Y19473991D02*
X27357142Y19426372D01*
X27357142Y19426372D02*
X27738094Y19426372D01*
X26595237Y19521610D02*
X26690475Y19569229D01*
X26690475Y19569229D02*
X26738094Y19616848D01*
X26738094Y19616848D02*
X26785713Y19712086D01*
X26785713Y19712086D02*
X26785713Y19759705D01*
X26785713Y19759705D02*
X26738094Y19854943D01*
X26738094Y19854943D02*
X26690475Y19902562D01*
X26690475Y19902562D02*
X26595237Y19950181D01*
X26595237Y19950181D02*
X26404761Y19950181D01*
X26404761Y19950181D02*
X26309523Y19902562D01*
X26309523Y19902562D02*
X26261904Y19854943D01*
X26261904Y19854943D02*
X26214285Y19759705D01*
X26214285Y19759705D02*
X26214285Y19712086D01*
X26214285Y19712086D02*
X26261904Y19616848D01*
X26261904Y19616848D02*
X26309523Y19569229D01*
X26309523Y19569229D02*
X26404761Y19521610D01*
X26404761Y19521610D02*
X26595237Y19521610D01*
X26595237Y19521610D02*
X26690475Y19473991D01*
X26690475Y19473991D02*
X26738094Y19426372D01*
X26738094Y19426372D02*
X26785713Y19331134D01*
X26785713Y19331134D02*
X26785713Y19140658D01*
X26785713Y19140658D02*
X26738094Y19045420D01*
X26738094Y19045420D02*
X26690475Y18997800D01*
X26690475Y18997800D02*
X26595237Y18950181D01*
X26595237Y18950181D02*
X26404761Y18950181D01*
X26404761Y18950181D02*
X26309523Y18997800D01*
X26309523Y18997800D02*
X26261904Y19045420D01*
X26261904Y19045420D02*
X26214285Y19140658D01*
X26214285Y19140658D02*
X26214285Y19331134D01*
X26214285Y19331134D02*
X26261904Y19426372D01*
X26261904Y19426372D02*
X26309523Y19473991D01*
X26309523Y19473991D02*
X26404761Y19521610D01*
X50166666Y7795181D02*
X50499999Y8271372D01*
X50738094Y7795181D02*
X50738094Y8795181D01*
X50738094Y8795181D02*
X50357142Y8795181D01*
X50357142Y8795181D02*
X50261904Y8747562D01*
X50261904Y8747562D02*
X50214285Y8699943D01*
X50214285Y8699943D02*
X50166666Y8604705D01*
X50166666Y8604705D02*
X50166666Y8461848D01*
X50166666Y8461848D02*
X50214285Y8366610D01*
X50214285Y8366610D02*
X50261904Y8318991D01*
X50261904Y8318991D02*
X50357142Y8271372D01*
X50357142Y8271372D02*
X50738094Y8271372D01*
X49785713Y8699943D02*
X49738094Y8747562D01*
X49738094Y8747562D02*
X49642856Y8795181D01*
X49642856Y8795181D02*
X49404761Y8795181D01*
X49404761Y8795181D02*
X49309523Y8747562D01*
X49309523Y8747562D02*
X49261904Y8699943D01*
X49261904Y8699943D02*
X49214285Y8604705D01*
X49214285Y8604705D02*
X49214285Y8509467D01*
X49214285Y8509467D02*
X49261904Y8366610D01*
X49261904Y8366610D02*
X49833332Y7795181D01*
X49833332Y7795181D02*
X49214285Y7795181D01*
X51109580Y16416667D02*
X51157200Y16464286D01*
X51157200Y16464286D02*
X51204819Y16607143D01*
X51204819Y16607143D02*
X51204819Y16702381D01*
X51204819Y16702381D02*
X51157200Y16845238D01*
X51157200Y16845238D02*
X51061961Y16940476D01*
X51061961Y16940476D02*
X50966723Y16988095D01*
X50966723Y16988095D02*
X50776247Y17035714D01*
X50776247Y17035714D02*
X50633390Y17035714D01*
X50633390Y17035714D02*
X50442914Y16988095D01*
X50442914Y16988095D02*
X50347676Y16940476D01*
X50347676Y16940476D02*
X50252438Y16845238D01*
X50252438Y16845238D02*
X50204819Y16702381D01*
X50204819Y16702381D02*
X50204819Y16607143D01*
X50204819Y16607143D02*
X50252438Y16464286D01*
X50252438Y16464286D02*
X50300057Y16416667D01*
X50300057Y16035714D02*
X50252438Y15988095D01*
X50252438Y15988095D02*
X50204819Y15892857D01*
X50204819Y15892857D02*
X50204819Y15654762D01*
X50204819Y15654762D02*
X50252438Y15559524D01*
X50252438Y15559524D02*
X50300057Y15511905D01*
X50300057Y15511905D02*
X50395295Y15464286D01*
X50395295Y15464286D02*
X50490533Y15464286D01*
X50490533Y15464286D02*
X50633390Y15511905D01*
X50633390Y15511905D02*
X51204819Y16083333D01*
X51204819Y16083333D02*
X51204819Y15464286D01*
X16166666Y10390420D02*
X16214285Y10342800D01*
X16214285Y10342800D02*
X16357142Y10295181D01*
X16357142Y10295181D02*
X16452380Y10295181D01*
X16452380Y10295181D02*
X16595237Y10342800D01*
X16595237Y10342800D02*
X16690475Y10438039D01*
X16690475Y10438039D02*
X16738094Y10533277D01*
X16738094Y10533277D02*
X16785713Y10723753D01*
X16785713Y10723753D02*
X16785713Y10866610D01*
X16785713Y10866610D02*
X16738094Y11057086D01*
X16738094Y11057086D02*
X16690475Y11152324D01*
X16690475Y11152324D02*
X16595237Y11247562D01*
X16595237Y11247562D02*
X16452380Y11295181D01*
X16452380Y11295181D02*
X16357142Y11295181D01*
X16357142Y11295181D02*
X16214285Y11247562D01*
X16214285Y11247562D02*
X16166666Y11199943D01*
X15595237Y10866610D02*
X15690475Y10914229D01*
X15690475Y10914229D02*
X15738094Y10961848D01*
X15738094Y10961848D02*
X15785713Y11057086D01*
X15785713Y11057086D02*
X15785713Y11104705D01*
X15785713Y11104705D02*
X15738094Y11199943D01*
X15738094Y11199943D02*
X15690475Y11247562D01*
X15690475Y11247562D02*
X15595237Y11295181D01*
X15595237Y11295181D02*
X15404761Y11295181D01*
X15404761Y11295181D02*
X15309523Y11247562D01*
X15309523Y11247562D02*
X15261904Y11199943D01*
X15261904Y11199943D02*
X15214285Y11104705D01*
X15214285Y11104705D02*
X15214285Y11057086D01*
X15214285Y11057086D02*
X15261904Y10961848D01*
X15261904Y10961848D02*
X15309523Y10914229D01*
X15309523Y10914229D02*
X15404761Y10866610D01*
X15404761Y10866610D02*
X15595237Y10866610D01*
X15595237Y10866610D02*
X15690475Y10818991D01*
X15690475Y10818991D02*
X15738094Y10771372D01*
X15738094Y10771372D02*
X15785713Y10676134D01*
X15785713Y10676134D02*
X15785713Y10485658D01*
X15785713Y10485658D02*
X15738094Y10390420D01*
X15738094Y10390420D02*
X15690475Y10342800D01*
X15690475Y10342800D02*
X15595237Y10295181D01*
X15595237Y10295181D02*
X15404761Y10295181D01*
X15404761Y10295181D02*
X15309523Y10342800D01*
X15309523Y10342800D02*
X15261904Y10390420D01*
X15261904Y10390420D02*
X15214285Y10485658D01*
X15214285Y10485658D02*
X15214285Y10676134D01*
X15214285Y10676134D02*
X15261904Y10771372D01*
X15261904Y10771372D02*
X15309523Y10818991D01*
X15309523Y10818991D02*
X15404761Y10866610D01*
X12954819Y18166667D02*
X12478628Y18500000D01*
X12954819Y18738095D02*
X11954819Y18738095D01*
X11954819Y18738095D02*
X11954819Y18357143D01*
X11954819Y18357143D02*
X12002438Y18261905D01*
X12002438Y18261905D02*
X12050057Y18214286D01*
X12050057Y18214286D02*
X12145295Y18166667D01*
X12145295Y18166667D02*
X12288152Y18166667D01*
X12288152Y18166667D02*
X12383390Y18214286D01*
X12383390Y18214286D02*
X12431009Y18261905D01*
X12431009Y18261905D02*
X12478628Y18357143D01*
X12478628Y18357143D02*
X12478628Y18738095D01*
X11954819Y17833333D02*
X11954819Y17166667D01*
X11954819Y17166667D02*
X12954819Y17595238D01*
X33916666Y8390420D02*
X33964285Y8342800D01*
X33964285Y8342800D02*
X34107142Y8295181D01*
X34107142Y8295181D02*
X34202380Y8295181D01*
X34202380Y8295181D02*
X34345237Y8342800D01*
X34345237Y8342800D02*
X34440475Y8438039D01*
X34440475Y8438039D02*
X34488094Y8533277D01*
X34488094Y8533277D02*
X34535713Y8723753D01*
X34535713Y8723753D02*
X34535713Y8866610D01*
X34535713Y8866610D02*
X34488094Y9057086D01*
X34488094Y9057086D02*
X34440475Y9152324D01*
X34440475Y9152324D02*
X34345237Y9247562D01*
X34345237Y9247562D02*
X34202380Y9295181D01*
X34202380Y9295181D02*
X34107142Y9295181D01*
X34107142Y9295181D02*
X33964285Y9247562D01*
X33964285Y9247562D02*
X33916666Y9199943D01*
X33059523Y9295181D02*
X33249999Y9295181D01*
X33249999Y9295181D02*
X33345237Y9247562D01*
X33345237Y9247562D02*
X33392856Y9199943D01*
X33392856Y9199943D02*
X33488094Y9057086D01*
X33488094Y9057086D02*
X33535713Y8866610D01*
X33535713Y8866610D02*
X33535713Y8485658D01*
X33535713Y8485658D02*
X33488094Y8390420D01*
X33488094Y8390420D02*
X33440475Y8342800D01*
X33440475Y8342800D02*
X33345237Y8295181D01*
X33345237Y8295181D02*
X33154761Y8295181D01*
X33154761Y8295181D02*
X33059523Y8342800D01*
X33059523Y8342800D02*
X33011904Y8390420D01*
X33011904Y8390420D02*
X32964285Y8485658D01*
X32964285Y8485658D02*
X32964285Y8723753D01*
X32964285Y8723753D02*
X33011904Y8818991D01*
X33011904Y8818991D02*
X33059523Y8866610D01*
X33059523Y8866610D02*
X33154761Y8914229D01*
X33154761Y8914229D02*
X33345237Y8914229D01*
X33345237Y8914229D02*
X33440475Y8866610D01*
X33440475Y8866610D02*
X33488094Y8818991D01*
X33488094Y8818991D02*
X33535713Y8723753D01*
X21916666Y14295181D02*
X22249999Y14771372D01*
X22488094Y14295181D02*
X22488094Y15295181D01*
X22488094Y15295181D02*
X22107142Y15295181D01*
X22107142Y15295181D02*
X22011904Y15247562D01*
X22011904Y15247562D02*
X21964285Y15199943D01*
X21964285Y15199943D02*
X21916666Y15104705D01*
X21916666Y15104705D02*
X21916666Y14961848D01*
X21916666Y14961848D02*
X21964285Y14866610D01*
X21964285Y14866610D02*
X22011904Y14818991D01*
X22011904Y14818991D02*
X22107142Y14771372D01*
X22107142Y14771372D02*
X22488094Y14771372D01*
X21440475Y14295181D02*
X21249999Y14295181D01*
X21249999Y14295181D02*
X21154761Y14342800D01*
X21154761Y14342800D02*
X21107142Y14390420D01*
X21107142Y14390420D02*
X21011904Y14533277D01*
X21011904Y14533277D02*
X20964285Y14723753D01*
X20964285Y14723753D02*
X20964285Y15104705D01*
X20964285Y15104705D02*
X21011904Y15199943D01*
X21011904Y15199943D02*
X21059523Y15247562D01*
X21059523Y15247562D02*
X21154761Y15295181D01*
X21154761Y15295181D02*
X21345237Y15295181D01*
X21345237Y15295181D02*
X21440475Y15247562D01*
X21440475Y15247562D02*
X21488094Y15199943D01*
X21488094Y15199943D02*
X21535713Y15104705D01*
X21535713Y15104705D02*
X21535713Y14866610D01*
X21535713Y14866610D02*
X21488094Y14771372D01*
X21488094Y14771372D02*
X21440475Y14723753D01*
X21440475Y14723753D02*
X21345237Y14676134D01*
X21345237Y14676134D02*
X21154761Y14676134D01*
X21154761Y14676134D02*
X21059523Y14723753D01*
X21059523Y14723753D02*
X21011904Y14771372D01*
X21011904Y14771372D02*
X20964285Y14866610D01*
X11704819Y18166667D02*
X11228628Y18500000D01*
X11704819Y18738095D02*
X10704819Y18738095D01*
X10704819Y18738095D02*
X10704819Y18357143D01*
X10704819Y18357143D02*
X10752438Y18261905D01*
X10752438Y18261905D02*
X10800057Y18214286D01*
X10800057Y18214286D02*
X10895295Y18166667D01*
X10895295Y18166667D02*
X11038152Y18166667D01*
X11038152Y18166667D02*
X11133390Y18214286D01*
X11133390Y18214286D02*
X11181009Y18261905D01*
X11181009Y18261905D02*
X11228628Y18357143D01*
X11228628Y18357143D02*
X11228628Y18738095D01*
X11038152Y17309524D02*
X11704819Y17309524D01*
X10657200Y17547619D02*
X11371485Y17785714D01*
X11371485Y17785714D02*
X11371485Y17166667D01*
X1627506Y23230181D02*
X1627506Y22515896D01*
X1627506Y22515896D02*
X1675125Y22373039D01*
X1675125Y22373039D02*
X1770363Y22277800D01*
X1770363Y22277800D02*
X1913220Y22230181D01*
X1913220Y22230181D02*
X2008458Y22230181D01*
X627506Y22230181D02*
X1198934Y22230181D01*
X913220Y22230181D02*
X913220Y23230181D01*
X913220Y23230181D02*
X1008458Y23087324D01*
X1008458Y23087324D02*
X1103696Y22992086D01*
X1103696Y22992086D02*
X1198934Y22944467D01*
X48609580Y16416667D02*
X48657200Y16464286D01*
X48657200Y16464286D02*
X48704819Y16607143D01*
X48704819Y16607143D02*
X48704819Y16702381D01*
X48704819Y16702381D02*
X48657200Y16845238D01*
X48657200Y16845238D02*
X48561961Y16940476D01*
X48561961Y16940476D02*
X48466723Y16988095D01*
X48466723Y16988095D02*
X48276247Y17035714D01*
X48276247Y17035714D02*
X48133390Y17035714D01*
X48133390Y17035714D02*
X47942914Y16988095D01*
X47942914Y16988095D02*
X47847676Y16940476D01*
X47847676Y16940476D02*
X47752438Y16845238D01*
X47752438Y16845238D02*
X47704819Y16702381D01*
X47704819Y16702381D02*
X47704819Y16607143D01*
X47704819Y16607143D02*
X47752438Y16464286D01*
X47752438Y16464286D02*
X47800057Y16416667D01*
X48704819Y15464286D02*
X48704819Y16035714D01*
X48704819Y15750000D02*
X47704819Y15750000D01*
X47704819Y15750000D02*
X47847676Y15845238D01*
X47847676Y15845238D02*
X47942914Y15940476D01*
X47942914Y15940476D02*
X47990533Y16035714D01*
X50704819Y1916667D02*
X50228628Y2250000D01*
X50704819Y2488095D02*
X49704819Y2488095D01*
X49704819Y2488095D02*
X49704819Y2107143D01*
X49704819Y2107143D02*
X49752438Y2011905D01*
X49752438Y2011905D02*
X49800057Y1964286D01*
X49800057Y1964286D02*
X49895295Y1916667D01*
X49895295Y1916667D02*
X50038152Y1916667D01*
X50038152Y1916667D02*
X50133390Y1964286D01*
X50133390Y1964286D02*
X50181009Y2011905D01*
X50181009Y2011905D02*
X50228628Y2107143D01*
X50228628Y2107143D02*
X50228628Y2488095D01*
X49704819Y1059524D02*
X49704819Y1250000D01*
X49704819Y1250000D02*
X49752438Y1345238D01*
X49752438Y1345238D02*
X49800057Y1392857D01*
X49800057Y1392857D02*
X49942914Y1488095D01*
X49942914Y1488095D02*
X50133390Y1535714D01*
X50133390Y1535714D02*
X50514342Y1535714D01*
X50514342Y1535714D02*
X50609580Y1488095D01*
X50609580Y1488095D02*
X50657200Y1440476D01*
X50657200Y1440476D02*
X50704819Y1345238D01*
X50704819Y1345238D02*
X50704819Y1154762D01*
X50704819Y1154762D02*
X50657200Y1059524D01*
X50657200Y1059524D02*
X50609580Y1011905D01*
X50609580Y1011905D02*
X50514342Y964286D01*
X50514342Y964286D02*
X50276247Y964286D01*
X50276247Y964286D02*
X50181009Y1011905D01*
X50181009Y1011905D02*
X50133390Y1059524D01*
X50133390Y1059524D02*
X50085771Y1154762D01*
X50085771Y1154762D02*
X50085771Y1345238D01*
X50085771Y1345238D02*
X50133390Y1440476D01*
X50133390Y1440476D02*
X50181009Y1488095D01*
X50181009Y1488095D02*
X50276247Y1535714D01*
X59181009Y2333334D02*
X59181009Y2666667D01*
X59704819Y2666667D02*
X58704819Y2666667D01*
X58704819Y2666667D02*
X58704819Y2190477D01*
X59181009Y1476191D02*
X59228628Y1333334D01*
X59228628Y1333334D02*
X59276247Y1285715D01*
X59276247Y1285715D02*
X59371485Y1238096D01*
X59371485Y1238096D02*
X59514342Y1238096D01*
X59514342Y1238096D02*
X59609580Y1285715D01*
X59609580Y1285715D02*
X59657200Y1333334D01*
X59657200Y1333334D02*
X59704819Y1428572D01*
X59704819Y1428572D02*
X59704819Y1809524D01*
X59704819Y1809524D02*
X58704819Y1809524D01*
X58704819Y1809524D02*
X58704819Y1476191D01*
X58704819Y1476191D02*
X58752438Y1380953D01*
X58752438Y1380953D02*
X58800057Y1333334D01*
X58800057Y1333334D02*
X58895295Y1285715D01*
X58895295Y1285715D02*
X58990533Y1285715D01*
X58990533Y1285715D02*
X59085771Y1333334D01*
X59085771Y1333334D02*
X59133390Y1380953D01*
X59133390Y1380953D02*
X59181009Y1476191D01*
X59181009Y1476191D02*
X59181009Y1809524D01*
X58800057Y857143D02*
X58752438Y809524D01*
X58752438Y809524D02*
X58704819Y714286D01*
X58704819Y714286D02*
X58704819Y476191D01*
X58704819Y476191D02*
X58752438Y380953D01*
X58752438Y380953D02*
X58800057Y333334D01*
X58800057Y333334D02*
X58895295Y285715D01*
X58895295Y285715D02*
X58990533Y285715D01*
X58990533Y285715D02*
X59133390Y333334D01*
X59133390Y333334D02*
X59704819Y904762D01*
X59704819Y904762D02*
X59704819Y285715D01*
X52109580Y1892858D02*
X52157200Y1940477D01*
X52157200Y1940477D02*
X52204819Y2083334D01*
X52204819Y2083334D02*
X52204819Y2178572D01*
X52204819Y2178572D02*
X52157200Y2321429D01*
X52157200Y2321429D02*
X52061961Y2416667D01*
X52061961Y2416667D02*
X51966723Y2464286D01*
X51966723Y2464286D02*
X51776247Y2511905D01*
X51776247Y2511905D02*
X51633390Y2511905D01*
X51633390Y2511905D02*
X51442914Y2464286D01*
X51442914Y2464286D02*
X51347676Y2416667D01*
X51347676Y2416667D02*
X51252438Y2321429D01*
X51252438Y2321429D02*
X51204819Y2178572D01*
X51204819Y2178572D02*
X51204819Y2083334D01*
X51204819Y2083334D02*
X51252438Y1940477D01*
X51252438Y1940477D02*
X51300057Y1892858D01*
X52204819Y940477D02*
X52204819Y1511905D01*
X52204819Y1226191D02*
X51204819Y1226191D01*
X51204819Y1226191D02*
X51347676Y1321429D01*
X51347676Y1321429D02*
X51442914Y1416667D01*
X51442914Y1416667D02*
X51490533Y1511905D01*
X51204819Y321429D02*
X51204819Y226191D01*
X51204819Y226191D02*
X51252438Y130953D01*
X51252438Y130953D02*
X51300057Y83334D01*
X51300057Y83334D02*
X51395295Y35715D01*
X51395295Y35715D02*
X51585771Y-11904D01*
X51585771Y-11904D02*
X51823866Y-11904D01*
X51823866Y-11904D02*
X52014342Y35715D01*
X52014342Y35715D02*
X52109580Y83334D01*
X52109580Y83334D02*
X52157200Y130953D01*
X52157200Y130953D02*
X52204819Y226191D01*
X52204819Y226191D02*
X52204819Y321429D01*
X52204819Y321429D02*
X52157200Y416667D01*
X52157200Y416667D02*
X52109580Y464286D01*
X52109580Y464286D02*
X52014342Y511905D01*
X52014342Y511905D02*
X51823866Y559524D01*
X51823866Y559524D02*
X51585771Y559524D01*
X51585771Y559524D02*
X51395295Y511905D01*
X51395295Y511905D02*
X51300057Y464286D01*
X51300057Y464286D02*
X51252438Y416667D01*
X51252438Y416667D02*
X51204819Y321429D01*
X9761904Y5795181D02*
X9761904Y4985658D01*
X9761904Y4985658D02*
X9714285Y4890420D01*
X9714285Y4890420D02*
X9666666Y4842800D01*
X9666666Y4842800D02*
X9571428Y4795181D01*
X9571428Y4795181D02*
X9380952Y4795181D01*
X9380952Y4795181D02*
X9285714Y4842800D01*
X9285714Y4842800D02*
X9238095Y4890420D01*
X9238095Y4890420D02*
X9190476Y4985658D01*
X9190476Y4985658D02*
X9190476Y5795181D01*
X8809523Y5795181D02*
X8190476Y5795181D01*
X8190476Y5795181D02*
X8523809Y5414229D01*
X8523809Y5414229D02*
X8380952Y5414229D01*
X8380952Y5414229D02*
X8285714Y5366610D01*
X8285714Y5366610D02*
X8238095Y5318991D01*
X8238095Y5318991D02*
X8190476Y5223753D01*
X8190476Y5223753D02*
X8190476Y4985658D01*
X8190476Y4985658D02*
X8238095Y4890420D01*
X8238095Y4890420D02*
X8285714Y4842800D01*
X8285714Y4842800D02*
X8380952Y4795181D01*
X8380952Y4795181D02*
X8666666Y4795181D01*
X8666666Y4795181D02*
X8761904Y4842800D01*
X8761904Y4842800D02*
X8809523Y4890420D01*
X55109580Y1916667D02*
X55157200Y1964286D01*
X55157200Y1964286D02*
X55204819Y2107143D01*
X55204819Y2107143D02*
X55204819Y2202381D01*
X55204819Y2202381D02*
X55157200Y2345238D01*
X55157200Y2345238D02*
X55061961Y2440476D01*
X55061961Y2440476D02*
X54966723Y2488095D01*
X54966723Y2488095D02*
X54776247Y2535714D01*
X54776247Y2535714D02*
X54633390Y2535714D01*
X54633390Y2535714D02*
X54442914Y2488095D01*
X54442914Y2488095D02*
X54347676Y2440476D01*
X54347676Y2440476D02*
X54252438Y2345238D01*
X54252438Y2345238D02*
X54204819Y2202381D01*
X54204819Y2202381D02*
X54204819Y2107143D01*
X54204819Y2107143D02*
X54252438Y1964286D01*
X54252438Y1964286D02*
X54300057Y1916667D01*
X54204819Y1011905D02*
X54204819Y1488095D01*
X54204819Y1488095D02*
X54681009Y1535714D01*
X54681009Y1535714D02*
X54633390Y1488095D01*
X54633390Y1488095D02*
X54585771Y1392857D01*
X54585771Y1392857D02*
X54585771Y1154762D01*
X54585771Y1154762D02*
X54633390Y1059524D01*
X54633390Y1059524D02*
X54681009Y1011905D01*
X54681009Y1011905D02*
X54776247Y964286D01*
X54776247Y964286D02*
X55014342Y964286D01*
X55014342Y964286D02*
X55109580Y1011905D01*
X55109580Y1011905D02*
X55157200Y1059524D01*
X55157200Y1059524D02*
X55204819Y1154762D01*
X55204819Y1154762D02*
X55204819Y1392857D01*
X55204819Y1392857D02*
X55157200Y1488095D01*
X55157200Y1488095D02*
X55109580Y1535714D01*
X53181009Y17083334D02*
X53181009Y17416667D01*
X53704819Y17416667D02*
X52704819Y17416667D01*
X52704819Y17416667D02*
X52704819Y16940477D01*
X53181009Y16226191D02*
X53228628Y16083334D01*
X53228628Y16083334D02*
X53276247Y16035715D01*
X53276247Y16035715D02*
X53371485Y15988096D01*
X53371485Y15988096D02*
X53514342Y15988096D01*
X53514342Y15988096D02*
X53609580Y16035715D01*
X53609580Y16035715D02*
X53657200Y16083334D01*
X53657200Y16083334D02*
X53704819Y16178572D01*
X53704819Y16178572D02*
X53704819Y16559524D01*
X53704819Y16559524D02*
X52704819Y16559524D01*
X52704819Y16559524D02*
X52704819Y16226191D01*
X52704819Y16226191D02*
X52752438Y16130953D01*
X52752438Y16130953D02*
X52800057Y16083334D01*
X52800057Y16083334D02*
X52895295Y16035715D01*
X52895295Y16035715D02*
X52990533Y16035715D01*
X52990533Y16035715D02*
X53085771Y16083334D01*
X53085771Y16083334D02*
X53133390Y16130953D01*
X53133390Y16130953D02*
X53181009Y16226191D01*
X53181009Y16226191D02*
X53181009Y16559524D01*
X53704819Y15035715D02*
X53704819Y15607143D01*
X53704819Y15321429D02*
X52704819Y15321429D01*
X52704819Y15321429D02*
X52847676Y15416667D01*
X52847676Y15416667D02*
X52942914Y15511905D01*
X52942914Y15511905D02*
X52990533Y15607143D01*
X10299819Y18166667D02*
X9823628Y18500000D01*
X10299819Y18738095D02*
X9299819Y18738095D01*
X9299819Y18738095D02*
X9299819Y18357143D01*
X9299819Y18357143D02*
X9347438Y18261905D01*
X9347438Y18261905D02*
X9395057Y18214286D01*
X9395057Y18214286D02*
X9490295Y18166667D01*
X9490295Y18166667D02*
X9633152Y18166667D01*
X9633152Y18166667D02*
X9728390Y18214286D01*
X9728390Y18214286D02*
X9776009Y18261905D01*
X9776009Y18261905D02*
X9823628Y18357143D01*
X9823628Y18357143D02*
X9823628Y18738095D01*
X10299819Y17214286D02*
X10299819Y17785714D01*
X10299819Y17500000D02*
X9299819Y17500000D01*
X9299819Y17500000D02*
X9442676Y17595238D01*
X9442676Y17595238D02*
X9537914Y17690476D01*
X9537914Y17690476D02*
X9585533Y17785714D01*
X22142857Y5140420D02*
X22190476Y5092800D01*
X22190476Y5092800D02*
X22333333Y5045181D01*
X22333333Y5045181D02*
X22428571Y5045181D01*
X22428571Y5045181D02*
X22571428Y5092800D01*
X22571428Y5092800D02*
X22666666Y5188039D01*
X22666666Y5188039D02*
X22714285Y5283277D01*
X22714285Y5283277D02*
X22761904Y5473753D01*
X22761904Y5473753D02*
X22761904Y5616610D01*
X22761904Y5616610D02*
X22714285Y5807086D01*
X22714285Y5807086D02*
X22666666Y5902324D01*
X22666666Y5902324D02*
X22571428Y5997562D01*
X22571428Y5997562D02*
X22428571Y6045181D01*
X22428571Y6045181D02*
X22333333Y6045181D01*
X22333333Y6045181D02*
X22190476Y5997562D01*
X22190476Y5997562D02*
X22142857Y5949943D01*
X21190476Y5045181D02*
X21761904Y5045181D01*
X21476190Y5045181D02*
X21476190Y6045181D01*
X21476190Y6045181D02*
X21571428Y5902324D01*
X21571428Y5902324D02*
X21666666Y5807086D01*
X21666666Y5807086D02*
X21761904Y5759467D01*
X20809523Y5949943D02*
X20761904Y5997562D01*
X20761904Y5997562D02*
X20666666Y6045181D01*
X20666666Y6045181D02*
X20428571Y6045181D01*
X20428571Y6045181D02*
X20333333Y5997562D01*
X20333333Y5997562D02*
X20285714Y5949943D01*
X20285714Y5949943D02*
X20238095Y5854705D01*
X20238095Y5854705D02*
X20238095Y5759467D01*
X20238095Y5759467D02*
X20285714Y5616610D01*
X20285714Y5616610D02*
X20857142Y5045181D01*
X20857142Y5045181D02*
X20238095Y5045181D01*
X26392857Y5640420D02*
X26440476Y5592800D01*
X26440476Y5592800D02*
X26583333Y5545181D01*
X26583333Y5545181D02*
X26678571Y5545181D01*
X26678571Y5545181D02*
X26821428Y5592800D01*
X26821428Y5592800D02*
X26916666Y5688039D01*
X26916666Y5688039D02*
X26964285Y5783277D01*
X26964285Y5783277D02*
X27011904Y5973753D01*
X27011904Y5973753D02*
X27011904Y6116610D01*
X27011904Y6116610D02*
X26964285Y6307086D01*
X26964285Y6307086D02*
X26916666Y6402324D01*
X26916666Y6402324D02*
X26821428Y6497562D01*
X26821428Y6497562D02*
X26678571Y6545181D01*
X26678571Y6545181D02*
X26583333Y6545181D01*
X26583333Y6545181D02*
X26440476Y6497562D01*
X26440476Y6497562D02*
X26392857Y6449943D01*
X25440476Y5545181D02*
X26011904Y5545181D01*
X25726190Y5545181D02*
X25726190Y6545181D01*
X25726190Y6545181D02*
X25821428Y6402324D01*
X25821428Y6402324D02*
X25916666Y6307086D01*
X25916666Y6307086D02*
X26011904Y6259467D01*
X24583333Y6211848D02*
X24583333Y5545181D01*
X24821428Y6592800D02*
X25059523Y5878515D01*
X25059523Y5878515D02*
X24440476Y5878515D01*
X56609580Y1916667D02*
X56657200Y1964286D01*
X56657200Y1964286D02*
X56704819Y2107143D01*
X56704819Y2107143D02*
X56704819Y2202381D01*
X56704819Y2202381D02*
X56657200Y2345238D01*
X56657200Y2345238D02*
X56561961Y2440476D01*
X56561961Y2440476D02*
X56466723Y2488095D01*
X56466723Y2488095D02*
X56276247Y2535714D01*
X56276247Y2535714D02*
X56133390Y2535714D01*
X56133390Y2535714D02*
X55942914Y2488095D01*
X55942914Y2488095D02*
X55847676Y2440476D01*
X55847676Y2440476D02*
X55752438Y2345238D01*
X55752438Y2345238D02*
X55704819Y2202381D01*
X55704819Y2202381D02*
X55704819Y2107143D01*
X55704819Y2107143D02*
X55752438Y1964286D01*
X55752438Y1964286D02*
X55800057Y1916667D01*
X55704819Y1583333D02*
X55704819Y964286D01*
X55704819Y964286D02*
X56085771Y1297619D01*
X56085771Y1297619D02*
X56085771Y1154762D01*
X56085771Y1154762D02*
X56133390Y1059524D01*
X56133390Y1059524D02*
X56181009Y1011905D01*
X56181009Y1011905D02*
X56276247Y964286D01*
X56276247Y964286D02*
X56514342Y964286D01*
X56514342Y964286D02*
X56609580Y1011905D01*
X56609580Y1011905D02*
X56657200Y1059524D01*
X56657200Y1059524D02*
X56704819Y1154762D01*
X56704819Y1154762D02*
X56704819Y1440476D01*
X56704819Y1440476D02*
X56657200Y1535714D01*
X56657200Y1535714D02*
X56609580Y1583333D01*
X22476189Y3045181D02*
X22476189Y4045181D01*
X21428571Y3140420D02*
X21476190Y3092800D01*
X21476190Y3092800D02*
X21619047Y3045181D01*
X21619047Y3045181D02*
X21714285Y3045181D01*
X21714285Y3045181D02*
X21857142Y3092800D01*
X21857142Y3092800D02*
X21952380Y3188039D01*
X21952380Y3188039D02*
X21999999Y3283277D01*
X21999999Y3283277D02*
X22047618Y3473753D01*
X22047618Y3473753D02*
X22047618Y3616610D01*
X22047618Y3616610D02*
X21999999Y3807086D01*
X21999999Y3807086D02*
X21952380Y3902324D01*
X21952380Y3902324D02*
X21857142Y3997562D01*
X21857142Y3997562D02*
X21714285Y4045181D01*
X21714285Y4045181D02*
X21619047Y4045181D01*
X21619047Y4045181D02*
X21476190Y3997562D01*
X21476190Y3997562D02*
X21428571Y3949943D01*
X20476190Y3045181D02*
X21047618Y3045181D01*
X20761904Y3045181D02*
X20761904Y4045181D01*
X20761904Y4045181D02*
X20857142Y3902324D01*
X20857142Y3902324D02*
X20952380Y3807086D01*
X20952380Y3807086D02*
X21047618Y3759467D01*
D12*
%TO.C,FB3*%
X8000000Y14050000D02*
X8000000Y11450000D01*
X8000000Y11450000D02*
X13000000Y11450000D01*
X13000000Y14050000D02*
X8000000Y14050000D01*
X13000000Y11450000D02*
X13000000Y14050000D01*
%TO.C,C13*%
X15300000Y9350000D02*
X15300000Y5150000D01*
X17700000Y5150000D02*
X17700000Y9350000D01*
X15300000Y9350000D02*
G75*
G02*
X17700000Y9350000I1200000J-1408120D01*
G01*
X17700000Y5150000D02*
G75*
G02*
X15300000Y5150000I-1200000J1474352D01*
G01*
%TO.C,C9*%
X34972500Y6850000D02*
X34972500Y2650000D01*
X37372500Y2650000D02*
X37372500Y6850000D01*
X34972500Y6850000D02*
G75*
G02*
X37372500Y6850000I1200000J-1474352D01*
G01*
X37372500Y2650000D02*
G75*
G02*
X34972500Y2650000I-1200000J1408120D01*
G01*
%TO.C,C4*%
X43050000Y6850000D02*
X43050000Y2650000D01*
X45450000Y2650000D02*
X45450000Y6850000D01*
X43050000Y6850000D02*
G75*
G02*
X45450000Y6850000I1200000J-1474352D01*
G01*
X45450000Y2650000D02*
G75*
G02*
X43050000Y2650000I-1200000J1408120D01*
G01*
%TO.C,R5*%
X27800000Y7050000D02*
X27800000Y2450000D01*
X27800000Y2450000D02*
X30200000Y2450000D01*
X30200000Y7050000D02*
X27800000Y7050000D01*
X30200000Y2450000D02*
X30200000Y7050000D01*
D13*
%TO.C,D1*%
X12575000Y11200000D02*
X13425000Y11200000D01*
X12575000Y8300000D02*
X12575000Y11200000D01*
X13425000Y11200000D02*
X13425000Y8300000D01*
X13425000Y8300000D02*
X12575000Y8300000D01*
X13775000Y11250000D02*
X14625000Y11250000D01*
D12*
%TO.C,U4*%
X24800000Y14810000D02*
X26750000Y14810000D01*
X24800000Y9690000D02*
X26750000Y9690000D01*
X28700000Y14810000D02*
X26750000Y14810000D01*
X28700000Y9690000D02*
X26750000Y9690000D01*
X24290000Y9455000D02*
X23810000Y9455000D01*
X24050000Y9785000D01*
X24290000Y9455000D01*
G36*
X24290000Y9455000D02*
G01*
X23810000Y9455000D01*
X24050000Y9785000D01*
X24290000Y9455000D01*
G37*
%TO.C,U2*%
X39300000Y17035000D02*
X41500000Y17035000D01*
X39300000Y8965000D02*
X41500000Y8965000D01*
X43700000Y17035000D02*
X41500000Y17035000D01*
X43700000Y8965000D02*
X41500000Y8965000D01*
X37640000Y9425000D02*
X37310000Y9185000D01*
X37310000Y9665000D01*
X37640000Y9425000D01*
G36*
X37640000Y9425000D02*
G01*
X37310000Y9185000D01*
X37310000Y9665000D01*
X37640000Y9425000D01*
G37*
%TO.C,C11*%
X31900000Y13300000D02*
X36100000Y13300000D01*
X36100000Y15700000D02*
X31900000Y15700000D01*
X31900000Y13300000D02*
G75*
G02*
X31900000Y15700000I1408120J1200000D01*
G01*
X36100000Y15700000D02*
G75*
G02*
X36100000Y13300000I-1474352J-1200000D01*
G01*
%TO.C,C7*%
X31900000Y15800000D02*
X36100000Y15800000D01*
X36100000Y18200000D02*
X31900000Y18200000D01*
X31900000Y15800000D02*
G75*
G02*
X31900000Y18200000I1408120J1200000D01*
G01*
X36100000Y18200000D02*
G75*
G02*
X36100000Y15800000I-1474352J-1200000D01*
G01*
%TO.C,R8*%
X24700000Y18700000D02*
X24700000Y16300000D01*
X24700000Y16300000D02*
X29300000Y16300000D01*
X29300000Y18700000D02*
X24700000Y18700000D01*
X29300000Y16300000D02*
X29300000Y18700000D01*
%TO.C,R2*%
X47700000Y11450000D02*
X47700000Y9050000D01*
X47700000Y9050000D02*
X52300000Y9050000D01*
X52300000Y11450000D02*
X47700000Y11450000D01*
X52300000Y9050000D02*
X52300000Y11450000D01*
%TO.C,C2*%
X49550000Y22350000D02*
X49550000Y18150000D01*
X51950000Y18150000D02*
X51950000Y22350000D01*
X49550000Y22350000D02*
G75*
G02*
X51950000Y22350000I1200000J-1408120D01*
G01*
X51950000Y18150000D02*
G75*
G02*
X49550000Y18150000I-1200000J1474352D01*
G01*
%TO.C,C8*%
X13400000Y11550000D02*
X17600000Y11550000D01*
X17600000Y13950000D02*
X13400000Y13950000D01*
X13400000Y11550000D02*
G75*
G02*
X13400000Y13950000I1474352J1200000D01*
G01*
X17600000Y13950000D02*
G75*
G02*
X17600000Y11550000I-1408120J-1200000D01*
G01*
%TO.C,R7*%
X18300000Y18800000D02*
X18300000Y14200000D01*
X18300000Y14200000D02*
X20700000Y14200000D01*
X20700000Y18800000D02*
X18300000Y18800000D01*
X20700000Y14200000D02*
X20700000Y18800000D01*
%TO.C,C6*%
X31900000Y9800000D02*
X36100000Y9800000D01*
X36100000Y12200000D02*
X31900000Y12200000D01*
X31900000Y9800000D02*
G75*
G02*
X31900000Y12200000I1408120J1200000D01*
G01*
X36100000Y12200000D02*
G75*
G02*
X36100000Y9800000I-1474352J-1200000D01*
G01*
%TO.C,R9*%
X17950000Y13950000D02*
X17950000Y11550000D01*
X17950000Y11550000D02*
X22550000Y11550000D01*
X22550000Y13950000D02*
X17950000Y13950000D01*
X22550000Y11550000D02*
X22550000Y13950000D01*
%TO.C,R4*%
X15800000Y18800000D02*
X15800000Y14200000D01*
X15800000Y14200000D02*
X18200000Y14200000D01*
X18200000Y18800000D02*
X15800000Y18800000D01*
X18200000Y14200000D02*
X18200000Y18800000D01*
D13*
%TO.C,J1*%
X-9555000Y17415000D02*
X-9555000Y12085000D01*
X-9555000Y17415000D02*
X-8840000Y17415000D01*
X-9555000Y12085000D02*
X-8840000Y12085000D01*
X-8840000Y17415000D02*
X-8840000Y12035000D01*
X-8840000Y17415000D02*
X-8629000Y17844000D01*
X-8840000Y17415000D02*
X-8629000Y11656000D01*
X-8840000Y17415000D02*
X-8491000Y11656000D01*
X-8840000Y17415000D02*
X-8280010Y12035000D01*
X-8840000Y12035000D02*
X-8629000Y11656000D01*
X-8629000Y17844000D02*
X-8491000Y17844000D01*
X-8629000Y17844000D02*
X-8069010Y11656000D01*
X-8629000Y11656000D02*
X-8491000Y11656000D01*
X-8491000Y17844000D02*
X-8280010Y17465000D01*
X-8491000Y17844000D02*
X-7931000Y11656000D01*
X-8491000Y11656000D02*
X-8280010Y12035000D01*
X-8280010Y17465000D02*
X-8069010Y17844000D01*
X-8280010Y17465000D02*
X-7720000Y12035000D01*
X-8280010Y12035000D02*
X-8069010Y11656000D01*
X-8069010Y17844000D02*
X-7931000Y17844000D01*
X-8069010Y17844000D02*
X-7509000Y11656000D01*
X-8069010Y11656000D02*
X-7931000Y11656000D01*
X-7931000Y17844000D02*
X-7720000Y17465000D01*
X-7931000Y17844000D02*
X-7371000Y11656000D01*
X-7931000Y11656000D02*
X-7720000Y12035000D01*
X-7720000Y17465000D02*
X-7509000Y17844000D01*
X-7720000Y17465000D02*
X-7160000Y12035000D01*
X-7720000Y12035000D02*
X-7509000Y11656000D01*
X-7509000Y17844000D02*
X-7371000Y17844000D01*
X-7509000Y17844000D02*
X-6949000Y11656000D01*
X-7509000Y11656000D02*
X-7371000Y11656000D01*
X-7371000Y17844000D02*
X-7160000Y17465000D01*
X-7371000Y17844000D02*
X-6811000Y11656000D01*
X-7371000Y11656000D02*
X-7160000Y12035000D01*
X-7160000Y17465000D02*
X-6949000Y17844000D01*
X-7160000Y17465000D02*
X-6600000Y12035000D01*
X-7160000Y12035000D02*
X-6949000Y11656000D01*
X-6949000Y17844000D02*
X-6811000Y17844000D01*
X-6949000Y17844000D02*
X-6389000Y11656000D01*
X-6949000Y11656000D02*
X-6811000Y11656000D01*
X-6811000Y17844000D02*
X-6600000Y17465000D01*
X-6811000Y17844000D02*
X-6251000Y11656000D01*
X-6811000Y11656000D02*
X-6600000Y12035000D01*
X-6600000Y17465000D02*
X-6389000Y17844000D01*
X-6600000Y17465000D02*
X-6040000Y12035000D01*
X-6600000Y12035000D02*
X-6389000Y11656000D01*
X-6389000Y17844000D02*
X-6251000Y17844000D01*
X-6389000Y17844000D02*
X-5829000Y11656000D01*
X-6389000Y11656000D02*
X-6251000Y11656000D01*
X-6251000Y17844000D02*
X-6040000Y17465000D01*
X-6251000Y17844000D02*
X-5691000Y11656000D01*
X-6251000Y11656000D02*
X-6040000Y12035000D01*
X-6040000Y17465000D02*
X-5829000Y17844000D01*
X-6040000Y17465000D02*
X-5480000Y12035000D01*
X-6040000Y12035000D02*
X-5829000Y11656000D01*
X-5829000Y17844000D02*
X-5691000Y17844000D01*
X-5829000Y17844000D02*
X-5269000Y11656000D01*
X-5829000Y11656000D02*
X-5691000Y11656000D01*
X-5691000Y17844000D02*
X-5480000Y17465000D01*
X-5691000Y17844000D02*
X-5131000Y11656000D01*
X-5691000Y11656000D02*
X-5480000Y12035000D01*
X-5480000Y17465000D02*
X-5269000Y17844000D01*
X-5480000Y17465000D02*
X-4920000Y12037310D01*
X-5480000Y12035000D02*
X-5269000Y11656000D01*
X-5269000Y17844000D02*
X-5131000Y17844000D01*
X-5269000Y17844000D02*
X-4920000Y12037310D01*
X-5269000Y11656000D02*
X-5131000Y11656000D01*
X-5131000Y17844000D02*
X-4920000Y17465000D01*
X-5131000Y17844000D02*
X-4920000Y12085000D01*
X-5131000Y11656000D02*
X-4920000Y12037310D01*
X-4920000Y17465000D02*
X-4920000Y12037310D01*
X-4920000Y17415000D02*
X-4545000Y17203270D01*
X-4920000Y12085000D02*
X-4545000Y12302610D01*
X-4545000Y17203280D02*
X-4545000Y12302610D01*
X-4545000Y17203270D02*
X-1675000Y17203270D01*
X-4545000Y12302610D02*
X-1675000Y12302610D01*
X-1675000Y19510000D02*
X-1675000Y9990000D01*
X-1675000Y19510000D02*
X-25000Y19510000D01*
X-1675000Y9990000D02*
X-25000Y9990000D01*
X-25000Y19510000D02*
X-25000Y15887300D01*
X-25000Y13612700D02*
X-25000Y9990000D01*
D12*
%TO.C,C1*%
X47050000Y22350000D02*
X47050000Y18150000D01*
X49450000Y18150000D02*
X49450000Y22350000D01*
X47050000Y22350000D02*
G75*
G02*
X49450000Y22350000I1200000J-1408120D01*
G01*
X49450000Y18150000D02*
G75*
G02*
X47050000Y18150000I-1200000J1474352D01*
G01*
%TO.C,R6*%
X30050000Y7050000D02*
X30050000Y2450000D01*
X30050000Y2450000D02*
X32450000Y2450000D01*
X32450000Y7050000D02*
X30050000Y7050000D01*
X32450000Y2450000D02*
X32450000Y7050000D01*
%TO.C,FB2*%
X45450000Y7250000D02*
X45450000Y2250000D01*
X45450000Y2250000D02*
X48050000Y2250000D01*
X48050000Y7250000D02*
X45450000Y7250000D01*
X48050000Y2250000D02*
X48050000Y7250000D01*
%TO.C,C10*%
X32550000Y6850000D02*
X32550000Y2650000D01*
X34950000Y2650000D02*
X34950000Y6850000D01*
X32550000Y6850000D02*
G75*
G02*
X34950000Y6850000I1200000J-1474352D01*
G01*
X34950000Y2650000D02*
G75*
G02*
X32550000Y2650000I-1200000J1408120D01*
G01*
%TO.C,U3*%
X6140000Y7390000D02*
X6140000Y9970000D01*
X6140000Y7390000D02*
X7120000Y7390000D01*
X10860000Y10110000D02*
X10860000Y7390000D01*
X10860000Y7390000D02*
X9880000Y7390000D01*
X6290000Y10520000D02*
X5960000Y10280000D01*
X5960000Y10760000D01*
X6290000Y10520000D01*
G36*
X6290000Y10520000D02*
G01*
X5960000Y10280000D01*
X5960000Y10760000D01*
X6290000Y10520000D01*
G37*
%TO.C,C5*%
X37300000Y6850000D02*
X37300000Y2650000D01*
X39700000Y2650000D02*
X39700000Y6850000D01*
X37300000Y6850000D02*
G75*
G02*
X39700000Y6850000I1200000J-1474352D01*
G01*
X39700000Y2650000D02*
G75*
G02*
X37300000Y2650000I-1200000J1408120D01*
G01*
%TO.C,FB1*%
X51950000Y22750000D02*
X51950000Y17750000D01*
X51950000Y17750000D02*
X54550000Y17750000D01*
X54550000Y22750000D02*
X51950000Y22750000D01*
X54550000Y17750000D02*
X54550000Y22750000D01*
%TO.C,R1*%
X13300000Y18800000D02*
X13300000Y14200000D01*
X13300000Y14200000D02*
X15700000Y14200000D01*
X15700000Y18800000D02*
X13300000Y18800000D01*
X15700000Y14200000D02*
X15700000Y18800000D01*
%TO.C,C12*%
X18150000Y9050000D02*
X22350000Y9050000D01*
X22350000Y11450000D02*
X18150000Y11450000D01*
X18150000Y9050000D02*
G75*
G02*
X18150000Y11450000I1474352J1200000D01*
G01*
X22350000Y11450000D02*
G75*
G02*
X22350000Y9050000I-1408120J-1200000D01*
G01*
%TO.C,C14*%
X24650000Y7050000D02*
X28850000Y7050000D01*
X28850000Y9450000D02*
X24650000Y9450000D01*
X24650000Y7050000D02*
G75*
G02*
X24650000Y9450000I1474352J1200000D01*
G01*
X28850000Y9450000D02*
G75*
G02*
X28850000Y7050000I-1408120J-1200000D01*
G01*
%TO.C,C3*%
X40550000Y6850000D02*
X40550000Y2650000D01*
X42950000Y2650000D02*
X42950000Y6850000D01*
X40550000Y6850000D02*
G75*
G02*
X42950000Y6850000I1200000J-1474352D01*
G01*
X42950000Y2650000D02*
G75*
G02*
X40550000Y2650000I-1200000J1408120D01*
G01*
D14*
%TO.C,IC1*%
X23000000Y9150000D02*
G75*
G02*
X22750000Y9150000I-125000J0D01*
G01*
X22750000Y9150000D02*
G75*
G02*
X23000000Y9150000I125000J0D01*
G01*
%TD*%
M02*
