M48
; DRILL file {KiCad 8.0.2} date 2024-05-17T00:49:14+0700
; FORMAT={-:-/ absolute / metric / decimal}
; #@! TF.CreationDate,2024-05-17T00:49:14+07:00
; #@! TF.GenerationSoftware,Kicad,Pcbnew,8.0.2
; #@! TF.FileFunction,Plated,1,2,PTH
FMAT,2
METRIC
; #@! TA.AperFunction,Plated,PTH,ViaDrill
T1C0.300
; #@! TA.AperFunction,Plated,PTH,ViaDrill
T2C1.000
; #@! TA.AperFunction,Plated,PTH,ComponentDrill
T3C1.000
%
G90
G05
T1
X4.0Y15.75
X4.0Y13.75
X5.0Y15.75
X5.0Y13.75
X7.8Y18.85
X9.05Y16.45
X9.75Y19.25
X10.65Y16.45
X10.9Y19.2
X11.75Y7.5
X11.75Y6.5
X12.0Y16.45
X12.75Y15.0
X13.0Y7.5
X13.45Y22.9
X13.5Y6.75
X13.5Y0.75
X14.75Y7.5
X15.99Y19.25
X16.0Y10.5
X17.25Y10.5
X17.5Y7.25
X18.5Y19.6
X19.25Y7.0
X19.5Y4.5
X21.0Y17.25
X21.0Y4.5
X21.5Y8.625
X21.525Y7.525
X22.7Y18.55
X22.95Y17.7
X23.5Y7.0
X24.075Y19.325
X24.4Y17.25
X26.0Y14.25
X26.0Y4.5
X26.0Y3.0
X26.65Y18.9
X27.0Y14.25
X30.0Y19.5
X30.0Y16.25
X30.25Y17.5
X31.0Y15.5
X31.25Y7.75
X31.75Y18.75
X32.2Y9.25
X32.2Y7.75
X32.55Y26.35
X33.75Y18.5
X34.75Y7.75
X35.0Y19.25
X35.5Y9.25
X35.75Y7.75
X37.0Y17.25
X37.5Y23.75
X39.0Y21.75
X39.0Y20.75
X39.0Y7.75
X40.212Y5.0
X40.25Y7.75
X40.5Y12.7
X40.5Y11.75
X40.5Y10.5
X41.2Y18.95
X41.75Y7.75
X42.675Y24.325
X42.75Y16.0
X42.75Y15.0
X42.75Y14.0
X42.75Y10.4
X43.0Y8.0
X43.0Y4.75
X45.0Y8.0
X45.5Y4.75
X46.0Y9.0
X47.0Y17.425
X47.25Y8.0
X49.75Y17.25
X50.0Y8.25
X50.0Y5.25
X51.5Y3.25
X51.5Y2.0
X51.75Y17.4
X53.25Y6.75
X55.0Y19.25
X56.0Y19.25
X58.0Y26.25
X58.25Y24.5
X58.5Y20.75
X59.5Y29.0
X60.25Y21.75
X62.75Y22.0
X62.75Y20.25
X64.25Y24.5
T2
X2.25Y14.75
T3
X8.375Y27.59
X8.375Y25.05
X10.915Y27.59
X10.915Y25.05
X13.455Y27.59
X13.455Y25.05
X15.995Y27.59
X15.995Y25.05
X18.535Y27.59
X18.535Y25.05
X21.075Y27.59
X21.075Y25.05
X23.615Y27.59
X23.615Y25.05
X26.155Y27.59
X26.155Y25.05
X28.695Y27.59
X28.695Y25.05
X31.235Y27.59
X31.235Y25.05
X33.775Y27.59
X33.775Y25.05
X36.315Y27.59
X36.315Y25.05
X38.855Y27.59
X38.855Y25.05
X41.395Y27.59
X41.395Y25.05
X43.935Y27.59
X43.935Y25.05
X46.475Y27.59
X46.475Y25.05
X49.015Y27.59
X49.015Y25.05
X51.555Y27.59
X51.555Y25.05
X54.095Y27.59
X54.095Y25.05
X56.635Y27.59
X56.635Y25.05
M30
