%TF.GenerationSoftware,KiCad,Pcbnew,8.0.1*%
%TF.CreationDate,2024-03-28T06:54:54+07:00*%
%TF.ProjectId,ADC_pHAT,4144435f-7048-4415-942e-6b696361645f,rev?*%
%TF.SameCoordinates,PX5cbead0PY56c8cc0*%
%TF.FileFunction,Copper,L2,Bot*%
%TF.FilePolarity,Positive*%
%FSLAX46Y46*%
G04 Gerber Fmt 4.6, Leading zero omitted, Abs format (unit mm)*
G04 Created by KiCad (PCBNEW 8.0.1) date 2024-03-28 06:54:54*
%MOMM*%
%LPD*%
G01*
G04 APERTURE LIST*
G04 Aperture macros list*
%AMRoundRect*
0 Rectangle with rounded corners*
0 $1 Rounding radius*
0 $2 $3 $4 $5 $6 $7 $8 $9 X,Y pos of 4 corners*
0 Add a 4 corners polygon primitive as box body*
4,1,4,$2,$3,$4,$5,$6,$7,$8,$9,$2,$3,0*
0 Add four circle primitives for the rounded corners*
1,1,$1+$1,$2,$3*
1,1,$1+$1,$4,$5*
1,1,$1+$1,$6,$7*
1,1,$1+$1,$8,$9*
0 Add four rect primitives between the rounded corners*
20,1,$1+$1,$2,$3,$4,$5,0*
20,1,$1+$1,$4,$5,$6,$7,0*
20,1,$1+$1,$6,$7,$8,$9,0*
20,1,$1+$1,$8,$9,$2,$3,0*%
%AMFreePoly0*
4,1,9,3.862500,-0.866500,0.737500,-0.866500,0.737500,-0.450000,-0.737500,-0.450000,-0.737500,0.450000,0.737500,0.450000,0.737500,0.866500,3.862500,0.866500,3.862500,-0.866500,3.862500,-0.866500,$1*%
G04 Aperture macros list end*
%TA.AperFunction,ComponentPad*%
%ADD10R,1.700000X1.700000*%
%TD*%
%TA.AperFunction,ComponentPad*%
%ADD11O,1.700000X1.700000*%
%TD*%
%TA.AperFunction,SMDPad,CuDef*%
%ADD12RoundRect,0.250000X-0.275000X-0.700000X0.275000X-0.700000X0.275000X0.700000X-0.275000X0.700000X0*%
%TD*%
%TA.AperFunction,SMDPad,CuDef*%
%ADD13RoundRect,0.250000X0.650000X-0.325000X0.650000X0.325000X-0.650000X0.325000X-0.650000X-0.325000X0*%
%TD*%
%TA.AperFunction,SMDPad,CuDef*%
%ADD14RoundRect,0.250000X-0.650000X0.325000X-0.650000X-0.325000X0.650000X-0.325000X0.650000X0.325000X0*%
%TD*%
%TA.AperFunction,SMDPad,CuDef*%
%ADD15RoundRect,0.250000X0.625000X-0.312500X0.625000X0.312500X-0.625000X0.312500X-0.625000X-0.312500X0*%
%TD*%
%TA.AperFunction,SMDPad,CuDef*%
%ADD16R,0.850000X0.600000*%
%TD*%
%TA.AperFunction,SMDPad,CuDef*%
%ADD17RoundRect,0.150000X-0.725000X-0.150000X0.725000X-0.150000X0.725000X0.150000X-0.725000X0.150000X0*%
%TD*%
%TA.AperFunction,SMDPad,CuDef*%
%ADD18RoundRect,0.100000X-0.637500X-0.100000X0.637500X-0.100000X0.637500X0.100000X-0.637500X0.100000X0*%
%TD*%
%TA.AperFunction,SMDPad,CuDef*%
%ADD19RoundRect,0.250000X0.325000X0.650000X-0.325000X0.650000X-0.325000X-0.650000X0.325000X-0.650000X0*%
%TD*%
%TA.AperFunction,SMDPad,CuDef*%
%ADD20RoundRect,0.250000X0.312500X0.625000X-0.312500X0.625000X-0.312500X-0.625000X0.312500X-0.625000X0*%
%TD*%
%TA.AperFunction,SMDPad,CuDef*%
%ADD21RoundRect,0.250000X-0.312500X-0.625000X0.312500X-0.625000X0.312500X0.625000X-0.312500X0.625000X0*%
%TD*%
%TA.AperFunction,SMDPad,CuDef*%
%ADD22RoundRect,0.250000X-0.325000X-0.650000X0.325000X-0.650000X0.325000X0.650000X-0.325000X0.650000X0*%
%TD*%
%TA.AperFunction,SMDPad,CuDef*%
%ADD23RoundRect,0.250000X-0.625000X0.312500X-0.625000X-0.312500X0.625000X-0.312500X0.625000X0.312500X0*%
%TD*%
%TA.AperFunction,SMDPad,CuDef*%
%ADD24R,2.350000X0.700000*%
%TD*%
%TA.AperFunction,SMDPad,CuDef*%
%ADD25R,4.900000X1.600000*%
%TD*%
%TA.AperFunction,SMDPad,CuDef*%
%ADD26RoundRect,0.250000X0.700000X-0.275000X0.700000X0.275000X-0.700000X0.275000X-0.700000X-0.275000X0*%
%TD*%
%TA.AperFunction,SMDPad,CuDef*%
%ADD27RoundRect,0.225000X-0.225000X0.425000X-0.225000X-0.425000X0.225000X-0.425000X0.225000X0.425000X0*%
%TD*%
%TA.AperFunction,SMDPad,CuDef*%
%ADD28FreePoly0,270.000000*%
%TD*%
%TA.AperFunction,SMDPad,CuDef*%
%ADD29RoundRect,0.250000X-0.700000X0.275000X-0.700000X-0.275000X0.700000X-0.275000X0.700000X0.275000X0*%
%TD*%
%TA.AperFunction,SMDPad,CuDef*%
%ADD30R,0.750000X0.300000*%
%TD*%
%TA.AperFunction,SMDPad,CuDef*%
%ADD31R,0.900000X1.300000*%
%TD*%
%TA.AperFunction,ViaPad*%
%ADD32C,0.600000*%
%TD*%
%TA.AperFunction,Conductor*%
%ADD33C,0.250000*%
%TD*%
%TA.AperFunction,Conductor*%
%ADD34C,0.500000*%
%TD*%
%TA.AperFunction,Conductor*%
%ADD35C,0.300000*%
%TD*%
%TA.AperFunction,Conductor*%
%ADD36C,0.400000*%
%TD*%
G04 APERTURE END LIST*
D10*
%TO.P,J2,1,Pin_1*%
%TO.N,+3.3V*%
X8375000Y25050000D03*
D11*
%TO.P,J2,2,Pin_2*%
%TO.N,+5V*%
X8375000Y27590000D03*
%TO.P,J2,3,Pin_3*%
%TO.N,SDA*%
X10915000Y25050000D03*
%TO.P,J2,4,Pin_4*%
%TO.N,+5V*%
X10915000Y27590000D03*
%TO.P,J2,5,Pin_5*%
%TO.N,SCL*%
X13455000Y25050000D03*
%TO.P,J2,6,Pin_6*%
%TO.N,GNDA*%
X13455000Y27590000D03*
%TO.P,J2,7,Pin_7*%
%TO.N,GPIO9*%
X15995000Y25050000D03*
%TO.P,J2,8,Pin_8*%
%TO.N,TX*%
X15995000Y27590000D03*
%TO.P,J2,9,Pin_9*%
%TO.N,GNDA*%
X18535000Y25050000D03*
%TO.P,J2,10,Pin_10*%
%TO.N,RX*%
X18535000Y27590000D03*
%TO.P,J2,11,Pin_11*%
%TO.N,GPIO14*%
X21075000Y25050000D03*
%TO.P,J2,12,Pin_12*%
%TO.N,GPIO26_ADC0*%
X21075000Y27590000D03*
%TO.P,J2,13,Pin_13*%
%TO.N,GPIO15*%
X23615000Y25050000D03*
%TO.P,J2,14,Pin_14*%
%TO.N,GNDA*%
X23615000Y27590000D03*
%TO.P,J2,15,Pin_15*%
%TO.N,GPIO20*%
X26155000Y25050000D03*
%TO.P,J2,16,Pin_16*%
%TO.N,GPIO27_ADC1*%
X26155000Y27590000D03*
%TO.P,J2,17,Pin_17*%
%TO.N,GPIO21*%
X28695000Y25050000D03*
%TO.P,J2,18,Pin_18*%
%TO.N,GPIO28_ADC2*%
X28695000Y27590000D03*
%TO.P,J2,19,Pin_19*%
%TO.N,SPI_MO*%
X31235000Y25050000D03*
%TO.P,J2,20,Pin_20*%
%TO.N,unconnected-(J2-Pin_20-Pad20)*%
X31235000Y27590000D03*
%TO.P,J2,21,Pin_21*%
%TO.N,SPI_MI*%
X33775000Y25050000D03*
%TO.P,J2,22,Pin_22*%
%TO.N,GPIO22*%
X33775000Y27590000D03*
%TO.P,J2,23,Pin_23*%
%TO.N,SPI_CLK*%
X36315000Y25050000D03*
%TO.P,J2,24,Pin_24*%
%TO.N,SPI_CS*%
X36315000Y27590000D03*
%TO.P,J2,25,Pin_25*%
%TO.N,unconnected-(J2-Pin_25-Pad25)*%
X38855000Y25050000D03*
%TO.P,J2,26,Pin_26*%
%TO.N,unconnected-(J2-Pin_26-Pad26)*%
X38855000Y27590000D03*
%TO.P,J2,27,Pin_27*%
%TO.N,ADC_VREF*%
X41395000Y25050000D03*
%TO.P,J2,28,Pin_28*%
%TO.N,unconnected-(J2-Pin_28-Pad28)*%
X41395000Y27590000D03*
%TO.P,J2,29,Pin_29*%
%TO.N,unconnected-(J2-Pin_29-Pad29)*%
X43935000Y25050000D03*
%TO.P,J2,30,Pin_30*%
%TO.N,GNDA*%
X43935000Y27590000D03*
%TO.P,J2,31,Pin_31*%
%TO.N,unconnected-(J2-Pin_31-Pad31)*%
X46475000Y25050000D03*
%TO.P,J2,32,Pin_32*%
%TO.N,GPIO24*%
X46475000Y27590000D03*
%TO.P,J2,33,Pin_33*%
%TO.N,unconnected-(J2-Pin_33-Pad33)*%
X49015000Y25050000D03*
%TO.P,J2,34,Pin_34*%
%TO.N,GNDA*%
X49015000Y27590000D03*
%TO.P,J2,35,Pin_35*%
%TO.N,unconnected-(J2-Pin_35-Pad35)*%
X51555000Y25050000D03*
%TO.P,J2,36,Pin_36*%
%TO.N,GPIO25*%
X51555000Y27590000D03*
%TO.P,J2,37,Pin_37*%
%TO.N,unconnected-(J2-Pin_37-Pad37)*%
X54095000Y25050000D03*
%TO.P,J2,38,Pin_38*%
%TO.N,unconnected-(J2-Pin_38-Pad38)*%
X54095000Y27590000D03*
%TO.P,J2,39,Pin_39*%
%TO.N,GNDA*%
X56635000Y25050000D03*
%TO.P,J2,40,Pin_40*%
%TO.N,unconnected-(J2-Pin_40-Pad40)*%
X56635000Y27590000D03*
%TD*%
D12*
%TO.P,FB3,1*%
%TO.N,Net-(U3-B)*%
X8925000Y12750000D03*
%TO.P,FB3,2*%
%TO.N,Net-(C8-Pad1)*%
X12075000Y12750000D03*
%TD*%
D13*
%TO.P,C13,1*%
%TO.N,GNDA*%
X16500000Y5775000D03*
%TO.P,C13,2*%
%TO.N,+3.3V*%
X16500000Y8725000D03*
%TD*%
D14*
%TO.P,C9,1*%
%TO.N,/VRT*%
X36172500Y6225000D03*
%TO.P,C9,2*%
%TO.N,GNDA*%
X36172500Y3275000D03*
%TD*%
%TO.P,C4,1*%
%TO.N,/VA*%
X44250000Y6225000D03*
%TO.P,C4,2*%
%TO.N,GNDA*%
X44250000Y3275000D03*
%TD*%
D15*
%TO.P,R5,1*%
%TO.N,+3.3V*%
X29000000Y3287500D03*
%TO.P,R5,2*%
%TO.N,/VRT*%
X29000000Y6212500D03*
%TD*%
D16*
%TO.P,D1,1*%
%TO.N,GNDA*%
X14200000Y10700000D03*
%TO.P,D1,2*%
X14200000Y8800000D03*
%TO.P,D1,3*%
%TO.N,Net-(U3-B)*%
X11800000Y9750000D03*
%TD*%
D17*
%TO.P,U4,1,FB*%
%TO.N,/vo*%
X24175000Y10345000D03*
%TO.P,U4,2,-*%
%TO.N,Net-(IC1-H)*%
X24175000Y11615000D03*
%TO.P,U4,3,+*%
%TO.N,Net-(U4-+)*%
X24175000Y12885000D03*
%TO.P,U4,4,V-*%
%TO.N,GNDA*%
X24175000Y14155000D03*
%TO.P,U4,5,V-*%
X29325000Y14155000D03*
%TO.P,U4,6*%
%TO.N,/vo*%
X29325000Y12885000D03*
%TO.P,U4,7,V+*%
%TO.N,+3.3V*%
X29325000Y11615000D03*
%TO.P,U4,8,~{SHDN}*%
%TO.N,unconnected-(U4-~{SHDN}-Pad8)*%
X29325000Y10345000D03*
%TD*%
D18*
%TO.P,U2,1,VA*%
%TO.N,/VA*%
X38637500Y9425000D03*
%TO.P,U2,2,AGND*%
%TO.N,GNDA*%
X38637500Y10075000D03*
%TO.P,U2,3,VRT*%
%TO.N,/VRT*%
X38637500Y10725000D03*
%TO.P,U2,4,VA*%
%TO.N,/VA*%
X38637500Y11375000D03*
%TO.P,U2,5,AGND*%
%TO.N,GNDA*%
X38637500Y12025000D03*
%TO.P,U2,6,VIN*%
%TO.N,/vo*%
X38637500Y12675000D03*
%TO.P,U2,7,GND*%
%TO.N,GNDA*%
X38637500Y13325000D03*
%TO.P,U2,8,AGND*%
X38637500Y13975000D03*
%TO.P,U2,9,VRM*%
%TO.N,Net-(U2-VRM)*%
X38637500Y14625000D03*
%TO.P,U2,10,VRB*%
%TO.N,GNDA*%
X38637500Y15275000D03*
%TO.P,U2,11,AGND*%
X38637500Y15925000D03*
%TO.P,U2,12,VA*%
%TO.N,/VA*%
X38637500Y16575000D03*
%TO.P,U2,13,D7*%
%TO.N,GPIO7*%
X44362500Y16575000D03*
%TO.P,U2,14,D6*%
%TO.N,GPIO6*%
X44362500Y15925000D03*
%TO.P,U2,15,D5*%
%TO.N,GPIO5*%
X44362500Y15275000D03*
%TO.P,U2,16,D4*%
%TO.N,GPIO4*%
X44362500Y14625000D03*
%TO.P,U2,17,DRGND*%
%TO.N,GNDA*%
X44362500Y13975000D03*
%TO.P,U2,18,DRVD*%
%TO.N,/DRVD*%
X44362500Y13325000D03*
%TO.P,U2,19,D3*%
%TO.N,GPIO3*%
X44362500Y12675000D03*
%TO.P,U2,20,D2*%
%TO.N,GPIO2*%
X44362500Y12025000D03*
%TO.P,U2,21,D1*%
%TO.N,GPIO1*%
X44362500Y11375000D03*
%TO.P,U2,22,D0*%
%TO.N,GPIO0*%
X44362500Y10725000D03*
%TO.P,U2,23,PD*%
%TO.N,Net-(U2-PD)*%
X44362500Y10075000D03*
%TO.P,U2,24,CLK*%
%TO.N,ADC_CLK*%
X44362500Y9425000D03*
%TD*%
D19*
%TO.P,C11,1*%
%TO.N,Net-(U2-VRM)*%
X35475000Y14500000D03*
%TO.P,C11,2*%
%TO.N,GNDA*%
X32525000Y14500000D03*
%TD*%
%TO.P,C7,1*%
%TO.N,/VA*%
X35475000Y17000000D03*
%TO.P,C7,2*%
%TO.N,GNDA*%
X32525000Y17000000D03*
%TD*%
D20*
%TO.P,R8,1*%
%TO.N,GNDA*%
X28462500Y17500000D03*
%TO.P,R8,2*%
%TO.N,Net-(R7-Pad1)*%
X25537500Y17500000D03*
%TD*%
D21*
%TO.P,R2,1*%
%TO.N,Net-(U2-PD)*%
X48537500Y10250000D03*
%TO.P,R2,2*%
%TO.N,GNDA*%
X51462500Y10250000D03*
%TD*%
D13*
%TO.P,C2,1*%
%TO.N,/DRVD*%
X50750000Y18775000D03*
%TO.P,C2,2*%
%TO.N,GNDA*%
X50750000Y21725000D03*
%TD*%
D22*
%TO.P,C8,1*%
%TO.N,Net-(C8-Pad1)*%
X14025000Y12750000D03*
%TO.P,C8,2*%
%TO.N,/vs*%
X16975000Y12750000D03*
%TD*%
D23*
%TO.P,R7,1*%
%TO.N,Net-(R7-Pad1)*%
X19500000Y17962500D03*
%TO.P,R7,2*%
%TO.N,Net-(U4-+)*%
X19500000Y15037500D03*
%TD*%
D19*
%TO.P,C6,1*%
%TO.N,/VA*%
X35475000Y11000000D03*
%TO.P,C6,2*%
%TO.N,GNDA*%
X32525000Y11000000D03*
%TD*%
D20*
%TO.P,R9,1*%
%TO.N,Net-(IC1-H)*%
X21712500Y12750000D03*
%TO.P,R9,2*%
%TO.N,/vs*%
X18787500Y12750000D03*
%TD*%
D15*
%TO.P,R4,1*%
%TO.N,Net-(U4-+)*%
X17000000Y15037500D03*
%TO.P,R4,2*%
%TO.N,Net-(R1-Pad1)*%
X17000000Y17962500D03*
%TD*%
D24*
%TO.P,J1,1,In*%
%TO.N,Net-(J1-In)*%
X1250000Y14750000D03*
D25*
%TO.P,J1,2,Ext*%
%TO.N,GNDA*%
X2825000Y19000000D03*
X2825000Y10500000D03*
%TD*%
D13*
%TO.P,C1,1*%
%TO.N,/DRVD*%
X48250000Y18775000D03*
%TO.P,C1,2*%
%TO.N,GNDA*%
X48250000Y21725000D03*
%TD*%
D15*
%TO.P,R6,1*%
%TO.N,GNDA*%
X31250000Y3287500D03*
%TO.P,R6,2*%
%TO.N,/VRT*%
X31250000Y6212500D03*
%TD*%
D26*
%TO.P,FB2,1*%
%TO.N,+3.3V*%
X46750000Y3175000D03*
%TO.P,FB2,2*%
%TO.N,/VA*%
X46750000Y6325000D03*
%TD*%
D14*
%TO.P,C10,1*%
%TO.N,/VRT*%
X33750000Y6225000D03*
%TO.P,C10,2*%
%TO.N,GNDA*%
X33750000Y3275000D03*
%TD*%
D27*
%TO.P,U3,1,A*%
%TO.N,Net-(J1-In)*%
X7000000Y10700000D03*
D28*
%TO.P,U3,2,COM*%
%TO.N,unconnected-(U3-COM-Pad2)*%
X8500000Y10612500D03*
D27*
%TO.P,U3,3,B*%
%TO.N,Net-(U3-B)*%
X10000000Y10700000D03*
%TD*%
D14*
%TO.P,C5,1*%
%TO.N,/VA*%
X38500000Y6225000D03*
%TO.P,C5,2*%
%TO.N,GNDA*%
X38500000Y3275000D03*
%TD*%
D29*
%TO.P,FB1,1*%
%TO.N,+3.3V*%
X53250000Y21825000D03*
%TO.P,FB1,2*%
%TO.N,/DRVD*%
X53250000Y18675000D03*
%TD*%
D23*
%TO.P,R1,1*%
%TO.N,Net-(R1-Pad1)*%
X14500000Y17962500D03*
%TO.P,R1,2*%
%TO.N,+3.3V*%
X14500000Y15037500D03*
%TD*%
D22*
%TO.P,C12,1*%
%TO.N,Net-(IC1-H)*%
X18775000Y10250000D03*
%TO.P,C12,2*%
%TO.N,/vo*%
X21725000Y10250000D03*
%TD*%
%TO.P,C14,1*%
%TO.N,GNDA*%
X25275000Y8250000D03*
%TO.P,C14,2*%
%TO.N,+3.3V*%
X28225000Y8250000D03*
%TD*%
D14*
%TO.P,C3,1*%
%TO.N,/VA*%
X41750000Y6225000D03*
%TO.P,C3,2*%
%TO.N,GNDA*%
X41750000Y3275000D03*
%TD*%
D30*
%TO.P,IC1,1,L*%
%TO.N,/vo*%
X22500000Y8500000D03*
%TO.P,IC1,2,GND*%
%TO.N,GNDA*%
X22500000Y8000000D03*
%TO.P,IC1,3,ADDR0*%
%TO.N,unconnected-(IC1-ADDR0-Pad3)*%
X22500000Y7500000D03*
%TO.P,IC1,4,SDA*%
%TO.N,SDA*%
X22500000Y7000000D03*
%TO.P,IC1,5,SCL*%
%TO.N,SCL*%
X20500000Y7000000D03*
%TO.P,IC1,6,VDD*%
%TO.N,+3.3V*%
X20500000Y7500000D03*
%TO.P,IC1,7,W*%
%TO.N,Net-(IC1-H)*%
X20500000Y8000000D03*
%TO.P,IC1,8,H*%
X20500000Y8500000D03*
D31*
%TO.P,IC1,9,EP*%
%TO.N,GNDA*%
X21500000Y7750000D03*
%TD*%
D32*
%TO.N,GNDA*%
X46000000Y9000000D03*
X57750000Y17500000D03*
X39000000Y20750000D03*
X53250000Y6750000D03*
X13500000Y750000D03*
X10650000Y16450000D03*
X4000000Y13750000D03*
X17250000Y10500000D03*
X27000000Y14250000D03*
X13450000Y22900000D03*
X3000000Y12250000D03*
X26000000Y4500000D03*
X21525000Y7525000D03*
X41200000Y18950000D03*
X3000000Y17250000D03*
X43000000Y8000000D03*
X40500000Y12750000D03*
X62000000Y19250000D03*
X62000000Y13500000D03*
X59250000Y12750000D03*
X13500000Y6750000D03*
X31750000Y18750000D03*
X40500000Y11750000D03*
X32200000Y7750000D03*
X51500000Y3250000D03*
X13000000Y7500000D03*
X31250000Y7750000D03*
X40212500Y5000000D03*
X7800000Y18850000D03*
X26650000Y18900000D03*
X62000000Y10000000D03*
X59250000Y16250000D03*
X42750000Y15000000D03*
X35750000Y7750000D03*
X59250000Y14700000D03*
X9050000Y16450000D03*
X62000000Y16000000D03*
X51500000Y8250000D03*
X40500000Y10500000D03*
X45500000Y4750000D03*
X4000000Y15750000D03*
X16000000Y10500000D03*
X32200000Y9250000D03*
X5000000Y15750000D03*
X42750000Y16000000D03*
X42750000Y10500000D03*
X59250000Y8500000D03*
X30250000Y17500000D03*
X3000000Y13750000D03*
X57750000Y16250000D03*
X34750000Y7750000D03*
X31000000Y15500000D03*
X5000000Y12250000D03*
X43000000Y4750000D03*
X42750000Y14000000D03*
X750000Y17250000D03*
X12000000Y16450000D03*
X45000000Y8000000D03*
X51500000Y2000000D03*
X3000000Y15750000D03*
X50000000Y8250000D03*
X39000000Y7750000D03*
X40250000Y7750000D03*
X59250000Y10700000D03*
X47250000Y8000000D03*
X26000000Y14250000D03*
X5000000Y17250000D03*
X750000Y12250000D03*
X39000000Y21750000D03*
X5000000Y13750000D03*
X62000000Y11750000D03*
X21500000Y8625000D03*
X57750000Y18750000D03*
X17500000Y7250000D03*
X26000000Y3000000D03*
%TO.N,SDA*%
X19500000Y4500000D03*
X23500000Y7000000D03*
%TO.N,+3.3V*%
X50000000Y5250000D03*
X14750000Y7500000D03*
X12750000Y15000000D03*
X59150000Y17500000D03*
%TO.N,SCL*%
X19250000Y7000000D03*
X21000000Y4500000D03*
%TO.N,GPIO14*%
X10750000Y19250000D03*
%TO.N,GPIO25*%
X11750000Y7500000D03*
%TO.N,GPIO15*%
X9750000Y19250000D03*
%TO.N,GPIO24*%
X11750000Y6500000D03*
%TO.N,SPI_MI*%
X18500000Y19600000D03*
%TO.N,GPIO20*%
X21000000Y17750000D03*
%TO.N,SPI_MO*%
X22500000Y18750000D03*
%TO.N,GPIO9*%
X30000000Y16250000D03*
%TO.N,GPIO21*%
X22500000Y17750000D03*
%TO.N,SPI_CLK*%
X30000000Y19500000D03*
X24000000Y19250000D03*
%TO.N,SPI_CS*%
X15990000Y19250000D03*
%TO.N,GPIO22*%
X23750000Y17750000D03*
%TO.N,ADC_CLK*%
X33750000Y18500000D03*
%TO.N,GPIO2*%
X51750000Y17400000D03*
%TO.N,GPIO7*%
X35000000Y19250000D03*
%TO.N,GPIO5*%
X42675000Y24325000D03*
%TO.N,GPIO3*%
X49750000Y17250000D03*
%TO.N,GPIO1*%
X55000000Y19250000D03*
%TO.N,GPIO6*%
X37500000Y23750000D03*
%TO.N,GPIO0*%
X56000000Y19250000D03*
%TO.N,GPIO4*%
X47000000Y17425000D03*
%TO.N,/VA*%
X41750000Y7750000D03*
X37000000Y17250000D03*
X35500000Y9250000D03*
%TD*%
D33*
%TO.N,Net-(U3-B)*%
X8925000Y12125000D02*
X8925000Y12750000D01*
X10000000Y11050000D02*
X8925000Y12125000D01*
X10000000Y10700000D02*
X10000000Y11050000D01*
%TO.N,Net-(U4-+)*%
X21312500Y15037500D02*
X19500000Y15037500D01*
X23465000Y12885000D02*
X21312500Y15037500D01*
X24175000Y12885000D02*
X23465000Y12885000D01*
%TO.N,/vs*%
X16975000Y12750000D02*
X18787500Y12750000D01*
%TO.N,Net-(IC1-H)*%
X18775000Y10275000D02*
X18775000Y10250000D01*
X20000000Y11500000D02*
X18775000Y10275000D01*
X20750000Y11500000D02*
X20000000Y11500000D01*
X22847500Y11615000D02*
X21712500Y12750000D01*
X21712500Y12750000D02*
X21712500Y12462500D01*
X24175000Y11615000D02*
X22847500Y11615000D01*
X21712500Y12462500D02*
X20750000Y11500000D01*
D34*
%TO.N,GNDA*%
X40325000Y15925000D02*
X40500000Y15750000D01*
X40475000Y13975000D02*
X40500000Y14000000D01*
D35*
X22000000Y8000000D02*
X22500000Y8000000D01*
D34*
X31250000Y3287500D02*
X31262500Y3275000D01*
X40500000Y11250000D02*
X40500000Y10500000D01*
X28462500Y17500000D02*
X28712500Y17250000D01*
X40212500Y3275000D02*
X41750000Y3275000D01*
D35*
X25025000Y8000000D02*
X22500000Y8000000D01*
D34*
X40425000Y10075000D02*
X40500000Y10000000D01*
D36*
X38637500Y13975000D02*
X40475000Y13975000D01*
D34*
X40475000Y15275000D02*
X40500000Y15250000D01*
X42775000Y13975000D02*
X42750000Y14000000D01*
X40325000Y13325000D02*
X40500000Y13500000D01*
D36*
X38637500Y12025000D02*
X40475000Y12025000D01*
D34*
X32200000Y9250000D02*
X32200000Y10675000D01*
D35*
X25275000Y8250000D02*
X25025000Y8000000D01*
D36*
X43000000Y14000000D02*
X42750000Y14000000D01*
X38637500Y15275000D02*
X40475000Y15275000D01*
X38637500Y15925000D02*
X40325000Y15925000D01*
D34*
X40500000Y13500000D02*
X40500000Y12750000D01*
D36*
X44362500Y13975000D02*
X42775000Y13975000D01*
D34*
X31262500Y3275000D02*
X33750000Y3275000D01*
X40500000Y12000000D02*
X40500000Y11250000D01*
X32275000Y17250000D02*
X32525000Y17000000D01*
X40500000Y10500000D02*
X40500000Y10000000D01*
X40500000Y15750000D02*
X40500000Y15250000D01*
X40500000Y15250000D02*
X40500000Y14000000D01*
X40212500Y4287500D02*
X40212500Y5000000D01*
X41750000Y3275000D02*
X44250000Y3275000D01*
X32525000Y17000000D02*
X32525000Y14500000D01*
D36*
X38637500Y10075000D02*
X40425000Y10075000D01*
D34*
X40212500Y3275000D02*
X33750000Y3275000D01*
D35*
X21525000Y7525000D02*
X21500000Y7550000D01*
D34*
X40250000Y4250000D02*
X40212500Y4287500D01*
D35*
X21500000Y7550000D02*
X21500000Y7750000D01*
D34*
X40475000Y12025000D02*
X40500000Y12000000D01*
X32180000Y14155000D02*
X32525000Y14500000D01*
D35*
X21525000Y7525000D02*
X22000000Y8000000D01*
D34*
X40500000Y14000000D02*
X40500000Y13500000D01*
X40500000Y12750000D02*
X40500000Y12000000D01*
X40250000Y4250000D02*
X40212500Y4212500D01*
X32200000Y10675000D02*
X32525000Y11000000D01*
D36*
X38637500Y13325000D02*
X40325000Y13325000D01*
D34*
X40212500Y4212500D02*
X40212500Y3275000D01*
D33*
%TO.N,Net-(C8-Pad1)*%
X12075000Y12750000D02*
X14025000Y12750000D01*
%TO.N,Net-(U2-VRM)*%
X38637500Y14625000D02*
X35600000Y14625000D01*
X35600000Y14625000D02*
X35475000Y14500000D01*
%TO.N,/vo*%
X27000000Y12250000D02*
X27635000Y12885000D01*
X38637500Y12675000D02*
X29535000Y12675000D01*
X26095000Y10345000D02*
X27000000Y11250000D01*
X29535000Y12675000D02*
X29325000Y12885000D01*
X23000000Y8750000D02*
X23000000Y8975000D01*
X22500000Y8500000D02*
X22750000Y8500000D01*
X23000000Y8975000D02*
X21725000Y10250000D01*
X24175000Y10345000D02*
X26095000Y10345000D01*
X24080000Y10250000D02*
X21725000Y10250000D01*
X27635000Y12885000D02*
X29325000Y12885000D01*
X24175000Y10345000D02*
X24080000Y10250000D01*
X27000000Y11250000D02*
X27000000Y12250000D01*
X22750000Y8500000D02*
X23000000Y8750000D01*
%TO.N,Net-(U3-B)*%
X11800000Y9750000D02*
X10950000Y9750000D01*
X10950000Y9750000D02*
X10000000Y10700000D01*
%TO.N,SDA*%
X21750000Y3750000D02*
X23500000Y5500000D01*
X19500000Y4500000D02*
X20250000Y3750000D01*
X23500000Y7000000D02*
X22500000Y7000000D01*
X23500000Y5500000D02*
X23500000Y7000000D01*
X20250000Y3750000D02*
X21750000Y3750000D01*
D34*
%TO.N,+3.3V*%
X30000000Y8250000D02*
X28225000Y8250000D01*
X16250000Y1750000D02*
X29250000Y1750000D01*
D35*
X20000000Y7500000D02*
X20500000Y7500000D01*
D34*
X28675000Y3287500D02*
X27250000Y4712500D01*
X27250000Y4712500D02*
X27250000Y4750000D01*
X29250000Y1750000D02*
X29000000Y2000000D01*
X14462500Y15000000D02*
X14500000Y15037500D01*
X31000000Y9250000D02*
X30000000Y8250000D01*
X57675000Y21825000D02*
X53250000Y21825000D01*
X14750000Y7500000D02*
X14750000Y3250000D01*
X6350000Y23025000D02*
X6350000Y17250000D01*
X46750000Y2250000D02*
X46750000Y1750000D01*
X8600000Y15000000D02*
X12750000Y15000000D01*
X12750000Y15000000D02*
X14462500Y15000000D01*
X8375000Y25050000D02*
X6350000Y23025000D01*
X47250000Y1750000D02*
X46750000Y1750000D01*
X14750000Y7500000D02*
X15975000Y8725000D01*
X50000000Y5250000D02*
X50000000Y2750000D01*
X31000000Y11450000D02*
X31000000Y9250000D01*
X6350000Y17250000D02*
X8600000Y15000000D01*
X50000000Y2750000D02*
X49000000Y1750000D01*
X27250000Y7275000D02*
X28225000Y8250000D01*
D35*
X18750000Y8250000D02*
X19250000Y8250000D01*
D34*
X18275000Y8725000D02*
X16500000Y8725000D01*
X14750000Y3250000D02*
X16250000Y1750000D01*
X46750000Y2250000D02*
X46250000Y1750000D01*
X29000000Y2000000D02*
X29000000Y3287500D01*
X15975000Y8725000D02*
X16500000Y8725000D01*
X30835000Y11615000D02*
X31000000Y11450000D01*
X29000000Y3287500D02*
X28675000Y3287500D01*
X46750000Y2250000D02*
X47250000Y1750000D01*
X46250000Y1750000D02*
X29250000Y1750000D01*
X46750000Y1750000D02*
X46250000Y1750000D01*
X59150000Y17500000D02*
X59150000Y20350000D01*
D35*
X19250000Y8250000D02*
X20000000Y7500000D01*
D34*
X49000000Y1750000D02*
X47250000Y1750000D01*
X27250000Y4750000D02*
X27250000Y7275000D01*
X46750000Y3175000D02*
X46750000Y2250000D01*
X18750000Y8250000D02*
X18275000Y8725000D01*
X59150000Y20350000D02*
X57675000Y21825000D01*
X29325000Y11615000D02*
X30835000Y11615000D01*
D33*
%TO.N,SCL*%
X19250000Y6250000D02*
X19250000Y7000000D01*
X19250000Y7000000D02*
X20500000Y7000000D01*
X21000000Y4500000D02*
X19250000Y6250000D01*
%TO.N,GPIO14*%
X19650000Y21800000D02*
X15725000Y21800000D01*
X21075000Y25050000D02*
X21075000Y23225000D01*
X21075000Y23225000D02*
X19650000Y21800000D01*
X15725000Y21800000D02*
X13175000Y19250000D01*
X13175000Y19250000D02*
X10750000Y19250000D01*
%TO.N,GPIO25*%
X53750000Y23500000D02*
X52850000Y24400000D01*
X11050000Y6800000D02*
X11050000Y4950000D01*
X53850000Y350000D02*
X60750000Y7250000D01*
X52850000Y26295000D02*
X51555000Y27590000D01*
X15650000Y350000D02*
X53850000Y350000D01*
X60750000Y21000000D02*
X58250000Y23500000D01*
X60750000Y7250000D02*
X60750000Y21000000D01*
X11050000Y4950000D02*
X15650000Y350000D01*
X11750000Y7500000D02*
X11050000Y6800000D01*
X52850000Y24400000D02*
X52850000Y26295000D01*
X58250000Y23500000D02*
X53750000Y23500000D01*
%TO.N,GPIO15*%
X19865000Y21300000D02*
X23615000Y25050000D01*
X13150000Y18500000D02*
X15950000Y21300000D01*
X9750000Y19250000D02*
X10500000Y18500000D01*
X15950000Y21300000D02*
X19865000Y21300000D01*
X10500000Y18500000D02*
X13150000Y18500000D01*
%TO.N,GPIO24*%
X60250000Y7500000D02*
X53600000Y850000D01*
X11750000Y5000000D02*
X11750000Y6500000D01*
X58000000Y23000000D02*
X60250000Y20750000D01*
X53600000Y850000D02*
X15900000Y850000D01*
X15900000Y850000D02*
X11750000Y5000000D01*
X53500000Y23000000D02*
X58000000Y23000000D01*
X45750000Y23750000D02*
X52750000Y23750000D01*
X46475000Y27590000D02*
X46475000Y27475000D01*
X45200000Y24300000D02*
X45750000Y23750000D01*
X60250000Y20750000D02*
X60250000Y7500000D01*
X52750000Y23750000D02*
X53500000Y23000000D01*
X46475000Y27475000D02*
X45200000Y26200000D01*
X45200000Y26200000D02*
X45200000Y24300000D01*
%TO.N,SPI_MI*%
X27400000Y23900000D02*
X27400000Y25650000D01*
X24275000Y22500000D02*
X26000000Y22500000D01*
X27400000Y25650000D02*
X28000000Y26250000D01*
X32575000Y26250000D02*
X33775000Y25050000D01*
X21375000Y19600000D02*
X24275000Y22500000D01*
X18500000Y19600000D02*
X21375000Y19600000D01*
X26000000Y22500000D02*
X27400000Y23900000D01*
X28000000Y26250000D02*
X32575000Y26250000D01*
%TO.N,GPIO20*%
X18100000Y18900000D02*
X17750000Y19250000D01*
X21000000Y18500000D02*
X20600000Y18900000D01*
X17750000Y19850000D02*
X18200000Y20300000D01*
X18200000Y20300000D02*
X21350000Y20300000D01*
X17750000Y19250000D02*
X17750000Y19850000D01*
X21350000Y20300000D02*
X26100000Y25050000D01*
X20600000Y18900000D02*
X18100000Y18900000D01*
X21000000Y17750000D02*
X21000000Y18500000D01*
X26100000Y25050000D02*
X26155000Y25050000D01*
%TO.N,SPI_MO*%
X24350000Y21000000D02*
X27185000Y21000000D01*
X22500000Y18750000D02*
X22500000Y19150000D01*
X22500000Y19150000D02*
X24350000Y21000000D01*
X27185000Y21000000D02*
X31235000Y25050000D01*
%TO.N,GPIO9*%
X19850000Y22900000D02*
X19850000Y25820966D01*
X15500000Y22300000D02*
X19250000Y22300000D01*
X9000000Y18975000D02*
X9000000Y19750000D01*
X9500000Y20250000D02*
X13450000Y20250000D01*
X17295000Y26350000D02*
X15995000Y25050000D01*
X13900000Y16500000D02*
X12525000Y17875000D01*
X29750000Y16000000D02*
X20750000Y16000000D01*
X19320966Y26350000D02*
X17295000Y26350000D01*
X9000000Y19750000D02*
X9500000Y20250000D01*
X19250000Y22300000D02*
X19850000Y22900000D01*
X19850000Y25820966D02*
X19320966Y26350000D01*
X13450000Y20250000D02*
X15500000Y22300000D01*
X12525000Y17875000D02*
X10100000Y17875000D01*
X10100000Y17875000D02*
X9000000Y18975000D01*
X30000000Y16250000D02*
X29750000Y16000000D01*
X20750000Y16000000D02*
X20250000Y16500000D01*
X20250000Y16500000D02*
X13900000Y16500000D01*
%TO.N,GPIO21*%
X22500000Y17750000D02*
X21750000Y18500000D01*
X28695000Y23845000D02*
X28695000Y25050000D01*
X21750000Y19200000D02*
X24300000Y21750000D01*
X21750000Y18500000D02*
X21750000Y19200000D01*
X26600000Y21750000D02*
X28695000Y23845000D01*
X24300000Y21750000D02*
X26600000Y21750000D01*
%TO.N,SPI_CLK*%
X29000000Y20500000D02*
X24750000Y20500000D01*
X24750000Y20500000D02*
X24000000Y19750000D01*
X30000000Y19500000D02*
X29000000Y20500000D01*
X24000000Y19750000D02*
X24000000Y19250000D01*
%TO.N,SPI_CS*%
X26850000Y26350000D02*
X27400000Y26900000D01*
X24950000Y24650000D02*
X24950000Y25950000D01*
X21100000Y20800000D02*
X24950000Y24650000D01*
X15990000Y19290000D02*
X17500000Y20800000D01*
X24950000Y25950000D02*
X25350000Y26350000D01*
X27400000Y26900000D02*
X27400000Y28400000D01*
X34805000Y29100000D02*
X36315000Y27590000D01*
X28100000Y29100000D02*
X34805000Y29100000D01*
X27400000Y28400000D02*
X28100000Y29100000D01*
X25350000Y26350000D02*
X26850000Y26350000D01*
X15990000Y19250000D02*
X15990000Y19290000D01*
X17500000Y20800000D02*
X21100000Y20800000D01*
%TO.N,GPIO22*%
X35000000Y24000000D02*
X34500000Y23500000D01*
X30250000Y18750000D02*
X29750000Y18750000D01*
X30750000Y22500000D02*
X30750000Y19250000D01*
X34500000Y23500000D02*
X31750000Y23500000D01*
X33775000Y27590000D02*
X33775000Y27475000D01*
X28600000Y19900000D02*
X25900000Y19900000D01*
X31750000Y23500000D02*
X30750000Y22500000D01*
X25900000Y19900000D02*
X23750000Y17750000D01*
X30750000Y19250000D02*
X30250000Y18750000D01*
X33775000Y27475000D02*
X35000000Y26250000D01*
X29750000Y18750000D02*
X28600000Y19900000D01*
X35000000Y26250000D02*
X35000000Y24000000D01*
%TO.N,Net-(R1-Pad1)*%
X17000000Y17962500D02*
X14500000Y17962500D01*
%TO.N,Net-(U2-PD)*%
X48537500Y10250000D02*
X48400000Y10250000D01*
X48225000Y10075000D02*
X44362500Y10075000D01*
X48400000Y10250000D02*
X48225000Y10075000D01*
%TO.N,ADC_CLK*%
X42325000Y9425000D02*
X41750000Y10000000D01*
X41750000Y10000000D02*
X41750000Y15750000D01*
X38950000Y18550000D02*
X33800000Y18550000D01*
X41750000Y15750000D02*
X38950000Y18550000D01*
X33800000Y18550000D02*
X33750000Y18500000D01*
X44362500Y9425000D02*
X42325000Y9425000D01*
%TO.N,Net-(U4-+)*%
X17000000Y15037500D02*
X19500000Y15037500D01*
%TO.N,Net-(R7-Pad1)*%
X25037500Y17000000D02*
X25537500Y17500000D01*
X19500000Y17962500D02*
X20462500Y17000000D01*
X20462500Y17000000D02*
X25037500Y17000000D01*
%TO.N,GPIO2*%
X50226359Y13470695D02*
X49598525Y14098529D01*
X48581803Y13983884D02*
X48652513Y14054593D01*
X50517768Y15017769D02*
X50750000Y15250000D01*
X46525000Y12025000D02*
X47500000Y13000000D01*
X47500000Y13000000D02*
X48500000Y13000000D01*
X51150000Y17400000D02*
X51750000Y17400000D01*
X49598525Y14098529D02*
X49288908Y14408148D01*
X49244978Y13744973D02*
X49244974Y13744974D01*
X50155649Y13117141D02*
X50226359Y13187852D01*
X48750000Y13532842D02*
X48581802Y13701040D01*
X50447056Y14947059D02*
X50517768Y15017769D01*
X50750000Y15250000D02*
X50750000Y17000000D01*
X50862760Y14248513D02*
X50447056Y14664217D01*
X50750000Y17000000D02*
X51150000Y17400000D01*
X49288908Y14690990D02*
X49359622Y14761703D01*
X50792050Y13894959D02*
X50862760Y13965670D01*
X49952085Y14452082D02*
X50509207Y13894959D01*
X48500000Y13000000D02*
X48750000Y13250000D01*
X49103556Y13886395D02*
X49244978Y13744973D01*
X49642464Y14761703D02*
X49952085Y14452082D01*
X48935357Y14054594D02*
X49103556Y13886395D01*
X44362500Y12025000D02*
X46525000Y12025000D01*
X49244974Y13744974D02*
X49872807Y13117141D01*
X49288909Y14408149D02*
G75*
G02*
X49288878Y14691020I141391J141451D01*
G01*
X50447057Y14664218D02*
G75*
G02*
X50447095Y14947020I141443J141382D01*
G01*
X48581803Y13701041D02*
G75*
G02*
X48581765Y13983922I141397J141459D01*
G01*
X48652513Y14054593D02*
G75*
G02*
X48935321Y14054558I141387J-141393D01*
G01*
X48749999Y13250001D02*
G75*
G03*
X48749978Y13532820I-141399J141399D01*
G01*
X50226359Y13187852D02*
G75*
G03*
X50226385Y13470721I-141459J141448D01*
G01*
X49872808Y13117142D02*
G75*
G03*
X50155648Y13117142I141420J141422D01*
G01*
X50862760Y13965670D02*
G75*
G03*
X50862768Y14248521I-141460J141430D01*
G01*
X49359622Y14761703D02*
G75*
G02*
X49642464Y14761703I141421J-141426D01*
G01*
X50509207Y13894959D02*
G75*
G03*
X50792050Y13894959I141422J141424D01*
G01*
%TO.N,GPIO7*%
X40750000Y20250000D02*
X39750000Y19250000D01*
X44750000Y20250000D02*
X40750000Y20250000D01*
X36176000Y20916000D02*
X36176000Y19494000D01*
X44825000Y16575000D02*
X45250000Y17000000D01*
X45250000Y19750000D02*
X44750000Y20250000D01*
X39750000Y19250000D02*
X38250000Y19250000D01*
X45250000Y17000000D02*
X45250000Y19750000D01*
X37396000Y20916000D02*
X37396000Y19494000D01*
X36786000Y19494000D02*
X36786000Y20916000D01*
X37762000Y21160000D02*
X37640000Y21160000D01*
X38006000Y19494000D02*
X38006000Y20916000D01*
X36542000Y21160000D02*
X36420000Y21160000D01*
X35810000Y19250000D02*
X35744869Y19250000D01*
X44362500Y16575000D02*
X44825000Y16575000D01*
X37152000Y19250000D02*
X37030000Y19250000D01*
X35744869Y19250000D02*
X35000000Y19250000D01*
X35932000Y19250000D02*
X35810000Y19250000D01*
X37640000Y21160000D02*
G75*
G03*
X37396000Y20916000I0J-244000D01*
G01*
X38006000Y20916000D02*
G75*
G03*
X37762000Y21160000I-244000J0D01*
G01*
X36786000Y20916000D02*
G75*
G03*
X36542000Y21160000I-244000J0D01*
G01*
X37030000Y19250000D02*
G75*
G02*
X36786000Y19494000I0J244000D01*
G01*
X36176000Y19494000D02*
G75*
G02*
X35932000Y19250000I-244000J0D01*
G01*
X37396000Y19494000D02*
G75*
G02*
X37152000Y19250000I-244000J0D01*
G01*
X36420000Y21160000D02*
G75*
G03*
X36176000Y20916000I0J-244000D01*
G01*
X38250000Y19250000D02*
G75*
G02*
X38006000Y19494000I0J244000D01*
G01*
%TO.N,GPIO5*%
X45532311Y22881903D02*
X45461600Y22952614D01*
X45178757Y21821243D02*
X45108047Y21891953D01*
X44825200Y23589014D02*
X44754489Y23659725D01*
X44259516Y22740485D02*
X44825200Y23306171D01*
X45108047Y22174796D02*
X45532311Y22599061D01*
X43125000Y23875000D02*
X42675000Y24325000D01*
X44362500Y15275000D02*
X45525000Y15275000D01*
X45815154Y21467689D02*
X46239418Y21891954D01*
X44471646Y23659725D02*
X43905960Y23094040D01*
X43905960Y23094040D02*
X43658471Y22846554D01*
X43410984Y23589016D02*
X43340274Y23659726D01*
X43340274Y23659726D02*
X43125000Y23875000D01*
X43375629Y22846553D02*
X43304918Y22917264D01*
X45178757Y22952614D02*
X44754492Y22528350D01*
X46250000Y20750000D02*
X45815154Y21184846D01*
X45525000Y15275000D02*
X46250000Y16000000D01*
X43304917Y23200108D02*
X43410984Y23306174D01*
X44012029Y22068732D02*
X43941318Y22139443D01*
X46239418Y22174796D02*
X46168707Y22245507D01*
X43941319Y22422285D02*
X44259516Y22740485D01*
X44754492Y22528350D02*
X44294871Y22068732D01*
X46250000Y16000000D02*
X46250000Y20750000D01*
X45885864Y22245507D02*
X45461599Y21821243D01*
X45108047Y21891953D02*
G75*
G02*
X45108022Y22174821I141453J141447D01*
G01*
X44294871Y22068732D02*
G75*
G02*
X44012029Y22068732I-141421J141419D01*
G01*
X43941318Y22139443D02*
G75*
G02*
X43941283Y22422321I141382J141457D01*
G01*
X43304918Y22917264D02*
G75*
G02*
X43304904Y23200121I141382J141436D01*
G01*
X46239418Y21891954D02*
G75*
G03*
X46239443Y22174821I-141418J141446D01*
G01*
X45461598Y21821244D02*
G75*
G02*
X45178758Y21821244I-141420J141422D01*
G01*
X45461599Y22952613D02*
G75*
G03*
X45178758Y22952613I-141420J-141419D01*
G01*
X44754488Y23659724D02*
G75*
G03*
X44471647Y23659724I-141420J-141419D01*
G01*
X44825200Y23306171D02*
G75*
G03*
X44825207Y23589021I-141400J141429D01*
G01*
X46168706Y22245506D02*
G75*
G03*
X45885865Y22245506I-141420J-141419D01*
G01*
X45815154Y21184846D02*
G75*
G02*
X45815122Y21467721I141446J141454D01*
G01*
X43658471Y22846554D02*
G75*
G02*
X43375580Y22846504I-141471J141446D01*
G01*
X45532311Y22599061D02*
G75*
G03*
X45532329Y22881921I-141411J141439D01*
G01*
X43410983Y23306175D02*
G75*
G03*
X43410988Y23589020I-141383J141425D01*
G01*
%TO.N,GPIO3*%
X46425000Y12675000D02*
X44362500Y12675000D01*
X49750000Y16000000D02*
X46425000Y12675000D01*
X49750000Y17250000D02*
X49750000Y16000000D01*
%TO.N,GPIO1*%
X52350000Y16750000D02*
X52250000Y16750000D01*
X53550000Y17262680D02*
X53550000Y16750000D01*
X52250000Y16750000D02*
X52000000Y16750000D01*
X52000000Y16750000D02*
X51500000Y16250000D01*
X53850000Y17462680D02*
X53750000Y17462680D01*
X53050000Y16750000D02*
X53050000Y17262680D01*
X46625000Y11375000D02*
X44362500Y11375000D01*
X52550000Y17262680D02*
X52550000Y16950000D01*
X54550000Y16550000D02*
X54550000Y16287317D01*
X47750000Y12500000D02*
X46625000Y11375000D01*
X51500000Y16250000D02*
X51500000Y13000000D01*
X53550000Y16750000D02*
X53550000Y16287332D01*
X54050000Y16287317D02*
X54050000Y16550000D01*
X54050000Y16550000D02*
X54050000Y17262680D01*
X53350000Y16087332D02*
X53250000Y16087332D01*
X51500000Y13000000D02*
X51000000Y12500000D01*
X55000000Y17000000D02*
X54750000Y16750000D01*
X52850000Y17462680D02*
X52750000Y17462680D01*
X51000000Y12500000D02*
X47750000Y12500000D01*
X53050000Y16287332D02*
X53050000Y16750000D01*
X54350000Y16087317D02*
X54250000Y16087317D01*
X55000000Y19250000D02*
X55000000Y17000000D01*
X53050000Y17262680D02*
G75*
G03*
X52850000Y17462700I-200000J20D01*
G01*
X54050000Y17262680D02*
G75*
G03*
X53850000Y17462700I-200000J20D01*
G01*
X54750000Y16750000D02*
G75*
G03*
X54550000Y16550000I0J-200000D01*
G01*
X52750000Y17462680D02*
G75*
G03*
X52550020Y17262680I0J-199980D01*
G01*
X53550000Y16287332D02*
G75*
G02*
X53350000Y16087300I-200000J-32D01*
G01*
X53250000Y16087332D02*
G75*
G02*
X53050032Y16287332I0J199968D01*
G01*
X54250000Y16087317D02*
G75*
G02*
X54050017Y16287317I0J199983D01*
G01*
X54550000Y16287317D02*
G75*
G02*
X54350000Y16087300I-200000J-17D01*
G01*
X53750000Y17462680D02*
G75*
G03*
X53550020Y17262680I0J-199980D01*
G01*
X52550000Y16950000D02*
G75*
G02*
X52350000Y16750000I-200000J0D01*
G01*
%TO.N,GPIO6*%
X42050000Y21500000D02*
X42050000Y22153102D01*
X38500000Y22750000D02*
X37500000Y23750000D01*
X42350000Y20896883D02*
X42250000Y20896883D01*
X43050000Y21096883D02*
X43050000Y21300000D01*
X41000000Y21500000D02*
X40125000Y22375000D01*
X41550000Y22153102D02*
X41550000Y21700000D01*
X42550000Y21500000D02*
X42550000Y21096883D01*
X42050000Y21096883D02*
X42050000Y21500000D01*
X41350000Y21500000D02*
X41250000Y21500000D01*
X45750000Y16500000D02*
X45750000Y20250000D01*
X41250000Y21500000D02*
X41000000Y21500000D01*
X44362500Y15925000D02*
X45175000Y15925000D01*
X43050000Y21300000D02*
X43050000Y22153125D01*
X42550000Y22153125D02*
X42550000Y21500000D01*
X40125000Y22375000D02*
X39750000Y22750000D01*
X41850000Y22353102D02*
X41750000Y22353102D01*
X44500000Y21500000D02*
X43750000Y21500000D01*
X39750000Y22750000D02*
X38500000Y22750000D01*
X42850000Y22353125D02*
X42750000Y22353125D01*
X43350000Y20896883D02*
X43250000Y20896883D01*
X45175000Y15925000D02*
X45750000Y16500000D01*
X43550000Y21300000D02*
X43550000Y21096883D01*
X45750000Y20250000D02*
X44500000Y21500000D01*
X42750000Y22353125D02*
G75*
G03*
X42549975Y22153125I0J-200025D01*
G01*
X42250000Y20896883D02*
G75*
G02*
X42049983Y21096883I0J200017D01*
G01*
X43250000Y20896883D02*
G75*
G02*
X43049983Y21096883I0J200017D01*
G01*
X43050000Y22153125D02*
G75*
G03*
X42850000Y22353100I-200000J-25D01*
G01*
X41550000Y21700000D02*
G75*
G02*
X41350000Y21500000I-200000J0D01*
G01*
X43550000Y21096883D02*
G75*
G02*
X43350000Y20896900I-200000J17D01*
G01*
X43750000Y21500000D02*
G75*
G03*
X43550000Y21300000I0J-200000D01*
G01*
X41750000Y22353102D02*
G75*
G03*
X41549998Y22153102I0J-200002D01*
G01*
X42050000Y22153102D02*
G75*
G03*
X41850000Y22353100I-200000J-2D01*
G01*
X42550000Y21096883D02*
G75*
G02*
X42350000Y20896900I-200000J17D01*
G01*
%TO.N,GPIO0*%
X56000000Y18650000D02*
X56000000Y18750000D01*
X55774448Y17950000D02*
X56000000Y17950000D01*
X56000000Y17450000D02*
X55774448Y17450000D01*
X52000000Y15000000D02*
X52500000Y15500000D01*
X56000000Y18750000D02*
X56000000Y19250000D01*
X46725000Y10725000D02*
X47750000Y11750000D01*
X56425552Y17450000D02*
X56000000Y17450000D01*
X56625551Y18150000D02*
X56625551Y18250000D01*
X51000000Y11750000D02*
X52000000Y12750000D01*
X52000000Y12750000D02*
X52000000Y15000000D01*
X56000000Y17950000D02*
X56425551Y17950000D01*
X44362500Y10725000D02*
X46725000Y10725000D01*
X55800000Y16450000D02*
X55724437Y16450000D01*
X55574448Y17650000D02*
X55574448Y17750000D01*
X55724437Y16950000D02*
X55800000Y16950000D01*
X47750000Y11750000D02*
X51000000Y11750000D01*
X55524437Y16650000D02*
X55524437Y16750000D01*
X56425551Y18450000D02*
X56200000Y18450000D01*
X55500000Y15500000D02*
X56000000Y16000000D01*
X56000000Y16000000D02*
X56000000Y16250000D01*
X56625552Y17150000D02*
X56625552Y17250000D01*
X55800000Y16950000D02*
X56425552Y16950000D01*
X52500000Y15500000D02*
X55500000Y15500000D01*
X56625552Y17250000D02*
G75*
G03*
X56425552Y17449952I-199952J0D01*
G01*
X55524437Y16750000D02*
G75*
G02*
X55724437Y16949963I199963J0D01*
G01*
X56425552Y16950000D02*
G75*
G03*
X56625600Y17150000I48J200000D01*
G01*
X55774448Y17450000D02*
G75*
G02*
X55574400Y17650000I-48J200000D01*
G01*
X56425551Y17950000D02*
G75*
G03*
X56625500Y18150000I-51J200000D01*
G01*
X56200000Y18450000D02*
G75*
G02*
X56000000Y18650000I0J200000D01*
G01*
X55574448Y17750000D02*
G75*
G02*
X55774448Y17949952I199952J0D01*
G01*
X55724437Y16450000D02*
G75*
G02*
X55524400Y16650000I-37J200000D01*
G01*
X56625551Y18250000D02*
G75*
G03*
X56425551Y18450051I-200051J0D01*
G01*
X56000000Y16250000D02*
G75*
G03*
X55800000Y16450000I-200000J0D01*
G01*
%TO.N,GPIO4*%
X47000000Y17425000D02*
X47000000Y15750000D01*
X47000000Y15750000D02*
X45875000Y14625000D01*
X45875000Y14625000D02*
X44362500Y14625000D01*
%TO.N,Net-(J1-In)*%
X5500000Y14750000D02*
X1250000Y14750000D01*
X7000000Y10700000D02*
X7000000Y13250000D01*
X7000000Y13250000D02*
X5500000Y14750000D01*
%TO.N,Net-(IC1-H)*%
X20500000Y8000000D02*
X20500000Y8500000D01*
X20250000Y8500000D02*
X18775000Y9975000D01*
X18775000Y9975000D02*
X18775000Y10250000D01*
X20500000Y8500000D02*
X20250000Y8500000D01*
D34*
%TO.N,/DRVD*%
X50750000Y18775000D02*
X53150000Y18775000D01*
X48250000Y15750000D02*
X48250000Y18775000D01*
X48250000Y18775000D02*
X50750000Y18775000D01*
D36*
X45825000Y13325000D02*
X44362500Y13325000D01*
D34*
X53150000Y18775000D02*
X53250000Y18675000D01*
D36*
X48250000Y15750000D02*
X45825000Y13325000D01*
%TO.N,/VA*%
X38637500Y9425000D02*
X38175000Y9425000D01*
D34*
X37750000Y9000000D02*
X37750000Y6975000D01*
X38500000Y6225000D02*
X41750000Y6225000D01*
X35475000Y9275000D02*
X35475000Y11000000D01*
X35725000Y17250000D02*
X35475000Y17000000D01*
X37000000Y17250000D02*
X35725000Y17250000D01*
X35850000Y11375000D02*
X35475000Y11000000D01*
X38637500Y16575000D02*
X37675000Y16575000D01*
X37675000Y16575000D02*
X37000000Y17250000D01*
D36*
X38175000Y9425000D02*
X37750000Y9000000D01*
D34*
X41750000Y7750000D02*
X41750000Y6225000D01*
D36*
X38637500Y11375000D02*
X35850000Y11375000D01*
D34*
X37750000Y6975000D02*
X38500000Y6225000D01*
X44250000Y6225000D02*
X44350000Y6325000D01*
X44350000Y6325000D02*
X46750000Y6325000D01*
X35500000Y9250000D02*
X35475000Y9275000D01*
X41750000Y6225000D02*
X44250000Y6225000D01*
D33*
%TO.N,/VRT*%
X33737500Y6212500D02*
X33750000Y6225000D01*
X36750000Y10000000D02*
X36750000Y6802500D01*
X29000000Y6212500D02*
X31250000Y6212500D01*
X37475000Y10725000D02*
X36750000Y10000000D01*
X36750000Y6802500D02*
X36172500Y6225000D01*
X38637500Y10725000D02*
X37475000Y10725000D01*
X31250000Y6212500D02*
X33737500Y6212500D01*
X33750000Y6225000D02*
X36172500Y6225000D01*
D34*
%TO.N,unconnected-(J2-Pin_20-Pad20)*%
X31235000Y27735000D02*
X31250000Y27750000D01*
X31235000Y27590000D02*
X31235000Y27735000D01*
%TD*%
%TA.AperFunction,Conductor*%
%TO.N,GNDA*%
G36*
X5253692Y14104538D02*
G01*
X5284551Y14080859D01*
X6330859Y13034551D01*
X6369423Y12967756D01*
X6374500Y12929192D01*
X6374500Y11949000D01*
X6354538Y11874500D01*
X6300000Y11819962D01*
X6225500Y11800000D01*
X4478553Y11800000D01*
X3178553Y10500000D01*
X4478553Y9200000D01*
X5322823Y9200000D01*
X5322842Y9200002D01*
X5382373Y9206402D01*
X5474081Y9240606D01*
X5526151Y9250000D01*
X6979000Y9250000D01*
X7053500Y9230038D01*
X7108038Y9175500D01*
X7128000Y9101000D01*
X7128000Y6749987D01*
X7133143Y6678066D01*
X7133145Y6678057D01*
X7173679Y6540012D01*
X7173680Y6540009D01*
X7173681Y6540008D01*
X7251469Y6418968D01*
X7274513Y6399000D01*
X7360205Y6324746D01*
X7388976Y6311607D01*
X7491084Y6264976D01*
X7491086Y6264976D01*
X7491088Y6264975D01*
X7595246Y6250000D01*
X7633500Y6244500D01*
X7633504Y6244500D01*
X9366496Y6244500D01*
X9366500Y6244500D01*
X9374395Y6245065D01*
X9438434Y6249644D01*
X9438437Y6249645D01*
X9438440Y6249645D01*
X9576492Y6290181D01*
X9697532Y6367969D01*
X9791754Y6476706D01*
X9851524Y6607584D01*
X9851537Y6607669D01*
X9864955Y6701000D01*
X9872000Y6750000D01*
X9872000Y8801000D01*
X9891962Y8875500D01*
X9946500Y8930038D01*
X10021000Y8950000D01*
X11314486Y8950000D01*
X11323125Y8949537D01*
X11323135Y8949714D01*
X11327106Y8949503D01*
X11327127Y8949500D01*
X12272872Y8949501D01*
X12332483Y8955909D01*
X12452038Y9000500D01*
X12467329Y9006203D01*
X12467333Y9006205D01*
X12525835Y9050000D01*
X13275000Y9050000D01*
X13950000Y9050000D01*
X13950000Y9600000D01*
X13727177Y9600000D01*
X13727157Y9599999D01*
X13667622Y9593599D01*
X13532915Y9543355D01*
X13532905Y9543350D01*
X13417812Y9457191D01*
X13417809Y9457188D01*
X13331650Y9342095D01*
X13331645Y9342085D01*
X13281401Y9207378D01*
X13275001Y9147843D01*
X13275000Y9147823D01*
X13275000Y9050000D01*
X12525835Y9050000D01*
X12531599Y9054315D01*
X12582546Y9092454D01*
X12645151Y9176083D01*
X12668795Y9207667D01*
X12668797Y9207671D01*
X12705347Y9305668D01*
X12719091Y9342517D01*
X12720823Y9358630D01*
X12725499Y9402115D01*
X12725499Y9402118D01*
X12725500Y9402127D01*
X12725499Y9751002D01*
X12745461Y9825500D01*
X12799999Y9880038D01*
X12874499Y9900000D01*
X13950000Y9900000D01*
X13950000Y10450000D01*
X14450000Y10450000D01*
X14450000Y9900000D01*
X14672823Y9900000D01*
X14672842Y9900002D01*
X14732377Y9906402D01*
X14867084Y9956646D01*
X14867094Y9956651D01*
X14982187Y10042810D01*
X14982190Y10042813D01*
X15068349Y10157906D01*
X15068354Y10157916D01*
X15118598Y10292623D01*
X15124998Y10352158D01*
X15125000Y10352178D01*
X15125000Y10450000D01*
X14450000Y10450000D01*
X13950000Y10450000D01*
X13950000Y10801000D01*
X13969962Y10875500D01*
X14024500Y10930038D01*
X14099000Y10950000D01*
X15125000Y10950000D01*
X15125000Y11047823D01*
X15124998Y11047843D01*
X15118598Y11107374D01*
X15103099Y11148930D01*
X15095768Y11225709D01*
X15127808Y11295867D01*
X15190635Y11340606D01*
X15242705Y11350000D01*
X16587506Y11350000D01*
X16596195Y11349557D01*
X16596202Y11349693D01*
X16599972Y11349502D01*
X16599991Y11349500D01*
X17350008Y11349501D01*
X17350010Y11349502D01*
X17353793Y11349694D01*
X17353799Y11349559D01*
X17362483Y11350000D01*
X17602143Y11350000D01*
X17676643Y11330038D01*
X17731181Y11275500D01*
X17751143Y11201000D01*
X17743580Y11154132D01*
X17710001Y11052799D01*
X17710001Y11052797D01*
X17700558Y10960360D01*
X17699500Y10950005D01*
X17699500Y9859814D01*
X17679538Y9785314D01*
X17625000Y9730776D01*
X17550500Y9710814D01*
X17476000Y9730776D01*
X17472281Y9732996D01*
X17469334Y9734814D01*
X17362839Y9770103D01*
X17302798Y9789999D01*
X17285665Y9791750D01*
X17200009Y9800500D01*
X17200004Y9800500D01*
X15799996Y9800500D01*
X15697202Y9789999D01*
X15530666Y9734814D01*
X15381343Y9642712D01*
X15257288Y9518657D01*
X15227145Y9469786D01*
X15171044Y9416857D01*
X15095995Y9399070D01*
X15022107Y9421190D01*
X14990314Y9450245D01*
X14989724Y9449654D01*
X14982187Y9457191D01*
X14867094Y9543350D01*
X14867084Y9543355D01*
X14732376Y9593599D01*
X14732378Y9593599D01*
X14672842Y9599999D01*
X14672823Y9600000D01*
X14450000Y9600000D01*
X14450000Y8699000D01*
X14430038Y8624500D01*
X14375500Y8569962D01*
X14301000Y8550000D01*
X13275000Y8550000D01*
X13275000Y8452178D01*
X13275001Y8452158D01*
X13281401Y8392623D01*
X13331645Y8257916D01*
X13331650Y8257906D01*
X13417809Y8142813D01*
X13417812Y8142810D01*
X13532905Y8056651D01*
X13532915Y8056646D01*
X13667623Y8006402D01*
X13667621Y8006402D01*
X13727157Y8000002D01*
X13727177Y8000000D01*
X13866870Y8000000D01*
X13941370Y7980038D01*
X13995908Y7925500D01*
X14015870Y7851000D01*
X14007509Y7801792D01*
X13988095Y7746308D01*
X13964631Y7679253D01*
X13944435Y7500002D01*
X13944435Y7499999D01*
X13964631Y7320747D01*
X13964632Y7320744D01*
X13991139Y7244991D01*
X13999500Y7195781D01*
X13999500Y6399000D01*
X13979538Y6324500D01*
X13925000Y6269962D01*
X13850500Y6250000D01*
X12694128Y6250000D01*
X12619628Y6269962D01*
X12565090Y6324500D01*
X12545128Y6399000D01*
X12546065Y6415683D01*
X12555565Y6499999D01*
X12555565Y6500002D01*
X12543434Y6607669D01*
X12535368Y6679255D01*
X12475789Y6849522D01*
X12475487Y6850002D01*
X12431048Y6920726D01*
X12408313Y6994427D01*
X12425475Y7069622D01*
X12431048Y7079274D01*
X12475789Y7150478D01*
X12535368Y7320745D01*
X12555565Y7500000D01*
X12547114Y7575001D01*
X12541537Y7624501D01*
X12535368Y7679255D01*
X12475789Y7849522D01*
X12379816Y8002262D01*
X12252262Y8129816D01*
X12099522Y8225789D01*
X11929255Y8285368D01*
X11929254Y8285369D01*
X11929253Y8285369D01*
X11750001Y8305565D01*
X11749999Y8305565D01*
X11570747Y8285369D01*
X11400477Y8225789D01*
X11247738Y8129816D01*
X11120184Y8002262D01*
X11024211Y7849523D01*
X10964632Y7679256D01*
X10960306Y7640867D01*
X10932126Y7569072D01*
X10917602Y7552195D01*
X10651269Y7285860D01*
X10564143Y7198735D01*
X10564137Y7198727D01*
X10536134Y7156818D01*
X10495691Y7096292D01*
X10495689Y7096288D01*
X10495688Y7096286D01*
X10479038Y7056089D01*
X10448540Y6982461D01*
X10448535Y6982445D01*
X10444214Y6960717D01*
X10427264Y6875500D01*
X10424500Y6861606D01*
X10424500Y6861605D01*
X10424500Y4888392D01*
X10432231Y4849524D01*
X10441182Y4804524D01*
X10448535Y4767554D01*
X10448536Y4767550D01*
X10448537Y4767549D01*
X10495688Y4653714D01*
X10495689Y4653712D01*
X10495690Y4653711D01*
X10518090Y4620189D01*
X10518091Y4620185D01*
X10518092Y4620185D01*
X10518093Y4620184D01*
X10564142Y4551267D01*
X10564145Y4551264D01*
X10659757Y4455652D01*
X10659762Y4455648D01*
X13906359Y1209050D01*
X13944923Y1142256D01*
X13950000Y1103692D01*
X13950000Y149500D01*
X13930038Y75000D01*
X13875500Y20462D01*
X13801000Y500D01*
X3556188Y500D01*
X3556176Y501D01*
X3544171Y501D01*
X3503906Y501D01*
X3496108Y705D01*
X3168136Y17894D01*
X3152625Y19524D01*
X2832100Y70290D01*
X2816845Y73533D01*
X2503397Y157521D01*
X2488564Y162341D01*
X2185593Y278641D01*
X2171346Y284984D01*
X1882210Y432305D01*
X1868707Y440101D01*
X1596544Y616846D01*
X1583927Y626012D01*
X1331727Y830239D01*
X1320137Y840675D01*
X1090675Y1070137D01*
X1080239Y1081727D01*
X1062452Y1103692D01*
X876007Y1333932D01*
X866844Y1346545D01*
X690096Y1618713D01*
X682310Y1632200D01*
X534983Y1921346D01*
X528640Y1935593D01*
X412340Y2238564D01*
X407522Y2253389D01*
X323532Y2566846D01*
X320289Y2582100D01*
X269523Y2902625D01*
X267893Y2918136D01*
X267533Y2924997D01*
X256857Y3128707D01*
X1649500Y3128707D01*
X1681160Y2888219D01*
X1681161Y2888213D01*
X1681162Y2888211D01*
X1698389Y2823918D01*
X1743947Y2653897D01*
X1836778Y2429784D01*
X1889998Y2337605D01*
X1958064Y2219711D01*
X2105735Y2027262D01*
X2277262Y1855735D01*
X2469711Y1708064D01*
X2679788Y1586776D01*
X2903900Y1493946D01*
X3138211Y1431162D01*
X3138217Y1431162D01*
X3138218Y1431161D01*
X3203600Y1422554D01*
X3378712Y1399500D01*
X3621288Y1399500D01*
X3861789Y1431162D01*
X4096100Y1493946D01*
X4320212Y1586776D01*
X4530289Y1708064D01*
X4722738Y1855735D01*
X4894265Y2027262D01*
X5041936Y2219711D01*
X5163224Y2429788D01*
X5256054Y2653900D01*
X5318838Y2888211D01*
X5350500Y3128712D01*
X5350500Y3371288D01*
X5318838Y3611789D01*
X5256054Y3846100D01*
X5163224Y4070212D01*
X5041936Y4280289D01*
X4894265Y4472738D01*
X4722738Y4644265D01*
X4530289Y4791936D01*
X4410906Y4860862D01*
X4320216Y4913222D01*
X4320214Y4913223D01*
X4320212Y4913224D01*
X4188932Y4967602D01*
X4096103Y5006053D01*
X4096101Y5006054D01*
X4096100Y5006054D01*
X3861789Y5068838D01*
X3861787Y5068839D01*
X3861781Y5068840D01*
X3621293Y5100500D01*
X3621288Y5100500D01*
X3378712Y5100500D01*
X3378706Y5100500D01*
X3138218Y5068840D01*
X2903896Y5006053D01*
X2679783Y4913222D01*
X2469712Y4791937D01*
X2469711Y4791936D01*
X2277262Y4644265D01*
X2277260Y4644264D01*
X2277256Y4644260D01*
X2105740Y4472744D01*
X2105736Y4472740D01*
X2105735Y4472738D01*
X2092621Y4455647D01*
X1958063Y4280288D01*
X1836778Y4070217D01*
X1743947Y3846104D01*
X1681160Y3611782D01*
X1649500Y3371294D01*
X1649500Y3128707D01*
X256857Y3128707D01*
X250705Y3246109D01*
X250501Y3253906D01*
X250501Y3306174D01*
X250500Y3306188D01*
X250500Y9051000D01*
X270462Y9125500D01*
X325000Y9180038D01*
X399500Y9200000D01*
X1171447Y9200000D01*
X1878554Y9200000D01*
X3771446Y9200000D01*
X2825000Y10146447D01*
X1878554Y9200000D01*
X1171447Y9200000D01*
X2471447Y10500000D01*
X1171447Y11800000D01*
X1878554Y11800000D01*
X2825000Y10853554D01*
X3771446Y11800000D01*
X1878554Y11800000D01*
X1171447Y11800000D01*
X399500Y11800000D01*
X325000Y11819962D01*
X270462Y11874500D01*
X250500Y11949000D01*
X250500Y13750501D01*
X270462Y13825001D01*
X325000Y13879539D01*
X399500Y13899501D01*
X2472864Y13899501D01*
X2472872Y13899501D01*
X2532483Y13905909D01*
X2628447Y13941702D01*
X2667329Y13956203D01*
X2667333Y13956205D01*
X2726455Y14000464D01*
X2782546Y14042454D01*
X2799268Y14064793D01*
X2859895Y14112470D01*
X2918549Y14124500D01*
X5179192Y14124500D01*
X5253692Y14104538D01*
G37*
%TD.AperFunction*%
%TA.AperFunction,Conductor*%
G36*
X61443824Y29499499D02*
G01*
X61455829Y29499499D01*
X61496094Y29499499D01*
X61503891Y29499296D01*
X61831866Y29482107D01*
X61847371Y29480478D01*
X61941714Y29465535D01*
X62167899Y29429711D01*
X62183154Y29426468D01*
X62496610Y29342478D01*
X62511435Y29337660D01*
X62814406Y29221360D01*
X62828653Y29215017D01*
X63117799Y29067690D01*
X63131286Y29059904D01*
X63403459Y28883152D01*
X63416068Y28873992D01*
X63668272Y28669762D01*
X63679862Y28659326D01*
X63909324Y28429864D01*
X63919760Y28418274D01*
X64123988Y28166074D01*
X64133154Y28153457D01*
X64309899Y27881294D01*
X64317693Y27867795D01*
X64323968Y27855479D01*
X64465016Y27578655D01*
X64471359Y27564408D01*
X64587659Y27261437D01*
X64592479Y27246604D01*
X64676467Y26933156D01*
X64679710Y26917901D01*
X64730476Y26597376D01*
X64732106Y26581865D01*
X64749295Y26253893D01*
X64749499Y26246095D01*
X64749499Y26188486D01*
X64749500Y26188477D01*
X64749500Y3306189D01*
X64749499Y3306181D01*
X64749499Y3253907D01*
X64749295Y3246109D01*
X64732106Y2918137D01*
X64730476Y2902626D01*
X64679710Y2582101D01*
X64676467Y2566846D01*
X64592479Y2253398D01*
X64587659Y2238565D01*
X64471359Y1935594D01*
X64465016Y1921347D01*
X64317695Y1632211D01*
X64309897Y1618704D01*
X64133155Y1346546D01*
X64123988Y1333928D01*
X63919761Y1081728D01*
X63909325Y1070138D01*
X63679863Y840676D01*
X63668273Y830240D01*
X63416073Y626012D01*
X63403455Y616845D01*
X63131297Y440103D01*
X63117790Y432305D01*
X62828654Y284984D01*
X62814407Y278641D01*
X62511436Y162341D01*
X62496603Y157521D01*
X62183155Y73533D01*
X62167900Y70290D01*
X61847375Y19524D01*
X61831864Y17894D01*
X61503893Y705D01*
X61496095Y501D01*
X61443825Y501D01*
X61443813Y500D01*
X57899000Y500D01*
X57824500Y20462D01*
X57769962Y75000D01*
X57750000Y149500D01*
X57750000Y3128707D01*
X59649500Y3128707D01*
X59681160Y2888219D01*
X59681161Y2888213D01*
X59681162Y2888211D01*
X59698389Y2823918D01*
X59743947Y2653897D01*
X59836778Y2429784D01*
X59889998Y2337605D01*
X59958064Y2219711D01*
X60105735Y2027262D01*
X60277262Y1855735D01*
X60469711Y1708064D01*
X60679788Y1586776D01*
X60903900Y1493946D01*
X61138211Y1431162D01*
X61138217Y1431162D01*
X61138218Y1431161D01*
X61203600Y1422554D01*
X61378712Y1399500D01*
X61621288Y1399500D01*
X61861789Y1431162D01*
X62096100Y1493946D01*
X62320212Y1586776D01*
X62530289Y1708064D01*
X62722738Y1855735D01*
X62894265Y2027262D01*
X63041936Y2219711D01*
X63163224Y2429788D01*
X63256054Y2653900D01*
X63318838Y2888211D01*
X63350500Y3128712D01*
X63350500Y3371288D01*
X63318838Y3611789D01*
X63256054Y3846100D01*
X63163224Y4070212D01*
X63041936Y4280289D01*
X62894265Y4472738D01*
X62722738Y4644265D01*
X62530289Y4791936D01*
X62410906Y4860862D01*
X62320216Y4913222D01*
X62320214Y4913223D01*
X62320212Y4913224D01*
X62188932Y4967602D01*
X62096103Y5006053D01*
X62096101Y5006054D01*
X62096100Y5006054D01*
X61861789Y5068838D01*
X61861787Y5068839D01*
X61861781Y5068840D01*
X61621293Y5100500D01*
X61621288Y5100500D01*
X61378712Y5100500D01*
X61378706Y5100500D01*
X61138218Y5068840D01*
X60903896Y5006053D01*
X60679783Y4913222D01*
X60469712Y4791937D01*
X60469711Y4791936D01*
X60277262Y4644265D01*
X60277260Y4644264D01*
X60277256Y4644260D01*
X60105740Y4472744D01*
X60105736Y4472740D01*
X60105735Y4472738D01*
X60092621Y4455647D01*
X59958063Y4280288D01*
X59836778Y4070217D01*
X59743947Y3846104D01*
X59681160Y3611782D01*
X59649500Y3371294D01*
X59649500Y3128707D01*
X57750000Y3128707D01*
X57750000Y3303692D01*
X57769962Y3378192D01*
X57793641Y3409051D01*
X61235858Y6851267D01*
X61304312Y6953715D01*
X61342810Y7046658D01*
X61351463Y7067548D01*
X61357179Y7096286D01*
X61357676Y7098784D01*
X61357676Y7098785D01*
X61363371Y7127416D01*
X61375501Y7188394D01*
X61375501Y7311607D01*
X61375501Y7317749D01*
X61375500Y7317775D01*
X61375500Y21061603D01*
X61375499Y21061611D01*
X61372524Y21076568D01*
X61372524Y21076569D01*
X61372523Y21076571D01*
X61358170Y21148733D01*
X61351463Y21182452D01*
X61331492Y21230666D01*
X61326777Y21242050D01*
X61315544Y21269167D01*
X61304312Y21296285D01*
X61268949Y21349209D01*
X61235858Y21398733D01*
X61148733Y21485858D01*
X61145001Y21489590D01*
X61144986Y21489604D01*
X58735860Y23898730D01*
X58735860Y23898731D01*
X58648741Y23985851D01*
X58648736Y23985855D01*
X58648733Y23985858D01*
X58580678Y24031331D01*
X58562259Y24043639D01*
X58546288Y24054311D01*
X58546282Y24054314D01*
X58454050Y24092517D01*
X58454048Y24092518D01*
X58432461Y24101460D01*
X58432455Y24101462D01*
X58432452Y24101463D01*
X58351580Y24117549D01*
X58311607Y24125500D01*
X57921930Y24125500D01*
X57847430Y24145462D01*
X57792892Y24200000D01*
X57772930Y24274500D01*
X57792892Y24349000D01*
X57799878Y24359965D01*
X57808596Y24372416D01*
X57808599Y24372421D01*
X57908430Y24586509D01*
X57908431Y24586511D01*
X57965636Y24800000D01*
X57068012Y24800000D01*
X57100925Y24857007D01*
X57135000Y24984174D01*
X57135000Y25115826D01*
X57100925Y25242993D01*
X57068012Y25300000D01*
X57965636Y25300000D01*
X57965635Y25300001D01*
X57908431Y25513488D01*
X57808597Y25727581D01*
X57673108Y25921080D01*
X57506076Y26088112D01*
X57448101Y26128707D01*
X59649500Y26128707D01*
X59681160Y25888219D01*
X59681161Y25888213D01*
X59681162Y25888211D01*
X59743946Y25653900D01*
X59836776Y25429788D01*
X59958064Y25219711D01*
X60105735Y25027262D01*
X60277262Y24855735D01*
X60469711Y24708064D01*
X60679788Y24586776D01*
X60903900Y24493946D01*
X61138211Y24431162D01*
X61138217Y24431162D01*
X61138218Y24431161D01*
X61203600Y24422554D01*
X61378712Y24399500D01*
X61621288Y24399500D01*
X61861789Y24431162D01*
X62096100Y24493946D01*
X62320212Y24586776D01*
X62530289Y24708064D01*
X62722738Y24855735D01*
X62894265Y25027262D01*
X63041936Y25219711D01*
X63163224Y25429788D01*
X63256054Y25653900D01*
X63318838Y25888211D01*
X63350500Y26128712D01*
X63350500Y26371288D01*
X63324222Y26570891D01*
X63318839Y26611782D01*
X63318838Y26611783D01*
X63318838Y26611789D01*
X63256054Y26846100D01*
X63163224Y27070212D01*
X63041936Y27280289D01*
X62894265Y27472738D01*
X62722738Y27644265D01*
X62530289Y27791936D01*
X62398906Y27867790D01*
X62320216Y27913222D01*
X62320214Y27913223D01*
X62320212Y27913224D01*
X62134619Y27990099D01*
X62096103Y28006053D01*
X62096101Y28006054D01*
X62096100Y28006054D01*
X61861789Y28068838D01*
X61861787Y28068839D01*
X61861781Y28068840D01*
X61621293Y28100500D01*
X61621288Y28100500D01*
X61378712Y28100500D01*
X61378706Y28100500D01*
X61138218Y28068840D01*
X60903896Y28006053D01*
X60679783Y27913222D01*
X60469712Y27791937D01*
X60469711Y27791936D01*
X60277262Y27644265D01*
X60277260Y27644264D01*
X60277256Y27644260D01*
X60105740Y27472744D01*
X59958063Y27280288D01*
X59836778Y27070217D01*
X59743947Y26846104D01*
X59681160Y26611782D01*
X59649500Y26371294D01*
X59649500Y26128707D01*
X57448101Y26128707D01*
X57349652Y26197642D01*
X57300075Y26256725D01*
X57286682Y26332682D01*
X57313062Y26405158D01*
X57349648Y26441746D01*
X57506401Y26551505D01*
X57673495Y26718599D01*
X57809035Y26912170D01*
X57908903Y27126337D01*
X57970063Y27354592D01*
X57990659Y27590000D01*
X57970063Y27825408D01*
X57908903Y28053663D01*
X57809035Y28267829D01*
X57673495Y28461401D01*
X57506401Y28628495D01*
X57312830Y28764035D01*
X57098663Y28863903D01*
X57098661Y28863904D01*
X56870409Y28925063D01*
X56635000Y28945659D01*
X56399590Y28925063D01*
X56171340Y28863904D01*
X56171339Y28863904D01*
X56171337Y28863903D01*
X55957171Y28764035D01*
X55957168Y28764034D01*
X55957168Y28764033D01*
X55763596Y28628493D01*
X55596506Y28461403D01*
X55487054Y28305088D01*
X55427970Y28255511D01*
X55352014Y28242118D01*
X55279537Y28268497D01*
X55242946Y28305088D01*
X55163693Y28418273D01*
X55133495Y28461401D01*
X54966401Y28628495D01*
X54772830Y28764035D01*
X54558663Y28863903D01*
X54558661Y28863904D01*
X54330409Y28925063D01*
X54095000Y28945659D01*
X53859590Y28925063D01*
X53631340Y28863904D01*
X53631339Y28863904D01*
X53631337Y28863903D01*
X53417171Y28764035D01*
X53417168Y28764034D01*
X53417168Y28764033D01*
X53223596Y28628493D01*
X53056506Y28461403D01*
X52947054Y28305088D01*
X52887970Y28255511D01*
X52812014Y28242118D01*
X52739537Y28268497D01*
X52702946Y28305088D01*
X52623693Y28418273D01*
X52593495Y28461401D01*
X52426401Y28628495D01*
X52232830Y28764035D01*
X52018663Y28863903D01*
X52018661Y28863904D01*
X51790409Y28925063D01*
X51555000Y28945659D01*
X51319590Y28925063D01*
X51091340Y28863904D01*
X51091339Y28863904D01*
X51091337Y28863903D01*
X50877171Y28764035D01*
X50877168Y28764034D01*
X50877168Y28764033D01*
X50683596Y28628493D01*
X50516503Y28461400D01*
X50406747Y28304652D01*
X50347664Y28255075D01*
X50271707Y28241682D01*
X50199231Y28268062D01*
X50162640Y28304652D01*
X50053108Y28461080D01*
X49886076Y28628112D01*
X49692588Y28763594D01*
X49692579Y28763600D01*
X49478491Y28863431D01*
X49478489Y28863432D01*
X49265000Y28920636D01*
X49265000Y28023012D01*
X49207993Y28055925D01*
X49080826Y28090000D01*
X48949174Y28090000D01*
X48822007Y28055925D01*
X48765000Y28023012D01*
X48765000Y28920636D01*
X48764999Y28920636D01*
X48551512Y28863432D01*
X48337419Y28763598D01*
X48143920Y28628109D01*
X47976888Y28461077D01*
X47867358Y28304652D01*
X47808275Y28255075D01*
X47732318Y28241682D01*
X47659842Y28268062D01*
X47623251Y28304652D01*
X47543693Y28418273D01*
X47513495Y28461401D01*
X47346401Y28628495D01*
X47152830Y28764035D01*
X46938663Y28863903D01*
X46938661Y28863904D01*
X46710409Y28925063D01*
X46475000Y28945659D01*
X46239590Y28925063D01*
X46011340Y28863904D01*
X46011339Y28863904D01*
X46011337Y28863903D01*
X45797171Y28764035D01*
X45797168Y28764034D01*
X45797168Y28764033D01*
X45603596Y28628493D01*
X45436503Y28461400D01*
X45326747Y28304652D01*
X45267664Y28255075D01*
X45191707Y28241682D01*
X45119231Y28268062D01*
X45082640Y28304652D01*
X44973108Y28461080D01*
X44806076Y28628112D01*
X44612588Y28763594D01*
X44612579Y28763600D01*
X44398491Y28863431D01*
X44398489Y28863432D01*
X44185000Y28920636D01*
X44185000Y28023012D01*
X44127993Y28055925D01*
X44000826Y28090000D01*
X43869174Y28090000D01*
X43742007Y28055925D01*
X43685000Y28023012D01*
X43685000Y28920636D01*
X43684105Y28921323D01*
X43610435Y28921323D01*
X43543640Y28959888D01*
X43505077Y29026683D01*
X43500000Y29065246D01*
X43500000Y29350500D01*
X43519962Y29425000D01*
X43574500Y29479538D01*
X43649000Y29499500D01*
X61443812Y29499500D01*
X61443824Y29499499D01*
G37*
%TD.AperFunction*%
%TA.AperFunction,Conductor*%
G36*
X50925500Y21955038D02*
G01*
X50980038Y21900500D01*
X51000000Y21826000D01*
X51000000Y20650001D01*
X51449974Y20650001D01*
X51552696Y20660495D01*
X51719121Y20715643D01*
X51868340Y20807681D01*
X51868345Y20807685D01*
X51958826Y20898166D01*
X52025620Y20936731D01*
X52102748Y20936731D01*
X52142405Y20919625D01*
X52230662Y20865188D01*
X52230663Y20865188D01*
X52230666Y20865186D01*
X52397203Y20810001D01*
X52499991Y20799500D01*
X54000008Y20799501D01*
X54102797Y20810001D01*
X54269334Y20865186D01*
X54418656Y20957288D01*
X54492227Y21030859D01*
X54559022Y21069423D01*
X54597586Y21074500D01*
X57302414Y21074500D01*
X57376914Y21054538D01*
X57407773Y21030859D01*
X58355859Y20082773D01*
X58394423Y20015978D01*
X58399500Y19977414D01*
X58399500Y17804220D01*
X58391139Y17755010D01*
X58364632Y17679257D01*
X58364631Y17679254D01*
X58344435Y17500002D01*
X58344435Y17499999D01*
X58364631Y17320748D01*
X58364631Y17320746D01*
X58364632Y17320745D01*
X58424211Y17150478D01*
X58520184Y16997738D01*
X58647738Y16870184D01*
X58800478Y16774211D01*
X58970745Y16714632D01*
X59060372Y16704534D01*
X59149999Y16694435D01*
X59150000Y16694435D01*
X59150001Y16694435D01*
X59199391Y16700000D01*
X59329255Y16714632D01*
X59426290Y16748587D01*
X59503201Y16754349D01*
X59572691Y16720885D01*
X59616139Y16657158D01*
X59624500Y16607947D01*
X59624500Y7820808D01*
X59604538Y7746308D01*
X59580859Y7715449D01*
X53384551Y1519141D01*
X53317756Y1480577D01*
X53279192Y1475500D01*
X50899000Y1475500D01*
X50824500Y1495462D01*
X50769962Y1550000D01*
X50750000Y1624500D01*
X50750000Y2663687D01*
X50750500Y2673863D01*
X50750500Y4945781D01*
X50758861Y4994991D01*
X50770066Y5027017D01*
X50785368Y5070745D01*
X50805565Y5250000D01*
X50802437Y5277758D01*
X50792587Y5365187D01*
X50785368Y5429255D01*
X50725789Y5599522D01*
X50629816Y5752262D01*
X50502262Y5879816D01*
X50349522Y5975789D01*
X50179255Y6035368D01*
X50179254Y6035369D01*
X50179253Y6035369D01*
X50000001Y6055565D01*
X49999999Y6055565D01*
X49820747Y6035369D01*
X49650477Y5975789D01*
X49497738Y5879816D01*
X49370184Y5752262D01*
X49274211Y5599523D01*
X49214631Y5429253D01*
X49194435Y5250002D01*
X49194435Y5249999D01*
X49214631Y5070747D01*
X49214632Y5070744D01*
X49241139Y4994991D01*
X49249500Y4945781D01*
X49249500Y4149000D01*
X49229538Y4074500D01*
X49175000Y4019962D01*
X49100500Y4000000D01*
X48023086Y4000000D01*
X47948586Y4019962D01*
X47925649Y4037563D01*
X47925465Y4037329D01*
X47918661Y4042709D01*
X47893455Y4058256D01*
X47769334Y4134814D01*
X47675164Y4166019D01*
X47602798Y4189999D01*
X47580117Y4192316D01*
X47500009Y4200500D01*
X47500004Y4200500D01*
X45999996Y4200500D01*
X45897202Y4189999D01*
X45730665Y4134814D01*
X45730662Y4134812D01*
X45642406Y4080376D01*
X45568518Y4058256D01*
X45493469Y4076044D01*
X45458828Y4101834D01*
X45368345Y4192316D01*
X45368340Y4192320D01*
X45219121Y4284358D01*
X45052697Y4339506D01*
X45052688Y4339508D01*
X44949989Y4350000D01*
X44500000Y4350000D01*
X44500000Y3174000D01*
X44480038Y3099500D01*
X44425500Y3044962D01*
X44351000Y3025000D01*
X40336355Y3025000D01*
X40301847Y3005077D01*
X40263283Y3000000D01*
X39986718Y3000000D01*
X39912218Y3019962D01*
X39905652Y3025000D01*
X32381218Y3025000D01*
X32334567Y3037500D01*
X31149000Y3037500D01*
X31074500Y3057462D01*
X31019962Y3112000D01*
X31000000Y3186500D01*
X31000000Y3388500D01*
X31019962Y3463000D01*
X31074500Y3517538D01*
X31149000Y3537500D01*
X32593782Y3537500D01*
X32640433Y3525000D01*
X39899999Y3525000D01*
X40350000Y3525000D01*
X41500000Y3525000D01*
X41500000Y4350000D01*
X42000000Y4350000D01*
X42000000Y3525000D01*
X44000000Y3525000D01*
X44000000Y4350000D01*
X43550026Y4350000D01*
X43447303Y4339506D01*
X43280878Y4284358D01*
X43131659Y4192320D01*
X43105359Y4166019D01*
X43038564Y4127455D01*
X42961436Y4127455D01*
X42894641Y4166019D01*
X42868340Y4192320D01*
X42719121Y4284358D01*
X42552697Y4339506D01*
X42552688Y4339508D01*
X42449989Y4350000D01*
X42000000Y4350000D01*
X41500000Y4350000D01*
X41050026Y4350000D01*
X40947303Y4339506D01*
X40780878Y4284358D01*
X40631659Y4192320D01*
X40507680Y4068341D01*
X40415642Y3919122D01*
X40360494Y3752698D01*
X40360492Y3752689D01*
X40350000Y3649990D01*
X40350000Y3525000D01*
X39899999Y3525000D01*
X39899999Y3649974D01*
X39889505Y3752697D01*
X39834357Y3919122D01*
X39742319Y4068341D01*
X39618343Y4192318D01*
X39570777Y4221658D01*
X39517849Y4277759D01*
X39500000Y4348473D01*
X39500000Y5150941D01*
X39519962Y5225441D01*
X39570780Y5277758D01*
X39590131Y5289694D01*
X39618656Y5307288D01*
X39742228Y5430861D01*
X39809020Y5469423D01*
X39847585Y5474500D01*
X40402415Y5474500D01*
X40476915Y5454538D01*
X40507769Y5430863D01*
X40631344Y5307288D01*
X40780666Y5215186D01*
X40947203Y5160001D01*
X41049991Y5149500D01*
X42450008Y5149501D01*
X42552797Y5160001D01*
X42719334Y5215186D01*
X42868656Y5307288D01*
X42894641Y5333273D01*
X42961436Y5371837D01*
X43038564Y5371837D01*
X43105359Y5333273D01*
X43131344Y5307288D01*
X43280666Y5215186D01*
X43447203Y5160001D01*
X43549991Y5149500D01*
X44950008Y5149501D01*
X45052797Y5160001D01*
X45219334Y5215186D01*
X45368656Y5307288D01*
X45459264Y5397896D01*
X45526058Y5436461D01*
X45603186Y5436461D01*
X45642843Y5419355D01*
X45730662Y5365188D01*
X45730663Y5365188D01*
X45730666Y5365186D01*
X45897203Y5310001D01*
X45999991Y5299500D01*
X47500008Y5299501D01*
X47602797Y5310001D01*
X47769334Y5365186D01*
X47918656Y5457288D01*
X48042712Y5581344D01*
X48134814Y5730666D01*
X48189999Y5897203D01*
X48200500Y5999991D01*
X48200499Y6650008D01*
X48189999Y6752797D01*
X48134814Y6919334D01*
X48042712Y7068656D01*
X47918656Y7192712D01*
X47769334Y7284814D01*
X47669943Y7317749D01*
X47602798Y7339999D01*
X47585665Y7341750D01*
X47500009Y7350500D01*
X47500004Y7350500D01*
X45999996Y7350500D01*
X45897202Y7339999D01*
X45730666Y7284814D01*
X45581340Y7192710D01*
X45552583Y7163953D01*
X45485788Y7125389D01*
X45408660Y7125391D01*
X45369005Y7142496D01*
X45368657Y7142711D01*
X45368656Y7142712D01*
X45219334Y7234814D01*
X45096552Y7275500D01*
X45052798Y7289999D01*
X45035665Y7291750D01*
X44950009Y7300500D01*
X44950004Y7300500D01*
X43549996Y7300500D01*
X43447202Y7289999D01*
X43280666Y7234814D01*
X43131343Y7142712D01*
X43105359Y7116727D01*
X43038564Y7078163D01*
X42961436Y7078163D01*
X42894641Y7116727D01*
X42868656Y7142712D01*
X42719334Y7234814D01*
X42602631Y7273486D01*
X42538192Y7315870D01*
X42503578Y7384794D01*
X42500500Y7414923D01*
X42500500Y7445781D01*
X42508861Y7494991D01*
X42528877Y7552195D01*
X42535368Y7570745D01*
X42555565Y7750000D01*
X42535368Y7929255D01*
X42475789Y8099522D01*
X42379816Y8252262D01*
X42252262Y8379816D01*
X42099522Y8475789D01*
X41929255Y8535368D01*
X41929254Y8535369D01*
X41929253Y8535369D01*
X41750001Y8555565D01*
X41749999Y8555565D01*
X41570747Y8535369D01*
X41400477Y8475789D01*
X41247738Y8379816D01*
X41120184Y8252262D01*
X41024211Y8099523D01*
X40964631Y7929253D01*
X40944435Y7750002D01*
X40944435Y7749999D01*
X40964631Y7570747D01*
X40964632Y7570744D01*
X40991139Y7494991D01*
X40999500Y7445781D01*
X40999500Y7414923D01*
X40979538Y7340423D01*
X40925000Y7285885D01*
X40897369Y7273486D01*
X40780665Y7234814D01*
X40631343Y7142712D01*
X40587417Y7098785D01*
X40507771Y7019140D01*
X40440980Y6980577D01*
X40402415Y6975500D01*
X39847585Y6975500D01*
X39773085Y6995462D01*
X39742230Y7019138D01*
X39618656Y7142712D01*
X39469334Y7234814D01*
X39346552Y7275500D01*
X39302798Y7289999D01*
X39282239Y7292100D01*
X39200009Y7300500D01*
X39200005Y7300500D01*
X38649500Y7300500D01*
X38575000Y7320462D01*
X38520462Y7375000D01*
X38500500Y7449500D01*
X38500500Y8575500D01*
X38520462Y8650000D01*
X38575000Y8704538D01*
X38649500Y8724500D01*
X38723838Y8724500D01*
X38723846Y8724501D01*
X39314356Y8724501D01*
X39314360Y8724501D01*
X39431762Y8739956D01*
X39577841Y8800464D01*
X39703282Y8896718D01*
X39799536Y9022159D01*
X39860044Y9168238D01*
X39861598Y9180038D01*
X39870808Y9250002D01*
X39875500Y9285639D01*
X39875499Y9564360D01*
X39860044Y9681762D01*
X39855125Y9693636D01*
X39845059Y9770103D01*
X39855128Y9807679D01*
X39859554Y9818365D01*
X39859555Y9818370D01*
X39867012Y9875000D01*
X39836828Y9875000D01*
X39762328Y9894962D01*
X39718619Y9933294D01*
X39717617Y9934600D01*
X39703282Y9953282D01*
X39698710Y9956790D01*
X39651758Y10017977D01*
X39641689Y10094445D01*
X39671203Y10165703D01*
X39698709Y10193210D01*
X39703282Y10196718D01*
X39718619Y10216707D01*
X39779809Y10263658D01*
X39836828Y10275000D01*
X39867011Y10275000D01*
X39867011Y10275001D01*
X39859557Y10331629D01*
X39855126Y10342326D01*
X39845059Y10418795D01*
X39855127Y10456368D01*
X39860044Y10468238D01*
X39860044Y10468239D01*
X39860045Y10468241D01*
X39870825Y10550131D01*
X39875500Y10585639D01*
X39875499Y10864360D01*
X39860044Y10981762D01*
X39855398Y10992977D01*
X39845328Y11069440D01*
X39855396Y11107020D01*
X39860044Y11118238D01*
X39860869Y11124500D01*
X39867299Y11173345D01*
X39875500Y11235639D01*
X39875499Y11514360D01*
X39860044Y11631762D01*
X39855125Y11643636D01*
X39845059Y11720103D01*
X39855128Y11757679D01*
X39859554Y11768365D01*
X39859555Y11768370D01*
X39867012Y11825000D01*
X39836828Y11825000D01*
X39762328Y11844962D01*
X39718619Y11883294D01*
X39716816Y11885644D01*
X39703282Y11903282D01*
X39698710Y11906790D01*
X39651758Y11967977D01*
X39641689Y12044445D01*
X39671203Y12115703D01*
X39698709Y12143210D01*
X39703282Y12146718D01*
X39718619Y12166707D01*
X39779809Y12213658D01*
X39836828Y12225000D01*
X39867011Y12225000D01*
X39867011Y12225001D01*
X39859557Y12281629D01*
X39855126Y12292326D01*
X39845059Y12368795D01*
X39855127Y12406368D01*
X39860044Y12418238D01*
X39860044Y12418239D01*
X39860045Y12418241D01*
X39875499Y12535635D01*
X39875500Y12535639D01*
X39875499Y12814360D01*
X39860044Y12931762D01*
X39855125Y12943636D01*
X39845059Y13020103D01*
X39855128Y13057679D01*
X39859554Y13068365D01*
X39859555Y13068370D01*
X39867012Y13125000D01*
X39836828Y13125000D01*
X39762328Y13144962D01*
X39718619Y13183294D01*
X39713125Y13190454D01*
X39703282Y13203282D01*
X39632246Y13257790D01*
X39585293Y13318980D01*
X39575226Y13395448D01*
X39604741Y13466705D01*
X39665931Y13513658D01*
X39722951Y13525000D01*
X39867011Y13525000D01*
X39867011Y13525001D01*
X39859557Y13581629D01*
X39854855Y13592980D01*
X39844788Y13669448D01*
X39854855Y13707020D01*
X39859555Y13718369D01*
X39867012Y13775000D01*
X39722951Y13775000D01*
X39648451Y13794962D01*
X39593913Y13849500D01*
X39573951Y13924000D01*
X39593913Y13998500D01*
X39632246Y14042210D01*
X39648209Y14054460D01*
X39703282Y14096718D01*
X39718619Y14116707D01*
X39779809Y14163658D01*
X39836828Y14175000D01*
X39867011Y14175000D01*
X39867011Y14175001D01*
X39859557Y14231629D01*
X39855126Y14242326D01*
X39845059Y14318795D01*
X39855127Y14356368D01*
X39860044Y14368238D01*
X39860044Y14368239D01*
X39860045Y14368241D01*
X39874099Y14475000D01*
X39875500Y14485639D01*
X39875499Y14764360D01*
X39860044Y14881762D01*
X39855125Y14893636D01*
X39845059Y14970103D01*
X39855128Y15007679D01*
X39859554Y15018365D01*
X39859555Y15018370D01*
X39867012Y15075000D01*
X39836828Y15075000D01*
X39762328Y15094962D01*
X39718619Y15133294D01*
X39716816Y15135644D01*
X39703282Y15153282D01*
X39659423Y15186936D01*
X39632246Y15207790D01*
X39585293Y15268980D01*
X39575226Y15345448D01*
X39604741Y15416705D01*
X39665931Y15463658D01*
X39722951Y15475000D01*
X39867011Y15475000D01*
X39867011Y15475001D01*
X39859557Y15531627D01*
X39859554Y15531637D01*
X39854855Y15542982D01*
X39844788Y15619451D01*
X39854856Y15657024D01*
X39859555Y15668370D01*
X39867012Y15725000D01*
X39722951Y15725000D01*
X39648451Y15744962D01*
X39593913Y15799500D01*
X39573951Y15874000D01*
X39593913Y15948500D01*
X39632246Y15992210D01*
X39660828Y16014142D01*
X39703282Y16046718D01*
X39718619Y16066707D01*
X39779809Y16113658D01*
X39836828Y16125000D01*
X39867011Y16125000D01*
X39867011Y16125001D01*
X39859557Y16181629D01*
X39855126Y16192326D01*
X39845059Y16268795D01*
X39855127Y16306368D01*
X39860044Y16318238D01*
X39871460Y16404958D01*
X39900974Y16476211D01*
X39962163Y16523164D01*
X40038631Y16533233D01*
X40109889Y16503718D01*
X40124544Y16490866D01*
X41080859Y15534551D01*
X41119423Y15467756D01*
X41124500Y15429192D01*
X41124500Y9938394D01*
X41148536Y9817553D01*
X41148539Y9817543D01*
X41159662Y9790690D01*
X41159662Y9790688D01*
X41195686Y9703718D01*
X41195689Y9703711D01*
X41217381Y9671249D01*
X41221501Y9665084D01*
X41264142Y9601267D01*
X41264145Y9601264D01*
X41264149Y9601259D01*
X41351269Y9514140D01*
X41351270Y9514140D01*
X41835396Y9030014D01*
X41835403Y9030006D01*
X41839142Y9026267D01*
X41926267Y8939142D01*
X41993071Y8894505D01*
X42028715Y8870688D01*
X42076039Y8851086D01*
X42142548Y8823537D01*
X42183105Y8815470D01*
X42263393Y8799500D01*
X42263394Y8799500D01*
X43394848Y8799500D01*
X43451867Y8788158D01*
X43568240Y8739955D01*
X43632697Y8731470D01*
X43685639Y8724500D01*
X45039360Y8724501D01*
X45156762Y8739956D01*
X45302841Y8800464D01*
X45428282Y8896718D01*
X45524536Y9022159D01*
X45585044Y9168238D01*
X45586598Y9180038D01*
X45595808Y9250002D01*
X45600500Y9285639D01*
X45600500Y9300500D01*
X45620462Y9375000D01*
X45675000Y9429538D01*
X45749500Y9449500D01*
X47384931Y9449500D01*
X47459431Y9429538D01*
X47513969Y9375000D01*
X47526366Y9347371D01*
X47540186Y9305666D01*
X47632288Y9156344D01*
X47756344Y9032288D01*
X47905666Y8940186D01*
X48072203Y8885001D01*
X48174991Y8874500D01*
X48900008Y8874501D01*
X49002797Y8885001D01*
X49169334Y8940186D01*
X49318656Y9032288D01*
X49442712Y9156344D01*
X49534814Y9305666D01*
X49589999Y9472203D01*
X49600500Y9574991D01*
X49600500Y10000000D01*
X50400001Y10000000D01*
X50400001Y9575027D01*
X50410494Y9472304D01*
X50465642Y9305879D01*
X50557680Y9156660D01*
X50681659Y9032681D01*
X50830878Y8940643D01*
X50997302Y8885495D01*
X50997311Y8885493D01*
X51100015Y8875001D01*
X51212499Y8875002D01*
X51212500Y8875002D01*
X51212500Y10000000D01*
X50400001Y10000000D01*
X49600500Y10000000D01*
X49600499Y10925008D01*
X49597945Y10950009D01*
X49596888Y10960360D01*
X49609177Y11036503D01*
X49657891Y11096300D01*
X49729977Y11123729D01*
X49745117Y11124500D01*
X50255386Y11124500D01*
X50329886Y11104538D01*
X50384424Y11050000D01*
X50404386Y10975500D01*
X50403614Y10960356D01*
X50400000Y10924987D01*
X50400000Y10500000D01*
X51563500Y10500000D01*
X51638000Y10480038D01*
X51692538Y10425500D01*
X51712500Y10351000D01*
X51712500Y8875001D01*
X51824974Y8875001D01*
X51927696Y8885495D01*
X52094122Y8940643D01*
X52101987Y8944310D01*
X52103351Y8941384D01*
X52161599Y8958854D01*
X52236657Y8941105D01*
X52292785Y8888205D01*
X52301048Y8872889D01*
X52382894Y8697367D01*
X52382897Y8697362D01*
X52420198Y8644091D01*
X52508402Y8518123D01*
X52663123Y8363402D01*
X52813787Y8257906D01*
X52842361Y8237898D01*
X52842366Y8237895D01*
X52952633Y8186478D01*
X53040670Y8145425D01*
X53252023Y8088793D01*
X53470000Y8069723D01*
X53687977Y8088793D01*
X53899330Y8145425D01*
X54097639Y8237898D01*
X54276877Y8363402D01*
X54431598Y8518123D01*
X54557102Y8697361D01*
X54649575Y8895670D01*
X54684229Y9024999D01*
X55094700Y9024999D01*
X55113865Y8793700D01*
X55113865Y8793697D01*
X55113866Y8793695D01*
X55136444Y8704538D01*
X55170843Y8568699D01*
X55260895Y8363402D01*
X55264076Y8356151D01*
X55391021Y8161847D01*
X55420509Y8129815D01*
X55548218Y7991085D01*
X55548220Y7991083D01*
X55675098Y7892331D01*
X55731374Y7848530D01*
X55935497Y7738064D01*
X56155019Y7662702D01*
X56383951Y7624500D01*
X56383953Y7624500D01*
X56616047Y7624500D01*
X56616049Y7624500D01*
X56844981Y7662702D01*
X57064503Y7738064D01*
X57268626Y7848530D01*
X57451784Y7991087D01*
X57608979Y8161847D01*
X57735924Y8356151D01*
X57829157Y8568700D01*
X57886134Y8793695D01*
X57903691Y9005577D01*
X57905300Y9024999D01*
X57905300Y9025002D01*
X57897055Y9124500D01*
X57886134Y9256305D01*
X57829157Y9481300D01*
X57735924Y9693849D01*
X57608979Y9888153D01*
X57451784Y10058913D01*
X57451783Y10058914D01*
X57451781Y10058916D01*
X57451779Y10058918D01*
X57268630Y10201467D01*
X57268624Y10201471D01*
X57244805Y10214361D01*
X57064503Y10311936D01*
X57006752Y10331762D01*
X56844984Y10387297D01*
X56844983Y10387298D01*
X56844981Y10387298D01*
X56616049Y10425500D01*
X56383951Y10425500D01*
X56155019Y10387298D01*
X56155017Y10387298D01*
X56155015Y10387297D01*
X55935496Y10311936D01*
X55731375Y10201471D01*
X55731369Y10201467D01*
X55548220Y10058918D01*
X55548218Y10058916D01*
X55391023Y9888156D01*
X55391021Y9888154D01*
X55391021Y9888153D01*
X55269423Y9702032D01*
X55264075Y9693847D01*
X55264073Y9693844D01*
X55170843Y9481302D01*
X55113865Y9256301D01*
X55094700Y9025002D01*
X55094700Y9024999D01*
X54684229Y9024999D01*
X54706207Y9107023D01*
X54725277Y9325000D01*
X54706207Y9542977D01*
X54649575Y9754330D01*
X54557102Y9952638D01*
X54526945Y9995707D01*
X54500567Y10068184D01*
X54500000Y10081168D01*
X54500000Y13101000D01*
X54519962Y13175500D01*
X54574500Y13230038D01*
X54649000Y13250000D01*
X55783317Y13250000D01*
X55854232Y13232043D01*
X55935497Y13188064D01*
X56155019Y13112702D01*
X56383951Y13074500D01*
X56383953Y13074500D01*
X56616047Y13074500D01*
X56616049Y13074500D01*
X56844981Y13112702D01*
X57064503Y13188064D01*
X57268626Y13298530D01*
X57446360Y13436865D01*
X57451779Y13441083D01*
X57451781Y13441085D01*
X57451784Y13441087D01*
X57608979Y13611847D01*
X57735924Y13806151D01*
X57829157Y14018700D01*
X57886134Y14243695D01*
X57905300Y14475000D01*
X57904418Y14485639D01*
X57886134Y14706301D01*
X57886134Y14706305D01*
X57829157Y14931300D01*
X57735924Y15143849D01*
X57608979Y15338153D01*
X57451784Y15508913D01*
X57451783Y15508914D01*
X57451781Y15508916D01*
X57451779Y15508918D01*
X57307483Y15621227D01*
X57260953Y15682738D01*
X57250000Y15738809D01*
X57250000Y17050700D01*
X57250718Y17065311D01*
X57251051Y17068691D01*
X57251051Y17076377D01*
X57251052Y17076390D01*
X57251052Y17188234D01*
X57251100Y17188417D01*
X57251099Y17260044D01*
X57251099Y17331317D01*
X57251099Y17331322D01*
X57250718Y17335191D01*
X57250000Y17349796D01*
X57250000Y18050700D01*
X57250717Y18065297D01*
X57251051Y18068700D01*
X57251052Y18068704D01*
X57251051Y18150000D01*
X57251051Y18225949D01*
X57251051Y18311606D01*
X57251051Y18318518D01*
X57251000Y18319539D01*
X57251000Y18320745D01*
X57251001Y18331291D01*
X57219288Y18490751D01*
X57157080Y18640962D01*
X57066766Y18776154D01*
X56951817Y18891132D01*
X56951816Y18891133D01*
X56951815Y18891134D01*
X56853625Y18956765D01*
X56802780Y19014762D01*
X56787746Y19090410D01*
X56788359Y19097295D01*
X56805565Y19250000D01*
X56785368Y19429255D01*
X56725789Y19599522D01*
X56629816Y19752262D01*
X56502262Y19879816D01*
X56349522Y19975789D01*
X56179255Y20035368D01*
X56179254Y20035369D01*
X56179253Y20035369D01*
X56000001Y20055565D01*
X55999999Y20055565D01*
X55820747Y20035369D01*
X55650476Y19975789D01*
X55579272Y19931048D01*
X55505571Y19908314D01*
X55430376Y19925477D01*
X55420728Y19931048D01*
X55349523Y19975789D01*
X55179252Y20035369D01*
X55179253Y20035369D01*
X55000001Y20055565D01*
X54999999Y20055565D01*
X54820747Y20035369D01*
X54650477Y19975789D01*
X54497738Y19879816D01*
X54370180Y19752258D01*
X54353868Y19726298D01*
X54297328Y19673840D01*
X54222133Y19656679D01*
X54180841Y19664138D01*
X54102798Y19689999D01*
X54085665Y19691750D01*
X54000009Y19700500D01*
X54000004Y19700500D01*
X52499996Y19700500D01*
X52397202Y19689999D01*
X52230665Y19634814D01*
X52230662Y19634813D01*
X52142843Y19580645D01*
X52068955Y19558525D01*
X51993906Y19576313D01*
X51959264Y19602104D01*
X51868659Y19692710D01*
X51856031Y19700499D01*
X51719334Y19784814D01*
X51630762Y19814164D01*
X51552798Y19839999D01*
X51535665Y19841750D01*
X51450009Y19850500D01*
X51450004Y19850500D01*
X50049996Y19850500D01*
X49947202Y19839999D01*
X49780666Y19784814D01*
X49631343Y19692712D01*
X49605359Y19666727D01*
X49538564Y19628163D01*
X49461436Y19628163D01*
X49394641Y19666727D01*
X49368656Y19692712D01*
X49356031Y19700499D01*
X49219334Y19784814D01*
X49130762Y19814164D01*
X49052798Y19839999D01*
X49032239Y19842100D01*
X48950009Y19850500D01*
X48950005Y19850500D01*
X47899000Y19850500D01*
X47824500Y19870462D01*
X47769962Y19925000D01*
X47750000Y19999500D01*
X47750000Y20501001D01*
X47769962Y20575501D01*
X47824500Y20630039D01*
X47899000Y20650001D01*
X48000000Y20650001D01*
X48000000Y21475000D01*
X48500000Y21475000D01*
X48500000Y20650001D01*
X48949974Y20650001D01*
X49052696Y20660495D01*
X49219121Y20715643D01*
X49368340Y20807681D01*
X49394641Y20833981D01*
X49461436Y20872545D01*
X49538564Y20872545D01*
X49605359Y20833981D01*
X49631659Y20807681D01*
X49780878Y20715643D01*
X49947302Y20660495D01*
X49947311Y20660493D01*
X50050015Y20650001D01*
X50500000Y20650001D01*
X50500000Y21475000D01*
X48500000Y21475000D01*
X48000000Y21475000D01*
X48000000Y21826000D01*
X48019962Y21900500D01*
X48074500Y21955038D01*
X48149000Y21975000D01*
X50851000Y21975000D01*
X50925500Y21955038D01*
G37*
%TD.AperFunction*%
%TA.AperFunction,Conductor*%
G36*
X25681818Y8000000D02*
G01*
X25525000Y8000000D01*
X25525000Y6850001D01*
X25525001Y6850000D01*
X26350500Y6850000D01*
X26425000Y6830038D01*
X26479538Y6775500D01*
X26499500Y6701000D01*
X26499500Y4638579D01*
X26528341Y4493589D01*
X26584913Y4357011D01*
X26584918Y4357001D01*
X26590617Y4348473D01*
X26596279Y4339999D01*
X26667048Y4234084D01*
X27131798Y3769334D01*
X27580859Y3320274D01*
X27619423Y3253479D01*
X27624500Y3214916D01*
X27624500Y2924997D01*
X27628257Y2888219D01*
X27635001Y2822203D01*
X27675818Y2699025D01*
X27676699Y2696368D01*
X27681184Y2619370D01*
X27646569Y2550446D01*
X27582130Y2508063D01*
X27535262Y2500500D01*
X16622585Y2500500D01*
X16548085Y2520462D01*
X16517226Y2544141D01*
X15544141Y3517227D01*
X15505577Y3584022D01*
X15500500Y3622586D01*
X15500500Y4569367D01*
X15520462Y4643867D01*
X15575000Y4698405D01*
X15649500Y4718367D01*
X15689295Y4711946D01*
X15689349Y4712197D01*
X15694288Y4711140D01*
X15696368Y4710804D01*
X15697302Y4710495D01*
X15697311Y4710493D01*
X15800015Y4700001D01*
X16250000Y4700001D01*
X16250000Y5525000D01*
X16750000Y5525000D01*
X16750000Y4700001D01*
X17199974Y4700001D01*
X17302696Y4710495D01*
X17469121Y4765643D01*
X17618340Y4857681D01*
X17742319Y4981660D01*
X17834357Y5130879D01*
X17889505Y5297303D01*
X17889507Y5297312D01*
X17899999Y5400011D01*
X17900000Y5400021D01*
X17900000Y5525000D01*
X16750000Y5525000D01*
X16250000Y5525000D01*
X16250000Y6850000D01*
X16750000Y6850000D01*
X16750000Y6025000D01*
X17899999Y6025000D01*
X17899999Y6149974D01*
X17889505Y6252697D01*
X17834357Y6419122D01*
X17742319Y6568341D01*
X17618340Y6692320D01*
X17469121Y6784358D01*
X17302697Y6839506D01*
X17302688Y6839508D01*
X17199989Y6850000D01*
X16750000Y6850000D01*
X16250000Y6850000D01*
X16250000Y7500501D01*
X16269962Y7575001D01*
X16324500Y7629539D01*
X16399000Y7649501D01*
X17200004Y7649501D01*
X17200008Y7649501D01*
X17302797Y7660001D01*
X17469334Y7715186D01*
X17618656Y7807288D01*
X17742228Y7930861D01*
X17809020Y7969423D01*
X17847585Y7974500D01*
X17902414Y7974500D01*
X17976914Y7954538D01*
X18007773Y7930859D01*
X18149162Y7789471D01*
X18271584Y7667049D01*
X18327722Y7629539D01*
X18394503Y7584917D01*
X18394504Y7584917D01*
X18394505Y7584916D01*
X18418442Y7575001D01*
X18451765Y7561198D01*
X18512955Y7514246D01*
X18542471Y7442989D01*
X18532404Y7366521D01*
X18527584Y7357188D01*
X18527842Y7357063D01*
X18524212Y7349526D01*
X18464631Y7179253D01*
X18444435Y7000002D01*
X18444435Y6999999D01*
X18464631Y6820748D01*
X18464631Y6820746D01*
X18464632Y6820745D01*
X18524211Y6650478D01*
X18593621Y6540012D01*
X18601662Y6527216D01*
X18624396Y6453515D01*
X18624500Y6447943D01*
X18624500Y6188389D01*
X18629473Y6163392D01*
X18648536Y6067553D01*
X18648540Y6067539D01*
X18661864Y6035375D01*
X18661865Y6035369D01*
X18661866Y6035369D01*
X18688658Y5970686D01*
X18700000Y5913667D01*
X18700000Y4557758D01*
X18699063Y4541075D01*
X18694435Y4500001D01*
X18694435Y4499999D01*
X18714631Y4320748D01*
X18714631Y4320746D01*
X18714632Y4320745D01*
X18774211Y4150478D01*
X18870184Y3997738D01*
X18997738Y3870184D01*
X19150478Y3774211D01*
X19320745Y3714632D01*
X19359128Y3710308D01*
X19430924Y3682131D01*
X19447806Y3667604D01*
X19760396Y3355014D01*
X19760403Y3355006D01*
X19764142Y3351267D01*
X19851267Y3264142D01*
X19851270Y3264140D01*
X19953706Y3195694D01*
X19953710Y3195692D01*
X19953714Y3195689D01*
X19953715Y3195689D01*
X19953718Y3195687D01*
X19975898Y3186500D01*
X20067548Y3148537D01*
X20127971Y3136519D01*
X20188393Y3124500D01*
X20188394Y3124500D01*
X20188397Y3124500D01*
X21811603Y3124500D01*
X21811607Y3124500D01*
X21872029Y3136519D01*
X21932452Y3148537D01*
X21965792Y3162348D01*
X22046286Y3195688D01*
X22097505Y3229913D01*
X22097509Y3229915D01*
X22148727Y3264138D01*
X22148730Y3264140D01*
X22148733Y3264142D01*
X22235858Y3351267D01*
X22235858Y3351269D01*
X22244344Y3359754D01*
X22244350Y3359761D01*
X23890239Y5005650D01*
X23890246Y5005656D01*
X23898731Y5014142D01*
X23898733Y5014142D01*
X23985858Y5101267D01*
X23988927Y5105860D01*
X24037253Y5178185D01*
X24037256Y5178190D01*
X24045842Y5191041D01*
X24054312Y5203715D01*
X24093987Y5299500D01*
X24101463Y5317548D01*
X24125500Y5438394D01*
X24125500Y6447943D01*
X24145462Y6522443D01*
X24148338Y6527216D01*
X24156376Y6540008D01*
X24225789Y6650478D01*
X24285368Y6820745D01*
X24291510Y6875259D01*
X24319688Y6947055D01*
X24379989Y6995144D01*
X24456255Y7006639D01*
X24517794Y6985393D01*
X24630878Y6915643D01*
X24797302Y6860495D01*
X24797311Y6860493D01*
X24900015Y6850001D01*
X25024999Y6850001D01*
X25025000Y6850002D01*
X25025000Y8351000D01*
X25044962Y8425500D01*
X25099500Y8480038D01*
X25174000Y8500000D01*
X25590909Y8500000D01*
X25681818Y8000000D01*
G37*
%TD.AperFunction*%
%TA.AperFunction,Conductor*%
G36*
X32700500Y11230038D02*
G01*
X32755038Y11175500D01*
X32775000Y11101000D01*
X32775000Y9600001D01*
X32899974Y9600001D01*
X33002696Y9610495D01*
X33169121Y9665643D01*
X33269923Y9727817D01*
X33343811Y9749937D01*
X33348144Y9750000D01*
X34575500Y9750000D01*
X34650000Y9730038D01*
X34704538Y9675500D01*
X34724500Y9601000D01*
X34724500Y9482773D01*
X34716139Y9433562D01*
X34714632Y9429258D01*
X34714632Y9429255D01*
X34694435Y9250002D01*
X34694435Y9250000D01*
X34714631Y9070748D01*
X34714631Y9070746D01*
X34714632Y9070745D01*
X34774211Y8900478D01*
X34870184Y8747738D01*
X34997738Y8620184D01*
X35150478Y8524211D01*
X35320745Y8464632D01*
X35410372Y8454534D01*
X35499999Y8444435D01*
X35500000Y8444435D01*
X35500001Y8444435D01*
X35568544Y8452158D01*
X35679255Y8464632D01*
X35849522Y8524211D01*
X35896226Y8553557D01*
X35969928Y8576292D01*
X36045122Y8559130D01*
X36101661Y8506670D01*
X36124396Y8432968D01*
X36124500Y8427396D01*
X36124500Y7449500D01*
X36104538Y7375000D01*
X36050000Y7320462D01*
X35975500Y7300500D01*
X35472496Y7300500D01*
X35369702Y7289999D01*
X35203166Y7234814D01*
X35053840Y7142710D01*
X35053659Y7142566D01*
X35053488Y7142493D01*
X35046458Y7138156D01*
X35045822Y7139187D01*
X34982837Y7112021D01*
X34906231Y7120979D01*
X34876156Y7138343D01*
X34876042Y7138156D01*
X34869641Y7142105D01*
X34868841Y7142566D01*
X34868659Y7142710D01*
X34845786Y7156818D01*
X34719334Y7234814D01*
X34596552Y7275500D01*
X34552798Y7289999D01*
X34535665Y7291750D01*
X34450009Y7300500D01*
X34450004Y7300500D01*
X33049996Y7300500D01*
X32947202Y7289999D01*
X32780666Y7234814D01*
X32631343Y7142712D01*
X32580359Y7091727D01*
X32513564Y7053163D01*
X32436436Y7053163D01*
X32369641Y7091727D01*
X32343656Y7117712D01*
X32338359Y7120979D01*
X32194334Y7209814D01*
X32073058Y7250001D01*
X32027798Y7264999D01*
X32007239Y7267100D01*
X31925009Y7275500D01*
X31925005Y7275500D01*
X30899000Y7275500D01*
X30824500Y7295462D01*
X30769962Y7350000D01*
X30750000Y7424500D01*
X30750000Y7876915D01*
X30769962Y7951415D01*
X30793638Y7982271D01*
X31582952Y8771585D01*
X31623955Y8832951D01*
X31665084Y8894505D01*
X31679802Y8930038D01*
X31699858Y8978456D01*
X31708989Y9000500D01*
X31721659Y9031088D01*
X31750500Y9176083D01*
X31750500Y9323918D01*
X31750500Y9502505D01*
X31770462Y9577005D01*
X31825000Y9631543D01*
X31899500Y9651505D01*
X31946369Y9643942D01*
X32047306Y9610494D01*
X32047311Y9610493D01*
X32150015Y9600001D01*
X32274999Y9600001D01*
X32275000Y9600002D01*
X32275000Y11101000D01*
X32294962Y11175500D01*
X32349500Y11230038D01*
X32424000Y11250000D01*
X32626000Y11250000D01*
X32700500Y11230038D01*
G37*
%TD.AperFunction*%
%TA.AperFunction,Conductor*%
G36*
X43075500Y19604538D02*
G01*
X43130038Y19550000D01*
X43150000Y19475500D01*
X43150000Y16885649D01*
X43141224Y16841533D01*
X43142483Y16841195D01*
X43139955Y16831762D01*
X43124500Y16714366D01*
X43124500Y16435644D01*
X43139956Y16318236D01*
X43139957Y16318233D01*
X43144602Y16307019D01*
X43154669Y16230551D01*
X43144605Y16192987D01*
X43139954Y16181760D01*
X43124500Y16064366D01*
X43124500Y15785644D01*
X43139956Y15668236D01*
X43139957Y15668233D01*
X43144602Y15657019D01*
X43154669Y15580551D01*
X43144605Y15542987D01*
X43139954Y15531760D01*
X43124500Y15414366D01*
X43124500Y15135644D01*
X43139956Y15018236D01*
X43139957Y15018233D01*
X43144602Y15007019D01*
X43154669Y14930551D01*
X43144605Y14892987D01*
X43139954Y14881760D01*
X43124500Y14764366D01*
X43124500Y14485644D01*
X43133531Y14417045D01*
X43139956Y14368238D01*
X43144871Y14356371D01*
X43144874Y14356366D01*
X43154941Y14279898D01*
X43144875Y14242329D01*
X43140444Y14231633D01*
X43140444Y14231632D01*
X43132988Y14175000D01*
X43163172Y14175000D01*
X43237672Y14155038D01*
X43281380Y14116707D01*
X43296718Y14096718D01*
X43296721Y14096716D01*
X43296724Y14096713D01*
X43301291Y14093208D01*
X43348243Y14032018D01*
X43358309Y13955549D01*
X43328792Y13884293D01*
X43301291Y13856792D01*
X43296724Y13853288D01*
X43296718Y13853282D01*
X43289333Y13843657D01*
X43281381Y13833294D01*
X43220191Y13786342D01*
X43163172Y13775000D01*
X43132988Y13775000D01*
X43140442Y13718373D01*
X43140444Y13718367D01*
X43144873Y13707675D01*
X43154940Y13631206D01*
X43144874Y13593637D01*
X43139955Y13581762D01*
X43124500Y13464366D01*
X43124500Y13185644D01*
X43139956Y13068236D01*
X43139957Y13068233D01*
X43144602Y13057019D01*
X43154669Y12980551D01*
X43144605Y12942987D01*
X43139954Y12931760D01*
X43124500Y12814366D01*
X43124500Y12535644D01*
X43139956Y12418236D01*
X43139957Y12418233D01*
X43144602Y12407019D01*
X43154669Y12330551D01*
X43144605Y12292987D01*
X43139954Y12281760D01*
X43124500Y12164366D01*
X43124500Y11885644D01*
X43139956Y11768236D01*
X43139957Y11768233D01*
X43144602Y11757019D01*
X43154669Y11680551D01*
X43144605Y11642987D01*
X43139954Y11631760D01*
X43124500Y11514366D01*
X43124500Y11235644D01*
X43139956Y11118236D01*
X43139957Y11118233D01*
X43144602Y11107019D01*
X43154669Y11030551D01*
X43144605Y10992987D01*
X43139954Y10981760D01*
X43124500Y10864366D01*
X43124500Y10585644D01*
X43139956Y10468236D01*
X43139957Y10468233D01*
X43144602Y10457019D01*
X43154669Y10380551D01*
X43144605Y10342987D01*
X43139954Y10331760D01*
X43124500Y10214366D01*
X43124500Y10199500D01*
X43104538Y10125000D01*
X43050000Y10070462D01*
X42975500Y10050500D01*
X42645808Y10050500D01*
X42571308Y10070462D01*
X42540449Y10094141D01*
X42419141Y10215449D01*
X42380577Y10282244D01*
X42375500Y10320808D01*
X42375500Y15811606D01*
X42374732Y15815464D01*
X42374728Y15815485D01*
X42366797Y15855359D01*
X42356947Y15904880D01*
X42351463Y15932452D01*
X42329342Y15985857D01*
X42326777Y15992049D01*
X42310781Y16030667D01*
X42304312Y16046286D01*
X42304025Y16046716D01*
X42263441Y16107453D01*
X42235860Y16148730D01*
X42235858Y16148733D01*
X42148733Y16235858D01*
X42145001Y16239590D01*
X42144986Y16239604D01*
X40893641Y17490949D01*
X40855077Y17557744D01*
X40850000Y17596308D01*
X40850000Y19403692D01*
X40869962Y19478192D01*
X40893639Y19509049D01*
X40965451Y19580860D01*
X41032246Y19619423D01*
X41070809Y19624500D01*
X43001000Y19624500D01*
X43075500Y19604538D01*
G37*
%TD.AperFunction*%
%TA.AperFunction,Conductor*%
G36*
X37243562Y22991639D02*
G01*
X37291432Y22974889D01*
X37320745Y22964632D01*
X37359128Y22960308D01*
X37430924Y22932131D01*
X37447805Y22917605D01*
X38101267Y22264142D01*
X38101270Y22264140D01*
X38203711Y22195690D01*
X38203713Y22195689D01*
X38203715Y22195688D01*
X38261792Y22171632D01*
X38317548Y22148537D01*
X38337595Y22144550D01*
X38337596Y22144549D01*
X38337597Y22144549D01*
X38438394Y22124499D01*
X38438395Y22124499D01*
X38568956Y22124499D01*
X38568976Y22124500D01*
X39429192Y22124500D01*
X39503692Y22104538D01*
X39534551Y22080859D01*
X39706359Y21909051D01*
X39744923Y21842256D01*
X39750000Y21803692D01*
X39750000Y20196309D01*
X39730038Y20121809D01*
X39706359Y20090950D01*
X39534551Y19919141D01*
X39467756Y19880577D01*
X39429192Y19875500D01*
X38780500Y19875500D01*
X38706000Y19895462D01*
X38651462Y19950000D01*
X38631500Y20024500D01*
X38631500Y21001634D01*
X38631499Y21001642D01*
X38618564Y21066668D01*
X38598085Y21169624D01*
X38532541Y21327863D01*
X38437385Y21470274D01*
X38316274Y21591385D01*
X38242801Y21640478D01*
X38173864Y21686541D01*
X38173862Y21686542D01*
X38015625Y21752085D01*
X38015623Y21752086D01*
X37847641Y21785500D01*
X37847638Y21785500D01*
X37823606Y21785500D01*
X37715949Y21785500D01*
X37640000Y21785500D01*
X37554362Y21785500D01*
X37554358Y21785500D01*
X37386376Y21752086D01*
X37386374Y21752085D01*
X37228137Y21686542D01*
X37228136Y21686542D01*
X37173779Y21650221D01*
X37100744Y21625430D01*
X37025098Y21640478D01*
X37008221Y21650221D01*
X36953862Y21686542D01*
X36795625Y21752085D01*
X36795623Y21752086D01*
X36627641Y21785500D01*
X36627638Y21785500D01*
X36603606Y21785500D01*
X36495949Y21785500D01*
X36420000Y21785500D01*
X36334362Y21785500D01*
X36334358Y21785500D01*
X36166376Y21752086D01*
X36166374Y21752085D01*
X36008137Y21686542D01*
X36008135Y21686541D01*
X35865727Y21591386D01*
X35865722Y21591382D01*
X35744618Y21470278D01*
X35744614Y21470273D01*
X35649459Y21327865D01*
X35649458Y21327863D01*
X35583915Y21169626D01*
X35583914Y21169624D01*
X35550500Y21001642D01*
X35550500Y20115460D01*
X35530538Y20040960D01*
X35476000Y19986422D01*
X35401500Y19966460D01*
X35352289Y19974821D01*
X35179252Y20035369D01*
X35179253Y20035369D01*
X35000001Y20055565D01*
X34999999Y20055565D01*
X34820747Y20035369D01*
X34650477Y19975789D01*
X34497738Y19879816D01*
X34370184Y19752262D01*
X34274211Y19599523D01*
X34214632Y19429254D01*
X34209129Y19380419D01*
X34180950Y19308623D01*
X34120648Y19260535D01*
X34044381Y19249041D01*
X34011855Y19256465D01*
X33929253Y19285369D01*
X33750001Y19305565D01*
X33749999Y19305565D01*
X33570747Y19285369D01*
X33400477Y19225789D01*
X33247738Y19129816D01*
X33120184Y19002262D01*
X33024211Y18849523D01*
X32964631Y18679253D01*
X32948076Y18532317D01*
X32919898Y18460521D01*
X32859597Y18412432D01*
X32800013Y18400000D01*
X32775000Y18400000D01*
X32775000Y14399000D01*
X32755038Y14324500D01*
X32700500Y14269962D01*
X32626000Y14250000D01*
X31450001Y14250000D01*
X31450001Y14049000D01*
X31430039Y13974500D01*
X31375501Y13919962D01*
X31301001Y13900000D01*
X30767091Y13900000D01*
X30748431Y13905000D01*
X27952704Y13905000D01*
X27952899Y13902512D01*
X27956369Y13890570D01*
X27957984Y13813459D01*
X27920828Y13745871D01*
X27854855Y13705916D01*
X27813285Y13700000D01*
X25686715Y13700000D01*
X25612215Y13719962D01*
X25557677Y13774500D01*
X25537715Y13849000D01*
X25543631Y13890570D01*
X25547100Y13902512D01*
X25547296Y13905000D01*
X24074000Y13905000D01*
X23999500Y13924962D01*
X23944962Y13979500D01*
X23925000Y14054000D01*
X23925000Y14955000D01*
X24425000Y14955000D01*
X24425000Y14405000D01*
X25547296Y14405000D01*
X25547296Y14405001D01*
X27952703Y14405001D01*
X27952704Y14405000D01*
X29075000Y14405000D01*
X29075000Y14955000D01*
X29575000Y14955000D01*
X29575000Y14405000D01*
X30697296Y14405000D01*
X30697296Y14405001D01*
X30697100Y14407489D01*
X30651281Y14565197D01*
X30651281Y14565198D01*
X30567683Y14706555D01*
X30567681Y14706558D01*
X30524239Y14750000D01*
X31450000Y14750000D01*
X32275000Y14750000D01*
X32275000Y16750000D01*
X31450001Y16750000D01*
X31450001Y16300027D01*
X31460494Y16197304D01*
X31515642Y16030879D01*
X31607680Y15881660D01*
X31633981Y15855359D01*
X31672545Y15788564D01*
X31672545Y15711436D01*
X31633981Y15644641D01*
X31607680Y15618341D01*
X31515642Y15469122D01*
X31460494Y15302698D01*
X31460492Y15302689D01*
X31450000Y15199990D01*
X31450000Y14750000D01*
X30524239Y14750000D01*
X30451557Y14822682D01*
X30451554Y14822684D01*
X30310197Y14906282D01*
X30152493Y14952100D01*
X30152494Y14952100D01*
X30115634Y14955000D01*
X29575000Y14955000D01*
X29075000Y14955000D01*
X28534365Y14955000D01*
X28497506Y14952100D01*
X28339803Y14906282D01*
X28339802Y14906282D01*
X28198445Y14822684D01*
X28198442Y14822682D01*
X28082318Y14706558D01*
X28082316Y14706555D01*
X27998718Y14565198D01*
X27998718Y14565197D01*
X27952899Y14407489D01*
X27952703Y14405001D01*
X25547296Y14405001D01*
X25547100Y14407489D01*
X25501281Y14565197D01*
X25501281Y14565198D01*
X25417683Y14706555D01*
X25417681Y14706558D01*
X25301557Y14822682D01*
X25301554Y14822684D01*
X25160197Y14906282D01*
X25002493Y14952100D01*
X25002494Y14952100D01*
X24965634Y14955000D01*
X24425000Y14955000D01*
X23925000Y14955000D01*
X23925000Y14968647D01*
X23905077Y15003154D01*
X23900000Y15041718D01*
X23900000Y15225500D01*
X23919962Y15300000D01*
X23974500Y15354538D01*
X24049000Y15374500D01*
X29811607Y15374500D01*
X29902498Y15392579D01*
X29932452Y15398537D01*
X29975806Y15416495D01*
X30039998Y15443084D01*
X30080327Y15453486D01*
X30179255Y15464632D01*
X30349522Y15524211D01*
X30502262Y15620184D01*
X30629816Y15747738D01*
X30725789Y15900478D01*
X30785368Y16070745D01*
X30805565Y16250000D01*
X30803447Y16268795D01*
X30788607Y16400510D01*
X30785368Y16429255D01*
X30725789Y16599522D01*
X30629816Y16752262D01*
X30502262Y16879816D01*
X30349522Y16975789D01*
X30179255Y17035368D01*
X30179254Y17035369D01*
X30179253Y17035369D01*
X30000001Y17055565D01*
X29999999Y17055565D01*
X29820746Y17035369D01*
X29723210Y17001239D01*
X29646297Y16995476D01*
X29576808Y17028941D01*
X29533360Y17092667D01*
X29524999Y17141879D01*
X29525000Y17250000D01*
X31450000Y17250000D01*
X32275000Y17250000D01*
X32275000Y18400000D01*
X32150026Y18400000D01*
X32047303Y18389506D01*
X31880878Y18334358D01*
X31731659Y18242320D01*
X31607680Y18118341D01*
X31515642Y17969122D01*
X31460494Y17802698D01*
X31460492Y17802689D01*
X31450000Y17699990D01*
X31450000Y17250000D01*
X29525000Y17250000D01*
X27600000Y17250000D01*
X26749500Y17250000D01*
X26675000Y17269962D01*
X26620462Y17324500D01*
X26600500Y17399000D01*
X26600500Y17750000D01*
X27400000Y17750000D01*
X28212500Y17750000D01*
X28212500Y18875000D01*
X28212499Y18875001D01*
X28100026Y18875000D01*
X27997303Y18864506D01*
X27830878Y18809358D01*
X27681659Y18717320D01*
X27557680Y18593341D01*
X27465642Y18444122D01*
X27410494Y18277698D01*
X27410492Y18277689D01*
X27400000Y18174990D01*
X27400000Y17750000D01*
X26600500Y17750000D01*
X26600499Y18175004D01*
X26600499Y18175008D01*
X26589999Y18277797D01*
X26534814Y18444334D01*
X26442712Y18593656D01*
X26393641Y18642727D01*
X26355077Y18709522D01*
X26350000Y18748086D01*
X26350000Y19125500D01*
X26369962Y19200000D01*
X26424500Y19254538D01*
X26499000Y19274500D01*
X28279192Y19274500D01*
X28353692Y19254538D01*
X28384551Y19230859D01*
X28668859Y18946551D01*
X28707423Y18879756D01*
X28712500Y18841192D01*
X28712500Y17750000D01*
X29524999Y17750000D01*
X29524999Y17976196D01*
X29544961Y18050696D01*
X29599499Y18105234D01*
X29673999Y18125196D01*
X29688180Y18124499D01*
X29688394Y18124499D01*
X29818956Y18124499D01*
X29818976Y18124500D01*
X30311607Y18124500D01*
X30414428Y18144952D01*
X30432452Y18148537D01*
X30465792Y18162348D01*
X30496358Y18175008D01*
X30546277Y18195684D01*
X30546278Y18195685D01*
X30546286Y18195688D01*
X30616620Y18242685D01*
X30648733Y18264142D01*
X30735858Y18351267D01*
X30735859Y18351269D01*
X30744344Y18359754D01*
X30744350Y18359761D01*
X31140239Y18755650D01*
X31140246Y18755656D01*
X31148731Y18764141D01*
X31148733Y18764142D01*
X31235858Y18851267D01*
X31287968Y18929255D01*
X31304312Y18953715D01*
X31339755Y19039283D01*
X31351463Y19067548D01*
X31363984Y19130495D01*
X31375500Y19188393D01*
X31375500Y19311607D01*
X31375500Y22179192D01*
X31395462Y22253692D01*
X31419141Y22284551D01*
X31965450Y22830859D01*
X32032245Y22869423D01*
X32070809Y22874500D01*
X34561607Y22874500D01*
X34666414Y22895347D01*
X34682452Y22898537D01*
X34730140Y22918290D01*
X34796286Y22945688D01*
X34839988Y22974890D01*
X34913021Y22999681D01*
X34922767Y23000000D01*
X37194352Y23000000D01*
X37243562Y22991639D01*
G37*
%TD.AperFunction*%
%TA.AperFunction,Conductor*%
G36*
X23925500Y29479538D02*
G01*
X23980038Y29425000D01*
X24000000Y29350500D01*
X24000000Y29078644D01*
X23980038Y29004144D01*
X23925500Y28949606D01*
X23890550Y28940242D01*
X23865000Y28920636D01*
X23865000Y28023012D01*
X23807993Y28055925D01*
X23680826Y28090000D01*
X23549174Y28090000D01*
X23422007Y28055925D01*
X23365000Y28023012D01*
X23365000Y28920636D01*
X23364999Y28920636D01*
X23151512Y28863432D01*
X22937419Y28763598D01*
X22743920Y28628109D01*
X22576888Y28461077D01*
X22467358Y28304652D01*
X22408275Y28255075D01*
X22332318Y28241682D01*
X22259842Y28268062D01*
X22223251Y28304652D01*
X22143693Y28418273D01*
X22113495Y28461401D01*
X21946401Y28628495D01*
X21752830Y28764035D01*
X21538663Y28863903D01*
X21538661Y28863904D01*
X21310409Y28925063D01*
X21075000Y28945659D01*
X20839590Y28925063D01*
X20611340Y28863904D01*
X20611339Y28863904D01*
X20611337Y28863903D01*
X20397171Y28764035D01*
X20397168Y28764034D01*
X20397168Y28764033D01*
X20203596Y28628493D01*
X20036506Y28461403D01*
X19927054Y28305088D01*
X19867970Y28255511D01*
X19792014Y28242118D01*
X19719537Y28268497D01*
X19682946Y28305088D01*
X19603693Y28418273D01*
X19573495Y28461401D01*
X19406401Y28628495D01*
X19212830Y28764035D01*
X18998663Y28863903D01*
X18998661Y28863904D01*
X18770409Y28925063D01*
X18535000Y28945659D01*
X18299590Y28925063D01*
X18071340Y28863904D01*
X18071339Y28863904D01*
X18071337Y28863903D01*
X17857171Y28764035D01*
X17857168Y28764034D01*
X17857168Y28764033D01*
X17663596Y28628493D01*
X17496506Y28461403D01*
X17387054Y28305088D01*
X17327970Y28255511D01*
X17252014Y28242118D01*
X17179537Y28268497D01*
X17142946Y28305088D01*
X17063693Y28418273D01*
X17033495Y28461401D01*
X16866401Y28628495D01*
X16672830Y28764035D01*
X16458663Y28863903D01*
X16458661Y28863904D01*
X16230409Y28925063D01*
X15995000Y28945659D01*
X15759590Y28925063D01*
X15531340Y28863904D01*
X15531339Y28863904D01*
X15531337Y28863903D01*
X15317171Y28764035D01*
X15317168Y28764034D01*
X15317168Y28764033D01*
X15123596Y28628493D01*
X14956503Y28461400D01*
X14846747Y28304652D01*
X14787664Y28255075D01*
X14711707Y28241682D01*
X14639231Y28268062D01*
X14602640Y28304652D01*
X14493108Y28461080D01*
X14326076Y28628112D01*
X14132588Y28763594D01*
X14132579Y28763600D01*
X13918491Y28863431D01*
X13918489Y28863432D01*
X13705000Y28920636D01*
X13705000Y28023012D01*
X13647993Y28055925D01*
X13520826Y28090000D01*
X13389174Y28090000D01*
X13262007Y28055925D01*
X13205000Y28023012D01*
X13205000Y28920636D01*
X13204999Y28920636D01*
X12991512Y28863432D01*
X12777419Y28763598D01*
X12583920Y28628109D01*
X12416888Y28461077D01*
X12307358Y28304652D01*
X12248275Y28255075D01*
X12172318Y28241682D01*
X12099842Y28268062D01*
X12063251Y28304652D01*
X11983693Y28418273D01*
X11953495Y28461401D01*
X11786401Y28628495D01*
X11592830Y28764035D01*
X11378663Y28863903D01*
X11378661Y28863904D01*
X11150409Y28925063D01*
X10915000Y28945659D01*
X10679590Y28925063D01*
X10451340Y28863904D01*
X10451339Y28863904D01*
X10451337Y28863903D01*
X10237171Y28764035D01*
X10237168Y28764034D01*
X10237168Y28764033D01*
X10043596Y28628493D01*
X9876506Y28461403D01*
X9767054Y28305088D01*
X9707970Y28255511D01*
X9632014Y28242118D01*
X9559537Y28268497D01*
X9522946Y28305088D01*
X9443693Y28418273D01*
X9413495Y28461401D01*
X9246401Y28628495D01*
X9052830Y28764035D01*
X8838663Y28863903D01*
X8838661Y28863904D01*
X8610409Y28925063D01*
X8375000Y28945659D01*
X8139590Y28925063D01*
X7911340Y28863904D01*
X7911339Y28863904D01*
X7911337Y28863903D01*
X7697171Y28764035D01*
X7697168Y28764034D01*
X7697168Y28764033D01*
X7503596Y28628493D01*
X7336507Y28461404D01*
X7306307Y28418273D01*
X7200965Y28267829D01*
X7105000Y28062033D01*
X7101096Y28053660D01*
X7039937Y27825410D01*
X7019341Y27590000D01*
X7039937Y27354591D01*
X7066849Y27254151D01*
X7101097Y27126337D01*
X7200965Y26912170D01*
X7336278Y26718924D01*
X7336506Y26718598D01*
X7430923Y26624181D01*
X7469487Y26557386D01*
X7469487Y26480258D01*
X7430923Y26413463D01*
X7377634Y26379216D01*
X7282668Y26343797D01*
X7282666Y26343796D01*
X7167455Y26257548D01*
X7167452Y26257545D01*
X7081204Y26142334D01*
X7081202Y26142330D01*
X7030908Y26007483D01*
X7024500Y25947886D01*
X7024500Y24822587D01*
X7004538Y24748087D01*
X6980859Y24717228D01*
X5767049Y23503418D01*
X5767048Y23503416D01*
X5735333Y23455949D01*
X5728478Y23445690D01*
X5728477Y23445690D01*
X5684921Y23380505D01*
X5684913Y23380490D01*
X5628341Y23243912D01*
X5599500Y23098922D01*
X5599500Y20427216D01*
X5579538Y20352716D01*
X5525000Y20298178D01*
X5450500Y20278216D01*
X5398430Y20287610D01*
X5382373Y20293599D01*
X5322842Y20299999D01*
X5322823Y20300000D01*
X4478553Y20300000D01*
X3178553Y19000000D01*
X4478553Y17700000D01*
X5322823Y17700000D01*
X5322842Y17700002D01*
X5382372Y17706402D01*
X5398425Y17712389D01*
X5475204Y17719723D01*
X5545363Y17687685D01*
X5590104Y17624860D01*
X5599500Y17572785D01*
X5599500Y17173862D01*
X5600000Y17163686D01*
X5600000Y15524500D01*
X5580038Y15450000D01*
X5525500Y15395462D01*
X5451000Y15375500D01*
X2918549Y15375500D01*
X2844049Y15395462D01*
X2799268Y15435208D01*
X2785584Y15453487D01*
X2782546Y15457546D01*
X2782545Y15457547D01*
X2782544Y15457548D01*
X2667333Y15543796D01*
X2667329Y15543798D01*
X2532482Y15594092D01*
X2472885Y15600500D01*
X2472873Y15600500D01*
X399500Y15600500D01*
X325000Y15620462D01*
X270462Y15675000D01*
X250500Y15749500D01*
X250500Y17551000D01*
X270462Y17625500D01*
X325000Y17680038D01*
X399500Y17700000D01*
X1171447Y17700000D01*
X1878554Y17700000D01*
X3771446Y17700000D01*
X2825000Y18646447D01*
X1878554Y17700000D01*
X1171447Y17700000D01*
X2471447Y19000000D01*
X1171447Y20300000D01*
X1878554Y20300000D01*
X2825000Y19353554D01*
X3771446Y20300000D01*
X1878554Y20300000D01*
X1171447Y20300000D01*
X399500Y20300000D01*
X325000Y20319962D01*
X270462Y20374500D01*
X250500Y20449000D01*
X250500Y26128707D01*
X1649500Y26128707D01*
X1681160Y25888219D01*
X1681161Y25888213D01*
X1681162Y25888211D01*
X1743946Y25653900D01*
X1836776Y25429788D01*
X1958064Y25219711D01*
X2105735Y25027262D01*
X2277262Y24855735D01*
X2469711Y24708064D01*
X2679788Y24586776D01*
X2903900Y24493946D01*
X3138211Y24431162D01*
X3138217Y24431162D01*
X3138218Y24431161D01*
X3203600Y24422554D01*
X3378712Y24399500D01*
X3621288Y24399500D01*
X3861789Y24431162D01*
X4096100Y24493946D01*
X4320212Y24586776D01*
X4530289Y24708064D01*
X4722738Y24855735D01*
X4894265Y25027262D01*
X5041936Y25219711D01*
X5163224Y25429788D01*
X5256054Y25653900D01*
X5318838Y25888211D01*
X5350500Y26128712D01*
X5350500Y26371288D01*
X5324222Y26570891D01*
X5318839Y26611782D01*
X5318838Y26611783D01*
X5318838Y26611789D01*
X5256054Y26846100D01*
X5163224Y27070212D01*
X5041936Y27280289D01*
X4894265Y27472738D01*
X4722738Y27644265D01*
X4530289Y27791936D01*
X4398906Y27867790D01*
X4320216Y27913222D01*
X4320214Y27913223D01*
X4320212Y27913224D01*
X4134619Y27990099D01*
X4096103Y28006053D01*
X4096101Y28006054D01*
X4096100Y28006054D01*
X3861789Y28068838D01*
X3861787Y28068839D01*
X3861781Y28068840D01*
X3621293Y28100500D01*
X3621288Y28100500D01*
X3378712Y28100500D01*
X3378706Y28100500D01*
X3138218Y28068840D01*
X2903896Y28006053D01*
X2679783Y27913222D01*
X2469712Y27791937D01*
X2469711Y27791936D01*
X2277262Y27644265D01*
X2277260Y27644264D01*
X2277256Y27644260D01*
X2105740Y27472744D01*
X1958063Y27280288D01*
X1836778Y27070217D01*
X1743947Y26846104D01*
X1681160Y26611782D01*
X1649500Y26371294D01*
X1649500Y26128707D01*
X250500Y26128707D01*
X250500Y26188477D01*
X250501Y26188486D01*
X250501Y26246095D01*
X250705Y26253893D01*
X253112Y26299828D01*
X267893Y26581870D01*
X269523Y26597376D01*
X273769Y26624181D01*
X320289Y26917905D01*
X323532Y26933156D01*
X407524Y27246617D01*
X412340Y27261436D01*
X528640Y27564407D01*
X534983Y27578654D01*
X568411Y27644260D01*
X682314Y27867808D01*
X690091Y27881279D01*
X866854Y28153471D01*
X876012Y28166074D01*
X1080240Y28418273D01*
X1090665Y28429853D01*
X1320147Y28659335D01*
X1331727Y28669760D01*
X1490994Y28798733D01*
X1583928Y28873990D01*
X1596529Y28883146D01*
X1868721Y29059909D01*
X1882192Y29067686D01*
X2171351Y29215020D01*
X2185593Y29221360D01*
X2488564Y29337660D01*
X2503383Y29342476D01*
X2816848Y29426469D01*
X2832095Y29429711D01*
X3152629Y29480478D01*
X3168130Y29482107D01*
X3410595Y29494814D01*
X3496128Y29499296D01*
X3503926Y29499500D01*
X3544170Y29499500D01*
X23851000Y29499500D01*
X23925500Y29479538D01*
G37*
%TD.AperFunction*%
%TA.AperFunction,Conductor*%
G36*
X18785000Y23719367D02*
G01*
X18998486Y23776568D01*
X18998495Y23776572D01*
X19012529Y23783115D01*
X19088485Y23796509D01*
X19160962Y23770130D01*
X19210539Y23711047D01*
X19224500Y23648076D01*
X19224500Y23220808D01*
X19204538Y23146308D01*
X19180859Y23115449D01*
X19034551Y22969141D01*
X18967756Y22930577D01*
X18929192Y22925500D01*
X15438393Y22925500D01*
X15383433Y22914568D01*
X15317550Y22901464D01*
X15317544Y22901462D01*
X15277044Y22884687D01*
X15277045Y22884686D01*
X15203715Y22854313D01*
X15191512Y22846158D01*
X15191500Y22846152D01*
X15101270Y22785861D01*
X15101263Y22785855D01*
X15046773Y22731364D01*
X15014142Y22698733D01*
X15014139Y22698730D01*
X14107953Y21792543D01*
X13234551Y20919141D01*
X13167756Y20880577D01*
X13129192Y20875500D01*
X9438393Y20875500D01*
X9396570Y20867181D01*
X9317550Y20851464D01*
X9317544Y20851462D01*
X9278471Y20835277D01*
X9203719Y20804315D01*
X9203710Y20804310D01*
X9191703Y20796286D01*
X9191702Y20796285D01*
X9101267Y20735858D01*
X9101263Y20735855D01*
X8514145Y20148737D01*
X8514142Y20148733D01*
X8493305Y20117548D01*
X8461486Y20069930D01*
X8445687Y20046285D01*
X8445686Y20046282D01*
X8398539Y19932459D01*
X8398536Y19932449D01*
X8375009Y19814164D01*
X8375005Y19814143D01*
X8374500Y19811606D01*
X8374500Y18913393D01*
X8382236Y18874499D01*
X8382236Y18874498D01*
X8397789Y18796304D01*
X8398536Y18792550D01*
X8398536Y18792549D01*
X8445686Y18678718D01*
X8445690Y18678710D01*
X8467756Y18645687D01*
X8467757Y18645687D01*
X8513481Y18577256D01*
X8514142Y18576267D01*
X8514148Y18576260D01*
X8601269Y18489140D01*
X8601270Y18489140D01*
X9610396Y17480014D01*
X9610403Y17480006D01*
X9614142Y17476267D01*
X9701267Y17389142D01*
X9719990Y17376632D01*
X9762037Y17348537D01*
X9762038Y17348536D01*
X9803710Y17320691D01*
X9803712Y17320690D01*
X9803715Y17320688D01*
X9862630Y17296285D01*
X9917548Y17273537D01*
X9971815Y17262743D01*
X10038393Y17249500D01*
X10038394Y17249500D01*
X12151000Y17249500D01*
X12225500Y17229538D01*
X12280038Y17175000D01*
X12300000Y17100500D01*
X12300000Y15899500D01*
X12280038Y15825000D01*
X12225500Y15770462D01*
X12151000Y15750500D01*
X8972585Y15750500D01*
X8898085Y15770462D01*
X8867226Y15794141D01*
X7144141Y17517227D01*
X7105577Y17584022D01*
X7100500Y17622586D01*
X7100500Y22652416D01*
X7120462Y22726916D01*
X7144137Y22757771D01*
X8042226Y23655861D01*
X8109021Y23694424D01*
X8147585Y23699501D01*
X9272864Y23699501D01*
X9272872Y23699501D01*
X9272879Y23699502D01*
X9276857Y23699715D01*
X9276866Y23699538D01*
X9285500Y23700000D01*
X10843813Y23700000D01*
X10856798Y23699434D01*
X10915000Y23694341D01*
X10973201Y23699434D01*
X10986187Y23700000D01*
X13383813Y23700000D01*
X13396798Y23699434D01*
X13455000Y23694341D01*
X13513201Y23699434D01*
X13526187Y23700000D01*
X15923813Y23700000D01*
X15936798Y23699434D01*
X15995000Y23694341D01*
X16053201Y23699434D01*
X16066187Y23700000D01*
X18275084Y23700000D01*
X18285000Y23711201D01*
X18285000Y24616988D01*
X18342007Y24584075D01*
X18469174Y24550000D01*
X18600826Y24550000D01*
X18727993Y24584075D01*
X18785000Y24616988D01*
X18785000Y23719367D01*
G37*
%TD.AperFunction*%
%TD*%
M02*
