%TF.GenerationSoftware,KiCad,Pcbnew,8.0.2*%
%TF.CreationDate,2024-05-24T16:47:28+07:00*%
%TF.ProjectId,ADC_pHAT,4144435f-7048-4415-942e-6b696361645f,rev?*%
%TF.SameCoordinates,PX5cbead0PY5705d50*%
%TF.FileFunction,Paste,Top*%
%TF.FilePolarity,Positive*%
%FSLAX46Y46*%
G04 Gerber Fmt 4.6, Leading zero omitted, Abs format (unit mm)*
G04 Created by KiCad (PCBNEW 8.0.2) date 2024-05-24 16:47:28*
%MOMM*%
%LPD*%
G01*
G04 APERTURE LIST*
G04 Aperture macros list*
%AMRoundRect*
0 Rectangle with rounded corners*
0 $1 Rounding radius*
0 $2 $3 $4 $5 $6 $7 $8 $9 X,Y pos of 4 corners*
0 Add a 4 corners polygon primitive as box body*
4,1,4,$2,$3,$4,$5,$6,$7,$8,$9,$2,$3,0*
0 Add four circle primitives for the rounded corners*
1,1,$1+$1,$2,$3*
1,1,$1+$1,$4,$5*
1,1,$1+$1,$6,$7*
1,1,$1+$1,$8,$9*
0 Add four rect primitives between the rounded corners*
20,1,$1+$1,$2,$3,$4,$5,0*
20,1,$1+$1,$4,$5,$6,$7,0*
20,1,$1+$1,$6,$7,$8,$9,0*
20,1,$1+$1,$8,$9,$2,$3,0*%
G04 Aperture macros list end*
%ADD10RoundRect,0.250000X-0.325000X-0.650000X0.325000X-0.650000X0.325000X0.650000X-0.325000X0.650000X0*%
%ADD11RoundRect,0.250000X-0.650000X0.325000X-0.650000X-0.325000X0.650000X-0.325000X0.650000X0.325000X0*%
%ADD12RoundRect,0.250000X0.650000X-0.325000X0.650000X0.325000X-0.650000X0.325000X-0.650000X-0.325000X0*%
%ADD13RoundRect,0.250000X0.312500X0.625000X-0.312500X0.625000X-0.312500X-0.625000X0.312500X-0.625000X0*%
%ADD14RoundRect,0.250000X-0.625000X0.312500X-0.625000X-0.312500X0.625000X-0.312500X0.625000X0.312500X0*%
%ADD15RoundRect,0.150000X-0.725000X-0.150000X0.725000X-0.150000X0.725000X0.150000X-0.725000X0.150000X0*%
%ADD16RoundRect,0.100000X-0.637500X-0.100000X0.637500X-0.100000X0.637500X0.100000X-0.637500X0.100000X0*%
%ADD17RoundRect,0.250000X0.325000X0.650000X-0.325000X0.650000X-0.325000X-0.650000X0.325000X-0.650000X0*%
%ADD18RoundRect,0.250000X-0.312500X-0.625000X0.312500X-0.625000X0.312500X0.625000X-0.312500X0.625000X0*%
%ADD19RoundRect,0.250000X0.625000X-0.312500X0.625000X0.312500X-0.625000X0.312500X-0.625000X-0.312500X0*%
%ADD20R,2.350000X0.700000*%
%ADD21R,4.900000X4.800000*%
%ADD22RoundRect,0.250000X-0.700000X0.275000X-0.700000X-0.275000X0.700000X-0.275000X0.700000X0.275000X0*%
%ADD23R,1.000000X0.400000*%
G04 APERTURE END LIST*
D10*
%TO.C,C15*%
X15775000Y20500000D03*
X18725000Y20500000D03*
%TD*%
D11*
%TO.C,C13*%
X27500000Y19475000D03*
X27500000Y16525000D03*
%TD*%
D12*
%TO.C,C9*%
X38750000Y19025000D03*
X38750000Y21975000D03*
%TD*%
%TO.C,C4*%
X46250000Y19025000D03*
X46250000Y21975000D03*
%TD*%
D13*
%TO.C,R3*%
X18712500Y18250000D03*
X15787500Y18250000D03*
%TD*%
D14*
%TO.C,R5*%
X31250000Y21962500D03*
X31250000Y19037500D03*
%TD*%
D15*
%TO.C,U4*%
X22425000Y14405000D03*
X22425000Y13135000D03*
X22425000Y11865000D03*
X22425000Y10595000D03*
X27575000Y10595000D03*
X27575000Y11865000D03*
X27575000Y13135000D03*
X27575000Y14405000D03*
%TD*%
D16*
%TO.C,U2*%
X39637500Y15325000D03*
X39637500Y14675000D03*
X39637500Y14025000D03*
X39637500Y13375000D03*
X39637500Y12725000D03*
X39637500Y12075000D03*
X39637500Y11425000D03*
X39637500Y10775000D03*
X39637500Y10125000D03*
X39637500Y9475000D03*
X39637500Y8825000D03*
X39637500Y8175000D03*
X45362500Y8175000D03*
X45362500Y8825000D03*
X45362500Y9475000D03*
X45362500Y10125000D03*
X45362500Y10775000D03*
X45362500Y11425000D03*
X45362500Y12075000D03*
X45362500Y12725000D03*
X45362500Y13375000D03*
X45362500Y14025000D03*
X45362500Y14675000D03*
X45362500Y15325000D03*
%TD*%
D17*
%TO.C,C11*%
X36475000Y10250000D03*
X33525000Y10250000D03*
%TD*%
%TO.C,C7*%
X36475000Y7750000D03*
X33525000Y7750000D03*
%TD*%
D14*
%TO.C,R8*%
X19750000Y9175000D03*
X19750000Y6250000D03*
%TD*%
D18*
%TO.C,R2*%
X48537500Y15350000D03*
X51462500Y15350000D03*
%TD*%
D12*
%TO.C,C2*%
X57000000Y19025000D03*
X57000000Y21975000D03*
%TD*%
D10*
%TO.C,C8*%
X8275000Y15000000D03*
X11225000Y15000000D03*
%TD*%
D19*
%TO.C,R7*%
X17250000Y6250000D03*
X17250000Y9175000D03*
%TD*%
D17*
%TO.C,C6*%
X36475000Y13750000D03*
X33525000Y13750000D03*
%TD*%
D13*
%TO.C,R9*%
X18962500Y13500000D03*
X16037500Y13500000D03*
%TD*%
D14*
%TO.C,R4*%
X14750000Y9175000D03*
X14750000Y6250000D03*
%TD*%
D20*
%TO.C,J1*%
X1500000Y15000000D03*
D21*
X3075000Y19250000D03*
X3075000Y10750000D03*
%TD*%
D12*
%TO.C,C1*%
X54250000Y19025000D03*
X54250000Y21975000D03*
%TD*%
D14*
%TO.C,R6*%
X33750000Y21962500D03*
X33750000Y19037500D03*
%TD*%
D22*
%TO.C,FB2*%
X49000000Y22075000D03*
X49000000Y18925000D03*
%TD*%
D12*
%TO.C,C10*%
X36250000Y19025000D03*
X36250000Y21975000D03*
%TD*%
%TO.C,C5*%
X41250000Y19025000D03*
X41250000Y21975000D03*
%TD*%
D22*
%TO.C,FB1*%
X51750000Y22075000D03*
X51750000Y18925000D03*
%TD*%
D19*
%TO.C,R1*%
X12250000Y6250000D03*
X12250000Y9175000D03*
%TD*%
D10*
%TO.C,C12*%
X15775000Y16000000D03*
X18725000Y16000000D03*
%TD*%
D11*
%TO.C,C14*%
X31250000Y17225000D03*
X31250000Y14275000D03*
%TD*%
D12*
%TO.C,C3*%
X43750000Y19025000D03*
X43750000Y21975000D03*
%TD*%
D23*
%TO.C,IC1*%
X24500000Y15600000D03*
X24500000Y16250000D03*
X24500000Y16900000D03*
X22500000Y16900000D03*
X22500000Y16250000D03*
X22500000Y15600000D03*
%TD*%
M02*
