%TF.GenerationSoftware,KiCad,Pcbnew,8.0.3-8.0.3-0~ubuntu22.04.1*%
%TF.CreationDate,2024-10-10T17:36:23+02:00*%
%TF.ProjectId,ADC_pHAT_AFE,4144435f-7048-4415-945f-4146452e6b69,rev?*%
%TF.SameCoordinates,PX5cbead0PY5705d50*%
%TF.FileFunction,Component,L1,Top*%
%TF.FilePolarity,Positive*%
%FSLAX46Y46*%
G04 Gerber Fmt 4.6, Leading zero omitted, Abs format (unit mm)*
G04 Created by KiCad (PCBNEW 8.0.3-8.0.3-0~ubuntu22.04.1) date 2024-10-10 17:36:23*
%MOMM*%
%LPD*%
G01*
G04 APERTURE LIST*
%TA.AperFunction,ComponentMain*%
%ADD10C,0.300000*%
%TD*%
%TA.AperFunction,ComponentOutline,Courtyard*%
%ADD11C,0.100000*%
%TD*%
%TA.AperFunction,ComponentPin*%
%ADD12P,0.360000X4X0.000000*%
%TD*%
%TA.AperFunction,ComponentPin*%
%ADD13C,0.100000*%
%TD*%
%TA.AperFunction,ComponentOutline,Footprint*%
%ADD14C,0.100000*%
%TD*%
G04 APERTURE END LIST*
D10*
%TO.C,C15*%
%TO.CFtp,C_0603_1608Metric*%
%TO.CVal,4.7u*%
%TO.CLbN,Capacitor_SMD*%
%TO.CMnt,SMD*%
%TO.CRot,180*%
X28660000Y5250000D03*
D11*
X30139999Y5979999D02*
X30139999Y4520001D01*
X27180001Y4520001D01*
X27180001Y5979999D01*
X30139999Y5979999D01*
D12*
%TO.P,C15,1*%
X29435000Y5250000D03*
D13*
%TO.P,C15,2*%
X27885000Y5250000D03*
%TD*%
D10*
%TO.C,D3*%
%TO.CFtp,D_0603_1608Metric*%
%TO.CVal,D*%
%TO.CLbN,Diode_SMD*%
%TO.CMnt,SMD*%
%TO.CRot,-90*%
X30100000Y13000000D03*
D11*
X30829999Y14479999D02*
X30829999Y11520001D01*
X29370001Y11520001D01*
X29370001Y14479999D01*
X30829999Y14479999D01*
D12*
%TO.P,D3,1,K*%
X30100000Y13787500D03*
D13*
%TO.P,D3,2,A*%
X30100000Y12212500D03*
%TD*%
D10*
%TO.C,C13*%
%TO.CFtp,C_0603_1608Metric*%
%TO.CVal,2.2u*%
%TO.CLbN,Capacitor_SMD*%
%TO.CMnt,SMD*%
%TO.CRot,-90*%
X21750000Y8250000D03*
D11*
X22479999Y9729999D02*
X22479999Y6770001D01*
X21020001Y6770001D01*
X21020001Y9729999D01*
X22479999Y9729999D01*
D12*
%TO.P,C13,1*%
X21750000Y9025000D03*
D13*
%TO.P,C13,2*%
X21750000Y7475000D03*
%TD*%
D10*
%TO.C,R11*%
%TO.CFtp,R_0603_1608Metric*%
%TO.CVal,100*%
%TO.CLbN,Resistor_SMD*%
%TO.CMnt,SMD*%
%TO.CRot,180*%
X24250000Y18750000D03*
D11*
X25729999Y19479999D02*
X25729999Y18020001D01*
X22770001Y18020001D01*
X22770001Y19479999D01*
X25729999Y19479999D01*
D12*
%TO.P,R11,1*%
X25075000Y18750000D03*
D13*
%TO.P,R11,2*%
X23425000Y18750000D03*
%TD*%
D10*
%TO.C,C9*%
%TO.CFtp,C_0603_1608Metric*%
%TO.CVal,100n*%
%TO.CLbN,Capacitor_SMD*%
%TO.CMnt,SMD*%
%TO.CRot,90*%
X33500000Y16250000D03*
D11*
X34229999Y17729999D02*
X34229999Y14770001D01*
X32770001Y14770001D01*
X32770001Y17729999D01*
X34229999Y17729999D01*
D12*
%TO.P,C9,1*%
X33500000Y15475000D03*
D13*
%TO.P,C9,2*%
X33500000Y17025000D03*
%TD*%
D10*
%TO.C,R14*%
%TO.CFtp,R_0603_1608Metric*%
%TO.CVal,100*%
%TO.CLbN,Resistor_SMD*%
%TO.CMnt,SMD*%
%TO.CRot,-90*%
X21500000Y15200000D03*
D11*
X22229999Y16679999D02*
X22229999Y13720001D01*
X20770001Y13720001D01*
X20770001Y16679999D01*
X22229999Y16679999D01*
D12*
%TO.P,R14,1*%
X21500000Y16025000D03*
D13*
%TO.P,R14,2*%
X21500000Y14375000D03*
%TD*%
D10*
%TO.C,C4*%
%TO.CFtp,C_0603_1608Metric*%
%TO.CVal,22uF*%
%TO.CLbN,Capacitor_SMD*%
%TO.CMnt,SMD*%
%TO.CRot,90*%
X43750000Y19500000D03*
D11*
X44479999Y20979999D02*
X44479999Y18020001D01*
X43020001Y18020001D01*
X43020001Y20979999D01*
X44479999Y20979999D01*
D12*
%TO.P,C4,1*%
X43750000Y18725000D03*
D13*
%TO.P,C4,2*%
X43750000Y20275000D03*
%TD*%
D10*
%TO.C,R3*%
%TO.CFtp,R_0603_1608Metric*%
%TO.CVal,87k*%
%TO.CLbN,Resistor_SMD*%
%TO.CMnt,SMD*%
%TO.CRot,90*%
X30160000Y8325000D03*
D11*
X30889999Y9804999D02*
X30889999Y6845001D01*
X29430001Y6845001D01*
X29430001Y9804999D01*
X30889999Y9804999D01*
D12*
%TO.P,R3,1*%
X30160000Y7500000D03*
D13*
%TO.P,R3,2*%
X30160000Y9150000D03*
%TD*%
D10*
%TO.C,D2*%
%TO.CFtp,D_0603_1608Metric*%
%TO.CVal,D*%
%TO.CLbN,Diode_SMD*%
%TO.CMnt,SMD*%
%TO.CRot,90*%
X13000000Y19000000D03*
D11*
X13729999Y20479999D02*
X13729999Y17520001D01*
X12270001Y17520001D01*
X12270001Y20479999D01*
X13729999Y20479999D01*
D12*
%TO.P,D2,1,K*%
X13000000Y18212500D03*
D13*
%TO.P,D2,2,A*%
X13000000Y19787500D03*
%TD*%
D10*
%TO.C,R5*%
%TO.CFtp,R_0603_1608Metric*%
%TO.CVal,1k*%
%TO.CLbN,Resistor_SMD*%
%TO.CMnt,SMD*%
%TO.CRot,0*%
X37750000Y18750000D03*
D11*
X39229999Y19479999D02*
X39229999Y18020001D01*
X36270001Y18020001D01*
X36270001Y19479999D01*
X39229999Y19479999D01*
D12*
%TO.P,R5,1*%
X36925000Y18750000D03*
D13*
%TO.P,R5,2*%
X38575000Y18750000D03*
%TD*%
D10*
%TO.C,U8*%
%TO.CFtp,SOT-23-6*%
%TO.CVal,DAC5571*%
%TO.CLbN,Package_TO_SOT_SMD*%
%TO.CMnt,SMD*%
%TO.CRot,180*%
X23250000Y21250000D03*
D11*
X25299999Y22949999D02*
X25299999Y19550001D01*
X21200001Y19550001D01*
X21200001Y22949999D01*
X25299999Y22949999D01*
D12*
%TO.P,U8,1,VOUT*%
X24387500Y20300000D03*
D13*
%TO.P,U8,2,GND*%
X24387500Y21250000D03*
%TO.P,U8,3,VDD*%
X24387500Y22200000D03*
%TO.P,U8,4,SDA*%
X22112500Y22200000D03*
%TO.P,U8,5,SCL*%
X22112500Y21250000D03*
%TO.P,U8,6,A0*%
X22112500Y20300000D03*
%TD*%
D10*
%TO.C,D1*%
%TO.CFtp,D_0603_1608Metric*%
%TO.CVal,D*%
%TO.CLbN,Diode_SMD*%
%TO.CMnt,SMD*%
%TO.CRot,-90*%
X11500000Y19000000D03*
D11*
X12229999Y20479999D02*
X12229999Y17520001D01*
X10770001Y17520001D01*
X10770001Y20479999D01*
X12229999Y20479999D01*
D12*
%TO.P,D1,1,K*%
X11500000Y19787500D03*
D13*
%TO.P,D1,2,A*%
X11500000Y18212500D03*
%TD*%
D10*
%TO.C,U3*%
%TO.CFtp,WSON-12-1EP_3x2mm_P0.5mm_EP1x2.65_ThermalVias*%
%TO.CVal,LM27762*%
%TO.CLbN,Package_SON*%
%TO.CMnt,SMD*%
%TO.CRot,90*%
X27500000Y8250000D03*
D11*
X29249999Y9699999D02*
X29249999Y6800001D01*
X25750001Y6800001D01*
X25750001Y9699999D01*
X29249999Y9699999D01*
D12*
%TO.P,U3,1,PGOOD*%
X26250000Y7300000D03*
D13*
%TO.P,U3,2,FB+*%
X26750000Y7300000D03*
%TO.P,U3,3,VIN*%
X27250000Y7300000D03*
%TO.P,U3,4,GND*%
X27750000Y7300000D03*
%TO.P,U3,5,CP*%
X28250000Y7300000D03*
%TO.P,U3,6,OUT-*%
X28750000Y7300000D03*
%TO.P,U3,7,FB-*%
X28750000Y9200000D03*
%TO.P,U3,8,EN-*%
X28250000Y9200000D03*
%TO.P,U3,9,C-*%
X27750000Y9200000D03*
%TO.P,U3,10,C+*%
X27250000Y9200000D03*
%TO.P,U3,11,OUT+*%
X26750000Y9200000D03*
%TO.P,U3,12,EN+*%
X26250000Y9200000D03*
%TO.P,U3,13,PAD*%
X26500000Y8250000D03*
X27500000Y8250000D03*
X27500000Y8250000D03*
X28500000Y8250000D03*
%TD*%
D10*
%TO.C,R19*%
%TO.CFtp,R_0603_1608Metric*%
%TO.CVal,1k*%
%TO.CLbN,Resistor_SMD*%
%TO.CMnt,SMD*%
%TO.CRot,0*%
X15750000Y17000000D03*
D11*
X17229999Y17729999D02*
X17229999Y16270001D01*
X14270001Y16270001D01*
X14270001Y17729999D01*
X17229999Y17729999D01*
D12*
%TO.P,R19,1*%
X14925000Y17000000D03*
D13*
%TO.P,R19,2*%
X16575000Y17000000D03*
%TD*%
D10*
%TO.C,J3*%
%TO.CFtp,AMPHENOL_132357-11-MOD*%
%TO.CVal,Conn_Coaxial*%
%TO.CLbN,ICTAMKY_V8*%
%TO.CMnt,Other*%
%TO.CRot,0*%
X1250000Y15000000D03*
D14*
X75000Y21650000D02*
X75000Y8350000D01*
X5275000Y8350000D01*
X5275000Y21650000D01*
X75000Y21650000D01*
D12*
%TO.P,J3,1,In*%
X1250000Y15000000D03*
D13*
%TO.P,J3,2,Ext*%
X2825000Y19250000D03*
X2825000Y10750000D03*
%TD*%
D10*
%TO.C,U4*%
%TO.CFtp,MSOP-10_3x3mm_P0.5mm*%
%TO.CVal,ADG621*%
%TO.CLbN,Package_SO*%
%TO.CMnt,SMD*%
%TO.CRot,180*%
X13750000Y7250000D03*
D11*
X16929999Y8999999D02*
X16929999Y5500001D01*
X10570001Y5500001D01*
X10570001Y8999999D01*
X16929999Y8999999D01*
D12*
%TO.P,U4,1,S1*%
X15862500Y6250000D03*
D13*
%TO.P,U4,2,D1*%
X15862500Y6750000D03*
%TO.P,U4,3,IN2*%
X15862500Y7250000D03*
%TO.P,U4,4,GND*%
X15862500Y7750000D03*
%TO.P,U4,5,VSS*%
X15862500Y8250000D03*
%TO.P,U4,6,NC*%
X11637500Y8250000D03*
%TO.P,U4,7,S2*%
X11637500Y7750000D03*
%TO.P,U4,8,D2*%
X11637500Y7250000D03*
%TO.P,U4,9,IN1*%
X11637500Y6750000D03*
%TO.P,U4,10,VDD*%
X11637500Y6250000D03*
%TD*%
D10*
%TO.C,C18*%
%TO.CFtp,C_0603_1608Metric*%
%TO.CVal,1p*%
%TO.CLbN,Capacitor_SMD*%
%TO.CMnt,SMD*%
%TO.CRot,0*%
X12250000Y15000000D03*
D11*
X13729999Y15729999D02*
X13729999Y14270001D01*
X10770001Y14270001D01*
X10770001Y15729999D01*
X13729999Y15729999D01*
D12*
%TO.P,C18,1*%
X11475000Y15000000D03*
D13*
%TO.P,C18,2*%
X13025000Y15000000D03*
%TD*%
D10*
%TO.C,U2*%
%TO.CFtp,TSSOP-24_4.4x7.8mm_P0.65mm*%
%TO.CVal,ADC08100CIMTCX/NOPB(TSSOP-24)*%
%TO.CLbN,Package_SO*%
%TO.CMnt,SMD*%
%TO.CRot,0*%
X42500000Y11750000D03*
D11*
X46349999Y15899999D02*
X46349999Y7600001D01*
X38650001Y7600001D01*
X38650001Y15899999D01*
X46349999Y15899999D01*
D12*
%TO.P,U2,1,VA*%
X39637500Y15325000D03*
D13*
%TO.P,U2,2,AGND*%
X39637500Y14675000D03*
%TO.P,U2,3,VRT*%
X39637500Y14025000D03*
%TO.P,U2,4,VA*%
X39637500Y13375000D03*
%TO.P,U2,5,AGND*%
X39637500Y12725000D03*
%TO.P,U2,6,VIN*%
X39637500Y12075000D03*
%TO.P,U2,7,GND*%
X39637500Y11425000D03*
%TO.P,U2,8,AGND*%
X39637500Y10775000D03*
%TO.P,U2,9,VRM*%
X39637500Y10125000D03*
%TO.P,U2,10,VRB*%
X39637500Y9475000D03*
%TO.P,U2,11,AGND*%
X39637500Y8825000D03*
%TO.P,U2,12,VA*%
X39637500Y8175000D03*
%TO.P,U2,13,D7*%
X45362500Y8175000D03*
%TO.P,U2,14,D6*%
X45362500Y8825000D03*
%TO.P,U2,15,D5*%
X45362500Y9475000D03*
%TO.P,U2,16,D4*%
X45362500Y10125000D03*
%TO.P,U2,17,DRGND*%
X45362500Y10775000D03*
%TO.P,U2,18,DRVD*%
X45362500Y11425000D03*
%TO.P,U2,19,D3*%
X45362500Y12075000D03*
%TO.P,U2,20,D2*%
X45362500Y12725000D03*
%TO.P,U2,21,D1*%
X45362500Y13375000D03*
%TO.P,U2,22,D0*%
X45362500Y14025000D03*
%TO.P,U2,23,PD*%
X45362500Y14675000D03*
%TO.P,U2,24,CLK*%
X45362500Y15325000D03*
%TD*%
D10*
%TO.C,R13*%
%TO.CFtp,R_0603_1608Metric*%
%TO.CVal,100*%
%TO.CLbN,Resistor_SMD*%
%TO.CMnt,SMD*%
%TO.CRot,0*%
X27850000Y14000000D03*
D11*
X29329999Y14729999D02*
X29329999Y13270001D01*
X26370001Y13270001D01*
X26370001Y14729999D01*
X29329999Y14729999D01*
D12*
%TO.P,R13,1*%
X27025000Y14000000D03*
D13*
%TO.P,R13,2*%
X28675000Y14000000D03*
%TD*%
D10*
%TO.C,C11*%
%TO.CFtp,C_0603_1608Metric*%
%TO.CVal,100nF*%
%TO.CLbN,Capacitor_SMD*%
%TO.CMnt,SMD*%
%TO.CRot,180*%
X36500000Y10250000D03*
D11*
X37979999Y10979999D02*
X37979999Y9520001D01*
X35020001Y9520001D01*
X35020001Y10979999D01*
X37979999Y10979999D01*
D12*
%TO.P,C11,1*%
X37275000Y10250000D03*
D13*
%TO.P,C11,2*%
X35725000Y10250000D03*
%TD*%
D10*
%TO.C,U10*%
%TO.CFtp,SOT-23*%
%TO.CVal,LM4040DBZ-2.0*%
%TO.CLbN,Package_TO_SOT_SMD*%
%TO.CMnt,SMD*%
%TO.CRot,90*%
X37250000Y21500000D03*
D11*
X38949999Y23419999D02*
X38949999Y19580001D01*
X35550001Y19580001D01*
X35550001Y23419999D01*
X38949999Y23419999D01*
D12*
%TO.P,U10,1,K*%
X36300000Y20562500D03*
D13*
%TO.P,U10,2,A*%
X38200000Y20562500D03*
%TO.P,U10,3,NC*%
X37250000Y22437500D03*
%TD*%
D10*
%TO.C,C7*%
%TO.CFtp,C_0603_1608Metric*%
%TO.CVal,100nF*%
%TO.CLbN,Capacitor_SMD*%
%TO.CMnt,SMD*%
%TO.CRot,180*%
X36500000Y8250000D03*
D11*
X37979999Y8979999D02*
X37979999Y7520001D01*
X35020001Y7520001D01*
X35020001Y8979999D01*
X37979999Y8979999D01*
D12*
%TO.P,C7,1*%
X37275000Y8250000D03*
D13*
%TO.P,C7,2*%
X35725000Y8250000D03*
%TD*%
D10*
%TO.C,R8*%
%TO.CFtp,R_0603_1608Metric*%
%TO.CVal,47*%
%TO.CLbN,Resistor_SMD*%
%TO.CMnt,SMD*%
%TO.CRot,0*%
X19000000Y6000000D03*
D11*
X20479999Y6729999D02*
X20479999Y5270001D01*
X17520001Y5270001D01*
X17520001Y6729999D01*
X20479999Y6729999D01*
D12*
%TO.P,R8,1*%
X18175000Y6000000D03*
D13*
%TO.P,R8,2*%
X19825000Y6000000D03*
%TD*%
D10*
%TO.C,R2*%
%TO.CFtp,R_0603_1608Metric*%
%TO.CVal,10K*%
%TO.CLbN,Resistor_SMD*%
%TO.CMnt,SMD*%
%TO.CRot,0*%
X49250000Y15350000D03*
D11*
X50729999Y16079999D02*
X50729999Y14620001D01*
X47770001Y14620001D01*
X47770001Y16079999D01*
X50729999Y16079999D01*
D12*
%TO.P,R2,1*%
X48425000Y15350000D03*
D13*
%TO.P,R2,2*%
X50075000Y15350000D03*
%TD*%
D10*
%TO.C,C2*%
%TO.CFtp,C_0603_1608Metric*%
%TO.CVal,100nF*%
%TO.CLbN,Capacitor_SMD*%
%TO.CMnt,SMD*%
%TO.CRot,90*%
X50750000Y19500000D03*
D11*
X51479999Y20979999D02*
X51479999Y18020001D01*
X50020001Y18020001D01*
X50020001Y20979999D01*
X51479999Y20979999D01*
D12*
%TO.P,C2,1*%
X50750000Y18725000D03*
D13*
%TO.P,C2,2*%
X50750000Y20275000D03*
%TD*%
D10*
%TO.C,C23*%
%TO.CFtp,C_0603_1608Metric*%
%TO.CVal,160p*%
%TO.CLbN,Capacitor_SMD*%
%TO.CMnt,SMD*%
%TO.CRot,90*%
X29750000Y16250000D03*
D11*
X30479999Y17729999D02*
X30479999Y14770001D01*
X29020001Y14770001D01*
X29020001Y17729999D01*
X30479999Y17729999D01*
D12*
%TO.P,C23,1*%
X29750000Y15475000D03*
D13*
%TO.P,C23,2*%
X29750000Y17025000D03*
%TD*%
D10*
%TO.C,R12*%
%TO.CFtp,R_0603_1608Metric*%
%TO.CVal,680k*%
%TO.CLbN,Resistor_SMD*%
%TO.CMnt,SMD*%
%TO.CRot,0*%
X12250000Y16500000D03*
D11*
X13729999Y17229999D02*
X13729999Y15770001D01*
X10770001Y15770001D01*
X10770001Y17229999D01*
X13729999Y17229999D01*
D12*
%TO.P,R12,1*%
X11425000Y16500000D03*
D13*
%TO.P,R12,2*%
X13075000Y16500000D03*
%TD*%
D10*
%TO.C,C8*%
%TO.CFtp,C_0603_1608Metric*%
%TO.CVal,2.2u*%
%TO.CLbN,Capacitor_SMD*%
%TO.CMnt,SMD*%
%TO.CRot,180*%
X24000000Y5750000D03*
D11*
X25479999Y6479999D02*
X25479999Y5020001D01*
X22520001Y5020001D01*
X22520001Y6479999D01*
X25479999Y6479999D01*
D12*
%TO.P,C8,1*%
X24775000Y5750000D03*
D13*
%TO.P,C8,2*%
X23225000Y5750000D03*
%TD*%
D10*
%TO.C,R18*%
%TO.CFtp,R_0603_1608Metric*%
%TO.CVal,1k*%
%TO.CLbN,Resistor_SMD*%
%TO.CMnt,SMD*%
%TO.CRot,-90*%
X27250000Y16250000D03*
D11*
X27979999Y17729999D02*
X27979999Y14770001D01*
X26520001Y14770001D01*
X26520001Y17729999D01*
X27979999Y17729999D01*
D12*
%TO.P,R18,1*%
X27250000Y17075000D03*
D13*
%TO.P,R18,2*%
X27250000Y15425000D03*
%TD*%
D10*
%TO.C,C21*%
%TO.CFtp,C_0603_1608Metric*%
%TO.CVal,10n*%
%TO.CLbN,Capacitor_SMD*%
%TO.CMnt,SMD*%
%TO.CRot,0*%
X7500000Y15000000D03*
D11*
X8979999Y15729999D02*
X8979999Y14270001D01*
X6020001Y14270001D01*
X6020001Y15729999D01*
X8979999Y15729999D01*
D12*
%TO.P,C21,1*%
X6725000Y15000000D03*
D13*
%TO.P,C21,2*%
X8275000Y15000000D03*
%TD*%
D10*
%TO.C,R7*%
%TO.CFtp,R_0603_1608Metric*%
%TO.CVal,50k*%
%TO.CLbN,Resistor_SMD*%
%TO.CMnt,SMD*%
%TO.CRot,-90*%
X24910000Y8325000D03*
D11*
X25639999Y9804999D02*
X25639999Y6845001D01*
X24180001Y6845001D01*
X24180001Y9804999D01*
X25639999Y9804999D01*
D12*
%TO.P,R7,1*%
X24910000Y9150000D03*
D13*
%TO.P,R7,2*%
X24910000Y7500000D03*
%TD*%
D10*
%TO.C,C22*%
%TO.CFtp,C_0603_1608Metric*%
%TO.CVal,6.8p*%
%TO.CLbN,Capacitor_SMD*%
%TO.CMnt,SMD*%
%TO.CRot,-90*%
X11500000Y12750000D03*
D11*
X12229999Y14229999D02*
X12229999Y11270001D01*
X10770001Y11270001D01*
X10770001Y14229999D01*
X12229999Y14229999D01*
D12*
%TO.P,C22,1*%
X11500000Y13525000D03*
D13*
%TO.P,C22,2*%
X11500000Y11975000D03*
%TD*%
D10*
%TO.C,C17*%
%TO.CFtp,C_0603_1608Metric*%
%TO.CVal,100n*%
%TO.CLbN,Capacitor_SMD*%
%TO.CMnt,SMD*%
%TO.CRot,180*%
X15500000Y11000000D03*
D11*
X16979999Y11729999D02*
X16979999Y10270001D01*
X14020001Y10270001D01*
X14020001Y11729999D01*
X16979999Y11729999D01*
D12*
%TO.P,C17,1*%
X16275000Y11000000D03*
D13*
%TO.P,C17,2*%
X14725000Y11000000D03*
%TD*%
D10*
%TO.C,C20*%
%TO.CFtp,C_0603_1608Metric*%
%TO.CVal,100n*%
%TO.CLbN,Capacitor_SMD*%
%TO.CMnt,SMD*%
%TO.CRot,180*%
X24250000Y12750000D03*
D11*
X25729999Y13479999D02*
X25729999Y12020001D01*
X22770001Y12020001D01*
X22770001Y13479999D01*
X25729999Y13479999D01*
D12*
%TO.P,C20,1*%
X25025000Y12750000D03*
D13*
%TO.P,C20,2*%
X23475000Y12750000D03*
%TD*%
D10*
%TO.C,C6*%
%TO.CFtp,C_0603_1608Metric*%
%TO.CVal,100nF*%
%TO.CLbN,Capacitor_SMD*%
%TO.CMnt,SMD*%
%TO.CRot,180*%
X36500000Y13250000D03*
D11*
X37979999Y13979999D02*
X37979999Y12520001D01*
X35020001Y12520001D01*
X35020001Y13979999D01*
X37979999Y13979999D01*
D12*
%TO.P,C6,1*%
X37275000Y13250000D03*
D13*
%TO.P,C6,2*%
X35725000Y13250000D03*
%TD*%
D10*
%TO.C,R9*%
%TO.CFtp,R_0603_1608Metric*%
%TO.CVal,100*%
%TO.CLbN,Resistor_SMD*%
%TO.CMnt,SMD*%
%TO.CRot,90*%
X9750000Y8500000D03*
D11*
X10479999Y9979999D02*
X10479999Y7020001D01*
X9020001Y7020001D01*
X9020001Y9979999D01*
X10479999Y9979999D01*
D12*
%TO.P,R9,1*%
X9750000Y7675000D03*
D13*
%TO.P,R9,2*%
X9750000Y9325000D03*
%TD*%
D10*
%TO.C,R4*%
%TO.CFtp,R_0603_1608Metric*%
%TO.CVal,50k*%
%TO.CLbN,Resistor_SMD*%
%TO.CMnt,SMD*%
%TO.CRot,90*%
X31660000Y8325000D03*
D11*
X32389999Y9804999D02*
X32389999Y6845001D01*
X30930001Y6845001D01*
X30930001Y9804999D01*
X32389999Y9804999D01*
D12*
%TO.P,R4,1*%
X31660000Y7500000D03*
D13*
%TO.P,R4,2*%
X31660000Y9150000D03*
%TD*%
D10*
%TO.C,J1*%
%TO.CFtp,PinHeader_1x02_P1.00mm_Vertical_SMD_Pin1Left*%
%TO.CVal,Conn_01x02_Male*%
%TO.CLbN,Connector_PinHeader_1.00mm*%
%TO.CMnt,SMD*%
%TO.CRot,180*%
X8250000Y12500000D03*
D11*
X10499999Y13999999D02*
X10499999Y11000001D01*
X6000001Y11000001D01*
X6000001Y13999999D01*
X10499999Y13999999D01*
D12*
%TO.P,J1,1,Pin_1*%
X9125000Y12000000D03*
D13*
%TO.P,J1,2,Pin_2*%
X7375000Y13000000D03*
%TD*%
D10*
%TO.C,C1*%
%TO.CFtp,C_0603_1608Metric*%
%TO.CVal,22uF*%
%TO.CLbN,Capacitor_SMD*%
%TO.CMnt,SMD*%
%TO.CRot,90*%
X49250000Y19500000D03*
D11*
X49979999Y20979999D02*
X49979999Y18020001D01*
X48520001Y18020001D01*
X48520001Y20979999D01*
X49979999Y20979999D01*
D12*
%TO.P,C1,1*%
X49250000Y18725000D03*
D13*
%TO.P,C1,2*%
X49250000Y20275000D03*
%TD*%
D10*
%TO.C,C19*%
%TO.CFtp,C_0603_1608Metric*%
%TO.CVal,100n*%
%TO.CLbN,Capacitor_SMD*%
%TO.CMnt,SMD*%
%TO.CRot,180*%
X19000000Y11000000D03*
D11*
X20479999Y11729999D02*
X20479999Y10270001D01*
X17520001Y10270001D01*
X17520001Y11729999D01*
X20479999Y11729999D01*
D12*
%TO.P,C19,1*%
X19775000Y11000000D03*
D13*
%TO.P,C19,2*%
X18225000Y11000000D03*
%TD*%
D10*
%TO.C,U9*%
%TO.CFtp,SOT-23-5*%
%TO.CVal,TLV271*%
%TO.CLbN,Package_TO_SOT_SMD*%
%TO.CMnt,SMD*%
%TO.CRot,180*%
X36250000Y16250000D03*
D11*
X38299999Y17949999D02*
X38299999Y14550001D01*
X34200001Y14550001D01*
X34200001Y17949999D01*
X38299999Y17949999D01*
D12*
%TO.P,U9,1*%
X37387500Y15300000D03*
D13*
%TO.P,U9,2*%
X37387500Y16250000D03*
%TO.P,U9,3,+*%
X37387500Y17200000D03*
%TO.P,U9,4,-*%
X35112500Y17200000D03*
%TO.P,U9,5*%
X35112500Y15300000D03*
%TD*%
D10*
%TO.C,U6*%
%TO.CFtp,SOT-23-5*%
%TO.CVal,TPH2501*%
%TO.CLbN,Package_TO_SOT_SMD*%
%TO.CMnt,SMD*%
%TO.CRot,-90*%
X15500000Y14000000D03*
D11*
X17199999Y16049999D02*
X17199999Y11950001D01*
X13800001Y11950001D01*
X13800001Y16049999D01*
X17199999Y16049999D01*
D12*
%TO.P,U6,1*%
X16450000Y15137500D03*
D13*
%TO.P,U6,2*%
X15500000Y15137500D03*
%TO.P,U6,3,+*%
X14550000Y15137500D03*
%TO.P,U6,4,-*%
X14550000Y12862500D03*
%TO.P,U6,5*%
X16450000Y12862500D03*
%TD*%
D10*
%TO.C,FB2*%
%TO.CFtp,R_0603_1608Metric*%
%TO.CVal,FerriteBead_Small*%
%TO.CLbN,Resistor_SMD*%
%TO.CMnt,SMD*%
%TO.CRot,-90*%
X45250000Y19500000D03*
D11*
X45979999Y20979999D02*
X45979999Y18020001D01*
X44520001Y18020001D01*
X44520001Y20979999D01*
X45979999Y20979999D01*
D12*
%TO.P,FB2,1*%
X45250000Y20325000D03*
D13*
%TO.P,FB2,2*%
X45250000Y18675000D03*
%TD*%
D10*
%TO.C,R17*%
%TO.CFtp,R_0603_1608Metric*%
%TO.CVal,1k*%
%TO.CLbN,Resistor_SMD*%
%TO.CMnt,SMD*%
%TO.CRot,-90*%
X22000000Y11750000D03*
D11*
X22729999Y13229999D02*
X22729999Y10270001D01*
X21270001Y10270001D01*
X21270001Y13229999D01*
X22729999Y13229999D01*
D12*
%TO.P,R17,1*%
X22000000Y12575000D03*
D13*
%TO.P,R17,2*%
X22000000Y10925000D03*
%TD*%
D10*
%TO.C,C10*%
%TO.CFtp,C_0603_1608Metric*%
%TO.CVal,1u*%
%TO.CLbN,Capacitor_SMD*%
%TO.CMnt,SMD*%
%TO.CRot,90*%
X31750000Y16250000D03*
D11*
X32479999Y17729999D02*
X32479999Y14770001D01*
X31020001Y14770001D01*
X31020001Y17729999D01*
X32479999Y17729999D01*
D12*
%TO.P,C10,1*%
X31750000Y15475000D03*
D13*
%TO.P,C10,2*%
X31750000Y17025000D03*
%TD*%
D10*
%TO.C,C5*%
%TO.CFtp,C_0603_1608Metric*%
%TO.CVal,100nF*%
%TO.CLbN,Capacitor_SMD*%
%TO.CMnt,SMD*%
%TO.CRot,90*%
X40250000Y17250000D03*
D11*
X40979999Y18729999D02*
X40979999Y15770001D01*
X39520001Y15770001D01*
X39520001Y18729999D01*
X40979999Y18729999D01*
D12*
%TO.P,C5,1*%
X40250000Y16475000D03*
D13*
%TO.P,C5,2*%
X40250000Y18025000D03*
%TD*%
D10*
%TO.C,FB1*%
%TO.CFtp,R_0603_1608Metric*%
%TO.CVal,FerriteBead_Small*%
%TO.CLbN,Resistor_SMD*%
%TO.CMnt,SMD*%
%TO.CRot,-90*%
X47750000Y19500000D03*
D11*
X48479999Y20979999D02*
X48479999Y18020001D01*
X47020001Y18020001D01*
X47020001Y20979999D01*
X48479999Y20979999D01*
D12*
%TO.P,FB1,1*%
X47750000Y20325000D03*
D13*
%TO.P,FB1,2*%
X47750000Y18675000D03*
%TD*%
D10*
%TO.C,C16*%
%TO.CFtp,C_0603_1608Metric*%
%TO.CVal,100n*%
%TO.CLbN,Capacitor_SMD*%
%TO.CMnt,SMD*%
%TO.CRot,180*%
X12250000Y21250000D03*
D11*
X13729999Y21979999D02*
X13729999Y20520001D01*
X10770001Y20520001D01*
X10770001Y21979999D01*
X13729999Y21979999D01*
D12*
%TO.P,C16,1*%
X13025000Y21250000D03*
D13*
%TO.P,C16,2*%
X11475000Y21250000D03*
%TD*%
D10*
%TO.C,R10*%
%TO.CFtp,R_0603_1608Metric*%
%TO.CVal,680*%
%TO.CLbN,Resistor_SMD*%
%TO.CMnt,SMD*%
%TO.CRot,0*%
X19000000Y9500000D03*
D11*
X20479999Y10229999D02*
X20479999Y8770001D01*
X17520001Y8770001D01*
X17520001Y10229999D01*
X20479999Y10229999D01*
D12*
%TO.P,R10,1*%
X18175000Y9500000D03*
D13*
%TO.P,R10,2*%
X19825000Y9500000D03*
%TD*%
D10*
%TO.C,R1*%
%TO.CFtp,R_0603_1608Metric*%
%TO.CVal,87k*%
%TO.CLbN,Resistor_SMD*%
%TO.CMnt,SMD*%
%TO.CRot,-90*%
X23410000Y8250000D03*
D11*
X24139999Y9729999D02*
X24139999Y6770001D01*
X22680001Y6770001D01*
X22680001Y9729999D01*
X24139999Y9729999D01*
D12*
%TO.P,R1,1*%
X23410000Y9075000D03*
D13*
%TO.P,R1,2*%
X23410000Y7425000D03*
%TD*%
D10*
%TO.C,C12*%
%TO.CFtp,C_0603_1608Metric*%
%TO.CVal,2.2u*%
%TO.CLbN,Capacitor_SMD*%
%TO.CMnt,SMD*%
%TO.CRot,0*%
X27500000Y12000000D03*
D11*
X28979999Y12729999D02*
X28979999Y11270001D01*
X26020001Y11270001D01*
X26020001Y12729999D01*
X28979999Y12729999D01*
D12*
%TO.P,C12,1*%
X26725000Y12000000D03*
D13*
%TO.P,C12,2*%
X28275000Y12000000D03*
%TD*%
D10*
%TO.C,C25*%
%TO.CFtp,C_0603_1608Metric*%
%TO.CVal,100n*%
%TO.CLbN,Capacitor_SMD*%
%TO.CMnt,SMD*%
%TO.CRot,180*%
X34750000Y18750000D03*
D11*
X36229999Y19479999D02*
X36229999Y18020001D01*
X33270001Y18020001D01*
X33270001Y19479999D01*
X36229999Y19479999D01*
D12*
%TO.P,C25,1*%
X35525000Y18750000D03*
D13*
%TO.P,C25,2*%
X33975000Y18750000D03*
%TD*%
D10*
%TO.C,C14*%
%TO.CFtp,C_0603_1608Metric*%
%TO.CVal,2.2u*%
%TO.CLbN,Capacitor_SMD*%
%TO.CMnt,SMD*%
%TO.CRot,0*%
X31660000Y5825000D03*
D11*
X33139999Y6554999D02*
X33139999Y5095001D01*
X30180001Y5095001D01*
X30180001Y6554999D01*
X33139999Y6554999D01*
D12*
%TO.P,C14,1*%
X30885000Y5825000D03*
D13*
%TO.P,C14,2*%
X32435000Y5825000D03*
%TD*%
D10*
%TO.C,U5*%
%TO.CFtp,SOT-23-5*%
%TO.CVal,OPA830*%
%TO.CLbN,Package_TO_SOT_SMD*%
%TO.CMnt,SMD*%
%TO.CRot,-90*%
X24250000Y15750000D03*
D11*
X25949999Y17799999D02*
X25949999Y13700001D01*
X22550001Y13700001D01*
X22550001Y17799999D01*
X25949999Y17799999D01*
D12*
%TO.P,U5,1*%
X25200000Y16887500D03*
D13*
%TO.P,U5,2*%
X24250000Y16887500D03*
%TO.P,U5,3,+*%
X23300000Y16887500D03*
%TO.P,U5,4,-*%
X23300000Y14612500D03*
%TO.P,U5,5*%
X25200000Y14612500D03*
%TD*%
D10*
%TO.C,C3*%
%TO.CFtp,C_0603_1608Metric*%
%TO.CVal,22uF*%
%TO.CLbN,Capacitor_SMD*%
%TO.CMnt,SMD*%
%TO.CRot,90*%
X42250000Y19500000D03*
D11*
X42979999Y20979999D02*
X42979999Y18020001D01*
X41520001Y18020001D01*
X41520001Y20979999D01*
X42979999Y20979999D01*
D12*
%TO.P,C3,1*%
X42250000Y18725000D03*
D13*
%TO.P,C3,2*%
X42250000Y20275000D03*
%TD*%
D10*
%TO.C,R16*%
%TO.CFtp,R_0603_1608Metric*%
%TO.CVal,100*%
%TO.CLbN,Resistor_SMD*%
%TO.CMnt,SMD*%
%TO.CRot,0*%
X19000000Y8000000D03*
D11*
X20479999Y8729999D02*
X20479999Y7270001D01*
X17520001Y7270001D01*
X17520001Y8729999D01*
X20479999Y8729999D01*
D12*
%TO.P,R16,1*%
X18175000Y8000000D03*
D13*
%TO.P,R16,2*%
X19825000Y8000000D03*
%TD*%
D10*
%TO.C,R15*%
%TO.CFtp,R_0603_1608Metric*%
%TO.CVal,100k*%
%TO.CLbN,Resistor_SMD*%
%TO.CMnt,SMD*%
%TO.CRot,90*%
X13000000Y12750000D03*
D11*
X13729999Y14229999D02*
X13729999Y11270001D01*
X12270001Y11270001D01*
X12270001Y14229999D01*
X13729999Y14229999D01*
D12*
%TO.P,R15,1*%
X13000000Y11925000D03*
D13*
%TO.P,R15,2*%
X13000000Y13575000D03*
%TD*%
D10*
%TO.C,C24*%
%TO.CFtp,C_0603_1608Metric*%
%TO.CVal,100n*%
%TO.CLbN,Capacitor_SMD*%
%TO.CMnt,SMD*%
%TO.CRot,-90*%
X27200000Y21400000D03*
D11*
X27929999Y22879999D02*
X27929999Y19920001D01*
X26470001Y19920001D01*
X26470001Y22879999D01*
X27929999Y22879999D01*
D12*
%TO.P,C24,1*%
X27200000Y22175000D03*
D13*
%TO.P,C24,2*%
X27200000Y20625000D03*
%TD*%
D10*
%TO.C,U7*%
%TO.CFtp,SOT-23-5*%
%TO.CVal,LMH6629*%
%TO.CLbN,Package_TO_SOT_SMD*%
%TO.CMnt,SMD*%
%TO.CRot,-90*%
X19000000Y14000000D03*
D11*
X20699999Y16049999D02*
X20699999Y11950001D01*
X17300001Y11950001D01*
X17300001Y16049999D01*
X20699999Y16049999D01*
D12*
%TO.P,U7,1*%
X19950000Y15137500D03*
D13*
%TO.P,U7,2*%
X19000000Y15137500D03*
%TO.P,U7,3,+*%
X18050000Y15137500D03*
%TO.P,U7,4,-*%
X18050000Y12862500D03*
%TO.P,U7,5*%
X19950000Y12862500D03*
%TD*%
M02*
