M48
; DRILL file {KiCad 8.0.3-8.0.3-0~ubuntu22.04.1} date 2024-10-10T17:35:31+0200
; FORMAT={-:-/ absolute / inch / decimal}
; #@! TF.CreationDate,2024-10-10T17:35:31+02:00
; #@! TF.GenerationSoftware,Kicad,Pcbnew,8.0.3-8.0.3-0~ubuntu22.04.1
; #@! TF.FileFunction,Plated,1,2,PTH
FMAT,2
INCH
; #@! TA.AperFunction,Plated,PTH,ViaDrill
T1C0.0118
; #@! TA.AperFunction,Plated,PTH,ComponentDrill
T2C0.0118
; #@! TA.AperFunction,Plated,PTH,ComponentDrill
T3C0.0394
%
G90
G05
T1
X0.0295Y0.8858
X0.0295Y0.2854
X0.0787Y0.8858
X0.0787Y0.2854
X0.128Y0.8858
X0.128Y0.2854
X0.187Y0.8858
X0.187Y0.2854
X0.2461Y0.8858
X0.2461Y0.8268
X0.2461Y0.7776
X0.2461Y0.7283
X0.2461Y0.6791
X0.2461Y0.2854
X0.2854Y0.187
X0.315Y0.3051
X0.3346Y0.187
X0.4035Y0.2264
X0.4085Y0.6841
X0.4429Y0.1969
X0.4921Y0.187
X0.498Y0.3543
X0.5217Y0.2264
X0.5295Y0.1831
X0.5394Y0.4252
X0.5709Y0.3583
X0.5886Y0.7756
X0.6102Y0.6398
X0.622Y0.189
X0.6398Y0.3839
X0.6772Y0.7795
X0.6791Y0.5512
X0.6791Y0.4035
X0.6791Y0.2264
X0.687Y0.3031
X0.7303Y0.7185
X0.7559Y0.6949
X0.8169Y0.4331
X0.8484Y0.6732
X0.8484Y0.5276
X0.8514Y0.7667
X0.8563Y0.3839
X0.8622Y0.2402
X0.878Y0.9469
X0.9843Y0.9547
X1.0118Y0.4705
X1.0236Y0.3937
X1.0335Y0.2264
X1.0433Y0.7283
X1.063Y0.1772
X1.1122Y0.7559
X1.1201Y0.5984
X1.1319Y0.4035
X1.1732Y0.4311
X1.1791Y0.9331
X1.1874Y0.2618
X1.2205Y0.7657
X1.2303Y0.4311
X1.2382Y0.4823
X1.2677Y0.1634
X1.3071Y0.439
X1.3071Y0.378
X1.3071Y0.3268
X1.3091Y0.5709
X1.3189Y0.7047
X1.3209Y0.5276
X1.3228Y0.2618
X1.3583Y0.5118
X1.3583Y0.437
X1.3583Y0.378
X1.3583Y0.3248
X1.3602Y0.5591
X1.3642Y0.2618
X1.378Y0.1772
X1.4055Y0.2736
X1.437Y0.561
X1.4665Y0.2854
X1.4764Y0.1772
X1.5197Y0.7047
X1.5315Y0.6476
X1.5728Y0.2776
X1.6122Y0.7539
X1.6299Y0.2776
X1.6339Y0.5807
X1.6339Y0.5295
X1.6437Y0.4429
X1.6437Y0.374
X1.6831Y0.1772
X1.7165Y0.3583
X1.7189Y0.4104
X1.7815Y0.1772
X1.8209Y0.7185
X1.8307Y0.8002
X1.8878Y0.1713
X2.0089Y0.1978
X2.0276Y0.6004
X2.0768Y0.7677
X2.0768Y0.7165
X2.124Y0.7441
X2.1634Y0.1988
X2.1673Y0.7185
X2.1811Y0.7657
X2.2736Y0.1772
T2
X1.0433Y0.3248
X1.0827Y0.3248
X1.122Y0.3248
T3
X0.1299Y0.5906
X0.3307Y1.1024
X0.3307Y1.0024
X0.4307Y1.1024
X0.4307Y1.0024
X0.5307Y1.1024
X0.5307Y1.0024
X0.6307Y1.1024
X0.6307Y1.0024
X0.7307Y1.1024
X0.7307Y1.0024
X0.8307Y1.1024
X0.8307Y1.0024
X0.9307Y1.1024
X0.9307Y1.0024
X1.0307Y1.1024
X1.0307Y1.0024
X1.1307Y1.1024
X1.1307Y1.0024
X1.2307Y1.1024
X1.2307Y1.0024
X1.3307Y1.1024
X1.3307Y1.0024
X1.4307Y1.1024
X1.4307Y1.0024
X1.5307Y1.1024
X1.5307Y1.0024
X1.6307Y1.1024
X1.6307Y1.0024
X1.7307Y1.1024
X1.7307Y1.0024
X1.8307Y1.1024
X1.8307Y1.0024
X1.9307Y1.1024
X1.9307Y1.0024
X2.0307Y1.1024
X2.0307Y1.0024
X2.1307Y1.1024
X2.1307Y1.0024
X2.2307Y1.1024
X2.2307Y1.0024
M30
