%TF.GenerationSoftware,KiCad,Pcbnew,8.0.4*%
%TF.CreationDate,2024-10-10T14:53:49+07:00*%
%TF.ProjectId,ADC_pHAT_AFE,4144435f-7048-4415-945f-4146452e6b69,rev?*%
%TF.SameCoordinates,PX5cbead0PY5705d50*%
%TF.FileFunction,Legend,Top*%
%TF.FilePolarity,Positive*%
%FSLAX46Y46*%
G04 Gerber Fmt 4.6, Leading zero omitted, Abs format (unit mm)*
G04 Created by KiCad (PCBNEW 8.0.4) date 2024-10-10 14:53:49*
%MOMM*%
%LPD*%
G01*
G04 APERTURE LIST*
%ADD10C,0.100000*%
%ADD11C,0.150000*%
%ADD12C,0.120000*%
%ADD13C,0.200000*%
G04 APERTURE END LIST*
D10*
G36*
X63723753Y21488983D02*
G01*
X63759897Y21452838D01*
X63798609Y21375415D01*
X63798609Y21103885D01*
X63422419Y21103885D01*
X63422419Y21375415D01*
X63461130Y21452839D01*
X63497275Y21488983D01*
X63574699Y21527694D01*
X63646330Y21527694D01*
X63723753Y21488983D01*
G37*
G36*
X64247561Y21536602D02*
G01*
X64283708Y21500456D01*
X64322419Y21423034D01*
X64322419Y21103885D01*
X63898609Y21103885D01*
X63898609Y21379105D01*
X63939929Y21503067D01*
X63973465Y21536602D01*
X64050889Y21575313D01*
X64170139Y21575313D01*
X64247561Y21536602D01*
G37*
G36*
X64533530Y18892774D02*
G01*
X63211308Y18892774D01*
X63211308Y19644447D01*
X63326225Y19644447D01*
X63326225Y19606179D01*
X63353285Y19579119D01*
X63372419Y19575313D01*
X64170139Y19575313D01*
X64247561Y19536602D01*
X64283708Y19500456D01*
X64322419Y19423034D01*
X64322419Y19256165D01*
X64283708Y19178743D01*
X64247561Y19142597D01*
X64170139Y19103885D01*
X63372419Y19103885D01*
X63353285Y19100079D01*
X63326225Y19073019D01*
X63326225Y19034751D01*
X63353285Y19007691D01*
X63372419Y19003885D01*
X64181942Y19003885D01*
X64184398Y19004374D01*
X64185487Y19004011D01*
X64193214Y19006128D01*
X64201076Y19007691D01*
X64201887Y19008503D01*
X64204303Y19009164D01*
X64299540Y19056782D01*
X64305868Y19061694D01*
X64312535Y19066148D01*
X64360155Y19113767D01*
X64364609Y19120434D01*
X64369521Y19126762D01*
X64417140Y19222000D01*
X64417801Y19224416D01*
X64418613Y19225227D01*
X64420176Y19233089D01*
X64422293Y19240816D01*
X64421930Y19241905D01*
X64422419Y19244361D01*
X64422419Y19434837D01*
X64421930Y19437294D01*
X64422293Y19438382D01*
X64420176Y19446110D01*
X64418613Y19453971D01*
X64417801Y19454783D01*
X64417140Y19457198D01*
X64369521Y19552436D01*
X64364609Y19558765D01*
X64360155Y19565431D01*
X64312535Y19613050D01*
X64305868Y19617505D01*
X64299540Y19622416D01*
X64204303Y19670034D01*
X64201887Y19670696D01*
X64201076Y19671507D01*
X64193214Y19673071D01*
X64185487Y19675187D01*
X64184398Y19674825D01*
X64181942Y19675313D01*
X63372419Y19675313D01*
X63353285Y19671507D01*
X63326225Y19644447D01*
X63211308Y19644447D01*
X63211308Y20482456D01*
X63322419Y20482456D01*
X63322419Y20244361D01*
X63322907Y20241905D01*
X63322545Y20240816D01*
X63324661Y20233089D01*
X63326225Y20225227D01*
X63327036Y20224416D01*
X63327698Y20222000D01*
X63375316Y20126763D01*
X63380231Y20120430D01*
X63384683Y20113768D01*
X63432301Y20066149D01*
X63438967Y20061695D01*
X63445296Y20056783D01*
X63540534Y20009164D01*
X63542949Y20008503D01*
X63543761Y20007691D01*
X63551622Y20006128D01*
X63559350Y20004011D01*
X63560438Y20004374D01*
X63562895Y20003885D01*
X63658133Y20003885D01*
X63660589Y20004374D01*
X63661678Y20004011D01*
X63669405Y20006128D01*
X63677267Y20007691D01*
X63678078Y20008503D01*
X63680494Y20009164D01*
X63775731Y20056782D01*
X63782064Y20061698D01*
X63788726Y20066149D01*
X63836345Y20113767D01*
X63840799Y20120434D01*
X63845711Y20126762D01*
X63893330Y20222000D01*
X63894776Y20227282D01*
X63897116Y20232234D01*
X63943404Y20417386D01*
X63984939Y20500458D01*
X64021084Y20536602D01*
X64098508Y20575313D01*
X64170139Y20575313D01*
X64247561Y20536602D01*
X64283708Y20500456D01*
X64322419Y20423034D01*
X64322419Y20204855D01*
X64277366Y20069696D01*
X64274926Y20050341D01*
X64292040Y20016112D01*
X64328344Y20004011D01*
X64362573Y20021125D01*
X64372234Y20038074D01*
X64419853Y20180930D01*
X64420855Y20188881D01*
X64422419Y20196742D01*
X64422419Y20434837D01*
X64421930Y20437294D01*
X64422293Y20438382D01*
X64420176Y20446110D01*
X64418613Y20453971D01*
X64417801Y20454783D01*
X64417140Y20457198D01*
X64369521Y20552436D01*
X64364609Y20558765D01*
X64360155Y20565431D01*
X64312535Y20613050D01*
X64305868Y20617505D01*
X64299540Y20622416D01*
X64204303Y20670034D01*
X64201887Y20670696D01*
X64201076Y20671507D01*
X64193214Y20673071D01*
X64185487Y20675187D01*
X64184398Y20674825D01*
X64181942Y20675313D01*
X64086704Y20675313D01*
X64084247Y20674825D01*
X64083159Y20675187D01*
X64075431Y20673071D01*
X64067570Y20671507D01*
X64066758Y20670696D01*
X64064343Y20670034D01*
X63969105Y20622415D01*
X63962776Y20617504D01*
X63956110Y20613049D01*
X63908492Y20565430D01*
X63904040Y20558769D01*
X63899125Y20552435D01*
X63851507Y20457198D01*
X63850060Y20451917D01*
X63847721Y20446964D01*
X63801433Y20261814D01*
X63759897Y20178742D01*
X63723753Y20142597D01*
X63646330Y20103885D01*
X63574699Y20103885D01*
X63497275Y20142597D01*
X63461130Y20178741D01*
X63422419Y20256164D01*
X63422419Y20474343D01*
X63467472Y20609501D01*
X63469912Y20628857D01*
X63452798Y20663085D01*
X63416494Y20675187D01*
X63382265Y20658072D01*
X63372604Y20641124D01*
X63324985Y20498267D01*
X63323982Y20490319D01*
X63322419Y20482456D01*
X63211308Y20482456D01*
X63211308Y21387218D01*
X63322419Y21387218D01*
X63322419Y21053885D01*
X63326225Y21034751D01*
X63353285Y21007691D01*
X63372419Y21003885D01*
X64372419Y21003885D01*
X64391553Y21007691D01*
X64418613Y21034751D01*
X64422419Y21053885D01*
X64422419Y21434837D01*
X64421930Y21437294D01*
X64422293Y21438382D01*
X64420176Y21446110D01*
X64418613Y21453971D01*
X64417801Y21454783D01*
X64417140Y21457198D01*
X64369521Y21552436D01*
X64364609Y21558765D01*
X64360155Y21565431D01*
X64312535Y21613050D01*
X64305868Y21617505D01*
X64299540Y21622416D01*
X64204303Y21670034D01*
X64201887Y21670696D01*
X64201076Y21671507D01*
X64193214Y21673071D01*
X64185487Y21675187D01*
X64184398Y21674825D01*
X64181942Y21675313D01*
X64039085Y21675313D01*
X64036628Y21674825D01*
X64035540Y21675187D01*
X64027812Y21673071D01*
X64019951Y21671507D01*
X64019139Y21670696D01*
X64016724Y21670034D01*
X63921486Y21622415D01*
X63915157Y21617504D01*
X63908491Y21613049D01*
X63860873Y21565430D01*
X63859481Y21563348D01*
X63858455Y21562834D01*
X63854487Y21555874D01*
X63850034Y21549209D01*
X63850034Y21548062D01*
X63848794Y21545886D01*
X63838407Y21514726D01*
X63836345Y21517812D01*
X63788726Y21565430D01*
X63782064Y21569882D01*
X63775731Y21574797D01*
X63680494Y21622415D01*
X63678078Y21623077D01*
X63677267Y21623888D01*
X63669405Y21625452D01*
X63661678Y21627568D01*
X63660589Y21627206D01*
X63658133Y21627694D01*
X63562895Y21627694D01*
X63560438Y21627206D01*
X63559350Y21627568D01*
X63551622Y21625452D01*
X63543761Y21623888D01*
X63542949Y21623077D01*
X63540534Y21622415D01*
X63445296Y21574796D01*
X63438967Y21569885D01*
X63432301Y21565430D01*
X63384683Y21517811D01*
X63380231Y21511150D01*
X63375316Y21504816D01*
X63327698Y21409579D01*
X63327036Y21407164D01*
X63326225Y21406352D01*
X63324661Y21398491D01*
X63322545Y21390763D01*
X63322907Y21389675D01*
X63322419Y21387218D01*
X63211308Y21387218D01*
X63211308Y21786424D01*
X64533530Y21786424D01*
X64533530Y18892774D01*
G37*
D11*
X28145714Y3533896D02*
X28107618Y3495800D01*
X28107618Y3495800D02*
X27993333Y3457705D01*
X27993333Y3457705D02*
X27917142Y3457705D01*
X27917142Y3457705D02*
X27802856Y3495800D01*
X27802856Y3495800D02*
X27726666Y3571991D01*
X27726666Y3571991D02*
X27688571Y3648181D01*
X27688571Y3648181D02*
X27650475Y3800562D01*
X27650475Y3800562D02*
X27650475Y3914848D01*
X27650475Y3914848D02*
X27688571Y4067229D01*
X27688571Y4067229D02*
X27726666Y4143420D01*
X27726666Y4143420D02*
X27802856Y4219610D01*
X27802856Y4219610D02*
X27917142Y4257705D01*
X27917142Y4257705D02*
X27993333Y4257705D01*
X27993333Y4257705D02*
X28107618Y4219610D01*
X28107618Y4219610D02*
X28145714Y4181515D01*
X28907618Y3457705D02*
X28450475Y3457705D01*
X28679047Y3457705D02*
X28679047Y4257705D01*
X28679047Y4257705D02*
X28602856Y4143420D01*
X28602856Y4143420D02*
X28526666Y4067229D01*
X28526666Y4067229D02*
X28450475Y4029134D01*
X29631428Y4257705D02*
X29250476Y4257705D01*
X29250476Y4257705D02*
X29212380Y3876753D01*
X29212380Y3876753D02*
X29250476Y3914848D01*
X29250476Y3914848D02*
X29326666Y3952943D01*
X29326666Y3952943D02*
X29517142Y3952943D01*
X29517142Y3952943D02*
X29593333Y3914848D01*
X29593333Y3914848D02*
X29631428Y3876753D01*
X29631428Y3876753D02*
X29669523Y3800562D01*
X29669523Y3800562D02*
X29669523Y3610086D01*
X29669523Y3610086D02*
X29631428Y3533896D01*
X29631428Y3533896D02*
X29593333Y3495800D01*
X29593333Y3495800D02*
X29517142Y3457705D01*
X29517142Y3457705D02*
X29326666Y3457705D01*
X29326666Y3457705D02*
X29250476Y3495800D01*
X29250476Y3495800D02*
X29212380Y3533896D01*
X31892295Y12409525D02*
X31092295Y12409525D01*
X31092295Y12409525D02*
X31092295Y12600001D01*
X31092295Y12600001D02*
X31130390Y12714287D01*
X31130390Y12714287D02*
X31206580Y12790477D01*
X31206580Y12790477D02*
X31282771Y12828572D01*
X31282771Y12828572D02*
X31435152Y12866668D01*
X31435152Y12866668D02*
X31549438Y12866668D01*
X31549438Y12866668D02*
X31701819Y12828572D01*
X31701819Y12828572D02*
X31778009Y12790477D01*
X31778009Y12790477D02*
X31854200Y12714287D01*
X31854200Y12714287D02*
X31892295Y12600001D01*
X31892295Y12600001D02*
X31892295Y12409525D01*
X31092295Y13133334D02*
X31092295Y13628572D01*
X31092295Y13628572D02*
X31397057Y13361906D01*
X31397057Y13361906D02*
X31397057Y13476191D01*
X31397057Y13476191D02*
X31435152Y13552382D01*
X31435152Y13552382D02*
X31473247Y13590477D01*
X31473247Y13590477D02*
X31549438Y13628572D01*
X31549438Y13628572D02*
X31739914Y13628572D01*
X31739914Y13628572D02*
X31816104Y13590477D01*
X31816104Y13590477D02*
X31854200Y13552382D01*
X31854200Y13552382D02*
X31892295Y13476191D01*
X31892295Y13476191D02*
X31892295Y13247620D01*
X31892295Y13247620D02*
X31854200Y13171429D01*
X31854200Y13171429D02*
X31816104Y13133334D01*
X23786104Y2485715D02*
X23824200Y2447619D01*
X23824200Y2447619D02*
X23862295Y2333334D01*
X23862295Y2333334D02*
X23862295Y2257143D01*
X23862295Y2257143D02*
X23824200Y2142857D01*
X23824200Y2142857D02*
X23748009Y2066667D01*
X23748009Y2066667D02*
X23671819Y2028572D01*
X23671819Y2028572D02*
X23519438Y1990476D01*
X23519438Y1990476D02*
X23405152Y1990476D01*
X23405152Y1990476D02*
X23252771Y2028572D01*
X23252771Y2028572D02*
X23176580Y2066667D01*
X23176580Y2066667D02*
X23100390Y2142857D01*
X23100390Y2142857D02*
X23062295Y2257143D01*
X23062295Y2257143D02*
X23062295Y2333334D01*
X23062295Y2333334D02*
X23100390Y2447619D01*
X23100390Y2447619D02*
X23138485Y2485715D01*
X23862295Y3247619D02*
X23862295Y2790476D01*
X23862295Y3019048D02*
X23062295Y3019048D01*
X23062295Y3019048D02*
X23176580Y2942857D01*
X23176580Y2942857D02*
X23252771Y2866667D01*
X23252771Y2866667D02*
X23290866Y2790476D01*
X23062295Y3514286D02*
X23062295Y4009524D01*
X23062295Y4009524D02*
X23367057Y3742858D01*
X23367057Y3742858D02*
X23367057Y3857143D01*
X23367057Y3857143D02*
X23405152Y3933334D01*
X23405152Y3933334D02*
X23443247Y3971429D01*
X23443247Y3971429D02*
X23519438Y4009524D01*
X23519438Y4009524D02*
X23709914Y4009524D01*
X23709914Y4009524D02*
X23786104Y3971429D01*
X23786104Y3971429D02*
X23824200Y3933334D01*
X23824200Y3933334D02*
X23862295Y3857143D01*
X23862295Y3857143D02*
X23862295Y3628572D01*
X23862295Y3628572D02*
X23824200Y3552381D01*
X23824200Y3552381D02*
X23786104Y3514286D01*
X26235714Y19137705D02*
X25969047Y19518658D01*
X25778571Y19137705D02*
X25778571Y19937705D01*
X25778571Y19937705D02*
X26083333Y19937705D01*
X26083333Y19937705D02*
X26159523Y19899610D01*
X26159523Y19899610D02*
X26197618Y19861515D01*
X26197618Y19861515D02*
X26235714Y19785324D01*
X26235714Y19785324D02*
X26235714Y19671039D01*
X26235714Y19671039D02*
X26197618Y19594848D01*
X26197618Y19594848D02*
X26159523Y19556753D01*
X26159523Y19556753D02*
X26083333Y19518658D01*
X26083333Y19518658D02*
X25778571Y19518658D01*
X26997618Y19137705D02*
X26540475Y19137705D01*
X26769047Y19137705D02*
X26769047Y19937705D01*
X26769047Y19937705D02*
X26692856Y19823420D01*
X26692856Y19823420D02*
X26616666Y19747229D01*
X26616666Y19747229D02*
X26540475Y19709134D01*
X27759523Y19137705D02*
X27302380Y19137705D01*
X27530952Y19137705D02*
X27530952Y19937705D01*
X27530952Y19937705D02*
X27454761Y19823420D01*
X27454761Y19823420D02*
X27378571Y19747229D01*
X27378571Y19747229D02*
X27302380Y19709134D01*
X32786104Y18616668D02*
X32824200Y18578572D01*
X32824200Y18578572D02*
X32862295Y18464287D01*
X32862295Y18464287D02*
X32862295Y18388096D01*
X32862295Y18388096D02*
X32824200Y18273810D01*
X32824200Y18273810D02*
X32748009Y18197620D01*
X32748009Y18197620D02*
X32671819Y18159525D01*
X32671819Y18159525D02*
X32519438Y18121429D01*
X32519438Y18121429D02*
X32405152Y18121429D01*
X32405152Y18121429D02*
X32252771Y18159525D01*
X32252771Y18159525D02*
X32176580Y18197620D01*
X32176580Y18197620D02*
X32100390Y18273810D01*
X32100390Y18273810D02*
X32062295Y18388096D01*
X32062295Y18388096D02*
X32062295Y18464287D01*
X32062295Y18464287D02*
X32100390Y18578572D01*
X32100390Y18578572D02*
X32138485Y18616668D01*
X32862295Y18997620D02*
X32862295Y19150001D01*
X32862295Y19150001D02*
X32824200Y19226191D01*
X32824200Y19226191D02*
X32786104Y19264287D01*
X32786104Y19264287D02*
X32671819Y19340477D01*
X32671819Y19340477D02*
X32519438Y19378572D01*
X32519438Y19378572D02*
X32214676Y19378572D01*
X32214676Y19378572D02*
X32138485Y19340477D01*
X32138485Y19340477D02*
X32100390Y19302382D01*
X32100390Y19302382D02*
X32062295Y19226191D01*
X32062295Y19226191D02*
X32062295Y19073810D01*
X32062295Y19073810D02*
X32100390Y18997620D01*
X32100390Y18997620D02*
X32138485Y18959525D01*
X32138485Y18959525D02*
X32214676Y18921429D01*
X32214676Y18921429D02*
X32405152Y18921429D01*
X32405152Y18921429D02*
X32481342Y18959525D01*
X32481342Y18959525D02*
X32519438Y18997620D01*
X32519438Y18997620D02*
X32557533Y19073810D01*
X32557533Y19073810D02*
X32557533Y19226191D01*
X32557533Y19226191D02*
X32519438Y19302382D01*
X32519438Y19302382D02*
X32481342Y19340477D01*
X32481342Y19340477D02*
X32405152Y19378572D01*
X21612295Y17485715D02*
X21231342Y17219048D01*
X21612295Y17028572D02*
X20812295Y17028572D01*
X20812295Y17028572D02*
X20812295Y17333334D01*
X20812295Y17333334D02*
X20850390Y17409524D01*
X20850390Y17409524D02*
X20888485Y17447619D01*
X20888485Y17447619D02*
X20964676Y17485715D01*
X20964676Y17485715D02*
X21078961Y17485715D01*
X21078961Y17485715D02*
X21155152Y17447619D01*
X21155152Y17447619D02*
X21193247Y17409524D01*
X21193247Y17409524D02*
X21231342Y17333334D01*
X21231342Y17333334D02*
X21231342Y17028572D01*
X21612295Y18247619D02*
X21612295Y17790476D01*
X21612295Y18019048D02*
X20812295Y18019048D01*
X20812295Y18019048D02*
X20926580Y17942857D01*
X20926580Y17942857D02*
X21002771Y17866667D01*
X21002771Y17866667D02*
X21040866Y17790476D01*
X21078961Y18933334D02*
X21612295Y18933334D01*
X20774200Y18742858D02*
X21345628Y18552381D01*
X21345628Y18552381D02*
X21345628Y19047620D01*
X44036104Y21866668D02*
X44074200Y21828572D01*
X44074200Y21828572D02*
X44112295Y21714287D01*
X44112295Y21714287D02*
X44112295Y21638096D01*
X44112295Y21638096D02*
X44074200Y21523810D01*
X44074200Y21523810D02*
X43998009Y21447620D01*
X43998009Y21447620D02*
X43921819Y21409525D01*
X43921819Y21409525D02*
X43769438Y21371429D01*
X43769438Y21371429D02*
X43655152Y21371429D01*
X43655152Y21371429D02*
X43502771Y21409525D01*
X43502771Y21409525D02*
X43426580Y21447620D01*
X43426580Y21447620D02*
X43350390Y21523810D01*
X43350390Y21523810D02*
X43312295Y21638096D01*
X43312295Y21638096D02*
X43312295Y21714287D01*
X43312295Y21714287D02*
X43350390Y21828572D01*
X43350390Y21828572D02*
X43388485Y21866668D01*
X43578961Y22552382D02*
X44112295Y22552382D01*
X43274200Y22361906D02*
X43845628Y22171429D01*
X43845628Y22171429D02*
X43845628Y22666668D01*
X30612295Y10366668D02*
X30231342Y10100001D01*
X30612295Y9909525D02*
X29812295Y9909525D01*
X29812295Y9909525D02*
X29812295Y10214287D01*
X29812295Y10214287D02*
X29850390Y10290477D01*
X29850390Y10290477D02*
X29888485Y10328572D01*
X29888485Y10328572D02*
X29964676Y10366668D01*
X29964676Y10366668D02*
X30078961Y10366668D01*
X30078961Y10366668D02*
X30155152Y10328572D01*
X30155152Y10328572D02*
X30193247Y10290477D01*
X30193247Y10290477D02*
X30231342Y10214287D01*
X30231342Y10214287D02*
X30231342Y9909525D01*
X29812295Y10633334D02*
X29812295Y11128572D01*
X29812295Y11128572D02*
X30117057Y10861906D01*
X30117057Y10861906D02*
X30117057Y10976191D01*
X30117057Y10976191D02*
X30155152Y11052382D01*
X30155152Y11052382D02*
X30193247Y11090477D01*
X30193247Y11090477D02*
X30269438Y11128572D01*
X30269438Y11128572D02*
X30459914Y11128572D01*
X30459914Y11128572D02*
X30536104Y11090477D01*
X30536104Y11090477D02*
X30574200Y11052382D01*
X30574200Y11052382D02*
X30612295Y10976191D01*
X30612295Y10976191D02*
X30612295Y10747620D01*
X30612295Y10747620D02*
X30574200Y10671429D01*
X30574200Y10671429D02*
X30536104Y10633334D01*
X10362295Y18659525D02*
X9562295Y18659525D01*
X9562295Y18659525D02*
X9562295Y18850001D01*
X9562295Y18850001D02*
X9600390Y18964287D01*
X9600390Y18964287D02*
X9676580Y19040477D01*
X9676580Y19040477D02*
X9752771Y19078572D01*
X9752771Y19078572D02*
X9905152Y19116668D01*
X9905152Y19116668D02*
X10019438Y19116668D01*
X10019438Y19116668D02*
X10171819Y19078572D01*
X10171819Y19078572D02*
X10248009Y19040477D01*
X10248009Y19040477D02*
X10324200Y18964287D01*
X10324200Y18964287D02*
X10362295Y18850001D01*
X10362295Y18850001D02*
X10362295Y18659525D01*
X9638485Y19421429D02*
X9600390Y19459525D01*
X9600390Y19459525D02*
X9562295Y19535715D01*
X9562295Y19535715D02*
X9562295Y19726191D01*
X9562295Y19726191D02*
X9600390Y19802382D01*
X9600390Y19802382D02*
X9638485Y19840477D01*
X9638485Y19840477D02*
X9714676Y19878572D01*
X9714676Y19878572D02*
X9790866Y19878572D01*
X9790866Y19878572D02*
X9905152Y19840477D01*
X9905152Y19840477D02*
X10362295Y19383334D01*
X10362295Y19383334D02*
X10362295Y19878572D01*
X33866667Y21387705D02*
X33600000Y21768658D01*
X33409524Y21387705D02*
X33409524Y22187705D01*
X33409524Y22187705D02*
X33714286Y22187705D01*
X33714286Y22187705D02*
X33790476Y22149610D01*
X33790476Y22149610D02*
X33828571Y22111515D01*
X33828571Y22111515D02*
X33866667Y22035324D01*
X33866667Y22035324D02*
X33866667Y21921039D01*
X33866667Y21921039D02*
X33828571Y21844848D01*
X33828571Y21844848D02*
X33790476Y21806753D01*
X33790476Y21806753D02*
X33714286Y21768658D01*
X33714286Y21768658D02*
X33409524Y21768658D01*
X34590476Y22187705D02*
X34209524Y22187705D01*
X34209524Y22187705D02*
X34171428Y21806753D01*
X34171428Y21806753D02*
X34209524Y21844848D01*
X34209524Y21844848D02*
X34285714Y21882943D01*
X34285714Y21882943D02*
X34476190Y21882943D01*
X34476190Y21882943D02*
X34552381Y21844848D01*
X34552381Y21844848D02*
X34590476Y21806753D01*
X34590476Y21806753D02*
X34628571Y21730562D01*
X34628571Y21730562D02*
X34628571Y21540086D01*
X34628571Y21540086D02*
X34590476Y21463896D01*
X34590476Y21463896D02*
X34552381Y21425800D01*
X34552381Y21425800D02*
X34476190Y21387705D01*
X34476190Y21387705D02*
X34285714Y21387705D01*
X34285714Y21387705D02*
X34209524Y21425800D01*
X34209524Y21425800D02*
X34171428Y21463896D01*
X19390476Y21687705D02*
X19390476Y21040086D01*
X19390476Y21040086D02*
X19428571Y20963896D01*
X19428571Y20963896D02*
X19466666Y20925800D01*
X19466666Y20925800D02*
X19542857Y20887705D01*
X19542857Y20887705D02*
X19695238Y20887705D01*
X19695238Y20887705D02*
X19771428Y20925800D01*
X19771428Y20925800D02*
X19809523Y20963896D01*
X19809523Y20963896D02*
X19847619Y21040086D01*
X19847619Y21040086D02*
X19847619Y21687705D01*
X20342856Y21344848D02*
X20266666Y21382943D01*
X20266666Y21382943D02*
X20228571Y21421039D01*
X20228571Y21421039D02*
X20190475Y21497229D01*
X20190475Y21497229D02*
X20190475Y21535324D01*
X20190475Y21535324D02*
X20228571Y21611515D01*
X20228571Y21611515D02*
X20266666Y21649610D01*
X20266666Y21649610D02*
X20342856Y21687705D01*
X20342856Y21687705D02*
X20495237Y21687705D01*
X20495237Y21687705D02*
X20571428Y21649610D01*
X20571428Y21649610D02*
X20609523Y21611515D01*
X20609523Y21611515D02*
X20647618Y21535324D01*
X20647618Y21535324D02*
X20647618Y21497229D01*
X20647618Y21497229D02*
X20609523Y21421039D01*
X20609523Y21421039D02*
X20571428Y21382943D01*
X20571428Y21382943D02*
X20495237Y21344848D01*
X20495237Y21344848D02*
X20342856Y21344848D01*
X20342856Y21344848D02*
X20266666Y21306753D01*
X20266666Y21306753D02*
X20228571Y21268658D01*
X20228571Y21268658D02*
X20190475Y21192467D01*
X20190475Y21192467D02*
X20190475Y21040086D01*
X20190475Y21040086D02*
X20228571Y20963896D01*
X20228571Y20963896D02*
X20266666Y20925800D01*
X20266666Y20925800D02*
X20342856Y20887705D01*
X20342856Y20887705D02*
X20495237Y20887705D01*
X20495237Y20887705D02*
X20571428Y20925800D01*
X20571428Y20925800D02*
X20609523Y20963896D01*
X20609523Y20963896D02*
X20647618Y21040086D01*
X20647618Y21040086D02*
X20647618Y21192467D01*
X20647618Y21192467D02*
X20609523Y21268658D01*
X20609523Y21268658D02*
X20571428Y21306753D01*
X20571428Y21306753D02*
X20495237Y21344848D01*
X9112295Y18659525D02*
X8312295Y18659525D01*
X8312295Y18659525D02*
X8312295Y18850001D01*
X8312295Y18850001D02*
X8350390Y18964287D01*
X8350390Y18964287D02*
X8426580Y19040477D01*
X8426580Y19040477D02*
X8502771Y19078572D01*
X8502771Y19078572D02*
X8655152Y19116668D01*
X8655152Y19116668D02*
X8769438Y19116668D01*
X8769438Y19116668D02*
X8921819Y19078572D01*
X8921819Y19078572D02*
X8998009Y19040477D01*
X8998009Y19040477D02*
X9074200Y18964287D01*
X9074200Y18964287D02*
X9112295Y18850001D01*
X9112295Y18850001D02*
X9112295Y18659525D01*
X9112295Y19878572D02*
X9112295Y19421429D01*
X9112295Y19650001D02*
X8312295Y19650001D01*
X8312295Y19650001D02*
X8426580Y19573810D01*
X8426580Y19573810D02*
X8502771Y19497620D01*
X8502771Y19497620D02*
X8540866Y19421429D01*
X25890476Y6687705D02*
X25890476Y6040086D01*
X25890476Y6040086D02*
X25928571Y5963896D01*
X25928571Y5963896D02*
X25966666Y5925800D01*
X25966666Y5925800D02*
X26042857Y5887705D01*
X26042857Y5887705D02*
X26195238Y5887705D01*
X26195238Y5887705D02*
X26271428Y5925800D01*
X26271428Y5925800D02*
X26309523Y5963896D01*
X26309523Y5963896D02*
X26347619Y6040086D01*
X26347619Y6040086D02*
X26347619Y6687705D01*
X26652380Y6687705D02*
X27147618Y6687705D01*
X27147618Y6687705D02*
X26880952Y6382943D01*
X26880952Y6382943D02*
X26995237Y6382943D01*
X26995237Y6382943D02*
X27071428Y6344848D01*
X27071428Y6344848D02*
X27109523Y6306753D01*
X27109523Y6306753D02*
X27147618Y6230562D01*
X27147618Y6230562D02*
X27147618Y6040086D01*
X27147618Y6040086D02*
X27109523Y5963896D01*
X27109523Y5963896D02*
X27071428Y5925800D01*
X27071428Y5925800D02*
X26995237Y5887705D01*
X26995237Y5887705D02*
X26766666Y5887705D01*
X26766666Y5887705D02*
X26690475Y5925800D01*
X26690475Y5925800D02*
X26652380Y5963896D01*
X15235714Y18067705D02*
X14969047Y18448658D01*
X14778571Y18067705D02*
X14778571Y18867705D01*
X14778571Y18867705D02*
X15083333Y18867705D01*
X15083333Y18867705D02*
X15159523Y18829610D01*
X15159523Y18829610D02*
X15197618Y18791515D01*
X15197618Y18791515D02*
X15235714Y18715324D01*
X15235714Y18715324D02*
X15235714Y18601039D01*
X15235714Y18601039D02*
X15197618Y18524848D01*
X15197618Y18524848D02*
X15159523Y18486753D01*
X15159523Y18486753D02*
X15083333Y18448658D01*
X15083333Y18448658D02*
X14778571Y18448658D01*
X15997618Y18067705D02*
X15540475Y18067705D01*
X15769047Y18067705D02*
X15769047Y18867705D01*
X15769047Y18867705D02*
X15692856Y18753420D01*
X15692856Y18753420D02*
X15616666Y18677229D01*
X15616666Y18677229D02*
X15540475Y18639134D01*
X16378571Y18067705D02*
X16530952Y18067705D01*
X16530952Y18067705D02*
X16607142Y18105800D01*
X16607142Y18105800D02*
X16645238Y18143896D01*
X16645238Y18143896D02*
X16721428Y18258181D01*
X16721428Y18258181D02*
X16759523Y18410562D01*
X16759523Y18410562D02*
X16759523Y18715324D01*
X16759523Y18715324D02*
X16721428Y18791515D01*
X16721428Y18791515D02*
X16683333Y18829610D01*
X16683333Y18829610D02*
X16607142Y18867705D01*
X16607142Y18867705D02*
X16454761Y18867705D01*
X16454761Y18867705D02*
X16378571Y18829610D01*
X16378571Y18829610D02*
X16340476Y18791515D01*
X16340476Y18791515D02*
X16302380Y18715324D01*
X16302380Y18715324D02*
X16302380Y18524848D01*
X16302380Y18524848D02*
X16340476Y18448658D01*
X16340476Y18448658D02*
X16378571Y18410562D01*
X16378571Y18410562D02*
X16454761Y18372467D01*
X16454761Y18372467D02*
X16607142Y18372467D01*
X16607142Y18372467D02*
X16683333Y18410562D01*
X16683333Y18410562D02*
X16721428Y18448658D01*
X16721428Y18448658D02*
X16759523Y18524848D01*
X767731Y6655705D02*
X767731Y6084277D01*
X767731Y6084277D02*
X729636Y5969991D01*
X729636Y5969991D02*
X653445Y5893800D01*
X653445Y5893800D02*
X539160Y5855705D01*
X539160Y5855705D02*
X462969Y5855705D01*
X1072493Y6655705D02*
X1567731Y6655705D01*
X1567731Y6655705D02*
X1301065Y6350943D01*
X1301065Y6350943D02*
X1415350Y6350943D01*
X1415350Y6350943D02*
X1491541Y6312848D01*
X1491541Y6312848D02*
X1529636Y6274753D01*
X1529636Y6274753D02*
X1567731Y6198562D01*
X1567731Y6198562D02*
X1567731Y6008086D01*
X1567731Y6008086D02*
X1529636Y5931896D01*
X1529636Y5931896D02*
X1491541Y5893800D01*
X1491541Y5893800D02*
X1415350Y5855705D01*
X1415350Y5855705D02*
X1186779Y5855705D01*
X1186779Y5855705D02*
X1110588Y5893800D01*
X1110588Y5893800D02*
X1072493Y5931896D01*
X13140476Y5237705D02*
X13140476Y4590086D01*
X13140476Y4590086D02*
X13178571Y4513896D01*
X13178571Y4513896D02*
X13216666Y4475800D01*
X13216666Y4475800D02*
X13292857Y4437705D01*
X13292857Y4437705D02*
X13445238Y4437705D01*
X13445238Y4437705D02*
X13521428Y4475800D01*
X13521428Y4475800D02*
X13559523Y4513896D01*
X13559523Y4513896D02*
X13597619Y4590086D01*
X13597619Y4590086D02*
X13597619Y5237705D01*
X14321428Y4971039D02*
X14321428Y4437705D01*
X14130952Y5275800D02*
X13940475Y4704372D01*
X13940475Y4704372D02*
X14435714Y4704372D01*
X9235714Y14713896D02*
X9197618Y14675800D01*
X9197618Y14675800D02*
X9083333Y14637705D01*
X9083333Y14637705D02*
X9007142Y14637705D01*
X9007142Y14637705D02*
X8892856Y14675800D01*
X8892856Y14675800D02*
X8816666Y14751991D01*
X8816666Y14751991D02*
X8778571Y14828181D01*
X8778571Y14828181D02*
X8740475Y14980562D01*
X8740475Y14980562D02*
X8740475Y15094848D01*
X8740475Y15094848D02*
X8778571Y15247229D01*
X8778571Y15247229D02*
X8816666Y15323420D01*
X8816666Y15323420D02*
X8892856Y15399610D01*
X8892856Y15399610D02*
X9007142Y15437705D01*
X9007142Y15437705D02*
X9083333Y15437705D01*
X9083333Y15437705D02*
X9197618Y15399610D01*
X9197618Y15399610D02*
X9235714Y15361515D01*
X9997618Y14637705D02*
X9540475Y14637705D01*
X9769047Y14637705D02*
X9769047Y15437705D01*
X9769047Y15437705D02*
X9692856Y15323420D01*
X9692856Y15323420D02*
X9616666Y15247229D01*
X9616666Y15247229D02*
X9540475Y15209134D01*
X10454761Y15094848D02*
X10378571Y15132943D01*
X10378571Y15132943D02*
X10340476Y15171039D01*
X10340476Y15171039D02*
X10302380Y15247229D01*
X10302380Y15247229D02*
X10302380Y15285324D01*
X10302380Y15285324D02*
X10340476Y15361515D01*
X10340476Y15361515D02*
X10378571Y15399610D01*
X10378571Y15399610D02*
X10454761Y15437705D01*
X10454761Y15437705D02*
X10607142Y15437705D01*
X10607142Y15437705D02*
X10683333Y15399610D01*
X10683333Y15399610D02*
X10721428Y15361515D01*
X10721428Y15361515D02*
X10759523Y15285324D01*
X10759523Y15285324D02*
X10759523Y15247229D01*
X10759523Y15247229D02*
X10721428Y15171039D01*
X10721428Y15171039D02*
X10683333Y15132943D01*
X10683333Y15132943D02*
X10607142Y15094848D01*
X10607142Y15094848D02*
X10454761Y15094848D01*
X10454761Y15094848D02*
X10378571Y15056753D01*
X10378571Y15056753D02*
X10340476Y15018658D01*
X10340476Y15018658D02*
X10302380Y14942467D01*
X10302380Y14942467D02*
X10302380Y14790086D01*
X10302380Y14790086D02*
X10340476Y14713896D01*
X10340476Y14713896D02*
X10378571Y14675800D01*
X10378571Y14675800D02*
X10454761Y14637705D01*
X10454761Y14637705D02*
X10607142Y14637705D01*
X10607142Y14637705D02*
X10683333Y14675800D01*
X10683333Y14675800D02*
X10721428Y14713896D01*
X10721428Y14713896D02*
X10759523Y14790086D01*
X10759523Y14790086D02*
X10759523Y14942467D01*
X10759523Y14942467D02*
X10721428Y15018658D01*
X10721428Y15018658D02*
X10683333Y15056753D01*
X10683333Y15056753D02*
X10607142Y15094848D01*
X41890476Y7187705D02*
X41890476Y6540086D01*
X41890476Y6540086D02*
X41928571Y6463896D01*
X41928571Y6463896D02*
X41966666Y6425800D01*
X41966666Y6425800D02*
X42042857Y6387705D01*
X42042857Y6387705D02*
X42195238Y6387705D01*
X42195238Y6387705D02*
X42271428Y6425800D01*
X42271428Y6425800D02*
X42309523Y6463896D01*
X42309523Y6463896D02*
X42347619Y6540086D01*
X42347619Y6540086D02*
X42347619Y7187705D01*
X42690475Y7111515D02*
X42728571Y7149610D01*
X42728571Y7149610D02*
X42804761Y7187705D01*
X42804761Y7187705D02*
X42995237Y7187705D01*
X42995237Y7187705D02*
X43071428Y7149610D01*
X43071428Y7149610D02*
X43109523Y7111515D01*
X43109523Y7111515D02*
X43147618Y7035324D01*
X43147618Y7035324D02*
X43147618Y6959134D01*
X43147618Y6959134D02*
X43109523Y6844848D01*
X43109523Y6844848D02*
X42652380Y6387705D01*
X42652380Y6387705D02*
X43147618Y6387705D01*
X28862295Y15485715D02*
X28481342Y15219048D01*
X28862295Y15028572D02*
X28062295Y15028572D01*
X28062295Y15028572D02*
X28062295Y15333334D01*
X28062295Y15333334D02*
X28100390Y15409524D01*
X28100390Y15409524D02*
X28138485Y15447619D01*
X28138485Y15447619D02*
X28214676Y15485715D01*
X28214676Y15485715D02*
X28328961Y15485715D01*
X28328961Y15485715D02*
X28405152Y15447619D01*
X28405152Y15447619D02*
X28443247Y15409524D01*
X28443247Y15409524D02*
X28481342Y15333334D01*
X28481342Y15333334D02*
X28481342Y15028572D01*
X28862295Y16247619D02*
X28862295Y15790476D01*
X28862295Y16019048D02*
X28062295Y16019048D01*
X28062295Y16019048D02*
X28176580Y15942857D01*
X28176580Y15942857D02*
X28252771Y15866667D01*
X28252771Y15866667D02*
X28290866Y15790476D01*
X28062295Y16514286D02*
X28062295Y17009524D01*
X28062295Y17009524D02*
X28367057Y16742858D01*
X28367057Y16742858D02*
X28367057Y16857143D01*
X28367057Y16857143D02*
X28405152Y16933334D01*
X28405152Y16933334D02*
X28443247Y16971429D01*
X28443247Y16971429D02*
X28519438Y17009524D01*
X28519438Y17009524D02*
X28709914Y17009524D01*
X28709914Y17009524D02*
X28786104Y16971429D01*
X28786104Y16971429D02*
X28824200Y16933334D01*
X28824200Y16933334D02*
X28862295Y16857143D01*
X28862295Y16857143D02*
X28862295Y16628572D01*
X28862295Y16628572D02*
X28824200Y16552381D01*
X28824200Y16552381D02*
X28786104Y16514286D01*
X33485714Y9963896D02*
X33447618Y9925800D01*
X33447618Y9925800D02*
X33333333Y9887705D01*
X33333333Y9887705D02*
X33257142Y9887705D01*
X33257142Y9887705D02*
X33142856Y9925800D01*
X33142856Y9925800D02*
X33066666Y10001991D01*
X33066666Y10001991D02*
X33028571Y10078181D01*
X33028571Y10078181D02*
X32990475Y10230562D01*
X32990475Y10230562D02*
X32990475Y10344848D01*
X32990475Y10344848D02*
X33028571Y10497229D01*
X33028571Y10497229D02*
X33066666Y10573420D01*
X33066666Y10573420D02*
X33142856Y10649610D01*
X33142856Y10649610D02*
X33257142Y10687705D01*
X33257142Y10687705D02*
X33333333Y10687705D01*
X33333333Y10687705D02*
X33447618Y10649610D01*
X33447618Y10649610D02*
X33485714Y10611515D01*
X34247618Y9887705D02*
X33790475Y9887705D01*
X34019047Y9887705D02*
X34019047Y10687705D01*
X34019047Y10687705D02*
X33942856Y10573420D01*
X33942856Y10573420D02*
X33866666Y10497229D01*
X33866666Y10497229D02*
X33790475Y10459134D01*
X35009523Y9887705D02*
X34552380Y9887705D01*
X34780952Y9887705D02*
X34780952Y10687705D01*
X34780952Y10687705D02*
X34704761Y10573420D01*
X34704761Y10573420D02*
X34628571Y10497229D01*
X34628571Y10497229D02*
X34552380Y10459134D01*
X32759524Y23437705D02*
X32759524Y22790086D01*
X32759524Y22790086D02*
X32797619Y22713896D01*
X32797619Y22713896D02*
X32835714Y22675800D01*
X32835714Y22675800D02*
X32911905Y22637705D01*
X32911905Y22637705D02*
X33064286Y22637705D01*
X33064286Y22637705D02*
X33140476Y22675800D01*
X33140476Y22675800D02*
X33178571Y22713896D01*
X33178571Y22713896D02*
X33216667Y22790086D01*
X33216667Y22790086D02*
X33216667Y23437705D01*
X34016666Y22637705D02*
X33559523Y22637705D01*
X33788095Y22637705D02*
X33788095Y23437705D01*
X33788095Y23437705D02*
X33711904Y23323420D01*
X33711904Y23323420D02*
X33635714Y23247229D01*
X33635714Y23247229D02*
X33559523Y23209134D01*
X34511905Y23437705D02*
X34588095Y23437705D01*
X34588095Y23437705D02*
X34664286Y23399610D01*
X34664286Y23399610D02*
X34702381Y23361515D01*
X34702381Y23361515D02*
X34740476Y23285324D01*
X34740476Y23285324D02*
X34778571Y23132943D01*
X34778571Y23132943D02*
X34778571Y22942467D01*
X34778571Y22942467D02*
X34740476Y22790086D01*
X34740476Y22790086D02*
X34702381Y22713896D01*
X34702381Y22713896D02*
X34664286Y22675800D01*
X34664286Y22675800D02*
X34588095Y22637705D01*
X34588095Y22637705D02*
X34511905Y22637705D01*
X34511905Y22637705D02*
X34435714Y22675800D01*
X34435714Y22675800D02*
X34397619Y22713896D01*
X34397619Y22713896D02*
X34359524Y22790086D01*
X34359524Y22790086D02*
X34321428Y22942467D01*
X34321428Y22942467D02*
X34321428Y23132943D01*
X34321428Y23132943D02*
X34359524Y23285324D01*
X34359524Y23285324D02*
X34397619Y23361515D01*
X34397619Y23361515D02*
X34435714Y23399610D01*
X34435714Y23399610D02*
X34511905Y23437705D01*
X34116667Y7963896D02*
X34078571Y7925800D01*
X34078571Y7925800D02*
X33964286Y7887705D01*
X33964286Y7887705D02*
X33888095Y7887705D01*
X33888095Y7887705D02*
X33773809Y7925800D01*
X33773809Y7925800D02*
X33697619Y8001991D01*
X33697619Y8001991D02*
X33659524Y8078181D01*
X33659524Y8078181D02*
X33621428Y8230562D01*
X33621428Y8230562D02*
X33621428Y8344848D01*
X33621428Y8344848D02*
X33659524Y8497229D01*
X33659524Y8497229D02*
X33697619Y8573420D01*
X33697619Y8573420D02*
X33773809Y8649610D01*
X33773809Y8649610D02*
X33888095Y8687705D01*
X33888095Y8687705D02*
X33964286Y8687705D01*
X33964286Y8687705D02*
X34078571Y8649610D01*
X34078571Y8649610D02*
X34116667Y8611515D01*
X34383333Y8687705D02*
X34916667Y8687705D01*
X34916667Y8687705D02*
X34573809Y7887705D01*
X18866667Y887705D02*
X18600000Y1268658D01*
X18409524Y887705D02*
X18409524Y1687705D01*
X18409524Y1687705D02*
X18714286Y1687705D01*
X18714286Y1687705D02*
X18790476Y1649610D01*
X18790476Y1649610D02*
X18828571Y1611515D01*
X18828571Y1611515D02*
X18866667Y1535324D01*
X18866667Y1535324D02*
X18866667Y1421039D01*
X18866667Y1421039D02*
X18828571Y1344848D01*
X18828571Y1344848D02*
X18790476Y1306753D01*
X18790476Y1306753D02*
X18714286Y1268658D01*
X18714286Y1268658D02*
X18409524Y1268658D01*
X19323809Y1344848D02*
X19247619Y1382943D01*
X19247619Y1382943D02*
X19209524Y1421039D01*
X19209524Y1421039D02*
X19171428Y1497229D01*
X19171428Y1497229D02*
X19171428Y1535324D01*
X19171428Y1535324D02*
X19209524Y1611515D01*
X19209524Y1611515D02*
X19247619Y1649610D01*
X19247619Y1649610D02*
X19323809Y1687705D01*
X19323809Y1687705D02*
X19476190Y1687705D01*
X19476190Y1687705D02*
X19552381Y1649610D01*
X19552381Y1649610D02*
X19590476Y1611515D01*
X19590476Y1611515D02*
X19628571Y1535324D01*
X19628571Y1535324D02*
X19628571Y1497229D01*
X19628571Y1497229D02*
X19590476Y1421039D01*
X19590476Y1421039D02*
X19552381Y1382943D01*
X19552381Y1382943D02*
X19476190Y1344848D01*
X19476190Y1344848D02*
X19323809Y1344848D01*
X19323809Y1344848D02*
X19247619Y1306753D01*
X19247619Y1306753D02*
X19209524Y1268658D01*
X19209524Y1268658D02*
X19171428Y1192467D01*
X19171428Y1192467D02*
X19171428Y1040086D01*
X19171428Y1040086D02*
X19209524Y963896D01*
X19209524Y963896D02*
X19247619Y925800D01*
X19247619Y925800D02*
X19323809Y887705D01*
X19323809Y887705D02*
X19476190Y887705D01*
X19476190Y887705D02*
X19552381Y925800D01*
X19552381Y925800D02*
X19590476Y963896D01*
X19590476Y963896D02*
X19628571Y1040086D01*
X19628571Y1040086D02*
X19628571Y1192467D01*
X19628571Y1192467D02*
X19590476Y1268658D01*
X19590476Y1268658D02*
X19552381Y1306753D01*
X19552381Y1306753D02*
X19476190Y1344848D01*
X49116667Y16417705D02*
X48850000Y16798658D01*
X48659524Y16417705D02*
X48659524Y17217705D01*
X48659524Y17217705D02*
X48964286Y17217705D01*
X48964286Y17217705D02*
X49040476Y17179610D01*
X49040476Y17179610D02*
X49078571Y17141515D01*
X49078571Y17141515D02*
X49116667Y17065324D01*
X49116667Y17065324D02*
X49116667Y16951039D01*
X49116667Y16951039D02*
X49078571Y16874848D01*
X49078571Y16874848D02*
X49040476Y16836753D01*
X49040476Y16836753D02*
X48964286Y16798658D01*
X48964286Y16798658D02*
X48659524Y16798658D01*
X49421428Y17141515D02*
X49459524Y17179610D01*
X49459524Y17179610D02*
X49535714Y17217705D01*
X49535714Y17217705D02*
X49726190Y17217705D01*
X49726190Y17217705D02*
X49802381Y17179610D01*
X49802381Y17179610D02*
X49840476Y17141515D01*
X49840476Y17141515D02*
X49878571Y17065324D01*
X49878571Y17065324D02*
X49878571Y16989134D01*
X49878571Y16989134D02*
X49840476Y16874848D01*
X49840476Y16874848D02*
X49383333Y16417705D01*
X49383333Y16417705D02*
X49878571Y16417705D01*
X51036104Y21866668D02*
X51074200Y21828572D01*
X51074200Y21828572D02*
X51112295Y21714287D01*
X51112295Y21714287D02*
X51112295Y21638096D01*
X51112295Y21638096D02*
X51074200Y21523810D01*
X51074200Y21523810D02*
X50998009Y21447620D01*
X50998009Y21447620D02*
X50921819Y21409525D01*
X50921819Y21409525D02*
X50769438Y21371429D01*
X50769438Y21371429D02*
X50655152Y21371429D01*
X50655152Y21371429D02*
X50502771Y21409525D01*
X50502771Y21409525D02*
X50426580Y21447620D01*
X50426580Y21447620D02*
X50350390Y21523810D01*
X50350390Y21523810D02*
X50312295Y21638096D01*
X50312295Y21638096D02*
X50312295Y21714287D01*
X50312295Y21714287D02*
X50350390Y21828572D01*
X50350390Y21828572D02*
X50388485Y21866668D01*
X50388485Y22171429D02*
X50350390Y22209525D01*
X50350390Y22209525D02*
X50312295Y22285715D01*
X50312295Y22285715D02*
X50312295Y22476191D01*
X50312295Y22476191D02*
X50350390Y22552382D01*
X50350390Y22552382D02*
X50388485Y22590477D01*
X50388485Y22590477D02*
X50464676Y22628572D01*
X50464676Y22628572D02*
X50540866Y22628572D01*
X50540866Y22628572D02*
X50655152Y22590477D01*
X50655152Y22590477D02*
X51112295Y22133334D01*
X51112295Y22133334D02*
X51112295Y22628572D01*
X30786104Y18485715D02*
X30824200Y18447619D01*
X30824200Y18447619D02*
X30862295Y18333334D01*
X30862295Y18333334D02*
X30862295Y18257143D01*
X30862295Y18257143D02*
X30824200Y18142857D01*
X30824200Y18142857D02*
X30748009Y18066667D01*
X30748009Y18066667D02*
X30671819Y18028572D01*
X30671819Y18028572D02*
X30519438Y17990476D01*
X30519438Y17990476D02*
X30405152Y17990476D01*
X30405152Y17990476D02*
X30252771Y18028572D01*
X30252771Y18028572D02*
X30176580Y18066667D01*
X30176580Y18066667D02*
X30100390Y18142857D01*
X30100390Y18142857D02*
X30062295Y18257143D01*
X30062295Y18257143D02*
X30062295Y18333334D01*
X30062295Y18333334D02*
X30100390Y18447619D01*
X30100390Y18447619D02*
X30138485Y18485715D01*
X30138485Y18790476D02*
X30100390Y18828572D01*
X30100390Y18828572D02*
X30062295Y18904762D01*
X30062295Y18904762D02*
X30062295Y19095238D01*
X30062295Y19095238D02*
X30100390Y19171429D01*
X30100390Y19171429D02*
X30138485Y19209524D01*
X30138485Y19209524D02*
X30214676Y19247619D01*
X30214676Y19247619D02*
X30290866Y19247619D01*
X30290866Y19247619D02*
X30405152Y19209524D01*
X30405152Y19209524D02*
X30862295Y18752381D01*
X30862295Y18752381D02*
X30862295Y19247619D01*
X30062295Y19514286D02*
X30062295Y20009524D01*
X30062295Y20009524D02*
X30367057Y19742858D01*
X30367057Y19742858D02*
X30367057Y19857143D01*
X30367057Y19857143D02*
X30405152Y19933334D01*
X30405152Y19933334D02*
X30443247Y19971429D01*
X30443247Y19971429D02*
X30519438Y20009524D01*
X30519438Y20009524D02*
X30709914Y20009524D01*
X30709914Y20009524D02*
X30786104Y19971429D01*
X30786104Y19971429D02*
X30824200Y19933334D01*
X30824200Y19933334D02*
X30862295Y19857143D01*
X30862295Y19857143D02*
X30862295Y19628572D01*
X30862295Y19628572D02*
X30824200Y19552381D01*
X30824200Y19552381D02*
X30786104Y19514286D01*
X9235714Y15887705D02*
X8969047Y16268658D01*
X8778571Y15887705D02*
X8778571Y16687705D01*
X8778571Y16687705D02*
X9083333Y16687705D01*
X9083333Y16687705D02*
X9159523Y16649610D01*
X9159523Y16649610D02*
X9197618Y16611515D01*
X9197618Y16611515D02*
X9235714Y16535324D01*
X9235714Y16535324D02*
X9235714Y16421039D01*
X9235714Y16421039D02*
X9197618Y16344848D01*
X9197618Y16344848D02*
X9159523Y16306753D01*
X9159523Y16306753D02*
X9083333Y16268658D01*
X9083333Y16268658D02*
X8778571Y16268658D01*
X9997618Y15887705D02*
X9540475Y15887705D01*
X9769047Y15887705D02*
X9769047Y16687705D01*
X9769047Y16687705D02*
X9692856Y16573420D01*
X9692856Y16573420D02*
X9616666Y16497229D01*
X9616666Y16497229D02*
X9540475Y16459134D01*
X10302380Y16611515D02*
X10340476Y16649610D01*
X10340476Y16649610D02*
X10416666Y16687705D01*
X10416666Y16687705D02*
X10607142Y16687705D01*
X10607142Y16687705D02*
X10683333Y16649610D01*
X10683333Y16649610D02*
X10721428Y16611515D01*
X10721428Y16611515D02*
X10759523Y16535324D01*
X10759523Y16535324D02*
X10759523Y16459134D01*
X10759523Y16459134D02*
X10721428Y16344848D01*
X10721428Y16344848D02*
X10264285Y15887705D01*
X10264285Y15887705D02*
X10759523Y15887705D01*
X24866667Y1213896D02*
X24828571Y1175800D01*
X24828571Y1175800D02*
X24714286Y1137705D01*
X24714286Y1137705D02*
X24638095Y1137705D01*
X24638095Y1137705D02*
X24523809Y1175800D01*
X24523809Y1175800D02*
X24447619Y1251991D01*
X24447619Y1251991D02*
X24409524Y1328181D01*
X24409524Y1328181D02*
X24371428Y1480562D01*
X24371428Y1480562D02*
X24371428Y1594848D01*
X24371428Y1594848D02*
X24409524Y1747229D01*
X24409524Y1747229D02*
X24447619Y1823420D01*
X24447619Y1823420D02*
X24523809Y1899610D01*
X24523809Y1899610D02*
X24638095Y1937705D01*
X24638095Y1937705D02*
X24714286Y1937705D01*
X24714286Y1937705D02*
X24828571Y1899610D01*
X24828571Y1899610D02*
X24866667Y1861515D01*
X25323809Y1594848D02*
X25247619Y1632943D01*
X25247619Y1632943D02*
X25209524Y1671039D01*
X25209524Y1671039D02*
X25171428Y1747229D01*
X25171428Y1747229D02*
X25171428Y1785324D01*
X25171428Y1785324D02*
X25209524Y1861515D01*
X25209524Y1861515D02*
X25247619Y1899610D01*
X25247619Y1899610D02*
X25323809Y1937705D01*
X25323809Y1937705D02*
X25476190Y1937705D01*
X25476190Y1937705D02*
X25552381Y1899610D01*
X25552381Y1899610D02*
X25590476Y1861515D01*
X25590476Y1861515D02*
X25628571Y1785324D01*
X25628571Y1785324D02*
X25628571Y1747229D01*
X25628571Y1747229D02*
X25590476Y1671039D01*
X25590476Y1671039D02*
X25552381Y1632943D01*
X25552381Y1632943D02*
X25476190Y1594848D01*
X25476190Y1594848D02*
X25323809Y1594848D01*
X25323809Y1594848D02*
X25247619Y1556753D01*
X25247619Y1556753D02*
X25209524Y1518658D01*
X25209524Y1518658D02*
X25171428Y1442467D01*
X25171428Y1442467D02*
X25171428Y1290086D01*
X25171428Y1290086D02*
X25209524Y1213896D01*
X25209524Y1213896D02*
X25247619Y1175800D01*
X25247619Y1175800D02*
X25323809Y1137705D01*
X25323809Y1137705D02*
X25476190Y1137705D01*
X25476190Y1137705D02*
X25552381Y1175800D01*
X25552381Y1175800D02*
X25590476Y1213896D01*
X25590476Y1213896D02*
X25628571Y1290086D01*
X25628571Y1290086D02*
X25628571Y1442467D01*
X25628571Y1442467D02*
X25590476Y1518658D01*
X25590476Y1518658D02*
X25552381Y1556753D01*
X25552381Y1556753D02*
X25476190Y1594848D01*
X29862295Y18485715D02*
X29481342Y18219048D01*
X29862295Y18028572D02*
X29062295Y18028572D01*
X29062295Y18028572D02*
X29062295Y18333334D01*
X29062295Y18333334D02*
X29100390Y18409524D01*
X29100390Y18409524D02*
X29138485Y18447619D01*
X29138485Y18447619D02*
X29214676Y18485715D01*
X29214676Y18485715D02*
X29328961Y18485715D01*
X29328961Y18485715D02*
X29405152Y18447619D01*
X29405152Y18447619D02*
X29443247Y18409524D01*
X29443247Y18409524D02*
X29481342Y18333334D01*
X29481342Y18333334D02*
X29481342Y18028572D01*
X29862295Y19247619D02*
X29862295Y18790476D01*
X29862295Y19019048D02*
X29062295Y19019048D01*
X29062295Y19019048D02*
X29176580Y18942857D01*
X29176580Y18942857D02*
X29252771Y18866667D01*
X29252771Y18866667D02*
X29290866Y18790476D01*
X29405152Y19704762D02*
X29367057Y19628572D01*
X29367057Y19628572D02*
X29328961Y19590477D01*
X29328961Y19590477D02*
X29252771Y19552381D01*
X29252771Y19552381D02*
X29214676Y19552381D01*
X29214676Y19552381D02*
X29138485Y19590477D01*
X29138485Y19590477D02*
X29100390Y19628572D01*
X29100390Y19628572D02*
X29062295Y19704762D01*
X29062295Y19704762D02*
X29062295Y19857143D01*
X29062295Y19857143D02*
X29100390Y19933334D01*
X29100390Y19933334D02*
X29138485Y19971429D01*
X29138485Y19971429D02*
X29214676Y20009524D01*
X29214676Y20009524D02*
X29252771Y20009524D01*
X29252771Y20009524D02*
X29328961Y19971429D01*
X29328961Y19971429D02*
X29367057Y19933334D01*
X29367057Y19933334D02*
X29405152Y19857143D01*
X29405152Y19857143D02*
X29405152Y19704762D01*
X29405152Y19704762D02*
X29443247Y19628572D01*
X29443247Y19628572D02*
X29481342Y19590477D01*
X29481342Y19590477D02*
X29557533Y19552381D01*
X29557533Y19552381D02*
X29709914Y19552381D01*
X29709914Y19552381D02*
X29786104Y19590477D01*
X29786104Y19590477D02*
X29824200Y19628572D01*
X29824200Y19628572D02*
X29862295Y19704762D01*
X29862295Y19704762D02*
X29862295Y19857143D01*
X29862295Y19857143D02*
X29824200Y19933334D01*
X29824200Y19933334D02*
X29786104Y19971429D01*
X29786104Y19971429D02*
X29709914Y20009524D01*
X29709914Y20009524D02*
X29557533Y20009524D01*
X29557533Y20009524D02*
X29481342Y19971429D01*
X29481342Y19971429D02*
X29443247Y19933334D01*
X29443247Y19933334D02*
X29405152Y19857143D01*
X6485714Y16213896D02*
X6447618Y16175800D01*
X6447618Y16175800D02*
X6333333Y16137705D01*
X6333333Y16137705D02*
X6257142Y16137705D01*
X6257142Y16137705D02*
X6142856Y16175800D01*
X6142856Y16175800D02*
X6066666Y16251991D01*
X6066666Y16251991D02*
X6028571Y16328181D01*
X6028571Y16328181D02*
X5990475Y16480562D01*
X5990475Y16480562D02*
X5990475Y16594848D01*
X5990475Y16594848D02*
X6028571Y16747229D01*
X6028571Y16747229D02*
X6066666Y16823420D01*
X6066666Y16823420D02*
X6142856Y16899610D01*
X6142856Y16899610D02*
X6257142Y16937705D01*
X6257142Y16937705D02*
X6333333Y16937705D01*
X6333333Y16937705D02*
X6447618Y16899610D01*
X6447618Y16899610D02*
X6485714Y16861515D01*
X6790475Y16861515D02*
X6828571Y16899610D01*
X6828571Y16899610D02*
X6904761Y16937705D01*
X6904761Y16937705D02*
X7095237Y16937705D01*
X7095237Y16937705D02*
X7171428Y16899610D01*
X7171428Y16899610D02*
X7209523Y16861515D01*
X7209523Y16861515D02*
X7247618Y16785324D01*
X7247618Y16785324D02*
X7247618Y16709134D01*
X7247618Y16709134D02*
X7209523Y16594848D01*
X7209523Y16594848D02*
X6752380Y16137705D01*
X6752380Y16137705D02*
X7247618Y16137705D01*
X8009523Y16137705D02*
X7552380Y16137705D01*
X7780952Y16137705D02*
X7780952Y16937705D01*
X7780952Y16937705D02*
X7704761Y16823420D01*
X7704761Y16823420D02*
X7628571Y16747229D01*
X7628571Y16747229D02*
X7552380Y16709134D01*
X25862295Y2616668D02*
X25481342Y2350001D01*
X25862295Y2159525D02*
X25062295Y2159525D01*
X25062295Y2159525D02*
X25062295Y2464287D01*
X25062295Y2464287D02*
X25100390Y2540477D01*
X25100390Y2540477D02*
X25138485Y2578572D01*
X25138485Y2578572D02*
X25214676Y2616668D01*
X25214676Y2616668D02*
X25328961Y2616668D01*
X25328961Y2616668D02*
X25405152Y2578572D01*
X25405152Y2578572D02*
X25443247Y2540477D01*
X25443247Y2540477D02*
X25481342Y2464287D01*
X25481342Y2464287D02*
X25481342Y2159525D01*
X25062295Y2883334D02*
X25062295Y3416668D01*
X25062295Y3416668D02*
X25862295Y3073810D01*
X11786104Y9735715D02*
X11824200Y9697619D01*
X11824200Y9697619D02*
X11862295Y9583334D01*
X11862295Y9583334D02*
X11862295Y9507143D01*
X11862295Y9507143D02*
X11824200Y9392857D01*
X11824200Y9392857D02*
X11748009Y9316667D01*
X11748009Y9316667D02*
X11671819Y9278572D01*
X11671819Y9278572D02*
X11519438Y9240476D01*
X11519438Y9240476D02*
X11405152Y9240476D01*
X11405152Y9240476D02*
X11252771Y9278572D01*
X11252771Y9278572D02*
X11176580Y9316667D01*
X11176580Y9316667D02*
X11100390Y9392857D01*
X11100390Y9392857D02*
X11062295Y9507143D01*
X11062295Y9507143D02*
X11062295Y9583334D01*
X11062295Y9583334D02*
X11100390Y9697619D01*
X11100390Y9697619D02*
X11138485Y9735715D01*
X11138485Y10040476D02*
X11100390Y10078572D01*
X11100390Y10078572D02*
X11062295Y10154762D01*
X11062295Y10154762D02*
X11062295Y10345238D01*
X11062295Y10345238D02*
X11100390Y10421429D01*
X11100390Y10421429D02*
X11138485Y10459524D01*
X11138485Y10459524D02*
X11214676Y10497619D01*
X11214676Y10497619D02*
X11290866Y10497619D01*
X11290866Y10497619D02*
X11405152Y10459524D01*
X11405152Y10459524D02*
X11862295Y10002381D01*
X11862295Y10002381D02*
X11862295Y10497619D01*
X11138485Y10802381D02*
X11100390Y10840477D01*
X11100390Y10840477D02*
X11062295Y10916667D01*
X11062295Y10916667D02*
X11062295Y11107143D01*
X11062295Y11107143D02*
X11100390Y11183334D01*
X11100390Y11183334D02*
X11138485Y11221429D01*
X11138485Y11221429D02*
X11214676Y11259524D01*
X11214676Y11259524D02*
X11290866Y11259524D01*
X11290866Y11259524D02*
X11405152Y11221429D01*
X11405152Y11221429D02*
X11862295Y10764286D01*
X11862295Y10764286D02*
X11862295Y11259524D01*
X14985714Y9283896D02*
X14947618Y9245800D01*
X14947618Y9245800D02*
X14833333Y9207705D01*
X14833333Y9207705D02*
X14757142Y9207705D01*
X14757142Y9207705D02*
X14642856Y9245800D01*
X14642856Y9245800D02*
X14566666Y9321991D01*
X14566666Y9321991D02*
X14528571Y9398181D01*
X14528571Y9398181D02*
X14490475Y9550562D01*
X14490475Y9550562D02*
X14490475Y9664848D01*
X14490475Y9664848D02*
X14528571Y9817229D01*
X14528571Y9817229D02*
X14566666Y9893420D01*
X14566666Y9893420D02*
X14642856Y9969610D01*
X14642856Y9969610D02*
X14757142Y10007705D01*
X14757142Y10007705D02*
X14833333Y10007705D01*
X14833333Y10007705D02*
X14947618Y9969610D01*
X14947618Y9969610D02*
X14985714Y9931515D01*
X15747618Y9207705D02*
X15290475Y9207705D01*
X15519047Y9207705D02*
X15519047Y10007705D01*
X15519047Y10007705D02*
X15442856Y9893420D01*
X15442856Y9893420D02*
X15366666Y9817229D01*
X15366666Y9817229D02*
X15290475Y9779134D01*
X16014285Y10007705D02*
X16547619Y10007705D01*
X16547619Y10007705D02*
X16204761Y9207705D01*
X24485714Y11033896D02*
X24447618Y10995800D01*
X24447618Y10995800D02*
X24333333Y10957705D01*
X24333333Y10957705D02*
X24257142Y10957705D01*
X24257142Y10957705D02*
X24142856Y10995800D01*
X24142856Y10995800D02*
X24066666Y11071991D01*
X24066666Y11071991D02*
X24028571Y11148181D01*
X24028571Y11148181D02*
X23990475Y11300562D01*
X23990475Y11300562D02*
X23990475Y11414848D01*
X23990475Y11414848D02*
X24028571Y11567229D01*
X24028571Y11567229D02*
X24066666Y11643420D01*
X24066666Y11643420D02*
X24142856Y11719610D01*
X24142856Y11719610D02*
X24257142Y11757705D01*
X24257142Y11757705D02*
X24333333Y11757705D01*
X24333333Y11757705D02*
X24447618Y11719610D01*
X24447618Y11719610D02*
X24485714Y11681515D01*
X24790475Y11681515D02*
X24828571Y11719610D01*
X24828571Y11719610D02*
X24904761Y11757705D01*
X24904761Y11757705D02*
X25095237Y11757705D01*
X25095237Y11757705D02*
X25171428Y11719610D01*
X25171428Y11719610D02*
X25209523Y11681515D01*
X25209523Y11681515D02*
X25247618Y11605324D01*
X25247618Y11605324D02*
X25247618Y11529134D01*
X25247618Y11529134D02*
X25209523Y11414848D01*
X25209523Y11414848D02*
X24752380Y10957705D01*
X24752380Y10957705D02*
X25247618Y10957705D01*
X25742857Y11757705D02*
X25819047Y11757705D01*
X25819047Y11757705D02*
X25895238Y11719610D01*
X25895238Y11719610D02*
X25933333Y11681515D01*
X25933333Y11681515D02*
X25971428Y11605324D01*
X25971428Y11605324D02*
X26009523Y11452943D01*
X26009523Y11452943D02*
X26009523Y11262467D01*
X26009523Y11262467D02*
X25971428Y11110086D01*
X25971428Y11110086D02*
X25933333Y11033896D01*
X25933333Y11033896D02*
X25895238Y10995800D01*
X25895238Y10995800D02*
X25819047Y10957705D01*
X25819047Y10957705D02*
X25742857Y10957705D01*
X25742857Y10957705D02*
X25666666Y10995800D01*
X25666666Y10995800D02*
X25628571Y11033896D01*
X25628571Y11033896D02*
X25590476Y11110086D01*
X25590476Y11110086D02*
X25552380Y11262467D01*
X25552380Y11262467D02*
X25552380Y11452943D01*
X25552380Y11452943D02*
X25590476Y11605324D01*
X25590476Y11605324D02*
X25628571Y11681515D01*
X25628571Y11681515D02*
X25666666Y11719610D01*
X25666666Y11719610D02*
X25742857Y11757705D01*
X36366667Y11533896D02*
X36328571Y11495800D01*
X36328571Y11495800D02*
X36214286Y11457705D01*
X36214286Y11457705D02*
X36138095Y11457705D01*
X36138095Y11457705D02*
X36023809Y11495800D01*
X36023809Y11495800D02*
X35947619Y11571991D01*
X35947619Y11571991D02*
X35909524Y11648181D01*
X35909524Y11648181D02*
X35871428Y11800562D01*
X35871428Y11800562D02*
X35871428Y11914848D01*
X35871428Y11914848D02*
X35909524Y12067229D01*
X35909524Y12067229D02*
X35947619Y12143420D01*
X35947619Y12143420D02*
X36023809Y12219610D01*
X36023809Y12219610D02*
X36138095Y12257705D01*
X36138095Y12257705D02*
X36214286Y12257705D01*
X36214286Y12257705D02*
X36328571Y12219610D01*
X36328571Y12219610D02*
X36366667Y12181515D01*
X37052381Y12257705D02*
X36900000Y12257705D01*
X36900000Y12257705D02*
X36823809Y12219610D01*
X36823809Y12219610D02*
X36785714Y12181515D01*
X36785714Y12181515D02*
X36709524Y12067229D01*
X36709524Y12067229D02*
X36671428Y11914848D01*
X36671428Y11914848D02*
X36671428Y11610086D01*
X36671428Y11610086D02*
X36709524Y11533896D01*
X36709524Y11533896D02*
X36747619Y11495800D01*
X36747619Y11495800D02*
X36823809Y11457705D01*
X36823809Y11457705D02*
X36976190Y11457705D01*
X36976190Y11457705D02*
X37052381Y11495800D01*
X37052381Y11495800D02*
X37090476Y11533896D01*
X37090476Y11533896D02*
X37128571Y11610086D01*
X37128571Y11610086D02*
X37128571Y11800562D01*
X37128571Y11800562D02*
X37090476Y11876753D01*
X37090476Y11876753D02*
X37052381Y11914848D01*
X37052381Y11914848D02*
X36976190Y11952943D01*
X36976190Y11952943D02*
X36823809Y11952943D01*
X36823809Y11952943D02*
X36747619Y11914848D01*
X36747619Y11914848D02*
X36709524Y11876753D01*
X36709524Y11876753D02*
X36671428Y11800562D01*
X8682295Y8366668D02*
X8301342Y8100001D01*
X8682295Y7909525D02*
X7882295Y7909525D01*
X7882295Y7909525D02*
X7882295Y8214287D01*
X7882295Y8214287D02*
X7920390Y8290477D01*
X7920390Y8290477D02*
X7958485Y8328572D01*
X7958485Y8328572D02*
X8034676Y8366668D01*
X8034676Y8366668D02*
X8148961Y8366668D01*
X8148961Y8366668D02*
X8225152Y8328572D01*
X8225152Y8328572D02*
X8263247Y8290477D01*
X8263247Y8290477D02*
X8301342Y8214287D01*
X8301342Y8214287D02*
X8301342Y7909525D01*
X8682295Y8747620D02*
X8682295Y8900001D01*
X8682295Y8900001D02*
X8644200Y8976191D01*
X8644200Y8976191D02*
X8606104Y9014287D01*
X8606104Y9014287D02*
X8491819Y9090477D01*
X8491819Y9090477D02*
X8339438Y9128572D01*
X8339438Y9128572D02*
X8034676Y9128572D01*
X8034676Y9128572D02*
X7958485Y9090477D01*
X7958485Y9090477D02*
X7920390Y9052382D01*
X7920390Y9052382D02*
X7882295Y8976191D01*
X7882295Y8976191D02*
X7882295Y8823810D01*
X7882295Y8823810D02*
X7920390Y8747620D01*
X7920390Y8747620D02*
X7958485Y8709525D01*
X7958485Y8709525D02*
X8034676Y8671429D01*
X8034676Y8671429D02*
X8225152Y8671429D01*
X8225152Y8671429D02*
X8301342Y8709525D01*
X8301342Y8709525D02*
X8339438Y8747620D01*
X8339438Y8747620D02*
X8377533Y8823810D01*
X8377533Y8823810D02*
X8377533Y8976191D01*
X8377533Y8976191D02*
X8339438Y9052382D01*
X8339438Y9052382D02*
X8301342Y9090477D01*
X8301342Y9090477D02*
X8225152Y9128572D01*
X32112295Y10616668D02*
X31731342Y10350001D01*
X32112295Y10159525D02*
X31312295Y10159525D01*
X31312295Y10159525D02*
X31312295Y10464287D01*
X31312295Y10464287D02*
X31350390Y10540477D01*
X31350390Y10540477D02*
X31388485Y10578572D01*
X31388485Y10578572D02*
X31464676Y10616668D01*
X31464676Y10616668D02*
X31578961Y10616668D01*
X31578961Y10616668D02*
X31655152Y10578572D01*
X31655152Y10578572D02*
X31693247Y10540477D01*
X31693247Y10540477D02*
X31731342Y10464287D01*
X31731342Y10464287D02*
X31731342Y10159525D01*
X31578961Y11302382D02*
X32112295Y11302382D01*
X31274200Y11111906D02*
X31845628Y10921429D01*
X31845628Y10921429D02*
X31845628Y11416668D01*
X6983333Y10687705D02*
X6983333Y10116277D01*
X6983333Y10116277D02*
X6945238Y10001991D01*
X6945238Y10001991D02*
X6869047Y9925800D01*
X6869047Y9925800D02*
X6754762Y9887705D01*
X6754762Y9887705D02*
X6678571Y9887705D01*
X7783333Y9887705D02*
X7326190Y9887705D01*
X7554762Y9887705D02*
X7554762Y10687705D01*
X7554762Y10687705D02*
X7478571Y10573420D01*
X7478571Y10573420D02*
X7402381Y10497229D01*
X7402381Y10497229D02*
X7326190Y10459134D01*
X49536104Y21866668D02*
X49574200Y21828572D01*
X49574200Y21828572D02*
X49612295Y21714287D01*
X49612295Y21714287D02*
X49612295Y21638096D01*
X49612295Y21638096D02*
X49574200Y21523810D01*
X49574200Y21523810D02*
X49498009Y21447620D01*
X49498009Y21447620D02*
X49421819Y21409525D01*
X49421819Y21409525D02*
X49269438Y21371429D01*
X49269438Y21371429D02*
X49155152Y21371429D01*
X49155152Y21371429D02*
X49002771Y21409525D01*
X49002771Y21409525D02*
X48926580Y21447620D01*
X48926580Y21447620D02*
X48850390Y21523810D01*
X48850390Y21523810D02*
X48812295Y21638096D01*
X48812295Y21638096D02*
X48812295Y21714287D01*
X48812295Y21714287D02*
X48850390Y21828572D01*
X48850390Y21828572D02*
X48888485Y21866668D01*
X49612295Y22628572D02*
X49612295Y22171429D01*
X49612295Y22400001D02*
X48812295Y22400001D01*
X48812295Y22400001D02*
X48926580Y22323810D01*
X48926580Y22323810D02*
X49002771Y22247620D01*
X49002771Y22247620D02*
X49040866Y22171429D01*
X18485714Y3963896D02*
X18447618Y3925800D01*
X18447618Y3925800D02*
X18333333Y3887705D01*
X18333333Y3887705D02*
X18257142Y3887705D01*
X18257142Y3887705D02*
X18142856Y3925800D01*
X18142856Y3925800D02*
X18066666Y4001991D01*
X18066666Y4001991D02*
X18028571Y4078181D01*
X18028571Y4078181D02*
X17990475Y4230562D01*
X17990475Y4230562D02*
X17990475Y4344848D01*
X17990475Y4344848D02*
X18028571Y4497229D01*
X18028571Y4497229D02*
X18066666Y4573420D01*
X18066666Y4573420D02*
X18142856Y4649610D01*
X18142856Y4649610D02*
X18257142Y4687705D01*
X18257142Y4687705D02*
X18333333Y4687705D01*
X18333333Y4687705D02*
X18447618Y4649610D01*
X18447618Y4649610D02*
X18485714Y4611515D01*
X19247618Y3887705D02*
X18790475Y3887705D01*
X19019047Y3887705D02*
X19019047Y4687705D01*
X19019047Y4687705D02*
X18942856Y4573420D01*
X18942856Y4573420D02*
X18866666Y4497229D01*
X18866666Y4497229D02*
X18790475Y4459134D01*
X19628571Y3887705D02*
X19780952Y3887705D01*
X19780952Y3887705D02*
X19857142Y3925800D01*
X19857142Y3925800D02*
X19895238Y3963896D01*
X19895238Y3963896D02*
X19971428Y4078181D01*
X19971428Y4078181D02*
X20009523Y4230562D01*
X20009523Y4230562D02*
X20009523Y4535324D01*
X20009523Y4535324D02*
X19971428Y4611515D01*
X19971428Y4611515D02*
X19933333Y4649610D01*
X19933333Y4649610D02*
X19857142Y4687705D01*
X19857142Y4687705D02*
X19704761Y4687705D01*
X19704761Y4687705D02*
X19628571Y4649610D01*
X19628571Y4649610D02*
X19590476Y4611515D01*
X19590476Y4611515D02*
X19552380Y4535324D01*
X19552380Y4535324D02*
X19552380Y4344848D01*
X19552380Y4344848D02*
X19590476Y4268658D01*
X19590476Y4268658D02*
X19628571Y4230562D01*
X19628571Y4230562D02*
X19704761Y4192467D01*
X19704761Y4192467D02*
X19857142Y4192467D01*
X19857142Y4192467D02*
X19933333Y4230562D01*
X19933333Y4230562D02*
X19971428Y4268658D01*
X19971428Y4268658D02*
X20009523Y4344848D01*
X33390476Y14187705D02*
X33390476Y13540086D01*
X33390476Y13540086D02*
X33428571Y13463896D01*
X33428571Y13463896D02*
X33466666Y13425800D01*
X33466666Y13425800D02*
X33542857Y13387705D01*
X33542857Y13387705D02*
X33695238Y13387705D01*
X33695238Y13387705D02*
X33771428Y13425800D01*
X33771428Y13425800D02*
X33809523Y13463896D01*
X33809523Y13463896D02*
X33847619Y13540086D01*
X33847619Y13540086D02*
X33847619Y14187705D01*
X34266666Y13387705D02*
X34419047Y13387705D01*
X34419047Y13387705D02*
X34495237Y13425800D01*
X34495237Y13425800D02*
X34533333Y13463896D01*
X34533333Y13463896D02*
X34609523Y13578181D01*
X34609523Y13578181D02*
X34647618Y13730562D01*
X34647618Y13730562D02*
X34647618Y14035324D01*
X34647618Y14035324D02*
X34609523Y14111515D01*
X34609523Y14111515D02*
X34571428Y14149610D01*
X34571428Y14149610D02*
X34495237Y14187705D01*
X34495237Y14187705D02*
X34342856Y14187705D01*
X34342856Y14187705D02*
X34266666Y14149610D01*
X34266666Y14149610D02*
X34228571Y14111515D01*
X34228571Y14111515D02*
X34190475Y14035324D01*
X34190475Y14035324D02*
X34190475Y13844848D01*
X34190475Y13844848D02*
X34228571Y13768658D01*
X34228571Y13768658D02*
X34266666Y13730562D01*
X34266666Y13730562D02*
X34342856Y13692467D01*
X34342856Y13692467D02*
X34495237Y13692467D01*
X34495237Y13692467D02*
X34571428Y13730562D01*
X34571428Y13730562D02*
X34609523Y13768658D01*
X34609523Y13768658D02*
X34647618Y13844848D01*
X17640476Y17187705D02*
X17640476Y16540086D01*
X17640476Y16540086D02*
X17678571Y16463896D01*
X17678571Y16463896D02*
X17716666Y16425800D01*
X17716666Y16425800D02*
X17792857Y16387705D01*
X17792857Y16387705D02*
X17945238Y16387705D01*
X17945238Y16387705D02*
X18021428Y16425800D01*
X18021428Y16425800D02*
X18059523Y16463896D01*
X18059523Y16463896D02*
X18097619Y16540086D01*
X18097619Y16540086D02*
X18097619Y17187705D01*
X18821428Y17187705D02*
X18669047Y17187705D01*
X18669047Y17187705D02*
X18592856Y17149610D01*
X18592856Y17149610D02*
X18554761Y17111515D01*
X18554761Y17111515D02*
X18478571Y16997229D01*
X18478571Y16997229D02*
X18440475Y16844848D01*
X18440475Y16844848D02*
X18440475Y16540086D01*
X18440475Y16540086D02*
X18478571Y16463896D01*
X18478571Y16463896D02*
X18516666Y16425800D01*
X18516666Y16425800D02*
X18592856Y16387705D01*
X18592856Y16387705D02*
X18745237Y16387705D01*
X18745237Y16387705D02*
X18821428Y16425800D01*
X18821428Y16425800D02*
X18859523Y16463896D01*
X18859523Y16463896D02*
X18897618Y16540086D01*
X18897618Y16540086D02*
X18897618Y16730562D01*
X18897618Y16730562D02*
X18859523Y16806753D01*
X18859523Y16806753D02*
X18821428Y16844848D01*
X18821428Y16844848D02*
X18745237Y16882943D01*
X18745237Y16882943D02*
X18592856Y16882943D01*
X18592856Y16882943D02*
X18516666Y16844848D01*
X18516666Y16844848D02*
X18478571Y16806753D01*
X18478571Y16806753D02*
X18440475Y16730562D01*
X45193247Y21833334D02*
X45193247Y21566668D01*
X45612295Y21566668D02*
X44812295Y21566668D01*
X44812295Y21566668D02*
X44812295Y21947620D01*
X45193247Y22519048D02*
X45231342Y22633334D01*
X45231342Y22633334D02*
X45269438Y22671429D01*
X45269438Y22671429D02*
X45345628Y22709525D01*
X45345628Y22709525D02*
X45459914Y22709525D01*
X45459914Y22709525D02*
X45536104Y22671429D01*
X45536104Y22671429D02*
X45574200Y22633334D01*
X45574200Y22633334D02*
X45612295Y22557144D01*
X45612295Y22557144D02*
X45612295Y22252382D01*
X45612295Y22252382D02*
X44812295Y22252382D01*
X44812295Y22252382D02*
X44812295Y22519048D01*
X44812295Y22519048D02*
X44850390Y22595239D01*
X44850390Y22595239D02*
X44888485Y22633334D01*
X44888485Y22633334D02*
X44964676Y22671429D01*
X44964676Y22671429D02*
X45040866Y22671429D01*
X45040866Y22671429D02*
X45117057Y22633334D01*
X45117057Y22633334D02*
X45155152Y22595239D01*
X45155152Y22595239D02*
X45193247Y22519048D01*
X45193247Y22519048D02*
X45193247Y22252382D01*
X44888485Y23014286D02*
X44850390Y23052382D01*
X44850390Y23052382D02*
X44812295Y23128572D01*
X44812295Y23128572D02*
X44812295Y23319048D01*
X44812295Y23319048D02*
X44850390Y23395239D01*
X44850390Y23395239D02*
X44888485Y23433334D01*
X44888485Y23433334D02*
X44964676Y23471429D01*
X44964676Y23471429D02*
X45040866Y23471429D01*
X45040866Y23471429D02*
X45155152Y23433334D01*
X45155152Y23433334D02*
X45612295Y22976191D01*
X45612295Y22976191D02*
X45612295Y23471429D01*
X23612295Y10235715D02*
X23231342Y9969048D01*
X23612295Y9778572D02*
X22812295Y9778572D01*
X22812295Y9778572D02*
X22812295Y10083334D01*
X22812295Y10083334D02*
X22850390Y10159524D01*
X22850390Y10159524D02*
X22888485Y10197619D01*
X22888485Y10197619D02*
X22964676Y10235715D01*
X22964676Y10235715D02*
X23078961Y10235715D01*
X23078961Y10235715D02*
X23155152Y10197619D01*
X23155152Y10197619D02*
X23193247Y10159524D01*
X23193247Y10159524D02*
X23231342Y10083334D01*
X23231342Y10083334D02*
X23231342Y9778572D01*
X23612295Y10997619D02*
X23612295Y10540476D01*
X23612295Y10769048D02*
X22812295Y10769048D01*
X22812295Y10769048D02*
X22926580Y10692857D01*
X22926580Y10692857D02*
X23002771Y10616667D01*
X23002771Y10616667D02*
X23040866Y10540476D01*
X22812295Y11264286D02*
X22812295Y11797620D01*
X22812295Y11797620D02*
X23612295Y11454762D01*
X31786104Y18485715D02*
X31824200Y18447619D01*
X31824200Y18447619D02*
X31862295Y18333334D01*
X31862295Y18333334D02*
X31862295Y18257143D01*
X31862295Y18257143D02*
X31824200Y18142857D01*
X31824200Y18142857D02*
X31748009Y18066667D01*
X31748009Y18066667D02*
X31671819Y18028572D01*
X31671819Y18028572D02*
X31519438Y17990476D01*
X31519438Y17990476D02*
X31405152Y17990476D01*
X31405152Y17990476D02*
X31252771Y18028572D01*
X31252771Y18028572D02*
X31176580Y18066667D01*
X31176580Y18066667D02*
X31100390Y18142857D01*
X31100390Y18142857D02*
X31062295Y18257143D01*
X31062295Y18257143D02*
X31062295Y18333334D01*
X31062295Y18333334D02*
X31100390Y18447619D01*
X31100390Y18447619D02*
X31138485Y18485715D01*
X31862295Y19247619D02*
X31862295Y18790476D01*
X31862295Y19019048D02*
X31062295Y19019048D01*
X31062295Y19019048D02*
X31176580Y18942857D01*
X31176580Y18942857D02*
X31252771Y18866667D01*
X31252771Y18866667D02*
X31290866Y18790476D01*
X31062295Y19742858D02*
X31062295Y19819048D01*
X31062295Y19819048D02*
X31100390Y19895239D01*
X31100390Y19895239D02*
X31138485Y19933334D01*
X31138485Y19933334D02*
X31214676Y19971429D01*
X31214676Y19971429D02*
X31367057Y20009524D01*
X31367057Y20009524D02*
X31557533Y20009524D01*
X31557533Y20009524D02*
X31709914Y19971429D01*
X31709914Y19971429D02*
X31786104Y19933334D01*
X31786104Y19933334D02*
X31824200Y19895239D01*
X31824200Y19895239D02*
X31862295Y19819048D01*
X31862295Y19819048D02*
X31862295Y19742858D01*
X31862295Y19742858D02*
X31824200Y19666667D01*
X31824200Y19666667D02*
X31786104Y19628572D01*
X31786104Y19628572D02*
X31709914Y19590477D01*
X31709914Y19590477D02*
X31557533Y19552381D01*
X31557533Y19552381D02*
X31367057Y19552381D01*
X31367057Y19552381D02*
X31214676Y19590477D01*
X31214676Y19590477D02*
X31138485Y19628572D01*
X31138485Y19628572D02*
X31100390Y19666667D01*
X31100390Y19666667D02*
X31062295Y19742858D01*
X40536104Y19366668D02*
X40574200Y19328572D01*
X40574200Y19328572D02*
X40612295Y19214287D01*
X40612295Y19214287D02*
X40612295Y19138096D01*
X40612295Y19138096D02*
X40574200Y19023810D01*
X40574200Y19023810D02*
X40498009Y18947620D01*
X40498009Y18947620D02*
X40421819Y18909525D01*
X40421819Y18909525D02*
X40269438Y18871429D01*
X40269438Y18871429D02*
X40155152Y18871429D01*
X40155152Y18871429D02*
X40002771Y18909525D01*
X40002771Y18909525D02*
X39926580Y18947620D01*
X39926580Y18947620D02*
X39850390Y19023810D01*
X39850390Y19023810D02*
X39812295Y19138096D01*
X39812295Y19138096D02*
X39812295Y19214287D01*
X39812295Y19214287D02*
X39850390Y19328572D01*
X39850390Y19328572D02*
X39888485Y19366668D01*
X39812295Y20090477D02*
X39812295Y19709525D01*
X39812295Y19709525D02*
X40193247Y19671429D01*
X40193247Y19671429D02*
X40155152Y19709525D01*
X40155152Y19709525D02*
X40117057Y19785715D01*
X40117057Y19785715D02*
X40117057Y19976191D01*
X40117057Y19976191D02*
X40155152Y20052382D01*
X40155152Y20052382D02*
X40193247Y20090477D01*
X40193247Y20090477D02*
X40269438Y20128572D01*
X40269438Y20128572D02*
X40459914Y20128572D01*
X40459914Y20128572D02*
X40536104Y20090477D01*
X40536104Y20090477D02*
X40574200Y20052382D01*
X40574200Y20052382D02*
X40612295Y19976191D01*
X40612295Y19976191D02*
X40612295Y19785715D01*
X40612295Y19785715D02*
X40574200Y19709525D01*
X40574200Y19709525D02*
X40536104Y19671429D01*
X47693247Y21583334D02*
X47693247Y21316668D01*
X48112295Y21316668D02*
X47312295Y21316668D01*
X47312295Y21316668D02*
X47312295Y21697620D01*
X47693247Y22269048D02*
X47731342Y22383334D01*
X47731342Y22383334D02*
X47769438Y22421429D01*
X47769438Y22421429D02*
X47845628Y22459525D01*
X47845628Y22459525D02*
X47959914Y22459525D01*
X47959914Y22459525D02*
X48036104Y22421429D01*
X48036104Y22421429D02*
X48074200Y22383334D01*
X48074200Y22383334D02*
X48112295Y22307144D01*
X48112295Y22307144D02*
X48112295Y22002382D01*
X48112295Y22002382D02*
X47312295Y22002382D01*
X47312295Y22002382D02*
X47312295Y22269048D01*
X47312295Y22269048D02*
X47350390Y22345239D01*
X47350390Y22345239D02*
X47388485Y22383334D01*
X47388485Y22383334D02*
X47464676Y22421429D01*
X47464676Y22421429D02*
X47540866Y22421429D01*
X47540866Y22421429D02*
X47617057Y22383334D01*
X47617057Y22383334D02*
X47655152Y22345239D01*
X47655152Y22345239D02*
X47693247Y22269048D01*
X47693247Y22269048D02*
X47693247Y22002382D01*
X48112295Y23221429D02*
X48112295Y22764286D01*
X48112295Y22992858D02*
X47312295Y22992858D01*
X47312295Y22992858D02*
X47426580Y22916667D01*
X47426580Y22916667D02*
X47502771Y22840477D01*
X47502771Y22840477D02*
X47540866Y22764286D01*
X11735714Y22213896D02*
X11697618Y22175800D01*
X11697618Y22175800D02*
X11583333Y22137705D01*
X11583333Y22137705D02*
X11507142Y22137705D01*
X11507142Y22137705D02*
X11392856Y22175800D01*
X11392856Y22175800D02*
X11316666Y22251991D01*
X11316666Y22251991D02*
X11278571Y22328181D01*
X11278571Y22328181D02*
X11240475Y22480562D01*
X11240475Y22480562D02*
X11240475Y22594848D01*
X11240475Y22594848D02*
X11278571Y22747229D01*
X11278571Y22747229D02*
X11316666Y22823420D01*
X11316666Y22823420D02*
X11392856Y22899610D01*
X11392856Y22899610D02*
X11507142Y22937705D01*
X11507142Y22937705D02*
X11583333Y22937705D01*
X11583333Y22937705D02*
X11697618Y22899610D01*
X11697618Y22899610D02*
X11735714Y22861515D01*
X12497618Y22137705D02*
X12040475Y22137705D01*
X12269047Y22137705D02*
X12269047Y22937705D01*
X12269047Y22937705D02*
X12192856Y22823420D01*
X12192856Y22823420D02*
X12116666Y22747229D01*
X12116666Y22747229D02*
X12040475Y22709134D01*
X13183333Y22937705D02*
X13030952Y22937705D01*
X13030952Y22937705D02*
X12954761Y22899610D01*
X12954761Y22899610D02*
X12916666Y22861515D01*
X12916666Y22861515D02*
X12840476Y22747229D01*
X12840476Y22747229D02*
X12802380Y22594848D01*
X12802380Y22594848D02*
X12802380Y22290086D01*
X12802380Y22290086D02*
X12840476Y22213896D01*
X12840476Y22213896D02*
X12878571Y22175800D01*
X12878571Y22175800D02*
X12954761Y22137705D01*
X12954761Y22137705D02*
X13107142Y22137705D01*
X13107142Y22137705D02*
X13183333Y22175800D01*
X13183333Y22175800D02*
X13221428Y22213896D01*
X13221428Y22213896D02*
X13259523Y22290086D01*
X13259523Y22290086D02*
X13259523Y22480562D01*
X13259523Y22480562D02*
X13221428Y22556753D01*
X13221428Y22556753D02*
X13183333Y22594848D01*
X13183333Y22594848D02*
X13107142Y22632943D01*
X13107142Y22632943D02*
X12954761Y22632943D01*
X12954761Y22632943D02*
X12878571Y22594848D01*
X12878571Y22594848D02*
X12840476Y22556753D01*
X12840476Y22556753D02*
X12802380Y22480562D01*
X18485714Y2887705D02*
X18219047Y3268658D01*
X18028571Y2887705D02*
X18028571Y3687705D01*
X18028571Y3687705D02*
X18333333Y3687705D01*
X18333333Y3687705D02*
X18409523Y3649610D01*
X18409523Y3649610D02*
X18447618Y3611515D01*
X18447618Y3611515D02*
X18485714Y3535324D01*
X18485714Y3535324D02*
X18485714Y3421039D01*
X18485714Y3421039D02*
X18447618Y3344848D01*
X18447618Y3344848D02*
X18409523Y3306753D01*
X18409523Y3306753D02*
X18333333Y3268658D01*
X18333333Y3268658D02*
X18028571Y3268658D01*
X19247618Y2887705D02*
X18790475Y2887705D01*
X19019047Y2887705D02*
X19019047Y3687705D01*
X19019047Y3687705D02*
X18942856Y3573420D01*
X18942856Y3573420D02*
X18866666Y3497229D01*
X18866666Y3497229D02*
X18790475Y3459134D01*
X19742857Y3687705D02*
X19819047Y3687705D01*
X19819047Y3687705D02*
X19895238Y3649610D01*
X19895238Y3649610D02*
X19933333Y3611515D01*
X19933333Y3611515D02*
X19971428Y3535324D01*
X19971428Y3535324D02*
X20009523Y3382943D01*
X20009523Y3382943D02*
X20009523Y3192467D01*
X20009523Y3192467D02*
X19971428Y3040086D01*
X19971428Y3040086D02*
X19933333Y2963896D01*
X19933333Y2963896D02*
X19895238Y2925800D01*
X19895238Y2925800D02*
X19819047Y2887705D01*
X19819047Y2887705D02*
X19742857Y2887705D01*
X19742857Y2887705D02*
X19666666Y2925800D01*
X19666666Y2925800D02*
X19628571Y2963896D01*
X19628571Y2963896D02*
X19590476Y3040086D01*
X19590476Y3040086D02*
X19552380Y3192467D01*
X19552380Y3192467D02*
X19552380Y3382943D01*
X19552380Y3382943D02*
X19590476Y3535324D01*
X19590476Y3535324D02*
X19628571Y3611515D01*
X19628571Y3611515D02*
X19666666Y3649610D01*
X19666666Y3649610D02*
X19742857Y3687705D01*
X24862295Y2616668D02*
X24481342Y2350001D01*
X24862295Y2159525D02*
X24062295Y2159525D01*
X24062295Y2159525D02*
X24062295Y2464287D01*
X24062295Y2464287D02*
X24100390Y2540477D01*
X24100390Y2540477D02*
X24138485Y2578572D01*
X24138485Y2578572D02*
X24214676Y2616668D01*
X24214676Y2616668D02*
X24328961Y2616668D01*
X24328961Y2616668D02*
X24405152Y2578572D01*
X24405152Y2578572D02*
X24443247Y2540477D01*
X24443247Y2540477D02*
X24481342Y2464287D01*
X24481342Y2464287D02*
X24481342Y2159525D01*
X24862295Y3378572D02*
X24862295Y2921429D01*
X24862295Y3150001D02*
X24062295Y3150001D01*
X24062295Y3150001D02*
X24176580Y3073810D01*
X24176580Y3073810D02*
X24252771Y2997620D01*
X24252771Y2997620D02*
X24290866Y2921429D01*
X26985714Y10213896D02*
X26947618Y10175800D01*
X26947618Y10175800D02*
X26833333Y10137705D01*
X26833333Y10137705D02*
X26757142Y10137705D01*
X26757142Y10137705D02*
X26642856Y10175800D01*
X26642856Y10175800D02*
X26566666Y10251991D01*
X26566666Y10251991D02*
X26528571Y10328181D01*
X26528571Y10328181D02*
X26490475Y10480562D01*
X26490475Y10480562D02*
X26490475Y10594848D01*
X26490475Y10594848D02*
X26528571Y10747229D01*
X26528571Y10747229D02*
X26566666Y10823420D01*
X26566666Y10823420D02*
X26642856Y10899610D01*
X26642856Y10899610D02*
X26757142Y10937705D01*
X26757142Y10937705D02*
X26833333Y10937705D01*
X26833333Y10937705D02*
X26947618Y10899610D01*
X26947618Y10899610D02*
X26985714Y10861515D01*
X27747618Y10137705D02*
X27290475Y10137705D01*
X27519047Y10137705D02*
X27519047Y10937705D01*
X27519047Y10937705D02*
X27442856Y10823420D01*
X27442856Y10823420D02*
X27366666Y10747229D01*
X27366666Y10747229D02*
X27290475Y10709134D01*
X28052380Y10861515D02*
X28090476Y10899610D01*
X28090476Y10899610D02*
X28166666Y10937705D01*
X28166666Y10937705D02*
X28357142Y10937705D01*
X28357142Y10937705D02*
X28433333Y10899610D01*
X28433333Y10899610D02*
X28471428Y10861515D01*
X28471428Y10861515D02*
X28509523Y10785324D01*
X28509523Y10785324D02*
X28509523Y10709134D01*
X28509523Y10709134D02*
X28471428Y10594848D01*
X28471428Y10594848D02*
X28014285Y10137705D01*
X28014285Y10137705D02*
X28509523Y10137705D01*
X31485714Y21463896D02*
X31447618Y21425800D01*
X31447618Y21425800D02*
X31333333Y21387705D01*
X31333333Y21387705D02*
X31257142Y21387705D01*
X31257142Y21387705D02*
X31142856Y21425800D01*
X31142856Y21425800D02*
X31066666Y21501991D01*
X31066666Y21501991D02*
X31028571Y21578181D01*
X31028571Y21578181D02*
X30990475Y21730562D01*
X30990475Y21730562D02*
X30990475Y21844848D01*
X30990475Y21844848D02*
X31028571Y21997229D01*
X31028571Y21997229D02*
X31066666Y22073420D01*
X31066666Y22073420D02*
X31142856Y22149610D01*
X31142856Y22149610D02*
X31257142Y22187705D01*
X31257142Y22187705D02*
X31333333Y22187705D01*
X31333333Y22187705D02*
X31447618Y22149610D01*
X31447618Y22149610D02*
X31485714Y22111515D01*
X31790475Y22111515D02*
X31828571Y22149610D01*
X31828571Y22149610D02*
X31904761Y22187705D01*
X31904761Y22187705D02*
X32095237Y22187705D01*
X32095237Y22187705D02*
X32171428Y22149610D01*
X32171428Y22149610D02*
X32209523Y22111515D01*
X32209523Y22111515D02*
X32247618Y22035324D01*
X32247618Y22035324D02*
X32247618Y21959134D01*
X32247618Y21959134D02*
X32209523Y21844848D01*
X32209523Y21844848D02*
X31752380Y21387705D01*
X31752380Y21387705D02*
X32247618Y21387705D01*
X32971428Y22187705D02*
X32590476Y22187705D01*
X32590476Y22187705D02*
X32552380Y21806753D01*
X32552380Y21806753D02*
X32590476Y21844848D01*
X32590476Y21844848D02*
X32666666Y21882943D01*
X32666666Y21882943D02*
X32857142Y21882943D01*
X32857142Y21882943D02*
X32933333Y21844848D01*
X32933333Y21844848D02*
X32971428Y21806753D01*
X32971428Y21806753D02*
X33009523Y21730562D01*
X33009523Y21730562D02*
X33009523Y21540086D01*
X33009523Y21540086D02*
X32971428Y21463896D01*
X32971428Y21463896D02*
X32933333Y21425800D01*
X32933333Y21425800D02*
X32857142Y21387705D01*
X32857142Y21387705D02*
X32666666Y21387705D01*
X32666666Y21387705D02*
X32590476Y21425800D01*
X32590476Y21425800D02*
X32552380Y21463896D01*
X33735714Y5463896D02*
X33697618Y5425800D01*
X33697618Y5425800D02*
X33583333Y5387705D01*
X33583333Y5387705D02*
X33507142Y5387705D01*
X33507142Y5387705D02*
X33392856Y5425800D01*
X33392856Y5425800D02*
X33316666Y5501991D01*
X33316666Y5501991D02*
X33278571Y5578181D01*
X33278571Y5578181D02*
X33240475Y5730562D01*
X33240475Y5730562D02*
X33240475Y5844848D01*
X33240475Y5844848D02*
X33278571Y5997229D01*
X33278571Y5997229D02*
X33316666Y6073420D01*
X33316666Y6073420D02*
X33392856Y6149610D01*
X33392856Y6149610D02*
X33507142Y6187705D01*
X33507142Y6187705D02*
X33583333Y6187705D01*
X33583333Y6187705D02*
X33697618Y6149610D01*
X33697618Y6149610D02*
X33735714Y6111515D01*
X34497618Y5387705D02*
X34040475Y5387705D01*
X34269047Y5387705D02*
X34269047Y6187705D01*
X34269047Y6187705D02*
X34192856Y6073420D01*
X34192856Y6073420D02*
X34116666Y5997229D01*
X34116666Y5997229D02*
X34040475Y5959134D01*
X35183333Y5921039D02*
X35183333Y5387705D01*
X34992857Y6225800D02*
X34802380Y5654372D01*
X34802380Y5654372D02*
X35297619Y5654372D01*
X26140476Y18687705D02*
X26140476Y18040086D01*
X26140476Y18040086D02*
X26178571Y17963896D01*
X26178571Y17963896D02*
X26216666Y17925800D01*
X26216666Y17925800D02*
X26292857Y17887705D01*
X26292857Y17887705D02*
X26445238Y17887705D01*
X26445238Y17887705D02*
X26521428Y17925800D01*
X26521428Y17925800D02*
X26559523Y17963896D01*
X26559523Y17963896D02*
X26597619Y18040086D01*
X26597619Y18040086D02*
X26597619Y18687705D01*
X27359523Y18687705D02*
X26978571Y18687705D01*
X26978571Y18687705D02*
X26940475Y18306753D01*
X26940475Y18306753D02*
X26978571Y18344848D01*
X26978571Y18344848D02*
X27054761Y18382943D01*
X27054761Y18382943D02*
X27245237Y18382943D01*
X27245237Y18382943D02*
X27321428Y18344848D01*
X27321428Y18344848D02*
X27359523Y18306753D01*
X27359523Y18306753D02*
X27397618Y18230562D01*
X27397618Y18230562D02*
X27397618Y18040086D01*
X27397618Y18040086D02*
X27359523Y17963896D01*
X27359523Y17963896D02*
X27321428Y17925800D01*
X27321428Y17925800D02*
X27245237Y17887705D01*
X27245237Y17887705D02*
X27054761Y17887705D01*
X27054761Y17887705D02*
X26978571Y17925800D01*
X26978571Y17925800D02*
X26940475Y17963896D01*
X42536104Y21866668D02*
X42574200Y21828572D01*
X42574200Y21828572D02*
X42612295Y21714287D01*
X42612295Y21714287D02*
X42612295Y21638096D01*
X42612295Y21638096D02*
X42574200Y21523810D01*
X42574200Y21523810D02*
X42498009Y21447620D01*
X42498009Y21447620D02*
X42421819Y21409525D01*
X42421819Y21409525D02*
X42269438Y21371429D01*
X42269438Y21371429D02*
X42155152Y21371429D01*
X42155152Y21371429D02*
X42002771Y21409525D01*
X42002771Y21409525D02*
X41926580Y21447620D01*
X41926580Y21447620D02*
X41850390Y21523810D01*
X41850390Y21523810D02*
X41812295Y21638096D01*
X41812295Y21638096D02*
X41812295Y21714287D01*
X41812295Y21714287D02*
X41850390Y21828572D01*
X41850390Y21828572D02*
X41888485Y21866668D01*
X41812295Y22133334D02*
X41812295Y22628572D01*
X41812295Y22628572D02*
X42117057Y22361906D01*
X42117057Y22361906D02*
X42117057Y22476191D01*
X42117057Y22476191D02*
X42155152Y22552382D01*
X42155152Y22552382D02*
X42193247Y22590477D01*
X42193247Y22590477D02*
X42269438Y22628572D01*
X42269438Y22628572D02*
X42459914Y22628572D01*
X42459914Y22628572D02*
X42536104Y22590477D01*
X42536104Y22590477D02*
X42574200Y22552382D01*
X42574200Y22552382D02*
X42612295Y22476191D01*
X42612295Y22476191D02*
X42612295Y22247620D01*
X42612295Y22247620D02*
X42574200Y22171429D01*
X42574200Y22171429D02*
X42536104Y22133334D01*
X18485714Y1887705D02*
X18219047Y2268658D01*
X18028571Y1887705D02*
X18028571Y2687705D01*
X18028571Y2687705D02*
X18333333Y2687705D01*
X18333333Y2687705D02*
X18409523Y2649610D01*
X18409523Y2649610D02*
X18447618Y2611515D01*
X18447618Y2611515D02*
X18485714Y2535324D01*
X18485714Y2535324D02*
X18485714Y2421039D01*
X18485714Y2421039D02*
X18447618Y2344848D01*
X18447618Y2344848D02*
X18409523Y2306753D01*
X18409523Y2306753D02*
X18333333Y2268658D01*
X18333333Y2268658D02*
X18028571Y2268658D01*
X19247618Y1887705D02*
X18790475Y1887705D01*
X19019047Y1887705D02*
X19019047Y2687705D01*
X19019047Y2687705D02*
X18942856Y2573420D01*
X18942856Y2573420D02*
X18866666Y2497229D01*
X18866666Y2497229D02*
X18790475Y2459134D01*
X19933333Y2687705D02*
X19780952Y2687705D01*
X19780952Y2687705D02*
X19704761Y2649610D01*
X19704761Y2649610D02*
X19666666Y2611515D01*
X19666666Y2611515D02*
X19590476Y2497229D01*
X19590476Y2497229D02*
X19552380Y2344848D01*
X19552380Y2344848D02*
X19552380Y2040086D01*
X19552380Y2040086D02*
X19590476Y1963896D01*
X19590476Y1963896D02*
X19628571Y1925800D01*
X19628571Y1925800D02*
X19704761Y1887705D01*
X19704761Y1887705D02*
X19857142Y1887705D01*
X19857142Y1887705D02*
X19933333Y1925800D01*
X19933333Y1925800D02*
X19971428Y1963896D01*
X19971428Y1963896D02*
X20009523Y2040086D01*
X20009523Y2040086D02*
X20009523Y2230562D01*
X20009523Y2230562D02*
X19971428Y2306753D01*
X19971428Y2306753D02*
X19933333Y2344848D01*
X19933333Y2344848D02*
X19857142Y2382943D01*
X19857142Y2382943D02*
X19704761Y2382943D01*
X19704761Y2382943D02*
X19628571Y2344848D01*
X19628571Y2344848D02*
X19590476Y2306753D01*
X19590476Y2306753D02*
X19552380Y2230562D01*
X13362295Y9735715D02*
X12981342Y9469048D01*
X13362295Y9278572D02*
X12562295Y9278572D01*
X12562295Y9278572D02*
X12562295Y9583334D01*
X12562295Y9583334D02*
X12600390Y9659524D01*
X12600390Y9659524D02*
X12638485Y9697619D01*
X12638485Y9697619D02*
X12714676Y9735715D01*
X12714676Y9735715D02*
X12828961Y9735715D01*
X12828961Y9735715D02*
X12905152Y9697619D01*
X12905152Y9697619D02*
X12943247Y9659524D01*
X12943247Y9659524D02*
X12981342Y9583334D01*
X12981342Y9583334D02*
X12981342Y9278572D01*
X13362295Y10497619D02*
X13362295Y10040476D01*
X13362295Y10269048D02*
X12562295Y10269048D01*
X12562295Y10269048D02*
X12676580Y10192857D01*
X12676580Y10192857D02*
X12752771Y10116667D01*
X12752771Y10116667D02*
X12790866Y10040476D01*
X12562295Y11221429D02*
X12562295Y10840477D01*
X12562295Y10840477D02*
X12943247Y10802381D01*
X12943247Y10802381D02*
X12905152Y10840477D01*
X12905152Y10840477D02*
X12867057Y10916667D01*
X12867057Y10916667D02*
X12867057Y11107143D01*
X12867057Y11107143D02*
X12905152Y11183334D01*
X12905152Y11183334D02*
X12943247Y11221429D01*
X12943247Y11221429D02*
X13019438Y11259524D01*
X13019438Y11259524D02*
X13209914Y11259524D01*
X13209914Y11259524D02*
X13286104Y11221429D01*
X13286104Y11221429D02*
X13324200Y11183334D01*
X13324200Y11183334D02*
X13362295Y11107143D01*
X13362295Y11107143D02*
X13362295Y10916667D01*
X13362295Y10916667D02*
X13324200Y10840477D01*
X13324200Y10840477D02*
X13286104Y10802381D01*
X28786104Y20885715D02*
X28824200Y20847619D01*
X28824200Y20847619D02*
X28862295Y20733334D01*
X28862295Y20733334D02*
X28862295Y20657143D01*
X28862295Y20657143D02*
X28824200Y20542857D01*
X28824200Y20542857D02*
X28748009Y20466667D01*
X28748009Y20466667D02*
X28671819Y20428572D01*
X28671819Y20428572D02*
X28519438Y20390476D01*
X28519438Y20390476D02*
X28405152Y20390476D01*
X28405152Y20390476D02*
X28252771Y20428572D01*
X28252771Y20428572D02*
X28176580Y20466667D01*
X28176580Y20466667D02*
X28100390Y20542857D01*
X28100390Y20542857D02*
X28062295Y20657143D01*
X28062295Y20657143D02*
X28062295Y20733334D01*
X28062295Y20733334D02*
X28100390Y20847619D01*
X28100390Y20847619D02*
X28138485Y20885715D01*
X28138485Y21190476D02*
X28100390Y21228572D01*
X28100390Y21228572D02*
X28062295Y21304762D01*
X28062295Y21304762D02*
X28062295Y21495238D01*
X28062295Y21495238D02*
X28100390Y21571429D01*
X28100390Y21571429D02*
X28138485Y21609524D01*
X28138485Y21609524D02*
X28214676Y21647619D01*
X28214676Y21647619D02*
X28290866Y21647619D01*
X28290866Y21647619D02*
X28405152Y21609524D01*
X28405152Y21609524D02*
X28862295Y21152381D01*
X28862295Y21152381D02*
X28862295Y21647619D01*
X28328961Y22333334D02*
X28862295Y22333334D01*
X28024200Y22142858D02*
X28595628Y21952381D01*
X28595628Y21952381D02*
X28595628Y22447620D01*
X19390476Y17187705D02*
X19390476Y16540086D01*
X19390476Y16540086D02*
X19428571Y16463896D01*
X19428571Y16463896D02*
X19466666Y16425800D01*
X19466666Y16425800D02*
X19542857Y16387705D01*
X19542857Y16387705D02*
X19695238Y16387705D01*
X19695238Y16387705D02*
X19771428Y16425800D01*
X19771428Y16425800D02*
X19809523Y16463896D01*
X19809523Y16463896D02*
X19847619Y16540086D01*
X19847619Y16540086D02*
X19847619Y17187705D01*
X20152380Y17187705D02*
X20685714Y17187705D01*
X20685714Y17187705D02*
X20342856Y16387705D01*
X8016666Y23937705D02*
X8016666Y23366277D01*
X8016666Y23366277D02*
X8054761Y23251991D01*
X8054761Y23251991D02*
X8130952Y23175800D01*
X8130952Y23175800D02*
X8245237Y23137705D01*
X8245237Y23137705D02*
X8321428Y23137705D01*
X7673809Y23861515D02*
X7635713Y23899610D01*
X7635713Y23899610D02*
X7559523Y23937705D01*
X7559523Y23937705D02*
X7369047Y23937705D01*
X7369047Y23937705D02*
X7292856Y23899610D01*
X7292856Y23899610D02*
X7254761Y23861515D01*
X7254761Y23861515D02*
X7216666Y23785324D01*
X7216666Y23785324D02*
X7216666Y23709134D01*
X7216666Y23709134D02*
X7254761Y23594848D01*
X7254761Y23594848D02*
X7711904Y23137705D01*
X7711904Y23137705D02*
X7216666Y23137705D01*
X6359523Y1537705D02*
X6359523Y890086D01*
X6359523Y890086D02*
X6321428Y813896D01*
X6321428Y813896D02*
X6283333Y775800D01*
X6283333Y775800D02*
X6207142Y737705D01*
X6207142Y737705D02*
X6054761Y737705D01*
X6054761Y737705D02*
X5978571Y775800D01*
X5978571Y775800D02*
X5940476Y813896D01*
X5940476Y813896D02*
X5902380Y890086D01*
X5902380Y890086D02*
X5902380Y1537705D01*
X5102381Y737705D02*
X5559524Y737705D01*
X5330952Y737705D02*
X5330952Y1537705D01*
X5330952Y1537705D02*
X5407143Y1423420D01*
X5407143Y1423420D02*
X5483333Y1347229D01*
X5483333Y1347229D02*
X5559524Y1309134D01*
D12*
%TO.C,C15*%
X28800580Y5760000D02*
X28519420Y5760000D01*
X28800580Y4740000D02*
X28519420Y4740000D01*
%TO.C,D3*%
X29365000Y14485000D02*
X29365000Y12200000D01*
X30835000Y14485000D02*
X29365000Y14485000D01*
X30835000Y12200000D02*
X30835000Y14485000D01*
%TO.C,C13*%
X21240000Y8390580D02*
X21240000Y8109420D01*
X22260000Y8390580D02*
X22260000Y8109420D01*
%TO.C,R11*%
X24487258Y19272500D02*
X24012742Y19272500D01*
X24487258Y18227500D02*
X24012742Y18227500D01*
%TO.C,C9*%
X32990000Y16109420D02*
X32990000Y16390580D01*
X34010000Y16109420D02*
X34010000Y16390580D01*
%TO.C,R14*%
X20977500Y15437258D02*
X20977500Y14962742D01*
X22022500Y15437258D02*
X22022500Y14962742D01*
%TO.C,C4*%
X43240000Y19359420D02*
X43240000Y19640580D01*
X44260000Y19359420D02*
X44260000Y19640580D01*
%TO.C,R3*%
X29637500Y8087742D02*
X29637500Y8562258D01*
X30682500Y8087742D02*
X30682500Y8562258D01*
%TO.C,D2*%
X12265000Y19800000D02*
X12265000Y17515000D01*
X12265000Y17515000D02*
X13735000Y17515000D01*
X13735000Y17515000D02*
X13735000Y19800000D01*
%TO.C,R5*%
X37512742Y19272500D02*
X37987258Y19272500D01*
X37512742Y18227500D02*
X37987258Y18227500D01*
%TO.C,U8*%
X23250000Y22810000D02*
X22450000Y22810000D01*
X23250000Y22810000D02*
X24050000Y22810000D01*
X23250000Y19690000D02*
X22450000Y19690000D01*
X23250000Y19690000D02*
X24050000Y19690000D01*
X24790000Y19410000D02*
X24310000Y19410000D01*
X24550000Y19740000D01*
X24790000Y19410000D01*
G36*
X24790000Y19410000D02*
G01*
X24310000Y19410000D01*
X24550000Y19740000D01*
X24790000Y19410000D01*
G37*
%TO.C,D1*%
X10765000Y20485000D02*
X10765000Y18200000D01*
X12235000Y20485000D02*
X10765000Y20485000D01*
X12235000Y18200000D02*
X12235000Y20485000D01*
%TO.C,U3*%
X25860000Y7250000D02*
X25860000Y9250000D01*
X29140000Y7250000D02*
X29140000Y9250000D01*
X25930000Y6600000D02*
X25650000Y6880000D01*
X25930000Y6880000D01*
X25930000Y6600000D01*
G36*
X25930000Y6600000D02*
G01*
X25650000Y6880000D01*
X25930000Y6880000D01*
X25930000Y6600000D01*
G37*
%TO.C,R19*%
X15512742Y17522500D02*
X15987258Y17522500D01*
X15512742Y16477500D02*
X15987258Y16477500D01*
%TO.C,REF\u002A\u002A*%
X4800000Y15000000D02*
G75*
G02*
X1800000Y15000000I-1500000J0D01*
G01*
X1800000Y15000000D02*
G75*
G02*
X4800000Y15000000I1500000J0D01*
G01*
D13*
%TO.C,J3*%
X-9555000Y17665000D02*
X-9555000Y12335000D01*
X-8840000Y17715000D02*
X-8840000Y12335000D01*
X-8840000Y17665000D02*
X-9555000Y17665000D01*
X-8840000Y12335000D02*
X-9555000Y12335000D01*
X-8629000Y18094000D02*
X-8840000Y17715000D01*
X-8629000Y18094000D02*
X-8840000Y12335000D01*
X-8629000Y11906000D02*
X-8840000Y12335000D01*
X-8491000Y18094000D02*
X-8840000Y12335000D01*
X-8491000Y18094000D02*
X-8629000Y18094000D01*
X-8491000Y11906000D02*
X-8629000Y11906000D01*
X-8280010Y17715000D02*
X-8840000Y12335000D01*
X-8280010Y17715000D02*
X-8491000Y18094000D01*
X-8280010Y12285000D02*
X-8491000Y11906000D01*
X-8069010Y18094000D02*
X-8629000Y11906000D01*
X-8069010Y18094000D02*
X-8280010Y17715000D01*
X-8069010Y11906000D02*
X-8280010Y12285000D01*
X-7931000Y18094000D02*
X-8491000Y11906000D01*
X-7931000Y18094000D02*
X-8069010Y18094000D01*
X-7931000Y11906000D02*
X-8069010Y11906000D01*
X-7720000Y17715000D02*
X-8280010Y12285000D01*
X-7720000Y17715000D02*
X-7931000Y18094000D01*
X-7720000Y12285000D02*
X-7931000Y11906000D01*
X-7509000Y18094000D02*
X-8069010Y11906000D01*
X-7509000Y18094000D02*
X-7720000Y17715000D01*
X-7509000Y11906000D02*
X-7720000Y12285000D01*
X-7371000Y18094000D02*
X-7931000Y11906000D01*
X-7371000Y18094000D02*
X-7509000Y18094000D01*
X-7371000Y11906000D02*
X-7509000Y11906000D01*
X-7160000Y17715000D02*
X-7720000Y12285000D01*
X-7160000Y17715000D02*
X-7371000Y18094000D01*
X-7160000Y12285000D02*
X-7371000Y11906000D01*
X-6949000Y18094000D02*
X-7509000Y11906000D01*
X-6949000Y18094000D02*
X-7160000Y17715000D01*
X-6949000Y11906000D02*
X-7160000Y12285000D01*
X-6811000Y18094000D02*
X-7371000Y11906000D01*
X-6811000Y18094000D02*
X-6949000Y18094000D01*
X-6811000Y11906000D02*
X-6949000Y11906000D01*
X-6600000Y17715000D02*
X-7160000Y12285000D01*
X-6600000Y17715000D02*
X-6811000Y18094000D01*
X-6600000Y12285000D02*
X-6811000Y11906000D01*
X-6389000Y18094000D02*
X-6949000Y11906000D01*
X-6389000Y18094000D02*
X-6600000Y17715000D01*
X-6389000Y11906000D02*
X-6600000Y12285000D01*
X-6251000Y18094000D02*
X-6811000Y11906000D01*
X-6251000Y18094000D02*
X-6389000Y18094000D01*
X-6251000Y11906000D02*
X-6389000Y11906000D01*
X-6040000Y17715000D02*
X-6600000Y12285000D01*
X-6040000Y17715000D02*
X-6251000Y18094000D01*
X-6040000Y12285000D02*
X-6251000Y11906000D01*
X-5829000Y18094000D02*
X-6389000Y11906000D01*
X-5829000Y18094000D02*
X-6040000Y17715000D01*
X-5829000Y11906000D02*
X-6040000Y12285000D01*
X-5691000Y18094000D02*
X-6251000Y11906000D01*
X-5691000Y18094000D02*
X-5829000Y18094000D01*
X-5691000Y11906000D02*
X-5829000Y11906000D01*
X-5480000Y17715000D02*
X-6040000Y12285000D01*
X-5480000Y17715000D02*
X-5691000Y18094000D01*
X-5480000Y12285000D02*
X-5691000Y11906000D01*
X-5269000Y18094000D02*
X-5829000Y11906000D01*
X-5269000Y18094000D02*
X-5480000Y17715000D01*
X-5269000Y11906000D02*
X-5480000Y12285000D01*
X-5131000Y18094000D02*
X-5691000Y11906000D01*
X-5131000Y18094000D02*
X-5269000Y18094000D01*
X-5131000Y11906000D02*
X-5269000Y11906000D01*
X-4920000Y17712690D02*
X-5480000Y12285000D01*
X-4920000Y17712690D02*
X-5269000Y11906000D01*
X-4920000Y17712690D02*
X-5131000Y18094000D01*
X-4920000Y17712690D02*
X-4920000Y12285000D01*
X-4920000Y17665000D02*
X-5131000Y11906000D01*
X-4920000Y12285000D02*
X-5131000Y11906000D01*
X-4545000Y17447390D02*
X-4920000Y17665000D01*
X-4545000Y17447390D02*
X-4545000Y12546720D01*
X-4545000Y12546730D02*
X-4920000Y12335000D01*
X-1675000Y19760000D02*
X-1675000Y10240000D01*
X-1675000Y17447390D02*
X-4545000Y17447390D01*
X-1675000Y12546730D02*
X-4545000Y12546730D01*
X-25000Y19760000D02*
X-1675000Y19760000D01*
X-25000Y19760000D02*
X-25000Y16137300D01*
X-25000Y13862700D02*
X-25000Y10240000D01*
X-25000Y10240000D02*
X-1675000Y10240000D01*
D12*
%TO.C,U4*%
X13750000Y8860000D02*
X12250000Y8860000D01*
X13750000Y8860000D02*
X15250000Y8860000D01*
X13750000Y5640000D02*
X12250000Y5640000D01*
X13750000Y5640000D02*
X15250000Y5640000D01*
X16202500Y5485000D02*
X15722500Y5485000D01*
X15962500Y5815000D01*
X16202500Y5485000D01*
G36*
X16202500Y5485000D02*
G01*
X15722500Y5485000D01*
X15962500Y5815000D01*
X16202500Y5485000D01*
G37*
%TO.C,C18*%
X12109420Y15510000D02*
X12390580Y15510000D01*
X12109420Y14490000D02*
X12390580Y14490000D01*
%TO.C,U2*%
X42500000Y15785000D02*
X40300000Y15785000D01*
X42500000Y15785000D02*
X44700000Y15785000D01*
X42500000Y7715000D02*
X40300000Y7715000D01*
X42500000Y7715000D02*
X44700000Y7715000D01*
X38640000Y15325000D02*
X38310000Y15085000D01*
X38310000Y15565000D01*
X38640000Y15325000D01*
G36*
X38640000Y15325000D02*
G01*
X38310000Y15085000D01*
X38310000Y15565000D01*
X38640000Y15325000D01*
G37*
%TO.C,R13*%
X27612742Y14522500D02*
X28087258Y14522500D01*
X27612742Y13477500D02*
X28087258Y13477500D01*
%TO.C,C11*%
X36640580Y10760000D02*
X36359420Y10760000D01*
X36640580Y9740000D02*
X36359420Y9740000D01*
%TO.C,U10*%
X35690000Y21500000D02*
X35690000Y22150000D01*
X35690000Y21500000D02*
X35690000Y20850000D01*
X38810000Y21500000D02*
X38810000Y22150000D01*
X38810000Y21500000D02*
X38810000Y20850000D01*
X35740000Y20337500D02*
X35410000Y20097500D01*
X35410000Y20577500D01*
X35740000Y20337500D01*
G36*
X35740000Y20337500D02*
G01*
X35410000Y20097500D01*
X35410000Y20577500D01*
X35740000Y20337500D01*
G37*
%TO.C,C7*%
X36640580Y8760000D02*
X36359420Y8760000D01*
X36640580Y7740000D02*
X36359420Y7740000D01*
%TO.C,R8*%
X18762742Y6522500D02*
X19237258Y6522500D01*
X18762742Y5477500D02*
X19237258Y5477500D01*
%TO.C,R2*%
X49012742Y15872500D02*
X49487258Y15872500D01*
X49012742Y14827500D02*
X49487258Y14827500D01*
%TO.C,C2*%
X50240000Y19359420D02*
X50240000Y19640580D01*
X51260000Y19359420D02*
X51260000Y19640580D01*
%TO.C,C23*%
X29240000Y16109420D02*
X29240000Y16390580D01*
X30260000Y16109420D02*
X30260000Y16390580D01*
%TO.C,R12*%
X12012742Y17022500D02*
X12487258Y17022500D01*
X12012742Y15977500D02*
X12487258Y15977500D01*
%TO.C,C8*%
X24140580Y6260000D02*
X23859420Y6260000D01*
X24140580Y5240000D02*
X23859420Y5240000D01*
%TO.C,R18*%
X26727500Y16487258D02*
X26727500Y16012742D01*
X27772500Y16487258D02*
X27772500Y16012742D01*
%TO.C,C21*%
X7359420Y15510000D02*
X7640580Y15510000D01*
X7359420Y14490000D02*
X7640580Y14490000D01*
%TO.C,R7*%
X24387500Y8562258D02*
X24387500Y8087742D01*
X25432500Y8562258D02*
X25432500Y8087742D01*
%TO.C,C22*%
X10990000Y12890580D02*
X10990000Y12609420D01*
X12010000Y12890580D02*
X12010000Y12609420D01*
%TO.C,C17*%
X15640580Y11510000D02*
X15359420Y11510000D01*
X15640580Y10490000D02*
X15359420Y10490000D01*
%TO.C,C20*%
X24390580Y13260000D02*
X24109420Y13260000D01*
X24390580Y12240000D02*
X24109420Y12240000D01*
%TO.C,C6*%
X36640580Y13760000D02*
X36359420Y13760000D01*
X36640580Y12740000D02*
X36359420Y12740000D01*
%TO.C,R9*%
X9227500Y8262742D02*
X9227500Y8737258D01*
X10272500Y8262742D02*
X10272500Y8737258D01*
%TO.C,R4*%
X31137500Y8087742D02*
X31137500Y8562258D01*
X32182500Y8087742D02*
X32182500Y8562258D01*
%TO.C,J1*%
X7555000Y13560000D02*
X7555000Y13560000D01*
X7555000Y11440000D02*
X7555000Y12440000D01*
X8945000Y13560000D02*
X7555000Y13560000D01*
X8945000Y12560000D02*
X8945000Y13560000D01*
X8945000Y11440000D02*
X7555000Y11440000D01*
X8945000Y11440000D02*
X8945000Y11440000D01*
X8945000Y11440000D02*
X9940000Y11440000D01*
%TO.C,C1*%
X48740000Y19359420D02*
X48740000Y19640580D01*
X49760000Y19359420D02*
X49760000Y19640580D01*
%TO.C,C19*%
X19140580Y11510000D02*
X18859420Y11510000D01*
X19140580Y10490000D02*
X18859420Y10490000D01*
%TO.C,U9*%
X36250000Y17810000D02*
X35450000Y17810000D01*
X36250000Y17810000D02*
X37050000Y17810000D01*
X36250000Y14690000D02*
X35450000Y14690000D01*
X36250000Y14690000D02*
X37050000Y14690000D01*
X37790000Y14410000D02*
X37310000Y14410000D01*
X37550000Y14740000D01*
X37790000Y14410000D01*
G36*
X37790000Y14410000D02*
G01*
X37310000Y14410000D01*
X37550000Y14740000D01*
X37790000Y14410000D01*
G37*
%TO.C,U6*%
X13940000Y14000000D02*
X13940000Y14800000D01*
X13940000Y14000000D02*
X13940000Y13200000D01*
X17060000Y14000000D02*
X17060000Y14800000D01*
X17060000Y14000000D02*
X17060000Y13200000D01*
X17340000Y15060000D02*
X17010000Y15300000D01*
X17340000Y15540000D01*
X17340000Y15060000D01*
G36*
X17340000Y15060000D02*
G01*
X17010000Y15300000D01*
X17340000Y15540000D01*
X17340000Y15060000D01*
G37*
%TO.C,FB2*%
X44727500Y19737258D02*
X44727500Y19262742D01*
X45772500Y19737258D02*
X45772500Y19262742D01*
%TO.C,R17*%
X21477500Y11987258D02*
X21477500Y11512742D01*
X22522500Y11987258D02*
X22522500Y11512742D01*
%TO.C,C10*%
X31240000Y16109420D02*
X31240000Y16390580D01*
X32260000Y16109420D02*
X32260000Y16390580D01*
%TO.C,C5*%
X39740000Y17109420D02*
X39740000Y17390580D01*
X40760000Y17109420D02*
X40760000Y17390580D01*
%TO.C,FB1*%
X47227500Y19737258D02*
X47227500Y19262742D01*
X48272500Y19737258D02*
X48272500Y19262742D01*
%TO.C,C16*%
X12390580Y21760000D02*
X12109420Y21760000D01*
X12390580Y20740000D02*
X12109420Y20740000D01*
%TO.C,R10*%
X18762742Y10022500D02*
X19237258Y10022500D01*
X18762742Y8977500D02*
X19237258Y8977500D01*
%TO.C,R1*%
X22887500Y8487258D02*
X22887500Y8012742D01*
X23932500Y8487258D02*
X23932500Y8012742D01*
%TO.C,C12*%
X27359420Y12510000D02*
X27640580Y12510000D01*
X27359420Y11490000D02*
X27640580Y11490000D01*
%TO.C,C25*%
X34890580Y19260000D02*
X34609420Y19260000D01*
X34890580Y18240000D02*
X34609420Y18240000D01*
%TO.C,C14*%
X31519420Y6335000D02*
X31800580Y6335000D01*
X31519420Y5315000D02*
X31800580Y5315000D01*
%TO.C,U5*%
X22690000Y15750000D02*
X22690000Y16550000D01*
X22690000Y15750000D02*
X22690000Y14950000D01*
X25810000Y15750000D02*
X25810000Y16550000D01*
X25810000Y15750000D02*
X25810000Y14950000D01*
X26090000Y16810000D02*
X25760000Y17050000D01*
X26090000Y17290000D01*
X26090000Y16810000D01*
G36*
X26090000Y16810000D02*
G01*
X25760000Y17050000D01*
X26090000Y17290000D01*
X26090000Y16810000D01*
G37*
%TO.C,C3*%
X41740000Y19359420D02*
X41740000Y19640580D01*
X42760000Y19359420D02*
X42760000Y19640580D01*
%TO.C,R16*%
X18762742Y8522500D02*
X19237258Y8522500D01*
X18762742Y7477500D02*
X19237258Y7477500D01*
%TO.C,R15*%
X12477500Y12512742D02*
X12477500Y12987258D01*
X13522500Y12512742D02*
X13522500Y12987258D01*
%TO.C,C24*%
X26690000Y21540580D02*
X26690000Y21259420D01*
X27710000Y21540580D02*
X27710000Y21259420D01*
%TO.C,U7*%
X17440000Y14000000D02*
X17440000Y14800000D01*
X17440000Y14000000D02*
X17440000Y13200000D01*
X20560000Y14000000D02*
X20560000Y14800000D01*
X20560000Y14000000D02*
X20560000Y13200000D01*
X20840000Y15060000D02*
X20510000Y15300000D01*
X20840000Y15540000D01*
X20840000Y15060000D01*
G36*
X20840000Y15060000D02*
G01*
X20510000Y15300000D01*
X20840000Y15540000D01*
X20840000Y15060000D01*
G37*
%TD*%
M02*
